<?xml version="1.0" encoding="utf-8"?>
<!-- Generator: Adobe Illustrator 24.2.2, SVG Export Plug-In . SVG Version: 6.00 Build 0)  -->
<svg version="1.1" id="Layer_1" xmlns="http://www.w3.org/2000/svg" xmlns:xlink="http://www.w3.org/1999/xlink" x="0px" y="0px"
	 viewBox="0 0 277 86" style="enable-background:new 0 0 277 86;" xml:space="preserve">
<style type="text/css">
	.st0{fill:#2BB673;}
</style>
<g>
	<path class="st0" d="M30.6,0h17.3c3.8,0,6.6,0.9,8.5,2.7c1.9,1.8,2.8,4.4,2.8,7.7c0,3.4-1,6.1-3.1,8c-2.1,1.9-5.2,2.9-9.4,2.9h-5.7
		v12.5H30.6V0z M41.1,14.4h2.6c2,0,3.4-0.3,4.2-1c0.8-0.7,1.2-1.6,1.2-2.7c0-1.1-0.4-2-1.1-2.7c-0.7-0.7-2-1.1-4-1.1h-3V14.4z"/>
	<path class="st0" d="M60.7,21.6c0-3.7,1.3-6.8,3.8-9.2C67,10,70.4,8.8,74.7,8.8c4.9,0,8.6,1.4,11.1,4.3c2,2.3,3,5.1,3,8.5
		c0,3.8-1.2,6.8-3.7,9.3c-2.5,2.4-5.9,3.6-10.4,3.6c-3.9,0-7.1-1-9.5-3C62.2,28.9,60.7,25.6,60.7,21.6z M70.1,21.6
		c0,2.2,0.4,3.8,1.3,4.8c0.9,1,2,1.6,3.3,1.6c1.4,0,2.5-0.5,3.3-1.5c0.9-1,1.3-2.7,1.3-5c0-2.1-0.4-3.7-1.3-4.7
		c-0.9-1-2-1.6-3.2-1.6c-1.4,0-2.5,0.5-3.4,1.6S70.1,19.4,70.1,21.6z"/>
	<path class="st0" d="M91.7,27l9.3-0.9c0.4,1.1,0.9,1.9,1.6,2.4c0.7,0.5,1.6,0.7,2.8,0.7c1.3,0,2.2-0.3,2.9-0.8
		c0.5-0.4,0.8-0.9,0.8-1.5c0-0.7-0.4-1.2-1.1-1.6c-0.5-0.3-1.9-0.6-4-1c-3.3-0.6-5.5-1.1-6.8-1.6c-1.3-0.5-2.3-1.3-3.2-2.5
		c-0.9-1.2-1.3-2.5-1.3-3.9c0-1.6,0.5-3,1.4-4.2c0.9-1.2,2.2-2,3.9-2.6c1.6-0.6,3.8-0.9,6.6-0.9c2.9,0,5.1,0.2,6.5,0.7
		s2.6,1.1,3.5,2.1c0.9,0.9,1.7,2.2,2.3,3.8l-8.9,0.9c-0.2-0.8-0.6-1.4-1.2-1.7c-0.7-0.5-1.6-0.7-2.7-0.7c-1.1,0-1.8,0.2-2.3,0.6
		c-0.5,0.4-0.7,0.8-0.7,1.4c0,0.6,0.3,1.1,0.9,1.4c0.6,0.3,2,0.6,4,0.8c3.1,0.4,5.4,0.8,7,1.5c1.5,0.6,2.7,1.5,3.5,2.7
		c0.8,1.2,1.2,2.5,1.2,3.8c0,1.4-0.4,2.8-1.3,4.1s-2.2,2.4-4,3.2c-1.8,0.8-4.3,1.2-7.5,1.2c-4.5,0-7.7-0.6-9.6-1.9
		C93.5,31.2,92.3,29.4,91.7,27z"/>
	<path class="st0" d="M149.4,23.9h-18.8c0.2,1.5,0.6,2.6,1.2,3.4c0.9,1.1,2.1,1.6,3.5,1.6c0.9,0,1.8-0.2,2.6-0.7
		c0.5-0.3,1.1-0.8,1.6-1.5l9.2,0.9c-1.4,2.5-3.1,4.2-5.1,5.3c-2,1.1-4.9,1.6-8.6,1.6c-3.2,0-5.8-0.5-7.7-1.4
		c-1.9-0.9-3.4-2.4-4.6-4.4c-1.2-2-1.8-4.3-1.8-7c0-3.8,1.2-6.9,3.7-9.3c2.4-2.4,5.8-3.5,10.1-3.5c3.5,0,6.3,0.5,8.3,1.6
		c2,1.1,3.6,2.6,4.6,4.6c1.1,2,1.6,4.6,1.6,7.9V23.9z M139.8,19.4c-0.2-1.8-0.7-3.1-1.5-3.9c-0.8-0.8-1.8-1.2-3.1-1.2
		c-1.5,0-2.7,0.6-3.6,1.8c-0.6,0.7-0.9,1.8-1.1,3.3H139.8z"/>
	<path class="st0" d="M151.9,17.8h13.6v7.3h-13.6V17.8z"/>
	<path class="st0" d="M180.7,0v9.3h5.2v6.8h-5.2v8.7c0,1,0.1,1.7,0.3,2.1c0.3,0.5,0.8,0.8,1.6,0.8c0.7,0,1.7-0.2,2.9-0.6l0.7,6.5
		c-2.3,0.5-4.5,0.8-6.5,0.8c-2.3,0-4.1-0.3-5.2-0.9c-1.1-0.6-1.9-1.5-2.5-2.7s-0.8-3.2-0.8-5.9v-8.6h-3.5V9.3h3.5V4.8L180.7,0z"/>
	<path class="st0" d="M189.2,21.6c0-3.7,1.3-6.8,3.8-9.2c2.5-2.4,5.9-3.6,10.2-3.6c4.9,0,8.6,1.4,11.1,4.3c2,2.3,3,5.1,3,8.5
		c0,3.8-1.2,6.8-3.7,9.3c-2.5,2.4-5.9,3.6-10.4,3.6c-3.9,0-7.1-1-9.5-3C190.7,28.9,189.2,25.6,189.2,21.6z M198.6,21.6
		c0,2.2,0.4,3.8,1.3,4.8c0.9,1,2,1.6,3.3,1.6c1.4,0,2.5-0.5,3.3-1.5c0.9-1,1.3-2.7,1.3-5c0-2.1-0.4-3.7-1.3-4.7
		c-0.9-1-2-1.6-3.2-1.6c-1.4,0-2.5,0.5-3.4,1.6S198.6,19.4,198.6,21.6z"/>
	<path class="st0" d="M221.2,0h9.4v6.4h-9.4V0z M221.2,9.3h9.4v24.5h-9.4V9.3z"/>
	<path class="st0" d="M0,42.6h9.4v33.8H0V42.6z"/>
	<path class="st0" d="M23,59.8l-9-0.9c0.3-1.6,0.8-2.8,1.5-3.7c0.6-0.9,1.6-1.7,2.8-2.3c0.9-0.5,2-0.8,3.5-1.1
		c1.5-0.3,3.1-0.4,4.9-0.4c2.8,0,5.1,0.2,6.8,0.5c1.7,0.3,3.1,1,4.3,2c0.8,0.7,1.4,1.7,1.9,2.9c0.5,1.3,0.7,2.5,0.7,3.6v10.8
		c0,1.2,0.1,2.1,0.2,2.7c0.1,0.7,0.5,1.5,1,2.5h-8.8c-0.4-0.6-0.6-1.1-0.7-1.4c-0.1-0.3-0.2-0.8-0.3-1.6c-1.2,1.2-2.5,2-3.7,2.5
		c-1.7,0.7-3.6,1-5.8,1c-2.9,0-5.1-0.7-6.6-2c-1.5-1.4-2.3-3-2.3-5c0-1.9,0.5-3.4,1.6-4.6c1.1-1.2,3.1-2.1,6-2.7
		c3.5-0.7,5.8-1.2,6.8-1.5c1-0.3,2.2-0.7,3.3-1.1c0-1.2-0.2-2-0.7-2.4c-0.5-0.5-1.3-0.7-2.5-0.7c-1.5,0-2.7,0.2-3.5,0.7
		C23.8,58,23.4,58.7,23,59.8z M31.1,64.7c-1.3,0.5-2.6,0.9-4,1.2c-1.9,0.5-3.1,1-3.6,1.5c-0.5,0.5-0.8,1.1-0.8,1.7
		c0,0.7,0.3,1.3,0.8,1.8c0.5,0.5,1.3,0.7,2.3,0.7c1,0,2-0.3,2.9-0.8c0.9-0.5,1.5-1.1,1.9-1.9c0.4-0.7,0.6-1.7,0.6-2.8V64.7z"/>
	<path class="st0" d="M87.4,85.6H78V74c-0.9,1-2,1.7-3.2,2.2c-1.2,0.5-2.5,0.7-4,0.7c-3,0-5.4-1.1-7.4-3.2c-2-2.1-2.9-5.2-2.9-9.2
		c0-2.7,0.4-5,1.3-7.1c0.9-2,2.1-3.6,3.7-4.6c1.6-1,3.3-1.5,5.2-1.5c1.6,0,3.2,0.4,4.5,1.1c1,0.5,2.1,1.6,3.3,3.1v-3.6h8.8V85.6z
		 M78,64.2c0-2.1-0.4-3.6-1.2-4.6c-0.8-0.9-1.8-1.4-3-1.4c-1.1,0-2.1,0.5-2.8,1.4c-0.8,0.9-1.1,2.5-1.1,4.7c0,2,0.4,3.4,1.1,4.3
		c0.7,0.9,1.7,1.3,2.7,1.3c1.3,0,2.3-0.5,3.1-1.4C77.6,67.5,78,66.1,78,64.2z"/>
	<path class="st0" d="M118,76.3h-8.8v-4c-1.3,1.6-2.6,2.8-4,3.5c-1.3,0.7-3,1-4.9,1c-2.6,0-4.6-0.8-6.1-2.3
		c-1.5-1.5-2.2-3.9-2.2-7.1V51.9h9.4v13.5c0,1.5,0.3,2.6,0.9,3.3c0.6,0.6,1.4,1,2.4,1c1.1,0,2-0.4,2.8-1.3s1.1-2.4,1.1-4.6V51.9h9.4
		V76.3z"/>
	<path class="st0" d="M150.8,66.4H132c0.2,1.5,0.6,2.6,1.2,3.4c0.9,1.1,2.1,1.6,3.5,1.6c0.9,0,1.8-0.2,2.6-0.7
		c0.5-0.3,1.1-0.8,1.6-1.5l9.2,0.9c-1.4,2.5-3.1,4.2-5.1,5.3c-2,1.1-4.9,1.6-8.6,1.6c-3.2,0-5.8-0.5-7.7-1.4
		c-1.9-0.9-3.4-2.4-4.6-4.4c-1.2-2-1.8-4.3-1.8-7c0-3.8,1.2-6.9,3.7-9.3c2.4-2.4,5.8-3.5,10.1-3.5c3.5,0,6.3,0.5,8.3,1.6
		c2,1.1,3.6,2.6,4.6,4.6c1.1,2,1.6,4.6,1.6,7.9V66.4z M141.3,61.9c-0.2-1.8-0.7-3.1-1.5-3.9s-1.8-1.2-3.1-1.2
		c-1.5,0-2.7,0.6-3.6,1.8c-0.6,0.7-0.9,1.8-1.1,3.3H141.3z"/>
	<path class="st0" d="M153.5,69.6l9.3-0.9c0.4,1.1,0.9,1.9,1.6,2.4c0.7,0.5,1.6,0.7,2.8,0.7c1.3,0,2.2-0.3,2.9-0.8
		c0.5-0.4,0.8-0.9,0.8-1.5c0-0.7-0.4-1.2-1.1-1.6c-0.5-0.3-1.9-0.6-4-1c-3.3-0.6-5.5-1.1-6.8-1.6c-1.3-0.5-2.3-1.3-3.2-2.5
		c-0.9-1.2-1.3-2.5-1.3-3.9c0-1.6,0.5-3,1.4-4.2c0.9-1.2,2.2-2,3.9-2.6c1.6-0.6,3.8-0.9,6.6-0.9c2.9,0,5.1,0.2,6.5,0.7
		s2.6,1.1,3.5,2.1c0.9,0.9,1.7,2.2,2.3,3.8l-8.9,0.9c-0.2-0.8-0.6-1.4-1.2-1.7c-0.7-0.5-1.6-0.7-2.7-0.7c-1.1,0-1.8,0.2-2.3,0.6
		c-0.5,0.4-0.7,0.8-0.7,1.4c0,0.6,0.3,1.1,0.9,1.4c0.6,0.3,2,0.6,4,0.8c3.1,0.4,5.4,0.8,7,1.5c1.5,0.6,2.7,1.5,3.5,2.7
		c0.8,1.2,1.2,2.5,1.2,3.8c0,1.4-0.4,2.8-1.3,4.1s-2.2,2.4-4,3.2c-1.8,0.8-4.3,1.2-7.5,1.2c-4.5,0-7.7-0.6-9.6-1.9
		C155.2,73.7,154,71.9,153.5,69.6z"/>
	<path class="st0" d="M194.3,42.6v9.3h5.2v6.8h-5.2v8.7c0,1,0.1,1.7,0.3,2.1c0.3,0.5,0.8,0.8,1.6,0.8c0.7,0,1.7-0.2,2.9-0.6l0.7,6.5
		c-2.3,0.5-4.5,0.8-6.5,0.8c-2.3,0-4.1-0.3-5.2-0.9c-1.1-0.6-1.9-1.5-2.5-2.7c-0.5-1.2-0.8-3.2-0.8-5.9v-8.6h-3.5v-6.8h3.5v-4.5
		L194.3,42.6z"/>
	<path class="st0" d="M205.3,42.6h9.4v6.4h-9.4V42.6z M205.3,51.9h9.4v24.5h-9.4V51.9z"/>
	<path class="st0" d="M218.5,64.2c0-3.7,1.3-6.8,3.8-9.2c2.5-2.4,5.9-3.6,10.2-3.6c4.9,0,8.6,1.4,11.1,4.3c2,2.3,3,5.1,3,8.5
		c0,3.8-1.2,6.8-3.7,9.3c-2.5,2.4-5.9,3.6-10.4,3.6c-3.9,0-7.1-1-9.5-3C220,71.4,218.5,68.2,218.5,64.2z M227.9,64.1
		c0,2.2,0.4,3.8,1.3,4.8c0.9,1,2,1.6,3.3,1.6c1.4,0,2.5-0.5,3.3-1.5c0.9-1,1.3-2.7,1.3-5c0-2.1-0.4-3.7-1.3-4.7
		c-0.9-1-2-1.6-3.2-1.6c-1.4,0-2.5,0.5-3.4,1.6C228.4,60.4,227.9,62,227.9,64.1z"/>
	<path class="st0" d="M251.2,51.9h8.7v4c1.3-1.6,2.6-2.8,4-3.5c1.3-0.7,3-1,4.9-1c2.6,0,4.6,0.8,6.1,2.3c1.5,1.5,2.2,3.9,2.2,7.2
		v15.6h-9.4V62.9c0-1.5-0.3-2.6-0.9-3.3c-0.6-0.6-1.4-1-2.4-1c-1.1,0-2.1,0.4-2.8,1.3c-0.7,0.9-1.1,2.4-1.1,4.6v11.8h-9.4V51.9z"/>
</g>
</svg>
