<?xml version="1.0" encoding="utf-8"?>
<!-- Generator: Adobe Illustrator 24.2.2, SVG Export Plug-In . SVG Version: 6.00 Build 0)  -->
<svg version="1.1" id="Layer_1" xmlns="http://www.w3.org/2000/svg" xmlns:xlink="http://www.w3.org/1999/xlink" x="0px" y="0px"
	 viewBox="0 0 514 92.2" style="enable-background:new 0 0 514 92.2;" xml:space="preserve">
<g>
	<path d="M49.4,42.8l19,5.8c-1.3,5.3-3.3,9.8-6,13.4c-2.8,3.6-6.2,6.3-10.2,8.1c-4.1,1.8-9.3,2.7-15.6,2.7c-7.6,0-13.9-1.1-18.7-3.3
		c-4.8-2.2-9-6.1-12.5-11.7C1.8,52.1,0,44.9,0,36.2C0,24.6,3.1,15.6,9.3,9.4C15.5,3.1,24.2,0,35.5,0c8.9,0,15.8,1.8,20.9,5.4
		c5.1,3.6,8.8,9.1,11.3,16.5l-19.2,4.3c-0.7-2.1-1.4-3.7-2.1-4.7c-1.2-1.7-2.7-2.9-4.5-3.8c-1.8-0.9-3.7-1.3-5.9-1.3
		c-4.9,0-8.7,2-11.3,5.9c-2,2.9-3,7.6-3,13.9c0,7.8,1.2,13.2,3.5,16c2.4,2.9,5.7,4.3,10,4.3c4.2,0,7.3-1.2,9.4-3.5
		C46.9,50.6,48.4,47.2,49.4,42.8z"/>
	<path d="M73.3,46.2c0-7.8,2.6-14.2,7.9-19.2c5.2-5,12.3-7.6,21.3-7.6c10.2,0,17.9,3,23.1,8.9c4.2,4.8,6.3,10.6,6.3,17.6
		c0,7.8-2.6,14.3-7.8,19.3c-5.2,5-12.4,7.5-21.6,7.5c-8.2,0-14.8-2.1-19.9-6.2C76.4,61.3,73.3,54.5,73.3,46.2z M92.9,46.1
		c0,4.5,0.9,7.9,2.8,10.1c1.8,2.2,4.1,3.3,6.9,3.3c2.8,0,5.1-1.1,6.9-3.2c1.8-2.1,2.7-5.6,2.7-10.3c0-4.4-0.9-7.7-2.7-9.9
		c-1.8-2.2-4.1-3.2-6.8-3.2c-2.8,0-5.2,1.1-7.1,3.3C93.8,38.3,92.9,41.7,92.9,46.1z"/>
	<path d="M139.5,20.6h18.3v8.3c1.8-3.6,3.6-6.1,5.4-7.5c1.9-1.4,4.2-2,6.9-2c2.9,0,6,0.9,9.5,2.7l-6,13.9c-2.3-1-4.1-1.4-5.5-1.4
		c-2.6,0-4.5,1.1-5.9,3.2c-2,3-3,8.5-3,16.7v17.1h-19.6V20.6z"/>
	<path d="M187.2,20.6h18.3v8.3c1.8-3.6,3.6-6.1,5.4-7.5c1.9-1.4,4.2-2,6.9-2c2.9,0,6,0.9,9.5,2.7l-6,13.9c-2.3-1-4.1-1.4-5.5-1.4
		c-2.6,0-4.5,1.1-5.9,3.2c-2,3-3,8.5-3,16.7v17.1h-19.6V20.6z"/>
	<path d="M233.3,1.2h19.5v13.3h-19.5V1.2z M233.3,20.6h19.5v50.9h-19.5V20.6z"/>
	<path d="M300.7,20.6H319v48.1l0,2.3c0,3.2-0.7,6.2-2,9.1c-1.4,2.9-3.2,5.2-5.4,7c-2.3,1.8-5.1,3.1-8.6,3.9
		c-3.5,0.8-7.4,1.2-11.9,1.2c-10.2,0-17.3-1.5-21.1-4.6c-3.8-3.1-5.7-7.2-5.7-12.3c0-0.6,0-1.5,0.1-2.6l18.9,2.2
		c0.5,1.8,1.2,3,2.2,3.6c1.4,1,3.2,1.5,5.4,1.5c2.8,0,4.9-0.8,6.3-2.3c1.4-1.5,2.1-4.1,2.1-7.9v-7.7c-1.9,2.3-3.8,3.9-5.8,4.9
		c-3,1.6-6.3,2.4-9.7,2.4c-6.8,0-12.3-3-16.5-8.9c-3-4.2-4.5-9.8-4.5-16.7c0-7.9,1.9-14,5.8-18.1c3.8-4.2,8.9-6.2,15.1-6.2
		c4,0,7.2,0.7,9.8,2c2.6,1.3,5,3.6,7.2,6.7V20.6z M282.4,45.3c0,3.7,0.8,6.4,2.4,8.2c1.6,1.8,3.6,2.7,6.2,2.7c2.4,0,4.5-0.9,6.1-2.8
		c1.6-1.8,2.5-4.6,2.5-8.3c0-3.7-0.9-6.5-2.6-8.5c-1.7-2-3.8-3-6.3-3c-2.5,0-4.5,0.9-6,2.7C283.1,38.1,282.4,41.1,282.4,45.3z"/>
	<path d="M385.4,50.9h-39.1c0.4,3.1,1.2,5.5,2.5,7c1.9,2.2,4.3,3.3,7.4,3.3c1.9,0,3.7-0.5,5.5-1.4c1.1-0.6,2.2-1.7,3.4-3.2l19.2,1.8
		c-2.9,5.1-6.5,8.8-10.6,11c-4.2,2.2-10.1,3.3-17.9,3.3c-6.7,0-12.1-1-15.9-2.9c-3.9-1.9-7.1-4.9-9.6-9.1c-2.5-4.1-3.8-9-3.8-14.6
		c0-8,2.6-14.4,7.7-19.3c5.1-4.9,12.1-7.4,21.1-7.4c7.3,0,13,1.1,17.3,3.3c4.2,2.2,7.4,5.4,9.6,9.6c2.2,4.2,3.3,9.6,3.3,16.4V50.9z
		 M365.5,41.5c-0.4-3.8-1.4-6.5-3-8.1c-1.6-1.6-3.8-2.4-6.5-2.4c-3.1,0-5.6,1.2-7.4,3.7c-1.2,1.5-1.9,3.8-2.3,6.9H365.5z"/>
</g>
</svg>
