<?xml version="1.0" encoding="utf-8"?>
<!-- Generator: Adobe Illustrator 24.2.2, SVG Export Plug-In . SVG Version: 6.00 Build 0)  -->
<svg version="1.1" id="Layer_1" xmlns="http://www.w3.org/2000/svg" xmlns:xlink="http://www.w3.org/1999/xlink" x="0px" y="0px"
	 viewBox="0 0 514 81" style="enable-background:new 0 0 514 81;" xml:space="preserve">
<g>
	<path d="M0,71.5V1.2h36.2c6.7,0,11.8,0.6,15.4,1.7c3.5,1.2,6.4,3.3,8.6,6.4c2.2,3.1,3.3,6.9,3.3,11.4c0,3.9-0.8,7.3-2.5,10.1
		c-1.7,2.8-4,5.1-6.9,6.9c-1.9,1.1-4.4,2-7.6,2.8c2.6,0.9,4.5,1.7,5.7,2.6c0.8,0.6,2,1.8,3.5,3.7c1.5,1.9,2.5,3.3,3,4.4l10.5,20.4
		H44.6L33,50c-1.5-2.8-2.8-4.6-3.9-5.4c-1.6-1.1-3.3-1.6-5.3-1.6h-1.9v28.5H0z M21.8,29.7H31c1,0,2.9-0.3,5.8-1
		c1.4-0.3,2.6-1,3.5-2.2c0.9-1.2,1.4-2.5,1.4-4.1c0-2.3-0.7-4-2.2-5.2c-1.4-1.2-4.1-1.8-8.1-1.8h-9.5V29.7z"/>
	<path d="M127.5,50.9H88.3c0.4,3.1,1.2,5.5,2.5,7c1.9,2.2,4.3,3.3,7.4,3.3c1.9,0,3.7-0.5,5.5-1.4c1.1-0.6,2.2-1.7,3.4-3.2l19.2,1.8
		c-2.9,5.1-6.5,8.8-10.6,11c-4.2,2.2-10.1,3.3-17.9,3.3c-6.7,0-12.1-1-15.9-2.9c-3.9-1.9-7.1-4.9-9.6-9.1c-2.5-4.1-3.8-9-3.8-14.6
		c0-8,2.6-14.4,7.7-19.3c5.1-4.9,12.1-7.4,21.1-7.4c7.3,0,13,1.1,17.3,3.3c4.2,2.2,7.4,5.4,9.6,9.6c2.2,4.2,3.3,9.6,3.3,16.4V50.9z
		 M107.6,41.5c-0.4-3.8-1.4-6.5-3-8.1c-1.6-1.6-3.8-2.4-6.5-2.4c-3.1,0-5.6,1.2-7.4,3.7c-1.2,1.5-1.9,3.8-2.3,6.9H107.6z M97.3,0
		h16.8L98.6,14.3h-9.4L97.3,0z"/>
	<path d="M160.1,20.6h9.3v14.3h-9.3v36.7h-19.6V34.9h-7.3V20.6h7.3v-2.3c0-2.1,0.2-4.4,0.7-6.9c0.4-2.5,1.3-4.5,2.5-6.1
		c1.2-1.6,3-2.9,5.2-3.8c2.2-1,5.5-1.5,9.8-1.5c3.4,0,8.4,0.4,14.9,1.2L171.5,13c-2.3-0.4-4.2-0.6-5.7-0.6c-1.8,0-3,0.3-3.8,0.9
		c-0.8,0.6-1.3,1.5-1.6,2.8C160.2,16.8,160.1,18.3,160.1,20.6z"/>
	<path d="M232.3,71.5H214v-8.3c-2.7,3.4-5.5,5.8-8.2,7.2c-2.8,1.4-6.2,2.2-10.2,2.2c-5.4,0-9.6-1.6-12.6-4.8
		c-3.1-3.2-4.6-8.2-4.6-14.8V20.6H198v28c0,3.2,0.6,5.5,1.8,6.8c1.2,1.3,2.8,2,5,2c2.3,0,4.2-0.9,5.7-2.7c1.5-1.8,2.2-5,2.2-9.6
		V20.6h19.5V71.5z"/>
	<path d="M267.7,1.2v19.4h10.7v14.2h-10.7v18.1c0,2.2,0.2,3.6,0.6,4.3c0.6,1.1,1.8,1.6,3.4,1.6c1.4,0,3.5-0.4,6-1.2l1.4,13.5
		c-4.8,1.1-9.3,1.6-13.5,1.6c-4.9,0-8.4-0.6-10.7-1.9c-2.3-1.2-4-3.1-5.1-5.7c-1.1-2.5-1.7-6.7-1.7-12.4V34.8h-7.2V20.6h7.2v-9.4
		L267.7,1.2z"/>
	<path d="M344.3,50.9h-39.1c0.4,3.1,1.2,5.5,2.5,7c1.9,2.2,4.3,3.3,7.4,3.3c1.9,0,3.7-0.5,5.5-1.4c1.1-0.6,2.2-1.7,3.4-3.2l19.2,1.8
		c-2.9,5.1-6.5,8.8-10.6,11c-4.2,2.2-10.1,3.3-17.9,3.3c-6.7,0-12.1-1-15.9-2.9c-3.9-1.9-7.1-4.9-9.6-9.1c-2.5-4.1-3.8-9-3.8-14.6
		c0-8,2.6-14.4,7.7-19.3c5.1-4.9,12.1-7.4,21.1-7.4c7.3,0,13,1.1,17.3,3.3c4.2,2.2,7.4,5.4,9.6,9.6c2.2,4.2,3.3,9.6,3.3,16.4V50.9z
		 M324.4,41.5c-0.4-3.8-1.4-6.5-3-8.1c-1.6-1.6-3.8-2.4-6.5-2.4c-3.1,0-5.6,1.2-7.4,3.7c-1.2,1.5-1.9,3.8-2.3,6.9H324.4z"/>
</g>
</svg>
