<?xml version="1.0" encoding="utf-8"?>
<!-- Generator: Adobe Illustrator 24.2.2, SVG Export Plug-In . SVG Version: 6.00 Build 0)  -->
<svg version="1.1" id="Layer_1" xmlns="http://www.w3.org/2000/svg" xmlns:xlink="http://www.w3.org/1999/xlink" x="0px" y="0px"
	 viewBox="0 0 603.9 227.4" style="enable-background:new 0 0 603.9 227.4;" xml:space="preserve">
<style type="text/css">
	.st0{fill:#23D3FF;}
</style>
<g>
	<path class="st0" d="M119.2,47.1c2.1,1.5,3.5,2.4,4.1,2.7c1,0.5,2.3,1.2,3.9,1.9l-4.6,9.4c-2.3-1.1-4.6-2.5-6.9-4
		c-2.3-1.6-3.9-2.7-4.8-3.5c-3.7,1.6-8.3,2.4-13.9,2.4c-8.2,0-14.7-2.1-19.4-6.4C71.8,44.4,69,37.3,69,28.2c0-8.9,2.5-15.8,7.4-20.8
		C81.3,2.5,88.2,0,97,0c9,0,15.9,2.4,20.8,7.2c4.9,4.8,7.3,11.7,7.3,20.7C125.1,35.9,123.1,42.3,119.2,47.1z M106.4,38.6
		c1.3-2.4,2-6,2-10.7c0-5.5-1-9.4-3-11.7c-2-2.3-4.8-3.5-8.4-3.5c-3.3,0-6,1.2-8.1,3.6c-2.1,2.4-3.1,6.1-3.1,11.2c0,5.9,1,10,3,12.4
		c2,2.4,4.8,3.6,8.3,3.6c1.1,0,2.2-0.1,3.2-0.3c-1.4-1.4-3.6-2.6-6.6-3.8l2.6-6c1.5,0.3,2.6,0.6,3.5,1c0.8,0.4,2.4,1.4,4.8,3.1
		C105.1,37.7,105.7,38.1,106.4,38.6z"/>
	<path class="st0" d="M167.8,0.9h16.7v32.2c0,3.2-0.5,6.2-1.5,9.1c-1,2.8-2.6,5.3-4.7,7.5c-2.1,2.1-4.4,3.6-6.7,4.5
		c-3.2,1.2-7.1,1.8-11.7,1.8c-2.6,0-5.5-0.2-8.6-0.6c-3.1-0.4-5.7-1.1-7.8-2.2c-2.1-1.1-4-2.6-5.7-4.7c-1.7-2-2.9-4.1-3.6-6.2
		c-1-3.4-1.6-6.5-1.6-9.2V0.9h16.7v33c0,3,0.8,5.3,2.5,6.9c1.6,1.7,3.9,2.5,6.8,2.5c2.9,0,5.1-0.8,6.8-2.5c1.6-1.6,2.5-4,2.5-7V0.9z
		"/>
	<path class="st0" d="M195.5,0.9h44.8v11.5h-28v8.6h26v11h-26v10.7h28.9V55h-45.6V0.9z"/>
	<path class="st0" d="M250.1,0.9h16.7v40.8h26.1V55h-42.8V0.9z"/>
	<path class="st0" d="M347,47.1c2.1,1.5,3.5,2.4,4.1,2.7c1,0.5,2.3,1.2,3.9,1.9l-4.6,9.4c-2.3-1.1-4.6-2.5-6.9-4
		c-2.3-1.6-3.9-2.7-4.8-3.5c-3.7,1.6-8.3,2.4-13.9,2.4c-8.2,0-14.7-2.1-19.4-6.4c-5.6-5.1-8.4-12.2-8.4-21.4
		c0-8.9,2.5-15.8,7.4-20.8C309.1,2.5,316,0,324.8,0c9,0,15.9,2.4,20.8,7.2c4.9,4.8,7.3,11.7,7.3,20.7C352.9,35.9,351,42.3,347,47.1z
		 M334.2,38.6c1.3-2.4,2-6,2-10.7c0-5.5-1-9.4-3-11.7c-2-2.3-4.8-3.5-8.4-3.5c-3.3,0-6,1.2-8.1,3.6c-2.1,2.4-3.1,6.1-3.1,11.2
		c0,5.9,1,10,3,12.4c2,2.4,4.8,3.6,8.3,3.6c1.1,0,2.2-0.1,3.2-0.3c-1.4-1.4-3.6-2.6-6.6-3.8l2.6-6c1.5,0.3,2.6,0.6,3.5,1
		c0.8,0.4,2.4,1.4,4.8,3.1C332.9,37.7,333.5,38.1,334.2,38.6z"/>
	<path class="st0" d="M395.6,0.9h16.7v32.2c0,3.2-0.5,6.2-1.5,9.1c-1,2.8-2.6,5.3-4.7,7.5c-2.1,2.1-4.4,3.6-6.7,4.5
		c-3.2,1.2-7.1,1.8-11.7,1.8c-2.6,0-5.5-0.2-8.6-0.6c-3.1-0.4-5.7-1.1-7.8-2.2c-2.1-1.1-4-2.6-5.7-4.7c-1.7-2-2.9-4.1-3.6-6.2
		c-1-3.4-1.6-6.5-1.6-9.2V0.9h16.7v33c0,3,0.8,5.3,2.5,6.9c1.6,1.7,3.9,2.5,6.8,2.5c2.9,0,5.1-0.8,6.8-2.5c1.6-1.6,2.5-4,2.5-7V0.9z
		"/>
	<path class="st0" d="M421.8,0.9h44.8v11.5h-28v8.6h26v11h-26v10.7h28.9V55h-45.6V0.9z"/>
	<path class="st0" d="M473.5,37.1l15.9-1c0.3,2.6,1,4.6,2.1,5.9c1.7,2.2,4.2,3.3,7.4,3.3c2.4,0,4.2-0.6,5.5-1.7
		c1.3-1.1,1.9-2.4,1.9-3.9c0-1.4-0.6-2.7-1.8-3.8c-1.2-1.1-4.1-2.2-8.6-3.1c-7.3-1.6-12.6-3.8-15.7-6.6c-3.1-2.7-4.7-6.2-4.7-10.4
		c0-2.8,0.8-5.4,2.4-7.9c1.6-2.5,4-4.4,7.3-5.8c3.2-1.4,7.7-2.1,13.3-2.1c6.9,0,12.2,1.3,15.8,3.9c3.6,2.6,5.8,6.7,6.5,12.3L505,17
		c-0.4-2.4-1.3-4.2-2.6-5.3c-1.3-1.1-3.2-1.7-5.6-1.7c-1.9,0-3.4,0.4-4.4,1.2c-1,0.8-1.5,1.8-1.5,3c0,0.9,0.4,1.6,1.2,2.3
		c0.8,0.7,2.7,1.4,5.6,2c7.3,1.6,12.5,3.2,15.7,4.8c3.2,1.6,5.5,3.6,6.9,6c1.4,2.4,2.2,5.1,2.2,8c0,3.5-1,6.7-2.9,9.6
		c-1.9,2.9-4.6,5.1-8,6.7c-3.4,1.5-7.8,2.3-13,2.3c-9.2,0-15.6-1.8-19.1-5.3C476,47.1,474,42.6,473.5,37.1z"/>
	<path class="st0" d="M65.1,85.3H90c4.9,0,8.8,0.7,11.9,2c3,1.3,5.5,3.2,7.5,5.7c2,2.5,3.4,5.4,4.3,8.7c0.9,3.3,1.3,6.8,1.3,10.5
		c0,5.8-0.7,10.3-2,13.4c-1.3,3.2-3.1,5.9-5.5,8c-2.3,2.2-4.8,3.6-7.5,4.3c-3.7,1-7,1.5-10,1.5H65.1V85.3z M81.8,97.5v29.6h4.1
		c3.5,0,6-0.4,7.5-1.2c1.5-0.8,2.6-2.1,3.5-4.1c0.8-1.9,1.3-5.1,1.3-9.4c0-5.7-0.9-9.7-2.8-11.8c-1.9-2.1-5-3.2-9.3-3.2H81.8z"/>
	<path class="st0" d="M122.1,85.3h44.8v11.5h-28v8.6h26v11h-26v10.7h28.9v12.2h-45.6V85.3z"/>
	<path class="st0" d="M177,139.4V85.3h27.9c5.2,0,9.1,0.4,11.8,1.3c2.7,0.9,4.9,2.5,6.6,4.9c1.7,2.4,2.5,5.3,2.5,8.8
		c0,3-0.6,5.6-1.9,7.8c-1.3,2.2-3,3.9-5.3,5.3c-1.4,0.9-3.4,1.6-5.9,2.1c2,0.7,3.4,1.3,4.4,2c0.6,0.4,1.5,1.4,2.7,2.8
		c1.2,1.5,1.9,2.6,2.3,3.4l8.1,15.7h-18.9l-8.9-16.5c-1.1-2.1-2.1-3.5-3-4.2c-1.2-0.8-2.6-1.3-4.1-1.3h-1.5v22H177z M193.7,107.2h7
		c0.8,0,2.2-0.2,4.4-0.7c1.1-0.2,2-0.8,2.7-1.7c0.7-0.9,1.1-2,1.1-3.1c0-1.7-0.6-3.1-1.7-4c-1.1-0.9-3.2-1.4-6.2-1.4h-7.3V107.2z"/>
	<path class="st0" d="M237.1,85.3h15.6l20.4,29.9V85.3h15.8v54.1h-15.8l-20.3-29.7v29.7h-15.7V85.3z"/>
	<path class="st0" d="M299.1,85.3h16.8v54.1h-16.8V85.3z"/>
	<path class="st0" d="M326.3,85.3h44.8v11.5h-28v8.6h26v11h-26v10.7h28.9v12.2h-45.6V85.3z M335.6,71h12.8l6.1,11h-7.1L335.6,71z"/>
	<path class="st0" d="M381.1,139.4V85.3H409c5.2,0,9.1,0.4,11.8,1.3c2.7,0.9,4.9,2.5,6.6,4.9c1.7,2.4,2.5,5.3,2.5,8.8
		c0,3-0.6,5.6-1.9,7.8c-1.3,2.2-3,3.9-5.3,5.3c-1.4,0.9-3.4,1.6-5.9,2.1c2,0.7,3.4,1.3,4.4,2c0.6,0.4,1.5,1.4,2.7,2.8
		c1.2,1.5,1.9,2.6,2.3,3.4l8.1,15.7h-18.9l-8.9-16.5c-1.1-2.1-2.1-3.5-3-4.2c-1.2-0.8-2.6-1.3-4.1-1.3h-1.5v22H381.1z M397.9,107.2
		h7c0.8,0,2.2-0.2,4.4-0.7c1.1-0.2,2-0.8,2.7-1.7c0.7-0.9,1.1-2,1.1-3.1c0-1.7-0.6-3.1-1.7-4c-1.1-0.9-3.2-1.4-6.2-1.4h-7.3V107.2z"
		/>
	<path class="st0" d="M441.2,85.3H486v11.5h-28v8.6h26v11h-26v10.7h28.9v12.2h-45.6V85.3z"/>
	<path class="st0" d="M492.9,121.5l15.9-1c0.3,2.6,1,4.6,2.1,5.9c1.7,2.2,4.2,3.3,7.4,3.3c2.4,0,4.2-0.6,5.5-1.7
		c1.3-1.1,1.9-2.4,1.9-3.9c0-1.4-0.6-2.7-1.8-3.8c-1.2-1.1-4.1-2.2-8.6-3.1c-7.3-1.6-12.6-3.8-15.7-6.6c-3.1-2.7-4.7-6.2-4.7-10.4
		c0-2.8,0.8-5.4,2.4-7.9c1.6-2.5,4-4.4,7.3-5.8c3.2-1.4,7.7-2.1,13.3-2.1c6.9,0,12.2,1.3,15.8,3.9c3.6,2.6,5.8,6.7,6.5,12.3
		l-15.8,0.9c-0.4-2.4-1.3-4.2-2.6-5.3c-1.3-1.1-3.2-1.7-5.6-1.7c-1.9,0-3.4,0.4-4.4,1.2c-1,0.8-1.5,1.8-1.5,3c0,0.9,0.4,1.6,1.2,2.3
		c0.8,0.7,2.7,1.4,5.6,2c7.3,1.6,12.5,3.2,15.7,4.8c3.2,1.6,5.5,3.6,6.9,6c1.4,2.4,2.2,5.1,2.2,8c0,3.5-1,6.7-2.9,9.6
		c-1.9,2.9-4.6,5.1-8,6.7c-3.4,1.5-7.8,2.3-13,2.3c-9.2,0-15.6-1.8-19.1-5.3S493.3,126.9,492.9,121.5z"/>
	<path class="st0" d="M0,205.8l15.9-1c0.3,2.6,1,4.6,2.1,5.9c1.7,2.2,4.2,3.3,7.4,3.3c2.4,0,4.2-0.6,5.5-1.7
		c1.3-1.1,1.9-2.4,1.9-3.9c0-1.4-0.6-2.7-1.8-3.8c-1.2-1.1-4.1-2.2-8.6-3.1c-7.3-1.6-12.6-3.8-15.7-6.6c-3.1-2.7-4.7-6.2-4.7-10.4
		c0-2.8,0.8-5.4,2.4-7.9c1.6-2.5,4-4.4,7.3-5.8c3.2-1.4,7.7-2.1,13.3-2.1c6.9,0,12.2,1.3,15.8,3.9c3.6,2.6,5.8,6.7,6.5,12.3
		l-15.8,0.9c-0.4-2.4-1.3-4.2-2.6-5.3c-1.3-1.1-3.2-1.7-5.6-1.7c-1.9,0-3.4,0.4-4.4,1.2c-1,0.8-1.5,1.8-1.5,3c0,0.9,0.4,1.6,1.2,2.3
		c0.8,0.7,2.7,1.4,5.6,2c7.3,1.6,12.5,3.2,15.7,4.8c3.2,1.6,5.5,3.6,6.9,6c1.4,2.4,2.2,5.1,2.2,8c0,3.5-1,6.7-2.9,9.6
		c-1.9,2.9-4.6,5.1-8,6.7c-3.4,1.5-7.8,2.3-13,2.3c-9.2,0-15.6-1.8-19.1-5.3C2.5,215.8,0.5,211.3,0,205.8z"/>
	<path class="st0" d="M91.2,169.6h16.7v32.2c0,3.2-0.5,6.2-1.5,9.1c-1,2.8-2.6,5.3-4.7,7.5c-2.1,2.1-4.4,3.6-6.7,4.5
		c-3.2,1.2-7.1,1.8-11.7,1.8c-2.6,0-5.5-0.2-8.6-0.6c-3.1-0.4-5.7-1.1-7.8-2.2c-2.1-1.1-4-2.6-5.7-4.7c-1.7-2-2.9-4.1-3.6-6.2
		c-1-3.4-1.6-6.5-1.6-9.2v-32.2h16.7v33c0,3,0.8,5.3,2.5,6.9c1.6,1.7,3.9,2.5,6.8,2.5c2.9,0,5.1-0.8,6.8-2.5c1.6-1.6,2.5-4,2.5-7
		V169.6z"/>
	<path class="st0" d="M144.6,204.1v-11.3h25.8v23.1c-4.9,3.4-9.3,5.7-13.1,6.9c-3.8,1.2-8.3,1.8-13.5,1.8c-6.4,0-11.7-1.1-15.7-3.3
		c-4-2.2-7.2-5.4-9.4-9.8c-2.2-4.3-3.3-9.3-3.3-14.9c0-5.9,1.2-11,3.7-15.4c2.4-4.4,6-7.7,10.7-9.9c3.7-1.7,8.6-2.6,14.8-2.6
		c6,0,10.4,0.5,13.4,1.6c3,1.1,5.4,2.8,7.4,5c2,2.3,3.4,5.2,4.4,8.7l-16.1,2.9c-0.7-2-1.8-3.6-3.4-4.7c-1.6-1.1-3.6-1.6-6.1-1.6
		c-3.7,0-6.6,1.3-8.8,3.8c-2.2,2.5-3.3,6.6-3.3,12.1c0,5.9,1.1,10,3.3,12.5c2.2,2.5,5.3,3.8,9.2,3.8c1.9,0,3.7-0.3,5.4-0.8
		c1.7-0.5,3.6-1.5,5.8-2.8v-5.1H144.6z"/>
	<path class="st0" d="M207.5,204.1v-11.3h25.8v23.1c-4.9,3.4-9.3,5.7-13.1,6.9c-3.8,1.2-8.3,1.8-13.5,1.8c-6.4,0-11.7-1.1-15.7-3.3
		c-4-2.2-7.2-5.4-9.4-9.8c-2.2-4.3-3.3-9.3-3.3-14.9c0-5.9,1.2-11,3.7-15.4c2.4-4.4,6-7.7,10.7-9.9c3.7-1.7,8.6-2.6,14.8-2.6
		c6,0,10.4,0.5,13.4,1.6c3,1.1,5.4,2.8,7.4,5c2,2.3,3.4,5.2,4.4,8.7l-16.1,2.9c-0.7-2-1.8-3.6-3.4-4.7c-1.6-1.1-3.6-1.6-6.1-1.6
		c-3.7,0-6.6,1.3-8.8,3.8c-2.2,2.5-3.3,6.6-3.3,12.1c0,5.9,1.1,10,3.3,12.5c2.2,2.5,5.3,3.8,9.2,3.8c1.9,0,3.7-0.3,5.4-0.8
		c1.7-0.5,3.6-1.5,5.8-2.8v-5.1H207.5z"/>
	<path class="st0" d="M243.3,169.6H288v11.5h-28v8.6h26v11h-26v10.7h28.9v12.2h-45.6V169.6z"/>
	<path class="st0" d="M294.9,205.8l15.9-1c0.3,2.6,1,4.6,2.1,5.9c1.7,2.2,4.2,3.3,7.4,3.3c2.4,0,4.2-0.6,5.5-1.7
		c1.3-1.1,1.9-2.4,1.9-3.9c0-1.4-0.6-2.7-1.8-3.8c-1.2-1.1-4.1-2.2-8.6-3.1c-7.3-1.6-12.6-3.8-15.7-6.6c-3.1-2.7-4.7-6.2-4.7-10.4
		c0-2.8,0.8-5.4,2.4-7.9c1.6-2.5,4-4.4,7.3-5.8c3.2-1.4,7.7-2.1,13.3-2.1c6.9,0,12.2,1.3,15.8,3.9c3.6,2.6,5.8,6.7,6.5,12.3
		l-15.8,0.9c-0.4-2.4-1.3-4.2-2.6-5.3c-1.3-1.1-3.2-1.7-5.6-1.7c-1.9,0-3.4,0.4-4.4,1.2c-1,0.8-1.5,1.8-1.5,3c0,0.9,0.4,1.6,1.2,2.3
		c0.8,0.7,2.7,1.4,5.6,2c7.3,1.6,12.5,3.2,15.7,4.8c3.2,1.6,5.5,3.6,6.9,6c1.4,2.4,2.2,5.1,2.2,8c0,3.5-1,6.7-2.9,9.6
		c-1.9,2.9-4.6,5.1-8,6.7c-3.4,1.5-7.8,2.3-13,2.3c-9.2,0-15.6-1.8-19.1-5.3C297.4,215.8,295.4,211.3,294.9,205.8z"/>
	<path class="st0" d="M348.6,169.6h50.8V183h-17v40.7h-16.7V183h-17V169.6z"/>
	<path class="st0" d="M406.1,169.6h16.8v54.1h-16.8V169.6z"/>
	<path class="st0" d="M431.3,196.7c0-8.8,2.5-15.7,7.4-20.6c4.9-4.9,11.8-7.4,20.6-7.4c9,0,15.9,2.4,20.8,7.2
		c4.9,4.8,7.3,11.6,7.3,20.3c0,6.3-1.1,11.5-3.2,15.6c-2.1,4-5.2,7.2-9.2,9.4c-4,2.3-9,3.4-15,3.4c-6.1,0-11.1-1-15.1-2.9
		c-4-1.9-7.2-5-9.7-9.2C432.5,208.3,431.3,203,431.3,196.7z M448,196.8c0,5.5,1,9.4,3,11.8c2,2.4,4.8,3.6,8.3,3.6
		c3.6,0,6.4-1.2,8.3-3.5s3-6.5,3-12.6c0-5.1-1-8.8-3.1-11.2c-2.1-2.3-4.8-3.5-8.4-3.5c-3.4,0-6.1,1.2-8.1,3.6
		C449,187.3,448,191.3,448,196.8z"/>
	<path class="st0" d="M494.9,169.6h15.6l20.4,29.9v-29.9h15.8v54.1h-15.8L510.6,194v29.7h-15.7V169.6z"/>
	<path class="st0" d="M554.8,205.8l15.9-1c0.3,2.6,1,4.6,2.1,5.9c1.7,2.2,4.2,3.3,7.4,3.3c2.4,0,4.2-0.6,5.5-1.7
		c1.3-1.1,1.9-2.4,1.9-3.9c0-1.4-0.6-2.7-1.8-3.8c-1.2-1.1-4.1-2.2-8.6-3.1c-7.3-1.6-12.6-3.8-15.7-6.6c-3.1-2.7-4.7-6.2-4.7-10.4
		c0-2.8,0.8-5.4,2.4-7.9c1.6-2.5,4-4.4,7.3-5.8c3.2-1.4,7.7-2.1,13.3-2.1c6.9,0,12.2,1.3,15.8,3.9c3.6,2.6,5.8,6.7,6.5,12.3
		l-15.8,0.9c-0.4-2.4-1.3-4.2-2.6-5.3c-1.3-1.1-3.2-1.7-5.6-1.7c-1.9,0-3.4,0.4-4.4,1.2c-1,0.8-1.5,1.8-1.5,3c0,0.9,0.4,1.6,1.2,2.3
		c0.8,0.7,2.7,1.4,5.6,2c7.3,1.6,12.5,3.2,15.7,4.8c3.2,1.6,5.5,3.6,6.9,6c1.4,2.4,2.2,5.1,2.2,8c0,3.5-1,6.7-2.9,9.6
		c-1.9,2.9-4.6,5.1-8,6.7c-3.4,1.5-7.8,2.3-13,2.3c-9.2,0-15.6-1.8-19.1-5.3C557.3,215.8,555.3,211.3,554.8,205.8z"/>
</g>
</svg>
