<?xml version="1.0" encoding="utf-8"?>
<!-- Generator: Adobe Illustrator 24.2.2, SVG Export Plug-In . SVG Version: 6.00 Build 0)  -->
<svg version="1.1" id="Layer_1" xmlns="http://www.w3.org/2000/svg" xmlns:xlink="http://www.w3.org/1999/xlink" x="0px" y="0px"
	 viewBox="0 0 971.7 155.2" style="enable-background:new 0 0 971.7 155.2;" xml:space="preserve">
<style type="text/css">
	.st0{fill:#23D3FF;}
</style>
<g>
	<path class="st0" d="M50.1,60.5c2.1,1.5,3.5,2.4,4.1,2.7c1,0.5,2.3,1.2,3.9,1.9l-4.6,9.4c-2.3-1.1-4.6-2.5-6.9-4
		c-2.3-1.6-3.9-2.7-4.8-3.5c-3.7,1.6-8.3,2.4-13.9,2.4c-8.2,0-14.7-2.1-19.4-6.4C2.8,57.8,0,50.7,0,41.5c0-8.9,2.5-15.8,7.4-20.8
		c4.9-4.9,11.8-7.4,20.6-7.4c9,0,15.9,2.4,20.8,7.2c4.9,4.8,7.3,11.7,7.3,20.7C56,49.3,54.1,55.7,50.1,60.5z M37.3,51.9
		c1.3-2.4,2-6,2-10.7c0-5.5-1-9.4-3-11.7c-2-2.3-4.8-3.5-8.4-3.5c-3.3,0-6,1.2-8.1,3.6c-2.1,2.4-3.1,6.1-3.1,11.2c0,5.9,1,10,3,12.4
		c2,2.4,4.8,3.6,8.3,3.6c1.1,0,2.2-0.1,3.2-0.3c-1.4-1.4-3.6-2.6-6.6-3.8l2.6-6c1.5,0.3,2.6,0.6,3.5,1c0.8,0.4,2.4,1.4,4.8,3.1
		C36.1,51.1,36.7,51.5,37.3,51.9z"/>
	<path class="st0" d="M100.2,14.3h16.7v32.2c0,3.2-0.5,6.2-1.5,9.1c-1,2.8-2.6,5.3-4.7,7.5c-2.1,2.1-4.4,3.6-6.7,4.5
		c-3.2,1.2-7.1,1.8-11.7,1.8c-2.6,0-5.5-0.2-8.6-0.6c-3.1-0.4-5.7-1.1-7.8-2.2c-2.1-1.1-4-2.6-5.7-4.7c-1.7-2-2.9-4.1-3.6-6.2
		c-1-3.4-1.6-6.5-1.6-9.2V14.3h16.7v33c0,3,0.8,5.3,2.5,6.9c1.6,1.7,3.9,2.5,6.8,2.5c2.9,0,5.1-0.8,6.8-2.5c1.6-1.6,2.5-4,2.5-7
		V14.3z"/>
	<path class="st0" d="M128,14.3h44.8v11.5h-28v8.6h26v11h-26v10.7h28.9v12.2H128V14.3z"/>
	<path class="st0" d="M182.6,14.3h16.7v40.8h26.1v13.3h-42.8V14.3z"/>
	<path class="st0" d="M281,60.5c2.1,1.5,3.5,2.4,4.1,2.7c1,0.5,2.3,1.2,3.9,1.9l-4.6,9.4c-2.3-1.1-4.6-2.5-6.9-4
		c-2.3-1.6-3.9-2.7-4.8-3.5c-3.7,1.6-8.3,2.4-13.9,2.4c-8.2,0-14.7-2.1-19.4-6.4c-5.6-5.1-8.4-12.2-8.4-21.4
		c0-8.9,2.5-15.8,7.4-20.8c4.9-4.9,11.8-7.4,20.6-7.4c9,0,15.9,2.4,20.8,7.2c4.9,4.8,7.3,11.7,7.3,20.7
		C286.9,49.3,284.9,55.7,281,60.5z M268.2,51.9c1.3-2.4,2-6,2-10.7c0-5.5-1-9.4-3-11.7c-2-2.3-4.8-3.5-8.4-3.5c-3.3,0-6,1.2-8.1,3.6
		c-2.1,2.4-3.1,6.1-3.1,11.2c0,5.9,1,10,3,12.4c2,2.4,4.8,3.6,8.3,3.6c1.1,0,2.2-0.1,3.2-0.3c-1.4-1.4-3.6-2.6-6.6-3.8l2.6-6
		c1.5,0.3,2.6,0.6,3.5,1c0.8,0.4,2.4,1.4,4.8,3.1C266.9,51.1,267.5,51.5,268.2,51.9z"/>
	<path class="st0" d="M331.1,14.3h16.7v32.2c0,3.2-0.5,6.2-1.5,9.1c-1,2.8-2.6,5.3-4.7,7.5c-2.1,2.1-4.4,3.6-6.7,4.5
		c-3.2,1.2-7.1,1.8-11.7,1.8c-2.6,0-5.5-0.2-8.6-0.6c-3.1-0.4-5.7-1.1-7.8-2.2c-2.1-1.1-4-2.6-5.7-4.7c-1.7-2-2.9-4.1-3.6-6.2
		c-1-3.4-1.6-6.5-1.6-9.2V14.3h16.7v33c0,3,0.8,5.3,2.5,6.9c1.6,1.7,3.9,2.5,6.8,2.5c2.9,0,5.1-0.8,6.8-2.5c1.6-1.6,2.5-4,2.5-7
		V14.3z"/>
	<path class="st0" d="M358.8,14.3h44.8v11.5h-28v8.6h26v11h-26v10.7h28.9v12.2h-45.6V14.3z"/>
	<path class="st0" d="M410.5,50.5l15.9-1c0.3,2.6,1,4.6,2.1,5.9c1.7,2.2,4.2,3.3,7.4,3.3c2.4,0,4.2-0.6,5.5-1.7
		c1.3-1.1,1.9-2.4,1.9-3.9c0-1.4-0.6-2.7-1.8-3.8c-1.2-1.1-4.1-2.2-8.6-3.1c-7.3-1.6-12.6-3.8-15.7-6.6c-3.1-2.7-4.7-6.2-4.7-10.4
		c0-2.8,0.8-5.4,2.4-7.9c1.6-2.5,4-4.4,7.3-5.8c3.2-1.4,7.7-2.1,13.3-2.1c6.9,0,12.2,1.3,15.8,3.9c3.6,2.6,5.8,6.7,6.5,12.3
		L442,30.4c-0.4-2.4-1.3-4.2-2.6-5.3c-1.3-1.1-3.2-1.7-5.6-1.7c-1.9,0-3.4,0.4-4.4,1.2c-1,0.8-1.5,1.8-1.5,3c0,0.9,0.4,1.6,1.2,2.3
		c0.8,0.7,2.7,1.4,5.6,2c7.3,1.6,12.5,3.2,15.7,4.8c3.2,1.6,5.5,3.6,6.9,6c1.4,2.4,2.2,5.1,2.2,8c0,3.5-1,6.7-2.9,9.6
		c-1.9,2.9-4.6,5.1-8,6.7c-3.4,1.5-7.8,2.3-13,2.3c-9.2,0-15.6-1.8-19.1-5.3C413,60.5,411,56,410.5,50.5z"/>
	<path class="st0" d="M493.4,14.3h24.8c4.9,0,8.8,0.7,11.9,2c3,1.3,5.5,3.2,7.5,5.7c2,2.5,3.4,5.4,4.3,8.7c0.9,3.3,1.3,6.8,1.3,10.5
		c0,5.8-0.7,10.3-2,13.4c-1.3,3.2-3.1,5.9-5.5,8c-2.3,2.2-4.8,3.6-7.5,4.3c-3.7,1-7,1.5-10,1.5h-24.8V14.3z M510.1,26.6v29.6h4.1
		c3.5,0,6-0.4,7.5-1.2c1.5-0.8,2.6-2.1,3.5-4.1c0.8-1.9,1.3-5.1,1.3-9.4c0-5.7-0.9-9.7-2.8-11.8c-1.9-2.1-5-3.2-9.3-3.2H510.1z"/>
	<path class="st0" d="M551.9,14.3h44.8v11.5h-28v8.6h26v11h-26v10.7h28.9v12.2h-45.6V14.3z"/>
	<path class="st0" d="M606.7,68.4V14.3h27.9c5.2,0,9.1,0.4,11.8,1.3c2.7,0.9,4.9,2.5,6.6,4.9c1.7,2.4,2.5,5.3,2.5,8.8
		c0,3-0.6,5.6-1.9,7.8c-1.3,2.2-3,3.9-5.3,5.3c-1.4,0.9-3.4,1.6-5.9,2.1c2,0.7,3.4,1.3,4.4,2c0.6,0.4,1.5,1.4,2.7,2.8
		c1.2,1.5,1.9,2.6,2.3,3.4l8.1,15.7h-18.9l-8.9-16.5c-1.1-2.1-2.1-3.5-3-4.2c-1.2-0.8-2.6-1.3-4.1-1.3h-1.5v22H606.7z M623.5,36.2h7
		c0.8,0,2.2-0.2,4.4-0.7c1.1-0.2,2-0.8,2.7-1.7c0.7-0.9,1.1-2,1.1-3.1c0-1.7-0.6-3.1-1.7-4c-1.1-0.9-3.2-1.4-6.2-1.4h-7.3V36.2z"/>
	<path class="st0" d="M665.4,14.3H681l20.4,29.9V14.3h15.8v54.1h-15.8l-20.3-29.7v29.7h-15.7V14.3z"/>
	<path class="st0" d="M728.9,14.3h16.8v54.1h-16.8V14.3z"/>
	<path class="st0" d="M757.6,14.3h44.8v11.5h-28v8.6h26v11h-26v10.7h28.9v12.2h-45.6V14.3z M766.9,0h12.8l6.1,11h-7.1L766.9,0z"/>
	<path class="st0" d="M812.4,68.4V14.3h27.9c5.2,0,9.1,0.4,11.8,1.3c2.7,0.9,4.9,2.5,6.6,4.9c1.7,2.4,2.5,5.3,2.5,8.8
		c0,3-0.6,5.6-1.9,7.8c-1.3,2.2-3,3.9-5.3,5.3c-1.4,0.9-3.4,1.6-5.9,2.1c2,0.7,3.4,1.3,4.4,2c0.6,0.4,1.5,1.4,2.7,2.8
		c1.2,1.5,1.9,2.6,2.3,3.4l8.1,15.7h-18.9l-8.9-16.5c-1.1-2.1-2.1-3.5-3-4.2c-1.2-0.8-2.6-1.3-4.1-1.3h-1.5v22H812.4z M829.2,36.2h7
		c0.8,0,2.2-0.2,4.4-0.7c1.1-0.2,2-0.8,2.7-1.7c0.7-0.9,1.1-2,1.1-3.1c0-1.7-0.6-3.1-1.7-4c-1.1-0.9-3.2-1.4-6.2-1.4h-7.3V36.2z"/>
	<path class="st0" d="M870.9,14.3h44.8v11.5h-28v8.6h26v11h-26v10.7h28.9v12.2h-45.6V14.3z"/>
	<path class="st0" d="M922.6,50.5l15.9-1c0.3,2.6,1,4.6,2.1,5.9c1.7,2.2,4.2,3.3,7.4,3.3c2.4,0,4.2-0.6,5.5-1.7
		c1.3-1.1,1.9-2.4,1.9-3.9c0-1.4-0.6-2.7-1.8-3.8c-1.2-1.1-4.1-2.2-8.6-3.1c-7.3-1.6-12.6-3.8-15.7-6.6c-3.1-2.7-4.7-6.2-4.7-10.4
		c0-2.8,0.8-5.4,2.4-7.9c1.6-2.5,4-4.4,7.3-5.8c3.2-1.4,7.7-2.1,13.3-2.1c6.9,0,12.2,1.3,15.8,3.9c3.6,2.6,5.8,6.7,6.5,12.3
		l-15.8,0.9c-0.4-2.4-1.3-4.2-2.6-5.3c-1.3-1.1-3.2-1.7-5.6-1.7c-1.9,0-3.4,0.4-4.4,1.2c-1,0.8-1.5,1.8-1.5,3c0,0.9,0.4,1.6,1.2,2.3
		c0.8,0.7,2.7,1.4,5.6,2c7.3,1.6,12.5,3.2,15.7,4.8c3.2,1.6,5.5,3.6,6.9,6c1.4,2.4,2.2,5.1,2.2,8c0,3.5-1,6.7-2.9,9.6
		c-1.9,2.9-4.6,5.1-8,6.7c-3.4,1.5-7.8,2.3-13,2.3c-9.2,0-15.6-1.8-19.1-5.3C925.1,60.5,923.1,56,922.6,50.5z"/>
	<path class="st0" d="M179.7,136.4l15.9-1c0.3,2.6,1,4.6,2.1,5.9c1.7,2.2,4.2,3.3,7.4,3.3c2.4,0,4.2-0.6,5.5-1.7
		c1.3-1.1,1.9-2.4,1.9-3.9c0-1.4-0.6-2.7-1.8-3.8c-1.2-1.1-4.1-2.2-8.6-3.1c-7.3-1.6-12.6-3.8-15.7-6.6c-3.1-2.7-4.7-6.2-4.7-10.4
		c0-2.8,0.8-5.4,2.4-7.9c1.6-2.5,4-4.4,7.3-5.8c3.2-1.4,7.7-2.1,13.3-2.1c6.9,0,12.2,1.3,15.8,3.9c3.6,2.6,5.8,6.7,6.5,12.3
		l-15.8,0.9c-0.4-2.4-1.3-4.2-2.6-5.3c-1.3-1.1-3.2-1.7-5.6-1.7c-1.9,0-3.4,0.4-4.4,1.2c-1,0.8-1.5,1.8-1.5,3c0,0.9,0.4,1.6,1.2,2.3
		c0.8,0.7,2.7,1.4,5.6,2c7.3,1.6,12.5,3.2,15.7,4.8c3.2,1.6,5.5,3.6,6.9,6c1.4,2.4,2.2,5.1,2.2,8c0,3.5-1,6.7-2.9,9.6
		c-1.9,2.9-4.6,5.1-8,6.7c-3.4,1.5-7.8,2.3-13,2.3c-9.2,0-15.6-1.8-19.1-5.3C182.2,146.4,180.2,141.9,179.7,136.4z"/>
	<path class="st0" d="M272.4,100.2h16.7v32.2c0,3.2-0.5,6.2-1.5,9.1c-1,2.8-2.6,5.3-4.7,7.5c-2.1,2.1-4.4,3.6-6.7,4.5
		c-3.2,1.2-7.1,1.8-11.7,1.8c-2.6,0-5.5-0.2-8.6-0.6c-3.1-0.4-5.7-1.1-7.8-2.2c-2.1-1.1-4-2.6-5.7-4.7c-1.7-2-2.9-4.1-3.6-6.2
		c-1-3.4-1.6-6.5-1.6-9.2v-32.2h16.7v33c0,3,0.8,5.3,2.5,6.9c1.6,1.7,3.9,2.5,6.8,2.5c2.9,0,5.1-0.8,6.8-2.5c1.6-1.6,2.5-4,2.5-7
		V100.2z"/>
	<path class="st0" d="M327.3,134.7v-11.3h25.8v23.1c-4.9,3.4-9.3,5.7-13.1,6.9c-3.8,1.2-8.3,1.8-13.5,1.8c-6.4,0-11.7-1.1-15.7-3.3
		c-4-2.2-7.2-5.4-9.4-9.8c-2.2-4.3-3.3-9.3-3.3-14.9c0-5.9,1.2-11,3.7-15.4c2.4-4.4,6-7.7,10.7-9.9c3.7-1.7,8.6-2.6,14.8-2.6
		c6,0,10.4,0.5,13.4,1.6c3,1.1,5.4,2.8,7.4,5c2,2.3,3.4,5.2,4.4,8.7l-16.1,2.9c-0.7-2-1.8-3.6-3.4-4.7c-1.6-1.1-3.6-1.6-6.1-1.6
		c-3.7,0-6.6,1.3-8.8,3.8c-2.2,2.5-3.3,6.6-3.3,12.1c0,5.9,1.1,10,3.3,12.5c2.2,2.5,5.3,3.8,9.2,3.8c1.9,0,3.7-0.3,5.4-0.8
		c1.7-0.5,3.6-1.5,5.8-2.8v-5.1H327.3z"/>
	<path class="st0" d="M390.3,134.7v-11.3h25.8v23.1c-4.9,3.4-9.3,5.7-13.1,6.9c-3.8,1.2-8.3,1.8-13.5,1.8c-6.4,0-11.7-1.1-15.7-3.3
		c-4-2.2-7.2-5.4-9.4-9.8c-2.2-4.3-3.3-9.3-3.3-14.9c0-5.9,1.2-11,3.7-15.4c2.4-4.4,6-7.7,10.7-9.9c3.7-1.7,8.6-2.6,14.8-2.6
		c6,0,10.4,0.5,13.4,1.6c3,1.1,5.4,2.8,7.4,5c2,2.3,3.4,5.2,4.4,8.7l-16.1,2.9c-0.7-2-1.8-3.6-3.4-4.7c-1.6-1.1-3.6-1.6-6.1-1.6
		c-3.7,0-6.6,1.3-8.8,3.8c-2.2,2.5-3.3,6.6-3.3,12.1c0,5.9,1.1,10,3.3,12.5c2.2,2.5,5.3,3.8,9.2,3.8c1.9,0,3.7-0.3,5.4-0.8
		c1.7-0.5,3.6-1.5,5.8-2.8v-5.1H390.3z"/>
	<path class="st0" d="M426,100.2h44.8v11.5h-28v8.6h26v11h-26V142h28.9v12.2H426V100.2z"/>
	<path class="st0" d="M477.7,136.4l15.9-1c0.3,2.6,1,4.6,2.1,5.9c1.7,2.2,4.2,3.3,7.4,3.3c2.4,0,4.2-0.6,5.5-1.7
		c1.3-1.1,1.9-2.4,1.9-3.9c0-1.4-0.6-2.7-1.8-3.8c-1.2-1.1-4.1-2.2-8.6-3.1c-7.3-1.6-12.6-3.8-15.7-6.6c-3.1-2.7-4.7-6.2-4.7-10.4
		c0-2.8,0.8-5.4,2.4-7.9c1.6-2.5,4-4.4,7.3-5.8c3.2-1.4,7.7-2.1,13.3-2.1c6.9,0,12.2,1.3,15.8,3.9c3.6,2.6,5.8,6.7,6.5,12.3
		l-15.8,0.9c-0.4-2.4-1.3-4.2-2.6-5.3c-1.3-1.1-3.2-1.7-5.6-1.7c-1.9,0-3.4,0.4-4.4,1.2c-1,0.8-1.5,1.8-1.5,3c0,0.9,0.4,1.6,1.2,2.3
		c0.8,0.7,2.7,1.4,5.6,2c7.3,1.6,12.5,3.2,15.7,4.8c3.2,1.6,5.5,3.6,6.9,6c1.4,2.4,2.2,5.1,2.2,8c0,3.5-1,6.7-2.9,9.6
		c-1.9,2.9-4.6,5.1-8,6.7c-3.4,1.5-7.8,2.3-13,2.3c-9.2,0-15.6-1.8-19.1-5.3S478.1,141.9,477.7,136.4z"/>
	<path class="st0" d="M531.4,100.2h50.8v13.4h-17v40.7h-16.7v-40.7h-17V100.2z"/>
	<path class="st0" d="M590.4,100.2h16.8v54.1h-16.8V100.2z"/>
	<path class="st0" d="M617,127.3c0-8.8,2.5-15.7,7.4-20.6c4.9-4.9,11.8-7.4,20.6-7.4c9,0,15.9,2.4,20.8,7.2
		c4.9,4.8,7.3,11.6,7.3,20.3c0,6.3-1.1,11.5-3.2,15.6c-2.1,4-5.2,7.2-9.2,9.4c-4,2.3-9,3.4-15,3.4c-6.1,0-11.1-1-15.1-2.9
		c-4-1.9-7.2-5-9.7-9.2C618.3,138.9,617,133.6,617,127.3z M633.7,127.4c0,5.5,1,9.4,3,11.8c2,2.4,4.8,3.6,8.3,3.6
		c3.6,0,6.4-1.2,8.3-3.5c2-2.3,3-6.5,3-12.6c0-5.1-1-8.8-3.1-11.2c-2.1-2.3-4.8-3.5-8.4-3.5c-3.4,0-6.1,1.2-8.1,3.6
		C634.8,117.9,633.7,121.8,633.7,127.4z"/>
	<path class="st0" d="M682.2,100.2h15.6l20.4,29.9v-29.9h15.8v54.1h-15.8l-20.3-29.7v29.7h-15.7V100.2z"/>
	<path class="st0" d="M742.1,136.4l15.9-1c0.3,2.6,1,4.6,2.1,5.9c1.7,2.2,4.2,3.3,7.4,3.3c2.4,0,4.2-0.6,5.5-1.7
		c1.3-1.1,1.9-2.4,1.9-3.9c0-1.4-0.6-2.7-1.8-3.8c-1.2-1.1-4.1-2.2-8.6-3.1c-7.3-1.6-12.6-3.8-15.7-6.6c-3.1-2.7-4.7-6.2-4.7-10.4
		c0-2.8,0.8-5.4,2.4-7.9c1.6-2.5,4-4.4,7.3-5.8c3.2-1.4,7.7-2.1,13.3-2.1c6.9,0,12.2,1.3,15.8,3.9c3.6,2.6,5.8,6.7,6.5,12.3
		l-15.8,0.9c-0.4-2.4-1.3-4.2-2.6-5.3c-1.3-1.1-3.2-1.7-5.6-1.7c-1.9,0-3.4,0.4-4.4,1.2c-1,0.8-1.5,1.8-1.5,3c0,0.9,0.4,1.6,1.2,2.3
		c0.8,0.7,2.7,1.4,5.6,2c7.3,1.6,12.5,3.2,15.7,4.8c3.2,1.6,5.5,3.6,6.9,6c1.4,2.4,2.2,5.1,2.2,8c0,3.5-1,6.7-2.9,9.6
		c-1.9,2.9-4.6,5.1-8,6.7c-3.4,1.5-7.8,2.3-13,2.3c-9.2,0-15.6-1.8-19.1-5.3C744.6,146.4,742.6,141.9,742.1,136.4z"/>
</g>
</svg>
