<?xml version="1.0" encoding="utf-8"?>
<!-- Generator: Adobe Illustrator 24.2.2, SVG Export Plug-In . SVG Version: 6.00 Build 0)  -->
<svg version="1.1" id="Layer_1" xmlns="http://www.w3.org/2000/svg" xmlns:xlink="http://www.w3.org/1999/xlink" x="0px" y="0px"
	 viewBox="0 0 554 244.3" style="enable-background:new 0 0 554 244.3;" xml:space="preserve">
<style type="text/css">
	.st0{display:none;}
	.st1{display:inline;fill:#23D3FF;}
	.st2{fill:#23D3FF;}
</style>
<g class="st0">
	<path class="st1" d="M0,38.6l16.5-1c0.4,2.7,1.1,4.7,2.2,6.1c1.8,2.3,4.4,3.4,7.7,3.4c2.5,0,4.4-0.6,5.7-1.8c1.3-1.2,2-2.5,2-4
		c0-1.5-0.6-2.8-1.9-3.9c-1.3-1.2-4.2-2.2-8.9-3.3c-7.6-1.7-13.1-4-16.3-6.8c-3.3-2.8-4.9-6.5-4.9-10.9c0-2.9,0.8-5.6,2.5-8.2
		s4.2-4.6,7.6-6.1C15.6,0.7,20.2,0,26,0c7.2,0,12.7,1.3,16.5,4c3.8,2.7,6,6.9,6.7,12.8l-16.4,1c-0.4-2.5-1.4-4.4-2.8-5.5
		s-3.3-1.7-5.8-1.7c-2,0-3.5,0.4-4.6,1.3s-1.5,1.9-1.5,3.1c0,0.9,0.4,1.7,1.3,2.4c0.8,0.7,2.8,1.4,5.8,2.1c7.6,1.6,13,3.3,16.3,5
		c3.3,1.7,5.7,3.8,7.2,6.2s2.2,5.3,2.2,8.3c0,3.6-1,6.9-3,10s-4.8,5.4-8.4,6.9c-3.6,1.6-8.1,2.4-13.6,2.4c-9.6,0-16.2-1.8-19.9-5.5
		S0.5,44.3,0,38.6z"/>
	<path class="st1" d="M57.6,29.1c0-9.2,2.6-16.4,7.7-21.5C70.4,2.6,77.6,0,86.7,0c9.4,0,16.6,2.5,21.7,7.6s7.6,12.1,7.6,21.1
		c0,6.6-1.1,12-3.3,16.2s-5.4,7.5-9.6,9.8c-4.2,2.3-9.4,3.5-15.7,3.5c-6.3,0-11.6-1-15.8-3c-4.2-2-7.5-5.2-10.1-9.6
		C58.9,41.2,57.6,35.7,57.6,29.1z M75,29.2c0,5.7,1.1,9.8,3.2,12.2s5,3.7,8.6,3.7c3.7,0,6.6-1.2,8.7-3.7s3.1-6.8,3.1-13.1
		c0-5.3-1.1-9.2-3.2-11.6c-2.1-2.4-5-3.7-8.7-3.7c-3.5,0-6.3,1.2-8.4,3.7C76.1,19.4,75,23.5,75,29.2z"/>
	<path class="st1" d="M123,41.8h16.7v12.9c0,4.7-1,8.5-3,11.2c-2,2.7-5.3,5.2-10.1,7.3l-3.7-6.8c3-1.4,5-2.8,6.1-4.1
		c1.1-1.4,1.7-3,1.9-4.9h-8V41.8z"/>
	<path class="st1" d="M170.8,1h19.3l11.4,19l11.4-19H232l-21.9,32.7v23.6h-17.4V33.7L170.8,1z"/>
	<path class="st1" d="M230.7,29.1c0-9.2,2.6-16.4,7.7-21.5c5.1-5.1,12.3-7.7,21.4-7.7c9.4,0,16.6,2.5,21.7,7.6s7.6,12.1,7.6,21.1
		c0,6.6-1.1,12-3.3,16.2c-2.2,4.2-5.4,7.5-9.6,9.8s-9.4,3.5-15.6,3.5c-6.4,0-11.6-1-15.8-3c-4.2-2-7.5-5.2-10.1-9.6
		S230.7,35.7,230.7,29.1z M248.1,29.2c0,5.7,1.1,9.8,3.2,12.2s5,3.7,8.6,3.7c3.7,0,6.6-1.2,8.7-3.7s3.1-6.8,3.1-13.1
		c0-5.3-1.1-9.2-3.2-11.6c-2.1-2.4-5-3.7-8.7-3.7c-3.5,0-6.3,1.2-8.4,3.7C249.2,19.4,248.1,23.5,248.1,29.2z"/>
	<path class="st1" d="M333.5,1h17.4v33.6c0,3.3-0.5,6.5-1.6,9.4s-2.7,5.5-4.9,7.8c-2.2,2.2-4.5,3.8-7,4.7c-3.4,1.2-7.4,1.9-12.2,1.9
		c-2.7,0-5.7-0.2-9-0.6c-3.2-0.4-6-1.2-8.1-2.3c-2.2-1.1-4.2-2.8-6-4.9c-1.8-2.1-3-4.3-3.7-6.5c-1.1-3.6-1.6-6.8-1.6-9.5V1h17.4
		v34.4c0,3.1,0.9,5.5,2.5,7.2c1.7,1.7,4.1,2.6,7.1,2.6c3,0,5.3-0.8,7-2.5c1.7-1.7,2.5-4.1,2.5-7.2V1z"/>
	<path class="st1" d="M0,127.8l16.5-1c0.4,2.7,1.1,4.7,2.2,6.1c1.8,2.3,4.4,3.4,7.7,3.4c2.5,0,4.4-0.6,5.7-1.8c1.3-1.2,2-2.5,2-4.1
		c0-1.5-0.6-2.8-1.9-3.9c-1.3-1.2-4.2-2.2-8.9-3.3c-7.6-1.7-13.1-4-16.3-6.8c-3.3-2.8-4.9-6.5-4.9-10.9c0-2.9,0.8-5.6,2.5-8.2
		s4.2-4.6,7.6-6.1s8-2.2,13.8-2.2c7.2,0,12.7,1.3,16.5,4c3.8,2.7,6,6.9,6.7,12.8l-16.4,1c-0.4-2.5-1.4-4.4-2.8-5.5s-3.3-1.7-5.8-1.7
		c-2,0-3.5,0.4-4.6,1.3s-1.5,1.9-1.5,3.1c0,0.9,0.4,1.7,1.3,2.4c0.8,0.7,2.8,1.4,5.8,2.1c7.6,1.6,13,3.3,16.3,5
		c3.3,1.7,5.7,3.8,7.2,6.2c1.5,2.5,2.2,5.3,2.2,8.3c0,3.6-1,6.9-3,10s-4.8,5.4-8.4,6.9c-3.6,1.6-8.1,2.4-13.6,2.4
		c-9.6,0-16.2-1.8-19.9-5.5S0.5,133.5,0,127.8z"/>
	<path class="st1" d="M94.5,137.1H74.7l-2.7,9.3H54.2l21.2-56.3h19l21.2,56.3H97.2L94.5,137.1z M90.8,124.9l-6.2-20.2l-6.2,20.2
		H90.8z"/>
	<path class="st1" d="M112.7,90.1h16.5l5.9,31.5l8.7-31.4h16.5l8.7,31.4l5.9-31.4h16.4L179,146.4H162l-9.9-35.4l-9.8,35.4h-17.1
		L112.7,90.1z"/>
	<path class="st1" d="M220.3,127.8l16.6-1c0.4,2.7,1.1,4.7,2.2,6.1c1.8,2.3,4.4,3.4,7.7,3.4c2.5,0,4.4-0.6,5.7-1.8
		c1.3-1.2,2-2.5,2-4.1c0-1.5-0.6-2.8-1.9-3.9s-4.2-2.2-8.9-3.3c-7.6-1.7-13.1-4-16.3-6.8c-3.3-2.8-4.9-6.5-4.9-10.9
		c0-2.9,0.8-5.6,2.5-8.2c1.7-2.6,4.2-4.6,7.6-6.1c3.4-1.5,8-2.2,13.8-2.2c7.2,0,12.7,1.3,16.5,4c3.8,2.7,6,6.9,6.7,12.8l-16.4,1
		c-0.4-2.5-1.4-4.4-2.8-5.5s-3.3-1.7-5.8-1.7c-2,0-3.6,0.4-4.6,1.3s-1.5,1.9-1.5,3.1c0,0.9,0.4,1.7,1.3,2.4c0.8,0.7,2.8,1.4,5.8,2.1
		c7.6,1.6,13,3.3,16.3,5c3.3,1.7,5.7,3.8,7.2,6.2c1.5,2.5,2.2,5.3,2.2,8.3c0,3.6-1,6.9-3,10s-4.8,5.4-8.4,6.9
		c-3.6,1.6-8.1,2.4-13.6,2.4c-9.6,0-16.2-1.8-19.9-5.5S220.8,133.5,220.3,127.8z"/>
	<path class="st1" d="M278,118.3c0-9.2,2.6-16.3,7.7-21.5s12.2-7.7,21.4-7.7c9.4,0,16.6,2.5,21.7,7.6c5.1,5,7.6,12.1,7.6,21.1
		c0,6.6-1.1,12-3.3,16.2c-2.2,4.2-5.4,7.5-9.6,9.8c-4.2,2.3-9.4,3.5-15.6,3.5c-6.4,0-11.6-1-15.8-3s-7.5-5.2-10.1-9.6
		C279.3,130.4,278,124.9,278,118.3z M295.4,118.4c0,5.7,1.1,9.8,3.2,12.2c2.1,2.5,5,3.7,8.6,3.7c3.7,0,6.6-1.2,8.7-3.6
		s3.1-6.8,3.1-13.1c0-5.3-1.1-9.2-3.2-11.6c-2.1-2.4-5-3.7-8.7-3.7c-3.5,0-6.3,1.2-8.5,3.7C296.5,108.5,295.4,112.6,295.4,118.4z"/>
	<path class="st1" d="M343.9,90.1h22.9l8.8,34.3l8.8-34.3h22.8v56.3H393v-42.9l-11,42.9h-12.9l-11-42.9v42.9h-14.2L343.9,90.1
		L343.9,90.1z"/>
	<path class="st1" d="M418.3,90.1h46.6v12h-29.2v8.9h27.1v11.5h-27.1v11.1h30v12.8h-47.5L418.3,90.1L418.3,90.1z"/>
	<path class="st1" d="M3.1,179.2h43v12.1H20.6v9.8h21.8v11.4H20.6v23H3.1V179.2z"/>
	<path class="st1" d="M81.2,226.2H61.3l-2.7,9.3H40.8L62,179.2h19l21.2,56.3H83.9L81.2,226.2z M77.5,214.1l-6.2-20.2l-6.2,20.2H77.5
		z"/>
	<path class="st1" d="M109.3,179.2h17.4v42.4h27.2v13.9h-44.6V179.2z"/>
	<path class="st1" d="M160.3,216.9l16.6-1c0.4,2.7,1.1,4.7,2.2,6.1c1.8,2.3,4.4,3.4,7.7,3.4c2.5,0,4.4-0.6,5.7-1.8
		c1.3-1.2,2-2.5,2-4.1c0-1.5-0.6-2.8-1.9-3.9s-4.2-2.2-8.9-3.3c-7.6-1.7-13.1-4-16.3-6.8c-3.3-2.8-4.9-6.5-4.9-10.9
		c0-2.9,0.8-5.6,2.5-8.2c1.7-2.6,4.2-4.6,7.6-6.1c3.4-1.5,8-2.2,13.8-2.2c7.2,0,12.7,1.3,16.5,4c3.8,2.7,6,6.9,6.7,12.8l-16.4,1
		c-0.4-2.5-1.4-4.4-2.8-5.5s-3.3-1.7-5.8-1.7c-2,0-3.6,0.4-4.6,1.3s-1.5,1.9-1.5,3.1c0,0.9,0.4,1.7,1.3,2.4c0.8,0.7,2.8,1.4,5.8,2.1
		c7.6,1.6,13.1,3.3,16.3,5c3.3,1.7,5.7,3.8,7.2,6.2c1.5,2.5,2.2,5.3,2.2,8.3c0,3.6-1,6.9-3,10s-4.8,5.4-8.4,6.9
		c-3.6,1.6-8.1,2.4-13.6,2.4c-9.6,0-16.2-1.8-19.9-5.5S160.8,222.6,160.3,216.9z"/>
	<path class="st1" d="M218.5,179.2h46.6v12h-29.2v8.9H263v11.5h-27.1v11.1h30v12.8h-47.5V179.2z"/>
	<path class="st1" d="M302.3,179.2h17.4v56.3h-17.4V179.2z"/>
	<path class="st1" d="M330.7,179.2H347l21.2,31.1v-31.1h16.4v56.3h-16.4l-21.1-30.9v30.9h-16.4L330.7,179.2L330.7,179.2z"/>
	<path class="st1" d="M396.2,179.2h43v12.1h-25.5v9.8h21.8v11.4h-21.8v23h-17.5V179.2z"/>
	<path class="st1" d="M446.4,207.4c0-9.2,2.6-16.4,7.7-21.5s12.2-7.7,21.4-7.7c9.4,0,16.6,2.5,21.7,7.6s7.6,12.1,7.6,21.1
		c0,6.6-1.1,12-3.3,16.2c-2.2,4.2-5.4,7.5-9.6,9.8s-9.4,3.5-15.6,3.5c-6.4,0-11.6-1-15.8-3s-7.5-5.2-10.1-9.6
		C447.7,219.5,446.4,214,446.4,207.4z M463.8,207.5c0,5.7,1.1,9.8,3.2,12.2c2.1,2.5,5,3.7,8.6,3.7c3.7,0,6.6-1.2,8.7-3.6
		s3.1-6.8,3.1-13.1c0-5.3-1.1-9.2-3.2-11.6c-2.1-2.4-5-3.7-8.7-3.7c-3.5,0-6.3,1.2-8.5,3.7C464.9,197.7,463.8,201.8,463.8,207.5z"/>
	<path class="st1" d="M538.5,217.9h-14.6v-1.5c0-2.5,0.3-4.5,0.8-6.1s1.4-3,2.5-4.2c1.1-1.3,3.6-3.5,7.5-6.8
		c2.1-1.7,3.1-3.2,3.1-4.6s-0.4-2.5-1.2-3.3s-2.1-1.2-3.8-1.2c-1.8,0-3.3,0.6-4.5,1.8c-1.2,1.2-2,3.3-2.3,6.3l-14.9-1.8
		c0.5-5.5,2.5-9.9,6-13.2c3.5-3.3,8.8-5,16-5c5.6,0,10.1,1.2,13.5,3.5c4.7,3.1,7,7.4,7,12.6c0,2.2-0.6,4.3-1.8,6.3s-3.7,4.5-7.4,7.4
		c-2.6,2.1-4.2,3.7-4.9,4.9C538.8,214.3,538.5,215.9,538.5,217.9z M523.4,221.8H539v13.8h-15.6V221.8z"/>
</g>
<path class="st2" d="M0,1.1h59.2v15.6H39.3v47.4H19.9V16.6H0V1.1z"/>
<path class="st2" d="M109,1.1h19.4v37.5c0,3.7-0.6,7.2-1.7,10.5c-1.2,3.3-3,6.2-5.5,8.7c-2.5,2.5-5.1,4.2-7.8,5.2
	c-3.8,1.4-8.3,2.1-13.6,2.1c-3.1,0-6.4-0.2-10-0.6c-3.6-0.4-6.7-1.3-9.1-2.6c-2.4-1.3-4.7-3.1-6.7-5.4s-3.4-4.8-4.1-7.3
	c-1.2-4-1.8-7.6-1.8-10.6V1.1h19.4v38.4c0,3.4,1,6.1,2.9,8.1c1.9,1.9,4.5,2.9,7.9,2.9c3.4,0,6-1,7.9-2.9c1.9-1.9,2.9-4.6,2.9-8.1
	V1.1z"/>
<path class="st2" d="M209.4,53.7h-22.1l-3.1,10.4h-19.9l23.7-63h21.2l23.7,63h-20.4L209.4,53.7z M205.3,40l-7-22.6L191.5,40H205.3z"
	/>
<path class="st2" d="M235.7,43.2l18.5-1.2c0.4,3,1.2,5.3,2.4,6.9c2,2.5,4.9,3.8,8.6,3.8c2.8,0,4.9-0.7,6.4-2
	c1.5-1.3,2.3-2.8,2.3-4.5c0-1.6-0.7-3.1-2.1-4.4c-1.4-1.3-4.8-2.5-10-3.7c-8.5-1.9-14.6-4.5-18.3-7.6c-3.7-3.2-5.5-7.2-5.5-12.2
	c0-3.2,0.9-6.3,2.8-9.2c1.9-2.9,4.7-5.1,8.5-6.8c3.8-1.6,8.9-2.5,15.5-2.5c8,0,14.2,1.5,18.4,4.5c4.2,3,6.7,7.8,7.5,14.3l-18.3,1.1
	c-0.5-2.8-1.5-4.9-3.1-6.2c-1.6-1.3-3.7-1.9-6.5-1.9c-2.3,0-4,0.5-5.1,1.4c-1.1,1-1.7,2.1-1.7,3.5c0,1,0.5,1.9,1.4,2.7
	c0.9,0.8,3.1,1.6,6.5,2.3c8.5,1.8,14.6,3.7,18.3,5.6c3.7,1.9,6.4,4.2,8,7c1.7,2.8,2.5,5.9,2.5,9.3c0,4-1.1,7.8-3.4,11.2
	c-2.2,3.4-5.4,6-9.4,7.8c-4,1.8-9.1,2.6-15.2,2.6c-10.7,0-18.1-2.1-22.3-6.2S236.2,49.6,235.7,43.2z"/>
<path class="st2" d="M325.8,1.1h20.3l14.2,45.3l14-45.3h19.8l-23.4,63h-21.1L325.8,1.1z"/>
<path class="st2" d="M441.4,1.1h19.4v37.5c0,3.7-0.6,7.2-1.7,10.5c-1.2,3.3-3,6.2-5.5,8.7c-2.5,2.5-5.1,4.2-7.8,5.2
	c-3.8,1.4-8.3,2.1-13.6,2.1c-3.1,0-6.4-0.2-10-0.6c-3.6-0.4-6.7-1.3-9.1-2.6c-2.4-1.3-4.7-3.1-6.7-5.4s-3.4-4.8-4.1-7.3
	c-1.2-4-1.8-7.6-1.8-10.6V1.1h19.4v38.4c0,3.4,1,6.1,2.9,8.1c1.9,1.9,4.5,2.9,7.9,2.9c3.4,0,6-1,7.9-2.9c1.9-1.9,2.9-4.6,2.9-8.1
	V1.1z"/>
<path class="st2" d="M45.4,89.7h19.4v37.5c0,3.7-0.6,7.2-1.7,10.5c-1.2,3.3-3,6.2-5.5,8.7c-2.5,2.5-5.1,4.2-7.8,5.2
	c-3.8,1.4-8.3,2.1-13.6,2.1c-3.1,0-6.4-0.2-10-0.6c-3.6-0.4-6.7-1.3-9.1-2.6c-2.4-1.3-4.7-3.1-6.7-5.4c-2-2.3-3.4-4.8-4.1-7.3
	c-1.2-4-1.8-7.6-1.8-10.6V89.7h19.4v38.4c0,3.4,1,6.1,2.9,8.1c1.9,1.9,4.5,2.9,7.9,2.9c3.4,0,6-1,7.9-2.9c1.9-1.9,2.9-4.6,2.9-8.1
	V89.7z"/>
<path class="st2" d="M77.9,89.7H96l23.7,34.9V89.7h18.3v63h-18.3l-23.6-34.6v34.6H77.9V89.7z"/>
<path class="st2" d="M151,89.7h52.2v13.4h-32.7v10h30.3V126h-30.3v12.4h33.6v14.3H151V89.7z"/>
<path class="st2" d="M244,89.7h48.1v13.5h-28.6v11H288v12.7h-24.4v25.7H244V89.7z"/>
<path class="st2" d="M333.1,142.3H311l-3.1,10.4H288l23.7-63h21.2l23.7,63h-20.4L333.1,142.3z M329,128.6l-7-22.6l-6.9,22.6H329z"/>
<path class="st2" d="M400.8,89.7h19.4v37.5c0,3.7-0.6,7.2-1.7,10.5c-1.2,3.3-3,6.2-5.5,8.7c-2.5,2.5-5.1,4.2-7.8,5.2
	c-3.8,1.4-8.3,2.1-13.6,2.1c-3.1,0-6.4-0.2-10-0.6c-3.6-0.4-6.7-1.3-9.1-2.6c-2.4-1.3-4.7-3.1-6.7-5.4c-2-2.3-3.4-4.8-4.1-7.3
	c-1.2-4-1.8-7.6-1.8-10.6V89.7h19.4v38.4c0,3.4,1,6.1,2.9,8.1c1.9,1.9,4.5,2.9,7.9,2.9c3.4,0,6-1,7.9-2.9c1.9-1.9,2.9-4.6,2.9-8.1
	V89.7z"/>
<path class="st2" d="M475,126.9l17.1,5.2c-1.1,4.8-3,8.8-5.4,12c-2.5,3.2-5.5,5.6-9.2,7.3s-8.3,2.4-13.9,2.4c-6.8,0-12.4-1-16.8-3
	s-8.1-5.5-11.2-10.5c-3.2-5-4.7-11.4-4.7-19.2c0-10.4,2.8-18.4,8.3-24s13.4-8.4,23.5-8.4c7.9,0,14.2,1.6,18.7,4.8
	c4.5,3.2,7.9,8.1,10.1,14.8l-17.2,3.8c-0.6-1.9-1.2-3.3-1.9-4.2c-1.1-1.5-2.4-2.6-4-3.4c-1.6-0.8-3.3-1.2-5.3-1.2
	c-4.4,0-7.8,1.8-10.1,5.3c-1.8,2.6-2.7,6.8-2.7,12.4c0,7,1.1,11.8,3.2,14.4c2.1,2.6,5.1,3.9,8.9,3.9c3.7,0,6.5-1,8.4-3.1
	C472.8,133.9,474.2,130.9,475,126.9z"/>
<path class="st2" d="M501.5,89.7h52.2v13.4H521v10h30.3V126H521v12.4h33.6v14.3h-53.1V89.7z"/>
<path class="st2" d="M5.2,180.3h19.5v63H5.2V180.3z"/>
<path class="st2" d="M38.8,180.3H57l23.7,34.9v-34.9H99v63H80.7l-23.6-34.6v34.6H38.8V180.3z"/>
<path class="st2" d="M112.1,180.3h48.1v13.5h-28.6v11H156v12.7h-24.4v25.7h-19.6V180.3z"/>
<path class="st2" d="M168.2,211.8c0-10.3,2.9-18.3,8.6-24c5.7-5.7,13.7-8.6,23.9-8.6c10.5,0,18.6,2.8,24.2,8.4s8.5,13.5,8.5,23.7
	c0,7.4-1.2,13.4-3.7,18.1c-2.5,4.7-6.1,8.4-10.7,11s-10.5,3.9-17.5,3.9c-7.1,0-13-1.1-17.6-3.4c-4.7-2.3-8.4-5.8-11.3-10.7
	C169.7,225.3,168.2,219.2,168.2,211.8z M187.7,211.9c0,6.4,1.2,10.9,3.5,13.7s5.6,4.2,9.6,4.2c4.2,0,7.4-1.4,9.7-4.1
	c2.3-2.7,3.4-7.6,3.4-14.7c0-5.9-1.2-10.3-3.6-13c-2.4-2.7-5.6-4.1-9.7-4.1c-3.9,0-7.1,1.4-9.5,4.2
	C188.9,200.9,187.7,205.5,187.7,211.9z"/>
<path class="st2" d="M271.3,223.5h-16.3v-1.6c0-2.8,0.3-5,0.9-6.8c0.6-1.7,1.6-3.3,2.8-4.7s4-4,8.4-7.6c2.3-1.9,3.5-3.6,3.5-5.2
	s-0.5-2.8-1.4-3.7c-0.9-0.9-2.3-1.3-4.2-1.3c-2,0-3.7,0.7-5,2s-2.2,3.7-2.6,7l-16.7-2.1c0.6-6.1,2.8-11.1,6.7-14.8
	c3.9-3.7,9.8-5.6,17.9-5.6c6.2,0,11.3,1.3,15.1,3.9c5.2,3.5,7.8,8.2,7.8,14.1c0,2.4-0.7,4.8-2,7c-1.3,2.3-4.1,5-8.2,8.3
	c-2.9,2.3-4.7,4.1-5.5,5.5C271.6,219.5,271.3,221.3,271.3,223.5z M254.4,227.8h17.5v15.4h-17.5V227.8z"/>
</svg>
