<?xml version="1.0" encoding="utf-8"?>
<!-- Generator: Adobe Illustrator 23.0.3, SVG Export Plug-In . SVG Version: 6.00 Build 0)  -->
<svg version="1.1" id="Layer_1" xmlns="http://www.w3.org/2000/svg" xmlns:xlink="http://www.w3.org/1999/xlink" x="0px" y="0px"
	 viewBox="0 0 861 154.9" style="enable-background:new 0 0 861 154.9;" xml:space="preserve">
<style type="text/css">
	.st0{fill:#23D3FF;}
</style>
<path class="st0" d="M0,1.1h59.2v15.6H39.3v47.4H19.9V16.6H0V1.1z"/>
<path class="st0" d="M109,1.1h19.4v37.5c0,3.7-0.6,7.2-1.7,10.5c-1.2,3.3-3,6.2-5.5,8.7s-5.1,4.2-7.8,5.2c-3.8,1.4-8.3,2.1-13.6,2.1
	c-3.1,0-6.4-0.2-10-0.6s-6.7-1.3-9.1-2.6S76,58.8,74,56.5s-3.4-4.8-4.1-7.3c-1.2-4-1.8-7.6-1.8-10.6V1.1h19.4v38.4
	c0,3.4,1,6.1,2.9,8.1c1.9,1.9,4.5,2.9,7.9,2.9s6-1,7.9-2.9s2.9-4.6,2.9-8.1V1.1H109z"/>
<path class="st0" d="M209.4,53.7h-22.1l-3.1,10.4h-19.9l23.7-63h21.2l23.7,63h-20.4L209.4,53.7z M205.3,40l-7-22.6L191.5,40H205.3z"
	/>
<path class="st0" d="M235.7,43.2l18.5-1.2c0.4,3,1.2,5.3,2.4,6.9c2,2.5,4.9,3.8,8.6,3.8c2.8,0,4.9-0.7,6.4-2s2.3-2.8,2.3-4.5
	c0-1.6-0.7-3.1-2.1-4.4c-1.4-1.3-4.8-2.5-10-3.7c-8.5-1.9-14.6-4.5-18.3-7.6c-3.7-3.2-5.5-7.2-5.5-12.2c0-3.2,0.9-6.3,2.8-9.2
	c1.9-2.9,4.7-5.1,8.5-6.8c3.8-1.6,8.9-2.5,15.5-2.5c8,0,14.2,1.5,18.4,4.5c4.2,3,6.7,7.8,7.5,14.3l-18.3,1.1
	c-0.5-2.8-1.5-4.9-3.1-6.2s-3.7-1.9-6.5-1.9c-2.3,0-4,0.5-5.1,1.4c-1.1,1-1.7,2.1-1.7,3.5c0,1,0.5,1.9,1.4,2.7
	c0.9,0.8,3.1,1.6,6.5,2.3c8.5,1.8,14.6,3.7,18.3,5.6c3.7,1.9,6.4,4.2,8,7c1.7,2.8,2.5,5.9,2.5,9.3c0,4-1.1,7.8-3.4,11.2
	c-2.2,3.4-5.4,6-9.4,7.8s-9.1,2.6-15.2,2.6c-10.7,0-18.1-2.1-22.3-6.2S236.2,49.6,235.7,43.2z"/>
<path class="st0" d="M325.8,1.1h20.3l14.2,45.3l14-45.3h19.8l-23.4,63h-21.1L325.8,1.1z"/>
<path class="st0" d="M441.4,1.1h19.4v37.5c0,3.7-0.6,7.2-1.7,10.5c-1.2,3.3-3,6.2-5.5,8.7s-5.1,4.2-7.8,5.2
	c-3.8,1.4-8.3,2.1-13.6,2.1c-3.1,0-6.4-0.2-10-0.6s-6.7-1.3-9.1-2.6s-4.7-3.1-6.7-5.4s-3.4-4.8-4.1-7.3c-1.2-4-1.8-7.6-1.8-10.6V1.1
	h19.4v38.4c0,3.4,1,6.1,2.9,8.1c1.9,1.9,4.5,2.9,7.9,2.9s6-1,7.9-2.9s2.9-4.6,2.9-8.1L441.4,1.1L441.4,1.1z"/>
<path class="st0" d="M544.1,1.1h19.4v37.5c0,3.7-0.6,7.2-1.7,10.5c-1.2,3.3-3,6.2-5.5,8.7s-5.1,4.2-7.8,5.2
	c-3.8,1.4-8.3,2.1-13.6,2.1c-3.1,0-6.4-0.2-10-0.6s-6.7-1.3-9.1-2.6c-2.4-1.3-4.7-3.1-6.7-5.4s-3.4-4.8-4.1-7.3
	c-1.2-4-1.8-7.6-1.8-10.6V1.1h19.4v38.4c0,3.4,1,6.1,2.9,8.1c1.9,1.9,4.5,2.9,7.9,2.9s6-1,7.9-2.9s2.9-4.6,2.9-8.1V1.1H544.1z"/>
<path class="st0" d="M576.5,1.1h18.2L618.4,36V1.1h18.3v63h-18.3l-23.6-34.6v34.6h-18.3L576.5,1.1L576.5,1.1z"/>
<path class="st0" d="M649.6,1.1h52.2v13.4h-32.7v10h30.3v12.8h-30.3v12.4h33.6V64h-53.1V1.1z"/>
<path class="st0" d="M4.5,89.7h48.1v13.5H24.1v11h24.4v12.7H24.1v25.7H4.5V89.7z"/>
<path class="st0" d="M93.6,142.3H71.5l-3.1,10.4H48.5l23.7-63h21.2l23.7,63H96.7L93.6,142.3z M89.5,128.6l-7-22.6l-6.9,22.6H89.5z"
	/>
<path class="st0" d="M161.3,89.7h19.4v37.5c0,3.7-0.6,7.2-1.7,10.5c-1.2,3.3-3,6.2-5.5,8.7s-5.1,4.2-7.8,5.2
	c-3.8,1.4-8.3,2.1-13.6,2.1c-3.1,0-6.4-0.2-10-0.6c-3.6-0.4-6.7-1.3-9.1-2.6c-2.4-1.3-4.7-3.1-6.7-5.4c-2-2.3-3.4-4.8-4.1-7.3
	c-1.2-4-1.8-7.6-1.8-10.6V89.7h19.4v38.4c0,3.4,1,6.1,2.9,8s4.5,2.9,7.9,2.9s6-1,7.9-2.9s2.9-4.6,2.9-8.1L161.3,89.7L161.3,89.7z"/>
<path class="st0" d="M316,89.7h52.2v13.4h-32.7v10h30.3V126h-30.3v12.4h33.6v14.3H316V89.7z"/>
<path class="st0" d="M409.7,89.7h19.5v63h-19.5V89.7z"/>
<path class="st0" d="M443.3,89.7h18.2l23.7,34.9V89.7h18.3v63h-18.3l-23.6-34.6v34.6h-18.3L443.3,89.7L443.3,89.7z"/>
<path class="st0" d="M516.6,89.7h48.1v13.5h-28.6v11h24.4v12.7h-24.4v25.7h-19.6L516.6,89.7L516.6,89.7z"/>
<path class="st0" d="M572.7,121.2c0-10.3,2.9-18.3,8.6-24c5.7-5.7,13.7-8.6,23.9-8.6c10.5,0,18.6,2.8,24.2,8.4s8.5,13.5,8.5,23.7
	c0,7.4-1.2,13.4-3.7,18.1c-2.5,4.7-6.1,8.4-10.7,11s-10.5,3.9-17.5,3.9c-7.1,0-13-1.1-17.6-3.4c-4.7-2.3-8.4-5.8-11.3-10.7
	S572.7,128.6,572.7,121.2z M592.2,121.3c0,6.4,1.2,10.9,3.5,13.7c2.4,2.8,5.6,4.2,9.6,4.2c4.2,0,7.4-1.4,9.7-4.1
	c2.3-2.7,3.4-7.6,3.4-14.7c0-5.9-1.2-10.3-3.6-13c-2.4-2.7-5.6-4.1-9.7-4.1c-3.9,0-7.1,1.4-9.5,4.2
	C593.4,110.3,592.2,114.9,592.2,121.3z"/>
<path class="st0" d="M675.8,132.9h-16.3v-1.6c0-2.8,0.3-5,0.9-6.8c0.6-1.7,1.6-3.3,2.8-4.7c1.2-1.4,4-4,8.4-7.6
	c2.3-1.9,3.5-3.6,3.5-5.2s-0.5-2.8-1.4-3.7c-0.9-0.9-2.3-1.3-4.2-1.3c-2,0-3.7,0.7-5,2s-2.2,3.7-2.6,7l-16.7-2.1
	c0.6-6.1,2.8-11.1,6.7-14.8s9.8-5.6,17.9-5.6c6.2,0,11.3,1.3,15.1,3.9c5.2,3.5,7.8,8.2,7.8,14.1c0,2.4-0.7,4.8-2,7
	c-1.3,2.3-4.1,5-8.2,8.3c-2.9,2.3-4.7,4.1-5.5,5.5C676.1,128.9,675.8,130.7,675.8,132.9z M658.9,137.2h17.5v15.4h-17.5V137.2z"/>
<path class="st0" d="M187,131.9l18.5-1.2c0.4,3,1.2,5.3,2.4,6.9c2,2.5,4.9,3.8,8.6,3.8c2.8,0,4.9-0.7,6.4-2s2.3-2.8,2.3-4.5
	c0-1.6-0.7-3.1-2.1-4.4c-1.4-1.3-4.8-2.5-10-3.7c-8.5-1.9-14.6-4.5-18.3-7.6c-3.7-3.2-5.5-7.2-5.5-12.2c0-3.2,0.9-6.3,2.8-9.2
	c1.9-2.9,4.7-5.1,8.5-6.8c3.8-1.6,8.9-2.5,15.5-2.5c8,0,14.2,1.5,18.4,4.5c4.2,3,6.7,7.8,7.5,14.3l-18.3,1.1
	c-0.5-2.8-1.5-4.9-3.1-6.2c-1.6-1.3-3.7-1.9-6.5-1.9c-2.3,0-4,0.5-5.1,1.4c-1.1,1-1.7,2.1-1.7,3.5c0,1,0.5,1.9,1.4,2.7
	c0.9,0.8,3.1,1.6,6.5,2.3c8.5,1.8,14.6,3.7,18.3,5.6c3.7,1.9,6.4,4.2,8,7c1.7,2.8,2.5,5.9,2.5,9.3c0,4-1.1,7.8-3.4,11.2
	c-2.2,3.4-5.4,6-9.4,7.8s-9.1,2.6-15.2,2.6c-10.7,0-18.1-2.1-22.3-6.2C189.5,143.4,187.5,138.3,187,131.9z"/>
<path class="st0" d="M250.3,132l18.5-1.2c0.4,3,1.2,5.3,2.4,6.9c2,2.5,4.9,3.8,8.6,3.8c2.8,0,4.9-0.7,6.4-2s2.3-2.8,2.3-4.5
	c0-1.6-0.7-3.1-2.1-4.4c-1.4-1.3-4.8-2.5-10-3.7c-8.5-1.9-14.6-4.5-18.3-7.6c-3.7-3.2-5.5-7.2-5.5-12.2c0-3.2,0.9-6.3,2.8-9.2
	c1.9-2.9,4.7-5.1,8.5-6.8c3.8-1.6,8.9-2.5,15.5-2.5c8,0,14.2,1.5,18.4,4.5c4.2,3,6.7,7.8,7.5,14.3l-18.3,1.1
	c-0.5-2.8-1.5-4.9-3.1-6.2c-1.6-1.3-3.7-1.9-6.5-1.9c-2.3,0-4,0.5-5.1,1.4c-1.1,1-1.7,2.1-1.7,3.5c0,1,0.5,1.9,1.4,2.7
	c0.9,0.8,3.1,1.6,6.5,2.3c8.5,1.8,14.6,3.7,18.3,5.6c3.7,1.9,6.4,4.2,8,7c1.7,2.8,2.5,5.9,2.5,9.3c0,4-1.1,7.8-3.4,11.2
	c-2.2,3.4-5.4,6-9.4,7.8s-9.1,2.6-15.2,2.6c-10.7,0-18.1-2.1-22.3-6.2C252.8,143.5,250.8,138.4,250.3,132z"/>
</svg>
