<?xml version="1.0" encoding="utf-8"?>
<!-- Generator: Adobe Illustrator 24.2.2, SVG Export Plug-In . SVG Version: 6.00 Build 0)  -->
<svg version="1.1" id="Layer_1" xmlns="http://www.w3.org/2000/svg" xmlns:xlink="http://www.w3.org/1999/xlink" x="0px" y="0px"
	 viewBox="0 0 593 81" style="enable-background:new 0 0 593 81;" xml:space="preserve">
<g>
	<path d="M65.2,61.3c2.7,1.9,4.5,3.1,5.3,3.5c1.2,0.7,2.9,1.5,5,2.4l-6,12.2c-3-1.5-6-3.2-9-5.3c-3-2-5.1-3.6-6.2-4.6
		c-4.8,2.1-10.8,3.1-18,3.1c-10.7,0-19.1-2.8-25.3-8.3C3.6,57.8,0,48.5,0,36.6C0,25,3.2,16,9.6,9.6C16,3.2,24.9,0,36.3,0
		C48,0,57,3.1,63.3,9.4c6.3,6.3,9.5,15.2,9.5,26.9C72.9,46.7,70.3,55,65.2,61.3z M48.5,50.1c1.7-3.1,2.6-7.7,2.6-13.9
		c0-7.1-1.3-12.2-4-15.2c-2.6-3-6.3-4.6-10.9-4.6c-4.3,0-7.8,1.6-10.5,4.7c-2.7,3.1-4,7.9-4,14.5c0,7.7,1.3,13.1,3.9,16.2
		c2.6,3.1,6.2,4.7,10.8,4.7c1.5,0,2.9-0.1,4.2-0.4c-1.8-1.8-4.7-3.4-8.6-5l3.4-7.8c1.9,0.4,3.4,0.8,4.5,1.3c1.1,0.5,3.2,1.9,6.3,4
		C46.9,49.1,47.7,49.6,48.5,50.1z"/>
	<path d="M135,71.5h-18.2v-8.3c-2.7,3.4-5.5,5.8-8.2,7.2c-2.8,1.4-6.2,2.2-10.2,2.2c-5.4,0-9.6-1.6-12.6-4.8
		c-3.1-3.2-4.6-8.2-4.6-14.8V20.6h19.6v28c0,3.2,0.6,5.5,1.8,6.8c1.2,1.3,2.8,2,5,2c2.3,0,4.2-0.9,5.7-2.7c1.5-1.8,2.2-5,2.2-9.6
		V20.6H135V71.5z"/>
	<path d="M201.4,50.9h-39.1c0.4,3.1,1.2,5.5,2.5,7c1.9,2.2,4.3,3.3,7.4,3.3c1.9,0,3.7-0.5,5.5-1.4c1.1-0.6,2.2-1.7,3.4-3.2l19.2,1.8
		c-2.9,5.1-6.5,8.8-10.6,11c-4.2,2.2-10.1,3.3-17.9,3.3c-6.7,0-12.1-1-15.9-2.9c-3.9-1.9-7.1-4.9-9.6-9.1c-2.5-4.1-3.8-9-3.8-14.6
		c0-8,2.6-14.4,7.7-19.3c5.1-4.9,12.1-7.4,21.1-7.4c7.3,0,13,1.1,17.3,3.3c4.2,2.2,7.4,5.4,9.6,9.6c2.2,4.2,3.3,9.6,3.3,16.4V50.9z
		 M181.6,41.5c-0.4-3.8-1.4-6.5-3-8.1c-1.6-1.6-3.8-2.4-6.5-2.4c-3.1,0-5.6,1.2-7.4,3.7c-1.2,1.5-1.9,3.8-2.3,6.9H181.6z"/>
	<path d="M205,57.4l19.4-1.8c0.8,2.3,1.9,4,3.4,4.9c1.4,1,3.4,1.5,5.8,1.5c2.6,0,4.7-0.6,6.1-1.7c1.1-0.8,1.7-1.9,1.7-3.1
		c0-1.4-0.7-2.5-2.2-3.3c-1.1-0.5-3.9-1.2-8.4-2c-6.8-1.2-11.5-2.3-14.1-3.3c-2.6-1-4.9-2.7-6.7-5.1c-1.8-2.4-2.7-5.1-2.7-8.2
		c0-3.4,1-6.3,2.9-8.7c2-2.4,4.6-4.2,8.1-5.4c3.4-1.2,8-1.8,13.8-1.8c6.1,0,10.6,0.5,13.5,1.4c2.9,0.9,5.3,2.4,7.2,4.3
		c1.9,2,3.5,4.6,4.8,7.9l-18.5,1.8c-0.5-1.6-1.3-2.8-2.4-3.6c-1.5-1-3.4-1.5-5.6-1.5c-2.2,0-3.8,0.4-4.8,1.2c-1,0.8-1.5,1.7-1.5,2.9
		c0,1.2,0.6,2.2,1.9,2.8c1.3,0.6,4.1,1.2,8.3,1.7c6.5,0.7,11.3,1.8,14.5,3.1c3.2,1.3,5.6,3.2,7.3,5.6c1.7,2.4,2.5,5.1,2.5,8
		c0,2.9-0.9,5.8-2.7,8.6c-1.8,2.8-4.6,5-8.4,6.6c-3.8,1.6-9,2.5-15.6,2.5c-9.3,0-15.9-1.3-19.9-4C208.6,66.1,206.1,62.3,205,57.4z"
		/>
	<path d="M290,1.2v19.4h10.7v14.2H290v18.1c0,2.2,0.2,3.6,0.6,4.3c0.6,1.1,1.8,1.6,3.4,1.6c1.4,0,3.5-0.4,6-1.2l1.4,13.5
		c-4.8,1.1-9.3,1.6-13.5,1.6c-4.9,0-8.4-0.6-10.7-1.9c-2.3-1.2-4-3.1-5.1-5.7c-1.1-2.5-1.7-6.7-1.7-12.4V34.8h-7.2V20.6h7.2v-9.4
		L290,1.2z"/>
	<path d="M310.8,1.2h19.5v13.3h-19.5V1.2z M310.8,20.6h19.5v50.9h-19.5V20.6z"/>
	<path d="M336.5,46.2c0-7.8,2.6-14.2,7.9-19.2c5.2-5,12.3-7.6,21.3-7.6c10.2,0,17.9,3,23.1,8.9c4.2,4.8,6.3,10.6,6.3,17.6
		c0,7.8-2.6,14.3-7.8,19.3c-5.2,5-12.4,7.5-21.6,7.5c-8.2,0-14.8-2.1-19.9-6.2C339.6,61.3,336.5,54.5,336.5,46.2z M356.1,46.1
		c0,4.5,0.9,7.9,2.8,10.1c1.8,2.2,4.1,3.3,6.9,3.3c2.8,0,5.1-1.1,6.9-3.2c1.8-2.1,2.7-5.6,2.7-10.3c0-4.4-0.9-7.7-2.7-9.9
		c-1.8-2.2-4.1-3.2-6.8-3.2c-2.8,0-5.2,1.1-7.1,3.3C357,38.3,356.1,41.7,356.1,46.1z"/>
	<path d="M402.4,20.6h18.2v8.3c2.7-3.4,5.5-5.8,8.3-7.3c2.8-1.5,6.2-2.2,10.2-2.2c5.4,0,9.6,1.6,12.7,4.8c3.1,3.2,4.6,8.2,4.6,14.9
		v32.4h-19.6v-28c0-3.2-0.6-5.5-1.8-6.8c-1.2-1.3-2.8-2-5-2c-2.4,0-4.3,0.9-5.8,2.7c-1.5,1.8-2.2,5-2.2,9.6v24.5h-19.5V20.6z"/>
	<path d="M466,20.6h18.2v8.3c2.7-3.4,5.5-5.8,8.3-7.3c2.8-1.5,6.2-2.2,10.2-2.2c5.4,0,9.6,1.6,12.7,4.8c3.1,3.2,4.6,8.2,4.6,14.9
		v32.4h-19.6v-28c0-3.2-0.6-5.5-1.8-6.8c-1.2-1.3-2.8-2-5-2c-2.4,0-4.3,0.9-5.8,2.7c-1.5,1.8-2.2,5-2.2,9.6v24.5H466V20.6z"/>
	<path d="M586.1,50.9H547c0.4,3.1,1.2,5.5,2.5,7c1.9,2.2,4.3,3.3,7.4,3.3c1.9,0,3.7-0.5,5.5-1.4c1.1-0.6,2.2-1.7,3.4-3.2l19.2,1.8
		c-2.9,5.1-6.5,8.8-10.6,11c-4.2,2.2-10.1,3.3-17.9,3.3c-6.7,0-12.1-1-15.9-2.9c-3.9-1.9-7.1-4.9-9.6-9.1c-2.5-4.1-3.8-9-3.8-14.6
		c0-8,2.5-14.4,7.7-19.3c5.1-4.9,12.1-7.4,21.1-7.4c7.3,0,13,1.1,17.3,3.3c4.2,2.2,7.4,5.4,9.6,9.6c2.2,4.2,3.3,9.6,3.3,16.4V50.9z
		 M566.3,41.5c-0.4-3.8-1.4-6.5-3-8.1c-1.6-1.6-3.8-2.4-6.5-2.4c-3.1,0-5.6,1.2-7.4,3.7c-1.2,1.5-1.9,3.8-2.3,6.9H566.3z"/>
</g>
</svg>
