<?xml version="1.0" encoding="utf-8"?>
<!-- Generator: Adobe Illustrator 24.2.2, SVG Export Plug-In . SVG Version: 6.00 Build 0)  -->
<svg version="1.1" id="Layer_1" xmlns="http://www.w3.org/2000/svg" xmlns:xlink="http://www.w3.org/1999/xlink" x="0px" y="0px"
	 viewBox="0 0 270 47" style="enable-background:new 0 0 270 47;" xml:space="preserve">
<g>
	<path d="M0,6.4h15.3c3,0,5.4,0.4,7.3,1.2c1.9,0.8,3.4,2,4.6,3.5c1.2,1.5,2.1,3.3,2.6,5.3c0.5,2,0.8,4.2,0.8,6.4
		c0,3.6-0.4,6.3-1.2,8.3c-0.8,2-1.9,3.6-3.4,4.9c-1.4,1.3-3,2.2-4.6,2.6c-2.3,0.6-4.3,0.9-6.1,0.9H0V6.4z M10.3,13.9v18.2h2.5
		c2.1,0,3.7-0.2,4.6-0.7c0.9-0.5,1.6-1.3,2.1-2.5c0.5-1.2,0.8-3.1,0.8-5.8c0-3.5-0.6-5.9-1.7-7.2c-1.1-1.3-3.1-2-5.7-2H10.3z"/>
	<path d="M34.8,6.4H44v6.3h-9.2V6.4z M34.8,15.6H44v24.1h-9.2V15.6z"/>
	<path d="M61,6.4v9.2h5.1v6.7H61v8.5c0,1,0.1,1.7,0.3,2c0.3,0.5,0.8,0.8,1.6,0.8c0.7,0,1.6-0.2,2.9-0.6l0.7,6.4
		c-2.3,0.5-4.4,0.7-6.4,0.7c-2.3,0-4-0.3-5.1-0.9c-1.1-0.6-1.9-1.5-2.4-2.7c-0.5-1.2-0.8-3.1-0.8-5.8v-8.5h-3.4v-6.7h3.4v-4.4
		L61,6.4z"/>
	<path d="M111.4,6.4v33.2h-8.6v-3.6c-1.2,1.5-2.3,2.5-3.3,3.1c-1.3,0.7-2.8,1-4.4,1c-3.3,0-5.8-1.2-7.5-3.7
		c-1.7-2.5-2.6-5.5-2.6-9.1c0-4,1-7,2.9-9.2c1.9-2.1,4.3-3.2,7.3-3.2c1.4,0,2.7,0.2,3.9,0.7c1.2,0.5,2.2,1.2,3.1,2.2V6.4H111.4z
		 M102.1,27.5c0-1.9-0.4-3.3-1.2-4.2c-0.8-0.9-1.8-1.4-3-1.4c-1.1,0-2,0.4-2.7,1.3c-0.7,0.9-1.1,2.4-1.1,4.5c0,2,0.4,3.4,1.1,4.3
		c0.7,0.9,1.7,1.4,2.8,1.4c1.2,0,2.2-0.5,2.9-1.4C101.7,31.1,102.1,29.6,102.1,27.5z"/>
	<path d="M116.7,5.8h9.9v7.6c0,2.8-0.6,5-1.7,6.6c-1.2,1.6-3.2,3.1-6,4.3l-2.2-4c1.8-0.8,3-1.6,3.6-2.4c0.7-0.8,1-1.8,1.1-2.9h-4.7
		V5.8z"/>
	<path d="M137.4,23.4l-8.8-0.9c0.3-1.5,0.8-2.8,1.4-3.6c0.6-0.9,1.5-1.7,2.7-2.3c0.8-0.5,2-0.8,3.5-1.1c1.5-0.3,3.1-0.4,4.8-0.4
		c2.8,0,5,0.2,6.7,0.5c1.7,0.3,3.1,1,4.2,1.9c0.8,0.7,1.4,1.6,1.9,2.9c0.5,1.2,0.7,2.4,0.7,3.6v10.6c0,1.1,0.1,2,0.2,2.7
		c0.1,0.6,0.5,1.5,0.9,2.5h-8.7c-0.3-0.6-0.6-1.1-0.7-1.4s-0.2-0.8-0.3-1.5c-1.2,1.2-2.4,2-3.6,2.5c-1.6,0.7-3.5,1-5.7,1
		c-2.9,0-5.1-0.7-6.5-2c-1.5-1.3-2.2-3-2.2-4.9c0-1.8,0.5-3.3,1.6-4.5c1.1-1.2,3.1-2.1,5.9-2.6c3.5-0.7,5.7-1.2,6.7-1.5
		s2.1-0.6,3.3-1.1c0-1.1-0.2-1.9-0.7-2.4c-0.5-0.5-1.3-0.7-2.5-0.7c-1.5,0-2.6,0.2-3.4,0.7C138.2,21.6,137.7,22.3,137.4,23.4z
		 M145.4,28.2c-1.3,0.5-2.6,0.9-4,1.2c-1.9,0.5-3.1,1-3.6,1.5c-0.5,0.5-0.8,1.1-0.8,1.7c0,0.7,0.3,1.3,0.8,1.8
		c0.5,0.5,1.3,0.7,2.2,0.7c1,0,2-0.2,2.9-0.7c0.9-0.5,1.5-1.1,1.9-1.8c0.4-0.7,0.6-1.7,0.6-2.8V28.2z"/>
	<path d="M159.5,6.4h9.3v11.5c0.9-1,2-1.7,3.1-2.2c1.2-0.5,2.5-0.7,3.9-0.7c2.9,0,5.4,1.1,7.3,3.2c1.9,2.1,2.9,5.1,2.9,9.1
		c0,2.6-0.4,4.9-1.3,7c-0.9,2-2.1,3.5-3.6,4.5c-1.6,1-3.3,1.5-5.2,1.5c-1.6,0-3.1-0.3-4.4-1c-1-0.5-2.1-1.6-3.3-3.1v3.6h-8.6V6.4z
		 M168.8,27.5c0,2.1,0.4,3.6,1.2,4.5c0.8,0.9,1.8,1.4,3,1.4c1.1,0,2-0.5,2.8-1.4c0.7-0.9,1.1-2.5,1.1-4.6c0-1.9-0.4-3.3-1.1-4.2
		c-0.7-0.9-1.6-1.3-2.7-1.3c-1.3,0-2.3,0.5-3.1,1.4C169.2,24.2,168.8,25.6,168.8,27.5z"/>
	<path d="M188.4,27.7c0-3.7,1.2-6.7,3.7-9.1c2.5-2.4,5.8-3.6,10-3.6c4.8,0,8.5,1.4,10.9,4.2c2,2.3,3,5,3,8.3c0,3.7-1.2,6.7-3.7,9.1
		c-2.5,2.4-5.9,3.5-10.2,3.5c-3.9,0-7-1-9.4-2.9C189.9,34.8,188.4,31.6,188.4,27.7z M197.6,27.6c0,2.1,0.4,3.7,1.3,4.8
		c0.9,1,2,1.5,3.3,1.5c1.3,0,2.4-0.5,3.3-1.5c0.9-1,1.3-2.6,1.3-4.9c0-2.1-0.4-3.6-1.3-4.7c-0.9-1-1.9-1.5-3.2-1.5
		c-1.3,0-2.5,0.5-3.3,1.6C198.1,23.9,197.6,25.5,197.6,27.6z"/>
	<path d="M219.7,15.6h8.6v3.9c0.8-1.7,1.7-2.9,2.6-3.5c0.9-0.6,2-1,3.3-1c1.4,0,2.8,0.4,4.5,1.3l-2.9,6.6c-1.1-0.5-2-0.7-2.6-0.7
		c-1.2,0-2.1,0.5-2.8,1.5c-1,1.4-1.4,4-1.4,7.9v8.1h-9.3V15.6z"/>
	<path d="M265.8,6.4v33.2h-8.6v-3.6c-1.2,1.5-2.3,2.5-3.3,3.1c-1.3,0.7-2.8,1-4.4,1c-3.3,0-5.8-1.2-7.5-3.7
		c-1.7-2.5-2.6-5.5-2.6-9.1c0-4,1-7,2.9-9.2c1.9-2.1,4.3-3.2,7.3-3.2c1.4,0,2.7,0.2,3.9,0.7c1.2,0.5,2.2,1.2,3.1,2.2V6.4H265.8z
		 M256.5,27.5c0-1.9-0.4-3.3-1.2-4.2c-0.8-0.9-1.8-1.4-3-1.4c-1.1,0-2,0.4-2.7,1.3c-0.7,0.9-1.1,2.4-1.1,4.5c0,2,0.4,3.4,1.1,4.3
		c0.7,0.9,1.7,1.4,2.8,1.4c1.2,0,2.2-0.5,2.9-1.4C256.1,31.1,256.5,29.6,256.5,27.5z"/>
</g>
</svg>
