<?xml version="1.0" encoding="utf-8"?>
<!-- Generator: Adobe Illustrator 24.2.2, SVG Export Plug-In . SVG Version: 6.00 Build 0)  -->
<svg version="1.1" id="Layer_1" xmlns="http://www.w3.org/2000/svg" xmlns:xlink="http://www.w3.org/1999/xlink" x="0px" y="0px"
	 viewBox="0 0 203 325" style="enable-background:new 0 0 203 325;" xml:space="preserve">
<style type="text/css">
	.st0{fill:#C3E8F5;}
</style>
<g>
	<g>
		<g>
			<path class="st0" d="M106.3,252c0.2-0.4,0.7-0.6,0.9-0.9c0.2-0.4-0.3-1-0.1-1.4s0-0.9,0.1-1.3c0.2-0.4,0.5-0.7,0.7-1
				c0.2-0.4,1.3-0.3,1.4-0.7c0.2-0.4-0.5-1.1-0.3-1.5s0.5-0.7,0.7-1c0.2-0.4,0.1-0.9,0.4-1.3c0.2-0.3,1-0.3,1.3-0.6
				c0.2-0.3,0.2-0.8,0.5-1.2c0.2-0.3,0.9-0.4,1.1-0.8c0.2-0.4,0.1-0.9,0.3-1.3c0.2-0.4,0.4-0.7,0.5-1.1c0.2-0.4,0.9-0.5,1.1-0.9
				c0.1-0.4-1.1-1.2-0.9-1.6c0.1-0.4,1.4-0.4,1.5-0.8c0.1-0.4,0-0.9,0.1-1.2c0.1-0.4-0.4-1-0.2-1.4s1.2-0.4,1.3-0.8
				c0.2-0.4,0.1-0.8,0.2-1.2c0.1-0.4-0.1-0.9,0.1-1.3c0.1-0.4,0.7-0.6,0.8-1s0.4-0.7,0.6-1.1c0.1-0.4-0.6-1.1-0.4-1.5
				c0.2-0.4,0.3-0.8,0.5-1.2s1-0.5,1.1-0.8c0.2-0.4,0.2-0.8,0.3-1.2c0.2-0.4,0-0.9,0.2-1.2c0.2-0.4,1-0.4,1.2-0.8
				c0.2-0.4,0.2-0.8,0.4-1.2c0.1-0.4,0-0.9,0.1-1.2c0.1-0.4,0.5-0.7,0.5-1.1c0.1-0.4,0.2-0.8,0.3-1.2s0-0.8,0.1-1.2s-0.1-0.9,0-1.3
				c0.1-0.4,0.6-0.7,0.7-1.1c0.1-0.4,0.7-0.6,0.9-1c0.1-0.4-0.7-1.1-0.6-1.5c0.1-0.4,0.2-0.8,0.3-1.2s0.5-0.7,0.6-1.1
				c0.1-0.4,0.2-0.8,0.3-1.2s0-0.8,0.1-1.2s0.8-0.7,0.9-1.1c0.1-0.4-0.2-0.8-0.1-1.2c0.1-0.4,0.1-0.8,0.1-1.2s0.2-0.8,0.2-1.2
				s0.6-0.7,0.7-1.1c0.1-0.4,0-0.8,0.1-1.2s-0.6-0.9-0.6-1.3c0-0.4,0.1-0.8,0.2-1.2c0-0.4,0.5-0.8,0.5-1.2s-0.8-0.9-0.8-1.3
				c0-0.4,1-0.7,1.1-1.1c0-0.4,0-0.8,0-1.2s0.3-0.8,0.3-1.2c0.1-0.4-0.1-0.8,0-1.2s0-0.8,0.1-1.2s0.1-0.8,0.2-1.2
				c0.1-0.4,0-0.8,0.1-1.2s-0.1-0.8-0.1-1.2s0.4-0.8,0.4-1.2s-0.2-0.8-0.2-1.2s0.8-0.9,0.7-1.3c0-0.4-0.7-0.7-0.8-1.2
				c0-0.4,0.2-0.8,0.2-1.2s0.5-0.8,0.5-1.2s-0.8-0.8-0.7-1.2c0-0.4,0.6-0.8,0.6-1.2s-0.4-0.9-0.3-1.3c0-0.4,0.3-0.8,0.3-1.2
				s0-0.8,0-1.2s0.3-0.8,0.3-1.2s-0.1-0.8-0.1-1.2c-0.1-0.4-0.7-0.7-0.8-1.1c-0.1-0.4,0.2-0.9,0.1-1.3c-0.1-0.4-0.1-0.8-0.2-1.2
				c-0.1-0.4,0.8-0.9,0.8-1.3c-0.1-0.4-0.8-0.7-0.9-1.1c0-0.4-0.1-0.8-0.2-1.2c0-0.4-0.2-0.8-0.2-1.2s-0.9-0.8-0.9-1.2
				s1.1-0.8,1.1-1.2s-0.5-0.8-0.5-1.2s-0.1-0.8-0.1-1.2s-0.2-0.8-0.2-1.2s0.3-0.8,0.3-1.2s0.2-0.8,0.2-1.2s-0.6-0.8-0.6-1.2
				s0.2-0.8,0.1-1.2c0-0.4,0.1-0.8,0.1-1.2s-0.1-0.8-0.1-1.2s-0.2-0.8-0.2-1.2s-0.4-0.8-0.5-1.2c0-0.4-0.3-0.8-0.3-1.2
				s0.1-0.8,0.1-1.2s0.5-0.9,0.5-1.3c0-0.4-0.7-0.7-0.8-1.1c-0.1-0.4,0.3-0.9,0.2-1.3c-0.1-0.4,0.2-0.9,0.1-1.3
				c-0.1-0.4-0.4-0.8-0.5-1.2s-0.6-0.7-0.7-1.1c-0.1-0.4,0.9-0.9,0.8-1.3c0-0.4-0.5-0.8-0.5-1.2s-0.2-0.8-0.2-1.2s-0.5-0.8-0.5-1.2
				s0.5-0.8,0.5-1.2c0-0.4-0.2-0.8-0.3-1.2c0-0.4,1-0.9,0.9-1.3c0-0.4-1.3-0.6-1.4-1c-0.1-0.4,0.2-0.8,0.1-1.2
				c-0.1-0.4-0.5-0.7-0.6-1.1s0.3-0.9,0.2-1.3s-0.8-0.6-0.9-1c-0.1-0.4-0.3-0.8-0.3-1.2c-0.1-0.4,1.1-0.9,1.1-1.3
				c-0.1-0.4-1.3-0.6-1.4-1c-0.1-0.4,0.8-0.9,0.8-1.3c-0.1-0.4-0.1-0.8-0.1-1.2c-0.1-0.4,0.1-0.8,0-1.2c-0.1-0.4,0-0.8,0-1.2
				c-0.1-0.4-0.8-0.7-0.8-1.1c-0.1-0.4,0.1-0.8,0-1.2c-0.1-0.4-0.3-0.7-0.4-1.1c-0.1-0.4,0.3-0.8,0.3-1.2c-0.1-0.4-0.3-0.7-0.4-1.1
				c-0.1-0.4-0.4-0.7-0.5-1.1s-0.2-0.8-0.3-1.1c-0.1-0.4-0.3-0.7-0.4-1.1c-0.1-0.4-0.2-0.8-0.3-1.1c-0.1-0.4,0.2-0.9,0.1-1.2
				c-0.1-0.4,0.1-0.8,0-1.2c-0.1-0.4-0.4-0.7-0.5-1.1s0-0.8-0.1-1.2c-0.1-0.4-0.9-0.6-0.9-1c-0.1-0.4,0.6-0.9,0.5-1.3s0-0.8-0.1-1.2
				c-0.1-0.4-0.6-0.7-0.7-1c-0.1-0.4-0.4-0.7-0.5-1.1s0.1-0.8,0-1.2c-0.1-0.4,0.1-0.9,0-1.2c-0.1-0.4-1.2-0.4-1.3-0.8s0.6-1,0.5-1.4
				s0-0.8-0.2-1.2c-0.1-0.4-0.8-0.6-0.9-0.9c-0.1-0.4-0.6-0.7-0.7-1c-0.1-0.4,0.6-1,0.5-1.3c-0.1-0.4,0-0.8-0.1-1.2
				c-0.1-0.4-1-0.6-1.1-0.9c-0.1-0.4-0.1-0.8-0.2-1.1c-0.1-0.4-0.7-0.6-0.8-0.9c-0.1-0.4,0.4-0.9,0.3-1.3c-0.1-0.4,0.3-0.9,0.2-1.3
				s-0.9-0.6-1-0.9c-0.1-0.4,0.4-0.9,0.3-1.3c-0.1-0.4-0.3-0.7-0.4-1.1c-0.1-0.4-0.9-0.5-1.1-0.9c-0.1-0.4,0.8-1.1,0.7-1.4
				c-0.1-0.4-0.7-0.6-0.8-1s-0.1-0.8-0.2-1.1c-0.1-0.4-1.1-0.5-1.2-0.8c-0.1-0.4,0.1-0.9,0-1.2c-0.1-0.4-0.1-0.8-0.2-1.2
				c-0.1-0.4,0-0.8-0.1-1.2s-0.9-0.5-1.1-0.8c-0.1-0.4,0.6-1.1,0.5-1.5s-1.1-0.4-1.2-0.8c-0.1-0.4-0.1-0.8-0.2-1.2
				c-0.1-0.4,0.2-0.9,0.1-1.3c-0.1-0.4-0.6-0.7-0.7-1.1c-0.1-0.4,0.6-0.8,0.6-1.2s-1-0.7-1-1.1c0-0.4,0.8-0.8,0.8-1.2
				s-0.7-0.7-0.7-1.1c0-0.4-0.5-0.7-0.6-1.1c-0.1-0.4,0.9-1,0.8-1.3c-0.1-0.4-0.4-0.7-0.5-1.1c-0.1-0.4-0.5-0.7-0.6-1.1
				c-0.1-0.4-0.6-0.7-0.7-1c-0.1-0.4,0.2-0.9,0.2-1.2c-0.1-0.4-0.4-0.7-0.5-1.1c0-0.4-0.2-0.8-0.2-1.2s0.5-0.8,0.5-1.2
				s0.5-0.7,0.6-1.1c0-0.4,0.3-0.8,0.4-1.1c0-0.4-0.1-0.8-0.1-1.2s-0.2-0.8-0.3-1.2c0-0.4-0.9-0.7-1-1.1c0-0.4,1.2-0.9,1.2-1.3
				c0-0.4-0.6-0.7-0.7-1.1c0-0.4,0.7-0.8,0.7-1.2c0-0.4-0.7-0.7-0.8-1.1c0-0.4-0.3-0.8-0.3-1.2c0-0.4,0.2-0.8,0.2-1.1
				c0-0.4,0-0.8,0-1.1c0-0.4,0.5-0.7,0.5-1.1s-0.4-0.8-0.3-1.2c0-0.4,0.8-0.6,0.9-1c0.1-0.4-0.7-0.9-0.6-1.3c0.1-0.4,0.6-0.6,0.7-1
				c0.1-0.4-0.2-0.8,0-1.2c0.1-0.4,0.2-0.8,0.3-1.1c0.1-0.4,1-0.4,1.2-0.8c0.1-0.4-0.6-1.1-0.4-1.4c0.2-0.3,1-0.4,1.2-0.7
				c0.2-0.3,0.7-0.3,1-0.6c0.2-0.3,0-1,0.2-1.2c0.3-0.3,0.5-0.6,0.8-0.8c0.3-0.3,0.8-0.2,1.1-0.5s0.2-0.9,0.5-1.1
				c0.3-0.3,0.7-0.4,1-0.6c0.3-0.3,0.2-0.9,0.4-1.2s0.9-0.3,1.1-0.6c0.2-0.3,0.1-0.9,0.4-1.2c0.2-0.3,0.5-0.6,0.8-0.9
				c0.3-0.3,0.7-0.3,1-0.6c0.3-0.2,0.2-1,0.5-1.2s0.9-0.1,1.2-0.2c0.3-0.2,0.9,0.2,1.3,0.1c0.4-0.1,0.5-0.9,0.9-1s0.6-0.8,0.9-0.9
				c0.4-0.1,1,0.8,1.3,0.7c0.4-0.1,0.7-0.2,1.1-0.3c0.4-0.1,0.6-0.7,0.9-0.8c0.4-0.1,0.9,0.5,1.3,0.4c0.4-0.1,0.7-0.5,1-0.5
				c0.4-0.1,0.7-0.6,1.1-0.6c0.4,0,0.8,1.1,1.2,1.1s0.7-0.7,1.1-0.7c0.4,0,0.9-0.6,1.3-0.6c0.4,0,0.8,0.8,1.2,0.8s0.8,0.3,1.2,0.3
				s0.9-0.2,1.3-0.2c0.4,0.1,0.8,0,1.3,0.1c0.4,0.1,0.9,0,1.3,0.1c0.4,0.1,0.8,0.4,1.2,0.5c0.4,0.1,0.7,0.6,1.1,0.7
				c0.4,0.1,1-0.7,1.4-0.6s0.8,0.2,1.2,0.3c0.4,0.1,0.6,0.8,1,0.9s0.6,0.8,0.9,1c0.4,0.2,0.8,0.3,1.1,0.5c0.4,0.2,1.2-0.4,1.5-0.2
				c0.4,0.2,0.7,0.5,1,0.8c0.4,0.2,0.7,0.5,1,0.8c0.3,0.2,0.8,0.4,1.1,0.6c0.3,0.2,0.1,1.2,0.5,1.5c0.3,0.2,0.6,0.5,1,0.8
				c0.3,0.3,1,0.1,1.3,0.4c0.3,0.3,0.1,1.1,0.4,1.4c0.3,0.3,0.6,0.5,0.9,0.8c0.3,0.3,1.4-0.2,1.7,0.1s0.3,0.9,0.6,1.2s0.4,0.7,0.7,1
				c0.3,0.3,0.2,0.9,0.4,1.2c0.2,0.3,1.4,0,1.7,0.4c0.2,0.3-0.3,1.2,0,1.5c0.2,0.3,0.5,0.7,0.7,1s0.3,0.8,0.6,1.2
				c0.2,0.3,0.9,0.3,1.1,0.6c0.2,0.3,0.8,0.4,1,0.7c0.2,0.3,0,1,0.3,1.3c0.2,0.3,0.5,0.6,0.7,0.9s0.5,0.6,0.7,1
				c0.2,0.3,1.3,0.1,1.5,0.4s-0.6,1.4-0.3,1.7c0.2,0.3,0.8,0.4,1,0.7c0.2,0.3,0.7,0.5,0.9,0.8s0.5,0.6,0.8,0.9
				c0.2,0.3-0.2,1.1,0,1.4s0.9,0.4,1.1,0.7c0.2,0.3,0.3,0.7,0.5,1.1c0.2,0.3,0.8,0.5,1,0.8s-0.1,1,0.1,1.3c0.2,0.3,0.3,0.7,0.5,1.1
				c0.2,0.3,0.1,0.8,0.3,1.2c0.2,0.3,0.7,0.5,0.9,0.8s0.3,0.7,0.4,1.1c0.2,0.4,1,0.4,1.2,0.8c0.2,0.4,0.1,0.8,0.3,1.2
				s0.1,0.8,0.3,1.2s-0.2,0.9,0,1.3c0.2,0.4,0.3,0.7,0.5,1.1c0.2,0.4,0.5,0.7,0.7,1s1,0.4,1.2,0.7s-0.2,1,0,1.3s0.2,0.8,0.4,1.1
				s0.1,0.8,0.3,1.1c0.2,0.4,0.6,0.6,0.7,0.9c0.2,0.4,0.9,0.5,1.1,0.8c0.2,0.4,0.2,0.8,0.4,1.1c0.2,0.4,0.6,0.6,0.7,1
				c0.2,0.4,0.1,0.9,0.2,1.2c0.2,0.4,0,0.9,0.1,1.2c0.2,0.4,1.3,0.3,1.4,0.7c0.1,0.4-0.3,0.9-0.2,1.3c0.1,0.4-0.1,0.8,0,1.2
				s1.5,0.5,1.5,0.9c0.1,0.4-0.3,0.9-0.2,1.2c0.1,0.4-0.3,0.9-0.2,1.3s0.5,0.7,0.7,1c0.1,0.4,0,0.8,0.2,1.2c0.1,0.4,0.9,0.5,1,0.9
				c0.2,0.4-0.8,1.2-0.6,1.6s0.5,0.6,0.7,1c0.1,0.4,0.3,0.7,0.5,1.1c0.1,0.4-0.2,0.9-0.1,1.2c0.1,0.4,0.2,0.8,0.3,1.1
				c0.1,0.4,0.7,0.6,0.8,1s0.8,0.6,0.9,1c0.1,0.4,0.4,0.7,0.5,1.1s-0.5,1-0.4,1.3c0.1,0.4,0,0.8,0.1,1.2c0.1,0.4,0.8,0.6,0.9,1
				c0.1,0.4-0.2,0.9-0.2,1.3c0.1,0.4,0.2,0.8,0.3,1.1c0.1,0.4,0.6,0.7,0.7,1c0.1,0.4-0.6,1-0.5,1.3c0.1,0.4,0.9,0.6,0.9,1
				c0.1,0.4,0.2,0.8,0.3,1.1c0.1,0.4,0,0.8,0.1,1.2c0.1,0.4-0.3,0.9-0.2,1.2c0.1,0.4,0.4,0.7,0.5,1.1s0,0.8,0.1,1.2
				c0.1,0.4,0.6,0.7,0.7,1.1c0.1,0.4,0.6,0.6,0.7,1c0.1,0.4,0.1,0.8,0.2,1.2c0.1,0.4-0.6,1-0.5,1.4s0.4,0.7,0.5,1.1s0.6,0.7,0.7,1
				c0.1,0.4,0,0.8,0.1,1.2c0.1,0.4,0.1,0.8,0.1,1.2c0,0.4,0.2,0.8,0.2,1.2c0,0.4,0.4,0.8,0.5,1.2c0,0.4-0.8,0.8-0.8,1.2
				c0,0.4,0.4,0.8,0.5,1.2c0,0.4,0.2,0.8,0.2,1.2c0.1,0.4-0.2,0.8-0.1,1.2c0,0.4,0.4,0.8,0.4,1.2c0,0.4-0.6,0.8-0.6,1.2
				c0,0.4,0.5,0.8,0.5,1.2c0,0.4,0.4,0.8,0.5,1.1c0,0.4,0.1,0.8,0.1,1.2c0,0.4-0.2,0.8-0.2,1.2c0,0.4,0.1,0.8,0.1,1.2
				c0,0.4,0.2,0.8,0.3,1.2c0,0.4-0.3,0.8-0.3,1.2c0,0.4-0.2,0.8-0.1,1.2s0.2,0.8,0.3,1.2c0,0.4-0.3,0.8-0.2,1.2
				c0,0.4,0.9,0.7,0.9,1.1s-0.3,0.8-0.2,1.2c0,0.4,0.4,0.7,0.5,1.1c0,0.4,0.1,0.8,0.1,1.2c0,0.4,0.5,0.7,0.5,1.1s-0.7,0.9-0.7,1.3
				s0.5,0.7,0.6,1.1c0.1,0.4-0.3,0.9-0.3,1.2c0.1,0.4,1,0.6,1,1c0.1,0.4-0.1,0.8-0.1,1.2s-0.6,0.8-0.6,1.2s0,0.8,0.1,1.2
				c0,0.4,0.5,0.7,0.6,1.1c0,0.4,0.6,0.7,0.6,1.1c0,0.4-0.8,0.9-0.7,1.3c0,0.4,0.4,0.8,0.4,1.1c0,0.4,0,0.8,0.1,1.2
				c0,0.4,0.6,0.8,0.6,1.2s-0.3,0.8-0.3,1.2s-0.5,0.8-0.5,1.2s0.4,0.8,0.4,1.2s0,0.8,0,1.2s0.3,0.8,0.3,1.2s-0.3,0.8-0.3,1.2
				s0.3,0.8,0.3,1.2s-1.2,0.8-1.2,1.2s1.1,0.8,1.1,1.2s-0.2,0.8-0.2,1.2s0.3,0.8,0.3,1.2s-0.5,0.8-0.5,1.2s-0.2,0.8-0.2,1.2
				s0.3,0.8,0.3,1.2s-0.8,0.8-0.8,1.2s0.4,0.8,0.4,1.2s0.5,0.8,0.5,1.2s-0.2,0.8-0.2,1.2c-0.1,0.4-1.1,0.6-1.2,1
				c-0.1,0.4,0.9,1,0.8,1.4c-0.1,0.4-0.7,0.7-0.7,1.1c-0.1,0.4,0.4,0.9,0.4,1.3c-0.1,0.4-1,0.7-1,1.1c0,0.4,0.4,0.8,0.3,1.2
				c0,0.4,0.1,0.8,0.1,1.2s-0.5,0.8-0.5,1.2s-0.1,0.8-0.1,1.2s0.7,0.8,0.7,1.2s-0.4,0.8-0.5,1.2c0,0.4,0,0.8,0,1.2s0.1,0.8,0,1.2
				c0,0.4-0.5,0.8-0.5,1.2s-0.3,0.8-0.4,1.2c0,0.4,0.2,0.8,0.2,1.2s0.2,0.8,0.1,1.2c-0.1,0.4,0.1,0.8,0.1,1.2s-0.2,0.8-0.2,1.2
				s0,0.8,0,1.2s-0.5,0.8-0.6,1.2c0,0.4,0.4,0.8,0.3,1.2c0,0.4-0.3,0.8-0.3,1.2c-0.1,0.4,0,0.8-0.1,1.2s-0.5,0.7-0.6,1.1
				c-0.1,0.4,0.1,0.8,0.1,1.2c-0.1,0.4-0.1,0.8-0.2,1.2c-0.1,0.4-0.1,0.8-0.2,1.2s-0.2,0.8-0.3,1.2s0.6,1,0.5,1.4s-0.9,0.6-1.1,1
				c-0.1,0.4-0.8,0.6-1,1c-0.1,0.4,0.6,1,0.4,1.4c-0.1,0.4-0.6,0.6-0.7,1c-0.1,0.4,0.1,0.9,0.1,1.2c-0.1,0.4,0,0.8-0.1,1.2
				s-0.6,0.7-0.7,1.1c-0.1,0.4,0.1,0.9,0.1,1.2c-0.1,0.4,0,0.8-0.1,1.2s-0.2,0.8-0.3,1.2s0.1,0.8,0,1.2s-1.1,0.6-1.2,1
				c-0.1,0.4-0.3,0.8-0.4,1.2c-0.1,0.4,0.2,0.8,0.1,1.2c-0.1,0.4,0.2,0.9,0.1,1.2c-0.1,0.4-0.3,0.8-0.4,1.1
				c-0.1,0.4,0.3,0.9,0.2,1.3c-0.1,0.4-0.2,0.8-0.3,1.2s-0.4,0.7-0.4,1.1c-0.1,0.4-0.2,0.8-0.3,1.2s0.1,0.8,0,1.2s-0.1,0.8-0.2,1.2
				c-0.1,0.4-1.2,0.5-1.3,0.9s1,1.2,0.8,1.5c-0.1,0.4-1,0.5-1.2,0.8c-0.2,0.4-0.5,0.6-0.7,1s-0.1,0.8-0.2,1.2
				c-0.2,0.4-0.5,0.7-0.6,1.1c-0.1,0.4,0.1,0.9-0.1,1.2c-0.1,0.4-0.3,0.7-0.4,1.1c-0.1,0.4-0.2,0.8-0.3,1.2s-0.5,0.7-0.5,1.1
				c-0.1,0.4,0.6,0.9,0.5,1.3c-0.1,0.4-0.8,0.7-0.8,1.1c-0.1,0.4-0.1,0.8-0.3,1.2c-0.1,0.4-0.5,0.7-0.6,1.1c-0.1,0.4,0.1,0.9,0,1.3
				c-0.1,0.4-0.8,0.6-0.9,1c-0.1,0.4,0.4,0.9,0.3,1.3c-0.1,0.4-0.2,0.8-0.3,1.1c-0.1,0.4-0.7,0.6-0.9,1c-0.1,0.4,0.2,0.9,0.1,1.3
				c-0.1,0.4-0.9,0.6-1,0.9c-0.1,0.4,0.6,1.1,0.5,1.4c-0.1,0.4-0.7,0.6-0.9,1c-0.1,0.4,0.2,0.9,0.1,1.3c-0.1,0.4-0.5,0.7-0.6,1
				c-0.1,0.4-0.2,0.8-0.4,1.1c-0.2,0.4-0.3,0.7-0.5,1.1s0.1,0.9-0.1,1.3c-0.2,0.4-0.4,0.7-0.6,1c-0.2,0.4-1.2,0.3-1.4,0.7
				c-0.2,0.4,0.3,1,0.1,1.3c-0.1,0.4-0.5,0.7-0.6,1.1s0.3,0.9,0.2,1.3s-1,0.5-1.2,0.9c-0.1,0.4,0.2,0.9,0,1.3
				c-0.1,0.4-0.9,0.5-1,0.9s-0.1,0.8-0.2,1.1c-0.2,0.4-0.3,0.8-0.5,1.1c-0.2,0.4-0.4,0.8-0.5,1.2c-0.2,0.4-0.2,0.9-0.3,1.2
				c-0.2,0.4-0.1,0.8-0.3,1.3c-0.2,0.3-0.7,0.5-0.9,0.9c-0.2,0.3-0.4,0.7-0.6,1.1c-0.2,0.4,0.1,1.1,0,1.4c-0.2,0.4-0.9,0.6-1,0.9
				c-0.2,0.4-0.2,0.9-0.4,1.2c-0.2,0.4-0.5,0.6-0.7,1.1c-0.2,0.3-0.3,0.7-0.5,1.2c-0.2,0.3-0.6,0.6-0.8,1s-0.2,0.9-0.4,1.2
				c-0.2,0.4-0.1,1-0.3,1.3c-0.3,0.4-0.2,0.9-0.5,1.2c-0.2,0.3-0.8,0.4-1,0.8c-0.2,0.3-0.6,0.6-0.8,1c-0.2,0.3-0.5,0.6-0.8,1
				c-0.2,0.4-0.6,0.7-0.8,1c-0.2,0.4-0.5,0.8-0.7,1.1c-0.2,0.4,0,1.1-0.2,1.4s-0.8,0.4-1,0.8c-0.2,0.3-0.1,0.8-0.4,1.3
				c-0.2,0.3-0.5,0.6-0.8,1c-0.2,0.3-0.4,0.7-0.6,1c-0.2,0.3-0.7,0.5-0.9,0.8s0.4,1.2,0.2,1.5s-0.4,0.6-0.7,1
				c-0.2,0.3-0.7,0.5-0.9,0.8s-1.2,0.1-1.4,0.4s-0.1,0.8-0.4,1.2c-0.2,0.3-0.1,0.9-0.3,1.2c-0.2,0.3-0.6,0.5-0.8,0.9
				c-0.2,0.3-0.8,0.4-1,0.7c-0.2,0.3,0.1,1-0.1,1.3c-0.2,0.3-0.4,0.7-0.6,1c-0.2,0.3-1.2,0-1.5,0.3s-0.4,0.6-0.7,0.9
				s-0.2,0.9-0.5,1.2c-0.3,0.3-0.7,0.4-1,0.6s-0.5,0.7-0.8,0.9c-0.3,0.2-0.9,0-1.2,0.3c-0.3,0.2-0.2,1-0.5,1.3
				c-0.3,0.2-0.9,0-1.2,0.2s-0.9-0.1-1.3,0.1c-0.3,0.2-0.3,1.1-0.6,1.2c-0.3,0.2-0.6,0.5-0.9,0.7c-0.3,0.2-0.7,0.3-1,0.5
				s-0.8,0.2-1.1,0.4c-0.3,0.2-0.9,0-1.2,0.1c-0.3,0.2-0.6,0.6-0.9,0.8c-0.3,0.2-0.6,0.5-1,0.6c-0.3,0.1-0.8,0.1-1.1,0.2
				s-0.7,0.2-1.1,0.3c-0.3,0.1-0.8,0.1-1.1,0.3c-0.3,0.1-0.6,0.4-1,0.5c-0.3,0.1-0.6,0.4-1,0.6c-0.4,0.1-0.7,0.3-1,0.4
				c-0.4,0.1-0.7,0.2-1.1,0.4c-0.4,0.1-0.6,0.5-1,0.6s-0.8,0-1.2,0.1s-0.7,0.5-1,0.6c-0.4,0.1-0.9-0.8-1.3-0.7
				c-0.4,0.1-0.6,0.8-1,0.8c-0.4,0.1-0.7,0.1-1.1,0.2c-0.4,0.1-0.8-0.2-1.2-0.1s-0.6,0.6-1,0.7s-0.6,0.5-1,0.6s-0.6,0.5-1,0.7
				c-0.4,0.1-0.8,0-1.2,0.1s-0.7,0.5-1,0.6c-0.4,0.1-0.9-0.4-1.3-0.3c-0.4,0.1-0.7,0.3-1.1,0.4c-0.4,0-0.8-0.3-1.2-0.3
				s-0.7,0.1-1.1,0.1c-0.4,0-0.7,0.3-1.1,0.3c-0.4,0-0.8-0.1-1.1-0.1c-0.4,0-0.7-0.2-1.1-0.2c-0.4,0-0.8,0.8-1.2,0.8
				s-0.7-0.7-1.1-0.8c-0.4,0-0.8,0.2-1.2,0.1s-0.6-0.7-1-0.7c-0.4-0.1-0.8,0-1.1-0.1c-0.4-0.1-0.6-0.6-0.9-0.7
				c-0.4-0.1-0.8,0.2-1.2,0c-0.4-0.1-0.8-0.1-1.1-0.2c-0.3-0.2-0.5-0.8-0.8-0.9c-0.3-0.2-0.9,0.1-1.2-0.1c-0.3-0.2-0.9,0.1-1.3-0.1
				c-0.3-0.2-0.6-0.5-0.9-0.7s-0.4-0.8-0.7-1c-0.3-0.2-0.7-0.4-1-0.6s-0.3-0.8-0.7-1.1c-0.3-0.2-1.2,0.3-1.5,0
				c-0.3-0.2-0.7-0.5-0.9-0.7c-0.3-0.3-0.1-1-0.3-1.3c-0.3-0.3-0.7-0.4-0.9-0.7c-0.2-0.3-0.3-0.8-0.5-1.1c-0.2-0.3-0.9-0.3-1.1-0.6
				c-0.2-0.3,0.1-1-0.1-1.3s-0.7-0.5-0.9-0.8c-0.2-0.3,0.2-1,0.1-1.3c-0.2-0.3-1-0.4-1.1-0.7c-0.2-0.3,0.3-1,0.2-1.3
				c-0.1-0.3-0.6-0.6-0.8-0.9c-0.1-0.4-0.4-0.7-0.5-1.1s0.2-0.8,0.1-1.2c-0.1-0.4-0.7-0.7-0.7-1c0-0.4,0.2-0.8,0.1-1.2
				c-0.1-0.4,0.2-0.8,0.2-1.2c-0.1-0.4-0.6-0.7-0.7-1.1c0-0.4,0.7-0.8,0.6-1.2c0-0.4-0.3-0.7-0.3-1.1s0.3-0.7,0.3-1.1
				c0.1-0.4-0.1-0.8,0-1.2c0.1-0.4-0.5-0.9-0.4-1.3s0.4-0.7,0.5-1.1s0.1-0.8,0.2-1.2c0.1-0.4,0.1-0.8,0.3-1.2
				c0.1-0.4,1.3-0.4,1.4-0.7c0.1-0.4-0.1-0.8,0.1-1.2c0.2-0.4,0.3-0.7,0.5-1s0.4-0.7,0.6-1s0.4-0.7,0.6-1s0-0.9,0.2-1.2
				c0.2-0.3,0.1-0.8,0.3-1.2c0.2-0.3,0.5-0.6,0.6-1c0.2-0.3,0.8-0.5,0.9-0.8c0.2-0.3,0.2-0.8,0.4-1.1c0.2-0.3,0.2-0.8,0.4-1.1
				c0.2-0.3,0.3-0.7,0.5-1.1c0.2-0.3,0.4-0.7,0.6-1s0.5-0.6,0.7-0.9s0.4-0.7,0.6-1s0.8-0.4,1-0.8c0.2-0.3,0-0.9,0.2-1.2
				c0.2-0.3,0.4-0.7,0.6-1s0.7-0.5,0.9-0.8c0.2-0.3-0.1-1,0.2-1.3c0.2-0.3,0.3-0.8,0.5-1.1c0.2-0.3,0.8-0.3,1.1-0.6
				c0.2-0.3,0.3-0.8,0.5-1.1c0.2-0.3,1.2-0.1,1.5-0.4c0.2-0.3,0-0.9,0.2-1.3c0.2-0.3-0.2-1,0-1.3s0.7-0.5,0.8-0.9
				c0.2-0.4,0-0.8,0.2-1.2c0.1-0.4,0.9-0.5,1.1-0.8c0.2-0.4,0-0.9,0.1-1.2c0.2-0.4,1.2-0.2,1.4-0.5s0.1-0.8,0.3-1.2
				c0.2-0.3,0.2-0.8,0.4-1.1c0.2-0.3,0.2-0.8,0.4-1.1s0.9-0.3,1.1-0.7c0.2-0.3-0.5-1.2-0.3-1.5C105.5,252.4,106.1,252.3,106.3,252z"
				/>
		</g>
		<g>
			<path d="M161.6,43.7c-0.1-0.4,0.2-0.8,0.1-1.2c-0.1-0.4-0.5-0.7-0.6-1c-0.1-0.4-0.1-0.7-0.2-1.1s0.1-0.8,0-1.1
				c-0.1-0.4-0.3-0.7-0.4-1.1c-0.1-0.4-0.2-0.7-0.3-1.1c-0.1-0.4-0.4-0.7-0.5-1c-0.1-0.4-0.1-0.8-0.2-1.1c-0.1-0.4-0.4-0.7-0.5-1.1
				c-0.1-0.4,0-0.8,0-1.2c-0.1-0.4-0.2-0.7-0.3-1.1s0.1-0.9,0-1.2c-0.2-0.3-0.7-0.5-0.9-0.8s-0.2-0.7-0.4-1.1
				c-0.2-0.3-0.4-0.6-0.6-1c-0.2-0.3-0.3-0.7-0.5-1s-0.3-0.7-0.5-1s-0.8-0.3-1-0.6c-0.3-0.3-0.6-0.5-0.8-0.8
				c-0.3-0.3-0.5-0.6-0.7-0.9s-0.4-0.7-0.6-0.9c-0.2-0.3-0.4-0.7-0.6-1c-0.2-0.3-0.6-0.5-0.8-0.8c-0.3-0.3-0.5-0.5-0.8-0.8
				s-0.8-0.4-1.1-0.7c-0.3-0.3-0.6-0.6-1-0.9s-0.7-0.6-1-0.8c-0.4-0.2-0.7-0.6-1.1-0.8c-0.4-0.2-0.9-0.2-1.3-0.4
				c-0.4-0.2-0.7-0.5-1.1-0.7c-0.4-0.2-0.8-0.5-1.2-0.6c-0.4-0.2-0.9-0.2-1.3-0.3c-0.4-0.1-0.8-0.1-1.3-0.1c-0.4,0-0.9-0.4-1.3-0.4
				c-0.4,0-0.9,0.1-1.3,0.1c-0.4,0-0.9,0.1-1.3,0.1c-0.4,0-0.9,0-1.3,0c-0.4,0-0.9,0.1-1.3,0.1c-0.4,0-0.8,0.2-1.3,0.2
				c-0.4,0.1-0.8,0.2-1.3,0.3c-0.4,0.1-0.9-0.2-1.3-0.1c-0.4,0.1-0.7,0.4-1.1,0.5c-0.4,0.1-0.7,0.4-1.1,0.6c-0.4,0.1-0.9,0-1.2,0.2
				c-0.4,0.2-0.7,0.5-1,0.6c-0.4,0.2-0.7,0.4-1,0.6c-0.4,0.2-0.7,0.4-1,0.6s-0.9,0.1-1.2,0.3c-0.3,0.2-0.6,0.7-0.9,0.8
				c-0.4,0.2-0.7,0.4-1.1,0.6c-0.4,0.2-0.8,0.3-1.1,0.5c-0.4,0.2-0.7,0.4-1,0.7c-0.3,0.3-0.5,0.6-0.7,0.9s-0.8,0.5-1,0.8
				s-0.3,0.8-0.5,1.1c-0.2,0.3-0.4,0.8-0.7,1c-0.3,0.3-0.7,0.3-1,0.5s-0.4,0.7-0.7,0.9c-0.3,0.2-0.7,0.2-1,0.5
				c-0.3,0.2-0.7,0.3-1,0.6c-0.3,0.2-0.4,0.6-0.7,0.9c-0.2,0.3-0.4,0.6-0.7,0.9c-0.2,0.3-0.6,0.5-0.8,0.7c-0.2,0.3-0.3,0.7-0.5,1
				s-0.8,0.3-1,0.6c-0.2,0.3-0.4,0.6-0.6,0.9c-0.2,0.3-0.2,0.8-0.4,1.1s-0.7,0.4-0.9,0.8c-0.2,0.3,0,0.8-0.2,1.2
				c-0.2,0.3-0.6,0.5-0.8,0.8s-0.1,0.8-0.3,1.1s-0.8,0.3-1,0.6s-0.3,0.7-0.5,1s-0.7,0.4-0.9,0.7s-0.1,0.9-0.3,1.2
				c-0.2,0.3-0.6,0.5-0.8,0.8c-0.2,0.3-0.5,0.6-0.6,0.9c-0.2,0.3,0,0.8-0.1,1.2c-0.2,0.3-0.6,0.5-0.8,0.8c-0.2,0.3-0.3,0.7-0.5,1
				s-0.5,0.5-0.8,0.8c-0.2,0.3-0.6,0.5-0.8,0.8c-0.2,0.3-0.5,0.6-0.6,0.9c-0.2,0.3-0.3,0.7-0.5,1c-0.1,0.3-0.2,0.7-0.3,1.1
				c-0.1,0.3-0.1,0.8-0.2,1.1s-0.6,0.6-0.8,0.9c-0.2,0.3-0.1,0.7-0.3,1.1c-0.1,0.3,0,0.8-0.2,1.1c-0.1,0.3-0.6,0.5-0.8,0.9
				s0,0.8-0.1,1.1s-0.5,0.6-0.7,0.9c-0.2,0.3-0.1,0.8-0.3,1.1c-0.2,0.3-0.5,0.6-0.7,0.9c-0.1,0.3-0.4,0.7-0.5,1s-0.1,0.8-0.1,1.1
				c-0.1,0.4,0.2,0.8,0.1,1.1c-0.1,0.4-0.3,0.7-0.3,1.1c-0.1,0.4-0.4,0.6-0.5,1s0.2,0.8,0.1,1.1c-0.1,0.4-0.2,0.7-0.2,1.1
				c-0.1,0.4-0.1,0.7-0.2,1.1s-0.3,0.7-0.4,1c-0.1,0.4-0.3,0.7-0.4,1c-0.1,0.4-0.2,0.7-0.2,1.1c-0.1,0.4,0,0.7-0.1,1.1
				s0.1,0.7,0,1.1s-0.3,0.7-0.4,1c-0.1,0.4,0.1,0.7,0,1.1s0,0.7,0,1.1s-0.3,0.7-0.4,1c-0.1,0.4-0.3,0.7-0.4,1
				c-0.1,0.4-0.2,0.7-0.3,1c-0.1,0.3-0.1,0.7-0.2,1.1s0,0.7,0,1.1c-0.1,0.4-0.3,0.9-0.4,1.3c0,0.4-0.1,0.9-0.2,1.3
				c0,0.4,0.1,0.9,0.1,1.3s0.2,0.9,0.2,1.3s-0.2,0.9-0.1,1.3s0.2,0.9,0.3,1.3c0.1,0.4,0.2,0.9,0.3,1.3c0.1,0.4,0.1,0.9,0.2,1.3
				c0.1,0.6,0.3,1.2,0.7,1.3c0.4,0.1,0.9-0.1,1.5-0.4c0.5-0.2,1-0.3,1.5-0.5c0.3-0.2,0.8-1,1.1-0.7c0.3,0.3-0.3,0.9-0.5,1.2
				c-0.3,0.5-0.2,1.2-0.5,1.6c-0.2,0.3-0.6,0.5-0.8,0.9c-0.2,0.3-0.3,0.7-0.5,1.1s-0.6,0.6-0.8,0.9c-0.2,0.4-0.1,0.9-0.3,1.2
				c-0.2,0.3-0.5,0.7-0.8,1s-0.7,0.4-1.1,0.7c-0.3,0.3-0.7,0.4-1,0.7c-0.3,0.3-0.3,0.8-0.5,1.1c-0.2,0.3-0.6,0.6-0.8,1
				c-0.2,0.4-0.1,0.8-0.3,1.2c-0.1,0.4-0.3,0.7-0.5,1.1s-0.5,0.6-0.7,1c-0.2,0.3-0.2,0.8-0.4,1.1c-0.3,0.3-0.6,0.5-0.9,0.7
				c-0.3,0.3-0.7,0.4-0.9,0.7c-0.3,0.3-0.5,0.6-0.7,1c-0.2,0.3-0.3,0.7-0.5,1s-0.5,0.6-0.7,0.9s-0.4,0.7-0.6,1s-0.1,0.8-0.3,1.1
				c-0.2,0.3-0.5,0.6-0.7,0.9s-0.1,0.8-0.3,1.1c-0.2,0.3-0.7,0.5-0.9,0.8c-0.2,0.3-0.1,0.8-0.3,1.1c-0.2,0.3-0.2,0.8-0.4,1.1
				c-0.2,0.3-0.6,0.5-0.8,0.9c-0.2,0.3-0.3,0.7-0.5,1s-0.4,0.6-0.6,1c-0.2,0.3-0.4,0.6-0.6,1c-0.2,0.3-0.3,0.7-0.4,1.1
				c-0.1,0.3-0.3,0.7-0.4,1.1c-0.1,0.3-0.4,0.6-0.6,1c-0.2,0.3-0.3,0.7-0.5,1.1c-0.1,0.4,0.1,0.8,0,1.2c-0.1,0.4-0.3,0.7-0.4,1.1
				s-0.6,0.6-0.8,0.9c-0.2,0.3-0.1,0.8-0.3,1.1c-0.2,0.3-0.4,0.6-0.6,1c-0.2,0.3-0.1,0.8-0.3,1.1s-0.2,0.7-0.4,1.1
				c-0.2,0.3-0.5,0.6-0.7,0.9c-0.2,0.3-0.4,0.7-0.6,1s-0.4,0.6-0.6,1c-0.2,0.3-0.2,0.7-0.4,1.1c-0.2,0.4-0.7,0.6-0.8,1
				c-0.1,0.4-0.1,0.8-0.2,1.2s-0.1,0.8-0.2,1.2s-0.5,0.7-0.6,1.1c-0.2,0.4,0.1,1,0,1.3c-0.2,0.4-0.4,0.7-0.6,1.1
				c-0.2,0.4-0.5,0.7-0.7,1.1c-0.2,0.4-0.2,0.8-0.4,1.2c-0.1,0.4-0.5,0.7-0.6,1.1c-0.1,0.4,0,0.9-0.1,1.3c-0.1,0.4-0.3,0.8-0.4,1.2
				s-0.2,0.8-0.3,1.2c-0.1,0.4-0.1,0.8-0.2,1.2s-0.1,0.8-0.3,1.2c-0.1,0.4-0.5,0.7-0.6,1.1c-0.1,0.4-0.2,0.8-0.3,1.2
				c-0.1,0.4,0,0.9-0.1,1.3c-0.1,0.4-0.5,0.7-0.6,1.1c-0.1,0.4,0,0.9-0.1,1.3c-0.1,0.4-0.3,0.8-0.4,1.2s0,0.8-0.1,1.2
				c0,0.4-0.4,0.8-0.4,1.2s0.2,0.8,0.1,1.3c0,0.4-0.3,0.8-0.4,1.2c-0.1,0.6,0,1,0,1.4c0,0.5,0.1,0.9,0.8,1c0.4,0.1,0.8,0.2,1.1,0.2
				c0.4,0,0.7,0,1.1,0s0.7,0,1.1,0s0.7,0.1,1.1,0.1c0.4,0.1,0.7,0.1,1.1,0.2c0.4,0.1,0.8,0,1.1,0.2c0.3,0.1,0.7,0.4,1,0.5
				s0.7,0.3,1.1,0.3c0.4,0.1,0.8,0,1.1,0.1c0.4,0,0.7-0.1,1.1,0c0.4,0,0.7,0.4,1.1,0.4s0.7,0,1.1,0.1s0.9,0,1.2,0.2
				c0.4,0.2,0.7,0.5,1,0.7c0.4,0.2,0.6,0.5,0.8,0.8c0.2,0.3,0.4,0.6,0.5,1c0.1,0.3,0.4,0.6,0.5,1.1c0.1,0.4,0.1,0.7,0.2,1.2
				c0.1,0.4,0,0.8,0,1.3c0,0.4-0.1,0.8-0.1,1.3c0,0.4,0.1,0.9,0.1,1.3c0,0.4,0.1,0.8,0.2,1.3c0,0.4,0.4,0.8,0.5,1.2s-0.1,0.9,0,1.3
				c0.1,0.5,0,1,0.2,1.1s0.4-0.4,0.9-0.6c0.4-0.2,0.9,0,1.4-0.1c0.4-0.1,0.8-0.2,1.2-0.3c0.4-0.1,0.8-0.4,1.2-0.5
				c0.4-0.1,0.9,0.3,1.3,0.2s0.8-0.3,1.2-0.3c0.4-0.1,0.8-0.3,1.2-0.4c0.4-0.1,0.9,0,1.3,0s0.8,0.1,1.3,0.1c0.4,0,0.9-0.1,1.3,0
				s0.9,0.2,1.3,0.3s0.7,0.5,1.1,0.7c0.4,0.1,0.8,0.4,1.2,0.5c0.4,0.1,0.9,0.1,1.3,0.2c0.4,0.1,0.8,0.3,1.2,0.4
				c0.4,0.1,0.9,0.1,1.3,0.3c0.4,0.1,0.8,0.3,1.2,0.5c0.3,0.2,0.5,0.7,0.9,0.9c0.3,0.2,0.9,0,1.2,0.2c0.3,0.2,0.6,0.5,0.9,0.8
				c0.3,0.2,0.6,0.6,0.9,0.8c0.3,0.2,0.5,0.6,0.8,0.9c0.3,0.3,0.8,0.2,1.1,0.5s0.3,0.8,0.6,1.1s0.5,0.5,0.8,0.8s0.8,0.3,1.1,0.6
				s0.5,0.6,0.7,0.9c0.3,0.3,0.4,0.7,0.6,1c0.3,0.3,0.6,0.5,0.9,0.8c0.2,0.3,0.2,0.8,0.4,1.1s0.6,0.6,0.8,0.9
				c0.2,0.4,0.2,0.8,0.4,1.1c0.2,0.4,0.4,0.6,0.6,1c0.2,0.3,0.1,0.9,0.3,1.2s0.6,0.5,0.8,0.8s0.5,0.6,0.7,0.9c0.2,0.3,0.4,0.7,0.6,1
				c0.2,0.4,0.3,0.7,0.5,1.1c0.2,0.4,0.3,0.7,0.4,1.1c0.1,0.4-0.1,0.9,0,1.2c0.1,0.4,0.6,0.6,0.7,1c0.1,0.4,0,0.8,0,1.2
				c0.1,0.4,0.5,0.7,0.5,1.1c0.1,0.4-0.3,0.8-0.3,1.2s0.2,0.8,0.2,1.1c0,0.4,0.2,0.8,0.2,1.1c-0.1,0.4-0.5,0.5-0.8,0.7
				s-0.5,0.3-0.9,0.3c-0.3,0-0.6-0.1-1-0.2c-0.4-0.1-0.8-0.1-1.2-0.2c-0.4-0.1-0.8,0-1.2-0.1s-0.8-0.2-1.2-0.3s-0.6-0.6-1-0.8
				c-0.4-0.1-0.7-0.3-1.1-0.4c-0.4-0.1-0.8-0.1-1.2-0.3c-0.4-0.1-0.8-0.2-1.1-0.3c-0.4-0.1-0.8-0.1-1.2-0.2
				c-0.4-0.1-0.7-0.3-1.1-0.4c-0.4-0.1-0.8-0.2-1.2-0.3c-0.4-0.1-0.8-0.1-1.2-0.2c-0.4-0.1-0.7-0.3-1.1-0.4
				c-0.4-0.1-0.9,0.2-1.2,0.1c-0.4-0.1-0.7-0.4-1.1-0.5s-0.8-0.1-1.2-0.2c-0.4-0.1-0.7-0.5-1-0.6c-0.4-0.1-0.9,0.2-1.2,0.1
				c-0.4-0.1-0.7-0.5-1-0.6c-0.4-0.1-0.8-0.2-1.1-0.3c-0.4-0.1-0.7-0.3-1.1-0.4c-0.4-0.1-0.7-0.2-1.1-0.3s-0.8-0.1-1.2-0.3
				c-0.4-0.1-0.8,0-1.2-0.1c-0.4-0.1-0.8-0.2-1.1-0.2c-0.5-0.1-0.9-0.1-1.2,0c-0.4,0.2-0.4,0.5-0.5,1c0,0.3-0.4,0.8-0.2,1.3
				c0.1,0.4,0.3,0.8,0.4,1.2c0.2,0.4,0.7,0.6,0.9,1c0.2,0.4,0.2,0.9,0.3,1.2c0.2,0.4,0.3,0.8,0.5,1.2c0.1,0.4,0,0.9,0.1,1.3
				c0.1,0.4,0.2,0.8,0.3,1.2c0.1,0.4,0.7,0.7,0.8,1.1c0.1,0.4,0,0.9,0.1,1.3c0.1,0.4,0.4,0.8,0.5,1.2s0.3,0.8,0.4,1.2
				s0.1,0.8,0.3,1.2c0.1,0.4,0.2,0.8,0.3,1.2c0.1,0.4,0.3,0.8,0.5,1.2s0.3,0.8,0.4,1.2c0.2,0.4,0.3,0.8,0.5,1.2s0.5,0.7,0.6,1.1
				c0.1,0.4,0,0.9,0.1,1.3c0.1,0.4,0.5,0.8,0.6,1.2s0.1,0.8,0.3,1.2c0.1,0.4,0,0.9,0.1,1.3c0.1,0.4,0.2,0.8,0.3,1.2
				c0.1,0.4,0.2,0.8,0.3,1.2c0.1,0.4,0.4,0.8,0.5,1.2s0.4,0.8,0.5,1.2s0.2,0.8,0.3,1.2c0.2,0.4,0.1,0.9,0.3,1.3
				c0.2,0.4,0.4,0.8,0.5,1.2c0.2,0.4,0.3,0.8,0.4,1.2s0.1,0.8,0.2,1.3c0.1,0.4,0.3,0.8,0.4,1.2s0.1,0.8,0.2,1.3
				c0.1,0.4,0.1,0.8,0.2,1.3c0.1,0.3,0.1,0.7,0.2,1.1c0.1,0.3,0.3,0.7,0.3,1c0.1,0.4,0,0.7,0,1c-0.1,0.2,0.1,0.7-0.1,1
				s-0.6,0.1-0.9,0.2c-0.6,0.1-0.6-0.6-0.8-1.1c-0.1-0.2-0.5-0.3-0.7-0.5c-0.3-0.2-0.3-0.6-0.4-0.8c-0.1-0.4-0.6-0.8-0.6-1.2
				c-0.1-0.4-0.1-0.9-0.2-1.3c0-0.4,0.1-0.9,0-1.3c-0.1-0.4-0.3-0.8-0.4-1.2s0-0.9-0.2-1.3c-0.2-0.4-0.4-0.8-0.6-1.2s-0.6-0.6-0.8-1
				c-0.2-0.4-0.3-0.8-0.5-1.2c-0.1-0.4-0.2-0.8-0.4-1.2c-0.1-0.4-0.3-0.8-0.4-1.2s0.2-0.9,0.1-1.3c-0.1-0.4-0.3-0.8-0.5-1.2
				c-0.1-0.4-0.5-0.7-0.7-1.1c-0.2-0.4-0.4-0.8-0.6-1.1c-0.2-0.4-0.4-0.8-0.6-1.1c-0.2-0.4-0.6-0.7-0.7-1.1c-0.1-0.4,0.1-0.9,0-1.3
				c-0.1-0.4-0.1-0.8-0.1-1.3c0-0.4-0.2-0.9-0.3-1.3c-0.1-0.4,0-0.9-0.1-1.3c-0.1-0.4-0.7-0.7-0.9-1.1c-0.2-0.4-0.1-0.9-0.3-1.3
				c-0.2-0.4-0.5-0.7-0.7-1.1c-0.2-0.4-0.1-0.9-0.3-1.3c-0.1-0.4-0.1-0.9-0.2-1.3c-0.1-0.4-0.3-0.8-0.4-1.2s0.1-0.9,0-1.3
				c-0.1-0.4-0.1-0.9-0.3-1.3c-0.1-0.4-0.4-0.7-0.5-1c-0.1-0.4,0-0.8-0.1-1.2s-0.4-0.7-0.5-1.1c-0.1-0.4,0-0.8-0.1-1.2
				s-0.5-0.7-0.6-1c-0.2-0.4-0.3-0.7-0.4-1.1c-0.2-0.4-0.3-0.7-0.5-1.1c-0.1-0.4-0.2-0.7-0.2-1.1c-0.1-0.4,0-0.7,0-1.1
				c0-0.4,0.1-0.7,0.3-1c0.2-0.3,0.2-0.9,0.5-1c0.3-0.2,0.8,0.1,1.2,0c0.3,0,0.7-0.3,1.1-0.3c0.2,0,0.3,0.9,0.5,1
				c0.4,0,0.8-0.3,1.3-0.3c0.4,0,0.8,0.1,1.3,0.1c0.4,0,0.8-0.1,1.3-0.1c0.4,0,0.9-0.2,1.3-0.1c0.4,0.1,0.7,0.6,1.2,0.7
				c0.4,0.1,0.9,0,1.3,0.1s0.8,0.3,1.2,0.4c0.4,0.1,0.9-0.1,1.3,0s0.8,0.1,1.2,0.1c0.4,0.1,0.8,0.5,1.2,0.5c0.4,0.1,0.8,0,1.3,0.1
				c0.4,0.1,0.9,0,1.3,0.1s0.8,0.2,1.2,0.4c0.4,0.1,0.7,0.6,1.1,0.7c0.4,0.2,0.8,0.3,1.2,0.4c0.4,0.2,0.8,0.4,1.2,0.5
				c0.4,0.1,0.8,0.3,1.2,0.5s0.8,0.3,1.2,0.5s0.9,0.1,1.3,0.2c0.4,0.1,0.8,0.3,1.3,0.3c0.4,0.1,0.9,0.1,1.3,0.1
				c0.4,0.1,0.9,0.1,1.3,0.2c0.4,0.2,0.5,0.6,0.8,0.3c0.4-0.4,0.3-0.6,0.2-1s-0.2-0.8-0.4-1.2s-0.5-0.7-0.6-1.1
				c-0.1-0.4,0-0.9-0.1-1.3c-0.1-0.4-0.6-0.7-0.8-1c-0.1-0.4-0.1-0.8-0.2-1.2c-0.1-0.4-0.5-0.7-0.7-1c-0.2-0.4-0.1-0.8-0.4-1.2
				c-0.2-0.3-0.7-0.5-0.9-0.9c-0.2-0.3-0.3-0.8-0.5-1.1s-0.5-0.6-0.7-1c-0.2-0.3-0.5-0.6-0.7-1c-0.2-0.3-0.3-0.8-0.5-1.1
				s-0.6-0.6-0.8-0.9c-0.2-0.3-0.3-0.8-0.6-1.1s-0.5-0.6-0.8-0.9c-0.3-0.3-0.6-0.6-0.8-0.9c-0.3-0.3-0.7-0.5-0.9-0.8
				c-0.3-0.3-0.6-0.5-0.9-0.8s-0.5-0.7-0.8-1c-0.3-0.2-0.9-0.1-1.2-0.3c-0.4-0.2-0.5-0.8-0.8-1s-0.7-0.4-1.1-0.6
				c-0.4-0.2-0.7-0.4-1.1-0.5s-0.9,0.1-1.3,0c-0.5-0.2-0.7-0.7-1.2-0.9c-0.4-0.1-0.9-0.3-1.4-0.4c-0.4-0.1-1,0.2-1.4,0.1
				c-0.4,0-0.7-0.2-1.1-0.3s-0.7-0.3-1-0.3c-0.4-0.1-0.7-0.3-1-0.3c-0.4,0-0.7,0-1.1,0s-0.7,0-1.1,0.1c-0.4,0-0.7,0.4-1,0.5
				c-0.4,0.1-0.7,0.1-1,0.2c-0.4,0.1-0.7,0-1.1,0.1c-0.3,0.1-0.7,0.1-1.1,0.2c-0.3,0.1-0.5,0.6-0.9,0.7c-0.3,0.1-0.7,0.1-1,0.3
				c-0.3,0.1-0.8,0.1-1.1,0.3c-0.4,0.2-0.7,0.3-1,0.5c-0.4,0.2-0.7,0.6-1,0.7c-0.4,0.1-0.9-0.1-1.2-0.2c-0.3-0.1-0.6-0.5-0.8-0.9
				c-0.1-0.3-0.2-0.7-0.3-1.1c-0.1-0.3,0.1-0.7,0.1-1.1c0-0.2,0.3-0.5,0.3-0.8c-0.1-0.4-0.2-0.8-0.2-1.2s-0.4-0.8-0.4-1.2
				s0-0.8,0-1.3c0-0.4,0.4-0.9,0.3-1.3c-0.1-0.4-0.2-0.8-0.3-1.2c-0.1-0.4-0.4-0.8-0.4-1.2s-0.1-0.8-0.1-1.2
				c-0.1-0.4-0.1-0.9-0.6-1.1c-0.4-0.1-0.8-0.2-1.2-0.3c-0.4-0.1-0.8-0.1-1.2-0.2c-0.4-0.1-0.8-0.1-1.2-0.2
				c-0.4-0.1-0.8-0.3-1.2-0.4c-0.4-0.1-0.8-0.1-1.2-0.2c-0.4-0.1-0.8-0.1-1.2-0.2c-0.4-0.1-0.8,0-1.2-0.1c-0.4-0.1-0.8-0.1-1.2-0.2
				c-0.4-0.1-0.8-0.4-1.2-0.5c-0.4-0.1-0.7-0.5-1.1-0.7c-0.4-0.1-0.9,0-1.3-0.1S58,172,57.6,172c-0.3,0-0.7,0-1,0s-0.7-0.2-1-0.3
				s-0.6-0.2-1-0.4c-0.5-0.3-0.7-0.7-0.8-1.1c-0.1-0.4-0.3-0.9-0.2-1.5c0.1-0.4,0.3-0.8,0.3-1.2s0.2-0.8,0.2-1.2s-0.3-0.8-0.3-1.2
				s0.4-0.8,0.5-1.2s0.1-0.8,0.2-1.2s0.4-0.7,0.5-1.1c0.1-0.4,0.2-0.8,0.3-1.2c0.1-0.4,0.3-0.8,0.4-1.2s0.3-0.8,0.4-1.2
				s0-0.8,0.1-1.2s0-0.8,0.1-1.2s0.4-0.7,0.5-1.1c0.1-0.4,0.1-0.8,0.2-1.2s0.1-0.8,0.3-1.2c0.1-0.4,0.7-0.6,0.8-1
				c0.1-0.4,0-0.9,0.1-1.2c0.1-0.4,0.3-0.8,0.4-1.2s0.3-0.8,0.4-1.2s0.3-0.8,0.4-1.1c0.1-0.4,0-0.8,0.2-1.2c0.1-0.4,0.5-0.7,0.7-1
				c0.2-0.4,0.1-0.9,0.3-1.2c0.2-0.4,0.6-0.6,0.8-1c0.2-0.4,0.1-0.9,0.2-1.2c0.1-0.4,0.5-0.7,0.7-1c0.2-0.4,0.3-0.8,0.4-1.1
				c0.2-0.4,0.1-0.8,0.2-1.2c0.2-0.4,0.7-0.6,0.9-0.9c0.2-0.4,0-0.9,0.2-1.3c0.1-0.4,0.3-0.8,0.4-1.2s0.2-0.8,0.3-1.2
				c0.1-0.4,0-0.9,0.2-1.2c0.2-0.4,0.4-0.8,0.6-1.1s0.7-0.5,0.9-0.9c0.2-0.3,0.5-0.6,0.8-1c0.2-0.3,0.4-0.7,0.6-1.1s0-0.9,0.2-1.3
				s0.5-0.7,0.6-1.1c0.2-0.4,0.3-0.8,0.5-1.1c0.2-0.4,0.3-0.8,0.5-1.2c0.2-0.4,0.6-0.6,0.9-0.9c0.2-0.4,0.3-0.8,0.5-1.1
				c0.2-0.3,0.4-0.7,0.6-1.1c0.2-0.3,0.7-0.6,0.9-0.9c0.2-0.4,0.1-0.9,0.3-1.2c0.2-0.4,0.7-0.6,0.9-0.9c0.2-0.4,0.5-0.7,0.7-1
				c0.2-0.4,0.1-0.9,0.3-1.3c0.2-0.4,0.6-0.6,0.8-1c0.2-0.4,0.3-0.8,0.4-1.2c0.2-0.4,0.4-0.8,0.5-1.1c0.2-0.4,0.6-0.6,0.8-1
				c0.2-0.4,0.1-0.9,0.3-1.2c0.2-0.4,0.7-0.6,0.9-0.9c0.2-0.4,0.1-0.9,0.3-1.2c0.2-0.4,0.6-0.6,0.9-0.9c0.2-0.3,0.4-0.7,0.7-1.1
				c0.2-0.4,0.2-0.9,0.4-1.2c0.2-0.4,0.4-0.7,0.6-1.1s0.5-0.7,0.7-1s0.5-0.7,0.8-1s0.6-0.6,0.9-0.8c0.3-0.3,0.7-0.5,1-0.8
				s0.7-0.5,0.9-0.9c0.2-0.3,0.1-0.7,0.3-1c0.1-0.3,0.4-0.6,0.5-0.9c0-0.3,0.1-0.7,0.1-1.1c-0.1-0.4-0.6-0.8-0.7-1.2
				c-0.1-0.4,0.2-1,0.1-1.4s-0.3-0.8-0.4-1.2c-0.1-0.4-0.2-0.8-0.2-1.3c-0.1-0.4-0.3-0.9-0.3-1.3c-0.1-0.4,0-0.9-0.1-1.3
				s-0.2-0.9-0.2-1.3s0.1-0.9,0.1-1.3s-0.4-0.9-0.4-1.3s-0.1-0.9-0.1-1.3s0.2-0.9,0.2-1.3s0.1-0.9,0.1-1.3s-0.1-0.9,0-1.3
				s0.4-0.8,0.5-1.2c0.1-0.4,0.5-0.8,0.6-1.2c0.1-0.4,0-0.9,0.1-1.4c0.1-0.4,0.1-0.8,0.1-1.2c0.1-0.4,0-0.8,0-1.2
				c0.1-0.4,0.4-0.7,0.5-1.1s-0.1-0.8-0.1-1.2c0.1-0.4,0.2-0.8,0.3-1.1c0.1-0.4,0.4-0.7,0.4-1.1c0.1-0.4-0.2-0.8-0.1-1.2
				c0.1-0.4,0.5-0.7,0.6-1.1s0.3-0.8,0.3-1.2c0.1-0.4-0.3-0.8-0.2-1.2c0.1-0.4,0.4-0.7,0.5-1.1c0.1-0.4-0.2-0.9,0-1.2
				c0.1-0.4,0.3-0.7,0.4-1.1c0.1-0.4,0.6-0.6,0.7-1c0.2-0.4,0.4-0.7,0.5-1.1c0.2-0.4,0.1-0.8,0.3-1.2c0.1-0.4,0.6-0.6,0.7-1
				s0.3-0.7,0.4-1.1c0.1-0.4,0-0.8,0.1-1.2c0.2-0.4,0.5-0.7,0.6-1c0.2-0.4,0.4-0.7,0.5-1c0.2-0.3,0.2-0.8,0.3-1.1
				c0.2-0.3,0.7-0.5,0.9-0.9c0.2-0.3,0.4-0.7,0.5-1c0.2-0.3,0.2-0.8,0.5-1.1c0.2-0.3,0.6-0.6,0.8-0.9c0.3-0.3,0.4-0.7,0.6-1
				s0.6-0.5,0.8-0.9c0.2-0.3,0.4-0.7,0.6-1c0.2-0.4,0.3-0.7,0.5-1.1c0.2-0.4,0.5-0.6,0.6-1c0.2-0.3,0-0.9,0.2-1.2s0.6-0.5,0.9-0.9
				c0.2-0.3,0.7-0.5,0.9-0.8c0.3-0.3,0.1-0.9,0.4-1.2s0.6-0.5,0.9-0.8c0.2-0.3,0.4-0.7,0.7-1c0.2-0.3,0.5-0.6,0.7-1
				c0.2-0.3,0.3-0.8,0.5-1.1s0.7-0.5,1-0.8s0.3-0.8,0.5-1.1c0.3-0.3,0.8-0.4,1.1-0.7c0.3-0.3,0.3-0.8,0.5-1.1
				c0.3-0.3,0.8-0.3,1.1-0.6c0.3-0.3,0.4-0.7,0.6-1c0.3-0.3,0.6-0.6,0.8-0.9c0.3-0.3,0.7-0.4,1-0.7c0.3-0.3,0.5-0.6,0.8-0.9
				s0.5-0.6,0.8-0.9c0.3-0.2,0.6-0.5,0.9-0.8c0.3-0.2,0.8-0.3,1.1-0.5s0.6-0.6,0.9-0.9c0.3-0.2,0.4-0.6,0.7-0.8
				c0.3-0.2,0.7-0.3,1-0.5s0.4-0.7,0.6-0.9c0.3-0.2,0.6-0.4,0.9-0.6c0.3-0.2,0.7-0.2,1-0.4c0.3-0.2,0.5-0.5,0.8-0.7s0.5-0.6,0.8-0.8
				c0.3-0.2,0.8,0,1.1-0.2s0.4-0.7,0.7-0.9c0.3-0.2,0.6-0.4,0.9-0.6c0.3-0.2,0.6-0.3,0.9-0.5c0.3-0.2,0.6-0.4,0.9-0.6
				c0.3-0.1,0.5-0.5,0.9-0.7c0.3-0.2,0.7-0.3,1-0.4c0.3-0.2,0.7-0.1,1.1-0.3c0.3-0.1,0.7-0.1,1.1-0.2c0.4-0.1,0.7-0.4,1.1-0.5
				c0.4-0.1,0.8-0.3,1.2-0.4c0.4-0.1,0.8-0.1,1.2-0.2c0.4-0.1,0.8,0.1,1.2,0s0.8-0.2,1.2-0.1c0.4,0,0.8,0.1,1.2,0.2
				c0.4,0.1,0.8,0.3,1.2,0.4c0.4,0.1,0.8,0.2,1.2,0.2s0.8-0.1,1.2-0.1s0.8,0.1,1.2,0.2c0.4,0.1,0.8,0.1,1.2,0.2
				c0.4,0.1,0.7,0.5,1.1,0.6c0.4,0.1,0.9-0.1,1.3,0c0.4,0.1,0.8,0.1,1.2,0.2c0.4,0.1,0.7,0.5,1.1,0.6c0.4,0.1,0.8,0.2,1.1,0.4
				c0.4,0.2,0.6,0.6,1,0.9c0.3,0.3,0.7,0.5,1,0.8c0.3,0.3,0.8,0.5,1.1,0.8s0.4,0.9,0.7,1.2c0.3,0.3,0.9,0.2,1.3,0.5
				c0.3,0.3,0.7,0.5,1,0.8s0.5,0.7,0.8,1s0.5,0.7,0.8,1s0.5,0.7,0.8,1.1c0.3,0.3,0.6,0.6,0.9,0.9c0.3,0.3,0.6,0.6,0.9,0.9
				c0.3,0.3,0.4,0.7,0.6,1.1c0.2,0.4,0.5,0.7,0.6,1.1c0.2,0.4,0.5,0.7,0.6,1.1c0.2,0.4,0,0.9,0.2,1.3s0.6,0.7,0.8,1.1
				c0.1,0.3,0.3,0.7,0.5,1c0.1,0.3,0.4,0.7,0.5,1s0.3,0.7,0.5,1c0.1,0.3,0,0.8,0.1,1.2s0.5,0.6,0.7,1c0.1,0.3,0.3,0.7,0.4,1
				c0.1,0.3,0.1,0.8,0.3,1.1c0.1,0.4,0.2,0.7,0.3,1.1c0.1,0.4,0.2,0.7,0.2,1.1c0.1,0.4,0,0.8,0.1,1.1c0.1,0.4,0.5,0.7,0.5,1
				c0.1,0.4-0.2,0.8-0.1,1.2c0.1,0.4,0.5,0.7,0.5,1c0.1,0.4,0,0.8,0.1,1.1c0.1,0.4,0.1,0.7,0.2,1.1c0.1,0.4,0.2,0.7,0.2,1.1
				c0,0.4-0.4,0.8-0.4,1.1c0,0.4,0.3,0.8,0.2,1.1c0,0.4-0.3,0.7-0.4,1.1c0,0.4,0.1,0.8,0.2,1.1c0,0.4,0.2,0.7,0.2,1.1
				c0,0.4-0.1,0.8-0.1,1.1c0.1,0.4,0.2,0.7,0.2,1.1c0,0.4,0,0.7,0,1.1c0,0.3,0,0.7-0.1,1s-0.1,0.7-0.2,1c-0.1,0.3-0.2,0.6-0.2,0.9
				c0,0.5-0.1,1,0.2,1.3s0.9,0.2,1.4,0.2c0.4,0,0.7,0,1.1,0c0.4,0,0.8,0.1,1.1,0.1c0.4,0,0.8-0.1,1.2,0s0.7,0.6,1.1,0.7
				c0.4,0.1,0.9-0.1,1.3,0.1c0.4,0.1,0.8,0.3,1.2,0.5s0.8,0.3,1.1,0.5c0.4,0.2,0.8,0.3,1.2,0.5s0.7,0.5,1.1,0.7
				c0.4,0.2,0.8,0.3,1.1,0.5c0.4,0.2,0.8,0.3,1.2,0.5c0.3,0.2,0.4,0.8,0.7,1.1c0.3,0.3,0.8,0.4,1,0.7c0.3,0.3,0.3,0.8,0.6,1.2
				c0.3,0.3,0.7,0.5,1,0.8s0.5,0.7,0.8,1s0.6,0.6,0.9,0.9c0.3,0.3,0.5,0.7,0.8,1s0.7,0.5,1,0.8c0.2,0.3,0.3,0.8,0.5,1.2
				c0.2,0.4,0.7,0.6,0.9,1s0.3,0.8,0.5,1.2c0.2,0.4,0.4,0.7,0.6,1.1c0.2,0.4-0.1,0.9,0,1.3s0.4,0.8,0.5,1.2c0.1,0.4,0.3,0.8,0.4,1.2
				c0.1,0.4,0.1,0.8,0.2,1.2c0.1,0.4,0.2,0.8,0.3,1.2c0.1,0.4,0.4,0.8,0.5,1.2c0.1,0.4,0.5,0.7,0.6,1.1s0.2,0.8,0.3,1.3
				c0.1,0.4,0.1,0.8,0.1,1.3c0.1,0.4,0,0.9,0,1.3s0.3,0.8,0.3,1.2c0,0.4,0.2,0.8,0.2,1.3c0,0.4-0.4,0.8-0.4,1.1
				c0,0.4-0.1,0.8-0.2,1.1c-0.1,0.4,0,0.8-0.1,1.2c-0.1,0.4-0.2,0.8-0.2,1.1c-0.1,0.4,0,0.8,0,1.2c-0.1,0.4-0.4,0.7-0.5,1.1
				s-0.3,0.7-0.4,1.1c-0.1,0.4-0.2,0.7-0.3,1.1s-0.3,0.7-0.4,1.1c-0.1,0.4,0,0.8-0.1,1.2c-0.1,0.4-0.3,0.7-0.4,1.1
				c-0.2,0.3-0.5,0.6-0.7,0.9c-0.2,0.4-0.5,0.7-0.6,0.9c-0.1,0.4,0.2,0.7,0.5,1c0.2,0.2,0.6,0.2,1,0.4c0.3,0.2,0.6,0.5,0.9,0.7
				c0.3,0.2,0.6,0.4,0.9,0.6c0.3,0.2,0.5,0.6,0.7,0.8c0.3,0.2,0.5,0.5,0.8,0.8c0.3,0.2,0.8,0.2,1.1,0.4c0.3,0.2,0.6,0.5,0.8,0.7
				c0.3,0.2,0.6,0.4,0.9,0.7c0.3,0.2,0.2,0.8,0.5,1.1c0.3,0.3,0.9,0.4,1.1,0.8c0.2,0.4,0.3,0.9,0.5,1.2c0.2,0.4,0.2,0.9,0.4,1.2
				c0.2,0.4,0.4,0.8,0.6,1.2c0.2,0.4,0.5,0.7,0.7,1.1s0.4,0.7,0.6,1.1c0.2,0.4,0.1,0.9,0.2,1.3c0.2,0.4,0.5,0.7,0.6,1.1
				s0.3,0.8,0.4,1.2c0.1,0.4,0.5,0.8,0.6,1.2c0.1,0.4,0.2,0.9,0.3,1.3s-0.1,0.9-0.1,1.3s0,0.7,0,1.1c0,0.4,0.4,0.7,0.4,1.1
				c0,0.4-0.5,0.7-0.5,1.1c0,0.4,0.3,0.8,0.2,1.1c-0.1,0.4-0.4,0.7-0.5,1s0.2,0.8,0.1,1.1c-0.1,0.3-0.2,0.7-0.3,1s-0.4,0.6-0.5,0.9
				c-0.2,0.3-0.5,0.6-0.6,0.9c-0.2,0.3-0.2,0.7-0.4,1c-0.2,0.4-0.5,0.7-0.8,1s-0.6,0.6-0.9,0.9c-0.3,0.3-0.6,0.6-1,0.9
				c-0.3,0.3-0.7,0.5-1,0.8s-0.4,0.9-0.7,1.2s-0.9,0.3-1.2,0.6s-0.6,0.7-0.9,0.9c-0.4,0.2-0.8,0.5-1.2,0.6c-0.4,0.2-0.9,0-1.3,0.1
				c-0.4,0.1-0.8,0-1.3,0.1c-0.4,0-0.9,0.1-1.3,0.1c-0.4,0-0.9,0.2-1.3,0.3c-0.8,0.2-1,0.4-1,0.8c0,0.3,0.1,0.7,0.4,1.3
				c0.2,0.4,0.2,0.8,0.3,1.3c0.1,0.4,0.1,0.8,0.2,1.3c0.1,0.4,0.4,0.8,0.5,1.2c0.1,0.5,0.2,0.9,0.3,1.3c0,0.5-0.4,0.9-0.4,1.3
				c0,0.5,0,0.9-0.1,1.3c-0.1,0.4-0.1,0.9-0.3,1.3c-0.2,0.4-0.5,0.8-0.7,1.1c-0.3,0.3-0.5,0.8-0.9,1.1c-0.3,0.3-0.8,0.4-1.2,0.7
				c-0.4,0.2-0.8,0.3-1.3,0.5c-0.3,0.1-0.7,0.4-1.1,0.3c-0.4-0.1-0.8-0.5-1.1-0.4c-0.4,0.1-0.7,0.5-1.1,0.7
				c-0.4,0.2-0.9,0.2-1.2,0.3c-0.4,0.2-0.8,0.2-1.2,0.2s-0.8,0.1-1.2,0.1c-0.4-0.1-0.8,0-1.2-0.1s-0.8-0.4-1.2-0.4
				c-0.5,0-0.8-0.2-1.3-0.3c-0.4-0.1-0.9-0.1-1.3-0.2c-0.4-0.2-0.8-0.3-1.2-0.5s-0.9-0.2-1.3-0.4c-0.4-0.2-0.7-0.6-1.1-0.8
				c-0.4-0.2-0.9-0.2-1.2-0.4c-0.4-0.2-0.6-0.6-1-0.9c-0.4-0.2-0.9-0.2-1.3-0.4c-0.4-0.3-0.6-0.8-1.1-1.1c-0.4-0.3-0.8-0.5-1-1
				c-0.1-0.4,0.1-0.8,0.4-1.1c0.3-0.3,0.6,0.1,0.9,0.3c0.3,0.1,0.6,0.1,0.9,0.3c0.3,0.2,0.5,0.5,0.8,0.7s0.5,0.5,0.8,0.7
				s0.8,0,1.1,0.2s0.6,0.4,0.9,0.5c0.3,0.1,0.6,0.4,1,0.5c0.3,0.1,0.7,0.1,1.1,0.2c0.3,0.1,0.7,0.2,1,0.2c0.3,0.1,0.7-0.1,1.1,0
				c0.4,0.1,0.7,0.5,1.1,0.5c0.4,0,0.8,0.1,1.2,0.1s0.8,0.1,1.2,0.1s0.8-0.3,1.2-0.3s0.8,0.5,1.2,0.5s0.8-0.2,1.2-0.2
				s0.8-0.1,1.2-0.1s0.7-0.2,1.1-0.4c0.4-0.1,0.9-0.1,1.2-0.3c0.4-0.2,0.6-0.6,0.8-0.9c0.3-0.3,0.4-0.7,0.6-1
				c0.2-0.4,0.4-0.7,0.5-1.1c0.1-0.4,0.3-0.8,0.3-1.2s0.2-0.8,0.2-1.2s-0.3-0.8-0.4-1.2c0-0.4,0-0.8-0.2-1.2s-0.2-0.8-0.5-1.1
				s-0.8-0.4-1.1-0.6c-0.3-0.3-0.4-0.8-0.7-1s-0.6-0.5-1-0.6s-0.9-0.2-1.3-0.3c-0.4-0.1-0.9-0.2-1.3-0.3c-0.4-0.1-0.9-0.1-1.3-0.2
				c-0.3-0.1-0.5-0.6-0.8-0.7c-0.3-0.2-0.7-0.2-1-0.4s-0.4-0.6-0.7-0.8s-0.6-0.4-0.8-0.6c-0.3-0.3-0.7-0.5-0.8-0.9s-0.2-0.9-0.1-1.3
				c0.1-0.4,0.7-0.6,1.1-0.6c0.4,0,0.8,0.3,1.2,0.3s0.8-0.5,1.2-0.5s0.8,0.5,1.2,0.6s0.9-0.2,1.3,0.1c0.3,0.2,0.5,0.6,0.8,0.7
				c0.3,0.2,0.8,0.1,1.1,0.3s0.6,0.4,0.9,0.6c0.3,0.2,0.4,0.7,0.6,0.9c0.3,0.3,0.7,0.4,1,0.7c0.3,0.2,0.7,0.4,1.1,0.5
				c0.4,0.1,0.8,0,1.2-0.1c0.4,0,0.8-0.1,1.1-0.2c0.4-0.1,0.7-0.2,1.1-0.3c0.4-0.1,0.7-0.3,1-0.5c0.4-0.1,0.9,0.1,1.2,0
				c0.4-0.2,0.6-0.5,1-0.7s0.7-0.3,1.1-0.5c0.4-0.1,0.7-0.3,1.1-0.5c0.4-0.2,0.7-0.2,1.1-0.4c0.3-0.2,0.6-0.5,0.9-0.8
				c0.3-0.2,0.7-0.4,1-0.7s0.4-0.7,0.7-1c0.2-0.3,0.6-0.6,0.8-0.9c0.2-0.3,0.5-0.7,0.6-1c0.2-0.4,0.2-0.8,0.4-1.1
				c0.2-0.4,0.4-0.7,0.5-1.1c0.1-0.4-0.3-0.9-0.2-1.3c0.1-0.4,0.3-0.7,0.4-1.1c0-0.4,0.2-0.8,0.3-1.2c0-0.4,0.2-0.8,0.2-1.2
				s0-0.8-0.1-1.2c0-0.4-0.1-0.8-0.2-1.2c-0.1-0.4-0.1-0.8-0.1-1.2c-0.1-0.4-0.4-0.8-0.5-1.2c-0.1-0.4-0.3-0.8-0.4-1.2
				c-0.1-0.4-0.4-0.7-0.5-1.1c-0.2-0.4-0.2-0.8-0.3-1.2c-0.2-0.4-0.5-0.7-0.6-1.1s0.1-0.9,0-1.3s-0.3-0.8-0.5-1.2
				c-0.2-0.4-0.7-0.6-1-0.9s-0.5-0.6-0.8-0.9s-0.6-0.6-0.9-0.9c-0.3-0.2-0.5-0.7-0.9-0.9c-0.3-0.2-1-0.1-1.3-0.4s-0.4-0.8-0.7-1.1
				c-0.3-0.3-0.6-0.6-0.9-0.9c-0.3-0.3-0.7-0.5-1-0.7c-0.3-0.3-0.6-0.6-0.9-0.8c-0.6-0.4-1.1-0.2-1.5,0.3c-0.3,0.3-0.8,0.5-1.2,0.9
				c-0.3,0.3-0.6,0.7-0.9,1c-0.3,0.3-0.6,0.7-1,1s-0.8,0.5-1.1,0.8c-0.4,0.3-0.7,0.5-1.1,0.8c-0.4,0.2-0.8,0.4-1.2,0.6
				s-0.8,0.4-1.2,0.6s-0.8,0.5-1.1,0.8c-0.4,0.3-0.8,0.6-1.2,0.8c-0.4,0.2-0.9,0.5-1.3,0.6c-0.4,0.1-0.8,0.1-1.1,0.1
				c-0.4,0-0.8-0.1-1.1-0.1c-0.4,0-0.7-0.2-1.1-0.2c-0.4,0-0.8,0.2-1.1,0.1c-0.4-0.1-0.8-0.1-1.1-0.2c-0.4-0.1-0.8-0.1-1.1-0.3
				c-0.4-0.2-0.7-0.5-1.1-0.7c-0.4-0.2-0.6-0.6-0.9-0.9c-0.3-0.3-0.8-0.4-1.1-0.7c-0.3-0.3-0.5-0.7-0.7-1.1
				c-0.1-0.4,0.2-0.9,0.2-1.3s-0.5-0.8-0.5-1.2c0-0.4,0.1-0.8,0.1-1.2c0-0.4,0.1-0.8,0.2-1.2c0.1-0.4,0.4-0.7,0.6-1
				c0.2-0.4,0.4-0.6,0.6-1c0.2-0.3,0.5-0.5,0.8-0.8c0.3-0.2,0.5-0.6,0.8-0.8c0.3-0.2,0.7-0.3,1-0.5c0.3-0.1,0.6-0.4,1-0.6
				c0.4-0.1,0.8,0,1.1-0.1c0.4-0.1,0.7-0.1,1.1-0.1c0.4-0.1,0.7-0.5,1.1-0.5c0.4,0,0.7,0.4,1.1,0.5c0.4,0,0.7-0.2,1.1-0.2
				c0.4,0,0.7,0.2,1.1,0.2c0.4,0,0.7,0,1.1,0c0.4,0,0.7-0.1,1.1,0c0.4,0.1,0.7,0.1,1.1,0.2c0.3,0.1,0.7,0.3,1,0.4
				c0.4,0.1,0.7-0.1,1.1,0c0.3,0.1,0.7,0.1,1.1,0.2c0.3,0.1,0.6,0.6,0.9,0.7c0.3,0.1,0.8,0,1.1,0.1c0.5,0.2,0.8,0.5,1,0.4
				c0.3,0,0.3-0.6,0.5-1c0.1-0.2,0.2-0.6,0.4-0.9c0.2-0.4,0.5-0.8,0.7-1.1c0.2-0.4,0.8-0.5,1-0.9s0.1-1,0.3-1.3
				c0.2-0.4,0.6-0.7,0.7-1.1c0.1-0.4,0.3-0.8,0.3-1.3c0.1-0.4,0.2-0.9,0.2-1.3c0.1-0.4,0.3-0.9,0.4-1.3c0-0.4-0.3-0.9-0.3-1.4
				c0-0.4,0.5-0.9,0.5-1.3s0-0.9,0-1.3s0.2-0.9,0.2-1.3s-0.2-0.9-0.3-1.3c0-0.4,0.1-0.9,0-1.4c-0.1-0.4-0.4-0.8-0.5-1.3
				c-0.1-0.4,0-0.9-0.1-1.3s-0.5-0.8-0.6-1.2c-0.1-0.4-0.2-0.8-0.4-1.2c-0.2-0.4-0.2-0.9-0.4-1.3s-0.7-0.6-1-1
				c-0.2-0.4-0.4-0.8-0.6-1.2c-0.2-0.4-0.3-0.8-0.5-1.2c-0.2-0.4-0.3-0.8-0.6-1.2c-0.2-0.4-0.5-0.7-0.8-1s-0.6-0.7-0.8-1
				c-0.3-0.3-0.6-0.7-0.8-1c-0.2-0.4-0.6-0.7-0.8-1.1s-0.5-0.7-0.8-1.1c-0.3-0.3-0.5-0.7-0.8-1s-0.7-0.5-1-0.7s-0.5-0.7-0.9-0.9
				c-0.4-0.2-0.7-0.4-1.1-0.6c-0.4-0.2-0.7-0.5-1.1-0.7c-0.4-0.2-0.8-0.2-1.2-0.4c-0.4-0.2-0.8-0.3-1.1-0.5c-0.4-0.2-0.7-0.6-1-0.7
				c-0.4-0.1-0.8-0.1-1.3-0.2c-0.4-0.1-0.8-0.1-1.2-0.2s-0.8-0.4-1.2-0.5s-0.8,0-1.3-0.1c-0.4-0.1-0.8-0.2-1.2-0.3
				c-0.5,0-0.7,0.2-1,0.4c-0.2,0.2-0.4,0.4-0.5,0.9c-0.1,0.4-0.3,0.8-0.5,1.2c-0.1,0.4-0.1,0.9-0.3,1.2c-0.2,0.4-0.5,0.7-0.6,1.1
				c-0.2,0.4-0.2,0.8-0.3,1.2c-0.1,0.4-0.2,0.8-0.3,1.2c-0.1,0.4,0.1,0.9,0,1.3s-0.4,0.8-0.5,1.2c-0.1,0.4,0.1,0.9-0.1,1.3
				c-0.1,0.4-0.2,0.8-0.4,1.2c-0.1,0.4-0.6,0.7-0.7,1.1c-0.2,0.4-0.1,0.9-0.3,1.2c-0.2,0.4-0.1,0.9-0.3,1.2c-0.2,0.4-0.5,0.7-0.8,1
				c-0.2,0.3-0.4,0.7-0.7,1.1c-0.2,0.3-0.6,0.6-0.8,0.9s-0.6,0.6-0.8,1s-0.2,0.9-0.5,1.3c-0.2,0.4-0.7,0.6-0.9,1s-0.6,0.7-0.9,1
				c-0.3,0.4-0.3,0.9-0.6,1.3c-0.3,0.3-0.7,0.6-1,0.9s-0.6,0.7-0.9,1c-0.3,0.3-1,0.3-1.3,0.6c-0.3,0.3-0.7,0.6-1,0.9
				c-0.4,0.3-0.5,0.8-1,1c-0.4,0.2-0.7,0.3-1.1,0.4c-0.4,0.1-0.8-0.1-1.2-0.1s-0.8-0.1-1.1-0.2c-0.4,0-0.8-0.3-1.1-0.3
				c-0.4,0-0.8-0.1-1.2-0.1s-0.8-0.1-1.1-0.1c-0.4-0.1-0.7-0.2-1.1-0.3c-0.4-0.1-0.8-0.1-1.1-0.3c-0.3-0.3-0.5-0.6-0.7-0.9
				s-0.1-0.8-0.2-1.1c-0.1-0.4-0.1-0.7-0.2-1.1c-0.1-0.4-0.2-0.8-0.3-1.1c-0.1-0.4-0.6-0.7-0.7-1.1c-0.1-0.4,0.1-0.9,0-1.3
				s-0.3-0.7-0.4-1.2c0-0.4,0-0.8,0-1.2c0-0.4-0.1-0.8-0.1-1.3c0-0.4,0.3-0.8,0.4-1.2c0.1-0.4,0.2-0.7,0.2-1.1
				c0.1-0.4,0.1-0.7,0.2-1.1c0.1-0.4,0.4-0.7,0.5-1s0.3-0.7,0.4-1c0.1-0.3,0.3-0.7,0.5-1s0.2-0.7,0.3-1.1c0.2-0.3,0.2-0.7,0.4-1.1
				c0.2-0.3,0.5-0.6,0.7-0.9s0.3-0.7,0.5-1s0.4-0.6,0.6-0.9c0.2-0.3,0.3-0.7,0.6-1c0.2-0.3,0.6-0.5,0.9-0.8c0.3-0.3,0.5-0.6,0.7-0.9
				c0.3-0.3,0.6-0.5,0.9-0.7c0.3-0.3,0.8-0.3,1.1-0.5s0.4-0.8,0.8-1c0.4-0.2,0.8-0.1,1.2-0.3c0.4-0.2,0.7-0.4,1.1-0.6
				c0.4-0.2,0.7-0.4,1-0.6c0.3-0.2,0.7-0.3,1.1-0.5c0.4-0.2,0.8-0.1,1.2-0.2c0.4-0.2,0.7-0.4,1-0.5c0.4-0.1,0.8-0.1,1.1-0.2
				c0.4-0.1,0.8-0.2,1.1-0.3c0.4-0.1,0.6-0.7,1-0.8s0.8,0.1,1.2,0s0.8-0.1,1.2-0.2c0.7-0.1,1-0.4,1.3-0.6c0.3-0.2,0.4-0.4,0.4-1.2
				c0-0.4,0.4-0.9,0.4-1.3c0-0.4-0.2-0.9-0.3-1.3c0-0.4-0.2-0.9-0.2-1.3c0-0.4,0.2-0.8,0.2-1.1c0-0.4,0.1-0.8,0.1-1.1
				c0-0.4-0.3-0.8-0.3-1.2s0.2-0.8,0.2-1.1c0-0.4-0.1-0.8-0.1-1.1c0-0.4-0.2-0.7-0.2-1.1c0-0.4,0.1-0.8,0-1.1c0-0.4,0-0.8,0-1.1
				c0-0.4-0.4-0.7-0.4-1.1C161.6,44.5,161.6,44.1,161.6,43.7z M141.7,87.6c0.2,0.4,0.2,1,0.4,1.3c0.3,0.4,0.9,0.4,1.2,0.7
				c0.4,0.3,0.7,0.5,1.1,0.7c0.4,0.2,0.8,0.5,1.2,0.6c0.4,0,0.9-0.1,1.3-0.2c0.4-0.1,0.8-0.2,1.3-0.3c0.4-0.2,0.8-0.4,1.3-0.6
				c0.4-0.1,0.9-0.1,1.3-0.3c0.4-0.2,0.7-0.6,1-0.9s0.8-0.5,1.1-0.8s0.6-0.7,0.9-1.1c0.3-0.4,0.9-0.5,1.1-0.9
				c0.3-0.3,0.1-0.9,0.3-1.3s0.5-0.7,0.7-1.1s0.3-0.8,0.5-1.2c0.2-0.4,0.5-0.7,0.7-1.1s0.6-0.7,0.8-1c0.2-0.4,0.1-0.9,0.3-1.3
				s0.4-0.8,0.5-1.1c0.2-0.4,0.4-0.7,0.5-1.1s0.4-0.8,0.5-1.2c0.1-0.4,0.4-0.8,0.5-1.2c0.1-0.4,0.1-0.8,0.2-1.3
				c0.1-0.4,0.2-0.8,0.3-1.2c0.1-0.4,0-0.9,0.1-1.3s0.3-0.8,0.4-1.2c0.1-0.4,0.3-0.8,0.3-1.2c0.1-0.4,0.3-0.8,0.3-1.2
				c0-0.4-0.3-0.7-0.4-1.1c-0.1-0.4-0.1-0.8-0.1-1.1c0-0.6,0.2-1,0.1-1.1c-0.1-0.2-0.4,0-1.1,0.1c-0.4,0.1-0.8,0.2-1.1,0.3
				c-0.4,0.1-0.8-0.2-1.2-0.1c-0.4,0.1-0.7,0.3-1.1,0.4c-0.4,0.1-0.7,0.2-1.1,0.4c-0.4,0.1-0.7,0.2-1.1,0.4
				c-0.4,0.1-0.7,0.3-1.1,0.5c-0.4,0.2-0.7,0.4-1,0.6s-0.7,0.4-1,0.6s-0.9,0-1.2,0.2c-0.4,0.2-0.6,0.5-1,0.7s-0.6,0.5-0.9,0.7
				c-0.3,0.2-0.8,0.2-1.1,0.5s-0.4,0.7-0.6,1c-0.2,0.3-0.3,0.7-0.5,1.1s-0.3,0.7-0.5,1.1s-0.7,0.5-0.9,0.9c-0.2,0.3-0.2,0.8-0.5,1.1
				c-0.2,0.3-0.4,0.6-0.7,0.9c-0.2,0.3-0.6,0.5-0.8,0.8s-0.4,0.6-0.6,0.9c-0.2,0.3-0.3,0.7-0.4,1c-0.1,0.4-0.6,0.6-0.8,1
				c-0.1,0.4-0.1,0.8-0.2,1.2c-0.1,0.4,0,0.8-0.1,1.2c-0.1,0.4-0.4,0.7-0.4,1.1s0.3,0.8,0.3,1.2c0,0.4-0.2,0.8-0.2,1.2
				s0,0.8,0.1,1.2c0.1,0.4,0.4,0.7,0.5,1.1C141.3,86.9,141.5,87.2,141.7,87.6z M170.2,106.4c-0.4,0.1-0.8-0.1-1.2,0.1
				s-0.5,0.7-0.8,0.9c-0.3,0.2-0.5,0.4-0.7,0.8c-0.2,0.3-0.5,0.6-0.6,1s0.1,0.9,0.2,1.3c0.1,0.4,0.3,0.8,0.5,1.1
				c0.2,0.3,0.6,0.5,1,0.8c0.3,0.3,0.6,0.6,1,0.8c0.4,0.2,0.8,0.2,1.2,0.3c0.4,0.2,0.7,0.5,1.1,0.6c0.4,0.1,0.8,0.1,1.2,0.1
				s0.9,0.3,1.3,0.2c0.4-0.1,0.7-0.7,1.2-0.8c0.4-0.1,0.9-0.2,1.3-0.4c0.4-0.2,0.8-0.4,1.2-0.6s0.9-0.3,1.2-0.5
				c0.4-0.2,0.8-0.4,1.2-0.7c0.3-0.3,0.4-0.9,0.7-1.2c0.3-0.3,0.6-0.7,0.9-1c0.3-0.3,0.6-0.6,0.9-1c0.3-0.3,0.6-0.5,0.8-0.8
				c0.2-0.4,0.3-0.8-0.1-1c-0.2-0.2-0.6-0.2-1.1-0.4c-0.4-0.1-0.7-0.2-1.1-0.3c-0.4-0.1-0.8,0-1.1,0c-0.4-0.1-0.7-0.2-1.1-0.2
				c-0.4,0-0.7-0.1-1.1-0.1c-0.4,0-0.8-0.1-1.1-0.1c-0.4,0-0.8,0.3-1.2,0.3s-0.8-0.1-1.2,0c-0.4,0-0.8-0.1-1.2,0
				c-0.4,0-0.7,0.3-1.1,0.3c-0.4,0.1-0.7,0.2-1.1,0.3C170.9,106.3,170.5,106.3,170.2,106.4z"/>
		</g>
		<g>
			<path d="M27.9,196.6c-0.3-0.3-0.5-0.8-0.6-1.1c-0.2-0.3-0.3-0.7-0.4-1.1c-0.1-0.4-0.5-0.7-0.6-1.1c-0.1-0.4,0-0.9-0.1-1.3
				c-0.1-0.4-0.3-0.8-0.5-1.2c-0.1-0.4-0.1-0.9-0.2-1.3c-0.1-0.4-0.3-0.8-0.4-1.2c-0.1-0.4-0.1-0.9-0.2-1.3
				c-0.1-0.4-0.4-0.8-0.5-1.2s-0.5-0.7-0.6-1.1c-0.1-0.4,0.1-0.9-0.1-1.3c-0.1-0.4-0.5-0.7-0.6-1.1c-0.1-0.4-0.1-0.9-0.2-1.3
				c-0.1-0.4-0.4-0.7-0.6-1.1c-0.1-0.3-0.5-0.6-0.6-0.9c-0.1-0.3,0-0.8-0.1-1.1s-0.4-0.6-0.5-1c-0.1-0.3-0.2-0.7-0.4-1
				s-0.3-0.7-0.4-1c-0.2-0.3-0.2-0.7-0.3-1c-0.2-0.3-0.7-0.4-0.9-0.7s0-0.8-0.2-1.1c-0.3-0.4-0.7-0.6-1.1-0.8
				c-0.4-0.2-0.8-0.5-1.2-0.6c-0.5-0.1-0.9-0.1-1.4-0.1c-0.4,0-0.8,0.3-1.1,0.5s-0.8,0.2-1.1,0.5c-0.2,0.3-0.3,0.7-0.6,1.1
				c-0.2,0.4-0.2,0.9-0.4,1.3c-0.2,0.4-0.6,0.7-0.7,1.2c-0.1,0.4,0.1,0.9,0,1.4c0,0.4-0.3,0.9-0.4,1.3c0,0.4,0.2,0.8,0.2,1.2
				s-0.2,0.8-0.3,1.2c0,0.4-0.2,0.8-0.2,1.2s0.2,0.8,0.2,1.2s-0.1,0.8-0.1,1.2s0.3,0.8,0.3,1.2s-0.3,0.8-0.3,1.2s0.4,0.8,0.5,1.2
				c0,0.4,0.1,0.8,0.2,1.2c0,0.4,0,0.8,0,1.2s-0.1,0.8-0.1,1.2s0.4,0.8,0.4,1.2c0.1,0.4-0.2,0.8-0.1,1.2c0.1,0.4,0.3,0.8,0.4,1.2
				c0.1,0.4,0.2,0.8,0.2,1.2c0.1,0.4,0,0.8,0.1,1.2s0.4,0.7,0.4,1.1c0.1,0.4,0.1,0.8,0.2,1.2c0.1,0.4,0.3,0.8,0.4,1.1
				c0.1,0.4-0.2,0.9-0.1,1.3c0.1,0.4,0.3,0.7,0.4,1.1c0.1,0.4,0.4,0.7,0.5,1.1c0.1,0.4,0.3,0.7,0.4,1.1s0.2,0.8,0.3,1.1
				c0.1,0.4,0.2,0.8,0.3,1.1c0.1,0.4,0.2,0.8,0.3,1.1c0.1,0.4-0.1,0.8,0,1.2s0.5,0.7,0.6,1c0.1,0.4,0.1,0.8,0.2,1.1
				c0.1,0.4,0,0.8,0.2,1.2c0.1,0.4,0.5,0.7,0.6,1c0.1,0.4,0,0.8,0.1,1.2s0.7,0.6,0.8,1s0.1,0.8,0.2,1.2s0.2,0.8,0.3,1.1
				c0.1,0.4,0.2,0.8,0.3,1.1c0.1,0.4,0,0.8,0,1.2s0.2,0.8,0.2,1.2s-0.2,0.8-0.2,1.2s0.3,0.8,0.4,1.1c0.1,0.4,0.4,0.7,0.5,1.1
				c0.1,0.4,0.2,0.8,0.4,1.1c0.1,0.4,0.1,0.8,0.2,1.2c0.1,0.4,0.2,0.8,0.3,1.1c0.1,0.4,0.5,0.8,0.6,1.2s-0.2,0.9,0,1.4
				c0.1,0.4,0.6,0.7,0.7,1.2c0.1,0.4-0.1,0.9,0,1.4c0.1,0.4,0,0.9,0.1,1.3c0.1,0.4,0.4,0.8,0.4,1.3c0,0.4,0.2,0.9,0.2,1.3
				c0,0.4-0.2,0.9-0.2,1.3c0.1,0.4,0.5,0.8,0.5,1.2c0.1,0.4-0.1,0.9,0,1.3c0,0.4,0.2,0.9,0.2,1.3c0,0.4-0.2,0.9-0.1,1.3
				c0.1,0.4,0.4,0.8,0.6,1.2c0.1,0.4,0.1,0.9,0.3,1.3c0.1,0.4,0.4,0.8,0.5,1.2s0,0.9,0,1.3c0,0.4,0.1,0.8,0,1.2s0.1,0.9,0,1.3
				c-0.1,0.4-0.3,0.8-0.3,1.2c-0.1,0.4,0,0.8,0,1.2s-0.2,0.8-0.1,1.2c0.1,0.4,0,0.8,0.1,1.2c0.1,0.4,0.4,0.8,0.4,1.2
				c0,0.4,0,0.8,0,1.2c0,0.4-0.2,0.8-0.3,1.2c-0.1,0.4,0,0.8-0.1,1.2c-0.1,0.4-0.2,0.8-0.3,1.2c-0.1,0.4-0.1,0.8-0.1,1.2
				c-0.1,0.4-0.3,0.8-0.4,1.2c0,0.4,0,0.8,0,1.2c-0.1,0.4-0.3,0.8-0.3,1.2c-0.1,0.4,0.1,0.8,0.1,1.2c-0.1,0.4-0.5,0.8-0.5,1.2
				c-0.1,0.4,0.1,0.9,0,1.3s0.1,0.9,0,1.3s-0.5,0.8-0.6,1.2c-0.1,0.4,0.1,0.9,0,1.3c-0.2,0.7-0.6,1-1,1c-0.3,0-0.8-0.2-1.3-0.4
				c-0.3-0.1-0.7,0-1.1-0.1c-0.3-0.1-0.6-0.4-1-0.5c-0.3-0.1-0.7-0.1-1-0.2s-0.7-0.2-1-0.3c-0.4-0.2-0.9,0.1-1.3,0
				c-0.4-0.1-0.8-0.3-1.2-0.3c-0.5,0-1-0.4-1.2,0.1c-0.2,0.6,0.1,1.1,0.5,1.4c0.3,0.2,0.6,0.3,0.9,0.4c0.3,0.1,0.5,0.6,0.9,0.7
				c0.3,0.1,0.8,0,1.1,0.1c0.4,0.1,0.8,0.3,1.2,0.5c0.4,0.1,0.8,0.3,1.2,0.4s0.8,0.1,1.2,0.3c0.4,0.1,0.8,0.3,1.1,0.5
				c0.4,0.2,0.6,0.5,0.7,0.9c0.1,0.3-0.1,0.6-0.3,1.1c-0.1,0.4-0.3,0.8-0.5,1.2c-0.2,0.4-0.2,0.9-0.4,1.3s-0.5,0.7-0.7,1.1
				s-0.2,0.9-0.4,1.3s-0.2,0.8-0.4,1.3c-0.1,0.4-0.3,0.8-0.4,1.2c-0.1,0.4-0.6,0.7-0.7,1.2c-0.1,0.4-0.2,0.8-0.4,1.3
				c-0.1,0.2-0.5,0.3-0.5,0.5c-0.1,0.4-0.4,0.8-0.4,1.2c0,0.4,0.3,0.9,0.7,1.1s1,0.1,1.3-0.2c0.3-0.3,0.5-0.7,0.8-1
				c0.2-0.2,0.3-0.6,0.4-0.9c0-0.3,0-0.6,0.2-0.9c0.2-0.4,0.4-0.7,0.6-1.1c0.2-0.4,0.2-0.8,0.4-1.2c0.2-0.4,0.3-0.8,0.5-1.2
				c0.2-0.4,0.5-0.7,0.6-1.1s0.1-0.9,0.3-1.2c0.2-0.4,0.2-0.8,0.4-1.2c0.2-0.4,0.4-0.7,0.5-1.1s0.6-0.7,0.7-1.1
				c0.1-0.4,0.1-0.8,0.2-1c0.2-0.4,0.3-0.5,0.8-0.5c0.3,0,0.5,0.1,1,0.2c0.4,0.1,0.9-0.2,1.4,0c0.4,0.1,0.8,0.3,1.2,0.5
				c0.4,0.1,0.8,0.2,1.3,0.3c0.4,0.1,0.8,0.4,1.2,0.5s0.8,0.3,1.3,0.4c0.4,0,0.9,0,1.3,0c0.4,0,0.9-0.2,1.3-0.2
				c0.4,0,0.9,0.2,1.3,0.3c0.4,0,0.9-0.3,1.3-0.2c0.4,0,0.8,0.5,1.3,0.5c0.4,0,0.9-0.1,1.3-0.1s0.9-0.1,1.3-0.1s0.9,0,1.3-0.1
				s0.8-0.4,1.3-0.5c0.4-0.1,0.9,0.1,1.4,0c0.4-0.1,0.8-0.6,1.2-0.7c0.4-0.1,1,0.2,1.4,0.1s0.8-0.4,1.2-0.6c0.4-0.2,0.8-0.3,1.2-0.5
				c0.4-0.2,0.8-0.3,1.3-0.4c0.4-0.2,0.7-0.5,1.2-0.7c0.4-0.2,0.8-0.3,1.2-0.4c0.4-0.2,0.9-0.2,1.3-0.4c0.4-0.2,0.7-0.5,1.1-0.7
				s0.7-0.6,1-0.9c0.4-0.2,0.8-0.3,1.2-0.6c0.4-0.2,0.8-0.3,1.2-0.6c0.4-0.2,0.8-0.5,1.1-0.7c0.3-0.3,0.6-0.6,0.9-0.9s0.5-0.6,0.7-1
				s0.7-1,0.4-1.4c-0.3-0.4-0.8,0.6-1.2,0.8c-0.3,0.2-0.8,0.2-1.1,0.3c-0.4,0.1-0.8,0.1-1.1,0.2c-0.4,0.1-0.7,0.3-1,0.5
				c-0.4,0.2-0.8,0.4-1.2,0.5c-0.4,0.2-0.7,0.6-1.1,0.8c-0.4,0.2-0.9,0.1-1.3,0.3c-0.4,0.2-0.8,0.4-1.2,0.6
				c-0.4,0.2-0.8,0.3-1.2,0.5c-0.4,0.2-0.8,0.5-1.1,0.7c-0.4,0.2-0.8,0.3-1.2,0.5c-0.4,0.2-0.8,0.4-1.2,0.5
				c-0.4,0.1-0.9,0.1-1.3,0.2s-0.8,0.4-1.2,0.5c-0.4,0.1-0.9,0-1.3,0.1s-0.8,0.2-1.3,0.3c-0.4,0.1-0.9,0.1-1.3,0.1s-0.9,0.2-1.3,0.2
				s-0.9-0.1-1.3-0.1s-0.9,0.2-1.3,0.2c-0.4,0-0.8,0.3-1.3,0.4c-0.4,0.1-0.9,0.1-1.3,0.2c-0.4,0.1-0.9,0-1.4,0
				c-0.4,0-0.9,0.1-1.3,0.1c-0.5,0-0.9-0.3-1.3-0.4c-0.5,0-0.9,0.1-1.4,0.1c-0.4,0-0.9,0.1-1.4,0c-0.4,0-0.9-0.1-1.3-0.2
				c-0.4,0-0.9-0.4-1.3-0.4c-0.5-0.1-0.9-0.1-1.1-0.2c-0.3-0.2-0.4-0.5-0.4-1c0-0.3-0.2-0.8-0.1-1.2c0.1-0.4,0.4-0.8,0.4-1.3
				c0.1-0.4,0.4-0.9,0.4-1.3s-0.3-0.9-0.2-1.4c0.1-0.4,0.1-0.9,0.1-1.3c0.1-0.4,0.4-0.8,0.5-1.3c0.1-0.4,0.3-0.8,0.4-1.3
				c0.1-0.4,0-0.9,0.1-1.3s0.3-0.8,0.3-1.3c0.1-0.4,0.3-0.9,0.4-1.3c0-0.4-0.2-0.9-0.2-1.3s0-0.9,0-1.3s0.2-0.9,0.2-1.3
				s-0.3-0.9-0.2-1.4c0.1-0.4,0.1-0.9,0.2-1.3c0.1-0.4,0.3-0.8,0.3-1.3c0.1-0.4,0.1-0.9,0.1-1.3c0-0.4,0.2-0.9,0.2-1.3
				c-0.1-0.4-0.4-0.8-0.5-1.3c-0.1-0.4,0-0.9-0.1-1.3c-0.1-0.4-0.1-0.9-0.1-1.3c0-0.4,0-0.9,0-1.3c0-0.4-0.3-0.9-0.3-1.3
				c0-0.4,0.3-0.9,0.3-1.3c0-0.4-0.4-0.8-0.4-1.3c0-0.4,0.3-0.9,0.4-1.3c0-0.4,0.1-0.9,0.2-1.3c0.1-0.4,0.1-0.9,0.2-1.3
				c0-0.4-0.1-0.9-0.2-1.3c-0.1-0.4-0.3-0.8-0.3-1.3c-0.1-0.4,0.2-0.9,0.2-1.3c-0.1-0.4-0.5-0.8-0.6-1.2s0.2-0.9,0.1-1.3
				c-0.1-0.4-0.6-0.7-0.7-1.2c-0.2-0.4,0-1-0.2-1.4s-0.6-0.7-0.7-1.1c-0.2-0.4-0.6-0.8-0.7-1.2c-0.1-0.4-0.1-0.9-0.2-1.3
				c0-0.4,0.1-0.9,0.1-1.3c0-0.4,0.2-0.9,0.2-1.3c0-0.4,0-0.9-0.1-1.3c-0.1-0.4-0.2-0.9-0.3-1.3c-0.1-0.4-0.4-0.8-0.5-1.2
				c-0.2-0.4-0.2-0.8-0.4-1.2c-0.1-0.4-0.3-0.8-0.4-1.2c-0.1-0.4-0.6-0.7-0.7-1.1c-0.1-0.4-0.1-0.9-0.3-1.3
				c-0.2-0.4-0.1-0.9-0.3-1.3c-0.1-0.4-0.5-0.7-0.7-1.1c-0.1-0.4-0.2-0.8-0.3-1.3c-0.1-0.4-0.1-0.9-0.2-1.3
				c-0.1-0.4-0.5-0.8-0.6-1.2s0.2-0.9,0-1.3c-0.1-0.4-0.4-0.8-0.5-1.2s-0.3-0.8-0.4-1.2c-0.1-0.4,0-0.9-0.1-1.3
				c-0.1-0.4-0.5-0.8-0.6-1.2s0.2-0.9,0.1-1.3c-0.1-0.4-0.2-0.8-0.3-1.3c0-0.4-0.1-0.9-0.1-1.3c0-0.4-0.1-0.9-0.2-1.3
				c-0.1-0.4-0.4-0.8-0.5-1.2s0.3-0.9,0.2-1.3c-0.1-0.4-0.4-0.8-0.5-1.2s-0.1-0.8-0.2-1.3c-0.1-0.4-0.1-0.8-0.3-1.3
				c-0.1-0.4-0.5-0.7-0.6-1.1c-0.2-0.4-0.2-0.9-0.3-1.3c-0.1-0.4-0.4-0.8-0.5-1.2s0.2-0.9,0.1-1.3s0.1-0.9,0-1.3s-0.4-0.8-0.4-1.2
				c-0.1-0.4-0.2-0.8-0.3-1.3c-0.1-0.4,0-0.8-0.1-1.2c0-0.4-0.1-0.8-0.1-1.2s0.1-0.8,0.1-1.2s0.2-0.8,0.2-1.2s-0.1-0.8-0.1-1.2
				c0-0.3,0.2-0.7,0.5-1.1c0.2-0.3,0.7-0.5,0.8-0.8c0.1-0.4,0.2-0.9,0.4-1.3c0.1-0.5,0.1-1.2,0.7-1.2c0.5-0.1,0.9,0.4,1.2,0.8
				c0.3,0.4,0.4,0.9,0.6,1.2c0.2,0.3,0.7,0.5,0.8,0.8c0.2,0.3,0.3,0.6,0.5,1c0.2,0.3,0.3,0.7,0.4,1c0.1,0.3,0.3,0.7,0.4,1
				c0.1,0.3,0,0.8,0.1,1.1s0.7,0.5,0.8,0.9c0.1,0.3,0.2,0.7,0.3,1.1c0.1,0.3,0.2,0.7,0.3,1s-0.2,0.8-0.1,1.1
				c0.1,0.3,0.1,0.7,0.2,1.1c0.1,0.4,0.6,0.7,0.7,1.2c0.1,0.4,0.4,0.8,0.5,1.2s-0.1,1,0,1.4s0.4,0.8,0.6,1.2c0.1,0.4,0,0.8,0.2,1.1
				c0.1,0.4,0.6,0.6,0.7,0.9c0.1,0.3,0,0.8,0.1,1.1c0.1,0.4,0.7,0.6,0.8,0.9c0.1,0.4,0,0.8,0.1,1.1c0.1,0.4,0,0.8,0.1,1.1
				c0.1,0.4,0,0.8,0.1,1.1c0.1,0.4,0.5,0.6,0.6,1s0.2,0.7,0.3,1.1c0.1,0.4,0.3,0.7,0.4,1c0.1,0.4,0,0.8,0.1,1.1
				c0.1,0.4,0.3,0.7,0.4,1.1c0.1,0.4,0.2,0.8,0.3,1.1s0.4,0.6,0.6,1c0.2,0.3,0.3,0.7,0.5,1c0.1,0.3,0.4,0.7,0.5,1
				c0.1,0.4-0.1,0.8,0,1.2s0.4,0.7,0.5,1s0.2,0.7,0.3,1.1c0.1,0.4,0.4,0.7,0.5,1c0.1,0.4,0.1,0.8,0.2,1.1c0.1,0.4,0.4,0.7,0.5,1
				c0.1,0.4-0.1,0.8,0,1.2s0,0.8,0.1,1.1s0.3,0.7,0.3,1.1c0,0.4,0.2,0.7,0.3,1.1c0.1,0.4,0.3,0.6,0.6,0.9c0.3,0.3,0.9,0.7,1.4,0.6
				c0.5-0.2,1.1-1,1.1-1.4c0-0.3-0.4-0.5-0.6-0.8c-0.1-0.3,0-0.6-0.1-0.9c-0.1-0.4-0.6-0.7-0.7-1.1c-0.1-0.4,0.2-0.9,0.1-1.3
				c-0.1-0.4-0.2-0.8-0.3-1.2s-0.5-0.7-0.5-1.2c-0.1-0.4,0-0.9-0.1-1.3c-0.1-0.4-0.2-0.8-0.3-1.2s-0.4-0.7-0.5-1.1
				c-0.1-0.4,0.1-0.9,0.1-1.3c-0.1-0.4-0.5-0.8-0.5-1.2c-0.1-0.4-0.1-0.8-0.1-1.2s0.2-0.9,0.1-1.3c0-0.4,0-0.8,0-1.2
				s-0.2-0.8-0.3-1.2c0-0.4-0.4-0.8-0.4-1.2s0.3-0.9,0.3-1.3c0-0.4-0.2-0.8-0.2-1.2c0-0.5-0.3-0.9-0.3-1.4s0.2-0.9,0.3-1.4
				c0-0.5-0.1-0.9-0.1-1.4s0-0.9-0.1-1.4c-0.1-0.4-0.3-0.9-0.4-1.3c-0.1-0.4-0.1-0.9-0.1-1.4c0-0.4,0.3-0.8,0.4-1.2
				c0.1-0.4,0.2-0.8,0.3-1.2s0.2-0.8,0.2-1.2c0.1-0.4,0.3-0.8,0.3-1.2s0-0.8,0-1.2s0-0.8,0-1.2s0-0.8,0-1.2s-0.4-0.8-0.3-1.2
				c0-0.4,0.1-0.7,0.1-1.1c0-0.4-0.1-0.7-0.1-1.1c0-0.4,0.3-0.7,0.3-1.1c0-0.4,0.1-0.7,0.1-1.1c0-0.4,0.2-0.7,0.2-1.1
				c0.1-0.5-0.1-1.1,0-1.5c0.2-0.4,0.7-0.8,1.3-0.8s0.8,0.6,0.9,1c0.1,0.4,0.1,0.9,0.2,1.3c0.1,0.4,0.6,0.6,0.7,1
				c0.1,0.4,0.2,0.7,0.4,1.1c0.1,0.4,0,0.8,0.2,1.2c0.1,0.4,0.6,0.6,0.7,1c0.1,0.4-0.2,0.9-0.1,1.2c0.1,0.4,0.3,0.7,0.4,1.1
				c0.1,0.4,0.6,0.6,0.7,1c0.1,0.4,0.1,0.8,0.2,1.2c0.1,0.4,0.3,0.7,0.3,1.1c0.1,0.4-0.1,0.8,0,1.2s0.5,0.7,0.6,1.1
				c0.1,0.4,0.1,0.8,0.2,1.1c0.1,0.4,0.1,0.8,0.2,1.2s0.3,0.7,0.3,1.1s0.2,0.8,0.3,1.1c0.1,0.4,0.3,0.7,0.4,1.1
				c0.1,0.4-0.2,0.8-0.1,1.2s0.5,0.7,0.6,1.1c0.1,0.4-0.1,0.8,0,1.2s0.2,0.8,0.3,1.1c0.1,0.4,0.3,0.7,0.4,1.1
				c0.1,0.4,0.2,0.7,0.3,1.1c0.1,0.4,0.3,0.7,0.4,1.1c0.1,0.4,0.2,0.8,0.3,1.1c0.1,0.4,0.1,0.8,0.2,1.1c0.1,0.4,0.1,0.8,0.2,1.2
				s0.6,0.6,0.7,1s0,0.8,0.1,1.2s0.2,0.8,0.3,1.1c0.1,0.4,0.4,0.7,0.5,1.1c0.1,0.4,0,0.8,0,1.2c0.1,0.4,0.2,0.7,0.3,1.1
				c0.1,0.4,0.3,0.7,0.4,1.1c0.1,0.4,0,0.8,0,1.2c0.1,0.4-0.1,0.8,0,1.2s0.1,0.8,0.2,1.2c0.1,0.3,0.5,0.6,0.7,0.9
				c0.2,0.3,0.2,0.7,0.4,1c0.2,0.3,0.6,0.5,0.7,0.8c0.2,0.3,0.2,0.7,0.3,1.1c0.1,0.4,0.2,0.8,0.7,0.8c0.6,0,0.7-0.5,0.8-0.9
				c0.1-0.3,0.2-0.6,0.1-0.9c-0.1-0.3-0.5-0.5-0.5-0.8c0-0.4,0.1-0.7,0.1-1.1c0-0.4-0.3-0.7-0.3-1.1c0-0.4,0-0.7,0-1.1
				c0-0.4,0.4-0.8,0.4-1.1c0-0.4-0.6-0.7-0.6-1c0-0.4,0.1-0.7,0-1.1c0-0.4,0-0.7-0.1-1.1c0-0.4,0.1-0.7,0.1-1.1
				c0-0.4-0.4-0.7-0.4-1.1c0-0.4,0.1-0.7,0-1.1c0-0.4,0-0.7,0-1.1c0-0.4,0-0.7,0-1.1c0-0.4-0.2-0.7-0.2-1.1c0-0.4,0-0.7,0-1.1
				c0-0.4,0.3-0.7,0.3-1.1c0-0.4,0.1-0.7,0.1-1.1c0-0.4,0-0.7-0.1-1.1c0-0.4-0.1-0.7-0.1-1.1c0-0.4-0.4-0.7-0.4-1.1
				c0-0.4-0.1-0.7,0-1.1c0-0.4,0.3-0.7,0.4-1.1c0-0.4,0.2-0.7,0.3-1.1c0-0.4-0.2-0.8-0.1-1.2s0-0.8,0.1-1.1c0.1-0.4,0.4-0.7,0.4-1.1
				c0-0.4,0.1-0.8,0.1-1.1c0-0.4,0-0.8,0-1.1c0-0.4-0.1-0.8-0.1-1.1c0-0.4,0.4-0.7,0.5-1.1c0.1-0.4-0.1-0.8,0-1.1
				c0.1-0.4,0.5-0.6,0.6-1s0.1-0.8,0.2-1.1c0.2-0.4,0.2-1,0.8-0.9c0.6,0.1,0.3,0.6,0.4,1.1c0.1,0.4,0.4,0.8,0.4,1.3
				c0.1,0.4-0.3,0.9-0.2,1.4c0.1,0.4,0.2,0.9,0.3,1.3s0.1,0.9,0.2,1.3c0.1,0.4,0.4,0.8,0.5,1.3c0.1,0.4-0.3,0.9-0.2,1.4
				c0.1,0.4,0.5,0.8,0.6,1.2s0,0.9,0.1,1.3c0.1,0.4,0.1,0.8,0.1,1.3c0.1,0.4,0.1,0.8,0.2,1.3c0.1,0.4,0.1,0.8,0.2,1.3
				c0.1,0.4,0.3,0.8,0.4,1.2s0,0.9,0.2,1.3c0.1,0.4,0.2,0.8,0.4,1.2c0.2,0.4,0.4,0.8,0.6,1.2s0.2,0.8,0.2,1.2
				c0.1,0.4,0.1,0.8,0.1,1.3c0,0.4,0.2,0.9,0.2,1.3c0,0.4-0.3,0.9-0.3,1.3c0,0.4,0,0.9,0.1,1.3c0.1,0.4,0.3,0.8,0.4,1.2
				s0.4,0.8,0.5,1.2s0.1,0.9,0.2,1.3c0.1,0.4,0.2,0.8,0.4,1.2c0.1,0.4,0.5,0.7,0.7,1.1c0.2,0.4,0.1,0.9,0.3,1.3
				c0.2,0.4,0.2,0.8,0.4,1.2c0.2,0.4,0.8,0.6,0.9,1s-0.1,0.9,0,1.3c0.1,0.4,0.5,0.8,0.6,1.2s-0.1,0.9,0,1.3c0.1,0.4,0.3,0.8,0.5,1.2
				s0.4,0.8,0.7,1.1c0.3,0.3,0.8,0.3,1.1,0.6c0.3,0.2,0.8,0.3,1.1,0.5c0.4,0.3,0.6,0.7,0.9,0.8c0.4,0.2,0.8,0.2,1.1-0.2
				c0.2-0.2,0.1-0.7,0.3-1.2c0.1-0.4,0.7-0.5,0.9-0.9c0.1-0.4-0.1-0.9,0.1-1.2s0.6-0.6,0.8-0.9c0.2-0.3,0.2-0.8,0.3-1.1
				c0.2-0.3,0.5-0.6,0.6-1s0-0.9,0.2-1.2s0.5-0.6,0.7-0.9c0.2-0.3,0.4-0.7,0.6-1s0.6-0.5,0.8-0.9c0.2-0.3,0.1-0.8,0.3-1.1
				c0.2-0.4,0.3-0.7,0.4-1.1c0.1-0.4,0.2-0.8,0.4-1.2c0.3-0.4,0.6-0.5,0.9-0.7s0.5-0.1,0.8,0.3c0.2,0.2,0.4,0.4,0.7,0.8
				c0.2,0.3,0.2,0.7,0.4,1.1c0.1,0.4,0.4,0.7,0.5,1c0.1,0.4,0.3,0.7,0.3,1.1c0.1,0.4,0,0.8,0.1,1.1c0,0.4,0,0.8,0,1.1
				c0,0.4,0.1,0.8,0.1,1.2s-0.1,0.8,0,1.2c0,0.4,0.3,0.8,0.3,1.2s0,0.8,0,1.2s-0.3,0.7-0.3,1.1c-0.1,0.4,0.1,0.8,0,1.2
				s-0.3,0.7-0.4,1.1c-0.1,0.4-0.3,0.7-0.4,1.1c-0.1,0.4,0,0.8-0.1,1.2s-0.4,0.7-0.5,1.1c-0.1,0.4-0.3,0.7-0.5,1
				c-0.2,0.4-0.2,0.8-0.4,1.1c-0.2,0.3-0.4,0.7-0.6,1s-0.4,0.7-0.5,1.1c-0.2,0.4-0.4,0.7-0.5,1.1c-0.1,0.4-0.3,0.8-0.3,1.1
				c-0.1,0.4-0.1,0.8-0.1,1.2c-0.1,0.4,0,0.8,0,1.2c-0.1,0.4-0.4,0.7-0.5,1.1c-0.1,0.4,0,0.8-0.1,1.2s-0.2,0.8-0.4,1.3
				c-0.1,0.4-0.4,0.8-0.5,1.2c-0.2,0.4-0.4,0.8-0.5,1.2s0.1,0.9,0,1.3c-0.1,0.4-0.2,0.8-0.3,1.3c-0.1,0.4,0,0.9-0.1,1.3
				c0,0.4-0.4,0.8-0.4,1.3c0,0.4,0.2,0.9,0.1,1.3c-0.1,0.4-0.2,0.8-0.3,1.3c0,0.4,0.1,0.9,0.1,1.3c0,0.4-0.2,0.9-0.2,1.3
				c0,0.4,0.1,0.9,0.1,1.3c0,0.4-0.3,0.8-0.4,1.2c-0.1,0.4-0.3,0.7-0.5,1.1c-0.1,0.4-0.3,0.8-0.4,1.2c-0.1,0.4-0.4,0.8-0.4,1.2
				c0,0.4,0.2,0.8,0.2,1.2c0,0.4,0,0.8,0.1,1.2c0,0.4,0.2,0.8,0.2,1.2c0,0.4,0,0.8-0.1,1.2c0,0.4-0.3,0.8-0.4,1.1
				c-0.1,0.4,0.2,0.9,0.1,1.2c-0.1,0.4-0.3,0.8-0.4,1.1c-0.1,0.4-0.2,0.8-0.2,1.2c0,0.4,0.2,0.8,0.2,1.2c0,0.4,0,0.8,0,1.2
				c0,0.4-0.3,0.8-0.3,1.2c0,0.4,0.2,0.8,0.2,1.2c0,0.4-0.7,0.7-0.6,1c0,0.5,0.4,0.5,0.9,0.6s0.4-0.1,0.7-0.5
				c0.2-0.5,0.6-0.8,0.6-1.3c0-0.4,0.1-0.8,0.2-1.2c0-0.4,0.2-0.8,0.2-1.2c0-0.4,0-0.8,0.1-1.2c0-0.4-0.1-0.8-0.1-1.2
				c0-0.4,0-0.8,0.1-1.2c0.1-0.4,0.1-0.8,0.2-1.2c0.1-0.4,0.5-0.7,0.6-1.1s-0.2-0.9-0.1-1.3s0.1-0.8,0.2-1.2
				c0.1-0.4,0.2-0.8,0.3-1.2c0.1-0.4,0.2-0.8,0.3-1.2c0.1-0.4-0.1-0.8,0-1.3c0.1-0.4,0.2-0.8,0.2-1.2c0.1-0.4,0.2-0.8,0.2-1.2
				c0.1-0.4,0-0.8,0.1-1.2s0.2-0.8,0.3-1.2s0-0.8,0.1-1.2s0.2-0.8,0.2-1.2c0.1-0.4,0.5-0.7,0.6-1.1s-0.1-0.9,0-1.3
				c0.1-0.4,0-0.8,0-1.2s0.4-0.8,0.4-1.2s0.2-0.8,0.2-1.2s-0.2-0.9-0.1-1.3c0.1-0.4,0.2-0.8,0.4-1.1c0.2-0.4,0.5-0.6,0.7-1
				s0.2-0.8,0.4-1.1c0.2-0.4,0.3-0.7,0.5-1.1c0.1-0.4,0.2-0.8,0.4-1.1c0.1-0.4,0.6-0.6,0.7-1c0.2-0.4,0.3-0.7,0.5-1.1
				c0.2-0.4,0-0.8,0.1-1.2s0.5-0.7,0.6-1.1c0.1-0.4,0-0.8,0-1.3c0.1-0.4,0.4-0.8,0.4-1.2c0.1-0.4-0.1-0.9,0-1.3
				c0.1-0.4,0.2-0.8,0.3-1.2c0.1-0.4,0.5-0.7,0.6-1.1c0.1-0.4,0.1-0.8,0.2-1.2s0.4-0.8,0.5-1.2s-0.1-0.8,0-1.2c0-0.4,0-0.8,0.1-1.2
				c0-0.4,0.3-0.8,0.3-1.2s0-0.8,0-1.2s-0.2-0.7-0.2-1.1c0-0.4,0.2-0.7,0.1-1.1c0-0.4-0.4-0.7-0.4-1.1c0-0.4,0.2-0.8,0.2-1.1
				c0-0.4-0.2-0.7-0.3-1.1c0-0.4,0-0.7-0.1-1.1c-0.1-0.4-0.2-0.7-0.3-1.1c-0.1-0.4-0.1-0.7-0.1-1.1c0-0.5,0-0.9-0.1-1.3
				c-0.1-0.4-0.2-0.8-0.4-1.2c-0.2-0.4-0.5-0.6-0.8-1s-0.4-0.8-0.7-1.1c-0.4-0.3-0.8-0.4-1.2-0.5c-0.4-0.1-0.8-0.1-1.3,0
				c-0.4,0.1-0.9,0-1.3,0.2c-0.3,0.2-0.4,0.8-0.6,1.2s-0.6,0.6-0.8,1c-0.2,0.4-0.4,0.8-0.6,1.2s-0.4,0.8-0.6,1.2s-0.1,0.9-0.3,1.3
				c-0.2,0.4-0.5,0.7-0.7,1.1c-0.2,0.4-0.3,0.8-0.5,1.2s-0.4,0.8-0.6,1.2s-0.6,0.7-0.7,1.1l0.9,0.4c-0.2,0.4-0.4,0.8-0.7,1.3
				c-0.2,0.4-0.5,0.7-1.1,0.7c-0.4,0-0.8,0.1-1-0.1c-0.3-0.2-0.3-0.7-0.4-1c-0.2-0.3-0.5-0.6-0.6-0.8c-0.1-0.3-0.5-0.6-0.7-0.9
				c-0.1-0.3,0.1-0.8,0-1.2c-0.1-0.3-0.3-0.7-0.4-1s-0.5-0.6-0.6-0.9c-0.1-0.3,0-0.8-0.1-1.1s-0.2-0.7-0.3-1
				c-0.1-0.3-0.6-0.5-0.7-0.9c-0.1-0.3,0-0.8-0.1-1.1c-0.1-0.4-0.1-0.7-0.1-1.1c0-0.4,0.1-0.7,0.1-1.1c0-0.4,0-0.8,0-1.1
				c0-0.4-0.2-0.7-0.3-1.1c-0.1-0.4-0.1-0.9-0.3-1.3c-0.1-0.4-0.5-0.7-0.7-1.1c-0.2-0.4-0.3-0.8-0.4-1.2s0.1-0.9,0.1-1.4
				c-0.1-0.4-0.5-0.8-0.6-1.2c0-0.4,0.2-0.9,0.2-1.3c0-0.4,0-0.9-0.1-1.3c0-0.4-0.1-0.9-0.2-1.3c-0.1-0.4-0.5-0.8-0.6-1.2
				s0.1-0.9,0-1.3c-0.1-0.4-0.4-0.8-0.5-1.2s0-0.9-0.1-1.3c-0.1-0.4-0.1-0.9-0.2-1.3c-0.1-0.4-0.2-0.9-0.3-1.3
				c-0.1-0.4-0.2-0.8-0.3-1.3c-0.1-0.4-0.4-0.8-0.5-1.2s-0.1-0.8-0.2-1.3c-0.1-0.4-0.1-0.9-0.2-1.3c-0.1-0.4-0.3-0.8-0.5-1.2
				c-0.1-0.4-0.5-0.7-0.7-1.1c-0.1-0.4-0.3-0.8-0.4-1.1c-0.2-0.4-0.1-0.9-0.4-1.1c-0.3-0.2-0.6-0.3-1.1-0.4c-0.5,0-0.9,0.1-1.3,0.2
				c-0.4,0.2-0.8,0.4-1,0.7c-0.3,0.3-0.3,0.8-0.5,1.2c-0.1,0.3-0.6,0.5-0.7,0.9c-0.1,0.3-0.3,0.7-0.4,1s-0.3,0.7-0.5,1
				c-0.1,0.3-0.2,0.7-0.3,1.1c-0.1,0.4,0,0.7-0.1,1.1c-0.1,0.4,0,0.7,0,1.1c0,0.4-0.1,0.7-0.1,1.1c0,0.4-0.2,0.7-0.2,1.1
				c-0.1,0.4-0.1,0.8-0.1,1.2s-0.1,0.8-0.2,1.2c0,0.4-0.2,0.8-0.2,1.2s0,0.8,0,1.2s0.1,0.8,0.1,1.2s-0.2,0.8-0.2,1.2s0,0.8,0,1.2
				s-0.1,0.8-0.1,1.2c0,0.6,0.6,1.1,0.5,1.7c0,0.3-0.1,1-0.4,1.1c-0.5,0.1-0.8-0.6-0.9-0.9c-0.1-0.4,0.2-0.8,0.1-1.2s-0.5-0.6-0.6-1
				s0.1-0.8,0-1.2s-0.5-0.6-0.6-1s0.1-0.8,0-1.1c-0.1-0.4-0.1-0.7-0.2-1.1s-0.5-0.6-0.6-1s-0.3-0.7-0.4-1c-0.1-0.4,0.2-0.8,0.1-1.2
				c-0.1-0.3-0.6-0.6-0.7-0.9c-0.1-0.3,0-0.8-0.2-1.1c-0.1-0.3-0.2-0.7-0.3-1.1c-0.1-0.4-0.3-0.7-0.4-1.1c-0.1-0.4-0.3-0.7-0.4-1.1
				c-0.1-0.4-0.3-0.8-0.4-1.1c-0.1-0.4-0.1-0.8-0.2-1.2s-0.2-0.8-0.2-1.2s0-0.8-0.1-1.2c0-0.4-0.1-0.8-0.1-1.2s-0.2-0.8-0.3-1.2
				c-0.1-0.4-0.3-0.7-0.5-1.1c-0.2-0.4-0.4-0.7-0.6-1.1c-0.2-0.4-0.2-0.8-0.3-1.2c-0.2-0.4-0.4-0.7-0.6-1.1
				c-0.1-0.4-0.4-0.8-0.5-1.2c-0.2-0.4-0.2-0.9-0.4-1.2c-0.2-0.4-0.5-0.6-0.9-0.9c-0.3-0.2-0.7-0.5-1.2-0.5s-0.9,0.2-1.3,0.4
				c-0.4,0.2-0.8,0.3-1.2,0.6c-0.3,0.3-0.7,0.5-1,0.9s-0.5,0.8-0.7,1.1c-0.2,0.4-0.5,0.8-0.7,1.2s-0.3,0.9-0.5,1.3
				c-0.1,0.5-0.1,0.9-0.2,1.4c-0.1,0.5-0.1,0.9,0,1.4c0,0.5,0.3,0.9,0.3,1.4c0.1,0.5,0,1-0.1,1.4c0,0.4-0.1,0.8-0.2,1.3
				c0,0.4-0.1,0.8-0.2,1.3c-0.1,0.4-0.1,0.8-0.1,1.3c0,0.4,0.1,0.8,0.1,1.3c0,0.4,0,0.8,0,1.3c0,0.4-0.2,0.9-0.1,1.3
				c0.1,0.4,0.4,0.8,0.4,1.2c0.1,0.4,0,0.9,0,1.3c0,0.4,0.2,0.9,0.2,1.3c0,0.4-0.4,0.8-0.4,1.3c0,0.4,0.3,0.9,0.2,1.3
				c0,0.4,0,0.8,0,1.3C27.8,195.8,28.2,196,27.9,196.6z"/>
		</g>
		<g>
			<path d="M111.4,263.7c0.4,0,0.8-0.1,1.2-0.1s0.8,0.3,1.2,0.3s0.8-0.4,1.2-0.4s0.8,0,1.2-0.1c0.4,0,0.8-0.1,1.1-0.2
				c0.4-0.1,0.8-0.1,1.2-0.2s0.8-0.2,1.2-0.3c0.4-0.1,0.7-0.3,1.1-0.4c0.4-0.1,0.8,0,1.2-0.1s0.8-0.1,1.2-0.2s0.7-0.6,1-0.7
				c0.4-0.1,0.9,0.1,1.2,0c0.4-0.1,0.7-0.5,1-0.6c0.4-0.1,0.8,0,1.2-0.1s0.7-0.4,1.1-0.6c0.4-0.1,0.6-0.5,1-0.6
				c0.4-0.2,0.6-0.4,1-0.6c0.3-0.2,0.7-0.3,1.1-0.5c0.3-0.2,0.7-0.4,1-0.6s0.7-0.4,1-0.6s0.7-0.3,1.1-0.5c0.3-0.2,0.8-0.2,1.1-0.4
				c0.3-0.2,0.7-0.4,1-0.6c0.3-0.2,0.5-0.7,0.8-1c0.3-0.2,0.8-0.2,1.2-0.4c0.3-0.2,0.5-0.7,0.8-0.9s0.7-0.4,1-0.6
				c0.3-0.2,0.7-0.4,1-0.7c0.3-0.2,0.7-0.4,1-0.6c0.3-0.2,0.5-0.6,0.8-0.9c0.3-0.2,0.6-0.5,0.9-0.8c0.3-0.3,0.6-0.4,0.9-0.7
				c0.3-0.3,0.7-0.4,0.9-0.7c0.3-0.3,0.4-0.7,0.7-1s0.3-0.8,0.5-1.1c0.3-0.3,0.4-0.6,0.7-0.9c0.2-0.3,0.5-0.6,0.8-0.9
				c0.2-0.3,0.7-0.4,0.9-0.7s0.4-0.6,0.7-1c0.2-0.3,0.4-0.7,0.6-1c0.2-0.3,0.6-0.6,0.8-0.9c0.2-0.3,0.3-0.7,0.5-1.1
				c0.2-0.3,0.5-0.6,0.7-1s0.4-0.7,0.6-1c0.2-0.4,0.4-0.8,0.6-1.2c0.2-0.4,0-1,0.1-1.4c0.2-0.4,0.5-0.8,0.6-1.2
				c0.2-0.4,0.2-0.9,0.4-1.3c0.2-0.4,0.7-0.7,0.8-1.1c0.2-0.4,0.1-0.9,0.2-1.3c0.2-0.4,0.6-0.7,0.8-1.1c0.1-0.4,0-0.9,0.1-1.3
				c0.1-0.3,0.5-0.4,0.6-0.7c0.1-0.2-0.2-0.8,0.1-0.9c0.4,0,0,0.7,0.1,0.9c0.1,0.4,0.3,0.8,0.5,1.1s0.5,0.6,0.7,1
				c0.2,0.3,0.5,0.6,0.7,0.9c0.2,0.3,0.7,0.5,0.9,0.8s0.4,0.7,0.6,1c0.2,0.3,0.5,0.6,0.7,1c0.2,0.3,0.4,0.7,0.6,1
				c0.1,0.4,0.2,0.7,0.3,1.1c0.1,0.4,0.2,0.7,0.4,1.1c0.1,0.4,0.1,0.8,0.3,1.1s0.6,0.5,0.8,0.8s0.2,0.8,0.4,1.1s0.4,0.6,0.6,1
				c0.2,0.3,0.3,0.7,0.5,1s0.6,0.6,0.8,0.8c0.2,0.3,0.6,0.5,0.9,0.7c0.3,0.3,0.3,0.7,0.6,1s0.6,0.5,0.8,0.8c0.3,0.4,0.2,0.8,0.3,1.1
				c0.1,0.4,0.4,0.7,0.3,1.1c0,0.4-0.4,0.7-0.5,1.1c-0.1,0.4-0.2,0.8-0.4,1.2s0,0.9-0.1,1.3c-0.2,0.4-0.5,0.7-0.7,1
				c-0.2,0.4-0.3,0.8-0.5,1.1c-0.2,0.4-0.7,0.5-0.9,0.9c-0.2,0.3-0.4,0.7-0.7,1c-0.2,0.3-0.3,0.8-0.5,1.1s-0.3,0.7-0.5,1.1
				c-0.2,0.4-0.5,0.7-0.6,1c-0.2,0.4-0.3,0.7-0.5,1.1s-0.4,0.7-0.6,1.1c-0.2,0.4-0.5,0.7-0.7,1s0,0.9-0.2,1.2
				c-0.2,0.3-0.7,0.4-0.9,0.7c-0.2,0.3-0.5,0.6-0.7,0.9s-0.3,0.7-0.5,1s-0.6,0.5-0.8,0.8s-0.4,0.6-0.6,0.9c-0.2,0.3-0.4,0.6-0.6,0.9
				c-0.2,0.3-0.1,0.8-0.3,1.1c-0.2,0.3-0.3,0.7-0.4,1c-0.2,0.3-0.5,0.6-0.6,1c-0.1,0.3-0.3,0.7-0.5,1s-0.5,0.6-0.7,0.9
				s-0.4,0.6-0.7,0.9s-0.4,0.6-0.7,0.9s-0.6,0.4-0.9,0.7c-0.3,0.3-0.3,0.7-0.5,1s-0.8,0.4-0.9,0.7c-0.2,0.3-0.2,0.8-0.3,1.1
				c-0.2,0.3-0.4,0.7-0.5,1c-0.2,0.3-0.2,0.8-0.5,1c-0.2,0.3-0.5,0.5-0.7,0.8s-0.4,0.6-0.6,0.9c-0.2,0.3-0.7,0.3-1,0.6
				c-0.2,0.3-0.5,0.6-0.7,0.8c-0.2,0.3-0.5,0.6-0.7,0.8c-0.2,0.3-0.4,0.6-0.7,0.9c-0.2,0.3-0.6,0.4-0.9,0.7
				c-0.3,0.3-0.6,0.5-0.8,0.7c-0.3,0.3-0.3,0.8-0.5,1c-0.3,0.3-0.5,0.5-0.8,0.7s-0.8,0.2-1.1,0.5c-0.3,0.2-0.6,0.4-0.9,0.6
				c-0.4,0.3-0.5,0.9-0.8,1c-0.4,0.1-0.8-0.1-1.2-0.4c-0.3-0.2-0.5-0.5-0.9-0.8c-0.3-0.2-0.6-0.5-1-0.7c-0.3-0.2-0.7-0.5-1-0.6
				c-0.4-0.2-0.8-0.2-1.1-0.4c-0.3-0.2-0.7-0.4-1-0.6s-0.7-0.4-1-0.7c-0.3-0.3-0.5-0.6-0.7-0.9c-0.3-0.3-0.6-0.5-0.9-0.7
				c-0.3-0.3-0.6-0.5-0.9-0.8c-0.3-0.2-0.6-0.4-1-0.6c-0.3-0.2-0.6-0.5-0.9-0.7c-0.3-0.2-0.7-0.4-1-0.6s-0.8-0.2-1.1-0.5
				c-0.4-0.3-0.5-0.8-0.9-1c-0.3-0.3-0.8-0.4-1.2-0.7c-0.3-0.3-0.6-0.7-0.9-1c-0.3-0.3-0.6-0.7-0.9-1c-0.4-0.3-0.9-0.3-1.3-0.5
				c-0.4-0.3-0.5-0.9-0.9-1.1s-0.9-0.2-1.3-0.4c-0.4-0.2-0.7-0.5-1.1-0.8c-0.4-0.3-0.6-0.6-1-0.9s-0.8-0.4-1.1-0.7
				c-0.4-0.2-0.6-0.7-1-0.9c-0.4-0.2-0.8-0.5-1.2-0.7c-0.3-0.2-0.8-0.1-1.1-0.4s-0.4-0.6-0.7-0.8c-0.3-0.2-0.5-0.4-0.9-0.5
				c-0.3-0.1-0.5,0.1-0.7,0.3c-0.3,0.2-0.8,0.1-1,0.4c-0.3,0.6,0.5,0.8,0.9,1.1c0.3,0.3,0.6,0.6,0.9,0.9c0.3,0.3,0.5,0.7,0.8,1
				s0.6,0.6,0.9,0.9c0.3,0.3,0.6,0.6,0.9,0.9c0.3,0.3,0.8,0.5,1.1,0.7c0.3,0.3,0.6,0.5,0.9,0.8s0.8,0.3,1,0.6
				c0.3,0.3,0.3,0.8,0.6,1.1c0.3,0.3,0.8,0.3,1.1,0.5s0.5,0.6,0.8,0.9c0.3,0.2,0.7,0.4,1,0.7c0.3,0.2,0.6,0.5,0.9,0.7
				c0.3,0.2,0.8,0.3,1.1,0.5s0.7,0.4,1,0.6s0.5,0.7,0.8,0.9c0.3,0.2,0.6,0.5,0.9,0.8c0.3,0.2,0.7,0.4,1,0.6s0.7,0.4,1,0.6
				s0.7,0.4,1,0.6s0.5,0.7,0.8,0.9c0.3,0.2,0.6,0.5,0.9,0.7c0.3,0.2,0.6,0.5,0.9,0.7c0.3,0.3,0.6,0.5,0.9,0.8
				c0.3,0.3,0.9,0.2,1.2,0.4c0.3,0.3,0.5,0.5,0.9,0.8c0.3,0.2,0.5,0.6,0.9,0.8c0.3,0.2,0.7,0.4,1,0.5c0.3,0.2,0.7,0.4,1,0.6
				s0.8,0.2,1.2,0.4c0.3,0.2,0.5,0.6,0.8,0.6c0.3,0.1,0.7-0.1,1-0.2s0.7,0,1-0.2c0.4-0.1,0.8-0.4,1.2-0.6s0.8-0.3,1.2-0.5
				s0.8-0.3,1.2-0.5s0.7-0.5,1-0.8s0.8-0.4,1.1-0.8c0.3-0.3,0.3-0.9,0.6-1.2c0.3-0.3,0.8-0.5,1.1-0.8s0.4-0.8,0.7-1.1
				s0.6-0.6,0.9-0.9c0.3-0.3,0.6-0.6,0.9-0.9c0.3-0.3,0.4-0.9,0.7-1.2s0.9-0.4,1.2-0.7c0.3-0.3,0.3-0.9,0.6-1.2
				c0.3-0.3,0.7-0.6,0.9-0.9c0.3-0.3,0.5-0.7,0.8-1.1c0.3-0.3,0.6-0.6,0.9-1s0.7-0.5,1-0.9c0.2-0.3,0.6-0.5,0.8-0.8s0.4-0.7,0.6-1
				c0.2-0.3,0.2-0.8,0.4-1.1c0.2-0.3,0.5-0.6,0.7-0.9s0.3-0.8,0.5-1.1c0.2-0.3,0.8-0.3,1.1-0.6c0.2-0.3,0.1-0.9,0.4-1.2
				c0.2-0.3,0.8-0.4,1-0.7c0.2-0.3,0.4-0.6,0.7-0.9c0.2-0.3,0.1-0.9,0.3-1.2c0.2-0.3,0.5-0.6,0.7-0.9s0.5-0.6,0.7-0.9s0.5-0.6,0.7-1
				c0.1-0.4,0.1-0.8,0.2-1.2c0.1-0.4,0.3-0.7,0.4-1.1c0.1-0.4,0.2-0.8,0.4-1.1c0.2-0.3,0.3-0.7,0.5-1s0.3-0.7,0.5-1s0.7-0.5,0.9-0.8
				s0.2-0.8,0.4-1.1c0.2-0.4,0.4-0.7,0.6-1c0.1-0.4,0.1-0.8,0.2-1.2c0.1-0.4,0.6-0.6,0.7-1c0.1-0.4,0.2-0.7,0.3-1.1
				c0.1-0.4,0.1-0.8,0.3-1.1s0.2-0.8,0.4-1.1s0.4-0.7,0.6-1c0.2-0.3,0.5-0.6,0.7-1c0.1-0.4,0.3-0.7,0.3-1.1c0.1-0.4,0.1-0.8,0.1-1.2
				s-0.1-0.8-0.2-1.2c-0.1-0.4-0.2-0.8-0.4-1.1s-0.7-0.5-0.9-0.8s-0.4-0.7-0.7-1.1c-0.3-0.3-0.5-0.7-0.7-1c-0.3-0.3-0.6-0.6-0.8-1
				c-0.3-0.3-0.4-0.7-0.7-1.1c-0.2-0.4-0.4-0.8-0.6-1.1c-0.2-0.3-0.5-0.7-0.7-1s-0.6-0.6-0.8-1c-0.2-0.3-0.5-0.7-0.7-1
				c-0.2-0.4-0.3-0.8-0.4-1.2c-0.1-0.4-0.4-0.7-0.6-1.2c-0.1-0.4-0.1-0.9-0.3-1.2c-0.2-0.4-0.5-0.7-0.7-1.1
				c-0.2-0.4-0.2-0.9-0.5-1.2s-0.8-0.5-1.1-0.8s-0.3-0.8-0.6-1.2c-0.3-0.3-0.6-0.6-0.9-0.9c-0.3-0.4-0.6-0.8-0.9-1.2
				c-0.3-0.4-0.6-0.8-1.2-1c-0.6-0.2-0.8-0.8-0.8-1.3c0-0.4,0.1-0.8,0.2-1.2c0-0.4,0.3-0.8,0.3-1.2s-0.1-0.8-0.1-1.2
				s-0.3-0.8-0.3-1.2s0-0.8,0-1.2s0.1-0.8,0.1-1.2s-0.1-0.8-0.1-1.2s0-0.8-0.1-1.2c0-0.4-0.1-0.8-0.2-1.2c-0.1-0.4,0-0.8,0-1.2
				c-0.1-0.4,0-0.8,0-1.2c-0.1-0.4-0.5-0.7-0.5-1.1c0-0.4,0.3-0.8,0.3-1.1c0-0.4-0.2-0.7-0.3-1.1c-0.1-0.4,0-0.7,0-1.1
				c0-0.4-0.4-0.7-0.4-1.1c0-0.4,0.1-0.7,0.2-1.1c0-0.4,0.1-0.7,0.2-1.1c0.1-0.4-0.1-0.8,0-1.1c0.1-0.4,0.2-0.7,0.2-1.1
				c0-0.4,0.2-0.8,0.2-1.1c-0.1-0.4-0.5-0.7-0.6-1c-0.1-0.4-0.1-0.7-0.1-1.1c0-0.4,0.2-0.7,0.3-1.1c0-0.4,0-0.8,0.1-1.3
				c0-0.4,0.1-0.8,0.1-1.3c0.1-0.4,0.1-0.8,0.2-1.3c0.1-0.4,0-0.9,0-1.3c0-0.4-0.1-0.9,0-1.3c0.1-0.4,0.4-0.8,0.5-1.2
				s0.3-0.8,0.4-1.2c0.1-0.4,0.2-0.8,0.2-1.2s0.3-0.9,0.3-1.3c0-0.4-0.5-0.8-0.6-1.2s-0.1-0.9-0.1-1.3c0-0.4,0.1-0.9,0.1-1.3
				c0-0.4,0-0.9,0.1-1.3c0.1-0.4,0.2-0.8,0.3-1.2s0.3-0.8,0.4-1.2c0.1-0.4,0-0.8,0.1-1.3c0-0.4,0.2-0.8,0.2-1.3
				c0-0.4,0.1-0.8,0.1-1.3c0-0.4,0-0.8,0-1.3c0-0.4-0.1-0.9-0.1-1.3c0-0.4,0-0.8,0-1.1c0.1-0.4,0.3-0.7,0.4-1.1
				c0.1-0.4-0.1-0.8,0-1.1c0.1-0.4,0.4-0.7,0.5-1.1c0-0.4-0.2-0.8-0.1-1.1c0.1-0.4,0.5-0.7,0.5-1c0.1-0.4,0-0.8,0-1.1
				c0.1-0.4,0.1-0.7,0.1-1.1c0-0.4,0.2-0.7,0.2-1.1c0-0.4,0-0.7,0-1.1c0-0.4,0-0.7,0-1.1c0-0.4-0.3-0.8-0.3-1.1
				c0-0.4-0.1-0.7-0.1-1.1c0-0.4,0.2-0.8,0.2-1.1c0-0.4-0.3-0.7-0.3-1.1c0-0.4,0.2-0.7,0.2-1.1c0-0.4-0.3-0.8-0.3-1.1
				c0-0.4,0-0.7,0-1.1c0-0.4,0.2-0.7,0.2-1.1c0-0.4-0.1-0.7-0.1-1.1c0-0.4,0.2-0.8,0.2-1.2s0-0.8-0.1-1.2c0-0.4,0.1-0.8,0-1.2
				c0-0.4-0.4-0.8-0.4-1.2c-0.1-0.4,0.3-0.8,0.2-1.2c0-0.4-0.5-0.8-0.5-1.2s0.1-0.8,0.1-1.2c-0.1-0.4-0.3-0.7-0.4-1.1
				c-0.1-0.4-0.2-0.7-0.4-1.1c-0.2-0.4-0.4-0.7-0.6-1.1c-0.2-0.4-0.1-0.9-0.3-1.2c-0.2-0.4-0.7-0.6-0.9-0.9
				c-0.2-0.4-0.2-0.8-0.3-1.2s0-0.8-0.1-1.2s-0.2-0.8-0.3-1.2s-0.4-0.7-0.6-1.1c-0.2-0.3-0.6-0.6-0.9-0.9c-0.3-0.3-0.8-0.8-1.2-0.7
				c-0.4,0.2-0.5,0.8-0.5,1.3s0,1,0.1,1.3c0,0.3,0.2,0.7,0.4,1s0.6,0.5,0.7,0.8c0.2,0.3,0.3,0.6,0.5,0.9c0.1,0.4,0.3,0.7,0.4,1.1
				c0.1,0.4,0.1,0.8,0.2,1.1c0.1,0.4,0.2,0.7,0.3,1.1c0.1,0.4,0.5,0.7,0.6,1c0.1,0.4,0.2,0.8,0.2,1.1c0.1,0.4-0.1,0.8,0,1.2
				c0,0.4,0.2,0.7,0.3,1.1c0,0.4,0.2,0.7,0.3,1.1c0.1,0.4-0.3,0.8-0.3,1.2s0.4,0.7,0.4,1.1c0,0.4-0.5,0.8-0.5,1.1
				c0,0.4,0,0.8,0.1,1.2c0,0.4,0.4,0.8,0.4,1.2s-0.1,0.9-0.1,1.3c0,0.4,0,0.8,0,1.3c0,0.4,0.3,0.8,0.3,1.3c0,0.4-0.3,0.9-0.3,1.3
				c0,0.4,0.1,0.8,0.2,1.3c0,0.4,0.2,0.8,0.2,1.3c0,0.4,0.2,0.9,0.1,1.3c0,0.4-0.2,0.8-0.3,1.3c0,0.4,0.1,0.9,0.1,1.3
				c0,0.4-0.5,0.8-0.6,1.2c0,0.4,0,0.9,0,1.3c0,0.4-0.1,0.8-0.1,1.3c0,0.4,0,0.9,0,1.3c0,0.4-0.4,0.8-0.4,1.2s-0.1,0.8-0.1,1.3
				c0,0.4,0,0.8,0.1,1.2c0,0.4,0.4,0.7,0.5,1.1c0,0.4,0.1,0.8,0.2,1.1c0,0.4,0,0.8-0.1,1.2c0,0.4-0.4,0.7-0.6,1
				c-0.1,0.4-0.3,0.7-0.4,1c-0.2,0.4-0.2,0.7-0.4,1.1c-0.1,0.4-0.2,0.7-0.3,1.1c0,0.4,0,0.7-0.1,1.1s0,0.7-0.1,1.1
				c0,0.4-0.3,0.7-0.4,1.1c0,0.4,0.1,0.8,0,1.1c0,0.4-0.2,0.7-0.2,1.1c0,0.4,0.4,0.8,0.4,1.1c0,0.4-0.3,0.7-0.4,1.1
				c0,0.4,0.3,0.8,0.3,1.1c0,0.4-0.4,0.7-0.4,1.1c0,0.4,0.2,0.7,0.2,1.1c0,0.4-0.2,0.7-0.2,1.1c0,0.4,0.1,0.8,0.1,1.1
				c-0.1,0.5-0.3,0.9-0.3,1.4s0.1,0.9,0,1.4c0,0.5,0.1,0.9,0.1,1.4s-0.1,0.9-0.1,1.4s-0.5,0.9-0.5,1.3c0,0.5-0.1,0.9-0.1,1.4
				s0.2,0.9,0.2,1.4s0.1,0.9,0,1.4c0,0.5-0.5,0.9-0.5,1.4c0,0.4,0.2,0.8,0.1,1.2c0,0.4,0,0.8,0,1.2s0.1,0.8,0,1.2
				c0,0.4-0.3,0.8-0.3,1.2s0.4,0.8,0.5,1.1c0,0.4-0.3,0.8-0.2,1.2c0,0.4,0.1,0.8,0.1,1.2c0.1,0.4,0.1,0.8,0.1,1.2
				c0.1,0.4,0.5,0.7,0.6,1.1c0.1,0.4-0.2,0.8-0.1,1.2c0.1,0.4,0,0.8,0,1.2s0.3,0.8,0.3,1.2s-0.2,0.8-0.2,1.2s0,0.8,0.1,1.2
				c0,0.4,0,0.8,0,1.2s-0.1,0.8-0.1,1.2s-0.1,0.8-0.1,1.2s0.2,0.8,0.2,1.2s-0.1,0.8-0.1,1.2s0,0.8,0,1.2s-0.2,0.8-0.3,1.1
				c0,0.4,0.2,0.8,0.1,1.2c-0.1,0.4-0.6,0.6-0.7,1c-0.1,0.4-0.2,0.8-0.3,1.1c-0.2,0.4-0.3,0.7-0.4,1.1c-0.2,0.4-0.5,0.7-0.6,1
				c-0.1,0.4-0.2,0.8-0.3,1.1c-0.1,0.4-0.3,0.7-0.4,1.1c-0.1,0.4,0.1,0.9-0.1,1.2c-0.2,0.4-0.5,0.7-0.6,1c-0.2,0.3-0.5,0.6-0.7,0.9
				c-0.2,0.3-0.2,0.8-0.4,1.1s-0.6,0.6-0.8,0.9c-0.2,0.3-0.4,0.7-0.6,1c-0.2,0.3-0.4,0.7-0.6,1c-0.2,0.3-0.3,0.7-0.6,1
				c-0.2,0.3-0.7,0.4-1,0.7s-0.5,0.6-0.7,0.9c-0.3,0.3-0.6,0.5-0.9,0.8c-0.3,0.3-0.6,0.6-0.9,0.8c-0.3,0.2-0.6,0.5-1,0.7
				c-0.3,0.2-0.6,0.5-0.9,0.8c-0.3,0.3-0.5,0.6-0.8,0.9c-0.3,0.3-0.6,0.5-0.9,0.8c-0.3,0.3-0.6,0.5-0.9,0.8
				c-0.3,0.3-0.5,0.7-0.8,0.9s-0.8,0.3-1.1,0.5s-0.7,0.3-1.1,0.5c-0.3,0.2-0.6,0.6-0.9,0.8c-0.3,0.2-0.8,0.3-1.1,0.5
				s-0.5,0.7-0.8,0.9s-0.6,0.5-1,0.7c-0.3,0.2-0.9,0.1-1.2,0.3s-0.7,0.4-1,0.6c-0.4,0.2-0.6,0.6-1,0.8c-0.4,0.1-0.9-0.1-1.2,0
				c-0.4,0.1-0.7,0.4-1.1,0.5c-0.4,0.1-0.8,0.1-1.2,0.3c-0.4,0.1-0.7,0.4-1.1,0.5c-0.4,0.1-0.7,0.4-1.1,0.5
				c-0.4,0.1-0.9-0.2-1.3-0.1c-0.4,0.1-0.7,0.5-1.1,0.6c-0.4,0.1-0.8,0.3-1.2,0.3c-0.4,0.1-0.8,0.1-1.2,0.2s-0.8,0-1.2,0
				c-0.4,0.1-0.8,0.1-1.2,0.1c-0.4,0.1-0.7,0.4-1.1,0.4c-0.4,0.1-0.8,0.2-1.2,0.3c-0.4,0.1-0.9-0.3-1.2-0.2
				c-0.4,0.1-0.7,0.4-1.1,0.5c-0.4,0-0.8,0-1.2,0s-0.8,0.1-1.2,0.1s-0.8-0.3-1.2-0.2c-0.4,0-0.8,0.1-1.2,0.2c-0.4,0-0.8,0.2-1.2,0.3
				c-0.4,0.1-0.9,0.2-1,0.8c-0.1,0.6,0.4,0.7,0.8,0.9c0.3,0.2,0.7,0.2,1.1,0.3c0.4,0.1,0.7,0.2,1.1,0.3c0.4,0.1,0.7,0.3,1.1,0.4
				c0.4,0,0.7-0.2,1.1-0.1c0.4,0,0.7-0.2,1.1-0.2C110.8,263.4,111.1,263.7,111.4,263.7z"/>
		</g>
		<g>
			<path d="M92.4,272c0-0.4-0.2-0.8-0.2-1.2c0-0.4,0.3-0.8,0.4-1.2c0-0.4-0.1-0.8-0.1-1.2c0-0.4,0.1-0.8,0.1-1.2
				c0-0.4,0.2-0.8,0.2-1.2c0-0.4-0.2-0.8-0.2-1.2c0-0.4,0.2-0.8,0.2-1.2c0-0.4-0.3-0.8-0.3-1.2c0-0.4-0.1-0.8-0.4-1.1
				c-0.3-0.3-0.6-0.6-0.7-0.9c-0.2-0.4-0.1-1.4-0.6-1.3c-0.5,0-0.8,0.8-1,1.2c-0.1,0.4-0.2,0.8-0.2,1.2c0,0.4,0,0.8,0,1.2
				c0,0.4,0.2,0.8,0.2,1.2c0,0.4-0.3,0.8-0.3,1.2c0,0.4,0,0.8,0,1.2c0,0.4,0.1,0.8,0.1,1.2c0,0.4-0.2,0.8-0.2,1.2c0,0.4,0,0.8,0,1.2
				s-0.2,0.8-0.2,1.2c0,0.4-0.1,0.8-0.2,1.2c-0.1,0.4-0.1,0.8-0.2,1.2c-0.1,0.4,0.2,0.8,0.1,1.2c-0.1,0.4-0.3,0.8-0.4,1.1
				c0,0.4,0.2,0.8,0.3,1.2c0,0.4,0.1,0.7,0.1,1.1s-0.2,0.7-0.2,1.1s0.3,0.7,0.4,1.1c0,0.4-0.2,0.7-0.2,1.1s0.2,0.7,0.2,1.1
				s0.1,0.7,0.1,1.1s-0.5,0.7-0.5,1.1s0.1,0.7,0.1,1.1s0.1,0.8,0.2,1.1c0.1,0.4,0.6,0.6,0.7,0.9c0.1,0.4-0.1,0.8,0,1.1
				c0.1,0.4,0,0.7,0.1,1.1c0,0.3,0.1,0.7,0.1,1.1s0.4,0.6,0.8,0.6c0.4,0.1,0.7,0,0.9-0.3c0.2-0.3,0.2-0.8,0.4-1
				c0.2-0.3,0.6-0.5,0.8-0.8c0.2-0.3,0.1-0.8,0.3-1.1c0.2-0.3,0.3-0.7,0.5-1s0.7-0.5,0.8-0.8c0.2-0.3,0.1-0.8,0.3-1.2
				s0.5-0.6,0.7-0.9s0.4-0.6,0.6-1c0.2-0.3,0.6-0.5,0.8-0.8c0.2-0.3,0.1-0.8,0.3-1.2c0.2-0.3,0.5-0.6,0.7-0.9s0.5-0.6,0.7-0.9
				s0.4-0.6,0.6-1c0.2-0.3,0.3-0.7,0.4-1c0.2-0.3,0.7-0.5,0.8-0.8c0.2-0.3-0.1-0.9,0.1-1.2c0.2-0.3,0.7-0.5,0.9-0.8
				c0.2-0.3,0.3-0.7,0.5-1s0.7-0.4,0.9-0.7c0.2-0.3,0.2-0.8,0.5-1.1c0.2-0.3,0.5-0.6,0.7-0.9s0.2-0.7,0.4-1c0.1-0.3,0.3-0.6,0.4-1
				c0.1-0.3,0.3-0.7,0.3-1s0.3-0.7,0.3-1.1s-0.3-0.6-0.8-0.7c-0.5-0.2-0.4,0.1-0.7,0.4s-0.6,0.6-0.9,1c-0.2,0.4-0.7,0.6-0.9,1
				s-0.6,0.7-0.8,1c-0.2,0.4-0.3,0.9-0.5,1.2c-0.2,0.4-0.6,0.6-0.9,1c-0.2,0.4-0.6,0.6-0.8,1c-0.2,0.4-0.3,0.8-0.6,1.2
				c-0.2,0.4-0.5,0.7-0.7,1.1s-0.5,0.7-0.8,1.1c-0.2,0.4-0.2,0.9-0.3,1.3c-0.2,0.4-0.4,0.8-0.6,1.2c-0.2,0.4-0.3,0.8-0.5,1.2
				c-0.2,0.4-0.4,0.8-0.7,1.1c-0.2,0.3-0.2,0.7-0.4,1c-0.2,0.3-0.7,0.1-1,0c-0.5-0.1-0.6-0.3-0.8-0.6c-0.1-0.4-0.4-0.7-0.4-1.1
				c0-0.5,0.1-0.9,0.1-1.4s0-0.9,0-1.4s-0.1-0.9-0.1-1.4c0-0.3-0.1-0.7,0-1.1c0.1-0.3,0.3-0.7,0.3-1c0.1-0.3,0.3-0.7,0.3-1
				C92.6,272.7,92.4,272.3,92.4,272z"/>
		</g>
		<g>
			<path d="M39.1,312.7c0.4,0,0.8-0.1,1.2-0.1c0.4-0.1,0.8-0.1,1.2-0.2c0.4-0.1,0.8-0.3,1.1-0.4c0.4-0.1,0.8-0.2,1.2-0.3
				c0.4-0.1,0.8-0.2,1.2-0.2c0.4-0.1,0.7-0.4,1.1-0.5s0.8,0,1.2-0.1c0.4-0.1,0.7-0.5,1-0.6c0.4-0.1,0.8,0.1,1.2-0.1
				c0.4-0.1,0.7-0.5,1-0.6c0.4-0.1,0.9,0.1,1.2,0c0.4-0.1,0.6-0.5,1-0.7s0.7-0.5,1-0.6c0.4-0.1,0.8-0.2,1.2-0.3
				c0.4-0.1,0.7-0.3,1.1-0.5s0.7-0.4,1-0.6s0.8-0.4,1-0.7c0.2-0.3,0.4-0.7,0.6-1s0.3-0.7,0.6-1.1c0.2-0.3,0.4-0.7,0.7-1
				c0.3-0.4,0.7-0.6,1-1s0.6-0.7,0.8-1.2c0.2-0.5,0.7-1,0.1-1.4c-0.5-0.3-1.1,0-1.4,0.3c-0.3,0.2-0.8,0.3-1.1,0.5
				c-0.3,0.3-0.3,0.8-0.6,1.1c-0.3,0.3-0.6,0.5-0.8,0.8c-0.3,0.3-0.5,0.6-0.7,0.9c-0.3,0.3-0.6,0.6-0.9,0.8c-0.4,0.3-0.7,0.6-1,0.8
				c-0.4,0.3-0.9,0.3-1.2,0.6c-0.4,0.3-0.6,0.7-1,0.9c-0.4,0.2-0.9,0.2-1.3,0.4c-0.4,0.2-0.8,0.4-1.2,0.5c-0.4,0.1-0.8,0.2-1.3,0.3
				c-0.4,0.1-0.8,0.4-1.2,0.5c-0.4,0.1-0.9,0-1.3,0.1s-0.8,0.3-1.3,0.4c-0.4,0.1-0.8,0.5-1.2,0.5c-0.4,0.1-0.9-0.1-1.3,0
				s-0.9,0.3-1.3,0.4c-0.4,0-0.9-0.2-1.3-0.1c-0.4,0-0.9-0.1-1.3-0.1s-0.9,0.2-1.3,0.2c-0.4,0-0.9,0.2-1.3,0.1
				c-0.4,0-0.8-0.2-1.1-0.2c-0.4-0.1-0.8-0.1-1.1-0.2c-0.4-0.1-0.8-0.2-1.1-0.2c-0.4-0.1-0.8,0-1.2-0.1s-0.8-0.2-1.1-0.3
				c-0.4-0.1-0.7-0.4-1-0.6s-0.7-0.2-1.1-0.4c-0.4-0.2-0.7-0.4-1-0.6c-0.4-0.1-0.6-0.5-1-0.6c-0.3-0.2-0.8,0-1.2-0.2
				c-0.3-0.2-0.7-0.3-1-0.5s-0.5-0.7-0.8-0.8c-0.3-0.2-0.7-0.3-1-0.4c-0.3-0.2-0.8-0.1-1.2-0.3c-0.3-0.2-0.5-0.6-0.9-0.8
				c-0.3-0.2-0.8-0.2-1.1-0.4c-0.3-0.2-0.6-0.5-0.9-0.7c-0.3-0.2-0.7-0.2-1.1-0.4c-0.4-0.2-0.5-0.7-0.9-0.8
				c-0.3-0.2-0.9-0.1-1.2-0.3c-0.1-0.1,0.2-0.8,0.1-0.9c-0.3-0.2-0.6-0.1-0.9-0.2c-0.2-0.1-0.4-0.4-0.8,0c-0.3,0.3,0,0.6,0,0.8
				c0.1,0.3,0.2,0.5,0.4,0.8c0.2,0.4,0.1,1.1,0.5,1.4c0.3,0.3,0.8,0.2,1.1,0.4c0.3,0.2,0.6,0.6,0.9,0.8c0.3,0.2,0.6,0.5,0.9,0.7
				c0.3,0.2,0.9,0,1.2,0.3c0.3,0.2,0.5,0.6,0.8,0.9s0.6,0.5,0.9,0.8c0.3,0.3,0.6,0.6,0.9,0.8c0.3,0.3,0.6,0.5,0.9,0.7
				c0.3,0.2,0.7,0.4,1,0.6s0.8,0.2,1.1,0.4c0.4,0.2,0.7,0.5,1,0.6c0.4,0.2,0.7,0.3,1.1,0.5c0.4,0.1,0.7,0.3,1.1,0.4
				c0.4,0.1,0.8,0.1,1.2,0.2c0.4,0,0.8-0.2,1.2-0.1c0.4,0,0.8,0.2,1.1,0.3c0.4,0.1,0.9-0.1,1.2,0.1c0.4,0.1,0.7,0.4,1.1,0.5
				c0.4,0.1,0.7,0.2,1.1,0.3c0.4,0.1,0.7,0.3,1.1,0.3c0.4,0,0.8,0.4,1.2,0.5c0.4,0,0.8,0,1.2,0.1C38.4,312.5,38.8,312.6,39.1,312.7z
				"/>
		</g>
		<g>
			<path d="M97,114.2c0.1,0.5-0.1,1,0.1,1.4s0.8,0.6,1.1,0.9c0.2,0.3,0.4,0.7,0.7,0.9c0.3,0.3,0.5,0.6,0.8,0.9s0.7,0.4,1,0.7
				c0.3,0.3,0.5,0.6,0.8,0.9s0.3,0.7,0.6,1.1c0.2,0.3,0.4,0.7,0.6,1c0.2,0.3,0.5,0.7,0.7,1s0.7,0.5,1,0.8s0.7,0.4,1,0.7
				c0.3,0.2,0.4,0.8,0.7,1s0.8,0.2,1.2,0.4c0.3,0.2,0.5,0.7,0.8,0.9c0.3,0.2,0.6,0.5,0.9,0.7c0.3,0.2,0.8,0.2,1.2,0.4
				c0.3,0.2,0.5,0.7,0.8,0.9s0.6,0.5,0.9,0.7c0.3,0.2,0.9,0.1,1.2,0.3s0.6,0.4,1,0.6c0.3,0.2,0.6,0.5,1,0.7c0.3,0.2,0.7,0.3,1,0.5
				c0.3,0.1,0.5,0.6,0.8,0.9c0.3,0.4,0.9,0.7,1.3,0.4c0.3-0.4-0.1-0.9-0.3-1.2c-0.2-0.4-0.2-1-0.5-1.2c-0.2-0.3-0.8-0.4-1-0.6
				c-0.3-0.3-0.5-0.6-0.8-0.8c-0.3-0.3-0.5-0.6-0.7-0.9c-0.3-0.3-0.6-0.5-0.8-0.8c-0.3-0.3-0.6-0.4-0.9-0.7
				c-0.3-0.3-0.6-0.5-0.8-0.8c-0.3-0.3-0.6-0.5-0.8-0.8c-0.3-0.3-0.3-0.8-0.6-1.1c-0.3-0.3-0.6-0.5-0.9-0.8c-0.3-0.3-0.7-0.3-1-0.6
				c-0.3-0.2-0.4-0.7-0.6-0.9c-0.3-0.2-0.6-0.4-0.9-0.6c-0.3-0.2-0.7-0.3-1-0.5s-0.5-0.5-0.7-0.8c-0.3-0.2-0.5-0.5-0.8-0.7
				s-0.4-0.7-0.6-0.9c-0.3-0.2-0.7-0.3-0.9-0.5c-0.3-0.2-0.7-0.3-0.9-0.6c-0.3-0.2-0.5-0.5-0.7-0.8c-0.3-0.2-0.5-0.5-0.8-0.7
				s-0.6-0.4-0.9-0.6s-0.3-0.7-0.6-1c-0.3-0.3-0.3-1.1-0.6-1.3c-0.3-0.2-1.3-0.3-1.6-0.2C96.7,112.9,97,113.8,97,114.2z"/>
		</g>
		<g>
			<path d="M103.4,141.4c0-0.3-0.3-0.7-0.3-1s0.3-0.7,0.3-1s-0.1-0.7-0.2-1c-0.2-0.4-0.5-0.8-0.7-1.1c-0.3-0.3-0.7-0.7-1-0.9
				c-0.4-0.2-0.9-0.3-1.3-0.3s-0.8,0.4-1.2,0.6c-0.4,0.2-1,0.1-1.3,0.4c-0.3,0.3-0.3,0.9-0.4,1.3c-0.1,0.4-0.3,0.7-0.4,1.1
				c-0.1,0.4-0.1,0.8-0.1,1.1c0,0.4-0.3,0.8-0.3,1.1c0,0.4,0.2,0.8,0.2,1.2s-0.2,0.8-0.1,1.1c0,0.4,0.2,0.7,0.3,1.1
				c0.1,0.4,0,0.8,0.1,1.2s0.2,0.7,0.3,1.1c0.1,0.4,0.5,0.7,0.7,1c0.3,0.3,0.5,0.7,0.8,0.9c0.4,0.2,0.8,0.2,1.2,0.2
				c0.4,0,0.8,0,1.1-0.2c0.3-0.2,0.6-0.5,0.8-0.8c0.2-0.3,0.4-0.6,0.6-0.9c0.2-0.3,0.6-0.5,0.7-0.9c0.1-0.3,0-0.8,0-1.1
				c0.1-0.4-0.1-0.7,0-1.1c0-0.4,0.3-0.7,0.4-1.1c0-0.4-0.1-0.8,0-1.1C103.6,142,103.4,141.7,103.4,141.4z"/>
		</g>
		<g>
			<path d="M53,242.3c0-0.4-0.4-0.9-0.4-1.3c0-0.4,0.1-0.9,0.1-1.3c0-0.4,0.2-0.9,0.1-1.3c-0.1-0.4-0.4-0.8-0.5-1.2
				s-0.2-0.9-0.2-1.3c-0.1-0.4-0.1-0.9-0.1-1.3c-0.1-0.4-0.2-0.9-0.3-1.3c-0.1-0.4,0.1-1-0.1-1.4c-0.1-0.3-0.5-0.5-0.6-0.8
				c-0.2-0.4-0.6-0.7-0.9-0.8s-0.7-0.1-1.2,0.1c-0.5,0.2-0.9,0.5-1,0.9s0.2,0.8,0.4,1.2c0.2,0.4,0.3,0.8,0.5,1.1
				c0.2,0.4,0.2,0.8,0.4,1.2c0.2,0.4,0.2,0.8,0.3,1.2c0.1,0.4,0.3,0.7,0.4,1.2c0.1,0.4,0.3,0.8,0.4,1.2s0.4,0.8,0.4,1.2
				c0.1,0.4,0.2,0.8,0.3,1.2c0.1,0.4-0.2,0.8-0.2,1.3c0,0.4,0,0.8,0,1.2s0.1,0.8,0.1,1.2s-0.1,0.8-0.1,1.2s-0.2,0.8-0.3,1.2
				c-0.1,0.4,0.2,0.9,0.1,1.3c-0.1,0.4-0.7,0.7-0.8,1c0,0.3,0.2,0.8,0.8,1c0.4,0.2,0.8-0.1,1.1-0.5c0.2-0.3,0.1-0.7,0.2-1.2
				c0.1-0.4,0.5-0.7,0.5-1.1c0.1-0.4,0-0.8,0.1-1.2c0-0.4,0-0.8,0-1.2s0.2-0.8,0.2-1.2C52.7,243.1,53,242.7,53,242.3z"/>
		</g>
		<g>
			<path d="M108.6,291.1c-0.1,0.4-0.2,0.7-0.2,1.1s0.1,0.8,0.2,1.1c0.1,0.3,0.5,0.6,0.6,0.9s0.1,0.8,0.3,1.1
				c0.2,0.3,0.6,0.4,0.9,0.7c0.3,0.3,0.5,0.7,0.8,0.9c0.4,0.1,0.8,0.1,1.2,0.1c0.4-0.1,0.7-0.4,1-0.7c0.3-0.2,0.7-0.5,0.9-0.9
				c0.1-0.4,0.3-0.8,0.3-1.3c0-0.4,0-0.9-0.1-1.3c0-0.4-0.2-0.8-0.3-1.3c-0.1-0.4-0.3-0.8-0.5-1.2c-0.1-0.4-0.4-0.8-0.6-1.2
				c-0.2-0.4-0.4-0.7-0.7-1c-0.4-0.3-0.7-0.5-1.2-0.7c-0.5-0.1-0.9-0.4-1.4-0.2c-0.5,0.2-0.8,0.6-0.9,1.1c-0.1,0.4-0.2,0.9-0.2,1.4
				C108.7,290.1,108.6,290.5,108.6,291.1z"/>
		</g>
		<g>
			<path d="M111.8,315.1c0.1,0.3-0.2,0.8,0,1.1c0.1,0.3,0.4,0.6,0.6,0.9c0.2,0.3,0.4,0.6,0.6,0.9c0.2,0.3,0.6,0.4,0.9,0.7
				c0.2,0.3,0.3,0.7,0.6,0.9c0.3,0.4,0.7,0.4,1,0.4s0.7,0,1.1-0.1c0.4-0.1,0.8-0.2,1-0.4c0.3-0.2,0.5-0.5,0.5-0.9s0.2-0.8,0.2-1.2
				c0-0.4-0.3-0.8-0.4-1.2c-0.1-0.4-0.3-0.7-0.5-1.1s-0.3-0.7-0.6-1.1c-0.2-0.3-0.7-0.5-1-0.7c-0.2-0.2-0.4-0.5-0.7-0.5
				c-0.3-0.1-0.6-0.3-0.9-0.4c-0.4,0-0.8,0.2-1.1,0.2c-0.4,0.1-0.6,0.3-0.9,0.5c-0.3,0.2-0.7,0.4-0.8,0.8
				C111.5,314.3,111.8,314.6,111.8,315.1z"/>
		</g>
	</g>
</g>
</svg>
