<?xml version="1.0" encoding="utf-8"?>
<!-- Generator: Adobe Illustrator 24.2.2, SVG Export Plug-In . SVG Version: 6.00 Build 0)  -->
<svg version="1.1" id="Layer_1" xmlns="http://www.w3.org/2000/svg" xmlns:xlink="http://www.w3.org/1999/xlink" x="0px" y="0px"
	 viewBox="0 0 203 325" style="enable-background:new 0 0 203 325;" xml:space="preserve">
<style type="text/css">
	.st0{fill:#F8B618;}
</style>
<g>
	<g>
		<g>
			<path class="st0" d="M110,27.4c0.1,0.4,0.2,0.8,0.2,1.2c0.1,0.4,0.3,0.8,0.4,1.1c0,0.4-0.1,0.8-0.1,1.2c0,0.4,0.2,0.8,0.2,1.2
				s-0.5,0.8-0.5,1.2s0.3,0.8,0.2,1.2c0,0.4,0.1,0.8,0.1,1.2s-0.1,0.8-0.2,1.2c0,0.4-0.1,0.8-0.1,1.2s-0.3,0.8-0.3,1.2
				s0.2,0.8,0.2,1.2s-0.3,0.8-0.3,1.2c-0.1,0.4-0.3,0.7-0.4,1.1c-0.1,0.4-0.2,0.8-0.3,1.2s-0.4,0.7-0.5,1.1
				c-0.1,0.4-0.2,0.8-0.3,1.2s-0.1,0.8-0.1,1.2s-0.1,0.8-0.1,1.2s0.2,0.8,0.2,1.2c-0.1,0.4-0.1,0.8-0.2,1.2
				c-0.1,0.4-0.4,0.7-0.5,1.1c-0.1,0.4-0.1,0.8-0.1,1.2c-0.1,0.4-0.2,0.8-0.3,1.2s-0.2,0.8-0.3,1.1c-0.1,0.4,0,0.8-0.1,1.2
				s-0.3,0.7-0.4,1.1c-0.1,0.4-0.1,0.8-0.2,1.2c-0.1,0.4,0,0.8-0.1,1.2s-0.2,0.8-0.4,1.2s-0.7,0.5-0.9,0.9c-0.2,0.3-0.1,0.9-0.3,1.2
				c-0.2,0.4-0.6,0.6-0.7,1c-0.1,0.4,0.1,0.8,0.1,1.2c-0.1,0.4-0.2,0.8-0.3,1.2c-0.1,0.4-0.4,0.7-0.4,1.1c-0.1,0.4,0.1,0.8,0,1.2
				c-0.1,0.4-0.3,0.7-0.4,1.1c-0.1,0.4,0,0.8-0.1,1.2c-0.1,0.4-0.3,0.7-0.4,1.1c-0.1,0.4-0.4,0.7-0.5,1.1s0.2,0.9,0.2,1.3
				c-0.1,0.4-0.3,0.8-0.3,1.1c-0.1,0.4-0.4,0.7-0.5,1.1s0,0.8-0.1,1.2c-0.1,0.4-0.4,0.7-0.6,1c-0.2,0.4,0,0.9-0.2,1.2
				c-0.2,0.4-0.5,0.7-0.6,1c-0.2,0.4-0.5,0.7-0.6,1.1S99,83.7,99,84.1c0,0.4,0,0.8,0,1.2c0,0.4,0.2,0.8,0.2,1.2
				c0,0.4-0.2,0.8-0.3,1.2c-0.1,0.4,0.1,0.8,0,1.2c-0.1,0.4-0.2,0.8-0.3,1.2c-0.1,0.4-0.4,0.7-0.6,1.1c-0.1,0.4-0.3,0.7-0.4,1.1
				c-0.1,0.4,0,0.8-0.1,1.2c-0.2,0.4-0.2,0.8-0.4,1.2c-0.2,0.4-0.4,0.7-0.6,1.1c-0.2,0.4-0.2,0.7-0.3,1.1s-0.4,0.7-0.4,1.1
				c-0.1,0.4-0.1,0.8-0.1,1.2c-0.1,0.4,0,0.8,0,1.2c-0.1,0.4-0.2,0.8-0.3,1.2c-0.1,0.4-0.3,0.8-0.4,1.2c0,0.4-0.1,0.8-0.1,1.2
				c0,0.4-0.1,0.8-0.2,1.2c0,0.4,0.2,0.8,0.1,1.2c-0.1,0.4-0.2,0.8-0.3,1.2c-0.1,0.4,0,0.8,0,1.2c-0.1,0.4-0.2,0.8-0.3,1.2
				c-0.1,0.4-0.4,0.7-0.5,1.1s-0.2,0.7-0.4,1.1c-0.1,0.4,0.2,0.9,0,1.3c-0.1,0.4-0.6,0.7-0.7,1c-0.1,0.4-0.2,0.8-0.2,1.2
				c-0.1,0.4-0.3,0.8-0.3,1.2c0,0.4,0.3,0.8,0.2,1.2c0,0.4-0.3,0.8-0.3,1.2c0,0.4,0.1,0.8,0,1.2c-0.1,0.4-0.3,0.8-0.4,1.2
				c0,0.4,0.2,0.8,0.2,1.2c0,0.4-0.4,0.8-0.4,1.2c0,0.4,0,0.8,0,1.2c-0.1,0.4,0.1,0.8,0,1.2c-0.1,0.4,0,0.8-0.1,1.2
				s-0.6,0.7-0.6,1.1c-0.1,0.4,0,0.8-0.1,1.2c0,0.4,0,0.8,0,1.2c-0.1,0.4-0.1,0.8-0.1,1.2c-0.1,0.4,0,0.8,0,1.2s-0.1,0.8-0.2,1.2
				c0,0.4-0.5,0.8-0.5,1.2s0.1,0.8,0.1,1.2s0,0.8,0,1.2s0.3,0.8,0.3,1.2s-0.3,0.8-0.3,1.2c-0.1,0.4-0.2,0.8-0.3,1.2
				c-0.1,0.4-0.3,0.8-0.4,1.2s0,0.8,0,1.2s0,0.8,0,1.2s-0.1,0.8-0.2,1.2s0.1,0.8,0,1.2c0,0.4-0.4,0.8-0.5,1.2c0,0.4,0.1,0.8,0.2,1.2
				c0,0.4,0.2,0.8,0.3,1.2c0.1,0.4,0,0.8,0.1,1.2c0,0.4,0,0.8-0.1,1.2c0,0.4,0.3,0.8,0.2,1.2c-0.1,0.4-0.2,0.8-0.3,1.2
				c-0.1,0.4,0,0.8-0.1,1.2s-0.2,0.8-0.2,1.2s-0.2,0.8-0.1,1.2s0,0.8,0.1,1.2s0.4,0.7,0.5,1.1c0.1,0.4,0,0.8,0,1.2s0.3,0.8,0.2,1.2
				c0,0.4-0.2,0.8-0.2,1.2s-0.2,0.8-0.2,1.2s0.1,0.8,0.2,1.2c0,0.4-0.3,0.8-0.3,1.2s0.5,0.8,0.5,1.2s-0.2,0.8-0.2,1.2s0,0.8,0,1.2
				s0.2,0.8,0.3,1.2c0.1,0.4-0.2,0.8-0.1,1.2s0.1,0.8,0.2,1.2s0.1,0.8,0.1,1.2s0.1,0.8,0.1,1.2s0.5,0.7,0.5,1.1
				c0.1,0.4,0.2,0.8,0.2,1.2s-0.1,0.8-0.1,1.2s0,0.8,0,1.2s0,0.8,0,1.2s0.1,0.8,0.1,1.2s-0.2,0.8-0.1,1.2c0,0.4,0.2,0.8,0.2,1.2
				c0.1,0.4,0.4,0.7,0.5,1.1c0.1,0.4,0.1,0.8,0.2,1.2s0,0.8,0,1.2c0.1,0.4,0.3,0.8,0.4,1.2s0.2,0.8,0.3,1.2c0.1,0.4,0.2,0.8,0.3,1.2
				c0.1,0.4,0.3,0.8,0.4,1.2s0.1,0.8,0.1,1.2s-0.4,0.8-0.4,1.2s0.2,0.8,0.2,1.2s0.2,0.8,0.3,1.2c0.1,0.4,0.2,0.7,0.3,1.1
				c0.1,0.4,0.2,0.8,0.4,1.1c0.2,0.4,0.1,0.9,0.2,1.2c0.2,0.4,0.6,0.7,0.7,1.1c0.1,0.4-0.2,0.8-0.2,1.2s0.3,0.8,0.3,1.2
				s0.2,0.8,0.2,1.2s0,0.8,0.1,1.2s0,0.8,0.1,1.2s-0.1,0.8,0,1.2s0.2,0.8,0.3,1.2c0.1,0.4,0.5,0.7,0.5,1.1c0.1,0.4,0.2,0.8,0.2,1.2
				c0.1,0.4-0.1,0.8-0.1,1.2c0.1,0.4,0.2,0.8,0.3,1.2c0.1,0.4,0.3,0.7,0.4,1.1c0.1,0.4,0,0.8,0.1,1.2s0.4,0.7,0.5,1.1
				c0.1,0.4,0.3,0.7,0.5,1.1c0.1,0.4,0.3,0.8,0.4,1.1c0.1,0.4,0.4,0.7,0.5,1.1c0.1,0.4,0.1,0.8,0.1,1.2c0.1,0.4-0.1,0.8-0.1,1.2
				c0.1,0.4,0.3,0.7,0.5,1.1c0.1,0.4,0.3,0.8,0.5,1.1c0.2,0.4,0.4,0.7,0.6,1c0.2,0.3,0.2,0.8,0.4,1.2s0.7,0.6,0.8,1s0.1,0.8,0.2,1.2
				c0.1,0.4,0.1,0.8,0.2,1.2c0.1,0.4,0.5,0.7,0.6,1.1c0.1,0.4-0.2,0.9-0.1,1.3c0.1,0.4,0.5,0.7,0.6,1.1c0.1,0.4,0.3,0.8,0.4,1.1
				c0.1,0.4,0.1,0.8,0.2,1.2c0.1,0.4,0.3,0.7,0.4,1.1c0.1,0.4,0.1,0.8,0.3,1.2s0.5,0.6,0.7,1c0.2,0.3,0.4,0.7,0.6,1.1
				c0.2,0.4,0,0.9,0.2,1.2c0.1,0.4,0.6,0.7,0.7,1c0.1,0.4,0,0.8,0.1,1.2s0.3,0.8,0.4,1.1c0.1,0.4,0.3,0.7,0.5,1.1
				c0.1,0.4,0.2,0.8,0.4,1.1c0.1,0.4,0.3,0.7,0.5,1.1c0.2,0.4,0.4,0.7,0.6,1.1s0,0.8,0.2,1.2c0.1,0.4,0.3,0.7,0.5,1.1
				c0.1,0.4,0.3,0.7,0.5,1.1c0.1,0.4,0.3,0.7,0.4,1.1c0.1,0.4,0.6,0.6,0.7,1c0.2,0.4,0,0.9,0.1,1.3s0.6,0.6,0.8,1
				c0.1,0.4,0.2,0.8,0.3,1.2c0.1,0.4,0.3,0.7,0.5,1.1s0.3,0.7,0.5,1.1c0.1,0.4,0.3,0.8,0.4,1.1c0.1,0.4,0,0.8,0.1,1.2
				c0.1,0.4,0.3,0.7,0.5,1.1c0.1,0.4,0.3,0.7,0.5,1.1s0.4,0.7,0.6,1.1c0.2,0.4,0,0.9,0.1,1.2c0.1,0.4,0.3,0.7,0.4,1.1
				c0.1,0.4,0.6,0.7,0.7,1c0.2,0.4,0.4,0.7,0.6,1.1c0.2,0.4,0.3,0.8,0.4,1.1c0.1,0.4-0.1,0.9,0,1.3s0.4,0.7,0.5,1.1
				c0,0.4-0.1,0.8-0.1,1.2c0,0.4,0.4,0.8,0.4,1.2c0,0.4-0.2,0.8-0.1,1.2c0.1,0.4,0,0.8,0.1,1.2c0.1,0.4,0.2,0.8,0.3,1.2
				c0.1,0.4,0,0.8,0.1,1.2c0,0.4,0.4,0.8,0.4,1.2c0,0.4-0.1,0.8,0,1.2c0.1,0.4,0.3,0.8,0.4,1.2c0.1,0.4,0,0.8,0.1,1.2
				c0.1,0.4,0.1,0.8,0.1,1.2c0,0.4,0.2,0.8,0.1,1.2c-0.1,0.4-0.3,0.8-0.4,1.2c-0.1,0.4,0.1,0.9-0.1,1.2c-0.1,0.4-0.7,0.7-0.8,1.1
				s-0.1,0.8-0.2,1.2c-0.1,0.4-0.3,0.7-0.4,1.1c-0.1,0.4-0.2,0.8-0.3,1.2c-0.2,0.4-0.3,0.7-0.5,1.1s-0.4,0.7-0.6,1
				c-0.2,0.4-0.4,0.7-0.6,1c-0.2,0.4,0,0.9-0.2,1.2c-0.2,0.3-0.7,0.5-1,0.8s-0.2,0.8-0.5,1.2c-0.3,0.3-0.7,0.5-1,0.8
				s-0.6,0.6-0.9,0.8c-0.3,0.3-0.7,0.4-1,0.6s-0.5,0.8-0.8,1c-0.4,0.2-0.9,0-1.3,0.1c-0.4,0.2-0.7,0.4-1.1,0.5
				c-0.4,0.1-0.7,0.4-1.1,0.5c-0.4,0.2-0.7,0.5-1.1,0.6c-0.4,0.1-0.8,0.2-1.2,0.3c-0.4,0.1-0.8,0.2-1.2,0.3
				c-0.4,0.1-0.8,0.2-1.2,0.3c-0.4,0.1-0.8,0-1.2,0.1s-0.8,0.1-1.2,0.2c-0.4,0-0.8,0-1.2,0s-0.8,0.1-1.2,0.1s-0.8,0.2-1.2,0.3
				c-0.4,0.1-0.8,0-1.2,0.1c-0.4,0.1-0.8,0.4-1.2,0.4c-0.4,0.1-0.8,0.1-1.2,0.1c-0.4,0-0.8-0.1-1.2-0.2c-0.4-0.1-0.8-0.3-1.2-0.4
				c-0.4-0.1-0.7-0.6-1.1-0.7s-0.9,0.3-1.3,0.2c-0.4-0.1-0.8-0.1-1.2-0.2c-0.4-0.1-0.8-0.3-1.1-0.4c-0.4-0.1-0.8-0.3-1.1-0.4
				c-0.4-0.1-0.8-0.2-1.2-0.3c-0.4-0.1-0.8,0-1.2-0.1c-0.4-0.1-0.7-0.6-1-0.7c-0.4-0.1-0.7-0.3-1.1-0.4s-0.7-0.3-1.1-0.4
				s-0.8-0.3-1.2-0.4c-0.4-0.1-0.8,0-1.2-0.1c-0.4-0.1-0.7-0.4-1.1-0.5s-0.9,0.1-1.2-0.1c-0.4-0.2-0.6-0.6-1-0.8
				c-0.4-0.2-0.7-0.4-1.1-0.6s-0.7-0.3-1.1-0.5s-0.8-0.2-1.2-0.4c-0.4-0.2-0.8-0.3-1.1-0.5c-0.4-0.2-0.6-0.7-0.9-0.9
				c-0.4-0.2-0.9-0.1-1.2-0.3c-0.3-0.2-0.7-0.4-1.1-0.6c-0.3-0.2-0.7-0.4-1.1-0.6c-0.3-0.2-0.6-0.6-0.9-0.8
				c-0.3-0.2-0.6-0.6-0.9-0.8c-0.3-0.2-0.7-0.4-1.1-0.6c-0.3-0.2-0.8-0.2-1.2-0.4c-0.3-0.2-0.6-0.5-1-0.7s-0.6-0.5-1-0.8
				c-0.3-0.2-0.7-0.3-1.1-0.5c-0.3-0.2-0.6-0.5-0.9-0.8s-0.7-0.4-1-0.8c-0.3-0.3-0.4-0.7-0.7-1c-0.3-0.3-0.5-0.7-0.8-0.9
				c-0.3-0.3-0.7-0.4-1-0.6c-0.4-0.2-0.7-0.5-1-0.7c-0.4-0.2-0.7-0.4-1-0.6s-0.7-0.3-1-0.6c-0.3-0.3-0.5-0.6-0.7-0.9
				s-0.8-0.4-1.1-0.7c-0.2-0.3-0.1-0.9-0.4-1.2c-0.2-0.3-0.8-0.4-1.1-0.7c-0.3-0.3-0.6-0.5-0.9-0.8s-0.5-0.6-0.8-0.9
				s-0.4-0.8-0.7-1.1c-0.3-0.3-0.8-0.4-1-0.7c-0.3-0.3-0.4-0.7-0.7-1c-0.3-0.3-0.8-0.3-1.1-0.6c-0.3-0.3-0.6-0.6-0.8-0.9
				c-0.3-0.3-0.2-0.9-0.5-1.2c-0.3-0.3-0.9-0.3-1.1-0.7c-0.2-0.3-0.4-0.7-0.7-1c-0.2-0.3-0.5-0.7-0.7-1s-0.3-0.7-0.6-1.1
				c-0.2-0.3-0.3-0.8-0.6-1.1c-0.3-0.3-0.9-0.2-1.2-0.5c-0.3-0.3-0.4-0.7-0.7-1c-0.3-0.3-0.6-0.6-0.8-0.9c-0.2-0.3-0.4-0.7-0.7-1
				c-0.2-0.3-0.4-0.7-0.7-1c-0.2-0.3-0.6-0.5-0.9-0.9c-0.2-0.3-0.2-0.9-0.4-1.2c-0.2-0.3-0.6-0.5-0.8-0.9c-0.2-0.3-0.5-0.6-0.7-1
				c-0.2-0.3-0.1-0.9-0.3-1.2c-0.2-0.3-0.8-0.5-1-0.8s-0.4-0.7-0.5-1.1c-0.2-0.4-0.3-0.8-0.5-1.1c-0.2-0.4-0.3-0.7-0.5-1.1
				s-0.4-0.7-0.6-1c-0.2-0.4-0.3-0.7-0.5-1.1s-0.5-0.6-0.7-1s-0.3-0.7-0.5-1.1s-0.3-0.8-0.5-1.1c-0.2-0.4-0.3-0.8-0.5-1.1
				c-0.1-0.4-0.2-0.8-0.3-1.2c-0.1-0.4-0.1-0.8-0.3-1.2c-0.1-0.4-0.1-0.8-0.3-1.2s-0.6-0.6-0.8-1s0-0.9-0.2-1.2
				c-0.2-0.4-0.5-0.6-0.7-1s-0.4-0.7-0.6-1.1c-0.1-0.4,0-0.9-0.2-1.2c-0.2-0.4-0.6-0.6-0.8-1c-0.2-0.3-0.2-0.8-0.4-1.2
				s-0.7-0.6-0.8-1s-0.2-0.8-0.3-1.2s0-0.8,0-1.2c-0.1-0.4-0.5-0.7-0.5-1.1c-0.1-0.4,0.2-0.9,0.1-1.3c-0.1-0.4-0.4-0.7-0.5-1.1
				c-0.1-0.4-0.5-0.7-0.6-1c-0.1-0.4-0.1-0.8-0.2-1.2c-0.1-0.4-0.2-0.8-0.3-1.1c-0.1-0.4-0.5-0.7-0.6-1.1c-0.1-0.4,0.2-0.8,0.1-1.2
				c0-0.4-0.4-0.8-0.5-1.2s0.1-0.8,0-1.2s-0.1-0.8-0.2-1.2c-0.1-0.4-0.5-0.7-0.7-1c-0.2-0.4-0.4-0.7-0.5-1.1
				c-0.1-0.4-0.2-0.8-0.3-1.2s-0.4-0.7-0.5-1.1c-0.1-0.4-0.2-0.8-0.3-1.2s0.2-0.9,0.1-1.3c-0.1-0.4-0.2-0.8-0.3-1.2
				s-0.2-0.8-0.3-1.2s-0.5-0.7-0.6-1.1c-0.1-0.4-0.3-0.8-0.4-1.1c-0.1-0.4-0.3-0.8-0.4-1.1c-0.1-0.4,0.2-0.9,0.1-1.3
				c-0.1-0.4-0.3-0.7-0.4-1.1c-0.1-0.4-0.2-0.8-0.3-1.2s-0.1-0.8-0.2-1.2c-0.1-0.4-0.3-0.8-0.3-1.2c-0.1-0.4,0-0.8,0-1.2
				s-0.2-0.8-0.3-1.2c0-0.4,0.3-0.8,0.2-1.2s-0.1-0.8-0.2-1.2c-0.1-0.4-0.4-0.7-0.6-1.1c-0.1-0.4-0.3-0.7-0.4-1.1
				c-0.1-0.4-0.2-0.8-0.3-1.2s0-0.8-0.1-1.2c0-0.4-0.2-0.8-0.3-1.2c0-0.4,0.2-0.8,0.2-1.2s-0.2-0.8-0.2-1.2
				c-0.1-0.4-0.2-0.8-0.3-1.2c0-0.4,0-0.8,0-1.2s0.2-0.8,0.2-1.2s-0.5-0.7-0.5-1.1c-0.1-0.4,0.1-0.8,0-1.2s-0.2-0.8-0.3-1.2
				s0-0.8-0.1-1.2s-0.3-0.8-0.3-1.2c-0.1-0.4-0.1-0.8-0.2-1.2c-0.1-0.4-0.2-0.8-0.3-1.2s0.2-0.9,0.1-1.3c-0.1-0.4-0.6-0.7-0.7-1.1
				c0-0.4,0-0.8,0-1.2s0.2-0.8,0.2-1.2s0.2-0.8,0.2-1.2s-0.3-0.8-0.3-1.2s0.2-0.8,0.2-1.2s-0.3-0.8-0.4-1.2c0-0.4-0.2-0.8-0.2-1.2
				s0.2-0.8,0.1-1.2c0-0.4-0.2-0.8-0.2-1.2s0.2-0.8,0.1-1.2s-0.3-0.8-0.4-1.2s0.1-0.8,0.1-1.2s-0.2-0.8-0.3-1.2s0-0.8-0.1-1.2
				s-0.2-0.8-0.3-1.2s-0.1-0.8-0.1-1.2s0-0.8,0-1.2s-0.4-0.8-0.3-1.2c0-0.4,0.4-0.8,0.5-1.2c0-0.4,0.1-0.8,0.1-1.2s-0.1-0.8-0.1-1.2
				s-0.2-0.8-0.1-1.2c0-0.4,0-0.8,0-1.2s0.3-0.8,0.3-1.2s0.1-0.8,0-1.2s-0.3-0.8-0.4-1.2c-0.1-0.4-0.1-0.8-0.2-1.2
				c-0.1-0.4-0.4-0.8-0.4-1.2s0.5-0.8,0.5-1.2s-0.2-0.8-0.2-1.2s0.3-0.8,0.3-1.2s0-0.8,0-1.2s-0.1-0.8-0.1-1.2s0-0.8,0-1.2
				s-0.1-0.8-0.1-1.2S3,142.1,3,141.7s0.1-0.8,0.1-1.2s-0.2-0.8-0.2-1.2s0.2-0.8,0.2-1.2s0-0.8,0-1.2s0.2-0.8,0.2-1.2
				s-0.2-0.8-0.2-1.2s0.4-0.8,0.4-1.2s0-0.8,0.1-1.2c0-0.4,0.1-0.8,0.1-1.2s-0.2-0.8-0.1-1.2c0.1-0.4,0.2-0.8,0.2-1.2
				s-0.1-0.8-0.1-1.2c0-0.4,0.2-0.8,0.2-1.2c0.1-0.4,0.3-0.8,0.3-1.2c0.1-0.4,0.2-0.8,0.2-1.2c0.1-0.4,0.2-0.8,0.2-1.2
				c0-0.4,0.1-0.8,0.1-1.2c0.1-0.4-0.2-0.8-0.2-1.2c0.1-0.4,0.2-0.8,0.2-1.2c0.1-0.4,0.2-0.8,0.2-1.2c0-0.4,0.2-0.8,0.2-1.2
				c0-0.4-0.2-0.8-0.2-1.2c0-0.4-0.2-0.8-0.2-1.2c0-0.4,0.4-0.8,0.4-1.2c0-0.4,0-0.8,0.1-1.2c0.1-0.4,0.2-0.8,0.3-1.2
				c0.1-0.4,0-0.8,0.1-1.2c0.1-0.4,0-0.8,0.1-1.2c0.1-0.4,0.3-0.8,0.4-1.2c0-0.4,0.2-0.8,0.2-1.2c0-0.4-0.3-0.8-0.2-1.2
				c0-0.4,0.2-0.8,0.3-1.2c0.1-0.4,0.1-0.8,0.2-1.2c0.1-0.4,0.1-0.8,0.2-1.2c0.1-0.4,0.2-0.8,0.3-1.2c0.1-0.4,0.1-0.8,0.2-1.2
				c0.1-0.4,0.2-0.8,0.2-1.2c0-0.4,0.3-0.8,0.3-1.2c0-0.4,0-0.8,0-1.2c0-0.4,0-0.8,0-1.2c0.1-0.4,0.2-0.8,0.3-1.2
				c0.1-0.4,0.5-0.7,0.6-1.1s-0.1-0.9,0-1.3s0.6-0.7,0.7-1.1c0.1-0.4-0.1-0.8-0.1-1.3c0-0.4,0.2-0.8,0.2-1.2c0-0.4-0.5-0.8-0.5-1.2
				c0-0.4,0.4-0.8,0.5-1.2c0.1-0.4,0-0.8,0.2-1.2c0.2-0.4,0.6-0.6,0.7-1c0.2-0.4,0.2-0.8,0.4-1.2c0.2-0.4,0.1-0.8,0.2-1.2
				c0.1-0.4,0.4-0.7,0.5-1.1s0.3-0.8,0.4-1.1c0.1-0.4,0.2-0.8,0.3-1.1c0.1-0.4-0.3-0.9-0.2-1.3s0.5-0.7,0.6-1.1s0-0.8,0.1-1.2
				c0.1-0.4,0.2-0.8,0.3-1.1c0.1-0.4,0.5-0.7,0.6-1.1s0-0.8,0.1-1.2c0.2-0.4,0.4-0.7,0.6-1c0.2-0.4,0.1-0.8,0.2-1.2
				c0.2-0.4,0.7-0.6,0.8-1s-0.1-0.9-0.1-1.3c0.1-0.4,0.4-0.7,0.5-1.1s0-0.8,0.1-1.2s0.2-0.8,0.3-1.2s0.3-0.8,0.4-1.2
				c0.1-0.4,0.4-0.7,0.6-1.1c0.1-0.4,0.2-0.8,0.3-1.2s0.2-0.8,0.4-1.2s0.4-0.7,0.6-1.1c0.2-0.4,0.1-0.9,0.3-1.2
				c0.2-0.4,0.4-0.7,0.6-1.1c0.2-0.4,0.6-0.6,0.7-1c0.2-0.4,0.5-0.6,0.7-1c0.2-0.3,0.3-0.7,0.6-1.1c0.2-0.3,0.3-0.8,0.5-1.1
				s0.4-0.7,0.6-1c0.2-0.4,0.6-0.7,0.7-1.1c0.1-0.4,0.3-0.8,0.5-1.2c0.1-0.4-0.1-0.9,0.1-1.3c0.1-0.4,0.5-0.7,0.7-1s0.5-0.7,0.7-1
				s0.3-0.7,0.6-1.1c0.2-0.3,0.3-0.8,0.5-1.1s0.7-0.5,0.9-0.9c0.2-0.3,0.5-0.6,0.8-0.9c0.3-0.3,0.4-0.8,0.7-1
				c0.3-0.3,0.6-0.6,0.9-0.8c0.3-0.3,0.6-0.5,0.9-0.9c0.3-0.3,0.3-0.8,0.5-1.2c0.2-0.3,0.7-0.5,1-0.8c0.2-0.3,0.4-0.7,0.6-1.1
				c0.2-0.3,0.6-0.5,0.9-0.9c0.3-0.3,0.5-0.6,0.8-1c0.3-0.3,0.2-0.9,0.4-1.2c0.3-0.3,0.7-0.5,1-0.8s0.6-0.6,0.9-0.9s0.5-0.7,0.8-1
				s0.5-0.7,0.8-1s0.7-0.4,1-0.7c0.3-0.3,0.4-0.8,0.7-1.1c0.3-0.3,0.6-0.6,1-0.8c0.3-0.2,0.8-0.2,1.2-0.4c0.4-0.2,0.7-0.5,1-0.7
				c0.4-0.2,0.9-0.2,1.2-0.5c0.3-0.3,0.4-0.8,0.7-1.1c0.3-0.3,0.5-0.6,0.8-1c0.3-0.3,0.7-0.5,1-0.8s0.6-0.6,0.9-0.8
				c0.3-0.2,0.6-0.5,1-0.7c0.3-0.2,0.6-0.6,0.9-0.8c0.4-0.2,0.8-0.3,1.1-0.5c0.4-0.2,0.7-0.5,1-0.7s0.7-0.5,1-0.7
				c0.4-0.2,0.7-0.4,1.1-0.6c0.4-0.2,0.7-0.4,1.1-0.5c0.4-0.2,0.8-0.3,1.1-0.5c0.4-0.2,0.8-0.4,1.1-0.6c0.3-0.2,0.6-0.6,0.9-0.8
				s0.7-0.5,1-0.7s0.8-0.3,1.1-0.5c0.4-0.2,0.6-0.7,1-0.9s0.9,0.1,1.3-0.1c0.4-0.1,0.7-0.4,1.1-0.5s0.7-0.4,1.1-0.6
				c0.4-0.2,0.7-0.4,1.1-0.6s0.8-0.3,1.1-0.5c0.4-0.2,0.7-0.5,1-0.7c0.4-0.2,0.7-0.4,1.1-0.5s0.8,0,1.2-0.2c0.4-0.1,0.8-0.2,1.2-0.3
				C71.6,5.2,72,5.1,72.4,5c0.4-0.1,0.8-0.1,1.2-0.2c0.4-0.1,0.8-0.3,1.2-0.3c0.4-0.1,0.8-0.4,1.2-0.4c0.4,0,0.8,0.1,1.2,0
				c0.4,0,0.8,0.2,1.2,0.1c0.4-0.1,0.8-0.4,1.2-0.5c0.4-0.1,0.9,0,1.3-0.1s0.8-0.3,1.2-0.4c0.4-0.1,0.8,0,1.2,0
				c0.4,0,0.8-0.3,1.2-0.2c0.4,0.1,0.8,0.2,1.2,0.3c0.4,0.1,0.8,0.4,1.1,0.5c0.4,0.1,0.8,0,1.2,0.1c0.4,0,0.8,0.2,1.2,0.2
				C89.6,4.1,90,4,90.4,4c0.4,0,0.8,0.3,1.2,0.3c0.4,0,0.9-0.3,1.3-0.2c0.4,0.1,0.8,0.3,1.2,0.4c0.4,0.1,0.7,0.4,1.1,0.6
				s0.8,0.3,1.1,0.5C96.7,5.8,97,6,97.4,6.2c0.4,0.2,0.8,0.2,1.2,0.4c0.4,0.2,0.8,0.3,1.1,0.5c0.4,0.2,0.7,0.5,1,0.7
				s0.6,0.5,0.9,0.8c0.3,0.3,0.7,0.4,1,0.8c0.3,0.3,0.4,0.7,0.7,1.1c0.2,0.3,0.7,0.5,0.9,0.8s0.3,0.8,0.5,1.1s0.8,0.4,1,0.8
				c0.2,0.3,0.2,0.9,0.4,1.2s0.4,0.7,0.6,1.1c0.2,0.4,0.3,0.8,0.5,1.1c0.2,0.4,0.6,0.6,0.7,1c0.1,0.4,0.3,0.7,0.4,1.1
				c0.1,0.4,0.1,0.8,0.2,1.2c0.1,0.4,0.4,0.7,0.5,1.1s0.3,0.8,0.4,1.2c0.1,0.4,0.1,0.8,0.2,1.2c0.1,0.4,0.2,0.8,0.3,1.2
				C110,26.5,109.9,27,110,27.4z"/>
		</g>
		<g>
			<path d="M48.9,55.8c0,0.4,0.1,0.9,0,1.3c-0.1,0.4-0.1,0.9-0.2,1.3c-0.1,0.4-0.1,0.9-0.1,1.3c0,0.4,0.2,0.7,0.3,1
				c0.2,0.4,0.1,0.8,0.5,1c0.3,0.1,0.7-0.1,1.2-0.1c0.4,0,0.7,0.5,1.1,0.5s0.8,0,1.2,0c0.4,0.1,0.8,0.1,1.2,0.2
				c0.4,0.1,0.8,0.2,1.1,0.3c0.4,0.1,0.8,0,1.2,0.2c0.4,0.1,0.6,0.6,1,0.8s0.8,0.1,1.2,0.3c0.3,0.2,0.7,0.3,1.1,0.5
				c0.3,0.2,0.7,0.3,1.1,0.5s0.7,0.3,1.1,0.5s0.6,0.5,1,0.7c0.3,0.2,0.5,0.6,0.8,0.9c0.3,0.2,0.8,0.2,1.1,0.4c0.3,0.3,0.3,0.7,0.6,1
				c0.3,0.3,0.4,0.6,0.6,0.9s0.6,0.5,0.9,0.7c0.2,0.3,0.4,0.7,0.6,0.9c0.2,0.3,0.6,0.5,0.8,0.8c0.2,0.3,0.4,0.6,0.6,0.9
				s0.3,0.7,0.5,1s0.6,0.5,0.8,0.8c0.2,0.3,0.4,0.6,0.6,1c0.2,0.3,0.2,0.7,0.3,1.1c0.1,0.3,0.2,0.7,0.3,1.1c0.1,0.4,0.2,0.7,0.3,1.1
				c0.1,0.4,0.2,0.7,0.3,1.1c0.1,0.4,0.2,0.7,0.3,1.1c0.1,0.4-0.1,0.9,0,1.3s0.3,0.8,0.4,1.2c0.1,0.4,0.2,0.8,0.2,1.2
				c0,0.4-0.1,0.8-0.2,1.2c-0.1,0.4-0.1,0.8-0.2,1.2c-0.1,0.4-0.3,0.8-0.4,1.2c-0.1,0.4-0.2,0.8-0.3,1.1c-0.1,0.4-0.2,0.8-0.4,1.1
				c-0.2,0.3-0.4,0.7-0.6,1s-0.8,0.3-1,0.6c-0.3,0.3-0.4,0.7-0.7,0.9c-0.3,0.2-0.8,0.1-1.2,0.2c-0.3,0.2-0.7,0.3-1,0.4
				c-0.4,0.1-0.7,0.5-1.1,0.5s-0.8,0.1-1.2,0.1c-0.4,0-0.7-0.4-1.1-0.5c-0.4,0-0.8,0.3-1.2,0.2c-0.4-0.1-0.7-0.3-1.1-0.5
				s-0.9-0.4-1.3-0.6c-0.4-0.3-0.6-0.8-0.9-1.1c-0.4-0.3-0.7-0.6-1-0.9c-0.4-0.3-0.8-0.4-1.2-0.7c-0.3-0.3-0.6-0.7-0.9-1
				s-0.8-0.5-1.1-0.9c-0.3-0.4-0.5-0.8-0.7-1.2c-0.3-0.4-0.6-0.7-0.9-1c-0.3-0.4-0.3-0.9-0.5-1.3s-0.6-0.7-0.7-1
				c-0.2-0.4-0.3-0.8-0.4-1.2c-0.1-0.4-0.5-0.7-0.6-1.1c-0.2-0.4,0.1-0.9-0.1-1.3s-0.4-0.7-0.6-1.1c-0.1-0.4-0.2-0.8-0.3-1.2
				c-0.1-0.4-0.6-0.7-0.8-1c-0.1-0.4-0.1-0.8-0.3-1.2c-0.1-0.4-0.1-0.8-0.3-1.2c-0.2-0.4-0.3-0.8-0.5-1.1c-0.2-0.4-0.3-0.8-0.4-1.2
				c-0.1-0.4-0.6-0.7-0.7-1.1s0.2-0.9,0.1-1.3s-0.5-0.8-0.5-1.2c-0.1-0.4-0.1-0.8-0.1-1.2c-0.1-0.4-0.2-0.8-0.3-1.2
				c-0.1-0.5,0-1.1-0.3-1.2c-0.3-0.2-0.8,0-1.3,0.1c-0.4,0-0.9,0.1-1.3,0.1s-0.9-0.1-1.3-0.1s-0.8,0.3-1.3,0.3
				c-0.4,0-0.9-0.3-1.3-0.2c-0.4,0.1-0.7,0.6-1.1,0.8c-0.4,0.2-0.8,0.4-1.1,0.6c-0.4,0.2-0.8,0.4-1.1,0.6c-0.4,0.2-0.7,0.5-1.1,0.7
				s-0.8,0.3-1.1,0.6c-0.4,0.2-0.7,0.4-1.1,0.7c-0.3,0.2-0.7,0.5-1,0.8c-0.3,0.3-0.4,0.8-0.7,1.1c-0.3,0.3-0.9,0.3-1.2,0.6
				c-0.3,0.3-0.5,0.7-0.8,1s-0.7,0.6-0.9,0.9c-0.3,0.3-0.7,0.6-1,0.9c-0.3,0.4-0.5,0.8-0.7,1.1c-0.3,0.4-0.3,0.9-0.5,1.2
				c-0.2,0.4-0.4,0.8-0.6,1.2c-0.2,0.4-0.4,0.8-0.6,1.1c-0.2,0.4-0.4,0.8-0.6,1.2c-0.2,0.4-0.4,0.8-0.6,1.2
				c-0.2,0.4-0.5,0.8-0.6,1.2c-0.2,0.4-0.3,0.8-0.4,1.3c-0.1,0.4-0.3,0.9-0.3,1.3C22.2,85.5,22,86,22,86.4s0.4,0.9,0.3,1.3
				c0,0.4-0.3,0.9-0.4,1.3c0,0.4-0.1,0.9-0.2,1.3c-0.1,0.4-0.2,0.9-0.2,1.3c-0.1,0.4,0.3,0.9,0.3,1.4c0,0.4-0.2,0.9-0.2,1.3
				s0.3,0.8,0.4,1.2c0.1,0.4-0.1,1,0.1,1.4c0.2,0.4,0.5,0.7,0.7,1.2c0.2,0.4,0.2,0.9,0.4,1.3c0.1,0.4,0.1,0.9,0.2,1.3
				c0.1,0.4,0.3,0.8,0.4,1.3c0.1,0.4,0.3,0.8,0.5,1.3c0.1,0.4,0.3,0.8,0.5,1.2c0.2,0.4,0.4,0.7,0.6,0.8c0.3,0.2,0.5,0.2,0.9,0.1
				c0.3-0.1,0.7,0.1,1.1,0c0.3-0.1,0.7-0.2,1-0.4c0.3-0.1,0.7-0.3,1-0.5c0.3-0.1,0.6-0.5,0.9-0.6c0.3-0.1,0.8,0.1,1.1,0
				c0.4-0.1,0.7-0.3,1.1-0.3s0.7,0.1,1.1,0.1s0.7,0.1,1.1,0.2c0.4,0,0.7,0.1,1.1,0c0.4,0,0.7-0.1,1.1-0.1s0.7,0.2,1.1,0.2
				s0.7-0.3,1.1-0.2c0.4,0,0.7,0.1,1.1,0.2s0.7,0.3,1,0.4s0.5,0.5,0.9,0.7c0.3,0.2,0.7,0.2,1,0.4c0.3,0.2,0.6,0.4,0.9,0.5
				c0.3,0.2,0.7,0.4,1,0.6s0.5,0.6,0.8,0.8c0.3,0.3,0.7,0.3,1,0.6c0.2,0.3,0.3,0.7,0.4,1s0.2,0.7,0.2,1.1c0,0.3-0.2,0.7-0.3,1.1
				c0,0.4,0,0.8-0.1,1.2c0,0.4,0,0.8-0.1,1.2c-0.1,0.4-0.1,0.8-0.4,1.1c-0.2,0.3-0.4,0.8-0.7,1.1c-0.3,0.3-0.8,0.3-1.2,0.5
				c-0.4,0.2-0.7,0.4-1.1,0.5c-0.4,0.2-0.7,0.7-1.1,0.7c-0.4,0.1-0.9-0.1-1.3-0.1s-0.8-0.3-1.3-0.3c-0.4-0.1-0.9,0.2-1.4,0.2
				c-0.4-0.1-0.8-0.5-1.2-0.6c-0.5-0.1-1,0.1-1.4,0s-0.8-0.5-1.2-0.6c-0.4-0.2-0.9-0.1-1.3-0.3c-0.4-0.2-0.7-0.6-1.1-0.8
				c-0.4-0.2-0.9-0.3-1.2-0.6c-0.4-0.3-0.5-0.8-0.9-1.1c-0.4-0.3-0.8-0.5-1.1-0.8c-0.4-0.3-0.7-0.6-1-0.9s-0.6-0.7-0.9-1
				c-0.3-0.4-1.1-0.3-1.4-0.7c-0.5-0.5-0.7-0.4-1.3,0c-0.4,0.2-0.8,0.3-1.1,0.5s-0.7,0.5-1,0.7c-0.3,0.3-0.7,0.5-1,0.8
				s-0.5,0.7-0.8,0.9c-0.3,0.3-0.6,0.5-0.9,0.8c-0.3,0.3-0.7,0.5-1,0.8s-0.6,0.6-0.8,0.9s-0.2,0.8-0.5,1.2c-0.2,0.3-0.6,0.6-0.9,0.9
				c-0.2,0.3-0.5,0.7-0.7,1s-0.3,0.8-0.5,1.1c-0.2,0.4-0.3,0.8-0.5,1.1c-0.2,0.4-0.2,0.8-0.4,1.2c-0.2,0.4-0.6,0.7-0.8,1
				c-0.2,0.4-0.6,0.7-0.8,1.1s-0.3,0.8-0.4,1.3c-0.1,0.4,0.1,0.8,0.1,1.2c0,0.4,0.3,0.8,0.3,1.2c0.1,0.4,0,0.8,0,1.2
				c0.1,0.4,0.2,0.8,0.2,1.2s-0.1,0.8-0.1,1.2s0.1,0.8,0.1,1.2s0.2,0.8,0.2,1.2c0.1,0.4,0.1,0.8,0.2,1.2c0.2,0.4,0.4,0.7,0.7,1
				c0.2,0.3,0.4,0.7,0.6,1c0.3,0.3,0.6,0.5,0.9,0.8c0.3,0.3,0.7,0.4,1,0.8c0.3,0.3,0.3,0.8,0.5,1.1c0.3,0.3,0.7,0.3,1,0.5
				s0.6,0.5,0.9,0.7c0.3,0.2,0.8,0.2,1.1,0.3c0.3,0.2,0.7,0.3,1.1,0.4c0.4,0.2,0.7,0.4,1,0.5c0.4,0.2,0.7,0.4,1,0.6
				c0.4,0.1,0.7,0.4,1,0.5c0.4,0.1,0.8,0.1,1.2,0.1c0.4,0.1,0.8,0,1.1,0.1c0.4,0,0.7,0,1-0.2s0.8-0.1,1.1-0.4
				c0.3-0.2,0.3-0.8,0.6-1.1s0.6-0.5,0.9-0.7c0.3-0.2,0.5-0.5,0.8-0.7s0.7-0.2,1-0.4c0.3-0.2,0.8-0.1,1.1-0.3
				c0.4-0.2,0.7-0.5,1.2-0.5c0.4,0,0.9-0.1,1.3-0.1c0.4,0.1,0.9,0.2,1.3,0.2s0.7,0.3,1.1,0.4c0.4,0.1,0.9,0,1,0.4s0.1,0.9-0.1,1.2
				s-0.8,0.3-1.1,0.6c-0.2,0.3-0.4,0.6-0.7,0.9c-0.2,0.3-0.4,0.6-0.7,0.8c-0.3,0.3-0.5,0.4-0.8,0.7c-0.3,0.2-0.4,0.7-0.8,0.8
				s-0.9,0-1.4,0c-0.4,0-0.9-0.1-1.4-0.1s-0.9,0.1-1.4,0.3c-0.4,0.1-0.6,0.7-0.8,0.9c-0.3,0.3-0.6,0.5-1,0.8c-0.4,0.2-0.5,0.8-0.8,1
				c-0.3,0.3-1,0.3-1.1,0.7c-0.2,0.4,0.1,0.9,0.1,1.3c0,0.4-0.3,0.9-0.2,1.3c0.1,0.4,0.2,0.8,0.2,1.2s0.4,0.8,0.5,1.2s0,0.9,0.1,1.3
				c0.2,0.4,0.7,0.5,1,0.8s0.4,0.9,0.7,1.1c0.3,0.2,0.9,0.1,1.3,0.2c0.4,0.1,0.7,0.6,1.1,0.6c0.4,0.1,0.8,0,1.2,0
				c0.4,0,0.8-0.2,1.2-0.2c0.4,0,0.8,0.2,1.2,0.2c0.4,0,0.8,0.1,1.2,0c0.4,0,0.8-0.2,1.2-0.3c0.4-0.1,0.7-0.4,1.1-0.4
				c0.4-0.1,0.8,0,1.2-0.1c0.4-0.1,0.7,0,1.1,0s0.7,0,1.1,0s0.7,0,1.1-0.1c0.4,0,0.6-0.4,1-0.5c0.3-0.1,0.8-0.1,1.1-0.2
				c0.3-0.2,0.7-0.3,1-0.5s0.5-0.5,0.8-0.7s0.7-0.4,0.9-0.6c0.2-0.2,0.1-0.9,0.4-1c0.3-0.2,0.6,0.2,0.9,0.4c0.3,0.3,0.4,0.4,0.3,0.7
				c-0.1,0.5-0.5,0.8-0.8,1.1c-0.3,0.4-0.6,0.7-1,1s-0.7,0.6-1,0.9c-0.4,0.3-0.9,0.3-1.2,0.5c-0.4,0.2-0.6,0.8-1,1s-0.9,0.3-1.3,0.5
				s-0.9,0-1.4,0.2c-0.4,0.1-0.8,0.3-1.3,0.4c-0.4,0.1-0.8,0.4-1.3,0.5c-0.4,0.1-0.9,0.1-1.3,0.1s-0.8,0.1-1.2,0.1
				c-0.4,0.1-0.8,0.1-1.2,0.2c-0.4,0-0.8,0-1.2,0c-0.4,0-0.9,0.1-1.3,0s-0.8-0.4-1.2-0.5c-0.4-0.1-0.7-0.6-1.1-0.7
				c-0.3-0.1-0.7,0.2-1.1,0.1c-0.3-0.1-0.7,0-1-0.1c-0.4-0.2-0.8-0.4-1.1-0.6c-0.4-0.2-0.6-0.7-0.9-0.9c-0.3-0.3-0.4-0.7-0.7-1.1
				c-0.3-0.3-0.5-0.6-0.7-1s-0.4-0.7-0.6-1.1c-0.2-0.4-0.5-0.7-0.6-1.1c-0.1-0.4-0.2-0.8-0.2-1.3c0-0.4,0.1-0.9,0.1-1.3
				c0.1-0.4,0.2-0.8,0.3-1.3c0.1-0.4,0.2-0.9,0.3-1.3c0.1-0.4,0.7-0.7,0.9-1.1c0.3-0.7,0.4-1.2,0.3-1.4c-0.1-0.2-0.7,0.1-1.4-0.1
				c-0.4-0.1-0.8-0.3-1.2-0.4c-0.4-0.1-0.9-0.1-1.3-0.2c-0.4-0.1-0.9-0.1-1.3-0.2c-0.4-0.1-0.7-0.5-1.1-0.7
				c-0.4-0.2-0.8-0.4-1.1-0.6c-0.3-0.3-0.6-0.6-0.9-0.9c-0.3-0.3-0.6-0.6-0.9-0.9c-0.3-0.3-0.8-0.5-1.1-0.7
				c-0.3-0.3-0.4-0.8-0.7-1.1s-0.5-0.6-0.8-0.9c-0.3-0.3-0.6-0.5-0.9-0.9c-0.2-0.3-0.5-0.6-0.8-1c-0.2-0.4-0.3-0.8-0.5-1.2
				s-0.3-0.8-0.5-1.2s-0.2-0.8-0.4-1.2c-0.1-0.4-0.4-0.8-0.5-1.2s-0.4-0.8-0.5-1.2s0-0.9,0-1.3c-0.1-0.4-0.3-0.8-0.3-1.3
				c0-0.4,0.1-0.9,0.1-1.3s-0.1-0.9-0.1-1.3s0.4-0.8,0.5-1.2c0.1-0.4-0.2-0.9-0.1-1.3c0.1-0.4,0.5-0.8,0.6-1.2
				c0.1-0.4,0-0.9,0.2-1.3c0.1-0.4,0.4-0.8,0.5-1.2c0.1-0.4,0.5-0.7,0.6-1.1c0.2-0.4,0.2-0.8,0.4-1.2c0.2-0.4,0.3-0.8,0.5-1.2
				c0.2-0.4,0.5-0.7,0.8-1.1c0.3-0.3,0.6-0.6,0.9-0.9c0.3-0.3,0.8-0.5,1-0.8s0.2-0.8,0.4-1.1c0.2-0.3,0.7-0.4,0.9-0.7
				c0.2-0.3,0.4-0.6,0.7-0.9c0.2-0.3,0.3-0.7,0.6-1c0.3-0.2,0.6-0.4,0.9-0.6c0.3-0.2,0.5-0.6,0.8-0.8c0.3-0.2,0.7-0.2,1.1-0.4
				c0.3-0.2,0.5-0.5,0.9-0.7c0.3-0.2,0.6-0.5,0.8-0.6c0.4-0.3,0.5-0.4,0.6-0.7c0-0.2-0.1-0.5-0.3-0.9c-0.2-0.3-0.4-0.6-0.6-1
				c-0.2-0.3-0.2-0.8-0.4-1.1c-0.2-0.3-0.7-0.5-0.9-0.8s-0.4-0.7-0.6-1c-0.1-0.4,0.1-0.8,0.1-1.2c-0.1-0.4-0.3-0.7-0.3-1.1
				s0.2-0.8,0.2-1.2c0-0.4-0.3-0.8-0.4-1.1c-0.1-0.4,0-0.8-0.1-1.2c-0.1-0.4-0.4-0.7-0.5-1.1s-0.5-0.7-0.6-1.1s0.2-0.8,0.2-1.2
				c0-0.4-0.1-0.9,0-1.3s0.4-0.8,0.6-1.2c0.1-0.4,0.2-0.8,0.4-1.2c0.1-0.4,0.1-0.9,0.2-1.3c0.1-0.4-0.1-0.9,0-1.3s0.2-0.8,0.2-1.2
				c0.1-0.4,0.5-0.8,0.6-1.2c0.1-0.4-0.2-0.9-0.1-1.3c0.1-0.4,0.4-0.8,0.5-1.2c0.1-0.4,0-0.9,0.2-1.3c0.1-0.4,0.4-0.8,0.5-1.2
				c0.1-0.4,0.1-0.9,0.3-1.3s0.4-0.7,0.6-1.1c0.2-0.4,0.6-0.7,0.8-1c0.2-0.4,0.4-0.8,0.6-1.1c0.2-0.4,0.7-0.5,0.9-0.9
				c0.2-0.3,0.3-0.8,0.5-1.2c0.3-0.3,0.6-0.6,0.9-0.9c0.3-0.3,0.7-0.5,1-0.8s0.3-0.8,0.6-1.1c0.3-0.3,0.8-0.4,1-0.7
				c0.3-0.3,0.5-0.7,0.8-1s0.6-0.6,0.9-0.9c0.3-0.3,0.5-0.6,0.9-0.9c0.3-0.3,0.6-0.6,1-0.7c0.4-0.2,0.8-0.2,1.2-0.3
				c0.4-0.1,0.7-0.5,1.1-0.6s0.9,0,1.3-0.1c0.4-0.2,0.6-0.7,1-0.8c0.4-0.2,0.8-0.1,1.2-0.3c0.4-0.1,0.7-0.5,1.1-0.6s0.8-0.1,1.2-0.2
				c0.4-0.1,0.7-0.1,1.1-0.1c0.4-0.1,0.7-0.2,1.1-0.2c0.4-0.1,0.8,0.1,1.1,0.1c0.5,0,0.9-0.4,1.2-0.8c0.4-0.3,0.8-0.7,0.8-1.2
				c0-0.3-0.3-0.7-0.5-1s-0.3-0.6-0.5-1c-0.2-0.3-0.3-0.7-0.3-1c0-0.4,0-0.8,0.1-1.1c0.1-0.4,0.1-0.8,0.2-1.1
				c0.1-0.4,0.2-0.7,0.3-1.1c0.1-0.4,0.4-0.7,0.4-1.1c0-0.4,0.1-0.7,0.1-1.1c0-0.4-0.4-0.7-0.4-1.1c0-0.4,0.5-0.7,0.5-1.1
				c0-0.4-0.2-0.8-0.2-1.1c0-0.4,0.1-0.7,0.1-1.1c0-0.4-0.1-0.8-0.1-1.1c0-0.4,0.1-0.7,0.1-1.1c0-0.4-0.2-0.8-0.1-1.1
				c0.1-0.4,0.2-0.7,0.3-1.1c0.1-0.4,0.3-0.7,0.4-1c0.1-0.4,0.4-0.7,0.5-1c0.1-0.4,0.1-0.8,0.2-1.1c0.1-0.4,0-0.8,0.1-1.1
				c0.1-0.4,0.3-0.7,0.5-1c0.1-0.3,0.1-0.7,0.3-1.1c0.1-0.3,0.2-0.7,0.3-1.1c0.1-0.4,0.4-0.7,0.5-1s0.5-0.6,0.6-0.9
				c0.1-0.3,0.2-0.7,0.3-1.1c0.1-0.3,0.3-0.7,0.4-1c0.2-0.4,0.2-0.9,0.3-1.3c0.1-0.4,0.4-0.8,0.5-1.2c0.1-0.4,0-0.9,0.2-1.3
				c0.1-0.4,0.3-0.8,0.6-1.2c0.2-0.4,0.4-0.8,0.7-1.1c0.3-0.3,0.6-0.7,0.9-1s0.9-0.3,1.2-0.6c0.3-0.3,0.6-0.7,0.9-1s0.6-0.7,0.8-1
				c0.2-0.4,0.4-0.8,0.7-1.1c0.2-0.4,0.5-0.7,0.8-1.1c0.3-0.3,0.7-0.5,1.1-0.8c0.3-0.3,0.5-0.8,0.9-1s0.8-0.4,1.2-0.6
				c0.4-0.2,0.8-0.3,1.2-0.4c0.4-0.2,0.8-0.3,1.2-0.5c0.4-0.2,0.7-0.3,1.1-0.5s0.7-0.5,1-0.6c0.4-0.1,0.7-0.4,1.1-0.6
				c0.4-0.1,0.8-0.2,1.2-0.3c0.4-0.1,0.8-0.2,1.2-0.3c0.4-0.2,0.8-0.3,1.1-0.5c0.4-0.2,0.7-0.5,1.1-0.6s0.8-0.2,1.2-0.2
				c0.4,0,0.8-0.1,1.2-0.1c0.4,0,0.8-0.1,1.2-0.1c0.4,0,0.8,0.2,1.2,0.2c0.4,0,0.8,0.2,1.2,0.2c0.4,0,0.8,0,1.2,0.1
				c0.4,0.1,0.8,0,1.2,0.1c0.4,0.1,0.8,0,1.2,0.1c0.4,0.1,0.8,0.2,1.2,0.3c0.4,0.1,0.7,0.2,1.1,0.4c0.3,0.2,0.6,0.5,0.9,0.7
				s0.6,0.5,0.9,0.7s0.7,0.3,1,0.5c0.3,0.1,0.7,0.2,1,0.4c0.3,0.1,0.7,0.3,1,0.5c0.3,0.1,0.7,0.1,1.1,0.3c0.3,0.2,0.7,0.3,1,0.5
				s0.5,0.6,0.8,0.8c0.3,0.2,0.6,0.4,0.9,0.6s0.3,0.7,0.6,1c0.3,0.2,0.7,0.3,1,0.6c0.3,0.2,0.4,0.6,0.7,0.9c0.3,0.2,0.6,0.4,0.9,0.6
				s0.8,0.2,1,0.5c0.3,0.2,0.5,0.5,0.7,0.8c0.3,0.3,0.5,0.6,0.9,0.9c0.3,0.2,0.7,0.4,1,0.6s0.6,0.6,0.9,0.8c0.3,0.2,0.9,0.2,1.2,0.5
				s0.4,0.7,0.7,1s0.4,0.7,0.7,1s0.7,0.4,1,0.7c0.3,0.3,0.7,0.4,1,0.7c0.3,0.3,0.2,0.9,0.5,1.2c0.3,0.3,0.7,0.5,1,0.8
				s0.6,0.6,0.8,0.9c0.2,0.3,0.4,0.7,0.7,1s0.4,0.7,0.6,1.1c0.2,0.4,0.6,0.6,0.7,1c0.2,0.4,0.3,0.7,0.5,1.1c0.2,0.4,0.3,0.8,0.5,1.1
				s0.7,0.5,0.9,0.8c0.3,0.3,0.5,0.6,0.8,0.9c0.3,0.3,0.5,0.6,0.8,0.9c0.3,0.3,0.5,0.6,0.8,1c0.2,0.3,0.2,0.8,0.4,1.2
				s0.3,0.7,0.4,1.1c0.1,0.4,0.4,0.7,0.5,1.1c0.2,0.4,0.3,0.8,0.5,1.1s0.7,0.5,0.9,0.8s0.1,0.9,0.3,1.2s0.7,0.5,0.8,0.9
				c0.2,0.3,0.5,0.6,0.7,1c0.2,0.3,0.1,0.8,0.3,1.2c0.2,0.3,0.4,0.7,0.6,1c0.2,0.3,0.6,0.5,0.8,0.8s0.6,0.6,0.8,0.9
				c0.2,0.4,0.2,0.8,0.3,1.2s0.3,0.7,0.5,1.1c0.1,0.4,0,0.8,0.2,1.2c0.1,0.4,0.4,0.7,0.6,1c0.1,0.4,0.5,0.7,0.6,1
				c0.1,0.4,0.1,0.8,0.2,1.2c0.1,0.4-0.1,0.8,0,1.2s0.3,0.7,0.4,1.1c0.1,0.4,0.6,0.6,0.8,1c0.1,0.4-0.1,0.9,0,1.2
				c0.1,0.4,0.4,0.7,0.5,1.1s0.1,0.8,0.2,1.2c0.1,0.4,0.3,0.7,0.4,1.1c0.1,0.4,0.4,0.7,0.6,1.1c0.1,0.4,0.2,0.8,0.3,1.1
				c0.1,0.4,0.2,0.8,0.3,1.1c0.1,0.4,0,0.8,0,1.2c0,0.4-0.2,0.8-0.2,1.2c0,0.4,0.2,0.8,0.2,1.2c0,0.4,0.1,0.8,0.2,1.2
				c0.1,0.4,0.2,0.8,0.3,1.3c0.1,0.4-0.2,1-0.1,1.4c0.1,0.4,0.3,0.8,0.4,1.2c0.1,0.4,0.2,0.9,0.2,1.3s-0.2,0.9-0.2,1.3
				s-0.1,0.9-0.2,1.3c-0.1,0.4,0,0.9-0.1,1.3s0.2,0.9,0.1,1.3c0,0.4,0,0.9,0.1,1.3c0,0.4-0.1,0.9-0.1,1.3s0.1,0.9,0.1,1.3
				s-0.1,0.9-0.2,1.3c-0.1,0.4-0.2,0.9-0.3,1.3s-0.3,0.8-0.4,1.3c-0.1,0.4-0.3,0.8-0.4,1.3c-0.1,0.4-0.1,0.9-0.2,1.3
				c-0.1,0.5,0.1,1,0.2,1.5c0.1,0.5,0.3,0.8,0.6,1.3c0.2,0.3,0.3,0.9,0.5,1.2c0.3,0.3,0.8,0.4,1.1,0.7c0.3,0.3,0.5,0.7,0.7,1
				c0.3,0.3,0.6,0.6,0.8,1c0.2,0.3,0.2,0.8,0.4,1.2c0.2,0.3,0.6,0.6,0.8,1s0.5,0.6,0.8,1c0.2,0.4,0.2,0.9,0.4,1.2
				c0.2,0.3,0.5,0.7,0.7,1s0.6,0.6,0.8,0.9s0.5,0.7,0.7,1s0.5,0.7,0.7,1c0.2,0.4,0.2,0.8,0.4,1.2c0.2,0.4,0.5,0.7,0.7,1.1
				s0.1,0.9,0.3,1.2c0.2,0.4,0.3,0.8,0.5,1.1c0.2,0.4,0.7,0.5,0.9,0.9s0.3,0.8,0.6,1.1c0.2,0.4,0.2,0.8,0.4,1.2
				c0.2,0.4,0.4,0.7,0.6,1.1c0.2,0.4,0.6,0.6,0.9,0.9c0.2,0.3,0.6,0.6,0.8,0.9c0.3,0.3,0.3,0.8,0.5,1.2c0.2,0.3,0.8,0.5,1,0.9
				s0.3,0.8,0.4,1.2c0.2,0.4,0,0.9,0.2,1.3s0.6,0.7,0.7,1c0.2,0.4,0.4,0.7,0.5,1.1c0.2,0.4,0.2,0.8,0.4,1.2s0.6,0.6,0.8,1
				s0.2,0.8,0.4,1.2s0.2,0.8,0.4,1.2s0.5,0.7,0.6,1.1c0.1,0.4-0.1,0.9,0,1.3c0.1,0.4,0.5,0.7,0.6,1.1c0.1,0.4,0.2,0.8,0.4,1.1
				c0.2,0.4,0.2,0.8,0.4,1.1c0.2,0.4,0.2,0.8,0.4,1.2s0.6,0.6,0.8,1s0,0.9,0.2,1.3c0.1,0.4,0.6,0.6,0.7,1c0.2,0.4,0.4,0.7,0.5,1.1
				c0.2,0.4-0.1,0.9,0.1,1.3c0.2,0.4,0.5,0.7,0.7,1c0.1,0.4,0.2,0.8,0.4,1.2s0.3,0.8,0.5,1.1c0.2,0.4,0.5,0.7,0.6,1.1
				c0.2,0.4,0.3,0.8,0.4,1.2c0.1,0.4,0.1,0.8,0.2,1.2c0.1,0.4,0.4,0.7,0.6,1.1c0.1,0.4,0.1,0.8,0.2,1.2c0.1,0.4,0.6,0.7,0.7,1.1
				c0.1,0.4-0.1,0.9,0,1.3c0.1,0.4,0.4,0.8,0.4,1.2c0.1,0.4,0.1,0.8,0.2,1.2c0.1,0.4,0,0.8,0.1,1.2s0,0.8,0.2,1.2
				c0.1,0.4,0.3,0.7,0.5,1.1c0.1,0.4,0.3,0.7,0.5,1.1c0.1,0.4,0.1,0.8,0.2,1.2c0.1,0.4,0.4,0.7,0.5,1.1c0.1,0.4,0,0.8,0.2,1.2
				c0.1,0.4,0.6,0.7,0.7,1.1c0.1,0.4,0.1,0.8,0.2,1.2c0.1,0.4,0,0.8-0.2,1.1c-0.1,0.3-0.5,0.5-0.8,0.7s-0.5,0.5-0.8,0.7
				s-0.7,0.2-1,0.5c-0.3,0.2-0.4,0.6-0.7,0.8s-0.7,0.4-1,0.5c-0.4,0.1-0.8,0-1.3,0c-0.4,0-0.8,0.2-1.2,0.1c-0.4,0-0.8-0.3-1.2-0.3
				s-0.8,0-1.2,0.1s-0.8,0-1.2,0.2c-0.4,0.1-0.7,0.6-1.1,0.7c-0.4,0.1-0.8,0.2-1.2,0.3s-0.8,0.3-1.2,0.4c-0.4,0.1-0.9-0.1-1.3,0
				c-0.4,0.1-0.8,0.3-1.2,0.4c-0.4,0.1-0.8,0.2-1.2,0.3s-0.7,0.5-1.1,0.6c-0.4,0.1-0.8,0.3-1.1,0.6s-0.7,0.6-0.7,1.1
				c0,0.4,0.2,0.8,0.4,1.3c0.1,0.4,0.4,0.8,0.5,1.2s-0.1,0.9-0.1,1.3c0,0.4,0.2,0.9,0.1,1.3c-0.1,0.4,0,0.9-0.1,1.3
				c-0.1,0.4-0.4,0.8-0.5,1.2c0,0.2-0.7,0.4-0.8,0.6c0,0.5,0,0.9-0.1,1.3c-0.1,0.5,0,1-0.2,1.3c-0.2,0.4-0.7,0.7-1.1,0.7
				c-0.3,0-0.7-0.2-1.2-0.4c-0.3-0.1-0.8-0.2-1.2-0.4c-0.4,0-0.7-0.4-1-0.4c-0.4,0-0.8,0.4-1.1,0.4c-0.4,0-0.7-0.1-1.1-0.1
				c-0.4,0-0.7-0.4-1.1-0.4c-0.4,0-0.7,0.1-1.1,0c-0.4-0.1-0.8-0.4-1.3-0.4c-0.4-0.1-0.9,0-1.3-0.1c-0.4-0.1-0.8-0.1-1.3-0.3
				c-0.4-0.1-0.8,0-1.3-0.2c-0.4,0.1-0.8,0.2-1.2,0.2s-0.8-0.3-1.2-0.4c-0.4-0.1-0.7-0.4-1.1-0.6c-0.4-0.2-0.7-0.4-1.1-0.6
				c-0.3-0.2-0.7-0.3-1.1-0.5c-0.3-0.2-0.7-0.4-1.1-0.6c-0.3-0.2-0.7-0.4-1.1-0.6c-0.3-0.2-0.5-0.7-0.8-0.9
				c-0.4-0.2-0.8-0.3-1.2-0.6c-0.3-0.3-0.8-0.4-1.1-0.8c-0.3-0.3-0.5-0.7-0.9-1c-0.3-0.3-0.5-0.7-0.8-1s-0.6-0.6-0.9-1
				c-0.3-0.3-0.5-0.7-0.8-1s-0.7-0.6-1-0.8c-0.4-0.3-0.7-0.4-1.1-0.5c-0.1,0.2,0.2,0.5,0.3,1.1c0.1,0.4-0.1,0.9,0,1.4
				c0.1,0.4,0.3,0.9,0.4,1.3c0.1,0.4-0.2,0.9-0.2,1.3c0,0.5,0.2,0.9,0.2,1.2c0,0.6,0,1-0.1,1.2c0,0.1,0.1,0.5,0.3,1.1
				c0.1,0.3,0.4,0.6,0.5,1c0.1,0.3,0,0.8,0.1,1.1c0.1,0.4,0.1,0.8,0.3,1.1c0.2,0.5,0.6,0.8,0.7,0.9c0.2,0.4,0.2,0.8,0.5,1.2
				c0.2,0.3,0.6,0.6,0.9,0.9c0.3,0.3,0.4,0.8,0.6,1.1c0.2,0.4,0.7,0.6,0.9,1s0.2,0.9,0.4,1.3c0.2,0.4,0.7,0.6,0.9,1
				c0.3,0.3,0.3,0.8,0.6,1.1s0.6,0.5,0.9,0.8c0.3,0.3,0.7,0.4,1,0.7s0.7,0.3,1.1,0.5c0.4,0.2,0.7,0.5,1.1,0.7
				c0.4,0.2,0.6,0.6,0.9,0.8c0.3,0.2,0.8,0.2,1.2,0.4c0.3,0.2,0.5,0.7,0.9,0.9c0.3,0.2,0.8,0.1,1.2,0.3c0.3,0.2,0.6,0.6,1,0.8
				c0.4,0.1,0.7,0.3,1.1,0.5c0.4,0.1,0.9-0.1,1.3,0.1c0.4,0.1,0.7,0.4,1.1,0.5c0.4,0.1,0.8,0.4,1.2,0.4c0.1,0,0.5,0,1.1,0
				c0.4,0,0.8,0,1.1,0c0.6,0.1,1-0.1,1.1-0.1c0.7-0.1,1,0.2,1.2,0.4s0.3,0.7,0.2,1.2c-0.1,0.4-0.5,0.7-0.6,1.1
				c-0.1,0.4,0.2,0.9,0.2,1.3c-0.1,0.4-0.2,0.8-0.3,1.2s-0.3,0.7-0.4,1.1c-0.1,0.4-0.3,0.7-0.4,1.1c-0.1,0.4-0.6,0.6-0.7,1
				c-0.1,0.4,0.2,0.8,0.1,1.2c-0.1,0.4-0.4,0.7-0.4,1.1c0,0.4-0.1,0.8-0.2,1.1c-0.1,0.4,0.1,0.8,0,1.2s-0.4,0.8-0.6,1.2
				c-0.2,0.4-0.5,0.7-0.7,1.1c-0.2,0.4-0.2,0.9-0.4,1.2c-0.2,0.4-0.5,0.7-0.7,1.1c-0.1,0.4-0.3,0.8-0.4,1.2
				c-0.1,0.4,0.2,0.9,0.1,1.3c-0.1,0.4-0.2,0.9-0.2,1.3c-0.1,0.4-0.4,0.8-0.5,1.2s-0.4,0.8-0.5,1.2s-0.1,0.9-0.2,1.3
				c-0.1,0.4,0,0.9-0.1,1.3c-0.1,0.4-0.5,0.8-0.6,1.2s-0.1,0.9-0.3,1.3c-0.2,0.4-0.4,0.8-0.6,1.2c-0.2,0.4-0.5,0.7-0.7,1.1
				c-0.2,0.4-0.8,0.6-0.9,1c-0.1,0.4,0,0.9-0.1,1.3c-0.1,0.4-0.1,0.8-0.2,1.3c-0.1,0.4-0.2,0.8-0.3,1.2s-0.4,0.8-0.5,1.2
				s-0.2,0.8-0.4,1.2s-0.1,0.9-0.3,1.3c-0.2,0.4-0.6,0.7-0.8,1.1c-0.2,0.4-0.4,0.8-0.5,1.2s0,0.9-0.1,1.3c-0.1,0.4-0.5,0.8-0.6,1.2
				s-0.2,0.8-0.3,1.3c-0.1,0.4,0,0.9-0.1,1.3c-0.2,0.5-0.4,1.1-0.6,1.6c-0.2,0.4-0.6,0.3-1.2,0.2c-0.6-0.1-1.3,0.1-1.4-0.4
				c-0.1-0.3,0.1-0.7,0.1-1.1c0-0.4,0.1-0.7,0.2-1c0.1-0.4,0.1-0.7,0.2-1.1c0.1-0.4,0-0.9,0.1-1.3c0.2-0.4,0.3-0.8,0.4-1.2
				c0.2-0.4,0.3-0.8,0.4-1.2c0.2-0.4,0.5-0.7,0.6-1.1c0.1-0.4,0-0.9,0-1.3c0-0.4,0.1-0.8,0.1-1.3c0-0.4,0.1-0.9,0.1-1.3
				c0-0.4,0.2-0.8,0.4-1.3c0.1-0.4,0.4-0.8,0.5-1.2s0.1-0.9,0.3-1.3c0.1-0.4,0.5-0.7,0.6-1.1c0.1-0.4,0.2-0.8,0.3-1.2
				s0.3-0.8,0.5-1.2c0.1-0.4,0.3-0.8,0.4-1.2c0.1-0.4,0-0.9,0.1-1.3c0.1-0.4,0.5-0.7,0.6-1.1c0.1-0.4,0.1-0.9,0.2-1.3
				c0.1-0.4,0-0.9,0.1-1.3c0.1-0.4,0.6-0.8,0.6-1.2c0.1-0.4,0.2-0.8,0.4-1.2c0.1-0.4-0.1-0.9,0.1-1.3c0.2-0.4,0.7-0.6,0.8-1
				c0.2-0.4,0.3-0.8,0.5-1.2s0.3-0.8,0.4-1.2c0.1-0.4,0.3-0.8,0.4-1.2c0.1-0.4,0.1-0.8,0.3-1.2c0.1-0.4,0.3-0.8,0.4-1.2
				s0.1-0.9,0.2-1.3c0.1-0.4,0.4-0.8,0.6-1.1c0.2-0.4,0.2-0.8,0.4-1.2s0.5-0.7,0.6-1.1c0.2-0.4,0-0.9,0.1-1.3
				c0.1-0.4,0.5-0.8,0.7-1.2s0.7-0.7,0.9-1c0.3-0.4,0.3-1,0.4-1.3c0.2-0.6,0.3-1.1-0.3-1.1c-0.4,0-0.8,0.1-1.2,0.1s-0.8,0.2-1.2,0.2
				s-0.8,0.2-1.2,0.2s-0.8-0.4-1.2-0.4c-0.4-0.1-0.8-0.2-1.2-0.4c-0.4-0.1-0.8,0-1.2-0.2c-0.4-0.1-0.7-0.4-1.1-0.5
				c-0.4-0.1-0.8-0.2-1.2-0.3c-0.3-0.2-0.6-0.5-0.9-0.8c-0.3-0.2-0.7-0.4-1-0.6c-0.3-0.2-0.6-0.6-0.9-0.8c-0.3-0.2-0.5-0.6-0.9-0.8
				c-0.3-0.2-0.8-0.2-1.1-0.4s-0.6-0.6-0.9-0.8c-0.3-0.2-0.6-0.4-1-0.7c-0.3-0.2-0.7-0.3-1-0.6s-0.5-0.6-0.8-0.9
				c-0.2-0.3-0.5-0.6-0.7-0.9c-0.3-0.3-0.6-0.6-0.9-1c-0.3-0.4-0.6-0.7-0.8-1c-0.2-0.4-0.3-0.8-0.6-1.2c-0.2-0.4-0.6-0.7-0.8-1
				c-0.2-0.4-0.4-0.8-0.5-1.2s-0.2-0.9-0.3-1.3c-0.1-0.4,0.3-0.9,0.2-1.4c-0.1-0.4-0.6-0.8-0.7-1.2c-0.1-0.4-0.2-0.8-0.4-1.2
				s-0.2-0.9-0.4-1.3c-0.2-0.4-0.6-0.7-0.8-1.1c-0.2-0.4-0.1-0.9-0.1-1.3c-0.1-0.4-0.1-0.9-0.1-1.3c0-0.4-0.1-0.9-0.1-1.3
				c0-0.4,0.1-0.9,0.2-1.3c0-0.5-0.1-0.9-0.1-1.3c0-0.5,0.4-0.9,0.4-1.3c0-0.5-0.2-0.9-0.1-1.3c0-0.5,0.1-0.9,0.2-1.3
				c0-0.6-0.1-1-0.1-1.3c0.1-0.6,0.4-0.9,0.5-1.3c0.2-0.7,0.4-1.1,0.8-0.9c0.3,0.2,0.6,0.6,1,1c0.3,0.3,0.4,0.8,0.7,1.1
				s0.8,0.5,1.1,0.8s0.4,0.9,0.6,1.2c0.4,0.2,0.7,0.5,1,0.7c0.3,0.3,0.5,0.7,0.8,0.9c0.3,0.3,0.7,0.5,1,0.7c0.3,0.3,0.9,0.3,1.2,0.5
				c0.3,0.3,0.5,0.7,0.8,0.9c0.3,0.3,0.6,0.5,0.9,0.8c0.3,0.3,0.6,0.5,0.9,0.8c0.3,0.2,0.6,0.4,1,0.6c0.3,0.2,0.5,0.6,0.9,0.7
				c0.3,0.1,0.8-0.1,1.1-0.1c0.3,0.1,0.7,0.2,1,0.3s0.6,0.6,0.9,0.7c0.3,0.1,0.7,0.2,1,0.4s0.7,0.2,1,0.4s0.6,0.4,0.9,0.6
				c0.3,0.2,0.5,0.7,0.9,0.8c0.3,0.1,0.8-0.2,1.1-0.1c0.4,0,0.7,0.3,1.1,0.3c0.4,0,0.7,0,1.1,0c0.4,0,0.8-0.2,1.1-0.1
				c0.3,0.1,0.7,0.2,1,0.3s0.7,0.1,1.1,0.2c0.3,0.1,0.7,0,1.1,0.1s0.7,0.3,1,0.4c0.5,0.2,0.8,0.3,1.1,0.2s0.5-0.4,0.5-0.9
				c0.1-0.4,0-0.9,0.1-1.3c0.1-0.4,0.2-0.8,0.3-1.2s0.4-0.8,0.4-1.2s-0.4-0.8-0.5-1.2s-0.2-0.9-0.3-1.3c-0.1-0.4-0.1-0.9,0-1.3
				c0.1-0.4,0.2-0.8,0.3-1.1c0.1-0.4,0.2-0.8,0.4-1.1s0.6-0.6,0.9-0.8c0.3-0.2,0.7-0.2,1.1-0.4c0.3-0.1,0.7-0.2,1.1-0.3
				c0.3-0.1,0.6-0.5,1-0.6s0.7-0.1,1.1-0.2c0.3-0.1,0.6-0.4,1-0.5c0.3-0.1,0.8,0,1.1-0.2c0.3-0.1,0.7-0.1,1.1-0.2
				c0.4-0.1,0.7-0.3,1-0.4c0.3-0.1,0.7-0.2,1-0.4c0.3-0.1,0.7-0.2,1.1-0.3c0.4-0.1,0.7-0.3,1-0.3c0.4-0.1,0.7-0.3,1-0.4
				c0.4-0.1,0.8,0.2,1.1,0.1c0.4-0.1,0.7-0.2,1.1-0.2c0.4-0.1,0.7-0.4,1-0.5c0.6-0.1,1,0,1.2-0.2s-0.1-0.6-0.2-1.2
				c-0.1-0.4,0.1-0.9,0.1-1.3c-0.1-0.4-0.3-0.8-0.3-1.2c-0.1-0.4,0.1-0.9,0.1-1.3c-0.1-0.4-0.3-0.8-0.4-1.2
				c-0.1-0.4-0.1-0.8-0.2-1.2c-0.1-0.4-0.4-0.8-0.4-1.2s0.2-0.9,0.2-1.3c-0.1-0.4-0.5-0.7-0.6-1.2c-0.1-0.4-0.2-0.8-0.3-1.2
				s-0.2-0.8-0.4-1.2c-0.1-0.4-0.1-0.8-0.3-1.2c-0.1-0.4-0.4-0.8-0.5-1.1c-0.1-0.4,0-0.9-0.2-1.2c-0.2-0.4-0.3-0.8-0.5-1.2
				s-0.6-0.6-0.8-1s-0.5-0.7-0.7-1.1c-0.1-0.4-0.2-0.8-0.3-1.2s-0.2-0.8-0.3-1.2s-0.3-0.8-0.4-1.2c-0.1-0.4,0.1-0.9,0-1.3
				c-0.2-0.4-0.4-0.7-0.5-1.1c-0.1-0.4-0.2-0.8-0.4-1.2c-0.1-0.4-0.5-0.7-0.6-1.1c-0.1-0.4,0-0.9-0.2-1.3c-0.1-0.3-0.7-0.5-0.8-0.9
				c-0.2-0.3-0.4-0.7-0.5-1c-0.2-0.3-0.2-0.7-0.4-1.1c-0.2-0.3-0.3-0.7-0.4-1.1c-0.2-0.3-0.6-0.6-0.8-0.9c-0.2-0.3,0.1-0.9-0.1-1.2
				c-0.2-0.3-0.4-0.6-0.6-1c-0.2-0.3-0.2-0.7-0.3-1.1c-0.2-0.3-0.7-0.5-0.8-0.9c-0.1-0.3-0.2-0.7-0.3-1.1c-0.1-0.3-0.3-0.7-0.5-1
				s-0.3-0.7-0.5-1s-0.3-0.7-0.5-1s-0.2-0.7-0.4-1.1c-0.2-0.3-0.4-0.6-0.6-1c-0.2-0.3-0.3-0.7-0.5-1s-0.1-0.8-0.3-1.1
				c-0.2-0.3-0.4-0.6-0.6-1c-0.2-0.3-0.5-0.6-0.7-0.9s-0.4-0.6-0.6-1c-0.2-0.3-0.5-0.6-0.7-0.9s0-0.8-0.2-1.2
				c-0.2-0.3-0.7-0.5-0.8-0.8s-0.2-0.8-0.3-1.1c-0.2-0.3-0.3-0.7-0.5-1s-0.7-0.5-0.9-0.8s-0.1-0.8-0.3-1.1c-0.2-0.3-0.5-0.6-0.7-0.9
				s-0.2-0.8-0.3-1.1c-0.2-0.3-0.6-0.6-0.7-0.9c-0.1-0.3-0.3-0.7-0.5-1s0-0.9-0.2-1.2c-0.2-0.3-0.5-0.7-0.7-1s-0.7-0.4-1-0.7
				c-0.3-0.3-0.4-0.7-0.6-1c-0.2-0.3-0.6-0.6-0.8-0.9s-0.4-0.7-0.7-1s-0.6-0.6-0.8-0.9c-0.3-0.3-0.5-0.6-0.8-0.9s-0.3-0.8-0.5-1.1
				c-0.2-0.3-0.5-0.6-0.8-0.9c-0.2-0.3-0.3-0.8-0.5-1.1c-0.2-0.3-0.6-0.6-0.8-0.9s-0.7-0.5-0.9-0.8c-0.2-0.2,0-0.7,0-1
				s-0.2-0.6-0.3-0.8c-0.2-0.3-0.6-1-0.3-1.3s0.7,0.7,1,0.9c0.5,0.2,1.3-0.2,1.7,0.1c0.6,0.3,1,0.5,1.1,0.3c0.1-0.1,0.2-0.5,0.3-1.1
				c0.1-0.4,0.3-0.8,0.4-1.3c0.1-0.4,0-1,0.1-1.4c0.2-0.4,0.3-0.8,0.4-1.2c0.1-0.4,0.2-0.8,0.3-1.3c0-0.4,0.4-0.9,0.3-1.3
				c0-0.4-0.3-0.8-0.4-1.3c-0.1-0.4,0-0.9-0.1-1.3s-0.1-0.9-0.2-1.3c-0.1-0.4-0.2-0.7-0.2-1.1s-0.2-0.7-0.3-1.1
				c0-0.4-0.1-0.7-0.1-1.1s0.2-0.8,0.2-1.1c-0.1-0.4-0.2-0.7-0.2-1.1s-0.1-0.8-0.1-1.1c0-0.4,0.1-0.7,0.1-1.1s0-0.7,0-1.1
				c-0.1-0.4-0.4-0.6-0.5-1c-0.1-0.3,0-0.8-0.2-1.1c-0.2-0.3-0.6-0.5-0.7-0.9c-0.1-0.3,0-0.8-0.1-1.1c-0.1-0.4-0.1-0.7-0.1-1.1
				c-0.1-0.4-0.2-0.7-0.3-1.1c0-0.4,0-0.7-0.1-1.1s-0.1-0.7-0.2-1.1c-0.1-0.4-0.4-0.6-0.5-1s0.1-0.8,0-1.1c-0.1-0.4-0.3-0.7-0.3-1
				c-0.1-0.4-0.5-0.6-0.6-1s0.1-0.9-0.1-1.2c-0.2-0.3-0.6-0.5-0.8-0.8s-0.2-0.7-0.4-1s-0.4-0.6-0.5-1c-0.1-0.3-0.5-0.7-0.5-1
				c-0.1-0.4-0.1-0.8-0.2-1.1c-0.1-0.4,0.1-0.8,0.1-1.2c-0.1-0.4-0.5-0.6-0.7-0.9c-0.2-0.3-0.3-0.6-0.5-1c-0.2-0.3-0.2-0.8-0.4-1.1
				s-0.4-0.6-0.7-0.9c-0.2-0.3-0.7-0.5-0.9-0.8s0-0.8-0.2-1.1s-0.5-0.5-0.7-0.9c-0.2-0.3-0.4-0.6-0.6-0.9c-0.2-0.3-0.5-0.6-0.7-0.9
				c-0.2-0.3,0.1-0.9-0.1-1.2c-0.1-0.3-0.6-0.6-0.7-0.9c-0.1-0.4,0.1-0.8-0.1-1.2c-0.2-0.3-0.3-0.7-0.5-1s-0.7-0.4-0.9-0.7
				s-0.3-0.7-0.5-1s-0.5-0.6-0.7-0.8c-0.2-0.3-0.4-0.6-0.6-0.9c-0.2-0.3-0.5-0.6-0.7-0.9c-0.2-0.3-0.4-0.6-0.6-0.9
				c-0.2-0.3-0.4-0.6-0.6-0.9c-0.2-0.3-0.3-0.7-0.5-1s-0.5-0.6-0.7-0.9c-0.2-0.3-0.4-0.6-0.7-0.9c-0.2-0.3-0.7-0.4-1-0.6
				c-0.2-0.3-0.2-0.8-0.4-1.1c-0.2-0.3-0.6-0.4-0.9-0.7s-0.5-0.5-0.8-0.8c-0.2-0.3-0.7-0.4-0.9-0.7c-0.2-0.3-0.4-0.6-0.7-0.9
				c-0.2-0.3-0.5-0.6-0.7-0.8c-0.2-0.3-0.4-0.6-0.6-0.9c-0.2-0.3-0.4-0.6-0.7-0.9s-0.6-0.6-0.9-0.8c-0.3-0.2-0.7-0.4-1.1-0.6
				c-0.3-0.2-0.7-0.4-1-0.6s-0.6-0.6-0.9-0.8c-0.3-0.3-0.6-0.6-0.9-0.8c-0.3-0.2-0.7-0.4-1.1-0.6c-0.3-0.2-0.8-0.3-1.1-0.5
				c-0.3-0.2-0.7-0.4-1-0.6s-0.7-0.4-1-0.7c-0.3-0.2-0.7-0.5-1-0.7c-0.3-0.3-0.5-0.7-0.8-1c-0.3-0.2-0.8-0.3-1.1-0.5
				c-0.4-0.2-0.7-0.4-1.1-0.5c-0.4-0.2-0.8-0.2-1.2-0.3c-0.4-0.2-0.7-0.6-1-0.7c-0.4-0.1-0.8,0-1.2-0.1c-0.4-0.1-0.8-0.6-1.3-0.6
				c-0.4,0-0.9,0-1.4,0S77,16,76.6,16.1c-0.5,0-0.9-0.4-1.4-0.3c-0.4,0-0.9,0.3-1.3,0.4s-0.9,0-1.3,0.1s-0.8,0.5-1.2,0.6
				c-0.4,0.1-1-0.2-1.4-0.1s-0.8,0.3-1.2,0.5c-0.4,0.2-0.7,0.5-1.1,0.7s-0.9,0.2-1.3,0.4c-0.4,0.2-0.7,0.5-1.1,0.7s-0.7,0.5-1.1,0.7
				s-0.8,0.4-1.2,0.6c-0.4,0.2-0.6,0.7-0.9,1s-1,0.2-1.3,0.5s-0.3,0.8-0.6,1c-0.3,0.2-0.8,0.2-1.1,0.4c-0.3,0.2-0.6,0.5-0.9,0.7
				c-0.3,0.3-0.5,0.6-0.7,0.9s-0.5,0.6-0.7,0.9s-0.4,0.6-0.6,1c-0.2,0.3-0.4,0.7-0.6,1s-0.2,0.7-0.4,1.1C55,29.2,55.1,29.7,55,30
				c-0.1,0.3-0.4,0.6-0.5,1s-0.2,0.7-0.3,1.1c-0.1,0.4-0.2,0.7-0.4,1.1c-0.2,0.3-0.6,0.5-0.8,0.8c-0.2,0.3-0.1,0.8-0.3,1.1
				c-0.2,0.3-0.6,0.5-0.7,0.9c-0.2,0.3-0.2,0.7-0.3,1.1c-0.1,0.4-0.2,0.7-0.3,1.1c-0.1,0.4-0.4,0.7-0.4,1.1c0,0.4-0.2,0.7-0.2,1.1
				c-0.1,0.4,0.1,0.8,0.1,1.1c-0.1,0.4-0.4,0.7-0.5,1s-0.5,0.6-0.6,1c-0.2,0.3-0.2,0.8-0.3,1.1c-0.1,0.4-0.3,0.7-0.4,1.1
				c-0.1,0.4,0.2,0.8,0.2,1.2S49,47.6,49,48c0,0.4-0.2,0.8-0.2,1.1c0,0.4,0.2,0.8,0.1,1.2c0,0.4,0,0.8,0,1.1c0,0.4-0.4,0.8-0.4,1.2
				s0.5,0.7,0.6,1.1c0.1,0.4-0.1,0.8-0.1,1.2c0.1,0.4,0.2,0.7,0.3,1.1C49.1,55,48.9,55.4,48.9,55.8z M70.3,83.7
				c0-0.4-0.1-0.8-0.1-1.1c0-0.4-0.1-0.8-0.1-1.1c0-0.4,0-0.8-0.1-1.1c0-0.4-0.2-0.7-0.3-1.1c-0.1-0.4,0.2-0.8,0-1.2
				c-0.1-0.4-0.6-0.6-0.8-0.9c-0.2-0.3,0.1-0.9-0.1-1.2c-0.2-0.3-0.5-0.6-0.7-1c-0.2-0.3-0.4-0.6-0.6-1c-0.2-0.3-0.4-0.6-0.7-0.9
				c-0.2-0.3-0.7-0.5-0.9-0.8c-0.3-0.3-0.3-0.8-0.5-1.1c-0.3-0.3-0.7-0.4-1-0.7c-0.3-0.3-0.6-0.5-0.9-0.8s-0.6-0.5-0.9-0.8
				s-0.6-0.5-0.9-0.7s-0.5-0.6-0.9-0.8c-0.3-0.2-0.5-0.7-0.9-0.9c-0.3-0.2-0.9,0-1.2-0.1c-0.4-0.1-0.6-0.5-1-0.6s-0.7-0.3-1.1-0.5
				c-0.4-0.1-0.8,0-1.2-0.2c-0.4-0.1-0.7-0.4-1.1-0.5s-0.8-0.2-1.1-0.3c-0.4-0.1-0.7-0.3-1.1-0.4s-0.7-0.3-1.1-0.4
				c-0.6-0.1-1.1,0.2-1.3,0.5c-0.2,0.2-0.2,0.6-0.2,1.3c0,0.4-0.1,0.7-0.1,1.1s0,0.7,0,1.1c0.1,0.4,0.2,0.8,0.3,1.2
				c0.1,0.4,0.3,0.8,0.4,1.2c0.1,0.4,0.3,0.8,0.5,1.2c0.1,0.4-0.1,0.9,0,1.3s0.2,0.8,0.3,1.2c0.1,0.4,0.2,0.8,0.3,1.2
				c0.1,0.4,0.1,0.8,0.3,1.2c0.1,0.4,0.3,0.8,0.4,1.2c0.1,0.4,0.2,0.8,0.4,1.2c0.2,0.4,0.4,0.8,0.5,1.1c0.2,0.4,0.5,0.7,0.7,1.1
				s0.4,0.7,0.6,1.1s0.1,0.9,0.3,1.3c0.2,0.4,0.7,0.6,0.9,0.9c0.2,0.4,0.2,0.9,0.4,1.2c0.2,0.3,0.5,0.7,0.8,1
				c0.3,0.4,0.8,0.5,1.1,0.8c0.3,0.3,0.7,0.6,1,0.9s0.4,0.9,0.8,1.2c0.3,0.3,0.9,0.3,1.3,0.6c0.3,0.3,0.6,0.6,1,0.9
				c0.4,0.2,0.8,0.4,1.2,0.5c0.4,0.2,0.8,0.5,1.3,0.6c0.5,0,1,0.1,1.4,0c0.5-0.1,0.8-0.4,1.3-0.6c0.4-0.2,0.8-0.3,1.1-0.7
				c0.3-0.3,0.3-0.8,0.6-1.2c0.2-0.4,0.5-0.7,0.7-1.1s0.2-0.7,0.3-1.1c0.1-0.4,0.4-0.7,0.5-1c0.1-0.4-0.1-0.8-0.1-1.2
				C70,84.5,70.3,84.1,70.3,83.7z M34.1,106.4c-0.4,0-0.7,0.1-1.1,0.1s-0.7,0-1.1,0s-0.7,0-1.1,0c-0.4,0-0.7,0.2-1.1,0.3
				c-0.4,0.1-0.8-0.2-1.2-0.1c-0.5,0.1-0.7,0.6-0.9,0.8c-0.4,0.3-0.8,0.6-0.7,1c0.1,0.3,0.4,0.6,0.8,1c0.3,0.3,0.7,0.6,1,0.9
				s0.7,0.6,1,0.9c0.4,0.3,0.8,0.3,1.2,0.6c0.4,0.3,0.6,0.8,0.9,1c0.4,0.2,0.9,0.2,1.3,0.4c0.4,0.2,0.8,0.4,1.2,0.6
				c0.4,0.2,0.8,0.3,1.2,0.4c0.4,0.1,0.8,0.2,1.3,0.3c0.4,0.1,0.8,0.3,1.2,0.3c0.4,0,0.9,0.2,1.3,0.1s0.7-0.6,1.1-0.8
				c0.4-0.1,0.9-0.1,1.2-0.2c0.4-0.2,0.9-0.3,1.2-0.6c0.3-0.3,0.5-0.8,0.8-1.1c0.3-0.4,0.6-0.7,0.7-1.1s0.1-0.9,0-1.3
				s-0.1-0.8-0.3-1.1c-0.2-0.3-0.4-0.8-0.7-1c-0.3-0.2-0.8-0.2-1.2-0.3c-0.4-0.1-0.8-0.2-1.1-0.3c-0.4-0.1-0.7-0.3-1.1-0.3
				c-0.4-0.1-0.8-0.1-1.1-0.1c-0.4,0-0.8,0-1.2-0.1c-0.4,0-0.8,0-1.2,0c-0.4,0-0.8,0.1-1.2,0.1C34.9,106.7,34.5,106.4,34.1,106.4z"
				/>
		</g>
		<g>
			<path d="M183.4,197.4c0.3-0.3,0.7-0.4,1-0.8c0.2-0.4,0.3-0.9,0.4-1.3c0.1-0.4-0.1-0.9,0-1.3c0.1-0.4,0.3-0.8,0.4-1.2
				c0.1-0.4,0.1-0.9,0.1-1.3c0.1-0.4,0-0.9,0.2-1.3c0.1-0.4,0.6-0.7,0.7-1.1c0.1-0.4,0.2-0.8,0.3-1.2c0.2-0.4,0.3-0.8,0.5-1.2
				s0.4-0.7,0.6-1.1c0.1-0.4,0.2-0.8,0.3-1.2s0.4-0.8,0.5-1.2c0.2-0.4,0.2-0.8,0.3-1.2c0.2-0.4,0.5-0.7,0.6-1.1
				c0.1-0.3,0-0.8,0.1-1.1s0.2-0.7,0.4-1c0.1-0.3,0.5-0.6,0.7-0.9c0.1-0.3,0.2-0.7,0.3-1c0.2-0.3,0.3-0.7,0.5-1s0.5-0.5,0.8-0.8
				c0.2-0.3,0.3-0.7,0.5-1s0.5-0.5,0.7-0.8c0.2-0.4,0.4-0.8,0.6-1.1c0.3-0.4,0.7-0.5,1-0.7s0.7-0.5,1.1-0.5c0.4,0,0.8,0.3,1.2,0.4
				c0.4,0.1,0.7,0.4,1.1,0.7c0.3,0.3,0.7,0.5,1,0.9c0.2,0.3-0.1,0.8,0.1,1.2c0.1,0.3,0.7,0.6,0.7,0.9c0.1,0.4-0.3,0.8-0.3,1.2
				s0.5,0.7,0.5,1.1c0,0.4-0.1,0.7-0.1,1.1c0,0.4-0.2,0.8-0.1,1.2c0.1,0.4,0.3,0.8,0.4,1.2c0.1,0.4,0,0.8,0,1.2s0.3,0.8,0.3,1.2
				s0,0.8-0.1,1.2s-0.2,0.8-0.2,1.2c-0.1,0.4-0.1,0.8-0.2,1.2c-0.1,0.4-0.3,0.8-0.3,1.2s0.1,0.8,0.1,1.2c-0.1,0.4-0.5,0.7-0.6,1.1
				c-0.1,0.4,0,0.8-0.1,1.2s-0.1,0.8-0.1,1.2c-0.1,0.4-0.1,0.8-0.2,1.2c0,0.4-0.2,0.8-0.2,1.2s0.4,0.8,0.4,1.2s-0.3,0.8-0.4,1.2
				c-0.1,0.4-0.4,0.7-0.6,1.1c-0.1,0.4-0.2,0.8-0.4,1.1c-0.1,0.4-0.1,0.8-0.2,1.2c-0.1,0.4-0.4,0.7-0.5,1.1c-0.1,0.4,0.1,0.8,0,1.2
				c0,0.4,0,0.8,0,1.2s-0.1,0.8-0.1,1.2s-0.3,0.8-0.4,1.1c-0.1,0.4-0.2,0.8-0.3,1.1c-0.1,0.4,0,0.8-0.1,1.2s-0.5,0.7-0.6,1
				c-0.1,0.4-0.3,0.7-0.4,1.1c-0.1,0.4-0.2,0.7-0.3,1.1c-0.2,0.4-0.1,0.8-0.3,1.2s-0.4,0.7-0.6,1c-0.2,0.4-0.2,0.8-0.3,1.1
				c-0.1,0.4-0.5,0.7-0.6,1.1c0,0.4,0.4,0.8,0.3,1.2c0,0.4-0.4,0.8-0.4,1.2s0.1,0.8,0.1,1.2c-0.1,0.4-0.3,0.7-0.4,1.1
				c-0.1,0.4-0.2,0.8-0.3,1.1c-0.1,0.4-0.3,0.7-0.4,1.1c-0.1,0.4,0,0.8-0.1,1.2s-0.6,0.7-0.7,1c-0.1,0.4,0,0.8-0.1,1.2
				s-0.6,0.6-0.7,1c-0.1,0.4,0,0.8-0.1,1.2s-0.2,0.8-0.3,1.3c-0.1,0.4,0,0.9-0.1,1.3c-0.1,0.4-0.2,0.9-0.3,1.3
				c-0.1,0.4-0.6,0.8-0.7,1.2c-0.1,0.4,0.1,0.9-0.1,1.3c-0.1,0.4-0.5,0.8-0.6,1.2s0,0.9-0.1,1.3c-0.1,0.4-0.5,0.8-0.6,1.2
				s0.1,0.9,0.1,1.4c0,0.4,0.1,0.9,0.1,1.3c0,0.4-0.1,0.9-0.1,1.3c0,0.4,0.4,0.9,0.4,1.3c-0.1,0.4-0.5,0.8-0.6,1.2s-0.2,0.8-0.3,1.3
				c-0.1,0.4-0.3,0.8-0.4,1.3c-0.1,0.4,0.1,0.9,0.1,1.3c0,0.4-0.1,0.8,0,1.2c0,0.4,0.1,0.8,0.2,1.2c0.1,0.4,0.3,0.8,0.4,1.2
				c0.1,0.4-0.1,0.8-0.1,1.3c0,0.4,0.2,0.8,0.2,1.2s-0.1,0.8-0.1,1.2c0,0.4,0,0.8,0,1.2c0,0.4-0.3,0.8-0.3,1.2
				c0,0.4,0.5,0.8,0.6,1.2c0,0.4-0.2,0.8-0.1,1.2c0.1,0.4,0.1,0.8,0.1,1.2c0.1,0.4,0.3,0.8,0.4,1.2c0.1,0.4,0.2,0.8,0.3,1.2
				c0.1,0.4-0.1,0.8-0.1,1.2c0.1,0.4,0.1,0.8,0.2,1.2s0.2,0.8,0.3,1.2c0.1,0.4,0.2,0.8,0.2,1.3c0,0.4,0.1,0.8,0.2,1.3
				c0,0.4,0.2,0.8,0.2,1.3c0,0.4-0.2,0.9-0.1,1.3c0.1,0.4,0.2,0.8,0.3,1.2c0.2,0.6,0.4,0.9,0.7,1.1s0.8,0.2,1.4,0
				c0.4-0.1,0.8-0.5,1.3-0.6c0.4-0.2,0.9-0.3,1.3-0.5c0.4-0.2,1-0.1,1.4-0.3c0.4-0.2,0.7-0.6,1.1-0.7c0.4-0.1,0.8,0,1.3-0.1
				c0.5,0,1.2-0.3,1.4,0.3c0.2,0.6-0.4,1.1-0.8,1.3c-0.3,0.2-0.7,0.2-1,0.4c-0.3,0.2-0.5,0.5-0.8,0.7s-0.6,0.3-1,0.4
				s-0.7,0.4-1.1,0.5c-0.4,0.1-0.9,0-1.3,0.1c-0.4,0.1-0.8,0.3-1.2,0.4s-0.7,0.5-0.9,0.6c-0.4,0.2-0.7,0.3-0.7,0.7
				c0,0.3,0,0.7,0.1,1.1s0.2,0.9,0.4,1.3s0.6,0.7,0.8,1.1s0.3,0.9,0.5,1.2c0.2,0.4,0.5,0.7,0.7,1.2c0.2,0.4,0.4,0.8,0.4,1.3
				c0.1,0.4,0,0.9,0.1,1.3s0.1,0.9,0.2,1.3c0.1,0.4,0.2,0.9,0.4,1.3c0.1,0.2,0.7,0.2,0.7,0.4c0.1,0.3,0,0.8,0.2,1.2
				c0.2,0.4,0.2,0.7-0.2,0.9c-0.4,0.2-0.7,0.1-1-0.2c-0.3-0.3-0.8-0.5-1.1-0.7c-0.2-0.2-0.2-0.7-0.3-1s-0.3-0.5-0.4-0.8
				c-0.2-0.4,0.1-1-0.1-1.3c-0.2-0.4-0.7-0.6-0.9-0.9c-0.2-0.4-0.3-0.8-0.5-1.2c-0.2-0.4-0.4-0.7-0.6-1.1c-0.1-0.4-0.2-0.8-0.4-1.2
				c-0.1-0.4-0.1-0.9-0.2-1.3c-0.1-0.4-0.2-0.8-0.3-1.2c-0.1-0.4-0.3-0.8-0.4-1.2c-0.1-0.4-0.5-0.7-0.6-1c-0.1-0.5-0.2-0.8-0.5-0.9
				s-0.6-0.1-1.1,0c-0.4,0.1-0.7,0.5-1.2,0.7c-0.4,0.1-0.8,0.2-1.2,0.4c-0.4,0.2-0.9,0.2-1.3,0.3c-0.4,0.1-0.9,0-1.3,0.1
				c-0.4,0.1-0.8,0.1-1.3,0.1c-0.4,0-0.9,0-1.3,0c-0.4,0-0.9-0.2-1.3-0.2c-0.4,0-0.9,0-1.3,0c-0.4,0-0.8,0.2-1.3,0.3
				c-0.4,0-0.9,0-1.3,0.1c-0.4,0-0.9-0.2-1.3-0.2c-0.4,0-0.8,0.2-1.3,0.2c-0.4,0-0.8-0.3-1.3-0.4c-0.4-0.1-0.9-0.1-1.3-0.2
				c-0.4-0.1-0.9,0-1.3-0.1c-0.4-0.1-0.8-0.3-1.3-0.4c-0.3-0.1-0.7-0.3-1.1-0.4c-0.4,0-0.7,0.2-1.1,0.2c-0.4,0-0.7-0.2-1.1-0.3
				c-0.4,0-0.7,0.1-1.1,0.1c-0.4-0.1-0.7-0.2-1-0.3c-0.4-0.2-0.9-0.3-1.2-0.5c-0.4-0.2-0.6-0.7-0.9-1c-0.3-0.3-0.7-0.6-1.1-0.8
				c-0.4-0.3-0.9-0.4-1.2-0.6c-0.4-0.2-0.8-0.4-1.2-0.6s-0.9-0.1-1.3-0.3c-0.4-0.2-0.8-0.4-1.2-0.6s-0.9-0.4-1.2-0.6
				c-0.3-0.3-0.5-0.8-0.7-1.2c-0.2-0.4-0.4-0.8-0.6-1.2c-0.2-0.4,0-0.4,0.3-0.8s0.3-0.4,0.7-0.2c0.3,0.2,0.5,0.5,0.8,0.7
				s0.8,0.2,1.1,0.4c0.3,0.2,0.6,0.5,0.9,0.7c0.4,0.2,0.7,0.5,1.1,0.7c0.4,0.2,0.9,0,1.3,0.2c0.4,0.1,0.8,0.4,1.2,0.6
				c0.4,0.1,0.9,0.1,1.3,0.2c0.4,0.2,0.8,0.5,1.2,0.6c0.4,0.2,0.8,0.4,1.2,0.6s0.8,0.3,1.2,0.5s0.7,0.6,1.1,0.7
				c0.4,0.1,0.9,0,1.3,0.1c0.4,0.1,0.8,0.2,1.3,0.3c0.4,0.1,0.9,0.2,1.3,0.2c0.4,0.1,0.9-0.1,1.3,0c0.4,0.1,0.9,0.1,1.3,0.1
				c0.4,0,0.8,0.2,1.3,0.2c0.4,0,0.9,0.1,1.3,0.1c0.4,0,0.8,0.3,1.3,0.3c0.4,0,0.9,0,1.3,0.1c0.4,0.1,0.9,0.2,1.3,0.3
				c0.4,0.1,0.9,0.1,1.4,0.1c0.4,0,0.9-0.2,1.3-0.2c0.4,0,0.9,0.1,1.4,0c0.4-0.1,0.9-0.3,1.3-0.4c0.4,0,0.9-0.2,1.4-0.2
				s0.9,0.3,1.3,0.3c0.5,0,0.9,0,1.4-0.1s1-0.2,1.2-0.4c0.4-0.2,0.6-0.7,0.6-1.1c0-0.3-0.2-0.7-0.3-1.2c-0.1-0.3-0.2-0.7-0.3-1
				s-0.3-0.7-0.4-1c-0.1-0.3-0.3-0.7-0.4-1c-0.1-0.3-0.2-0.7-0.3-1s0.1-0.8,0-1.1c-0.1-0.4-0.2-0.9-0.3-1.3s-0.1-0.9-0.1-1.3
				s0-0.9,0-1.3s-0.2-0.9-0.3-1.3s0.1-0.9,0-1.3c0-0.4-0.2-0.9-0.2-1.3s-0.2-0.9-0.2-1.3s-0.1-0.9-0.1-1.3s0.1-0.9,0-1.3
				s-0.3-0.8-0.4-1.3c-0.1-0.4-0.1-0.9-0.2-1.3c-0.1-0.4-0.3-0.9-0.3-1.3c0-0.4,0.4-0.9,0.4-1.3c0-0.4-0.3-0.9-0.3-1.3
				c0-0.4,0.3-0.9,0.4-1.3c0-0.4-0.1-0.9-0.1-1.3c0-0.4-0.2-0.9-0.1-1.3c0.1-0.4,0.2-0.9,0.3-1.3c0.1-0.4,0.6-0.8,0.6-1.2
				c0.1-0.4,0.2-0.9,0.3-1.3c0-0.4-0.3-0.9-0.3-1.3c0-0.4,0-0.9,0-1.3c0-0.4,0.5-0.8,0.5-1.2c0.1-0.4,0.1-0.8,0.2-1.3
				c0.1-0.4-0.1-0.9-0.1-1.3c0-0.4-0.2-0.9-0.2-1.3c0-0.4,0.1-0.9,0.1-1.3c0-0.4,0.4-0.8,0.4-1.3c0.1-0.4,0.2-0.8,0.3-1.2
				s0.3-0.8,0.5-1.2s0.4-0.8,0.6-1.2c0.2-0.4-0.1-0.9,0-1.4c0.1-0.4,0.4-0.8,0.5-1.2c0-0.4,0-0.9,0.1-1.3c0-0.4,0.3-0.8,0.3-1.3
				c0.1-0.4-0.3-0.9-0.2-1.4c0.1-0.4,0.7-0.7,0.8-1.1c0.2-0.4,0.1-0.9,0.3-1.3c0.2-0.4,0.4-0.8,0.6-1.2c0.2-0.4,0.4-0.8,0.5-1.2
				s0.3-0.8,0.4-1.2c0.1-0.4-0.1-0.9-0.1-1.3c0-0.4,0.1-0.9,0.1-1.3c0.1-0.4,0.3-0.8,0.5-1.2c0.1-0.4,0.3-0.8,0.5-1.2
				s0.3-0.8,0.5-1.2s0.2-0.9,0.3-1.3c0.2-0.4,0.7-0.7,0.8-1.1c0.1-0.4-0.1-0.9,0-1.3c0.1-0.4,0.6-0.7,0.7-1.2c0.1-0.4,0-0.9,0.1-1.3
				c0.1-0.4,0-0.9,0.1-1.3c0.1-0.4,0.1-0.8,0.2-1.3c0.1-0.4,0.3-0.8,0.4-1.2c0.1-0.4,0.4-0.8,0.5-1.2s0.3-0.8,0.4-1.2
				c0.1-0.4,0.1-0.8,0.2-1.3c0.1-0.4-0.1-0.9-0.1-1.3c0.1-0.4,0.4-0.8,0.4-1.2s0.3-0.8,0.3-1.2c0.1-0.4-0.2-0.9-0.2-1.3
				c0-0.4,0.1-0.9,0.1-1.3c0-0.4-0.1-0.9-0.1-1.3c0-0.4,0-0.9,0-1.3c0.1-0.4,0-0.9,0.1-1.3c0.1-0.4,0.5-0.7,0.6-1.2
				c0.1-0.4,0.3-0.8,0.3-1.2c0.1-0.4-0.2-0.9-0.1-1.3c0.1-0.4,0.3-0.8,0.4-1.2c0-0.4,0.1-0.8,0.1-1.2s-0.2-0.8-0.2-1.2
				s-0.2-0.8-0.2-1.2s0.3-0.8,0.3-1.2c0-0.3-0.4-0.5-0.6-0.8c-0.2-0.3,0-0.8-0.1-1.1c-0.1-0.4-0.4-0.7-0.5-1.1
				c-0.1-0.4-0.2-0.5-0.8-0.6c-0.5-0.1-0.7,0-0.9,0.3s-0.2,0.8-0.4,1.1s-0.6,0.5-0.8,0.8s-0.3,0.7-0.5,1s-0.6,0.5-0.8,0.8
				s-0.3,0.7-0.5,1s-0.4,0.6-0.5,0.9c-0.1,0.3-0.3,0.7-0.4,1c-0.1,0.3-0.3,0.7-0.4,1c-0.1,0.3-0.4,0.6-0.5,1c-0.1,0.3,0,0.7-0.1,1.1
				c-0.1,0.3-0.3,0.7-0.4,1c-0.1,0.3-0.3,0.7-0.4,1c-0.1,0.3,0.2,0.8,0.1,1.1c-0.1,0.4-0.4,0.6-0.5,1s0.1,0.8,0,1.1
				c-0.1,0.4-0.2,0.7-0.3,1c-0.1,0.4-0.1,0.7-0.2,1.1c-0.1,0.4-0.4,0.7-0.5,1c-0.1,0.4-0.3,0.7-0.4,1c-0.1,0.4,0.1,0.8,0,1.2
				s-0.2,0.7-0.4,1.1c-0.1,0.4-0.5,0.6-0.6,1c-0.1,0.3,0,0.8-0.2,1.1c-0.1,0.4-0.4,0.7-0.5,1c-0.1,0.4,0,0.8-0.2,1.2
				c-0.1,0.3-0.5,0.6-0.7,0.9c-0.2,0.3-0.1,0.8-0.3,1.1c-0.1,0.3-0.6,0.6-0.7,0.9c-0.1,0.4-0.2,0.7-0.3,1.1
				c-0.1,0.4,0.2,0.8,0.1,1.2c-0.1,0.4-0.1,0.7-0.2,1.1c-0.1,0.4-0.2,0.7-0.3,1.1c-0.1,0.4-0.4,0.7-0.5,1c-0.1,0.4,0.1,0.8,0,1.1
				c-0.1,0.4-0.1,0.7-0.2,1.1c-0.1,0.4-0.4,0.7-0.5,1c-0.1,0.4-0.3,0.7-0.5,1c-0.1,0.4,0,0.8-0.1,1.1c-0.1,0.4-0.2,0.7-0.4,1.1
				c-0.1,0.4-0.3,0.7-0.4,1c-0.1,0.3,0,0.8-0.2,1.1s-0.7,0.4-0.9,0.7s-0.2,0.7-0.5,1s-0.6,1-1.1,0.8s-0.8-1-0.7-1.4
				c0-0.3,0.3-0.6,0.4-0.9c0.2-0.3,0.2-0.6,0.2-0.9c0.1-0.4,0.5-0.7,0.6-1.1c0.1-0.4-0.1-0.9,0-1.3c0.1-0.4,0.5-0.7,0.6-1.1
				c0.1-0.4,0-0.8,0.1-1.2s0.1-0.8,0.1-1.2s0.3-0.8,0.3-1.2s-0.1-0.8,0-1.2c0-0.4,0.1-0.8,0.1-1.2c0.1-0.4,0.2-0.8,0.3-1.2
				s0.1-0.8,0.2-1.2c0.1-0.4,0.3-0.8,0.3-1.2c0.1-0.4,0.1-0.8,0.1-1.2s-0.2-0.8-0.2-1.3c0-0.4,0.3-0.8,0.2-1.3
				c0-0.4-0.5-0.8-0.5-1.2s0.4-0.8,0.5-1.2c0-0.5-0.3-1-0.2-1.4s0.3-0.9,0.4-1.3c0.1-0.4,0.2-0.9,0.2-1.3c0-0.5,0.4-0.9,0.4-1.3
				c0-0.5-0.1-0.9-0.1-1.4s-0.1-0.9-0.1-1.4c0-0.4,0.2-0.8,0.2-1.2s-0.2-0.8-0.2-1.2s0.4-0.8,0.4-1.2s0-0.8,0-1.2s-0.1-0.8-0.2-1.2
				c0-0.4-0.3-0.8-0.3-1.2s0-0.8,0-1.2s0-0.8,0-1.2s0-0.7,0-1.1c0-0.4,0.2-0.8,0.2-1.1c0-0.4-0.5-0.7-0.5-1.1c0-0.4,0.1-0.8,0-1.1
				c-0.1-0.4,0.1-0.8,0-1.1c-0.1-0.5-0.4-1-0.8-1.3c-0.3-0.3-0.8-0.2-1.4-0.2c-0.6,0-0.9,0-1.1,0.4c-0.2,0.3-0.2,0.8-0.3,1.3
				c-0.1,0.4-0.5,0.7-0.5,1.1c-0.1,0.4-0.1,0.8-0.2,1.2c0,0.4,0.2,0.8,0.1,1.2c-0.1,0.4-0.2,0.8-0.3,1.1c-0.1,0.4-0.3,0.7-0.5,1.1
				c-0.1,0.4-0.4,0.7-0.6,1c-0.2,0.4-0.4,0.7-0.5,1.1c-0.1,0.4-0.1,0.8-0.2,1.2c-0.1,0.4-0.1,0.8-0.2,1.1c-0.1,0.4-0.4,0.7-0.5,1.1
				c-0.1,0.4-0.1,0.8-0.1,1.2c-0.1,0.4-0.1,0.8-0.2,1.1c-0.1,0.4,0,0.8-0.2,1.2c-0.1,0.4-0.5,0.6-0.6,1s0.1,0.9,0,1.2
				c-0.1,0.4-0.7,0.6-0.8,1s-0.2,0.8-0.3,1.1c-0.1,0.4-0.2,0.8-0.2,1.1c-0.1,0.4-0.2,0.7-0.3,1.1c-0.1,0.4,0,0.8-0.1,1.2
				s0.1,0.8,0,1.2s-0.2,0.7-0.3,1.1c-0.1,0.4-0.2,0.7-0.3,1.1c-0.1,0.4-0.2,0.7-0.3,1.1c-0.1,0.4-0.3,0.7-0.5,1.1
				c-0.1,0.4,0,0.8-0.1,1.2s-0.6,0.6-0.8,1c-0.1,0.4-0.2,0.8-0.3,1.1c-0.1,0.4,0.1,0.8,0.1,1.2s-0.2,0.8-0.2,1.2s-0.2,0.8-0.3,1.1
				c-0.1,0.4,0,0.8-0.1,1.2s-0.5,0.7-0.6,1c-0.1,0.4-0.3,0.7-0.5,1.1c-0.2,0.4,0,0.8-0.1,1.2s-0.4,0.7-0.5,1.1
				c-0.1,0.3-0.4,0.6-0.5,1c-0.1,0.3-0.1,0.7-0.2,1.1c-0.1,0.3-0.1,0.7-0.2,1.1c-0.1,0.3-0.6,0.5-0.7,0.9c-0.1,0.4-0.1,1-0.6,0.9
				c-0.6,0-0.8-0.6-0.9-1c-0.1-0.3-0.1-0.6-0.2-0.9c-0.1-0.3,0-0.6,0.1-0.9c0-0.4,0.2-0.7,0.3-1.1c0.1-0.4,0.1-0.7,0.2-1.1
				c0.1-0.4,0-0.7,0.1-1.1c0.1-0.4,0-0.7,0.1-1.1c0-0.4-0.2-0.7-0.1-1.1c0-0.4,0.2-0.7,0.2-1.1c0-0.4,0.1-0.7,0.1-1.1
				c0-0.4,0.3-0.7,0.3-1.1c0-0.4-0.3-0.7-0.2-1.1c0-0.4-0.1-0.7-0.1-1.1c0-0.4,0.1-0.7,0.2-1.1c0-0.4,0.2-0.7,0.2-1.1
				c0-0.4,0.1-0.7,0.1-1.1c0.1-0.4,0.1-0.7,0.2-1.1c0.1-0.4,0.3-0.7,0.4-1c0.1-0.4-0.2-0.8-0.2-1.1c0-0.4,0.4-0.7,0.3-1.1
				c0-0.4-0.3-0.7-0.3-1.1c0-0.4,0.1-0.7,0.1-1.1c0-0.4-0.4-0.7-0.4-1.1c0-0.4,0.3-0.8,0.3-1.1c0-0.4-0.2-0.8-0.2-1.1
				c0-0.4-0.2-0.8-0.2-1.1c0-0.4,0.4-0.8,0.4-1.1c0-0.4-0.4-0.7-0.4-1.1c0-0.4,0-0.8,0-1.1c-0.1-0.4,0-0.8,0-1.1
				c-0.1-0.4-0.3-0.7-0.3-1.1c-0.1-0.4,0.1-0.8,0-1.2s-0.6-0.6-0.7-1c-0.1-0.4,0-0.9-0.2-1.2c-0.3-0.3-0.7-0.5-0.8-0.9
				c-0.2-0.4,0.1-1.1-0.5-1.1c-0.6,0.1-0.2,0.7-0.3,1.2c-0.1,0.4-0.6,0.8-0.7,1.2c-0.1,0.4-0.1,0.9-0.2,1.3
				c-0.1,0.4-0.1,0.9-0.2,1.3c-0.1,0.4,0,0.9-0.1,1.3c-0.1,0.4-0.3,0.8-0.4,1.3c-0.1,0.4-0.1,0.9-0.2,1.3c-0.1,0.4,0,0.9-0.1,1.3
				c-0.1,0.4-0.2,0.8-0.3,1.3c-0.1,0.4-0.3,0.8-0.3,1.2s-0.1,0.8-0.1,1.3c0,0.4,0.3,0.9,0.3,1.3c0,0.4-0.2,0.8-0.3,1.3
				c-0.1,0.4-0.4,0.8-0.5,1.2s-0.2,0.8-0.3,1.2s-0.1,0.8-0.2,1.2c-0.1,0.4-0.3,0.8-0.4,1.2c-0.1,0.4,0.1,0.9,0,1.3
				c0,0.4-0.2,0.8-0.3,1.3c0,0.4,0.2,0.9,0.1,1.3c-0.1,0.4-0.3,0.8-0.4,1.2c-0.1,0.4-0.4,0.8-0.5,1.2s0.2,0.9,0.1,1.3
				c-0.1,0.4-0.3,0.8-0.4,1.2c-0.1,0.4-0.2,0.8-0.3,1.2s-0.4,0.8-0.6,1.1c-0.2,0.4-0.3,0.8-0.5,1.2s-0.6,0.6-0.8,1s-0.4,0.8-0.5,1.2
				s-0.1,0.9-0.2,1.3c-0.1,0.4-0.2,0.8-0.3,1.3c-0.1,0.4,0.1,0.9,0,1.3c-0.1,0.4-0.5,0.7-0.7,1.1c-0.2,0.4-0.2,0.8-0.4,1.2
				s-0.3,0.8-0.6,1.2c-0.3,0.3-0.7,0.6-1,0.8c-0.3,0.3-0.7,0.2-1.1,0.3c-0.4,0.1-0.8,0.3-1.1,0.1s-0.7-0.4-0.9-0.7s-0.2-0.7-0.4-1.1
				c-0.1-0.4-0.5-0.6-0.6-1c-0.2-0.3-0.1-0.8-0.2-1.2c-0.2-0.3-0.5-0.6-0.6-1c-0.2-0.3-0.1-0.8-0.3-1.1s-0.5-0.6-0.6-1
				s-0.3-0.7-0.4-1.1c-0.1-0.4-0.5-0.6-0.6-1s-0.2-0.8-0.3-1.1c-0.1-0.4,0-0.8-0.1-1.2s-0.2-0.7-0.4-1.1c-0.2-0.4-0.6-0.6-0.8-0.9
				c-0.3-0.3-0.4-0.7-0.7-1c-0.3-0.4-0.7-0.6-0.9-0.8c-0.4-0.3-0.8-0.4-1.2-0.2c-0.3,0.1-0.5,0.5-0.8,0.9c-0.2,0.4-0.4,0.7-0.5,1.1
				c-0.1,0.4,0,0.8-0.1,1.2s-0.1,0.8-0.1,1.2s-0.3,0.8-0.3,1.2s0.1,0.8,0.1,1.2s0,0.8,0,1.2s0,0.8,0,1.2s-0.1,0.8-0.1,1.2
				c0.1,0.4,0.4,0.7,0.5,1.1c0.1,0.4,0.1,0.8,0.2,1.1c0.1,0.4,0.3,0.7,0.4,1.1c0.1,0.4,0.2,0.8,0.3,1.1c0.1,0.4,0.4,0.7,0.6,1
				c0.2,0.4,0,0.9,0.1,1.2c0.1,0.4,0.2,0.7,0.3,1.1c0.1,0.4,0.5,0.7,0.6,1c0.1,0.4,0,0.8,0.1,1.2s0.4,0.7,0.5,1.1
				c0.1,0.4,0.2,0.8,0.3,1.1c0.1,0.4,0,0.8,0.1,1.2s0.7,0.6,0.8,1s-0.1,0.9,0,1.2c0.1,0.4,0.4,0.7,0.6,1c0.1,0.4,0.5,0.6,0.7,1
				c0.1,0.4,0.3,0.8,0.4,1.1c0.1,0.4-0.1,0.9,0,1.4c0.1,0.4,0,0.9,0,1.3c0,0.4-0.1,0.9,0,1.3c0,0.4,0.3,0.9,0.4,1.3
				c0.1,0.4,0.3,0.8,0.4,1.3c0.1,0.4-0.2,0.9-0.1,1.3c0.1,0.4,0.3,0.8,0.4,1.3c0.1,0.4-0.1,0.9,0,1.3c0.1,0.4,0.5,0.8,0.6,1.2
				s-0.1,0.9-0.1,1.3c0.1,0.4,0.1,0.9,0.2,1.3c0.1,0.4,0.5,0.8,0.6,1.2c0,0.4,0.2,0.8,0.2,1.2s-0.4,0.8-0.4,1.2s0.4,0.8,0.4,1.2
				c0,0.4,0,0.8,0,1.2c0,0.4-0.2,0.8-0.2,1.2s0.2,0.8,0.2,1.2c0,0.4,0.3,0.8,0.3,1.2c0,0.4,0.2,0.8,0.3,1.2c0,0.4-0.3,0.8-0.3,1.2
				c0,0.4,0.4,0.8,0.4,1.2c0,0.4,0,0.8,0.1,1.2c0,0.4-0.1,0.8,0,1.2c0,0.4,0.1,0.8,0.2,1.2c0.1,0.4,0.2,0.8,0.3,1.2
				c0.1,0.4,0,0.8,0.1,1.2c0.1,0.4,0.1,0.8,0.1,1.2c0,0.4,0.8,0.8,0.7,1.1c0,0.5-0.8,0.9-1.3,0.9c-0.5,0.1-0.8-0.3-1.1-0.8
				c-0.2-0.5-0.4-0.9-0.4-1.4c0-0.4-0.1-0.8-0.2-1.2c-0.1-0.4-0.4-0.8-0.5-1.2c-0.1-0.4-0.1-0.8-0.2-1.2c-0.1-0.4-0.2-0.8-0.3-1.2
				c0-0.4-0.1-0.8-0.1-1.2c0-0.4,0.1-0.8,0-1.2c0-0.4,0-0.8-0.1-1.2c0-0.4-0.3-0.8-0.3-1.2c-0.1-0.4,0-0.9,0-1.3s0.1-0.8,0.2-1.3
				c0.1-0.4,0.3-0.8,0.4-1.2c0-0.4,0.1-0.9,0.1-1.3c-0.1-0.4-0.1-0.9-0.2-1.3c-0.1-0.4-0.4-0.7-0.6-1.1c-0.1-0.4-0.1-0.8-0.2-1.2
				c-0.1-0.4-0.6-0.7-0.6-1.1c-0.1-0.4-0.3-0.8-0.3-1.2s0.2-0.8,0.1-1.3c0-0.4-0.1-0.8-0.1-1.2s-0.3-0.8-0.4-1.2
				c-0.1-0.4-0.1-0.8-0.2-1.2c-0.1-0.4,0.1-0.9,0-1.3c-0.1-0.4-0.5-0.7-0.6-1.1c-0.1-0.4-0.3-0.8-0.4-1.2c-0.1-0.4-0.1-0.8-0.2-1.1
				c-0.1-0.4,0-0.8-0.1-1.2s-0.5-0.6-0.7-1c-0.1-0.4-0.2-0.8-0.3-1.1c-0.1-0.4-0.1-0.8-0.2-1.2c-0.1-0.4-0.3-0.7-0.4-1.1
				c-0.1-0.4-0.5-0.6-0.7-1c-0.1-0.4,0.1-0.9-0.1-1.2c-0.1-0.4-0.3-0.8-0.4-1.1c-0.1-0.4-0.6-0.7-0.7-1.1c-0.1-0.4,0.1-0.9,0-1.3
				c-0.1-0.4-0.6-0.7-0.7-1.1c-0.1-0.4,0.2-0.9,0.1-1.3c-0.1-0.4-0.3-0.8-0.4-1.2c-0.1-0.4-0.6-0.7-0.8-1.1c-0.1-0.4,0-0.9-0.1-1.3
				c-0.1-0.4,0.1-0.8,0-1.2c0-0.4-0.1-0.8-0.1-1.2s0.1-0.8,0-1.2s-0.3-0.8-0.3-1.2s-0.2-0.8-0.2-1.1c0-0.4,0.3-0.7,0.4-1.1
				c0-0.4-0.1-0.8,0-1.1c0-0.4,0.2-0.7,0.2-1.1c0-0.4,0-0.7,0.1-1.1c0-0.4-0.2-0.8-0.1-1.1c0-0.4,0.4-0.7,0.4-1.1
				c0-0.4,0.1-0.7,0.1-1.1c0-0.5-0.1-0.9,0.1-1.3c0.1-0.4,0.2-0.9,0.4-1.3c0.2-0.4,0.5-0.8,0.7-1.2c0.3-0.4,0.8-0.4,1.1-0.6
				c0.4-0.2,0.7-0.3,1.1-0.4c0.4-0.1,0.8-0.3,1.2-0.1c0.4,0.1,0.7,0.3,1.1,0.6c0.3,0.2,0.5,0.6,0.8,1c0.2,0.4,0.3,0.8,0.5,1.2
				s0.5,0.7,0.7,1.1c0.2,0.4,0.7,0.6,0.9,0.9c0.2,0.4,0.3,0.8,0.5,1.2s0.2,0.9,0.4,1.3c0.2,0.4,0.7,0.6,0.9,1s0.3,0.8,0.5,1.2
				s0.3,0.8,0.4,1.2l-0.4,0.2c0.2,0.4,0.2,0.9,0.4,1.2c0.2,0.4,0.5,0.6,1,0.6c0.6,0.1,0.9-0.1,1.2-0.5s0.2-1,0.4-1.4
				c0.1-0.3,0.3-0.7,0.5-1s0.5-0.5,0.7-0.9c0.2-0.3,0.3-0.7,0.4-1c0.2-0.3,0.5-0.6,0.7-0.9c0.1-0.3-0.1-0.8,0-1.1s0.3-0.7,0.4-1
				c0.1-0.3,0.1-0.7,0.2-1.1c0.1-0.3,0.3-0.7,0.4-1c0.1-0.3,0.3-0.7,0.4-1c0.1-0.3,0.2-0.7,0.3-1s-0.1-0.8,0-1.1s0.5-0.6,0.6-1
				s0.3-0.9,0.4-1.3c0.1-0.4-0.2-0.9-0.2-1.3c0-0.4,0.2-0.9,0.2-1.3c0.1-0.4,0.1-0.9,0.2-1.3c0.1-0.4,0.5-0.8,0.6-1.2
				s0.2-0.8,0.3-1.3c0.1-0.4-0.1-0.9,0-1.3c0.1-0.4,0.4-0.8,0.5-1.2s-0.1-0.9-0.1-1.3c0-0.4,0.1-0.9,0.2-1.3c0-0.4,0-0.9,0-1.3
				c0-0.4,0.1-0.9,0.1-1.3c0.1-0.4,0-0.9,0.1-1.3c0.1-0.4,0.4-0.8,0.5-1.2s0.1-0.9,0.1-1.3c0.1-0.4,0.1-0.9,0.1-1.3
				c0.1-0.4,0.4-0.8,0.5-1.3c0.1-0.4-0.2-0.9-0.1-1.3c0.1-0.4,0.2-0.8,0.3-1.3c0.1-0.4,0.3-0.8,0.5-1.2c0.1-0.4,0.1-1,0.4-1.3
				c0.3-0.4,0.7-0.7,1.1-0.9c0.4-0.2,0.9-0.3,1.4-0.3c0.4,0,0.7,0.3,1,0.4c0.3,0.1,0.8-0.1,1.1,0.1c0.3,0.2,0.6,0.5,0.8,0.7
				c0.2,0.3,0.2,0.7,0.4,1c0.1,0.3,0.2,0.7,0.3,1c0.1,0.4,0.3,0.7,0.3,1.1c0,0.4,0.1,0.7,0.1,1.1c0,0.4,0,0.7,0.1,1.1
				c0.1,0.4,0.1,0.7,0.2,1.1c0.1,0.3,0.3,0.7,0.4,1s-0.2,0.8-0.1,1.1c0.1,0.4,0.1,0.7,0.1,1.1c0.1,0.4,0.3,0.7,0.3,1.1
				c0,0.4,0.2,0.8,0.2,1.2s-0.2,0.8-0.2,1.2s0,0.8,0.1,1.2c0,0.4-0.1,0.8,0,1.2s0.3,0.8,0.4,1.1c0.1,0.4,0.5,0.7,0.6,1.1
				c0.1,0.4-0.1,0.8-0.1,1.2c0,0.6-0.4,1.1-0.3,1.7c0,0.3-0.2,1.2,0.1,1.3c0.5,0.1,0.5-0.9,0.6-1.2c0.1-0.4,0.4-0.7,0.4-1
				c0.1-0.4-0.1-0.8,0-1.1c0.1-0.4,0.4-0.7,0.5-1c0.1-0.4,0.1-0.7,0.2-1.1c0.1-0.4,0.1-0.7,0.2-1.1c0.1-0.4,0.2-0.7,0.3-1.1
				c0.1-0.4,0.3-0.7,0.4-1c0.1-0.4,0.2-0.7,0.3-1c0.1-0.4-0.1-0.8,0.1-1.2c0.1-0.3,0.4-0.6,0.6-1c0.2-0.3,0.2-0.7,0.4-1.1
				c0.1-0.3,0.6-0.6,0.7-0.9c0.1-0.4-0.1-0.9,0-1.2c0.1-0.4,0.5-0.7,0.6-1.1c0.1-0.4,0.1-0.8,0.2-1.2c0.1-0.4,0.4-0.7,0.5-1.1
				c0.1-0.4-0.1-0.8,0-1.2s0.1-0.8,0.2-1.2c0.1-0.4,0.5-0.7,0.5-1.1c0.1-0.4,0-0.8,0.1-1.2s0.4-0.7,0.5-1.1c0.1-0.4,0-0.8,0.2-1.2
				c0.1-0.4,0.5-0.7,0.6-1c0.1-0.4,0-0.8,0.2-1.2c0.1-0.4,0.4-0.8,0.6-1.1c0.2-0.4,0.3-0.8,0.5-1.2c0.3-0.3,0.6-0.7,1-0.9
				c0.3-0.2,0.8-0.2,1.3-0.3c0.5,0,0.8,0.3,1.2,0.4c0.4,0.1,0.9,0.1,1.2,0.4c0.3,0.3,0.3,0.8,0.5,1.1s0.5,0.6,0.7,1s0.4,0.8,0.7,1.2
				s0.4,0.8,0.6,1.2c0.2,0.4,0.7,0.7,0.8,1.2c0.1,0.4-0.3,1-0.3,1.4c0,0.5,0.2,0.9,0.2,1.4s0.2,0.9,0.2,1.4c0,0.4-0.2,0.9-0.2,1.3
				c0,0.4,0,0.8,0,1.3c0,0.4,0.1,0.9,0.1,1.3c0,0.4,0.2,0.9,0.2,1.3c0,0.4-0.1,0.9-0.2,1.3c0,0.4-0.2,0.8-0.3,1.3
				c0,0.4-0.2,0.8-0.2,1.3c0,0.4,0,0.9,0,1.3c0,0.4-0.2,0.8-0.2,1.3c0,0.4,0,0.8,0,1.3c0,0.4,0,0.8,0,1.3c0,0.4,0.3,0.9,0.2,1.3
				C183.5,196.5,183.1,196.8,183.4,197.4z"/>
		</g>
		<g>
			<path d="M99.8,263.9c-0.4,0-0.8,0.3-1.2,0.3s-0.8,0.1-1.2,0.1s-0.8-0.4-1.2-0.4c-0.4,0-0.8,0-1.2,0c-0.4,0-0.8,0-1.2-0.1
				c-0.4-0.1-0.7-0.3-1.1-0.4s-0.8-0.3-1.1-0.4c-0.4-0.1-0.8-0.1-1.2-0.1c-0.4-0.1-0.8-0.1-1.2-0.1c-0.4,0-0.8-0.1-1.2-0.1
				c-0.4,0-0.8,0.1-1.2,0c-0.4-0.1-0.8-0.2-1.1-0.4c-0.4-0.1-0.7-0.4-1.1-0.6c-0.4-0.1-0.8,0-1.2-0.2c-0.4-0.1-0.5-0.7-0.9-0.9
				c-0.4-0.2-0.8-0.2-1.1-0.3c-0.4-0.2-0.8-0.2-1.1-0.4c-0.3-0.2-0.6-0.5-1-0.7c-0.3-0.2-0.8-0.2-1.1-0.4s-0.4-0.8-0.8-1
				c-0.3-0.2-0.7-0.3-1.1-0.5c-0.3-0.2-0.8-0.2-1.2-0.4c-0.3-0.2-0.5-0.7-0.8-0.9c-0.3-0.2-0.9-0.1-1.2-0.3c-0.3-0.2-0.5-0.7-0.8-1
				c-0.3-0.2-0.6-0.5-0.9-0.7s-0.7-0.4-1-0.7c-0.3-0.2-0.7-0.4-1-0.6c-0.3-0.2-0.7-0.4-1-0.6c-0.3-0.2-0.6-0.6-0.9-0.8
				s-0.6-0.6-0.9-0.8s-0.6-0.4-0.9-0.7s-0.6-0.5-0.8-0.9c-0.2-0.3-0.4-0.7-0.6-1s-0.5-0.6-0.7-0.9c-0.2-0.3-0.3-0.8-0.5-1.1
				s-0.6-0.5-0.8-0.8c-0.2-0.3-0.5-0.6-0.7-0.9c-0.2-0.3-0.3-0.7-0.5-1s-0.6-0.5-0.8-0.8c-0.2-0.3-0.4-0.7-0.6-1
				c-0.3-0.3-0.5-0.6-0.7-0.9c-0.3-0.3-0.6-0.5-0.8-0.8c-0.2-0.3-0.7-0.5-0.9-0.8c-0.2-0.4-0.4-0.8-0.5-1.2s0.1-0.9-0.1-1.4
				c-0.1-0.4-0.4-0.8-0.5-1.2s-0.4-0.8-0.6-1.2s-0.4-0.8-0.6-1.2s-0.5-0.7-0.7-1.1c-0.2-0.4-0.2-0.9-0.3-1.3
				c-0.2-0.4-0.4-0.8-0.5-1.2c-0.1-0.3,0.3-0.7,0.2-0.9c-0.1-0.2-0.2-0.2-0.4-0.2c-0.4,0,0,0.1-0.1,0.4c-0.1,0.4-0.3,0.8-0.5,1.1
				c-0.2,0.4-0.7,0.5-0.9,0.9c-0.2,0.3-0.2,0.9-0.4,1.2c-0.2,0.3-0.6,0.6-0.8,0.9c-0.2,0.3-0.7,0.5-1,0.8c-0.2,0.3-0.3,0.8-0.5,1.1
				s-0.3,0.7-0.4,1.1c-0.2,0.3-0.5,0.6-0.6,1c-0.2,0.3-0.3,0.7-0.5,1s-0.2,0.7-0.4,1.1c-0.2,0.3-0.3,0.7-0.5,1s-0.5,0.6-0.8,0.9
				c-0.2,0.3-0.3,0.7-0.6,1c-0.2,0.3-0.7,0.5-0.9,0.8c-0.2,0.3-0.2,0.8-0.4,1.1c-0.2,0.3-0.7,0.4-0.9,0.7c-0.2,0.3-0.4,0.7-0.6,1
				s-0.5,0.5-0.8,0.9s-0.1,0.9-0.3,1.2c-0.1,0.4-0.2,0.7-0.2,1.1c0,0.4-0.2,0.8,0,1.2c0.1,0.4,0.3,0.7,0.5,1.1
				c0.2,0.4,0.5,0.7,0.7,1.1c0.2,0.4,0,0.9,0.2,1.3c0.2,0.4,0.7,0.6,0.9,0.9c0.2,0.4,0.2,0.8,0.5,1.1c0.2,0.3,0.6,0.6,0.8,0.9
				c0.2,0.3,0.3,0.8,0.5,1.1c0.2,0.3,0.7,0.6,0.9,0.9c0.2,0.4,0.1,0.8,0.3,1.2c0.2,0.4,0.4,0.7,0.6,1.1s0.3,0.7,0.5,1.1
				s0.4,0.7,0.6,1.1c0.2,0.3,0.6,0.6,0.7,0.9s0.2,0.7,0.3,1.1c0.1,0.4,0.2,0.7,0.4,1.1c0.1,0.3,0.5,0.6,0.7,0.9s0,0.9,0.3,1.2
				c0.2,0.3,0.8,0.3,1,0.6c0.2,0.3,0.2,0.8,0.4,1.1c0.2,0.3,0.5,0.5,0.7,0.8s0.7,0.5,0.9,0.8c0.2,0.3,0.1,0.8,0.3,1.1
				s0.2,0.7,0.4,1.1c0.2,0.3,0.6,0.5,0.8,0.8c0.2,0.3,0.3,0.8,0.5,1c0.3,0.3,0.6,0.4,0.9,0.7c0.3,0.3,0.7,0.4,1,0.6
				c0.3,0.3,0.5,0.6,0.7,0.9s0.4,0.6,0.6,1c0.2,0.3,0.5,0.6,0.7,0.9s0.3,0.7,0.5,1s0.4,0.6,0.7,0.9c0.2,0.3,0.5,0.6,0.7,0.8
				c0.3,0.2,0.3,0.7,0.6,1c0.3,0.2,0.6,0.4,0.9,0.7c0.3,0.2,0.6,0.4,0.9,0.7c0.2,0.3,0.5,0.5,0.7,0.8s0.5,0.6,0.7,0.9
				s0.4,0.6,0.6,0.9s0.4,0.6,0.6,0.9c0.3,0.3,0.6,0.4,0.9,0.6s0.4,0.7,0.7,0.9c0.3,0.2,0.8,0.1,1.1,0.4c0.3,0.2,0.5,0.6,0.8,0.8
				c0.4,0.3,0.6,0.7,0.9,0.8c0.4,0.1,0.8,0.1,1.2-0.2c0.2-0.2,0.4-0.6,0.8-0.9c0.3-0.2,0.7-0.3,1.1-0.5c0.3-0.2,0.8-0.2,1.1-0.4
				c0.4-0.2,0.5-0.7,0.9-0.9c0.3-0.2,0.6-0.4,0.9-0.7c0.3-0.2,0.9-0.2,1.2-0.4c0.3-0.3,0.6-0.6,0.8-0.8c0.3-0.3,0.4-0.7,0.7-0.9
				c0.3-0.3,0.6-0.5,0.9-0.7s0.6-0.5,0.9-0.7c0.3-0.3,0.6-0.5,0.9-0.8s0.6-0.5,0.9-0.8s0.6-0.6,0.9-0.8c0.4-0.3,0.6-0.7,0.9-1
				c0.4-0.3,0.9-0.3,1.3-0.5c0.4-0.3,0.5-0.9,0.8-1.1s0.8-0.5,1.1-0.7c0.4-0.3,0.7-0.5,1.1-0.8s0.6-0.7,1-1s0.9-0.2,1.3-0.5
				s0.6-0.6,1-0.9s0.6-0.7,1-1c0.4-0.2,0.8-0.3,1.2-0.6c0.4-0.2,0.9-0.3,1.3-0.5s0.7-0.5,1.1-0.7c0.3-0.2,0.5-0.6,0.8-0.8
				c0.3-0.2,0.6-0.3,1-0.5c0.3-0.2,0.7-0.2,1-0.3c0.3-0.1,0.7-0.2,1.1-0.2c0.4,0.1,0.7,0.4,0.8,0.7c0.2,0.3-0.2,0.4-0.5,0.6
				c-0.2,0.2-0.3,0.7-0.5,0.8c-0.3,0.3-0.8,0.4-1.1,0.7c-0.3,0.3-0.7,0.5-1,0.8s-0.6,0.6-0.9,0.9c-0.3,0.3-0.5,0.8-0.8,1
				c-0.3,0.3-0.7,0.6-1,0.8c-0.3,0.3-0.6,0.5-0.9,0.8c-0.3,0.2-0.7,0.4-1,0.6s-0.6,0.5-0.9,0.8s-0.8,0.3-1.1,0.5
				c-0.3,0.2-0.4,0.8-0.7,1c-0.3,0.3-0.7,0.4-1,0.6c-0.3,0.3-0.4,0.7-0.7,1c-0.3,0.3-0.5,0.7-0.8,0.9c-0.3,0.2-0.8,0.2-1.1,0.4
				c-0.3,0.2-0.7,0.4-1,0.6c-0.4,0.2-0.8,0.3-1.1,0.4c-0.3,0.2-0.6,0.5-0.9,0.7s-0.8,0.3-1.1,0.5c-0.3,0.3-0.6,0.6-0.8,0.9
				c-0.3,0.3-0.4,0.7-0.7,1c-0.3,0.3-0.7,0.3-1.1,0.5c-0.3,0.2-0.4,0.8-0.7,1c-0.3,0.2-0.9,0-1.2,0.2c-0.3,0.2-0.6,0.5-1,0.7
				c-0.3,0.2-0.6,0.5-0.9,0.7s-0.5,0.6-0.8,0.8c-0.3,0.2-0.8,0.2-1.1,0.4c-0.3,0.2-0.4,0.7-0.7,1c-0.3,0.2-0.8,0.3-1.1,0.5
				c-0.3,0.2-0.6,0.2-0.9,0.2s-0.7,0.3-1.1,0.2c-0.3-0.1-0.6-0.4-0.9-0.5c-0.4-0.1-0.7-0.5-1.1-0.7s-0.7-0.4-1.1-0.6
				s-0.9-0.1-1.3-0.3c-0.3-0.2-0.4-0.9-0.7-1.1c-0.3-0.3-0.7-0.5-1-0.8s-0.7-0.6-1-0.9s-0.2-1-0.5-1.3s-0.7-0.5-1-0.9
				c-0.3-0.3-0.8-0.5-1.1-0.8c-0.3-0.3-0.5-0.7-0.9-1c-0.3-0.3-0.8-0.5-1.1-0.7c-0.4-0.3-0.5-0.8-0.8-1.1c-0.3-0.3-0.8-0.4-1.1-0.7
				c-0.3-0.3-0.7-0.6-1-0.9c-0.3-0.4-0.3-0.8-0.6-1.2c-0.2-0.4-0.6-0.7-0.8-1c-0.3-0.4-0.5-0.7-0.8-1c-0.2-0.3-0.3-0.7-0.6-1
				c-0.3-0.3-0.7-0.3-1-0.6c-0.3-0.3-0.4-0.7-0.6-1c-0.3-0.3-0.6-0.5-0.8-0.8c-0.2-0.3-0.5-0.6-0.7-0.9s-0.5-0.6-0.7-0.9
				s-0.1-0.8-0.3-1.2c-0.2-0.3-0.6-0.5-0.8-0.9c-0.2-0.3-0.5-0.6-0.7-1s0.1-0.9,0-1.2c-0.1-0.4-0.5-0.7-0.6-1
				c-0.1-0.4-0.5-0.6-0.7-0.9s-0.1-0.9-0.3-1.2c-0.2-0.3-0.5-0.6-0.8-0.9c-0.2-0.3-0.5-0.6-0.7-0.9s-0.5-0.6-0.6-1
				c-0.2-0.3-0.3-0.7-0.5-1.1c-0.2-0.3-0.7-0.5-0.9-0.8c-0.2-0.3,0-0.9-0.2-1.2c-0.2-0.3-0.7-0.5-0.8-0.9c-0.2-0.4-0.3-0.7-0.4-1.1
				s0-0.8-0.1-1.2c-0.1-0.4-0.3-0.7-0.4-1.1c-0.1-0.4-0.3-0.7-0.4-1.1c-0.1-0.4-0.5-0.6-0.7-1s-0.1-0.8-0.2-1.2
				c-0.2-0.4-0.7-0.5-0.9-0.9c-0.2-0.4-0.2-0.8-0.4-1.1c-0.1-0.4,0.1-0.8,0.1-1.2s-0.3-0.8-0.2-1.1c0.1-0.4,0.1-0.8,0.2-1.2
				c0.1-0.3,0.5-0.6,0.7-1c0.2-0.3,0.6-0.5,0.8-0.8c0.2-0.3,0.4-0.8,0.6-1.1c0.2-0.4,0.2-0.8,0.4-1.2c0.2-0.4,0.5-0.7,0.7-1
				c0.2-0.4,0.4-0.8,0.6-1.1c0.2-0.4,0.5-0.7,0.7-1c0.2-0.4,0.6-0.6,0.9-0.9c0.2-0.4,0.2-0.9,0.4-1.2c0.2-0.4,0.5-0.6,0.8-1
				c0.2-0.4,0.3-0.8,0.5-1.2s0.4-0.8,0.6-1.1c0.2-0.4,0.6-0.7,0.8-1c0.2-0.4,0.5-0.7,0.7-1c0.2-0.4,0.1-0.9,0.4-1.3
				c0.2-0.3,0.4-0.7,0.7-1.1c0.2-0.3,0.7-0.5,0.9-0.9c0.2-0.3,0.2-0.9,0.5-1.2c0.2-0.3,0.5-0.5,0.8-0.8c0.2-0.3,0.4-0.6,0.7-0.8
				c0.3-0.2,0.6-0.5,0.9-0.6c0.6-0.2,0.1-0.3,0-0.8c0-0.4,0-0.8,0.1-1.2s0.5-0.7,0.6-1.1c0.1-0.4,0.2-0.8,0.3-1.2
				c0.1-0.4,0.1-0.8,0.1-1.2s-0.1-0.8-0.1-1.2s0.1-0.8,0.1-1.2s0.2-0.8,0.2-1.2s0-0.8,0-1.2s0.1-0.8,0.1-1.2s-0.3-0.8-0.3-1.2
				s0.4-0.8,0.4-1.2s-0.2-0.8-0.2-1.2s0.3-0.7,0.3-1.1c0-0.4,0.1-0.7,0.2-1.1c0.1-0.4,0-0.7,0.1-1.1c0-0.4,0-0.7,0-1.1
				c0-0.4-0.1-0.7-0.1-1.1c0-0.4,0.1-0.7,0.1-1.1c0-0.4,0.3-0.7,0.3-1.1c0-0.4-0.3-0.7-0.3-1.1c0-0.4,0-0.7,0-1.1c0-0.4,0-0.7,0-1.1
				c0-0.4-0.1-0.7-0.1-1.1c0-0.4,0.4-0.8,0.4-1.1c0-0.4-0.5-0.8-0.6-1.2s-0.2-0.8-0.4-1.2c-0.1-0.4,0.2-0.9,0.1-1.3
				c-0.1-0.4-0.4-0.8-0.4-1.2s-0.2-0.8-0.3-1.2c0-0.4,0.3-0.9,0.3-1.3c0-0.4,0-0.8-0.1-1.3c0-0.4,0-0.9,0-1.3c0-0.4-0.3-0.8-0.3-1.2
				c-0.1-0.4-0.2-0.8-0.2-1.2c-0.1-0.4-0.1-0.8-0.2-1.2s-0.2-0.8-0.3-1.2c0-0.4,0.1-0.9,0.1-1.3c0-0.4-0.2-0.8-0.2-1.3
				c0-0.4,0.2-0.9,0.2-1.3c0-0.4-0.1-0.8-0.2-1.3c0-0.4-0.2-0.8-0.1-1.3c0-0.4-0.1-0.9-0.1-1.3c0-0.4-0.1-0.8-0.1-1.3
				c0-0.4,0-0.8,0-1.2s0.1-0.8,0-1.1c-0.1-0.4-0.1-0.7-0.2-1.1c-0.1-0.4-0.1-0.7-0.2-1.1c-0.1-0.4-0.3-0.7-0.3-1.1
				c0-0.4-0.2-0.7-0.2-1.1c0-0.4,0-0.7,0-1.1c0-0.4,0-0.7,0-1.1s-0.1-0.7-0.1-1.1c0-0.4,0-0.7,0-1.1c0-0.4-0.2-0.8-0.2-1.1
				c0-0.4,0-0.7,0-1.1c0-0.4,0.2-0.7,0.1-1.1c0-0.4,0.1-0.7,0-1.1c0-0.4,0.2-0.7,0.1-1.1c0-0.4-0.1-0.7-0.1-1.1
				c0-0.4-0.2-0.7-0.2-1.1c0-0.4,0.2-0.8,0.2-1.1c0-0.4-0.2-0.7-0.3-1.1c-0.1-0.4-0.2-0.7-0.2-1.1c0-0.4,0.1-0.7,0.1-1.1
				c0-0.4,0.2-0.8,0.2-1.2s-0.2-0.8-0.2-1.2s0.1-0.8,0.1-1.2s-0.3-0.8-0.2-1.2c0.1-0.4,0.5-0.7,0.6-1.1c0.1-0.4,0.2-0.8,0.4-1.2
				c0.2-0.4,0.5-0.7,0.7-1c0.2-0.4,0.5-0.7,0.6-1.1c0.1-0.4,0.1-0.8,0.2-1.2s-0.2-0.9-0.2-1.3c0.1-0.4,0.3-0.8,0.4-1.1
				c0.1-0.4,0.3-0.7,0.4-1.1c0.2-0.4,0.1-0.8,0.3-1.2c0.2-0.4,0.3-0.7,0.5-1.1c0.2-0.3,0.6-0.6,0.8-0.9c0.2-0.3,0.3-0.8,0.5-1.1
				c0.3-0.5,0.5-1,1.3-0.7c0.4,0.1,0.6,0.3,0.8,0.6c0.2,0.3,0.4,0.6,0.4,1c0,0.3-0.4,0.6-0.5,1c-0.1,0.3-0.2,0.7-0.4,1
				c-0.2,0.3-0.3,0.6-0.4,0.9c-0.1,0.4-0.6,0.6-0.8,0.9c-0.2,0.3-0.2,0.8-0.3,1.1c-0.2,0.3-0.6,0.6-0.7,0.9
				c-0.1,0.4,0.2,0.9,0.1,1.2c-0.1,0.4-0.4,0.7-0.5,1.1c-0.1,0.4-0.1,0.8-0.2,1.1c-0.1,0.4-0.4,0.7-0.5,1c-0.1,0.4-0.2,0.7-0.3,1.1
				c-0.1,0.4,0.1,0.8,0.1,1.2c-0.1,0.4-0.2,0.7-0.2,1.1c0,0.4-0.2,0.7-0.3,1.1c0,0.4,0.2,0.8,0.1,1.2c0,0.4,0,0.8,0,1.3
				c0,0.4-0.2,0.9-0.1,1.3c0.1,0.4,0.3,0.8,0.3,1.3c0,0.4-0.1,0.9-0.1,1.3c0,0.4,0.2,0.9,0.2,1.3c0,0.4-0.1,0.9-0.1,1.3
				c0,0.4,0.1,0.8,0.1,1.3c0,0.4-0.1,0.9-0.1,1.3c0,0.4-0.3,0.9-0.3,1.3c0,0.4,0.3,0.9,0.3,1.3c0,0.4,0,0.9,0,1.3
				c0,0.4-0.2,0.9-0.2,1.3c0,0.4,0.1,0.9,0.2,1.3c0.1,0.4,0.2,0.8,0.3,1.3c0.1,0.4,0.3,0.8,0.4,1.2s0.5,0.8,0.5,1.2
				s-0.3,0.8-0.3,1.1c0,0.4,0.1,0.7,0.1,1.1c0,0.4,0.1,0.7,0.1,1.1c0,0.4,0,0.7,0.1,1.1c0,0.4,0,0.8,0.1,1.1
				c0.1,0.4,0.2,0.7,0.3,1.1c0.1,0.4,0,0.8,0.1,1.1c0.1,0.4,0.4,0.7,0.4,1.1c0,0.4-0.2,0.8-0.2,1.1c0,0.4,0,0.7,0,1.1
				c0,0.4-0.1,0.8-0.1,1.1c0,0.4,0.2,0.8,0.2,1.1c0,0.4,0.1,0.7,0.2,1.1c0.1,0.4,0.2,0.7,0.3,1.1c0.1,0.4,0.2,0.7,0.2,1.1
				c0.1,0.4,0.3,0.7,0.4,1.1c0,0.4,0,0.8,0,1.1c0,0.4-0.2,0.7-0.2,1.1c0,0.4-0.1,0.8,0,1.1c0,0.4,0.4,0.7,0.4,1.1
				c0.1,0.5-0.1,1,0,1.4s0.6,0.8,0.7,1.3s0.1,1,0.1,1.4c0,0.3-0.2,0.7-0.3,1c0,0.3,0.1,0.7,0.1,1.1c-0.1,0.3-0.1,0.7-0.1,1
				c0,0.4,0.1,0.7,0.1,1s0.1,0.7,0.2,1s0.3,0.6,0.4,1c0.1,0.3,0.3,0.7,0.3,1c0.1,0.3-0.2,0.8-0.2,1.1c0,0.4,0,0.8,0,1.2s0,0.8,0,1.2
				s0,0.8-0.1,1.2c0,0.4-0.3,0.8-0.3,1.1c0,0.4-0.1,0.8-0.1,1.2s-0.1,0.8-0.1,1.2c-0.1,0.4,0.1,0.8,0.1,1.2
				c-0.1,0.4-0.4,0.7-0.5,1.1c-0.1,0.4-0.2,0.8-0.2,1.2c-0.1,0.4,0,0.8,0,1.2c-0.1,0.4,0,0.8-0.1,1.2c0,0.4-0.2,0.8-0.2,1.2
				s0.1,0.8,0.1,1.2s0,0.8,0,1.2s0.1,0.8,0.1,1.2s0,0.8,0,1.2s0.1,0.8,0.1,1.2s-0.1,0.8-0.1,1.2s0,0.8,0,1.2s0.4,0.7,0.5,1.1
				c0,0.4,0,0.8,0,1.2c0.1,0.4-0.2,0.9-0.1,1.2c0.1,0.4,0.3,0.8,0.4,1.2c0.2,0.4,0.7,0.5,0.9,0.9c0.2,0.3,0.2,0.8,0.4,1.2
				c0.2,0.3,0.5,0.6,0.7,1c0.1,0.4,0.3,0.7,0.5,1s0.2,0.8,0.3,1.1c0.2,0.3,0.3,0.7,0.5,1.1c0.2,0.3,0.6,0.5,0.8,0.9
				c0.2,0.3,0.3,0.7,0.5,1.1c0.2,0.4,0.5,0.7,0.6,1c0.2,0.4,0,0.9,0.1,1.2c0.2,0.3,0.7,0.5,1,0.8c0.2,0.3,0.1,0.9,0.3,1.2
				c0.2,0.3,0.7,0.5,0.9,0.8c0.2,0.3,0.6,0.5,0.8,0.8c0.2,0.3,0.4,0.7,0.6,1c0.3,0.3,0.7,0.4,1,0.7s0.4,0.8,0.7,1
				c0.3,0.2,0.6,0.5,1,0.7c0.3,0.2,0.6,0.5,0.9,0.7c0.3,0.3,0.7,0.4,1,0.7c0.3,0.2,0.7,0.4,1.1,0.6c0.3,0.2,0.6,0.5,0.9,0.7
				s0.7,0.3,1.1,0.6c0.3,0.2,0.6,0.6,0.9,0.8c0.3,0.3,0.6,0.5,0.9,0.8s0.7,0.4,1,0.6c0.3,0.2,0.5,0.7,0.8,0.9s0.9,0.2,1.2,0.4
				c0.3,0.2,0.7,0.5,1,0.7s0.6,0.6,0.9,0.8c0.3,0.2,0.6,0.6,1,0.8c0.4,0.2,0.7,0.4,1.1,0.5s0.8,0,1.2,0.1c0.4,0.1,0.7,0.4,1.1,0.5
				s0.7,0.3,1.1,0.4s0.7,0.3,1.1,0.4c0.4,0.2,0.9,0,1.3,0.2s0.7,0.5,1,0.6c0.4,0.2,0.7,0.5,1.1,0.6s0.8,0.2,1.2,0.2
				c0.4,0,0.8,0.1,1.2,0.1c0.4,0,0.8-0.2,1.2-0.2c0.4,0,0.8,0.2,1.2,0.3c0.4,0.1,0.8,0.1,1.2,0.3c0.4,0.1,0.7,0.4,1.1,0.6
				c0.4,0.2,0.8,0.1,1.2,0.2s0.8,0.2,1.2,0.2s0.8,0.1,1.2,0.1s0.8,0.3,1.2,0.3s0.8-0.3,1.2-0.3s0.8,0,1.2,0.1c0.4,0,0.8,0.3,1.2,0.4
				s1.2-0.4,1.3,0.2c0.1,0.3,0.1,0.6-0.1,0.8c-0.2,0.3-0.5,0.5-0.7,0.6c-0.4,0.2-0.8,0.1-1.1,0.2c-0.4,0-0.7,0.2-1.1,0.2
				c-0.4,0-0.8-0.1-1.1-0.1c-0.4-0.1-0.8,0-1.1,0c-0.4-0.1-0.7-0.3-1.1-0.3C100.3,263.8,100,263.9,99.8,263.9z"/>
		</g>
		<g>
			<path d="M118.9,272.7c0-0.4,0.1-0.8,0.2-1.2c0-0.4,0.1-0.8,0.1-1.2c0.1-0.4-0.2-0.8-0.1-1.2c0-0.4,0.5-0.8,0.5-1.2
				c0-0.4-0.5-0.8-0.5-1.2c0-0.4,0.1-0.8,0.1-1.2c0-0.4-0.1-0.8-0.1-1.2c0-0.4,0.2-0.8,0.2-1.2c0-0.4,0.1-0.8,0.1-1.2
				c-0.1-0.4-0.4-0.8-0.2-1.1c0.2-0.4,0.7-1.2,1.2-1.2s0.8,0.9,0.9,1.4c0.1,0.4,0.5,0.7,0.6,1.1s0.2,0.8,0.2,1.2
				c0,0.4-0.1,0.9-0.1,1.3s0.1,0.8,0.1,1.2c0,0.4,0,0.8,0,1.2c0,0.4,0,0.8,0,1.2c0,0.4,0.2,0.8,0.2,1.2c0,0.4,0.1,0.8,0.1,1.2
				c0,0.4,0,0.8,0.1,1.2c0,0.4,0.1,0.8,0.1,1.2c0,0.4-0.1,0.8-0.1,1.2c0,0.4-0.2,0.8-0.2,1.2c0,0.4,0.2,0.8,0.2,1.2
				c0,0.4-0.3,0.8-0.3,1.2c0,0.4,0.1,0.7,0,1.1c0,0.4-0.3,0.7-0.4,1c-0.1,0.4-0.1,0.7-0.2,1.1c0,0.4-0.1,0.7-0.1,1.1
				s0.1,0.7,0.1,1.1s0,0.7,0,1.1s0.1,0.7,0.1,1.1s0.2,0.7,0.2,1.1s-0.3,0.7-0.3,1.1s0,0.7,0,1.1s0,0.7,0,1.1s0,0.7-0.1,1.1
				c0,0.3-0.1,0.8-0.2,1.2c-0.1,0.4-0.3,0.9-0.8,1c-0.4,0.1-0.8-0.3-1-0.6c-0.2-0.3-0.2-0.8-0.4-1.1c-0.2-0.3-0.4-0.6-0.6-1
				c-0.2-0.3-0.4-0.7-0.6-1c-0.2-0.3-0.5-0.6-0.7-0.9s-0.6-0.5-0.8-0.8s-0.2-0.8-0.4-1.1c-0.2-0.3-0.7-0.5-0.8-0.8
				c-0.2-0.3-0.1-0.8-0.3-1.1c-0.2-0.3-0.5-0.6-0.7-0.9s-0.2-0.7-0.3-1.1c-0.2-0.3-0.4-0.7-0.5-1c-0.2-0.3-0.5-0.6-0.7-0.9
				s-0.5-0.6-0.7-0.9s-0.4-0.6-0.7-0.9c-0.2-0.3-0.4-0.7-0.7-0.9c-0.3-0.3-0.4-0.6-0.7-0.9s-0.6-0.5-0.8-0.8s-0.1-0.8-0.3-1.1
				c-0.2-0.3-0.5-0.6-0.7-0.9s-0.3-0.7-0.5-1s-0.5-0.5-0.7-0.9c-0.2-0.3-0.1-0.7-0.2-1.1c-0.1-0.4,0-0.7,0-1.1s-0.2-0.7-0.1-1.1
				c0-0.4-0.1-0.7-0.1-1.1s0-0.4,0.4-0.6c0.5-0.2,0.6-0.2,0.8,0.1c0.3,0.3,0.7,0.6,0.9,1s0.2,0.9,0.4,1.2c0.2,0.4,0.6,0.6,0.9,1
				c0.2,0.4,0.2,0.9,0.4,1.3s0.4,0.8,0.6,1.1s0.6,0.7,0.8,1s0.6,0.6,0.9,1c0.2,0.4,0.3,0.8,0.6,1.2s0.3,0.8,0.6,1.2
				c0.2,0.4,0.4,0.8,0.6,1.1c0.2,0.4,0.4,0.8,0.6,1.1c0.2,0.4,0.6,0.6,0.8,1s0.5,0.7,0.7,1.1c0.2,0.3,0.4,0.7,0.6,1.1
				c0.3,0.4,0.5,0.6,0.9,0.5c0.5-0.1,0.8-0.4,0.7-0.9c0-0.4-0.3-0.9-0.4-1.3c0-0.4-0.1-0.7-0.1-1.1s0-0.7,0-1.1c0-0.3,0.4-0.7,0.4-1
				c0-0.4-0.1-0.7-0.1-1.1c0-0.5,0.1-0.9,0.1-1.4s-0.1-0.9-0.1-1.4C118.8,273.6,118.9,273.2,118.9,272.7z"/>
		</g>
		<g>
			<path d="M172,313.3c-0.4,0-0.9,0.2-1.2,0.1c-0.4-0.1-0.7-0.6-1-0.7c-0.4-0.1-0.8-0.1-1.2-0.3c-0.4-0.1-0.8,0-1.2,0
				c-0.4-0.1-0.8-0.4-1.2-0.4s-0.8,0.3-1.2,0.3s-0.8-0.3-1.2-0.4c-0.4,0-0.9,0.3-1.2,0.2c-0.4-0.1-0.7-0.5-1-0.7s-0.5-0.6-0.9-0.8
				c-0.3-0.2-0.7-0.4-1.1-0.6c-0.3-0.2-0.8-0.2-1.2-0.4c-0.4-0.2-0.6-0.6-1-0.7s-0.7-0.3-1.1-0.5c-0.4-0.1-0.8-0.1-1.2-0.3
				c-0.4-0.2-0.7-0.3-1.1-0.5c-0.3-0.2-0.5-0.6-0.7-0.9c-0.3-0.3-0.5-0.6-0.8-0.9c-0.2-0.3-0.5-0.6-0.8-0.9
				c-0.2-0.3-0.6-0.5-0.9-0.8c-0.3-0.4-0.6-0.8-0.9-1.2c-0.3-0.4-0.5-0.8-0.7-1.3s-0.4-0.9,0.1-1.2c0.5-0.3,0.9-0.1,1.3,0.2
				c0.3,0.2,0.5,0.6,0.8,0.9c0.3,0.2,0.7,0.4,1,0.6s0.6,0.4,0.9,0.7c0.3,0.2,0.4,0.7,0.7,0.9c0.3,0.2,0.8,0.2,1.1,0.4
				c0.4,0.3,0.6,0.7,0.9,0.9c0.4,0.2,0.8,0.4,1.2,0.6s0.7,0.6,1.1,0.8c0.4,0.2,0.8,0.3,1.2,0.5s0.9,0.1,1.3,0.2
				c0.4,0.2,0.6,0.7,1,0.9c0.4,0.2,0.9,0.1,1.3,0.3c0.4,0.1,0.8,0.4,1.2,0.5s1-0.2,1.4,0c0.4,0.1,0.8,0.5,1.2,0.7
				c0.4,0.1,0.9,0.2,1.3,0.3c0.4,0.1,0.9,0.3,1.3,0.3c0.4,0,0.9-0.1,1.3-0.1c0.4,0,0.9-0.1,1.3-0.1c0.4,0,0.9,0.4,1.3,0.4
				c0.4,0,0.9-0.4,1.3-0.5c0.4,0,0.7-0.2,1.1-0.3c0.4-0.1,0.8,0.1,1.2,0s0.6-0.6,1-0.7s0.8,0,1.2,0c0.4-0.1,0.8,0,1.2-0.1
				c0.4,0,0.8-0.1,1.2-0.2c0.4,0,0.8,0.1,1.2,0s0.7-0.3,1.1-0.4c0.4-0.1,0.7-0.3,1.1-0.5c0.3-0.2,0.7-0.4,1-0.6
				c0.3-0.3,0.5-0.7,0.8-0.9c0.3-0.2,0.7-0.4,1-0.6s0.6-0.6,0.9-0.7c0.3-0.2,0.8-0.1,1.1-0.3c0.3-0.2,0.7-0.3,1-0.5s0.6-0.5,0.9-0.7
				c0.3-0.2,0.7-0.3,1.1-0.5c0.3-0.2,0.7-0.4,1-0.5c0.4-0.2,0.7-0.4,1-0.6s0.7-0.4,1-0.6c0.1-0.1-0.1-0.6,0-0.7
				c0.3-0.2,0.5-0.5,0.8-0.6c0.3,0,0.6,0,0.9,0.4c0.6,0.6-0.4,0.8-0.7,1.4c-0.2,0.4,0.3,1.4-0.1,1.7c-0.3,0.3-0.9,0.1-1.2,0.4
				c-0.3,0.2-0.5,0.7-0.8,0.9c-0.3,0.2-0.7,0.3-1.1,0.5c-0.3,0.2-0.8,0.3-1.1,0.5s-0.6,0.5-0.9,0.7c-0.3,0.2-0.7,0.4-1,0.6
				s-0.5,0.6-0.9,0.8c-0.3,0.2-0.7,0.3-1.1,0.5c-0.3,0.2-0.5,0.6-0.9,0.8c-0.3,0.2-0.9,0.1-1.2,0.3c-0.3,0.2-0.5,0.7-0.8,0.9
				c-0.3,0.2-0.7,0.4-1,0.6c-0.4,0.1-0.7,0.4-1.1,0.5c-0.4,0.1-0.8,0.1-1.2,0.2s-0.8,0-1.2,0.1s-0.8,0.1-1.2,0.2s-0.8,0.3-1.1,0.3
				c-0.4,0-0.8,0.2-1.2,0.2s-0.8-0.3-1.2-0.2c-0.4,0-0.8,0.1-1.2,0.1c-0.4,0.1-0.8,0.2-1.2,0.3c-0.4,0.1-0.8,0.1-1.2,0.2
				C172.7,312.9,172.4,313.2,172,313.3z"/>
		</g>
		<g>
			<path d="M117.6,112.2c-0.3,0-0.8,0-1.3-0.2c-0.4-0.1-0.9,0-1.3-0.1c-0.4-0.1-0.8-0.5-1.3-0.5c-0.4-0.1-0.9,0.4-1.4,0.4
				c-0.4-0.1-0.7-0.3-1.1-0.3c-0.4,0-0.7,0.2-1.1,0.3c-0.4,0.1-0.8,0-1.2,0.1c-0.3,0.1-0.5,0.7-0.8,0.9c-0.3,0.2-0.9,0-1.2,0.2
				s-0.5,0.6-0.8,0.8c-0.3,0.2-0.7,0.4-0.9,0.7c-0.3,0.3-0.6,0.5-0.8,0.8c-0.3,0.3-0.3,0.8-0.5,1.1c-0.2,0.3-0.6,0.5-0.8,0.8
				s-0.6,0.5-0.8,0.8s-0.4,0.6-0.7,0.9c-0.2,0.3,0,0.9-0.2,1.2c-0.2,0.3-0.5,0.6-0.7,0.9s-0.3,0.7-0.5,1s-0.7,0.5-0.9,0.8
				c-0.1,0.3-0.1,0.7-0.4,1c-0.2,0.3-0.6,0.4-0.9,0.5c-0.3,0.1-0.6,0.3-1,0.1c-0.4-0.2-0.6-0.5-0.5-0.8s0.4-0.6,0.5-0.9
				s0.1-0.7,0.1-1c0.1-0.3,0.4-0.6,0.5-1c0.1-0.3,0.3-0.6,0.4-1c0.1-0.3,0.2-0.7,0.4-1c0.1-0.3,0.3-0.6,0.5-1
				c0.2-0.3,0.1-0.8,0.3-1.1c0.2-0.3,0.5-0.6,0.7-0.9s0.2-0.8,0.4-1.1c0.2-0.3,0.4-0.7,0.6-1c0.2-0.3,0.3-0.7,0.6-1
				c0.2-0.3,0.7-0.5,0.9-0.7c0.4-0.3,0.7-0.6,1.1-0.8c0.4-0.2,0.9-0.2,1.3-0.3c0.4-0.2,0.8-0.5,1.2-0.6s0.9-0.2,1.2-0.4
				c0.4-0.2,0.9-0.1,1.3-0.3c0.4-0.2,0.7-0.6,1.1-0.8c0.4-0.1,0.9-0.2,1.3-0.3c0.4-0.1,0.8-0.4,1.3-0.4c0.4,0,0.9,0.2,1.2,0.3
				c0.4,0.1,0.8,0.4,1.2,0.5s0.9,0,1.2,0.1c0.4,0.2,0.8,0.4,1.1,0.6c0.5,0.3,1,0.3,1.2,0.4c0.3,0.2,0.5,0.8,0.8,1.3s0.7,1,0.6,1.3
				C119,112.6,118,112.2,117.6,112.2z"/>
		</g>
		<g>
			<path d="M108.2,142.1c0-0.3-0.1-0.7-0.2-1c0-0.3-0.4-0.7-0.4-1s0.1-0.7,0.3-1.1c0.2-0.4,0.5-0.7,0.8-1s0.7-0.5,1-0.7
				c0.4-0.2,0.8,0.1,1.2,0.1s0.9-0.2,1.2-0.1c0.4,0.2,0.5,0.7,0.7,1c0.3,0.3,0.6,0.5,0.8,0.9c0.1,0.4,0.1,0.8,0.2,1.1
				c0.1,0.4,0.5,0.7,0.5,1c0.1,0.4-0.3,0.8-0.3,1.2s0.4,0.7,0.4,1.1c0,0.4-0.2,0.8-0.2,1.1c0,0.4-0.2,0.7-0.2,1.1
				c-0.1,0.4,0,0.7-0.1,1.1c-0.1,0.4-0.3,0.7-0.4,1c-0.2,0.5-0.4,0.8-0.6,1.1c-0.3,0.4-0.6,0.6-0.9,0.6c-0.4,0.1-0.8,0.2-1.3,0
				c-0.3-0.2-0.7-0.5-1-0.9c-0.3-0.3-0.3-0.9-0.5-1.2c-0.2-0.4-0.6-0.6-0.8-1s0-0.9-0.2-1.3c-0.1-0.4-0.5-0.7-0.6-1.1
				c-0.1-0.4-0.2-0.8-0.2-1.2C107.4,142.7,108.2,142.4,108.2,142.1z"/>
		</g>
		<g>
			<path d="M158.3,243c0-0.4,0.2-0.9,0.2-1.3c0-0.4,0-0.9,0-1.3c0-0.4,0-0.9,0.1-1.3c0-0.4-0.1-0.9,0-1.3c0.1-0.4,0.6-0.7,0.7-1.2
				c0.1-0.4-0.1-0.9,0.1-1.4c0.2-0.4,0.7-0.7,0.8-1.1c0.2-0.4,0.1-0.9,0.3-1.3c0.1-0.3,0.3-0.5,0.5-0.8c0.2-0.4,0.4-0.8,0.6-1.2
				c0.3-0.4,0.6-0.3,1.1-0.1c0.5,0.3,1,0.5,1,1c0.1,0.5-0.1,1.1-0.3,1.5s-0.7,0.6-0.9,0.9c-0.2,0.4-0.3,0.8-0.5,1.1
				c-0.2,0.4-0.1,0.8-0.3,1.2c-0.1,0.4-0.3,0.7-0.4,1.2c-0.1,0.4-0.1,0.9-0.2,1.3c-0.1,0.4-0.5,0.7-0.6,1.1
				c-0.1,0.4-0.2,0.8-0.3,1.2s0,0.8,0,1.3c0,0.4,0,0.8,0,1.2c0.1,0.4,0.1,0.8,0.2,1.2c0.1,0.4,0.1,0.8,0.3,1.2
				c0.1,0.4,0.2,0.8,0.4,1.1c0.1,0.4,0.3,0.7,0.4,1.1c0.1,0.3,0.4,0.6,0.5,1c0,0.4-0.1,0.7-0.2,1.1c-0.1,0.3-0.4,0.4-0.8,0.6
				c-0.3,0.1-0.7,0.4-1.1,0.1c-0.3-0.2-0.4-0.7-0.6-1c-0.2-0.3-0.5-0.6-0.6-1s-0.1-0.8-0.1-1.3c0-0.4,0-0.8,0-1.3c0-0.4,0-0.8,0-1.2
				s0.1-0.8,0.1-1.3C158.4,243.8,158.3,243.4,158.3,243z"/>
		</g>
		<g>
			<path d="M102.6,291.8c0.1,0.4,0.3,0.7,0.3,1.1s-0.3,0.7-0.4,1c-0.1,0.4,0.1,0.8-0.1,1.1c-0.2,0.3-0.3,0.7-0.5,1s-0.4,0.7-0.6,1
				c-0.3,0.3-0.7,0.7-1.1,0.8c-0.4,0.1-0.8-0.2-1.2-0.3c-0.4-0.1-0.8-0.2-1.1-0.4c-0.3-0.3-0.5-0.7-0.7-1c-0.1-0.4-0.4-0.8-0.4-1.2
				c0-0.4,0.1-0.8,0.2-1.3c0.1-0.4,0.4-0.8,0.5-1.2c0.1-0.4,0-0.8,0.2-1.2c0.2-0.4,0.4-0.7,0.6-1c0.2-0.4,0.3-0.9,0.6-1.1
				c0.4-0.3,0.8-0.5,1.1-0.7c0.3-0.1,0.8-0.1,1.3,0.1s1.1,0.3,1.4,0.6c0.4,0.3,0.7,0.9,0.7,1.4C103.4,290.8,102.6,291.2,102.6,291.8
				z"/>
		</g>
		<g>
			<path d="M98.5,315.7c-0.1,0.4-0.1,0.8-0.2,1.2c-0.1,0.4,0.1,0.9-0.1,1.3c-0.2,0.4-0.5,0.7-0.7,1.1c-0.2,0.3-0.3,0.8-0.6,1.2
				c-0.3,0.4-0.9,0.3-1.2,0.4c-0.4,0.1-0.6,0.1-1.1,0s-0.7-0.2-0.8-0.5c-0.1-0.3-0.2-0.6-0.3-1c0-0.4-0.1-0.8-0.2-1.2
				c0-0.4,0.1-0.8,0.1-1.2c0.1-0.4,0.2-0.8,0.4-1.1c0.1-0.4,0.4-0.6,0.6-1c0.2-0.3,0.4-0.6,0.7-0.9c0.2-0.2,0.3-0.7,0.6-0.8
				c0.3-0.1,0.7-0.1,1-0.2c0.6-0.1,0.9,0.1,1.2,0.3c0.3,0.2,0.7,0.5,0.8,1C98.8,314.7,98.5,315.2,98.5,315.7z"/>
		</g>
	</g>
</g>
</svg>
