<?xml version="1.0" encoding="utf-8"?>
<!-- Generator: Adobe Illustrator 24.2.2, SVG Export Plug-In . SVG Version: 6.00 Build 0)  -->
<svg version="1.1" id="Layer_1" xmlns="http://www.w3.org/2000/svg" xmlns:xlink="http://www.w3.org/1999/xlink" x="0px" y="0px"
	 viewBox="0 0 235 300" style="enable-background:new 0 0 235 300;" xml:space="preserve">
<style type="text/css">
	.st0{fill:#F8B618;}
	.st1{fill:#FF7BE9;}
</style>
<g>
	<g>
		<g>
			<path class="st0" d="M66.1,132c-0.1-0.1-0.3-0.2-0.6-0.9c-0.1-0.3,0.1-0.8,0-1.2c-0.1-0.3-0.6-0.6-0.7-1s0.1-0.8,0-1.2
				c-0.1-0.4-0.3-0.7-0.4-1.1s0-0.8-0.1-1.2c-0.1-0.4-0.6-0.7-0.7-1.1c-0.1-0.4,0-0.8-0.1-1.3c-0.1-0.4-0.1-0.8-0.2-1.2
				c-0.1-0.4-0.3-0.8-0.4-1.2c-0.1-0.4-0.2-0.8-0.3-1.2c-0.1-0.4-0.3-0.8-0.4-1.2c-0.1-0.4,0-0.8-0.1-1.2c-0.1-0.4-0.1-0.8-0.2-1.2
				c-0.1-0.4-0.2-0.8-0.3-1.2c-0.1-0.4-0.6-0.7-0.7-1.1c-0.1-0.4,0.1-0.9,0-1.3s-0.3-0.8-0.4-1.2c-0.1-0.4-0.4-0.8-0.5-1.2
				c-0.1-0.4,0.1-0.8,0.1-1.3c-0.1-0.4-0.4-0.8-0.4-1.2c-0.1-0.4,0.2-0.9,0.1-1.3c-0.1-0.4-0.4-0.8-0.4-1.2
				c-0.1-0.4,0.2-0.9,0.1-1.3c-0.1-0.4-0.3-0.8-0.4-1.2c-0.1-0.4-0.4-0.8-0.4-1.2c-0.1-0.4-0.2-0.8-0.3-1.2
				c-0.1-0.4,0.2-0.9,0.1-1.3c-0.1-0.4-0.5-0.7-0.6-1.1s-0.2-0.8-0.3-1.2c-0.1-0.4,0.1-0.9,0-1.3s-0.5-0.7-0.6-1.1s-0.1-0.8-0.2-1.2
				c-0.1-0.4,0-0.8-0.1-1.2c-0.1-0.4-0.4-0.8-0.5-1.2c-0.1-0.4,0.2-0.9,0.1-1.3c-0.1-0.4-0.6-0.7-0.7-1.1c-0.1-0.4-0.2-0.8-0.3-1.2
				c-0.1-0.4-0.2-0.8-0.3-1.2c-0.1-0.4,0-0.9-0.1-1.2c-0.1-0.4-0.1-0.8-0.2-1.2c-0.1-0.4,0-0.8-0.1-1.2c-0.1-0.4-0.2-0.8-0.3-1.2
				c-0.1-0.4-0.5-0.8-0.5-1.2c-0.1-0.4,0.2-0.9,0.1-1.3c-0.1-0.4-0.4-0.8-0.5-1.2c-0.1-0.4-0.2-0.8-0.3-1.2
				c-0.1-0.4,0.2-0.9,0.1-1.3c-0.1-0.4-0.5-0.7-0.6-1.1s0.1-0.9-0.1-1.2c-0.2-0.4-0.6-0.6-0.8-0.9c-0.2-0.4-0.4-0.7-0.5-1
				c-0.2-0.4-0.4-0.7-0.6-1c-0.2-0.4-0.1-0.9-0.2-1.2c-0.3-0.6-0.7-1-0.5-1.1s0.7,0,1.3,0.3c0.4,0.2,0.8,0.5,1.1,0.7
				c0.4,0.3,0.6,0.7,0.9,0.9c0.3,0.3,0.7,0.6,0.9,0.9c0.3,0.3,0.6,0.5,0.9,0.9c0.2,0.3,0.2,0.8,0.5,1.2c0.2,0.3,0.6,0.5,0.9,0.9
				c0.3,0.3,0.7,0.5,0.9,0.8c0.3,0.3,0.5,0.7,0.8,1s0.7,0.5,1,0.7c0.3,0.3,0.5,0.6,0.8,0.9c0.2,0.3,0.6,0.5,0.9,0.9
				c0.2,0.3,0.3,0.8,0.6,1.1c0.3,0.3,0.8,0.4,1,0.7c0.3,0.3,0.5,0.7,0.7,1c0.3,0.3,0.4,0.8,0.6,1.1c0.2,0.3,0.4,0.7,0.7,1
				c0.2,0.3,0.8,0.3,1.1,0.7c0.2,0.3,0.5,0.6,0.8,0.9s0.4,0.8,0.7,1c0.3,0.3,0.7,0.5,1,0.7c0.3,0.3,0.7,0.5,1,0.8s0.5,0.6,0.9,0.9
				c0.3,0.2,0.6,0.5,0.9,0.8s0.6,0.5,1,0.8c0.3,0.3,0.6,0.7,0.8,0.9c0.3,0.4,0.3,0.9,0.5,1.2c0.3,0.4,0.5,0.7,0.7,1s0.8,0.4,1.1,0.7
				c0.2,0.3,0.4,0.7,0.7,1c0.2,0.3,0.5,0.6,0.8,1c0.3,0.3,0.5,0.7,0.8,1s0.9,0.3,1.1,0.6c0.3,0.3,0.4,0.8,0.7,1
				c0.3,0.3,0.6,0.4,1,0.7c0.3,0.2,0.4,0.7,0.7,1c0.3,0.3,0.6,0.4,1,0.8c0.3,0.3,0.7,0.5,0.9,0.8c0.3,0.4,0.6,0.6,0.9,0.9
				c0.3,0.4,0.5,0.7,0.7,1s0.2,0.9,0.4,1.2c0.2,0.3,0.7,0.4,1,0.7c0.2,0.3,0.4,0.7,0.7,1c0.3,0.3,0.8,0.5,1,0.7
				c0.3,0.3,0.5,0.7,0.8,1s0.3,0.9,0.5,1.2c0.2,0.3,0.6,0.5,0.9,0.8c0.2,0.3,0.6,0.5,0.9,0.8c0.2,0.3,0.4,0.7,0.7,1
				c0.3,0.3,0.7,0.5,1,0.7s0.7,0.3,1,0.5c0.4,0.2,0.6,0.6,1,0.7s0.9-0.1,1.2,0c0.4,0.2,0.8,0.4,1,0.6c0.2,0.3,0,0.8,0.1,1.2
				c0.1,0.3,0.2,0.6,0.1,1.1s-0.1,0.9-0.3,1.2c-0.2,0.4-0.6,0.5-1,0.7c-0.4,0.1-0.7,0.3-1.2,0.3c-0.4,0-0.8-0.2-1.3-0.1
				c-0.4,0-0.7,0.6-1.2,0.7c-0.4,0.1-0.8,0.2-1.2,0.4c-0.4,0.2-0.7,0.4-1,0.6c-0.4,0.2-0.8,0.3-1.1,0.5c-0.4,0.2-0.5,0.6-0.8,0.8
				c-0.3,0.2-0.7,0.3-1,0.6c-0.3,0.2-0.7,0.2-1.1,0.4c-0.3,0.2-0.6,0.4-1,0.6s-0.7,0.3-1,0.5c-0.4,0.2-0.6,0.7-0.9,0.8
				c-0.4,0.2-0.7,0.4-1,0.5s-0.7,0.3-1.1,0.4c-0.3,0.1-0.7,0.1-1.1,0.3c-0.3,0.2-0.5,0.5-0.9,0.7s-0.7,0.3-1,0.5
				c-0.4,0.2-0.8,0.3-1.1,0.4c-0.4,0.2-0.8,0.3-1.1,0.5c-0.3,0.2-0.5,0.5-0.9,0.7c-0.3,0.2-0.6,0.3-1,0.5c-0.3,0.2-0.6,0.5-1,0.7
				s-0.7,0.5-1,0.7c-0.4,0.2-0.7,0.4-1,0.5c-0.4,0.2-0.9,0-1.2,0.1c-0.3,0.1-0.7,0.3-1.1,0.4c-0.3,0.1-0.5,0.6-0.9,0.8
				C67,131.9,66.5,131.8,66.1,132z"/>
		</g>
		<g>
			<g>
				<g>
					<path class="st1" d="M229.9,232.2c0.2,0.4,0.6,0.6,0.8,0.9c0.2,0.3,0,0.9,0.2,1.2s0.6,0.6,0.8,0.9c0.2,0.3,0.4,0.7,0.6,1
						c0.2,0.4,0.4,0.7,0.5,1.1c0.1,0.4,0.3,0.7,0.4,1.1c0.1,0.4,0.1,0.8,0.2,1.2c0.1,0.4-0.2,0.8-0.1,1.2c0.1,0.4,0.6,0.7,0.6,1.1
						c0.1,0.4-0.3,0.8-0.3,1.2s0.2,0.8,0.3,1.2c0,0.4,0.3,0.7,0.4,1.1c0,0.4-0.2,0.8-0.2,1.2s0,0.8,0,1.2s0.1,0.8,0,1.2
						c0,0.4,0,0.8,0,1.2s0.1,0.8,0.1,1.2s-0.3,0.8-0.3,1.2s-0.1,0.8-0.1,1.1c0,0.4,0.2,0.8,0.2,1.2s-0.4,0.7-0.4,1.1
						c-0.1,0.4-0.1,0.8-0.1,1.1c-0.1,0.4,0.1,0.8,0,1.2c-0.1,0.4-0.1,0.8-0.2,1.1c-0.1,0.4-0.4,0.7-0.4,1.1
						c-0.1,0.4,0.3,0.8,0.3,1.2c-0.1,0.4-0.3,0.7-0.4,1.1c-0.1,0.4-0.3,0.7-0.4,1.1c-0.1,0.4,0,0.8-0.1,1.2c-0.1,0.4,0,0.8-0.2,1.2
						c-0.1,0.4-0.3,0.7-0.5,1.1c-0.1,0.4-0.2,0.8-0.3,1.1c-0.1,0.4-0.7,0.6-0.8,1s-0.2,0.8-0.3,1.1c-0.1,0.4,0,0.8-0.2,1.2
						c-0.2,0.4-0.6,0.6-0.8,0.9c-0.2,0.4-0.4,0.7-0.6,1c-0.2,0.3-0.4,0.6-0.7,0.9c-0.2,0.3-0.5,0.6-0.7,0.9
						c-0.3,0.3-0.5,0.6-0.8,0.9s-0.4,0.7-0.6,1c-0.2,0.3-0.6,0.5-0.8,0.8s-0.5,0.6-0.7,1c-0.2,0.3-0.4,0.7-0.6,1
						c-0.2,0.3-0.2,0.8-0.3,1.2c-0.2,0.4-0.5,0.6-0.7,1c-0.2,0.3-0.2,0.8-0.4,1.1c-0.2,0.3-0.6,0.5-0.9,0.8
						c-0.3,0.3-0.5,0.7-0.8,0.9c-0.3,0.3-0.7,0.4-1,0.7c-0.3,0.2-0.6,0.4-1,0.7c-0.3,0.2-0.7,0.4-1,0.6s-0.5,0.7-0.8,0.9
						c-0.3,0.2-0.8,0.3-1.1,0.5s-0.6,0.4-1,0.6c-0.3,0.2-0.5,0.6-0.9,0.8c-0.3,0.2-0.8,0.2-1.1,0.4c-0.3,0.2-0.5,0.7-0.8,0.9
						c-0.3,0.2-0.8,0.2-1.1,0.4c-0.4,0.2-0.7,0.3-1.1,0.5c-0.4,0.2-0.7,0.4-1,0.5c-0.4,0.1-0.7,0.4-1.1,0.5c-0.4,0.1-0.8,0-1.2,0.1
						s-0.7,0.3-1.1,0.4c-0.4,0.1-0.8,0.1-1.2,0.1c-0.4,0.1-0.7,0.5-1.1,0.6c-0.4,0.1-0.8-0.1-1.2,0s-0.8,0.2-1.1,0.3
						c-0.4,0.1-0.7,0.3-1.1,0.4c-0.4,0.1-0.8,0.2-1.1,0.3c-0.4,0.1-0.8,0.1-1.1,0.2c-0.4,0.1-0.7,0.4-1.1,0.5
						c-0.4,0.1-0.8,0.1-1.2,0.2c-0.4,0-0.8,0.1-1.2,0.2c-0.4,0-0.8-0.1-1.2,0c-0.4,0-0.8,0-1.2,0s-0.8,0.3-1.1,0.4
						c-0.4,0-0.8-0.3-1.2-0.2c-0.4,0.1-0.7,0.5-1.1,0.5c-0.4,0-0.8,0.1-1.2,0.1s-0.8-0.3-1.2-0.3s-0.7,0.5-1.1,0.5
						c-0.4,0-0.8-0.3-1.2-0.3s-0.7,0.4-1.1,0.4c-0.4,0-0.8-0.2-1.2-0.2s-0.8,0-1.2,0.1c-0.4,0-0.8,0.3-1.1,0.3
						c-0.4,0-0.8,0.2-1.2,0.2s-0.8,0-1.2,0s-0.8,0-1.2,0s-0.8,0.1-1.2,0.2c-0.4,0-0.8,0-1.2,0.1c-0.4,0-0.8,0-1.2,0
						c-0.4,0.1-0.8,0.1-1.2,0.1s-0.8,0.1-1.2,0.2c-0.4,0-0.8,0.1-1.2,0.1s-0.8,0.1-1.2,0.1s-0.8,0-1.2-0.1c-0.4,0-0.8,0-1.2-0.1
						c-0.4,0-0.8-0.4-1.1-0.5c-0.4,0-0.8,0-1.2-0.1c-0.4,0-0.8,0-1.2,0s-0.8,0.1-1.2,0s-0.8-0.1-1.2-0.2s-0.7-0.6-1.1-0.6
						c-0.4-0.1-0.8-0.2-1.1-0.3c-0.4-0.1-0.8,0-1.2-0.1s-0.8-0.1-1.2-0.2s-0.7-0.4-1.1-0.5c-0.4-0.1-0.8-0.1-1.2-0.2
						s-0.7-0.4-1.1-0.5c-0.4-0.1-0.8,0-1.2-0.1s-0.8-0.2-1.1-0.3c-0.4-0.1-0.7-0.5-1-0.6c-0.4-0.1-0.7-0.4-1-0.5
						c-0.4-0.2-0.8-0.1-1.2-0.3c-0.3-0.2-0.5-0.7-0.8-0.9c-0.3-0.2-0.9-0.1-1.2-0.3c-0.3-0.2-0.5-0.7-0.8-0.9
						c-0.3-0.2-0.7-0.4-1-0.6s-0.8-0.3-1.1-0.4c-0.3-0.2-0.8-0.2-1.1-0.3c-0.3-0.2-0.6-0.5-1-0.6c-0.3-0.2-0.6-0.5-0.9-0.7
						c-0.3-0.2-0.8-0.2-1.1-0.5c-0.3-0.2-0.6-0.5-0.9-0.7c-0.3-0.2-0.6-0.5-0.9-0.7c-0.3-0.2-0.6-0.5-0.9-0.7
						c-0.3-0.2-0.7-0.4-1-0.7c-0.3-0.3-0.5-0.6-0.8-0.8c-0.3-0.3-0.3-0.8-0.6-1.1c-0.3-0.3-0.7-0.4-1-0.7c-0.3-0.3-0.4-0.7-0.6-1
						c-0.2-0.3-0.5-0.6-0.7-0.9s-0.6-0.6-0.8-0.9c-0.2-0.3-0.6-0.6-0.8-0.9c-0.2-0.3-0.1-0.8-0.3-1.2c-0.2-0.3-0.5-0.6-0.7-0.9
						s-0.5-0.6-0.7-0.9s-0.1-0.8-0.3-1.2c-0.2-0.3-0.7-0.5-0.8-0.9c-0.2-0.3-0.1-0.8-0.3-1.2c-0.2-0.4-0.3-0.7-0.5-1.1
						s-0.2-0.7-0.4-1.1c-0.2-0.4-0.4-0.7-0.6-1c-0.1-0.4-0.5-0.7-0.6-1c-0.1-0.4,0-0.8-0.1-1.2c-0.1-0.4-0.3-0.7-0.4-1.1
						s-0.2-0.7-0.3-1.1c-0.1-0.4-0.4-0.7-0.5-1.1s0-0.8-0.2-1.2c-0.1-0.4-0.3-0.7-0.4-1.1s0-0.8-0.1-1.2c-0.1-0.4-0.3-0.7-0.4-1.1
						s-0.1-0.8-0.1-1.2c-0.1-0.4-0.3-0.7-0.4-1.1s0.1-0.8,0-1.2c-0.1-0.4-0.3-0.7-0.4-1.1c-0.1-0.4,0.1-0.8,0-1.2s-0.2-0.7-0.3-1.1
						c-0.1-0.4-0.3-0.7-0.3-1.1c-0.1-0.4-0.2-0.8-0.2-1.1c-0.1-0.4-0.2-0.8-0.3-1.1c-0.1-0.4,0-0.8,0-1.2c-0.1-0.4-0.3-0.7-0.4-1.1
						c-0.1-0.4,0.1-0.8,0-1.2s-0.3-0.7-0.4-1.1c0-0.4,0.3-0.8,0.3-1.2s-0.4-0.8-0.4-1.1c0-0.4-0.2-0.8-0.2-1.2s0.1-0.8,0.1-1.2
						s0.1-0.8,0-1.2c0-0.4-0.3-0.8-0.3-1.1c0-0.4,0-0.8,0-1.2s-0.2-0.8-0.2-1.2s0.4-0.8,0.4-1.2s-0.3-0.8-0.2-1.2
						c0-0.4,0.1-0.8,0.1-1.2s0-0.8,0-1.2s0.3-0.8,0.3-1.2s0.1-0.8,0-1.2s-0.1-0.8-0.2-1.2s-0.5-0.7-0.5-1.1
						c-0.1-0.4,0.2-0.8,0.1-1.2s-0.5-0.7-0.6-1.1c-0.1-0.4-0.2-0.8-0.2-1.2c-0.1-0.4,0.2-0.8,0.2-1.2c-0.1-0.4-0.4-0.7-0.4-1.1
						c-0.1-0.4,0.2-0.8,0.2-1.2c-0.1-0.4-0.2-0.8-0.3-1.1c-0.1-0.4-0.5-0.7-0.6-1.1c-0.1-0.4,0-0.8-0.1-1.2s-0.2-0.8-0.3-1.1
						c-0.1-0.4-0.4-0.7-0.5-1.1c-0.2-0.4-0.5-0.6-0.6-1c-0.2-0.4-0.3-0.7-0.4-1.1c-0.2-0.3-0.1-0.8-0.3-1.2
						c-0.2-0.3-0.7-0.5-0.8-0.9c-0.2-0.3-0.4-0.7-0.6-1s-0.4-0.7-0.6-1s-0.1-0.8-0.4-1.2c-0.2-0.3-0.7-0.5-0.9-0.8
						c-0.2-0.3-0.3-0.7-0.6-1c-0.3-0.3-0.6-0.6-0.9-0.8c-0.3-0.3-0.7-0.3-1.1-0.5c-0.3-0.2-0.4-0.8-0.8-1c-0.3-0.2-0.8-0.2-1.2-0.3
						c-0.3-0.2-0.7-0.4-1-0.6c-0.4-0.2-0.7-0.3-1.1-0.4c-0.4-0.2-0.8-0.2-1.1-0.3c-0.4-0.2-0.6-0.6-0.9-0.7
						c-0.4-0.2-0.8-0.1-1.2-0.2c-0.4-0.2-0.5-0.7-0.9-0.9s-0.9,0.1-1.3-0.1c-0.3-0.2-0.6-0.6-0.9-0.8s-0.8-0.1-1.2-0.3
						c-0.3-0.2-0.5-0.7-0.8-1c-0.3-0.2-0.8-0.2-1.1-0.4c-0.3-0.2-0.5-0.7-0.8-0.9s-0.6-0.5-0.9-0.7s-0.8-0.2-1.2-0.4
						c-0.3-0.2-0.5-0.6-0.8-0.8s-0.8-0.3-1.1-0.4c-0.3-0.2-0.5-0.7-0.8-0.9s-0.8-0.2-1.1-0.4c-0.3-0.2-0.7-0.4-1-0.6
						c-0.3-0.2-0.7-0.3-1-0.5s-0.8-0.3-1.1-0.5c-0.3-0.2-0.4-0.7-0.7-1c-0.3-0.3-0.6-0.5-0.9-0.8s-0.5-0.6-0.8-0.8
						c-0.3-0.3-0.4-0.7-0.6-1c-0.3-0.3-0.7-0.4-1-0.7s-0.4-0.7-0.7-1c-0.3-0.3-0.6-0.5-0.9-0.7c-0.3-0.3-0.7-0.4-0.9-0.7
						c-0.3-0.3-0.4-0.8-0.6-1c-0.3-0.3-0.6-0.5-0.9-0.8s-0.7-0.4-0.9-0.7c-0.3-0.3-0.5-0.6-0.7-0.9c-0.2-0.3-0.5-0.6-0.7-0.9
						c-0.2-0.3-0.4-0.7-0.5-1.1c-0.2-0.3-0.2-0.8-0.3-1.1c-0.2-0.4-0.5-0.6-0.7-1s0.1-0.9-0.1-1.2c-0.2-0.4-0.7-0.5-0.9-0.9
						c-0.2-0.3-0.2-0.8-0.4-1.1c-0.2-0.3-0.5-0.6-0.6-1c-0.2-0.3-0.5-0.6-0.6-1c-0.2-0.3-0.1-0.8-0.3-1.2c-0.2-0.4-0.5-0.6-0.6-1
						s0-0.8-0.1-1.2s-0.2-0.8-0.3-1.1c-0.1-0.4-0.3-0.7-0.4-1.1c-0.1-0.4-0.4-0.7-0.5-1.1c-0.1-0.4,0-0.8-0.1-1.2s-0.5-0.7-0.6-1.1
						c-0.1-0.4,0.2-0.8,0.2-1.2s-0.3-0.8-0.3-1.2s0.2-0.8,0.2-1.2s-0.1-0.8-0.1-1.2s0.3-0.8,0.4-1.1c0-0.4,0-0.8,0-1.2
						s0.1-0.8,0.1-1.2s0.1-0.8,0.1-1.1c0-0.4-0.2-0.8-0.2-1.2s0.3-0.7,0.4-1.1c0.1-0.4,0-0.8,0-1.2c0.1-0.4,0.4-0.7,0.5-1.1
						c0.1-0.4,0.1-0.8,0.2-1.1c0.1-0.4,0.3-0.7,0.3-1.1c0.1-0.4,0.1-0.8,0.2-1.1c0.1-0.4-0.2-0.9-0.1-1.2c0.1-0.4,0.4-0.7,0.5-1.1
						c0.1-0.4,0.1-0.8,0.2-1.2s0.6-0.6,0.7-1s0.2-0.8,0.3-1.1c0.2-0.4,0.4-0.7,0.5-1c0.2-0.4,0.3-0.7,0.5-1.1
						c0.2-0.3,0.2-0.8,0.4-1.1c0.2-0.3,0.6-0.5,0.8-0.9c0.2-0.3,0-0.9,0.2-1.2s0.5-0.6,0.8-0.9c0.2-0.3,0.4-0.7,0.6-1
						s0.7-0.4,0.9-0.7c0.2-0.3,0.5-0.6,0.8-0.9c0.3-0.3,0.3-0.8,0.5-1.1c0.3-0.3,0.7-0.5,0.9-0.7c0.3-0.3,0.6-0.6,0.8-0.8
						c0.3-0.3,0.6-0.5,0.9-0.7s0.6-0.5,0.9-0.7s0.8-0.3,1.1-0.5c0.3-0.2,0.6-0.5,1-0.6c0.4-0.2,0.6-0.6,1-0.7s0.9,0.1,1.3,0
						s0.6-0.6,1-0.8c0.4-0.2,0.9,0,1.2-0.2c0.4-0.2,0.6-0.6,1-0.7s0.9,0.1,1.3,0s0.7-0.5,1.1-0.7c0.4-0.1,0.8-0.2,1.2-0.3
						c0.4-0.1,0.8,0,1.2-0.1c0.4-0.1,0.7-0.4,1.1-0.5s0.8,0,1.2-0.1c0.4-0.1,0.8-0.3,1.2-0.4c0.4-0.1,0.7-0.4,1.1-0.5s0.8,0,1.2-0.1
						c0.4-0.1,0.8-0.3,1.2-0.3c0.4,0,0.8,0,1.2,0c0.4,0,0.8,0.2,1.2,0.2c0.4,0,0.8-0.3,1.2-0.3c0.4,0,0.8,0.1,1.2,0.1
						c0.4-0.1,0.8,0,1.2-0.1c0.4-0.1,0.8-0.3,1.2-0.4c0.4-0.1,0.8-0.3,1.2-0.4c0.4-0.1,0.8,0,1.2-0.1c0.4-0.1,0.8-0.2,1.2-0.2
						c0.4,0,0.8-0.1,1.2-0.1c0.4,0,0.8,0.2,1.2,0.2c0.4,0,0.8-0.3,1.2-0.3c0.4,0,0.8,0.4,1.2,0.4c0.4,0,0.8,0.2,1.2,0.2
						c0.4,0,0.8-0.2,1.2-0.2c0.4,0,0.8,0,1.2,0.1c0.4,0,0.8,0.1,1.2,0.2c0.4,0,0.8,0.4,1.2,0.4c0.4,0.1,0.8-0.2,1.2-0.1
						c0.4,0.1,0.8,0.3,1.2,0.4c0.4,0.1,0.8-0.1,1.2,0c0.4,0.1,0.7,0.4,1.1,0.5s0.8,0.2,1.2,0.4c0.4,0.1,0.8,0.2,1.2,0.4
						c0.4,0.1,0.8,0.3,1.2,0.4c0.4,0.1,0.7,0.3,1.1,0.5c0.4,0.1,0.9-0.1,1.3,0c0.4,0.1,0.7,0.4,1.1,0.6c0.4,0.2,0.7,0.4,1.1,0.6
						c0.4,0.2,0.7,0.3,1.1,0.6c0.3,0.2,0.7,0.5,1,0.7s0.6,0.6,0.9,0.8c0.3,0.2,0.8,0.3,1.1,0.5s0.6,0.6,0.9,0.8
						c0.3,0.2,0.7,0.3,1.1,0.6c0.3,0.2,0.7,0.4,1.1,0.6c0.3,0.2,0.5,0.6,0.9,0.9c0.3,0.2,0.6,0.5,1,0.8c0.3,0.2,0.9,0.2,1.2,0.4
						s0.7,0.5,1,0.8s0.4,0.8,0.7,1.1s0.6,0.5,0.9,0.8c0.3,0.3,0.4,0.7,0.6,1.1c0.2,0.3,0.5,0.6,0.8,0.9c0.2,0.3,0.6,0.5,0.9,0.8
						c0.3,0.3,0.5,0.7,0.7,1c0.3,0.3,0.6,0.6,0.8,0.9c0.3,0.3,0.6,0.5,0.9,0.8c0.3,0.3,0.3,0.8,0.6,1.1s0.5,0.6,0.8,0.9
						c0.3,0.3,0.4,0.7,0.7,1s0.8,0.4,1.1,0.7c0.2,0.3,0.4,0.7,0.6,1.1c0.2,0.3,0.6,0.6,0.8,0.9c0.2,0.3,0.1,0.9,0.3,1.2
						s0.6,0.6,0.8,0.9c0.2,0.3,0.2,0.8,0.4,1.2c0.2,0.3,0.4,0.7,0.6,1c0.2,0.3,0.6,0.6,0.8,0.9c0.2,0.3,0.6,0.5,0.9,0.8
						c0.3,0.3,0.5,0.6,0.8,1c0.3,0.3,0.4,0.8,0.6,1.1c0.2,0.3,0.5,0.7,0.7,1s0.7,0.5,0.9,0.9s0.4,0.7,0.6,1.1
						c0.2,0.4,0.1,0.8,0.3,1.2s0.2,0.8,0.3,1.2s0.4,0.7,0.6,1.1c0.1,0.4,0.5,0.7,0.7,1c0.2,0.4,0.1,0.8,0.3,1.2s0.2,0.8,0.3,1.2
						c0.2,0.4,0.6,0.6,0.8,1s0.3,0.7,0.5,1.1c0.2,0.4,0.3,0.8,0.4,1.1c0.2,0.4,0.5,0.7,0.6,1c0.2,0.4,0.4,0.7,0.6,1.1
						c0.2,0.4,0.3,0.8,0.4,1.1c0.2,0.4,0.3,0.7,0.5,1.1c0.2,0.4,0.5,0.7,0.6,1c0.2,0.4,0,0.9,0.2,1.3c0.2,0.4,0.4,0.7,0.6,1.1
						c0.2,0.4,0.6,0.6,0.8,1s0.4,0.7,0.5,1.1c0.1,0.4-0.1,0.9,0,1.3c0.1,0.4,0.6,0.7,0.7,1.1c0.1,0.4,0.1,0.8,0.2,1.2
						c0.1,0.4,0.5,0.7,0.6,1.1c0.1,0.4,0.1,0.8,0.3,1.2s0.1,0.9,0.3,1.2c0.2,0.4,0.4,0.7,0.7,1c0.2,0.3,0.5,0.6,0.8,1
						c0.3,0.3,0.8,0.4,1,0.7c0.3,0.3,0.4,0.7,0.6,1.1c0.2,0.3,0.5,0.6,0.7,1c0.2,0.3,0.3,0.8,0.5,1.1s0.6,0.6,0.8,0.9
						c0.2,0.4,0.4,0.7,0.6,1c0.2,0.4,0.3,0.8,0.5,1.1s0.5,0.6,0.8,0.9c0.2,0.3,0.4,0.7,0.7,1s0.4,0.7,0.7,1s0.6,0.5,0.9,0.8
						c0.3,0.3,0.5,0.6,0.8,0.9c0.3,0.3,0.6,0.6,0.9,0.8c0.3,0.3,0.6,0.6,0.9,0.9c0.3,0.3,0.6,0.5,0.9,0.8c0.3,0.3,0.8,0.2,1.1,0.5
						c0.3,0.2,0.5,0.8,0.8,1s0.8,0.3,1.1,0.5c0.4,0.2,0.7,0.4,1.1,0.5c0.4,0.2,0.7,0.4,1,0.6c0.3,0.2,0.7,0.4,1,0.7
						c0.3,0.2,0.9,0.2,1.2,0.4s0.6,0.5,0.9,0.8c0.3,0.3,0.6,0.6,0.9,0.8c0.3,0.3,0.4,0.8,0.7,1s0.8,0.3,1.1,0.6
						c0.3,0.2,0.7,0.4,1,0.6c0.3,0.2,0.7,0.3,1.1,0.5c0.4,0.2,0.6,0.6,1,0.7c0.4,0.2,0.9,0,1.2,0.2c0.4,0.2,0.7,0.4,1.1,0.5
						c0.4,0.2,0.6,0.6,0.9,0.8c0.4,0.2,0.8,0.2,1.1,0.4s0.7,0.5,1,0.6c0.3,0.2,0.8,0.2,1.1,0.4s0.7,0.4,1,0.6
						c0.3,0.2,0.8,0.2,1.1,0.4s0.5,0.8,0.8,1s0.7,0.3,1.1,0.5c0.3,0.2,0.6,0.5,0.9,0.7c0.3,0.2,0.7,0.4,1,0.6
						c0.3,0.2,0.8,0.3,1.1,0.5s0.5,0.6,0.9,0.8c0.3,0.2,0.7,0.4,1,0.6c0.3,0.2,0.4,0.7,0.8,1c0.3,0.2,0.8,0.3,1.1,0.5s0.6,0.5,1,0.7
						c0.3,0.2,0.6,0.5,1,0.7c0.3,0.2,0.7,0.4,1,0.6c0.3,0.2,1,0,1.3,0.3c0.3,0.2,0.5,0.7,0.8,1s0.6,0.6,0.8,0.9
						c0.3,0.3,0.4,0.7,0.7,1s0.7,0.5,0.9,0.8s0.3,0.8,0.6,1.1c0.2,0.3,0.4,0.7,0.6,1s0.4,0.7,0.7,1c0.2,0.3,0.5,0.6,0.7,1
						c0.2,0.3,0.5,0.6,0.6,1c0.2,0.4,0.4,0.7,0.6,1.1c0.2,0.4,0.4,0.7,0.6,1.1c0.2,0.4,0.1,0.8,0.3,1.2
						C229.7,231.4,229.7,231.8,229.9,232.2z"/>
				</g>
			</g>
		</g>
		<g>
			<path d="M0.2,212.9c0-0.4-0.2-0.8-0.2-1.1c0-0.4,0.4-0.8,0.4-1.2s-0.5-0.7-0.5-1.1c0-0.4,0.2-0.8,0.2-1.2s-0.3-0.8-0.3-1.1
				c0-0.4,0.4-0.7,0.5-1.1c0-0.4-0.1-0.8,0-1.2s0.4-0.7,0.5-1c0.1-0.4-0.2-0.8,0-1.2c0.1-0.4,0.6-0.6,0.7-1c0.1-0.4,0.1-0.8,0.2-1.1
				c0.1-0.4,0.3-0.7,0.4-1.1c0.1-0.4-0.2-0.8-0.1-1.2c0.1-0.4,0.5-0.7,0.6-1c0.1-0.4,0-0.8,0.1-1.2s0.2-0.7,0.4-1.1
				c0.1-0.4,0.6-0.6,0.7-0.9c0.1-0.3,0.2-0.7,0.3-1.1c0.1-0.3,0.4-0.6,0.6-1c0.2-0.3,0.2-0.7,0.4-1.1c0.2-0.3,0.4-0.6,0.6-1
				c0.2-0.3,0.3-0.7,0.5-1s0.5-0.6,0.7-0.9c0.2-0.3,0.4-0.6,0.6-1s0.4-0.7,0.6-1.1c0.2-0.3,0.1-0.9,0.3-1.2s0.6-0.6,0.9-0.9
				c0.2-0.3,0.3-0.8,0.6-1.1c0.2-0.3,0.6-0.6,0.8-0.9c0.3-0.3,0.7-0.5,1-0.8s0.4-0.7,0.7-1.1c0.3-0.3,0.7-0.5,0.9-0.8
				c0.3-0.3,0.4-0.8,0.7-1.1s0.6-0.6,0.9-0.9c0.3-0.3,0.6-0.6,0.9-0.9c0.3-0.3,0.5-0.7,0.7-1c0.3-0.3,0.8-0.4,1-0.7
				c0.3-0.3,0.4-0.7,0.7-1c0.3-0.3,0.6-0.5,1-0.8c0.3-0.3,0.6-0.6,0.9-0.9s0.6-0.6,0.9-0.9s0.5-0.6,0.8-0.9s0.7-0.5,1-0.7
				s0.7-0.5,1-0.7c0.3-0.3,0.8-0.3,1.1-0.6c0.3-0.3,0.5-0.7,0.8-0.9s0.6-0.6,0.9-0.8s0.6-0.5,0.9-0.8s0.7-0.4,1-0.7s0.6-0.5,1-0.7
				c0.3-0.3,0.5-0.6,0.8-0.9c0.3-0.2,0.9-0.2,1.2-0.4c0.3-0.2,0.6-0.5,0.9-0.8s0.5-0.6,0.8-0.9c0.3-0.3,0.8-0.4,1.1-0.7
				s0.6-0.6,0.9-0.9c0.3-0.3,0.5-0.7,0.8-1s0.6-0.6,0.9-0.9c0.3-0.3,0.5-0.7,0.8-1s0.9-0.3,1.2-0.6s0.5-0.7,0.8-1s0.6-0.6,0.9-0.9
				c0.3-0.3,0.7-0.5,1.1-0.7c0.3-0.3,0.6-0.6,0.9-0.9c0.3-0.3,0.5-0.7,0.8-1s0.8-0.4,1.1-0.7s0.5-0.8,0.8-1c0.3-0.3,0.9-0.3,1.2-0.5
				c0.3-0.3,0.4-0.8,0.8-1.1c0.3-0.3,0.9-0.3,1.2-0.5c0.3-0.3,0.6-0.7,0.9-0.9c0.3-0.3,0.6-0.6,0.9-0.9c0.3-0.3,0.7-0.3,1-0.6
				s0.6-0.5,0.9-0.7c0.3-0.3,0.4-0.7,0.7-1s0.6-0.5,0.9-0.7c0.3-0.3,0.6-0.4,0.9-0.7c0.3-0.3,0.5-0.6,0.8-0.8
				c0.3-0.3,0.5-0.6,0.7-0.9c0.3-0.3,0.5-0.6,0.7-0.9c0.3-0.3,0.5-0.5,0.8-0.8s0.7-0.4,0.9-0.7c0.3-0.3,0.7-0.4,1-0.6
				c0.3-0.3,0.3-0.8,0.6-1.1s0.9-0.3,1.2-0.6s0.2-0.9,0.3-1.2c0.2-0.4,0.4-0.7,0.4-1.1c0-0.4,0.1-0.8,0-1.2s-0.3-0.7-0.3-1.1
				c-0.1-0.4,0-0.8-0.1-1.2s-0.2-0.8-0.2-1.2c-0.1-0.4-0.1-0.8-0.2-1.2c-0.1-0.4-0.2-0.8-0.2-1.2c-0.1-0.6-0.3-1.2-0.8-1.6
				c-0.3-0.3-0.7-0.5-1-0.8s-0.4-0.8-0.6-1.1c-0.2-0.4-0.3-0.8-0.5-1.2c-0.2-0.4-0.6-0.7-0.7-1.1c-0.1-0.4-0.2-0.8-0.3-1.3
				c-0.1-0.4-0.1-0.9-0.1-1.3s0.2-0.9,0.1-1.3c0-0.4-0.2-0.9-0.2-1.3s0.2-0.8,0.3-1.3c0.1-0.4,0-0.9,0.1-1.3s0.5-0.6,0.7-1
				c0.1-0.4,0.3-0.7,0.4-1.1c0.2-0.5,0.2-1,0.2-1.4c0-0.5-0.3-0.9-0.7-1.2c-0.3-0.2-0.6-0.6-1.2-0.7c-0.4-0.1-0.9,0-1.3-0.1
				c-0.4-0.2-0.8-0.2-1.2-0.4c-0.4-0.2-0.6-0.6-0.9-0.9c-0.3-0.3-0.6-0.6-0.8-0.9c-0.3-0.3-0.4-0.7-0.6-1c-0.2-0.4-0.3-0.7-0.4-1.2
				c-0.1-0.4,0-0.8,0.1-1.2c0-0.4,0.1-0.9,0.1-1.4s-0.2-0.9-0.2-1.4c0.1-0.5,0.2-0.9,0.3-1.4c0.2-0.4,0.4-0.8,0.6-1.2
				c0.2-0.4,0.4-0.8,0.6-1.2c0.2-0.4,0.8-0.5,1.1-0.9c0.2-0.4,0.4-0.8,0.7-1.1c0.2-0.3,0.5-0.6,0.7-0.9c0.1-0.3,0.3-0.8,0.3-1.1
				c0-0.4-0.1-0.8-0.1-1.2c-0.1-0.5-0.6-0.9-0.6-1.5c0-0.4,0.1-0.7,0-1.1c-0.1-0.3-0.3-0.7-0.4-1c-0.1-0.3-0.5-0.5-0.7-0.8
				s-0.2-0.7-0.5-1s-0.8-0.5-1.1-0.8C52,84,52,83.4,51.7,83.1c-0.3-0.4-0.6-0.7-0.8-1.1s-0.2-0.9-0.4-1.3s-0.4-0.8-0.5-1.2
				c-0.1-0.4-0.4-0.8-0.5-1.3c-0.1-0.4-0.2-0.9-0.2-1.3s0-0.9,0-1.4c0-0.4-0.2-0.8-0.2-1.2c-0.1-0.4,0.2-0.8,0.1-1.2
				c-0.1-0.4-0.4-0.7-0.5-1.1s0.1-0.8,0-1.2c-0.1-0.4-0.2-0.8-0.2-1.2c0-0.4,0-0.8,0-1.2c0-0.4-0.3-0.8-0.2-1.2
				c0-0.4,0.3-0.8,0.4-1.1c0-0.2,0-0.7,0.2-1s0.6-0.2,0.9-0.2c0.6,0.1,0.2,0.8,0.2,1.3c0,0.4,0.5,0.8,0.4,1.2c0,0.4-0.4,0.8-0.4,1.2
				c0,0.4,0.4,0.8,0.4,1.2c0,0.4-0.1,0.8-0.1,1.2c0,0.4,0,0.8,0,1.2c0,0.4,0,0.8,0.1,1.2c0,0.4-0.3,0.8-0.2,1.3
				c0.1,0.4,0.1,0.8,0.2,1.2c0.1,0.4,0.7,0.6,0.8,1c0.2,0.4,0.3,0.7,0.5,1s0.1,0.9,0.3,1.2c0.2,0.3,0.5,0.6,0.7,1
				c0.2,0.3,0.4,1.4,0.9,1.2c0.4-0.2-0.1-1.1-0.1-1.5c-0.1-0.4,0.1-0.9-0.1-1.3c-0.2-0.6-0.5-1.4,0.1-1.7c0.5-0.3,1,0.4,1.4,0.8
				c0.3,0.3,0.9,0.4,1.3,0.6c0.4,0.2,0.7,0.8,1,1.2c0.3,0.3,0.8,0.4,1.1,0.8c0.3,0.3,0.2,0.9,0.5,1.3c0.3,0.3,0.8,0.4,1.1,0.8
				c0.3,0.3,0.6,0.6,0.9,0.9c0.3,0.3,0.7,0.5,1,0.8s0.4,0.8,0.8,0.9c0.4,0.1,0.8-0.1,1.1-0.2c0.4-0.1,0.9,0,1.2-0.1
				c0.4-0.1,0.7-0.6,1.1-0.6s0.7,0.3,1,0.4c0.4,0.1,0.7,0.3,0.8,0.6c0.1,0.3-0.3,0.5-0.4,0.9c-0.2,0.5-0.4,0.9-0.7,1.3
				c-0.4,0.4-0.4,0.6-0.3,1.1c0.1,0.4,0,0.9,0.3,1.3c0.3,0.3,0.8,0.4,1.1,0.7c0.3,0.3,0.4,0.8,0.7,1.1c0.3,0.3,0.9,0.3,1.2,0.6
				c0.3,0.3,0.5,0.7,0.8,1s0.6,0.6,0.9,0.9s0.5,0.7,0.9,0.9c0.3,0.2,0.8,0.4,1.2,0.2c0.4-0.1,0.8-0.3,1.2-0.4
				c0.4-0.2,0.7-0.4,1.2-0.4c0.4,0,0.8,0,1.1,0.2c0.3,0.2,0.5,0.5,0.7,0.8s0.3,0.6,0.4,1c0,0.3,0.3,0.7,0.2,1.1
				c-0.1,0.3-0.2,0.7-0.4,1.1c-0.2,0.4-0.7,0.5-0.8,0.8c-0.2,0.4,0.2,0.8,0.2,1.1c0.1,0.3,0.2,0.5,0.5,0.8c0.2,0.2,0.3,0.6,0.6,0.9
				c0.3,0.3,0.6,0.5,0.8,0.8c0.3,0.3,0.7,0.4,1,0.7c0.3,0.3,0.5,0.6,0.8,0.9s0.6,0.5,0.9,0.8s0.6,0.5,0.9,0.8s0.5,0.6,0.8,0.9
				s0.8,0.3,1.1,0.5c0.3,0.3,0.3,0.8,0.6,1.1c0.3,0.3,0.7,0.4,1,0.6s0.6,0.4,0.9,0.7s0.6,0.5,0.9,0.8s0.5,0.7,0.7,0.9
				c0.3,0.3,0.9,0.2,1.2,0.5c0.3,0.3,0.4,0.7,0.7,1c0.3,0.3,0.4,0.7,0.7,1c0.3,0.3,0.6,0.5,0.8,0.8c0.3,0.3,0.9,0.2,1.1,0.5
				c0.3,0.3,0.4,0.7,0.7,1c0.3,0.3,0.6,0.4,0.9,0.7c0.3,0.3,0.7,0.4,1,0.7c0.3,0.3,0.5,0.6,0.7,0.9c0.4,0.3,0.7,0.5,1,0.5
				s0.5-0.4,0.9-0.7c0.3-0.2,0.8-0.2,1.1-0.5c0.3-0.2,0.6-0.6,0.9-0.8c0.3-0.2,0.7-0.4,1-0.6s0.7-0.4,1.1-0.6c0.3-0.2,0.7-0.5,1-0.7
				s0.8-0.3,1.1-0.5c0.3-0.2,0.6-0.5,0.9-0.8c0.3-0.2,0.7-0.4,1-0.7c0.3-0.2,0.4-0.7,0.8-1c0.3-0.2,0.7-0.4,1.1-0.7
				c0.4-0.2,0.6-0.6,1-0.8c0.4-0.2,0.8-0.4,1.1-0.6c0.4-0.2,0.9-0.2,1.2-0.4c0.4-0.2,0.7-0.5,1.1-0.7s0.8-0.3,1.1-0.5
				c0.4-0.2,0.7-0.5,1.1-0.7s0.8-0.3,1.2-0.5c0.4-0.2,0.7-0.5,1-0.7c0.4-0.2,0.8-0.2,1.2-0.3c0.4-0.2,0.8-0.4,1.2-0.5
				c0.5-0.2,0.8-0.4,1.2-0.4c0.5,0,0.8,0.2,1.2,0.4c0.3,0.2,0.8,0.2,1.1,0.6c0.2,0.3,0.5,0.7,0.8,1.1c0.2,0.4,0.1,0.8,0.2,1.2
				c0.1,0.4,0.2,0.8,0.2,1.2c0.1,0.4,0.4,0.8,0.4,1.2c0,0.4-0.3,0.8-0.3,1.2c0,0.4,0.2,0.8,0.2,1.2c0,0.4,0.1,0.8,0.1,1.2
				c0,0.4,0.2,0.8,0.3,1.2c0.1,0.4,0.2,0.8,0.3,1.2c0.1,0.4,0.1,0.8,0.1,1.2c0,0.4-0.2,0.8-0.3,1.2c0,0.4-0.2,0.8-0.2,1.2
				c0,0.4,0.3,0.9,0.2,1.3c-0.1,0.4-0.2,0.8-0.3,1.2c-0.1,0.4-0.1,0.8-0.1,1.2c-0.1,0.4,0,0.8-0.1,1.2c-0.1,0.4-0.6,0.7-0.7,1.1
				s-0.1,0.8-0.2,1.2c-0.1,0.4-0.3,0.8-0.4,1.2c-0.2,0.4-0.4,0.7-0.6,1c-0.2,0.4-0.2,0.9-0.4,1.2c-0.2,0.3-0.5,0.7-0.7,1
				c-0.3,0.3-0.8,0.4-1.1,0.6c-0.3,0.3-0.4,0.8-0.7,1.1c-0.3,0.3-0.8,0.3-1.1,0.6c-0.3,0.2-0.7,0.4-1.1,0.5c-0.4,0.2-0.6,0.6-1,0.8
				c-0.4,0.1-0.9,0-1.3,0.1s-0.8,0.3-1.2,0.4c-0.4,0.1-0.8,0.4-1.2,0.5c-0.4,0.1-0.8,0.2-1.2,0.3c-0.4,0.1-0.8,0-1.3,0.1
				c-0.4,0.1-0.8,0.2-1.2,0.3c-0.4,0.1-0.8,0.3-1.2,0.4c-0.4,0-0.8,0-1.3,0c-0.3,0-0.6-0.5-0.9-0.7s-0.6-0.3-0.9-0.5s-0.7-0.1-1-0.2
				c-0.3-0.1-1.3-0.1-1.3-0.6c0-0.4,1-0.5,1.3-0.5c0.3-0.1,0.7-0.4,1.1-0.3c0.4,0,0.8,0.4,1.1,0.4c0.4,0,0.7-0.4,1.1-0.5
				c0.4,0,0.7,0,1.1-0.1s0.8,0.1,1.1,0.1c0.4-0.1,0.8-0.1,1.1-0.2c0.4-0.1,0.6-0.6,0.9-0.7c0.3-0.1,0.7-0.3,1-0.5s0.8-0.2,1.1-0.4
				c0.3-0.2,0.7-0.3,1-0.6c0.3-0.2,0.5-0.5,0.8-0.8s0.2-0.8,0.5-1.1c0.2-0.3,0.8-0.3,1-0.6c0.3-0.3,0.5-0.7,0.8-1.1
				c0.3-0.3,0.3-0.9,0.5-1.2c0.2-0.4,0.8-0.5,1-0.9s0.4-0.8,0.6-1.2c0.2-0.4,0.3-0.8,0.5-1.2c0.2-0.4,0.3-0.7,0.4-1.1
				c0.2-0.4,0.6-0.6,0.7-1s-0.1-0.9,0-1.2c0.1-0.4,0.7-0.6,0.8-1c0.1-0.4-0.1-0.8,0-1.2c0.1-0.4,0.4-0.7,0.5-1.1s0.3-0.7,0.4-1.1
				s-0.2-0.8-0.2-1.2c0-0.4,0.2-0.8,0.2-1.2c0-0.4-0.1-0.8-0.2-1.2c-0.1-0.4-0.3-0.7-0.5-1s-0.1-0.8-0.4-1.1
				c-0.2-0.3-0.5-0.6-0.8-0.9c-0.3-0.4-0.7-0.7-1.1-1s-0.7-0.3-1.3-0.1c-0.4,0.1-0.8,0-1.2,0.2c-0.4,0.2-0.6,0.7-0.9,0.8
				c-0.4,0.2-0.9,0-1.2,0.2c-0.3,0.2-0.7,0.4-1,0.6s-0.7,0.4-1,0.5s-0.6,0.5-1,0.7c-0.3,0.2-0.6,0.5-1,0.7c-0.3,0.2-0.7,0.4-1,0.6
				s-0.8,0.1-1.2,0.3c-0.3,0.2-0.7,0.3-1,0.6c-0.3,0.2-0.6,0.5-0.9,0.7s-0.6,0.6-0.9,0.8c-0.3,0.2-0.6,0.5-0.9,0.7
				c-0.3,0.3-0.5,0.6-0.7,0.9c-0.3,0.3-0.5,0.6-0.7,0.9s-0.7,0.4-0.9,0.7c-0.2,0.3-0.5,0.6-0.8,0.9c-0.2,0.3-0.6,0.5-0.8,0.8
				c-0.3,0.3-0.4,0.7-0.6,1s-0.3,0.8-0.5,1.1c-0.2,0.3-0.5,0.6-0.7,0.9s-0.5,0.7-0.7,1c-0.3,0.4-0.7,0.6-1,0.7
				c-0.4,0.1-0.9,0-1.2-0.4c-0.2-0.3-0.1-0.8-0.3-1.2c-0.1-0.4-0.9-0.5-1.2-0.8c-0.3-0.3-0.4-0.7-0.7-1c-0.3-0.3-0.5-0.6-0.8-0.9
				s-0.7-0.4-1-0.7c-0.3-0.3-0.7-0.4-1-0.7c-0.3-0.3-0.6-0.6-0.9-0.8c-0.3-0.3-0.6-0.5-0.9-0.8s-0.4-0.7-0.7-1
				c-0.3-0.3-0.6-0.8-0.9-0.9c-0.4-0.2-0.9-0.2-1.3,0.2c-0.3,0.3-0.5,0.8-0.8,1.1c-0.3,0.3-0.4,0.8-0.7,1.1c-0.3,0.3-0.7,0.6-1,0.9
				s-0.6,0.6-0.9,0.9s-0.6,0.7-0.9,0.9c-0.4,0.3-0.9,0.2-1.3,0.4c-0.4,0.2-0.6,0.7-1,0.9c-0.4,0.2-0.8,0.3-1.2,0.5
				c-0.4,0.2-0.8,0.4-1.2,0.6c-0.4,0.2-0.9,0.1-1.3,0.3c-0.4,0.2-0.7,0.5-1.1,0.6c-0.4,0.2-0.8,0.2-1.2,0.4
				c-0.4,0.1-0.8,0.4-1.2,0.6c-0.4,0.1-0.8,0.5-1.2,0.6c-0.4,0.1-0.9,0-1.3,0.1s-0.8,0.2-1.1,0.4c-0.3,0.2-0.4,0.7-0.6,1
				s-0.4,0.6-0.5,1c-0.1,0.3-0.2,0.7-0.3,1.1c-0.1,0.4-0.2,0.7-0.3,1.1c-0.1,0.4-0.3,0.7-0.5,1c-0.2,0.4-0.5,0.4-1,0.3
				c-0.6-0.2-0.6-0.3-0.5-0.8s0.6-0.8,0.7-1.3c0.1-0.4,0.1-0.9,0.2-1.3c0.2-0.5,0.2-1.1-0.5-1.4c-0.3-0.2-0.6-0.6-0.9-0.7
				c-0.4,0-0.7,0.2-1.1,0.4c-0.6,0.3-0.8,0.9-0.7,1.4c0.1,0.4,0.4,0.8,0.5,1.2c0.1,0.4,0,0.9,0.1,1.3c0.1,0.4,0.3,0.8,0.4,1.2
				s0.2,0.8,0.3,1.2c0.1,0.4,0.1,0.9,0.3,1.2c0.2,0.4,0.1,0.7,0,1s-0.1,0.7-0.4,1s-0.6,0.6-0.8,0.9c-0.3,0.3-0.7,0.5-1,0.8
				s-0.5,0.7-0.7,1c-0.3,0.3-0.5,0.6-0.8,1c-0.3,0.3-0.6,0.5-0.9,0.8c-0.3,0.3-0.4,0.8-0.7,1.1s-0.7,0.4-1,0.7s-0.7,0.5-1,0.8
				s-0.5,0.7-0.8,1s-0.6,0.6-0.9,0.9c-0.3,0.3-0.2,0.9-0.5,1.2s-0.8,0.4-1,0.7c-0.3,0.3-0.2,0.9-0.5,1.2s-0.6,0.6-0.9,0.9
				c-0.3,0.3-0.9,0.3-1.2,0.5c-0.3,0.3-0.6,0.6-0.9,0.8c-0.3,0.2-0.4,0.8-0.8,1c-0.3,0.2-0.8,0.4-1.1,0.6c-0.3,0.2-0.6,0.6-0.9,0.9
				c-0.3,0.3-0.9,0.3-1.2,0.5c-0.3,0.3-0.3,0.9-0.6,1.1c-0.3,0.3-0.6,0.6-0.9,0.8c-0.3,0.3-0.7,0.4-1,0.7s-0.7,0.4-1,0.7
				s-0.5,0.6-0.8,0.9c-0.3,0.3-0.6,0.6-0.9,0.9c-0.3,0.3-0.6,0.6-0.9,0.8c-0.3,0.3-0.8,0.4-1.1,0.6c-0.3,0.3-0.5,0.7-0.8,1
				s-0.7,0.4-1,0.7s-0.7,0.5-1,0.7c-0.3,0.3-0.6,0.6-0.9,0.9c-0.3,0.3-0.8,0.3-1.1,0.5c-0.3,0.3-0.6,0.5-0.9,0.8
				c-0.3,0.3-0.5,0.7-0.8,1s-0.8,0.4-1.1,0.6c-0.3,0.3-0.5,0.7-0.8,1s-0.6,0.6-0.9,0.8c-0.3,0.3-0.7,0.5-1,0.7
				c-0.3,0.3-0.8,0.3-1.2,0.5c-0.3,0.3-0.4,0.8-0.7,1c-0.3,0.3-0.7,0.5-1,0.8s-0.6,0.6-0.9,0.8c-0.3,0.3-0.6,0.6-0.9,0.8
				s-0.6,0.5-0.9,0.7s-0.6,0.5-0.9,0.8c-0.3,0.2-0.9,0.1-1.2,0.3c-0.3,0.2-0.5,0.7-0.8,0.9s-0.8,0.1-1.2,0.3
				c-0.3,0.2-0.5,0.6-0.9,0.8c-0.3,0.2-0.8,0.2-1.1,0.4c-0.3,0.2-0.7,0.4-1,0.5c-0.4,0.2-0.7,0.5-1,0.7c-0.4,0.2-0.7,0.4-1.1,0.7
				c-0.3,0.3-0.5,0.7-0.8,1s-0.7,0.5-1,0.8s-0.5,0.7-0.8,1s-0.6,0.6-0.8,0.9c-0.3,0.3-0.7,0.5-0.9,0.8s-0.5,0.7-0.7,1
				c-0.2,0.4-0.1,0.9-0.3,1.3c-0.2,0.4-0.8,0.5-0.9,0.9c-0.2,0.4-0.1,0.9-0.3,1.2c-0.2,0.4-0.5,0.7-0.7,1s-0.3,0.7-0.5,1
				s-0.1,0.8-0.2,1.1c-0.2,0.3-0.3,0.7-0.4,1c-0.1,0.4-0.4,0.7-0.5,1c-0.1,0.4-0.2,0.7-0.3,1.1c-0.1,0.4-0.3,0.7-0.4,1.1
				c-0.1,0.4-0.2,0.7-0.3,1.1c-0.1,0.4-0.4,0.7-0.5,1.1c-0.1,0.4,0.2,0.8,0.1,1.2s-0.3,0.7-0.4,1.1c-0.1,0.4-0.1,0.7-0.2,1.1
				c-0.1,0.4,0.2,0.8,0.1,1.2c0,0.4-0.5,0.7-0.5,1.1c0,0.4,0,0.8,0,1.2s0,0.9-0.1,1.3c0,0.4,0,0.9,0,1.3c0,0.4,0,0.9,0,1.3
				c0,0.4,0.3,0.9,0.3,1.3c0,0.4-0.4,0.9-0.3,1.3c0,0.4,0.3,0.9,0.3,1.3c0,0.4-0.1,0.9-0.1,1.3c0,0.4,0.1,0.9,0.1,1.3
				c0,0.4,0.1,0.9,0.1,1.3c0.1,0.4,0.5,0.8,0.6,1.2s0.1,0.8,0.2,1.2s0.1,0.8,0.2,1.2s0.3,0.8,0.4,1.2s0.2,0.8,0.4,1.2
				c0.1,0.4,0.1,0.8,0.2,1.2s0.4,0.7,0.5,1.1c0.1,0.4,0.3,0.8,0.4,1.2s0.2,0.8,0.4,1.2c0.1,0.4,0.3,0.8,0.4,1.1
				c0.2,0.4,0.6,0.6,0.8,1s0.2,0.8,0.4,1.2c0.2,0.3,0.4,0.7,0.7,1s0.8,0.4,1,0.7c0.3,0.3,0.7,0.5,1,0.8s0.4,0.8,0.6,1.1
				c0.2,0.2,0.4,0.6,0.6,0.9c0.2,0.3,0.7,0.3,1,0.6c0.2,0.3,0.3,0.6,0.6,0.8c0.3,0.3,0.5,0.7,0.8,1c0.4,0.2,0.9,0.1,1.3,0.2
				c0.4,0.1,0.8,0.3,1.2,0.3c0.4,0,0.8,0.1,1.2,0c0.4-0.1,0.9,0.1,1.3-0.1c0.4-0.2,0.6-0.7,0.9-0.9s0.7-0.4,1-0.7s0.5-0.7,0.7-0.9
				c0.3-0.3,0.8-0.3,1.1-0.6c0.3-0.3,0.7-0.4,1-0.7s0.4-0.7,0.6-1c0.3-0.3,0.5-0.6,0.7-0.9c0.3-0.3,0.5-0.6,0.7-0.9
				c0.2-0.3,0.4-0.7,0.6-1s0.8-0.4,1-0.8c0.2-0.3,0.1-0.9,0.3-1.2c0.2-0.3,0.7-0.5,0.9-0.8c0.2-0.3,0.1-0.8,0.3-1.2
				c0.2-0.4,0.5-0.6,0.7-1c0.2-0.6,0.3-1.1,0.6-1.3c0.4-0.3,0.8-0.1,1.3,0.1c0.3,0.2,0.7,0.4,1.1,0.9c0.3,0.3,0.7,0.4,1,0.7
				s0.5,0.7,0.8,0.9c0.3,0.3,0.7,0.5,1,0.7c0.3,0.3,0.6,0.5,1,0.7c0.3,0.3,0.5,0.7,0.8,1s0.9,0.2,1.2,0.5s0.4,0.8,0.7,1.1
				s0.8,0.4,1.1,0.7s0.6,0.6,0.8,0.9c0.3,0.3,0.5,0.6,0.8,0.9c0.3,0.3,0.6,0.5,0.9,0.8c0.3,0.3,0.5,0.8,0.8,1s0.8,0.4,1.1,0.5
				c0.4,0.2,0.8,0.2,1.2,0.3s0.8,0.2,1.2,0.3s0.8,0.2,1.2,0.3s0.8,0.3,1.2,0.4c0.4,0.1,0.8,0.3,1.2,0.4c0.4,0.1,0.7,0.3,1.1,0.5
				c0.4,0.1,0.8,0.1,1.2,0.3c0.4,0.1,0.7,0.4,1.1,0.5c0.4,0.1,0.7,0.4,1.1,0.5c0.4,0.1,0.8,0,1.2,0.1s0.7,0.4,1.2,0.4
				c0.4,0.1,0.9-0.1,1.3-0.1c0.4,0,0.9,0.3,1.3,0.3c0.4,0,0.8-0.5,1.3-0.5c0.4,0,0.9,0.1,1.3,0.1c0.4-0.1,0.9,0.1,1.3,0
				c0.4,0,0.9-0.1,1.3-0.1s0.9-0.2,1.3-0.2s0.8-0.2,1.3-0.3c0.4-0.1,0.8-0.2,1.2-0.3c0.4-0.1,0.9,0.2,1.3,0.1
				c0.4-0.1,0.8-0.4,1.2-0.6c0.4-0.1,0.8-0.3,1.2-0.5c0.4-0.1,0.7-0.5,1.1-0.6c0.4-0.2,0.8-0.2,1.2-0.4c0.4-0.2,0.9-0.1,1.3-0.3
				s0.9-0.4,1.3-0.6c0.4-0.2,0.9-0.4,1.3-0.7c0.6-0.3,0.8-0.8,1.1-0.8c0.3,0,0.4,0.4,0.9,1c0.3,0.3,0.8,0.4,1.1,0.7
				c0.3,0.3,0.6,0.6,0.8,0.9c0.3,0.3,0.4,0.8,0.6,1.1c0.3,0.3,0.7,0.5,1,0.8s0.6,0.6,0.9,0.9s0.5,0.6,0.8,1c0.3,0.3,0.4,0.8,0.6,1.1
				c0.3,0.3,0.7,0.5,1,0.8s0.2,0.9,0.4,1.2c0.3,0.3,0.8,0.4,1,0.7c0.3,0.3,0.4,0.8,0.6,1.1c0.3,0.3,0.6,0.6,0.8,0.9
				c0.2,0.3,0.3,0.8,0.6,1.1c0.3,0.3,0.5,0.6,0.8,1c0.3,0.3,0.7,0.5,1,0.8s0.5,0.6,0.8,1c0.3,0.3,0.2,0.9,0.5,1.2
				c0.2,0.3,0.5,0.7,0.7,1s0.5,0.7,0.7,1s0.8,0.4,1.1,0.8s0.5,0.7,0.7,1s0.2,0.9,0.4,1.2c0.2,0.3,0.4,0.8,0.6,1.1s0.6,0.6,0.9,0.9
				c0.3,0.4,0.6,0.7,0.8,1s0.4,0.8,0.6,1.2c0.2,0.4,0.6,0.6,0.8,1c0.2,0.4,0.2,0.9,0.5,1.2c0.3,0.4,0.7,0.6,1,0.9s0.5,0.7,0.8,1
				s0.5,0.7,0.8,1s0.8,0.4,1.1,0.8c0.3,0.3,0.6,0.6,0.9,1c0.3,0.3,0.4,0.8,0.7,1.1c0.3,0.3,0.7,0.6,1,0.9s0.6,0.6,0.9,0.9
				s0.7,0.5,1,0.8s0.6,0.6,1,0.9c0.3,0.3,0.7,0.6,1,0.9s0.5,0.7,0.7,1c0.3,0.3,0.4,0.7,0.6,1.1c0.2,0.3,0.8,0.4,1.1,0.8
				c0.2,0.3,0.2,0.8-0.2,1.2c-0.3,0.4-0.5,0.1-0.9-0.1c-0.3-0.2-0.8-0.1-1.1-0.3c-0.3-0.2-0.4-0.7-0.8-0.9c-0.3-0.2-0.8-0.1-1.1-0.4
				c-0.3-0.2-0.4-0.7-0.6-1c-0.3-0.3-0.7-0.5-1-0.8s-0.6-0.5-0.9-0.8s-0.7-0.4-1-0.7c-0.3-0.3-0.4-0.8-0.7-1.1
				c-0.3-0.3-0.7-0.4-1-0.7c-0.3-0.3-0.7-0.4-1.1-0.6c-0.3-0.3-0.6-0.5-1-0.8c-0.3-0.2-0.4-0.8-0.7-1.1c-0.3-0.2-0.9-0.2-1.2-0.4
				c-0.3-0.3-0.6-0.6-0.9-0.9s-0.4-0.7-0.7-1c-0.3-0.3-0.7-0.5-1-0.8c-0.2-0.3-0.4-0.7-0.7-1c-0.2-0.3-0.5-0.6-0.8-0.9
				s-0.3-0.8-0.6-1.1c-0.3-0.3-0.7-0.5-1.1-0.8c-0.3-0.3-0.8-0.4-1.1-0.7c-0.3-0.3-0.5-0.8-0.8-1.1c-0.3-0.3-0.6-0.6-1-0.9
				c-0.3-0.3-0.9-0.4-1.1-0.7c-0.3-0.3-0.4-0.8-0.7-1.1c-0.3-0.3-0.3-0.8-0.5-1.2s-0.6-0.6-0.9-1c-0.2-0.4-0.5-0.7-0.7-1.1
				c-0.2-0.4-0.6-0.6-0.9-1c-0.3-0.3-0.3-0.9-0.6-1.2c-0.3-0.3-0.6-0.7-0.9-1s-0.7-0.6-1-0.9c-0.3-0.3-0.8-0.4-1.1-0.8
				c-0.3-0.3-0.2-0.9-0.4-1.3c-0.2-0.4-0.6-0.7-0.8-1c-0.2-0.4-0.4-0.8-0.6-1.2s-0.3-0.8-0.5-1.2s-0.4-0.8-0.6-1.2s-0.3-0.8-0.5-1.2
				c-0.1-0.1-0.4-0.2-0.5-0.3c-0.2-0.5-0.6-0.8-0.7-1.1c-0.2-0.6,0-1.2-0.2-1.4c-0.3-0.2-0.8,0-1.4,0.3c-0.3,0.1-0.5,0.6-1,0.9
				c-0.3,0.2-0.7,0.3-1.1,0.5c-0.3,0.2-0.7,0.4-1,0.5c-0.3,0.2-0.8,0-1.2,0.2c-0.4,0.2-0.6,0.6-0.9,0.8c-0.4,0.1-0.8,0-1.2,0.1
				c-0.4,0.1-0.6,0.5-1,0.6s-0.7,0.2-1.1,0.4c-0.4,0.1-0.7,0.4-1,0.5c-0.4,0.1-0.8,0.1-1.1,0.2c-0.4,0.1-0.7,0.3-1.1,0.4
				c-0.4,0.1-0.8-0.1-1.2,0c-0.4,0.1-0.8,0.1-1.2,0.2c-0.4,0.1-0.7,0.5-1.1,0.6s-0.8,0.1-1.2,0.2c-0.4,0-0.8,0.1-1.2,0.1
				s-0.8,0-1.2,0s-0.8-0.2-1.2-0.2s-0.8,0.1-1.2,0.1c-0.4-0.1-0.8-0.2-1.2-0.3s-0.8,0-1.2-0.1s-0.8-0.2-1.2-0.3s-0.7-0.4-1.1-0.5
				c-0.4-0.1-0.7-0.5-1.1-0.6c-0.4-0.1-0.7-0.3-1.1-0.5c-0.4-0.1-0.9,0.1-1.3-0.1c-0.4-0.1-0.6-0.7-0.9-0.8
				c-0.4-0.2-0.8-0.2-1.2-0.3c-0.4-0.2-0.8-0.1-1.2-0.3s-0.5-0.7-0.9-0.9c-0.3-0.2-0.8-0.1-1.2-0.4c-0.3-0.2-0.4-0.8-0.8-1
				c-0.3-0.2-0.8-0.2-1.1-0.4s-0.4-0.6-0.7-0.9c-0.3-0.2-0.6-0.4-0.9-0.7c-0.3-0.3-0.4-0.6-0.7-0.9c-0.3-0.3-0.8-0.3-1-0.5
				c-0.3-0.3-0.3-0.8-0.6-1c-0.3-0.3-0.5-0.5-0.8-0.8s-0.4-0.6-0.7-0.9c-0.3-0.3-0.5-0.5-0.8-0.8s-0.5-0.5-0.7-0.8s-0.7-0.4-1-0.6
				c-0.2-0.3-0.4-0.6-0.7-0.9c-0.2-0.2-0.2-0.6-0.4-0.9c-0.3-0.4-0.5-0.5-0.9-0.5c-0.4,0.1-0.7,0.3-0.9,0.7s-0.4,0.7-0.6,1.1
				c-0.2,0.4-0.1,0.8-0.3,1.2c-0.2,0.4-0.6,0.6-0.8,1c-0.2,0.4-0.4,0.7-0.5,1.1c-0.2,0.4-0.1,0.8-0.3,1.2c-0.2,0.4-0.6,0.6-0.8,0.9
				c-0.2,0.4,0,0.9-0.2,1.2c-0.2,0.4-0.3,0.7-0.5,1.1c-0.2,0.4-0.4,0.7-0.6,1c-0.2,0.4-0.3,0.7-0.5,1.1c-0.2,0.3-0.6,0.5-0.8,0.8
				c-0.3,0.3-0.5,0.6-0.8,0.9c-0.3,0.3-0.8,0.2-1.1,0.4c-0.3,0.2-0.6,0.5-0.9,0.7s-0.7,0.3-1.1,0.4c-0.3,0.2-0.6,0.6-0.9,0.7
				c-0.3,0.1-0.7,0.2-1.1,0.3s-0.7,0.2-1.1,0.3S18.4,244,18,244s-0.7-0.3-1.1-0.4c-0.4-0.1-0.7-0.3-1.1-0.5s-0.8-0.3-1.1-0.5
				c-0.4-0.2-0.7-0.4-1.1-0.6c-0.4-0.2-0.8-0.2-1.2-0.4s-0.6-0.6-0.9-0.9c-0.3-0.2-0.9-0.1-1.2-0.4c-0.3-0.2-0.6-0.5-0.9-0.8
				c-0.3-0.3-0.6-0.6-0.9-0.9c-0.3-0.3-0.5-0.7-0.7-1c-0.3-0.3-0.7-0.5-1-0.8s-0.3-0.8-0.5-1.1s-0.4-0.7-0.6-1.1
				c-0.2-0.3-0.4-0.7-0.6-1.1c-0.2-0.3-0.8-0.5-1-0.8c-0.2-0.4-0.4-0.7-0.6-1.1c-0.2-0.4-0.3-0.8-0.5-1.1c-0.2-0.4-0.2-0.8-0.4-1.2
				c-0.1-0.4-0.4-0.7-0.5-1.1c-0.1-0.4,0-0.9-0.1-1.3c-0.1-0.4-0.4-0.7-0.5-1.1c-0.1-0.4-0.1-0.8-0.2-1.2s0.1-0.8,0.1-1.2
				s-0.1-0.8-0.1-1.2s-0.2-0.8-0.2-1.2s-0.2-0.8-0.3-1.2c0-0.4,0.1-0.8,0-1.2c0-0.4-0.2-0.8-0.2-1.2s-0.1-0.8-0.1-1.2
				s0.3-0.8,0.3-1.2s0.1-0.8,0.1-1.2C0.5,213.7,0.2,213.3,0.2,212.9z M66.6,124.8c0.5,0,0.7-0.2,1-0.4c0.3-0.2,0.8-0.1,1.1-0.5
				c0.2-0.3,0-0.8,0.3-1.2c0.2-0.3,0.6-0.5,0.8-0.8c0.2-0.3,0.2-0.8,0.5-1.1c0.2-0.3,0.8-0.3,1-0.6c0.2-0.3,0.4-0.7,0.6-1
				c0.3-0.3,0.7-0.4,1-0.6c0.3-0.3,0.3-0.8,0.5-1c0.3-0.3,0.8-0.3,1.1-0.5c0.3-0.3,0.5-0.6,0.7-0.9c0.3-0.3,0.7-0.5,1-0.8
				s0.4-0.8,0.8-1.1c0.3-0.2,0.8-0.3,1.2-0.5c0.4-0.2,0.6-0.7,0.9-0.9c0.4-0.2,0.7-0.4,1.1-0.6s0.9,0,1.3-0.2s0.8-0.4,1.2-0.5
				c0.5-0.2,0.9-0.5,0.9-0.9c0.1-0.4-0.2-0.9-0.5-1.2c-0.3-0.3-0.5-0.6-0.8-0.9s-0.6-0.6-0.9-0.8c-0.3-0.3-0.5-0.7-0.8-1
				s-0.5-0.6-0.8-0.9s-0.6-0.5-0.9-0.8s-0.8-0.3-1.1-0.6c-0.3-0.3-0.4-0.7-0.7-1s-0.7-0.5-1-0.8s-0.5-0.5-0.8-0.6s-0.7-0.4-1.1-0.3
				c-0.3,0.1-0.6,0.4-0.9,0.7c-0.3,0.3-0.7,0.4-1,0.7c-0.3,0.3-0.5,0.7-0.8,1s-0.6,0.5-1,0.7c-0.3,0.3-0.7,0.5-1,0.7s-0.6,0.5-1,0.7
				s-0.8,0.1-1.2,0.3c-0.4,0.2-0.7,0.5-1,0.7c-0.4,0.2-0.8,0.2-1.2,0.3c-0.4,0.1-0.7,0.3-1.1,0.4s-0.8,0.3-1.2,0.4s-0.6,0.3-0.9,0.4
				c-0.3,0.2-0.5,0.3-0.7,0.6c-0.2,0.3-0.4,0.6-0.5,0.9s-0.4,0.6-0.4,1c0,0.3,0.2,0.7,0.3,1c0.1,0.4,0.2,0.7,0.3,1.1
				s0.2,0.8,0.2,1.1c0.1,0.4,0,0.8,0.1,1.2c0.1,0.4,0.1,0.8,0.2,1.1c0.1,0.4,0.3,0.7,0.4,1.1c0.1,0.4-0.2,0.8-0.1,1.2
				c0.1,0.4,0.2,0.7,0.2,1.1c0.1,0.4,0.3,0.7,0.4,1.1c0.1,0.4,0,0.9,0.1,1.2c0.1,0.5,0.3,0.9,0.4,1.1c0.2,0.4,0.6,0.5,1,0.6
				c0.3,0.1,0.6,0.2,1.1,0.3c0.3,0.1,0.7-0.1,1.2,0C66.4,124.6,66.6,124.8,66.6,124.8z M61.8,89.1c-0.4,0-0.7,0.3-1.1,0.5
				c-0.3,0.2-1,0.1-1.2,0.4c-0.3,0.3-0.2,0.9-0.4,1.3s-0.5,0.7-0.6,1.1s0.2,0.8,0.2,1.2c0.1,0.4-0.3,0.8-0.2,1.2
				c0.1,0.4,0.3,0.8,0.3,1.2c0,0.4-0.2,0.8-0.1,1.2c0,0.4,0.4,0.8,0.5,1.2c0,0.4-0.3,0.8-0.2,1.2c0,0.4,0.2,0.8,0.2,1.2
				c0,0.4,0,0.8,0,1.2c0,0.4,0.5,0.7,0.5,1.1c0.1,0.4-0.1,0.8-0.1,1.2c0.1,0.4,0.3,1,0.9,1.1c0.5,0.1,0.9-0.4,1.1-0.8
				c0.2-0.4,0.7-0.5,1-0.9c0.2-0.3,0.4-0.7,0.6-1.1c0.2-0.3,0.6-0.6,0.8-0.9c0.3-0.3,0.4-0.7,0.7-1c0.3-0.3,0.6-0.6,0.9-0.9
				s0.5-0.6,0.9-0.9c0.3-0.3,0.7-0.4,1-0.7c0.3-0.3,0.7-0.5,1-0.7c0.4-0.3,0.7-0.7,0.8-1c0.2-0.4-0.1-0.7-0.3-1.2
				c-0.1-0.3-0.1-0.7-0.4-1.1c-0.3-0.3-0.7-0.4-0.9-0.7c-0.3-0.3-0.5-0.6-0.8-0.8c-0.3-0.2-0.4-0.7-0.7-1c-0.3-0.2-0.7-0.4-1-0.6
				s-0.5-0.6-0.8-0.9s-0.7-0.4-1-0.6c-0.2-0.2-0.5-0.5-0.7-0.6C62.4,89.1,62.1,89.1,61.8,89.1z M86.1,114.1
				c-0.1-0.6-0.7-0.3-1.4-0.3c-0.5,0-0.9-0.5-1.4-0.5s-0.8,0.5-1.3,0.7c-0.4,0.2-0.8,0.2-1.2,0.4c-0.4,0.2-0.6,0.6-1,0.8
				c-0.4,0.2-0.9,0.1-1.3,0.3c-0.3,0.2-0.6,0.6-0.9,0.9s-0.8,0.3-1.1,0.6c-0.3,0.3-0.4,0.8-0.7,1.1c-0.3,0.3-0.8,0.3-1.1,0.6
				c-0.3,0.3-0.5,0.7-0.8,1s-0.6,0.6-0.9,0.9s-0.2,0.9-0.5,1.2c-0.2,0.3-0.7,1.1-0.5,1.4c0.3,0.4,1.3,0,1.7-0.1
				c0.4-0.2,0.7-0.3,1-0.5c0.4-0.2,0.9-0.1,1.2-0.3c0.3-0.2,0.6-0.5,1-0.7c0.3-0.2,0.7-0.3,1.1-0.5c0.3-0.2,0.6-0.5,0.9-0.7
				s0.7-0.4,1-0.6s0.6-0.5,0.9-0.7s0.7-0.3,1-0.6c0.3-0.2,0.6-0.4,0.9-0.7c0.3-0.2,0.5-0.6,0.8-0.8c0.3-0.3,0.3-0.8,0.6-1.1
				c0.3-0.3,0.7-0.4,1-0.7C85.7,115,86.1,114.7,86.1,114.1z M72.4,99.3c0-0.5-0.3-0.5-0.6-0.6c-0.3-0.1-0.8-0.4-1.1-0.2
				c-0.3,0.2-0.5,0.7-0.8,0.9c-0.3,0.2-0.8,0.2-1.1,0.5c-0.3,0.2-0.5,0.7-0.8,0.9c-0.3,0.2-0.9,0.2-1.2,0.4
				c-0.3,0.3-0.5,0.7-0.7,0.9c-0.3,0.3-0.7,0.4-1,0.7c-0.3,0.3-0.2,0.8-0.5,1.1c-0.2,0.2-0.7,0.8-0.5,1.1c0.2,0.3,1.1,0.4,1.4,0.3
				s0.7-0.1,0.9-0.2c0.4-0.2,0.5-0.7,0.9-0.9c0.3-0.2,0.8-0.2,1.1-0.5c0.3-0.2,0.5-0.7,0.8-1s0.6-0.5,0.9-0.8s0.8-0.3,1.1-0.6
				s0.5-0.6,0.8-0.9C72.3,100.3,72.4,99.7,72.4,99.3z M54.3,101.2c0,0.4,0.2,0.7,0.3,1.1s-0.2,0.9,0.1,1.2c0.2,0.3,0.8,0.4,1.1,0.6
				s0.4,0.6,0.8,0.9c0.3,0.2,0.6,0.1,0.9,0.1c0.3,0,0.6,0,0.5-0.5c-0.1-0.4-0.3-0.7-0.3-1.1c-0.1-0.4,0.2-0.8,0.1-1.2
				c-0.1-0.4-0.5-0.7-0.5-1.1c-0.1-0.4,0.2-0.8,0.2-1.2c-0.1-0.4-0.2-0.7-0.3-1.1s0-0.8-0.1-1.2c0-0.3-0.6-0.8-0.9-0.8
				c-0.3,0-1,0.2-1.1,0.5c-0.2,0.4-0.1,0.9-0.2,1.3c-0.1,0.4-0.1,0.8-0.1,1.3C54.5,100.3,54.4,100.8,54.3,101.2z M60,120
				c0-0.3-0.4-0.5-0.5-0.8c-0.2-0.3,0.1-0.7,0-1.1c0-0.3,0-0.6-0.1-0.8c-0.1-0.3-0.2-0.9-0.5-0.9s-0.6,0.5-0.7,0.8
				c-0.2,0.3-0.6,0.7-0.6,1.2c0,0.4,0.3,0.9,0.4,1.3c0.1,0.4,0.1,1,0.4,1.3c0.2,0.2,1,0.3,1.4,0.2C60.1,121,60,120.4,60,120z
				 M56.5,84c0,0.4,0.3,0.6,0.6,0.9s0.4,0.9,0.7,1c0.4,0.2,0.9-0.1,1.2-0.2c0.7-0.1,0.8-0.2,0.5-0.5s-0.8-0.5-1.1-0.8
				s-0.3-0.9-0.6-1.2c-0.2-0.2-0.8-0.4-1.1-0.3C56.4,83.1,56.5,83.8,56.5,84z"/>
		</g>
		<g>
			<path d="M56.5,38.9c-0.1,0.4,0.2,0.8,0.1,1.1c-0.1,0.4-0.3,0.7-0.3,1.1c0,0.4,0,0.8-0.1,1.1c0,0.4-0.1,0.7-0.1,1.1
				C56,43.7,56,44,55.9,44.4c-0.1,0.4-0.1,0.8-0.2,1.1c-0.1,0.4-0.1,0.8-0.1,1.1c0,0.4-0.2,0.7,0,1c0.1,0.3,0.4,0.4,0.8,0.7
				c0.3,0.3,0.4,0.8,0.7,1.1s0.8,0.4,1.1,0.7s0.5,0.7,0.7,1s0.5,0.6,0.7,1s0.2,0.8,0.4,1.2c0.2,0.5,0.8,0.9,0.2,1.4
				c-0.5,0.4-0.8-0.1-1.2-0.4c-0.4-0.2-0.8-0.3-1.2-0.6c-0.4-0.2-0.7-0.5-1-0.8c-0.4-0.2-0.9-0.2-1.3-0.4c-0.3-0.2-0.4-0.9-0.8-1.1
				c-0.4-0.3-0.9-0.4-1.2-0.5c-0.5-0.2-0.8-0.3-1.2,0c-0.2,0.2-0.5,0.5-0.9,0.9c-0.2,0.2-0.6,0.4-0.9,0.6c-0.3,0.2-0.5,0.5-0.8,0.7
				s-0.5,0.4-0.8,0.7c-0.3,0.2-0.4,0.6-0.7,0.8C48,54.9,48,55.3,47.5,55s-0.4-0.6-0.2-1s0.3-0.8,0.4-1.2c0.1-0.4-0.1-0.9,0-1.3
				c0.1-0.4,0.6-0.7,0.8-1.1c0.2-0.4,0.1-0.9,0.2-1.2c0.2-0.5,0.4-0.6,0-0.9c-0.2-0.2-0.5-0.4-0.9-0.7c-0.3-0.2-0.5-0.6-0.9-0.8
				c-0.3-0.2-0.8-0.1-1.2-0.3c-0.3-0.2-0.5-0.6-0.9-0.8c-0.3-0.2-0.7-0.3-1-0.5c-0.4-0.3-0.5-0.8-0.3-1.4c0.3-0.7,0.6-0.4,1.2-0.3
				c0.4,0.1,0.9-0.1,1.4,0c0.4,0.1,0.8,0.5,1.2,0.7c0.4,0.1,1,0,1.4,0.1c0.4,0.2,0.7,0.6,1.1,0.8c0.5,0.3,1,0.1,1.2,0
				c0.3-0.2,0.6-0.5,0.8-0.9c0.2-0.3,0.3-0.6,0.5-1c0.2-0.3,0.1-0.8,0.3-1.1s0.2-0.7,0.4-1s0.7-0.4,0.9-0.8c0.2-0.3,0.3-0.7,0.5-1
				c0.2-0.4,0.4-0.7,0.6-1c0.1-0.2,0.1-0.6,0.3-0.9c0.2-0.3,0.6-0.5,0.9-0.4c0.3,0.1,0.5,0.5,0.4,0.9C56.9,38.2,56.5,38.6,56.5,38.9
				z"/>
		</g>
		<g>
			<path d="M20.3,15c-0.4,0-0.7-0.3-1.1-0.5S18.4,14.1,18,14c-0.4-0.1-1-0.2-1.4,0.1c-0.4,0.2-0.4,0.8-0.5,1.3
				c0,0.4,0.2,0.8,0.2,1.3s-0.2,0.8-0.4,1.2c-0.1,0.2-0.8,0.1-0.9,0.3c-0.2,0.3,0,0.6-0.3,0.5c-0.4-0.1-0.6-0.2-0.7-0.5
				c-0.1-0.3-0.2-0.7-0.2-1s-0.2-0.6-0.2-1c-0.1-0.6-0.2-0.9-0.5-1.2s-0.6-0.5-1.2-0.3c-0.4,0.2-0.8,0.5-1.2,0.8
				c-0.4,0.2-0.9,0.3-1.3,0.5c-0.5,0-0.7,0.3-1,0c-0.4-0.4-0.2-0.7,0-1.1c0.2-0.3,0.3-0.5,0.6-0.7C9.2,14,9.6,14,9.9,13.8
				c0.4-0.3,0.6-0.8,0.4-1c-0.1-0.2-0.6-0.1-1-0.3c-0.5-0.2-0.9-0.8-1.4-1c-0.4-0.2-0.5-0.5-0.4-1c0.1-0.6,0.3-0.6,0.8-0.7
				c0.5,0,1,0.2,1.5,0.2s1-0.1,1.5,0c0.6,0,0.8-0.3,1-0.7c0.1-0.3,0.5-0.6,0.6-1.1c0.1-0.4-0.3-0.7-0.3-1.1s0.1-0.7,0-1.1
				c0-0.4,0.1-0.7,0.2-1c0.1-0.3,0.1-0.8,0.2-1.3c0.2-0.4,0.4-1,0.8-1c0.4,0,0.6,0.6,0.6,1.1c0,0.4-0.1,0.9,0,1.2
				c0.1,0.4,0.6,0.7,0.9,1.1c0.3,0.4,0.2,1,0.4,1.4c0.2,0.7,0.5,1.1,0.7,1.3c0.3,0.2,0.6,0,1.4-0.2c0.4-0.1,0.8-0.1,1.2-0.2
				c0.4-0.1,0.8-0.1,1.2-0.2c0.4-0.1,0.8-0.4,1,0c0.3,0.4,0.2,1.1,0,1.4c-0.3,0.3-0.7,0.4-1.1,0.5C19.7,10,19.3,10,19,10.3
				c-0.4,0.4-0.8,0.8-0.6,1.1c0.1,0.3,0.7,0.3,1.2,0.6s0.6,1.1,1,1.5c0.4,0.3,1,0.2,0.8,0.7C21.2,14.7,20.7,15,20.3,15z"/>
		</g>
		<g>
			<path d="M51,171.2c0-0.3-0.3-0.7-0.3-1.1c0-0.4,0.4-0.7,0.4-1c0.1-0.4,0.1-0.7,0.2-1c0.2-0.4,0.3-0.8,0.6-1
				c0.3-0.3,0.8-0.2,1.2-0.3s0.7-0.1,1.1-0.1c0.4,0.1,0.9-0.2,1.3,0c0.3,0.2,0.6,0.6,0.9,0.9c0.2,0.3,0.5,0.6,0.7,1
				c0.2,0.3,0.1,0.8,0.2,1.2c0.1,0.4,0.6,0.6,0.7,1c0.1,0.4-0.1,0.8-0.1,1.2s-0.1,0.8-0.2,1.1c-0.1,0.4-0.1,0.8-0.3,1.1
				s-0.6,0.5-0.9,0.7c-0.3,0.2-0.5,0.7-0.9,0.8s-0.8,0.1-1.2,0.1s-0.7-0.3-1.1-0.5c-0.4-0.1-0.9,0.1-1.2-0.1c-0.3-0.2-0.5-0.7-0.7-1
				c-0.3-0.3-0.7-0.5-0.8-0.8s0.1-0.7,0.2-1.2C50.8,172,51,171.6,51,171.2z"/>
		</g>
		<g>
			<path d="M30.3,37.2c-0.4,0-0.7,0.1-1.1,0.1c-0.4-0.1-0.8,0-1.1-0.1c-0.3-0.1-0.6-0.4-1-0.6c-0.3-0.2-0.8-0.2-1.1-0.4
				c-0.3-0.2-0.4-0.7-0.6-1s-0.2-0.7-0.4-1c-0.2-0.3-0.6-0.5-0.8-0.8c-0.1-0.3-0.3-0.7-0.4-1s-0.2-0.7-0.3-1c-0.2-0.4,0-0.7,0.4-1.1
				c0.5-0.4,0.7-0.2,1.1,0.1c0.4,0.3,0.6,0.7,1,1.1c0.3,0.3,0.6,0.7,1,1.1c0.3,0.3,0.8,0.4,1.1,0.6c0.4,0.3,0.8,0.3,1.1,0.5
				c0.4,0.2,0.7,0.6,1.1,0.6s0.8-0.2,1.2-0.3c0.4-0.1,0.9,0,1.3-0.2s0.7-0.5,1-0.8c0.3-0.2,0.5-0.7,0.8-0.9s0.7-0.4,1.1-0.6
				c0.3-0.2,0.6,0,0.9,0.3c0.3,0.3,0.7,0.4,0.7,0.7c-0.1,0.4-0.1,0.8-0.2,1.2c-0.1,0.4-0.2,0.8-0.5,1.1c-0.2,0.3-0.4,0.8-0.6,1.1
				c-0.3,0.3-0.7,0.4-1.1,0.6c-0.3,0.2-0.7,0.5-1.1,0.6c-0.4,0.1-0.8-0.1-1.2,0s-0.7,0.2-1.1,0.3C31.1,37.2,30.7,37.2,30.3,37.2z"/>
		</g>
		<g>
			<path d="M10,214.8c0.1-0.4,0.2-0.8,0.3-1.2s0.2-0.8,0.4-1.2c0.1-0.4,0.3-0.8,0.4-1.1c0.2-0.4,0.4-0.7,0.6-1
				c0.2-0.4,0.5-0.6,0.7-1c0.2-0.3,0.2-0.8,0.5-1.1s0.7-0.4,1-0.7s0.6-0.5,0.9-0.8c0.3-0.2,0.6-0.5,0.9-0.7c0.3-0.2,0.4-0.8,0.8-1
				c0.3-0.2,0.5-0.3,0.8-0.4c0.5-0.1,1.4-0.4,1.7,0.1c0.3,0.5-0.3,1.1-0.8,1.4c-0.3,0.2-0.7,0.4-1,0.7s-0.2,0.8-0.4,1.2
				c-0.2,0.3-0.6,0.5-0.8,0.9c-0.1,0.3-0.4,0.7-0.5,1.1c-0.1,0.4,0,0.8-0.1,1.2s-0.2,0.8-0.3,1.2s-0.3,0.7-0.4,1.1
				c-0.1,0.4-0.3,0.7-0.5,1.1c-0.2,0.3-0.4,0.6-0.7,0.9c-0.2,0.2-0.4,0.5-0.8,0.5c-0.3,0-0.6,0.1-0.9,0.2c-0.6,0.2-1.1,0.1-1.4,0
				C10.2,215.8,10,215.5,10,214.8z"/>
		</g>
		<g>
			<path d="M34.6,55.7c0,0.5-0.4,0.8-0.7,1.2s-0.5,0.8-0.7,1.2s-0.4,0.7-0.5,1.1c-0.1,0.4-0.2,0.8-0.3,1.2s-0.5,0.8-0.5,1.2
				s0.3,0.8,0.4,1.2c0.1,0.4,0.2,0.8,0.3,1.2c0.1,0.4,0.1,1,0.3,1.4c0.3,0.4,0.5,0.8,0.6,1.2c0.1,0.5-0.2,0.8-0.8,1.1
				c-0.6,0.3-0.9,0.3-1.3-0.2c-0.3-0.3-0.5-0.6-0.8-0.9c-0.2-0.3-0.6-0.5-0.8-0.9c-0.2-0.3-0.5-0.6-0.6-1S29,64,28.9,63.6
				c-0.1-0.4,0-0.7,0-1.1c0-0.4,0.1-0.7,0.1-1.1c0-0.4-0.2-0.8-0.1-1.2s0.5-0.6,0.7-1c0.1-0.4,0.1-0.8,0.3-1.1
				c0.2-0.3,0.4-0.7,0.6-1s0.6-0.5,0.9-0.7c0.3-0.3,0.2-0.8,0.5-1.1c0.3-0.2,0.7-0.4,1-0.6c0.4-0.3,0.5-0.3,0.9,0
				C34.1,55.1,34.6,55.2,34.6,55.7z"/>
		</g>
		<g>
			<path d="M29.7,84.5c-0.5,0-0.8,0.1-1.1,0.1c-0.5,0-0.7,0.1-1,0.2c-0.3,0.2-0.4,0.4-0.6,0.8c-0.1,0.3-0.7,0.5-0.8,0.9
				c-0.1,0.3-0.2,0.6-0.3,0.8c-0.2,0.3-0.2,0.6-0.6,0.6c-0.3,0-0.4-0.4-0.6-0.7c-0.2-0.3-0.3-0.5-0.3-0.8c0-0.5,0-1-0.1-1.3
				c-0.1-0.5-0.3-0.9-0.6-1.2c-0.3-0.2-0.6-0.6-1.2-0.7c-0.5-0.1-1.1-0.6-1-1.1c0-0.3,0.4-0.4,0.7-0.6c0.3-0.2,0.5-0.3,0.8-0.3
				c0.4,0,0.8-0.2,1.1-0.2c0.4-0.1,0.7-0.1,1-0.3c0.3-0.2,0.7-0.4,0.9-0.7c0.2-0.3,0.1-0.7,0.2-1.1c0.2-0.7,0.5-1,1.3-0.8
				c0.7,0.2,0.4,0.5,0.3,1.2c-0.1,0.4-0.3,0.8-0.3,1.1c0,0.4,0.4,0.7,0.7,0.9c0.2,0.2,0.4,0.5,0.8,0.7c0.3,0.1,0.7,0,1.1,0.1
				c0.3,0.1,0.6,0.5,0.8,0.7c0.2,0.3,0.2,0.6,0.1,1s-0.1,0.7-0.4,0.8C30.4,84.6,30,84.5,29.7,84.5z"/>
		</g>
		<g>
			<path d="M32.4,46.8c0,0.6,0.2,1.5-0.7,1.4c-0.5,0-0.9-0.3-1.2-0.6c-0.3-0.3-0.3-0.8-0.3-1.2c0-0.3,0-0.8,0.2-1.1s0.7-0.5,1.1-0.5
				c0.6,0,0.8,0.4,0.9,0.8C32.5,45.9,32.3,46.4,32.4,46.8z"/>
		</g>
	</g>
</g>
</svg>
