<?xml version="1.0" encoding="utf-8"?>
<!-- Generator: Adobe Illustrator 24.2.2, SVG Export Plug-In . SVG Version: 6.00 Build 0)  -->
<svg version="1.1" id="Layer_1" xmlns="http://www.w3.org/2000/svg" xmlns:xlink="http://www.w3.org/1999/xlink" x="0px" y="0px"
	 viewBox="0 0 218 238" style="enable-background:new 0 0 218 238;" xml:space="preserve">
<style type="text/css">
	.st0{fill:#C3E8F5;}
	.st1{fill:#4C77BB;}
	.st2{fill:#F15D4B;}
	.st3{fill:#F8B618;}
</style>
<polygon class="st0" points="36.4,13 7.8,169.9 203.4,189.2 213.3,30.9 "/>
<path class="st1" d="M188.7,43.2c-1.1-2.5-4.4-4.2-7.1-4.4c-18-1.3-35.9-2.8-53.9-4.6c-18-1.8-36-3.8-54-6
	c-10.1-1.3-20.2-2.6-30.3-4c-2-0.3-4.9,0.9-3.8,3.4c1.2,2.6,4.4,4,7.1,4.4c17.9,2.5,35.7,4.7,53.7,6.8c18,2,36,3.8,54.1,5.4
	c10.1,0.9,20.3,1.7,30.4,2.4C186.9,46.8,189.9,45.8,188.7,43.2z"/>
<path class="st2" d="M54.1,17c0-0.2,0.1-0.4,0.1-0.5s0-0.2,0-0.3c0,0,0,0,0-0.1c-0.1-0.2-0.2-0.4-0.2-0.6c0,0,0-0.1-0.1-0.1
	c-0.1-0.1-0.2-0.2-0.3-0.3L53.5,15c0-0.1-0.1-0.2-0.1-0.3c-0.3-0.4-0.8-0.7-1.3-0.9c-0.4-0.2-0.8-0.2-1.1-0.3
	c-0.8-0.2-1.7-0.1-2.5-0.1c-0.8,0.1-1.6,0.3-2.4,0.6c-0.4,0.1-0.7,0.3-1,0.6c-0.3,0.2-0.6,0.4-0.8,0.7c0,0,0,0.1-0.1,0.1
	c-0.2,0.2-0.3,0.4-0.4,0.7c-0.1,0.1-0.1,0.3-0.2,0.4c-0.1,0.3-0.1,0.5-0.1,0.8c0,0.1,0,0.1,0,0.2c0,0.2,0.1,0.4,0.2,0.5
	c0.1,0.2,0.2,0.5,0.3,0.7c0,0.1,0.1,0.1,0.1,0.2c0.2,0.2,0.4,0.4,0.6,0.5c0,0,0.1,0,0.1,0.1c0,0,0.1,0,0.1,0.1
	c0.3,0.1,0.5,0.3,0.8,0.4h0.1c0,0,0,0,0.1,0c0.3,0.1,0.7,0.2,1,0.3c0.4,0.1,0.9,0.1,1.3,0.1h0.1c0.2,0,0.5,0,0.6,0
	c0.2,0,0.4,0,0.7,0c0.5,0,0.9-0.1,1.4-0.2c0,0,0,0,0.1,0c0.3-0.1,0.8-0.2,1.1-0.4h0.1c0.7-0.4,0.8-0.4,1.3-0.8
	c0.1-0.1,0.2-0.2,0.3-0.3c0.3-0.2,0.4-0.5,0.4-0.9c0-0.1,0-0.2,0-0.3C54.1,17.2,54.1,17.1,54.1,17C54.1,17.1,54.1,17,54.1,17z"/>
<path class="st2" d="M96.6,52l-48.1-5.5c-0.5-0.1-1.6,0.6-1.9,0.8c-0.2,0.1-0.5,0.2-0.7,0.4c-0.9-0.2-1.8-0.4-2.7-0.3
	c-0.4,0-0.9,0.1-1.2,0.3c-0.4,0.3-0.4,0.7-0.3,1.1l0,0c-3,1.1-3.6,4.4-4.1,7.4c-0.7,4.1-1.3,8.2-2,12.3c-1.3,8.3-2.6,16.6-3.9,24.9
	c-0.7,4.7-1.5,9.4-2.2,14c-0.2,1.2,1.2,2.6,2.1,3.1c7.8,4.4,16.1,7.8,24.8,9.7c2.2,0.5,4.5,0.9,6.7,1.2c1,0.2,2,0.3,3,0.5
	c0.5,0.1,1,0.2,1.5,0.2c0.2,0,0.3,0.1,0.4,0.1s0.3,0.1,0.4,0.1c2,0.4,4,0.8,5.9,1.3c0.5,0.1,1,0.3,1.4,0.4c0.1,0,0.2,0.1,0.3,0.1
	c0.1,0.1,0.3,0.1,0.4,0.2c1,0.4,2,0.8,2.9,1.3c1.8,0.9,5,1.1,5.4-1.4c2.7-17.5,5.3-35,8-52.5c0.8-5,1.5-10,2.3-15
	c0.1-0.8-0.7-1.8-1.2-2.3c0.1-0.1,0.2-0.1,0.3-0.2c0.7-0.5,1.6-1,2.2-1.6C96.6,52.4,97.1,52.1,96.6,52z M76.9,118.6
	c-2-0.7-4.1-1.3-6.2-1.7c1,0.1,2,0.2,3,0.3c1.2,0.1,2.5-0.1,3.6-0.6C77.1,117.2,77,117.9,76.9,118.6z M78.4,65.3
	c-1.4,1.2-2.8,2.4-4.1,3.6c1.4-1.3,2.7-2.5,4.1-3.8C78.4,65.3,78.4,65.3,78.4,65.3z M86.3,56.8c-0.6-0.2-1.2-0.3-1.7-0.3
	c-1.2,0-3.1,0.4-4.1,1.4c-0.4-0.1-0.7-0.2-1.1-0.3c0.1-0.1,0.2-0.1,0.2-0.2c0.6-0.5,1-1.1,1.1-1.7l5.7,0.7
	C86.3,56.5,86.3,56.6,86.3,56.8z"/>
<path class="st1" d="M83.7,136.6c-14.2-3.1-28.7-4.8-43.2-5.2c-4.2-0.1-8.5,1.8-11.3,5.1c-1.5,1.7-3.8,6.9,0.6,7
	c14.6,0.4,29,2.1,43.2,5.2c3.9,0.8,8.9-2.3,11.3-5.1C86.2,141.3,87.7,137.4,83.7,136.6z"/>
<path class="st1" d="M169.7,98.9c0.1-0.8,0.2-1.5,0-2.3c-0.4-1.6-1.8-2.9-3.2-3.6c-0.9-0.4-1.9-0.7-2.9-1c-0.9-0.3-1.8-0.6-2.7-0.9
	c-1.9-0.6-3.7-1.2-5.6-1.8c-0.3-0.1-0.7-0.1-1.1,0c-6.5-1.6-13.1-2.9-19.8-3.7c0,0,0.1-0.1,0.1-0.2c0.4-3.4,0.7-6.9,1.1-10.3
	c0.1-0.6,0.3-1.2,0.5-1.7c4.7,2.8,13.3,5.1,13.7,3.4c0.4-1.7,0.8-3.4,1.2-5.1c0.4-1.7-3.5-3.5-4.4-3.9c-2.9-1.5-6-2.8-9.3-3.3
	c-2.7-0.5-5.5-0.9-8.3-1.1c-0.5-0.1-1.1-0.1-1.6-0.2c-4-1.2-7.8-1.8-7.9-1c-0.3,2.9-0.6,5.8-0.9,8.7c-0.4,2.6-0.7,5.2-0.8,7.8
	c-0.2,2.8,6.9,5.6,11.9,6.7c-1.9,0.4-3.2,1.9-3.5,3.8c-2.9-2-6.6-2.8-9.6-1.6c-8.6,3.5-8.4,15.1-11.7,22.8
	c-7.9-0.2-4.8,8.1-0.5,11.8c2.1,2.8,5.7,4.7,9,5c2.1,0.2,4.1,0.2,6.2,0.2c12.1,4.2,25.4,5.5,37.9,7.7c2.5,0.4,6.7,0.5,7.3-3
	c1.7-10,3.4-20.1,5.1-30.1C170.1,100.8,170,99.9,169.7,98.9z"/>
<path class="st1" d="M161.6,141.8c-18-1.9-35.9-4.1-53.8-6.6c-1.3-0.2-3.1,0.6-3.9,1.6s-0.4,1.9,0.9,2c17.9,2.5,35.8,4.7,53.8,6.6
	c1.4,0.1,3.1-0.6,3.9-1.6C163.3,142.9,162.9,141.9,161.6,141.8z"/>
<path class="st1" d="M153.3,151.3c-0.6-0.9-1.6-2.3-2.8-2.5c-10.8-1.8-21.7-3.1-32.6-4c-1-0.1,0.3,2.1,0.5,2.3
	c0.6,0.8,1.7,2.4,2.8,2.5c10.9,0.9,21.8,2.3,32.6,4C154.8,153.8,153.4,151.5,153.3,151.3z"/>
<path class="st3" d="M205.1,224.9c-8.8-17.9-17.6-35.8-26.5-53.7c-2.1-4.2-4.1-8.3-6.2-12.5c11.1-8.3,18.8-21.3,21.8-35.3
	c3.2-15.1-1.2-29.1-13.5-38.7c-6.5-5.1-14.2-8.7-22.4-9.5c-3-0.3-6-0.1-9,0.3c-5.6-0.8-11.1-0.9-16.2-0.2
	c-22.9,2.9-42.9,22.7-41.5,46.4c-0.3,0.3-0.5,0.6-0.5,0.9c1.2,12.4,3,26.3,13.5,34.5c7.1,5.6,16.4,8.1,25.7,9
	c5.4,1.6,11.1,2.3,16.6,2c2.4-0.1,4.7-0.5,6.9-0.9c6.8,17.7,14,35.3,21.7,52.6c1.8,4.2,3.8,9.5,8.4,11.3c2.6,1,5.9,0,8.3-0.8
	c0.4-0.1,0.7-0.3,1.1-0.4c1.7,0,3.5-0.4,5.1-0.9c1.7-0.5,3.5-1.1,4.9-2.1C204,226.7,205.5,225.7,205.1,224.9z M143.8,153.1
	c-6.4,2.2-15.1,3.6-21.9,1.2c-0.7-0.7-1.4-1.5-2-2.4c-5.9-7.9-7.9-13.9-9.7-23.6c-0.2-0.8,1.2-5.8,0.2-6.4
	c2.5-11.9,10.4-22.6,21.3-28.4c3.8-2,7.8-3.5,12-4.5c4.2-0.8,6.7-1.1,9.1-1.1c4,0,7,0.3,10.7,0.6c2.1,0.4,4.1,0.9,6.1,1.6
	c0.5,0.2,1.1,0.4,1.6,0.7c0.1,0.1,0.1,0.1,0.1,0c0.1,0.1,0.1,0.1,0.2,0.2c3.4,3.6,4.8,8.6,5.3,13.4c0.1,0.7,0.3,1.4,0.7,2
	c-0.2,3.3-0.9,6.5-1.7,9.6C171.2,132.3,160,147.5,143.8,153.1z"/>
<path d="M192.3,184.2c-1.3-0.1-3.1,0.2-4.9-0.2c-0.5-0.1-1.1-0.1-1.1-0.7c0-0.7,0.6-0.7,1.1-0.9c2.3-0.6,4.7-0.4,7-0.4
	c2.2,0,2.2-0.1,2.4-2.2c0.7-7,1.4-14.1,2.1-21.1c0.4-4.8,0.8-9.5,1.1-14.3c0.4-7.7,0.7-15.5,1-23.2c0.1-4.2,0.3-8.3,0.5-12.5
	c0.2-6.1,0.6-12.2,0.9-18.3c0.2-3.5,0.3-7,0.5-10.5c0.3-5,0.6-10,0.9-15.1c0.2-3.3,0.3-6.6,0.5-9.9c0.3-5.6,0.6-11.2,0.9-16.7
	c0.1-2.8,0.2-5.6,0.3-8.4c0-1-0.6-1.2-1.3-1.4c-5-0.9-10.1-1.7-15.2-2.4c-10.5-1.4-21.1-2.4-31.7-3.6c-9-1-18-2.2-27-3.2
	c-8.7-1-17.4-2-26.1-3c-6.5-0.7-12.9-1.4-19.4-2.1c-6.7-0.7-13.4-1.3-20.2-2c-6.6-0.7-13.3-1.4-20-2.1c-3.1-0.3-6.2-0.7-9.3-1
	c-1.4-0.1-1.9,0.2-2.2,1.6c-1.8,9.4-4.4,18.6-6.3,28c-1.7,8.7-3,17.5-4.4,26.3c-1.6,10-3.1,20.1-4.7,30.1
	c-2.5,15.8-5.2,31.6-7.7,47.4c-1,6.4-2,12.7-3,19.1c-0.3,1.8-0.1,2.1,1.7,2.3c6.3,0.7,12.7,1.5,19.1,2.2c7.2,0.8,14.5,1.6,21.7,2.3
	c5,0.5,10.1,0.9,15.2,1.3c5.5,0.5,10.9,0.9,16.4,1.4c4.8,0.4,9.6,0.8,14.4,1.2c5.8,0.6,11.7,1.2,17.5,1.8c5.8,0.6,11.7,1.3,17.5,1.8
	c4.9,0.5,9.9,1,14.8,1.4c1.6,0.1,3.2,0.2,4.8,0.6c0.5,0.1,0.9,0.3,1.4,0.4c0.3,0.1,0.6,0.3,0.6,0.7c-0.1,0.4-0.4,0.5-0.7,0.5
	c-0.4,0-0.7,0.1-1.1,0.1c-4.8-0.1-9.6-0.5-14.5-0.9c-4.3-0.3-8.5-0.7-12.8-1c-5.3-0.4-10.7-0.9-16-1.4c-4-0.3-8-0.7-11.9-1
	c-5.5-0.5-11.1-1-16.6-1.5c-5.2-0.5-10.5-1.1-15.7-1.6c-5.7-0.6-11.4-1.1-17-1.8c-6.3-0.7-12.5-1.4-18.8-2.1
	c-6.4-0.7-12.7-1.5-19.1-2.2c-1.3-0.2-2.4-0.8-3.5-1.4c-0.9-0.5-0.8-1.5-0.7-2.4c0.7-4.5,1.5-9,2.2-13.5
	c3.8-23.4,8.2-46.8,12.5-70.2c3-16.3,5.7-32.7,8.6-49c1.3-7.2,2.6-14.4,3.8-21.6c0.3-1.5,0.7-1.7,2.1-1.6c7.3,0.8,14.5,1.5,21.8,2.3
	c7.8,0.8,15.6,1.7,23.4,2.5c7.1,0.8,14.3,1.5,21.5,2.3c5.5,0.6,11,1.2,16.6,1.8c6.5,0.7,13,1.4,19.4,2c5.4,0.6,10.8,1.2,16.2,1.7
	c5.7,0.6,11.4,1.2,17.2,1.8c12.5,1.4,25,2.5,37.2,5.7c2,0.5,2.1,0.6,2,2.6c-0.2,3.9-0.4,7.9-0.7,11.8c-0.2,3.3-0.4,6.6-0.5,9.9
	c-0.3,5.6-0.6,11.2-0.9,16.9c-0.2,3.5-0.3,6.9-0.5,10.4c-0.3,5.1-0.6,10.1-0.9,15.2c-0.2,3.1-0.3,6.2-0.5,9.3
	c-0.3,5.1-0.6,10.3-0.9,15.4c-0.2,3.2-0.3,6.5-0.5,9.7c-0.3,4.8-0.6,9.6-0.9,14.5c-0.2,2.9-0.3,5.8-0.5,8.7
	c-0.3,4.9-0.6,9.7-0.9,14.6c-0.2,2.9-0.4,5.8-0.5,8.7c-0.2,2.8-0.3,5.6-0.5,8.4c-0.1,1.1-0.7,1.6-1.7,1.6
	C195.8,184.2,194.3,184.2,192.3,184.2z"/>
<path d="M194,116.2c-0.1,13.8-4.6,26-13.6,36.5c-2.1,2.4-4.3,4.7-7.1,6.5c-1.8,1.1-1.8,1.4-1,3.3c8,19,16.3,37.8,24.1,56.9
	c1.1,2.8,1.6,5.4-0.2,8c-1.5,2.2-3.7,3.8-6.2,4.7c-4.4,1.5-8.7,1.2-13-0.6c-1.8-0.8-2.7-1.9-3.4-3.7c-5.3-13.5-11.1-26.7-16-40.4
	c-2-5.6-4.1-11.2-6.2-16.8c-0.7-2-0.9-2.1-3-1.7c-3.2,0.6-6.5,0.8-9.8,0.8c-4.5,0-9-0.9-13.3-2.1c-5.4-1.5-10.8-3-15.7-5.7
	c-5.9-3.2-11.1-7.2-14.2-13.3c-2.3-4.5-3.7-9.3-4.4-14.3c-1.7-12.1,0.2-23.7,5.6-34.6c2.5-5,6.1-9.2,10.3-12.8
	c7.6-6.4,16.2-10.7,25.9-13c4.5-1,9.1-1.3,13.8-1.1c6.1,0.3,12.2,1,18.1,2.6c6.7,1.9,12.9,4.6,17.8,9.7c5.2,5.4,8.4,11.9,10.1,19.2
	C193.6,108.2,194.2,112.2,194,116.2z M146.4,75.7c-3.7-0.2-7.7,0.1-11.6,0.7c-5.7,0.9-11.4,2.1-16.4,5.4c-1.3,0.9-2.7,1.7-4.1,2.5
	c-5.1,3.4-9.8,7.1-13.1,12.3c-8.2,13.1-10.4,27.2-6.4,42.2c2,7.3,6.2,13.3,12.3,17.8c4.6,3.4,9.9,5.5,15.4,7.2
	c7.8,2.4,15.8,2.9,23.9,2c8.5-0.9,16.1-4.2,23.5-8.3c1-0.5,2-1,2.9-1.7c2.5-2.3,5-4.6,7.2-7.2c4.1-5,6.9-10.7,8.7-16.8
	c3.5-11.8,3.4-23.4-2-34.7c-4.3-8.8-11-15-20.2-18.4C160,76.3,153.4,75.5,146.4,75.7z M169.1,195c3.1,0,5.9-0.8,8.5-2.5
	c2.2-1.4,2.7-2.8,2.3-5.4c-0.5-3-2-5.6-3.1-8.4c-2.1-5-4.2-10-6.4-15c-0.4-0.9-0.8-1.7-2-1.2c-3,1.3-6.2,2-9.1,3.5
	c-1.1,0.6-2.3,1-3.5,1.3c-1.7,0.4-1.8,0.7-1.3,2.3c2.4,7.1,5.1,14.1,7.7,21.1c1.3,3.4,2.3,4.1,5.9,4.3
	C168.4,195,168.8,195,169.1,195z M175,213.8c3.4,0,6.5-1,9.3-2.7c1.7-1,3-2.4,3.7-4.3c0.3-0.7,0.3-1.4-0.1-2.1
	c-1.9-3.8-3.8-7.6-5.7-11.4c-0.4-0.8-0.9-0.8-1.4-0.1c-0.6,0.9-1.5,1.5-2.4,2c-3.8,2-7.7,2.7-12,1.9c-0.5-0.1-1-0.3-1.4,0.1
	c-0.4,0.5-0.1,1,0.1,1.5c1.5,3.9,3,7.9,4.5,11.8c1.2,3.1,1.4,3.2,4.7,3.3C174.6,213.8,174.8,213.8,175,213.8z M183,230.2
	c4.3-0.2,8.1-1.5,10.9-4.9c0.9-1.1,1.7-2.2,1-3.7c-1.7-3.3-3-6.8-4.2-10.3c-0.4-1.1-0.8-1.1-1.7-0.3c-4.3,4-9.4,5.8-15.3,5.3
	c-1.3-0.1-1.7,0.4-1.2,1.6c1,2.7,2.2,5.3,3,8s2.5,3.8,5,4.2C181.3,230.1,182.1,230.1,183,230.2z"/>
</svg>
