<?xml version="1.0" encoding="utf-8"?>
<!-- Generator: Adobe Illustrator 24.2.2, SVG Export Plug-In . SVG Version: 6.00 Build 0)  -->
<svg version="1.1" id="Layer_1" xmlns="http://www.w3.org/2000/svg" xmlns:xlink="http://www.w3.org/1999/xlink" x="0px" y="0px"
	 viewBox="0 0 181 227" style="enable-background:new 0 0 181 227;" xml:space="preserve">
<style type="text/css">
	.st0{fill:#C3E8F5;}
	.st1{fill:#F15D4B;}
	.st2{fill:#F8B618;}
</style>
<g>
	<g>
		<g>
			<path class="st0" d="M21.4,34.5c-0.1-0.5-0.3-1-0.3-1.5s0.5-0.9,0.7-1.4s0.1-1,0.4-1.5c0.2-0.4,0.7-0.7,1-1.1s0.6-0.7,1-1.1
				c0.3-0.3,0.5-0.9,0.9-1.2c0.4-0.3,0.8-0.5,1.3-0.8c0.4-0.3,0.9-0.3,1.4-0.6c0.4-0.2,0.7-0.7,1.2-0.9c0.4-0.2,1-0.2,1.5-0.4
				c0.4-0.2,0.8-0.6,1.2-0.8c0.4-0.2,0.9-0.2,1.4-0.4c0.4-0.2,0.9-0.4,1.3-0.6s0.9-0.4,1.3-0.6c0.5-0.2,0.9-0.4,1.3-0.6
				s1-0.2,1.4-0.3c0.5-0.1,0.9-0.5,1.4-0.6s1-0.1,1.4-0.2c0.5-0.1,1-0.2,1.4-0.3c0.5-0.1,0.9-0.4,1.4-0.5s0.9-0.4,1.4-0.5
				s1-0.1,1.5-0.2s0.9-0.2,1.4-0.3c0.5-0.1,0.9-0.2,1.4-0.3c0.5-0.1,0.8-0.6,1.3-0.8c0.5-0.1,1,0,1.5-0.2c0.5-0.1,0.9-0.4,1.4-0.5
				s0.9-0.2,1.4-0.4c0.5-0.1,1-0.2,1.4-0.3c0.5-0.1,0.9-0.4,1.4-0.5s1-0.1,1.4-0.2c0.5-0.1,0.9-0.4,1.4-0.5s1,0.1,1.5,0
				s0.9-0.4,1.4-0.5s0.9-0.4,1.4-0.5s1-0.1,1.4-0.2c0.5-0.1,1,0.3,1.5,0.2c0.5-0.1,0.9-0.5,1.4-0.6s1,0.1,1.5,0.1s1-0.2,1.4-0.3
				c0.5-0.1,0.9-0.5,1.4-0.6c0.5-0.1,1-0.1,1.4-0.2c0.5-0.1,0.9-0.4,1.4-0.5s1,0.1,1.5,0s0.9-0.5,1.4-0.5c0.5-0.1,1,0.1,1.5,0
				s0.9-0.3,1.4-0.3s1,0.1,1.5,0.1s1-0.2,1.4-0.3c0.5,0,1-0.1,1.4-0.1c0.5-0.1,1,0.1,1.5,0c0.5,0,0.9-0.4,1.4-0.4s1,0.2,1.5,0.1
				c0.5,0,1,0,1.5,0s0.9-0.5,1.4-0.5c0.5-0.1,1-0.1,1.4-0.2c0.5-0.1,1-0.1,1.4-0.2c0.5-0.1,1,0,1.5-0.1s0.9-0.5,1.4-0.6s1,0,1.5-0.1
				c0.5,0,1,0,1.5-0.1c0.5,0,1-0.1,1.5-0.1s1-0.3,1.4-0.4c0.5,0,1-0.1,1.4-0.2c0.5,0,1,0,1.5-0.1c0.5,0,1,0.2,1.5,0.2s1-0.2,1.4-0.2
				c0.5,0,1,0.1,1.5,0.1s1-0.2,1.5-0.2s1,0.3,1.5,0.2c0.5,0,0.9-0.5,1.4-0.5s1-0.1,1.4-0.2c0.5,0,1,0.1,1.5,0.1s0.9-0.3,1.4-0.4
				c0.5,0,1-0.1,1.5-0.1s1,0.2,1.5,0.2s1-0.1,1.5-0.1s1-0.2,1.5-0.2s1,0.3,1.5,0.3s1-0.1,1.5-0.1s1,0.1,1.5,0.1s1-0.1,1.5-0.1
				s1,0.1,1.5,0.1s1,0.1,1.5,0.2c0.5,0,1-0.2,1.5-0.2s1,0.3,1.5,0.3s1-0.1,1.5-0.1s1,0,1.5,0.1c0.5,0,1-0.1,1.5-0.1s1,0,1.4,0
				c0.5,0,1,0.3,1.4,0.3c0.5,0,1,0.2,1.4,0.2c0.5,0,1-0.1,1.5,0c0.5,0,1,0.2,1.4,0.2c0.5,0,1,0.1,1.4,0.1c0.5,0,1,0,1.5,0.1
				c0.5,0,1-0.2,1.5-0.2s1,0.1,1.4,0.1c0.5,0,1,0.2,1.4,0.3c0.5,0.1,0.9,0.3,1.4,0.4s1,0.2,1.5,0.2c0.5,0.1,1-0.2,1.5-0.2
				c0.5,0.1,0.9,0.4,1.4,0.5s1-0.1,1.5,0s0.9,0.5,1.3,0.7c0.5,0.2,1,0.2,1.5,0.4c0.5,0.2,1,0.2,1.5,0.4c0.5,0.2,0.7,0.8,1.1,1
				c0.4,0.3,0.9,0.5,1.2,0.8c0.4,0.4,0.9,0.6,1.2,1c0.2,0.4,0.3,0.9,0.5,1.4c0.2,0.4,0.4,0.9,0.5,1.3c0.2,0.4,0.4,0.9,0.5,1.3
				c0.1,0.5,0,1,0.1,1.5s0.6,0.8,0.7,1.3c0.1,0.5,0.3,0.9,0.4,1.4c0.1,0.5-0.1,1,0,1.5s0.4,0.9,0.5,1.4s-0.2,1-0.1,1.5
				c0.1,0.5,0.1,0.9,0.1,1.4s0.5,0.9,0.5,1.4s-0.2,1-0.2,1.4c0,0.5-0.2,0.9-0.2,1.4s0.2,1,0.1,1.4c0,0.5-0.3,0.9-0.3,1.4
				s0.3,1,0.2,1.4c0,0.5-0.1,1-0.1,1.4c-0.1,0.5-0.2,0.9-0.3,1.4s-0.3,0.9-0.3,1.4c-0.1,0.5-0.3,0.9-0.3,1.4c-0.1,0.5,0.3,1,0.3,1.5
				s-0.3,0.9-0.3,1.4s-0.2,0.9-0.2,1.4s-0.2,0.9-0.3,1.4s0.2,1,0.1,1.5c-0.1,0.5-0.4,0.9-0.5,1.4s0,1-0.1,1.5s-0.4,0.9-0.5,1.3
				c-0.1,0.5-0.5,0.9-0.6,1.3c-0.1,0.5-0.3,0.9-0.4,1.4c-0.1,0.5,0,1-0.1,1.4c-0.1,0.5,0,1,0,1.4c-0.1,0.5-0.4,0.9-0.5,1.4
				s0,1-0.1,1.4c-0.1,0.5-0.2,0.9-0.3,1.4s-0.5,0.9-0.6,1.3c-0.1,0.5,0.1,1,0,1.5s0,1-0.1,1.4c-0.1,0.5-0.1,1-0.2,1.4
				c-0.1,0.5-0.5,0.9-0.6,1.3c-0.1,0.5,0,1-0.1,1.5s-0.4,0.9-0.6,1.3c-0.2,0.4-0.5,0.8-0.7,1.3c-0.2,0.4-0.1,1-0.2,1.4
				c-0.1,0.5-0.1,0.9-0.3,1.4c-0.1,0.5-0.4,0.9-0.5,1.4s-0.3,0.9-0.5,1.4c-0.1,0.5-0.5,0.8-0.7,1.3c-0.1,0.5,0,1-0.1,1.5
				s-0.3,0.9-0.4,1.4c-0.1,0.5-0.4,0.9-0.5,1.4s-0.2,0.9-0.3,1.4s0.2,1,0.1,1.5c-0.1,0.5-0.2,0.9-0.3,1.4s-0.2,0.9-0.3,1.4
				s-0.6,0.8-0.8,1.3s-0.2,0.9-0.4,1.4c-0.2,0.4-0.4,0.9-0.6,1.3c-0.2,0.4-0.1,1-0.3,1.4c-0.2,0.5-0.4,0.9-0.6,1.3
				c-0.1,0.5-0.1,1-0.2,1.4c-0.1,0.5-0.2,0.9-0.3,1.4s-0.2,0.9-0.3,1.4s-0.3,0.9-0.4,1.4c-0.1,0.5,0,1-0.2,1.4
				c-0.1,0.5-0.6,0.8-0.7,1.3c-0.1,0.5,0,1-0.1,1.4c-0.1,0.5-0.6,0.8-0.7,1.3c-0.1,0.5-0.2,0.9-0.4,1.4c-0.1,0.5-0.2,0.9-0.3,1.4
				s-0.1,1-0.2,1.4c-0.1,0.5-0.4,0.9-0.5,1.3c-0.1,0.5-0.1,1-0.2,1.4c-0.1,0.5-0.5,0.9-0.6,1.3c-0.1,0.5-0.4,0.9-0.5,1.3
				c-0.1,0.5-0.3,0.9-0.4,1.4c-0.1,0.5,0.1,1-0.1,1.5c-0.1,0.5-0.6,0.8-0.8,1.3c-0.1,0.5-0.3,0.9-0.4,1.4c-0.1,0.5-0.3,0.9-0.4,1.4
				c-0.1,0.5,0,1-0.2,1.4c-0.1,0.5-0.4,0.9-0.5,1.3c-0.1,0.5-0.1,1-0.3,1.4c-0.1,0.5-0.3,0.9-0.4,1.4c-0.1,0.5-0.2,0.9-0.3,1.4
				s-0.6,0.8-0.7,1.3c-0.1,0.5-0.2,0.9-0.3,1.4s-0.1,1-0.2,1.4c-0.1,0.5-0.1,1-0.2,1.4c-0.1,0.5-0.5,0.8-0.7,1.3
				c-0.1,0.5-0.3,0.9-0.4,1.4c-0.1,0.5-0.1,0.9-0.2,1.4c-0.1,0.5-0.1,1-0.2,1.4c-0.1,0.5-0.5,0.9-0.6,1.3c-0.1,0.5-0.1,1-0.2,1.4
				c-0.1,0.5-0.3,0.9-0.4,1.4c-0.1,0.5,0.1,1,0,1.5s0,1-0.1,1.4c-0.1,0.5-0.3,0.9-0.4,1.4c-0.1,0.5,0,1-0.1,1.5s-0.4,0.9-0.5,1.3
				c-0.1,0.5-0.1,1-0.2,1.4c-0.1,0.5-0.2,0.9-0.3,1.4s-0.1,0.9-0.2,1.4c-0.1,0.5-0.5,0.9-0.6,1.3c-0.1,0.5-0.2,0.9-0.3,1.4
				c-0.2,0.5-0.1,1-0.3,1.4s-0.3,0.9-0.5,1.3s-0.8,0.7-0.9,1.2c-0.2,0.5-0.1,1-0.2,1.5c-0.1,0.5-0.3,0.9-0.4,1.4
				c-0.1,0.5,0.2,1,0.1,1.5c0,0.5,0,1,0,1.4c0,0.5-0.2,0.9-0.3,1.4s-0.1,1-0.2,1.4c-0.1,0.5-0.1,1-0.3,1.4c-0.1,0.5-0.6,0.8-0.7,1.3
				c-0.1,0.5,0,1-0.1,1.5s-0.4,0.9-0.5,1.3c-0.1,0.5-0.2,0.9-0.3,1.4s-0.2,0.9-0.4,1.4c-0.1,0.5-0.5,0.9-0.6,1.3
				c-0.1,0.5-0.1,1-0.2,1.4c-0.1,0.5-0.3,0.9-0.4,1.4c-0.1,0.5-0.2,0.9-0.3,1.4s-0.2,0.9-0.3,1.4s0,0.9-0.1,1.4s-0.3,0.9-0.3,1.4
				c-0.1,0.5,0.3,1,0.3,1.5c-0.1,0.5-0.2,1-0.3,1.5c-0.4,0.1-1,0-1.5,0.1c-0.4,0.1-0.8,0.4-1.3,0.6c-0.4,0.1-0.9,0-1.4,0.1
				c-0.4,0.1-0.9,0.3-1.3,0.4c-0.4,0.1-0.9,0.4-1.4,0.4c-0.5,0.1-1,0-1.4,0c-0.5,0-1-0.1-1.4-0.1c-0.5,0-0.9,0.3-1.4,0.3
				s-1-0.1-1.4-0.1c-0.5,0-1,0-1.4,0.1c-0.5,0.1-0.9,0.3-1.4,0.4s-1-0.1-1.5,0s-0.9,0.2-1.4,0.3c-0.5,0.1-1,0-1.4,0.1
				c-0.5,0.1-0.9,0.2-1.4,0.3c-0.5,0.1-0.9,0.4-1.4,0.4s-1-0.1-1.4-0.1c-0.5,0-1-0.2-1.4-0.1c-0.5,0-0.9,0.5-1.4,0.6
				c-0.5,0-1-0.1-1.4,0c-0.5,0-1-0.1-1.4-0.1c-0.5,0-0.9,0.2-1.4,0.3c-0.5,0-1-0.2-1.4-0.2c-0.5,0-1,0-1.4,0.1
				c-0.5,0-0.9,0.1-1.4,0.2c-0.5,0-0.9,0.3-1.4,0.4s-0.9,0.2-1.4,0.2c-0.5,0.1-0.9,0.2-1.4,0.2c-0.5,0.1-1,0.1-1.4,0.1
				c-0.5,0.1-1-0.1-1.4-0.1c-0.5,0-0.9,0.3-1.4,0.4c-0.5,0-0.9,0.1-1.4,0.2c-0.5,0-1-0.1-1.4,0c-0.5,0-0.9,0.2-1.4,0.2
				s-1,0.1-1.4,0.1c-0.5,0-0.9,0.2-1.4,0.2s-1-0.3-1.5-0.3s-0.9,0.5-1.4,0.5s-1-0.2-1.5-0.2s-0.9,0.1-1.4,0.1s-1,0-1.4,0
				c-0.5,0-1,0.1-1.4,0.1c-0.5,0-0.9,0.3-1.4,0.3s-1,0-1.4,0c-0.5,0-1-0.3-1.4-0.3c-0.5,0-1,0.2-1.4,0.2c-0.5,0-1-0.1-1.4-0.2
				c-0.5-0.1-0.9-0.3-1.4-0.4s-0.9-0.2-1.4-0.3c-0.5-0.1-1-0.1-1.5-0.1s-1,0.2-1.4,0.2c-0.5,0-0.9,0.1-1.4,0.2s-1,0.1-1.4,0.2
				c-0.5,0.1-1-0.2-1.5-0.2s-0.9,0.4-1.4,0.4s-1-0.1-1.4-0.1c-0.5,0-1,0.1-1.4,0.1c-0.5,0-0.9-0.3-1.4-0.4c-0.5,0-1,0.3-1.5,0.3
				s-1-0.1-1.4-0.1c-0.5,0-0.9-0.5-1.4-0.5s-1,0.1-1.4,0.1c-0.5,0-1-0.1-1.4-0.1c-0.5-0.1-0.9-0.3-1.4-0.3c-0.5-0.1-1,0-1.4-0.1
				c-0.5-0.1-1,0-1.4-0.1c-0.5-0.1-1-0.1-1.4-0.2c-0.5-0.1-0.9-0.3-1.4-0.4s-0.9-0.4-1.4-0.5s-1,0-1.4-0.1c-0.5-0.1-0.9-0.3-1.4-0.4
				s-1,0.1-1.5,0.1c-0.5-0.1-0.9-0.6-1.3-0.7c-0.5-0.1-1,0.1-1.5,0s-0.9-0.5-1.3-0.7c-0.5-0.1-1,0-1.5-0.1s-0.9-0.3-1.4-0.5
				c-0.5-0.1-1-0.1-1.4-0.3c-0.5-0.2-0.9-0.4-1.3-0.6s-0.9-0.4-1.3-0.6s-0.9-0.3-1.4-0.5c-0.4-0.2-0.8-0.7-1.2-0.9
				c-0.4-0.2-0.9-0.3-1.3-0.5s-0.9-0.5-1.2-0.7c-0.4-0.3-0.8-0.5-1.2-0.9c-0.4-0.3-0.5-0.8-0.8-1.2c-0.3-0.4-0.6-0.7-0.9-1.1
				s-0.8-0.7-1-1.1s-0.2-1-0.3-1.4c-0.2-0.5-0.5-0.9-0.6-1.3c-0.1-0.5-0.3-0.9-0.4-1.4s0.1-1,0-1.5s-0.6-0.9-0.7-1.3
				c-0.1-0.5-0.2-0.9-0.3-1.4c-0.1-0.5,0.1-1,0-1.5s-0.2-1-0.3-1.4c-0.1-0.5-0.3-0.9-0.4-1.4s-0.2-1-0.3-1.4c-0.1-0.5,0-1-0.1-1.5
				s0-1-0.1-1.5s-0.1-1-0.2-1.4c-0.1-0.5-0.2-0.9-0.3-1.4c-0.1-0.5-0.3-0.9-0.4-1.4c0-0.5,0.2-1,0.2-1.5c-0.1-0.5,0-1-0.1-1.5
				s-0.2-1-0.3-1.4c-0.1-0.5-0.3-0.9-0.3-1.4c-0.1-0.5,0.1-1,0-1.5s-0.4-0.9-0.5-1.4s-0.1-1-0.2-1.4c-0.1-0.5,0-1,0-1.5
				c-0.1-0.5-0.1-1-0.1-1.4c-0.1-0.5-0.3-0.9-0.3-1.4c-0.1-0.5,0.2-1,0.2-1.5s-0.1-1-0.1-1.4c0-0.5-0.1-1-0.2-1.5s-0.2-1-0.2-1.4
				c-0.1-0.5-0.5-0.9-0.6-1.4s-0.1-1-0.2-1.5s-0.2-1-0.2-1.5s0-1,0-1.5s0.4-1,0.4-1.4c0-0.5-0.2-1-0.2-1.5s0.1-1,0.1-1.4
				c0-0.5,0.4-1,0.4-1.4c0-0.5-0.1-1-0.1-1.5s0.1-1,0.1-1.4c0-0.5,0.1-1,0.1-1.5s0.2-1,0.2-1.4c0-0.5-0.1-1-0.1-1.5s-0.2-1-0.2-1.5
				s0.4-0.9,0.4-1.4s0.1-1,0.1-1.4c0-0.5-0.2-1-0.1-1.5c0-0.5,0.4-0.9,0.4-1.4s0.2-1,0.2-1.5s-0.2-1-0.2-1.5s0.1-1,0.1-1.5
				s0-1,0-1.5s0.2-0.9,0.3-1.4c0.1-0.5,0.2-1,0.2-1.4c0.1-0.5-0.2-1-0.1-1.5s0.3-0.9,0.4-1.4s0-1,0.1-1.5s0.3-0.9,0.4-1.4
				s0.4-0.9,0.5-1.4s-0.1-1,0.1-1.5c0.1-0.5,0.2-1,0.3-1.4c0.1-0.5,0.3-0.9,0.5-1.4c0.1-0.5,0.2-0.9,0.3-1.4
				c0.1-0.5,0.5-0.9,0.6-1.4s0.3-0.9,0.4-1.4s0-1,0.1-1.5s0.3-0.9,0.4-1.4s0.3-0.9,0.4-1.4s0.2-1,0.3-1.4c0.1-0.5,0.2-0.9,0.4-1.4
				c0.2-0.5,0.2-1,0.3-1.4c0.2-0.5,0.7-0.8,0.9-1.2c0.2-0.5,0.2-1,0.3-1.4c0.1-0.5,0.4-0.9,0.5-1.4s0.3-0.9,0.4-1.4s0-1,0.1-1.5
				s0.1-1,0.2-1.4c0.1-0.5,0.2-1,0.4-1.4c0.1-0.5,0.5-0.9,0.6-1.3c0.1-0.5,0.2-1,0.3-1.4c0.1-0.5,0.3-0.9,0.4-1.4s0.2-1,0.3-1.4
				c0.1-0.5,0.6-0.8,0.7-1.3s-0.2-1.1-0.1-1.5c0.1-0.5,0.3-0.9,0.4-1.4s0.5-0.9,0.6-1.4s0.2-1,0.3-1.4c0.1-0.5-0.2-1-0.1-1.5
				s0.3-0.9,0.4-1.4s0.5-0.9,0.6-1.4s0.1-1,0.2-1.5s0-1,0.1-1.5s0.3-0.9,0.3-1.4s0.3-1,0.3-1.5s-0.2-1-0.2-1.5s0.1-1,0.1-1.5
				s-0.1-1-0.1-1.5s0-1,0-1.5s-0.4-0.9-0.4-1.4c-0.1-0.5,0-1-0.1-1.5s0-1-0.1-1.5s-0.5-0.9-0.6-1.4s0.3-1,0.2-1.5
				c-0.1-0.5-0.4-0.9-0.5-1.4s0-1-0.2-1.5c-0.1-0.5-0.5-0.9-0.7-1.3c-0.1-0.5-0.4-0.9-0.5-1.4C21.5,35.5,21.5,35,21.4,34.5z"/>
		</g>
		<g>
			<path class="st1" d="M80.1,219c-0.2,0.6-0.4,1-0.6,1.3c-0.4,0.6-0.7,0.3-0.8-0.5c0-0.3,0.3-0.8,0.3-1.4c0-0.4-0.3-0.9-0.3-1.4
				c0-0.4,0.2-0.9,0.2-1.4c0-0.4,0.1-0.9,0.1-1.4c0-0.4-0.1-0.9-0.1-1.4c0-0.4,0.2-0.9,0.2-1.4c0-0.4,0-0.9,0-1.4
				c0-0.4,0.2-0.9,0.2-1.3c0.1-0.4,0.1-0.9,0.1-1.4c0.1-0.4,0.2-0.9,0.3-1.3s-0.1-0.9,0-1.4s0.2-0.9,0.3-1.3c0.1-0.5,0-0.9,0.1-1.4
				s0.3-0.9,0.3-1.3c0.1-0.4,0.1-0.9,0.2-1.4c0.1-0.4,0.1-0.9,0.2-1.4c0.1-0.4,0.4-0.8,0.5-1.3c0.1-0.4,0.1-0.9,0.2-1.4
				c0.1-0.5-0.1-0.9,0-1.4s0.1-0.9,0.2-1.4c0.1-0.5,0.3-0.9,0.4-1.3c0.1-0.5,0.6-0.8,0.7-1.3c0.1-0.5,0.1-0.9,0.2-1.4
				c0.1-0.5-0.1-1,0-1.4c0.1-0.5,0.4-0.9,0.5-1.3c0.1-0.5,0.3-0.9,0.3-1.3c0.1-0.5,0.2-0.9,0.3-1.3c0.1-0.6,0.1-1.1,0.2-1.4
				c0.2-0.4,0.5-0.9,0.9-1.2c0.4-0.3,0.9-0.3,1.4-0.4c0.4-0.2,0.9-0.1,1.4-0.2c0.4-0.1,0.9-0.4,1.4-0.5c0.5,0,0.9,0.2,1.4,0.2
				s0.9-0.3,1.4-0.3s0.9,0.3,1.4,0.3s0.9,0.1,1.4,0.1c0.5,0.1,1-0.2,1.5-0.1s1,0.2,1.4,0.4c0.5,0.2,0.8,0.5,1.2,0.8
				c0.4,0.2,0.9,0.4,1.2,0.7c0.4,0.3,0.5,0.8,0.8,1.2c0.3,0.4,0.5,0.8,0.7,1.2c0.2,0.4,0.6,0.8,0.7,1.2c0.1,0.4,0.1,0.9,0.2,1.4
				c0.1,0.4,0.3,0.9,0.4,1.4c0.1,0.4,0.2,0.9,0.3,1.4s0.3,0.9,0.4,1.4c0.1,0.5,0.1,1,0.2,1.4c0.1,0.5,0.3,0.9,0.4,1.4
				c0.1,0.5,0.4,0.9,0.5,1.4s0,1,0.1,1.5s0,1,0.1,1.5s0.6,0.9,0.7,1.3c0.1,0.5,0.2,0.9,0.3,1.4s0.3,0.9,0.4,1.4c0.1,0.5,0,1,0.2,1.5
				c0.1,0.5,0.3,0.9,0.4,1.4c0.1,0.5,0.4,0.9,0.5,1.4s-0.1,1-0.1,1.5s0.3,1,0.3,1.5s-0.4,1-0.4,1.5s0.4,1,0.4,1.4
				c0,0.5,0.1,1,0.2,1.4c0.1,0.5-0.1,1-0.1,1.5c0.1,0.5,0.1,1,0.2,1.5c0.1,0.5,0.5,0.9,0.5,1.4c0.1,0.5,0.1,1,0.1,1.5
				c0.1,0.5,0.3,1.1,0.3,1.6c-0.4,0-0.9-0.3-1.4-0.6c-0.4-0.2-0.9-0.2-1.3-0.5c-0.3-0.3-0.4-0.9-0.7-1.3c-0.3-0.3-0.8-0.5-1.1-0.9
				c-0.3-0.3-0.8-0.5-1.1-0.8s-0.2-1-0.6-1.3c-0.3-0.3-0.8-0.4-1.1-0.7c-0.3-0.3-0.7-0.5-1-0.9c-0.3-0.3-0.5-0.8-0.8-1.1
				c-0.3-0.3-0.6-0.6-0.9-1c-0.3-0.4-0.6-0.6-0.9-1c-0.2-0.4-0.4-0.8-0.6-1.2c-0.2-0.4-0.5-0.8-0.7-1.1c-0.2-0.4-0.4-0.8-0.7-1.1
				c-0.2-0.4-0.6-0.7-0.8-1.1s-0.4-0.8-0.6-1.2c-0.2-0.4-0.2-0.9-0.4-1.3s-0.6-0.7-0.8-1.1s-0.5-0.8-0.7-1.1c-0.3-0.5-0.3-1-0.5-1.2
				c-0.3-0.3-0.7-0.1-1.4,0.4c-0.4,0.2-1,0.3-1.4,0.8c-0.3,0.3-0.5,0.9-0.9,1.3c-0.3,0.4-0.9,0.6-1.2,1.1c-0.3,0.4-0.5,0.9-0.8,1.4
				c-0.3,0.4-0.2,1-0.5,1.4s-0.7,0.7-0.9,1.2c-0.2,0.4-0.6,0.8-0.8,1.2c-0.2,0.4-0.2,1-0.4,1.5c-0.2,0.4-0.5,0.9-0.8,1.3
				s-0.5,0.8-0.8,1.3c-0.2,0.5-0.6,0.8-0.8,1.3s-0.4,1-0.5,1.4c-0.2,0.5-0.3,1-0.5,1.4C80.5,218.3,80.2,218.7,80.1,219z"/>
		</g>
		<g>
			<path class="st2" d="M97.4,154.4c0.5,0.1,1,0,1.4,0.1c0.5,0.1,0.9,0.3,1.3,0.4c0.4,0.2,0.9,0.4,1.3,0.6c0.4,0.2,0.9,0.3,1.3,0.5
				c0.4,0.2,0.8,0.5,1.2,0.7s0.6,0.8,1,1c0.4,0.3,0.9,0.3,1.2,0.6c0.4,0.3,0.8,0.5,1.1,0.8s0.7,0.6,1,1c0.3,0.3,0.7,0.6,0.9,1
				c0.3,0.4,0.3,0.9,0.5,1.3s0.7,0.6,0.9,1s0.4,0.9,0.5,1.3s0.2,0.9,0.3,1.3s0.3,0.9,0.4,1.3c0.1,0.4,0.3,0.9,0.3,1.3
				c0.1,0.5-0.1,0.9-0.1,1.4s0,0.9,0,1.3c0,0.5-0.2,0.9-0.3,1.3s0,0.9-0.1,1.3s-0.4,0.8-0.5,1.2c-0.2,0.4-0.1,0.9-0.3,1.3
				s-0.5,0.7-0.7,1.1s-0.5,0.7-0.8,1.1c-0.3,0.3-0.5,0.7-0.8,1.1c-0.3,0.3-0.8,0.5-1.1,0.8s-0.5,0.8-0.8,1.1c-0.3,0.3-0.6,0.7-0.9,1
				c-0.3,0.3-0.9,0.3-1.2,0.6c-0.4,0.2-0.6,0.8-1,1s-0.9,0.2-1.3,0.4c-0.4,0.2-0.9,0.3-1.3,0.4c-0.4,0.1-0.8,0.5-1.2,0.6
				s-0.9,0.1-1.4,0.2c-0.4,0.1-0.9,0.1-1.4,0.2c-0.4,0-0.9-0.3-1.3-0.4c-0.4-0.1-0.9,0.2-1.4,0.1c-0.4-0.1-0.9-0.2-1.3-0.3
				c-0.4-0.1-0.9-0.3-1.3-0.4c-0.4-0.1-0.8-0.4-1.3-0.5c-0.4-0.1-0.8-0.6-1.2-0.7s-0.9-0.2-1.3-0.3c-0.4-0.1-0.9-0.2-1.3-0.3
				c-0.4-0.2-0.8-0.4-1.2-0.5c-0.4-0.2-0.9-0.3-1.2-0.6c-0.4-0.3-0.6-0.7-0.9-1c-0.3-0.3-0.6-0.7-0.9-1.1c-0.3-0.4-0.7-0.6-1-1
				s-0.3-0.9-0.5-1.3s-0.7-0.6-1-1c-0.2-0.4-0.5-0.7-0.8-1.1c-0.2-0.4-0.1-1-0.4-1.4c-0.2-0.4-0.8-0.6-1-1s-0.1-0.9-0.3-1.4
				c-0.2-0.4-0.4-0.8-0.5-1.3s-0.2-0.9-0.3-1.3c0-0.5-0.2-0.9-0.1-1.3c0-0.5,0-0.9,0.1-1.4s0.3-0.9,0.5-1.3c0.2-0.5,0.5-0.8,0.7-1.1
				c0.2-0.4,0.3-1,0.6-1.5c0.3-0.4,1-0.5,1.3-1c0.3-0.4,0.5-0.9,0.8-1.3s0.8-0.6,1.2-1c0.4-0.3,0.8-0.6,1.2-0.9s0.7-0.7,1.2-1
				c0.4-0.2,0.8-0.7,1.3-0.9s1-0.3,1.5-0.5s1-0.3,1.5-0.5s1-0.3,1.5-0.4c0.5-0.1,1-0.2,1.5-0.3s1-0.3,1.5-0.4c0.5-0.1,1-0.3,1.5-0.4
				c0.5-0.1,1,0,1.6,0C96.4,154.2,96.9,154.3,97.4,154.4z"/>
		</g>
		<g>
			<path d="M7.7,147.2c0,0.5-0.2,1-0.3,1.5c0,0.5-0.2,1-0.3,1.5c0,0.5,0.2,1,0.1,1.5c0,0.5-0.4,1-0.4,1.5s0.2,1,0.2,1.5
				s0.2,1,0.2,1.5s-0.2,1-0.2,1.5c0,0.5-0.1,1-0.1,1.5s0,1,0,1.5s0.3,1,0.4,1.5s0,1,0.1,1.5s0.4,1,0.5,1.5s0,1,0.1,1.5
				s0.3,1,0.4,1.5c0.1,0.5,0.1,1,0.2,1.5c0.1,0.5,0.4,1,0.4,1.5c0.1,0.5-0.1,1,0,1.5s0.3,1,0.4,1.5c0.1,0.5,0,1,0.1,1.5
				s0.2,1,0.3,1.5s0.1,1,0.2,1.5s0.5,0.9,0.6,1.4s0.3,1,0.4,1.5s0.2,1,0.3,1.5c0.1,0.5,0.1,1,0.2,1.5s0.2,0.9,0.3,1.3
				c0.1,0.4,0.4,0.9,0.6,1.2c0.2,0.4,0.8,0.4,1.2,0.6c0.4,0.2,0.8,0.7,1.2,0.9c0.5,0.2,1,0.1,1.5,0.3c0.5,0.2,0.9,0.5,1.4,0.7
				s0.9,0.6,1.3,0.8c0.5,0.2,1,0.3,1.5,0.5s1.1,0,1.5,0.2c0.5,0.2,0.9,0.4,1.4,0.5c0.5,0.2,1,0.3,1.4,0.4c0.5,0.1,0.9,0.4,1.4,0.5
				s1,0.2,1.5,0.3c0.5,0.1,0.9,0.5,1.4,0.5c0.5,0.1,1,0,1.5,0.1c0.5,0,1,0.2,1.5,0.2s1-0.2,1.5-0.2s1,0.2,1.5,0.3
				c0.5,0.1,0.9,0.3,1.4,0.4s1-0.2,1.4-0.2c0.5,0,0.9,0.1,1.4,0.2c0.5,0,1-0.1,1.4-0.1c0.5,0,0.9,0.4,1.4,0.4s0.9-0.1,1.4,0
				c0.5,0,0.9,0,1.4,0.1c0.5,0,0.9,0.2,1.4,0.2s0.9,0.1,1.4,0.2c0.5,0,1-0.3,1.4-0.3c0.5,0,0.9,0.4,1.4,0.4s1-0.2,1.4-0.2
				c0.5,0,0.9,0.2,1.4,0.2c0.5,0.1,0.9,0.2,1.4,0.3c0.5,0.1,0.9,0.1,1.4,0.2s0.9,0.2,1.4,0.3c0.5,0.1,0.9,0.1,1.4,0.2
				c0.3,0.1,0.6,0,0.9,0c0.4,0.1,0.7,0,0.7,0.5s-0.2,0.8-0.6,0.9s-1-0.1-1.4,0.1c-0.4,0.1-0.8,0.5-1.2,0.6c-0.4,0.1-0.8,0.5-1.3,0.6
				s-0.9,0-1.4,0s-0.9,0-1.4,0s-1.1-0.1-1.6-0.2s-1-0.5-1.5-0.6s-1.1,0.2-1.6,0.1s-1-0.5-1.5-0.5s-1.1,0.3-1.6,0.2
				c-0.5,0-1.1-0.2-1.6-0.3c-0.5,0-1-0.3-1.6-0.3c-0.5,0-1.1,0-1.6,0c-0.5-0.1-1.1-0.1-1.6-0.2s-1.1,0-1.6-0.1s-1-0.4-1.5-0.5
				s-1-0.5-1.5-0.6c-0.4-0.1-0.9,0-1.3-0.1s-0.8-0.3-1.3-0.4c-0.4-0.1-0.9,0.2-1.4,0.1c-0.4-0.1-0.8-0.3-1.3-0.4
				c-0.4-0.1-0.8-0.3-1.3-0.4c-0.4-0.1-0.9-0.2-1.3-0.3c-0.4-0.1-0.9,0-1.3-0.1s-0.9-0.1-1.3-0.2s-0.8-0.4-1.2-0.5
				c-0.4-0.1-0.7-0.6-1.1-0.8c-0.4-0.1-0.9,0-1.3-0.2s-0.7-0.6-1.1-0.7c-0.4-0.2-0.9-0.2-1.3-0.3c-0.4-0.1-0.9,0.1-1.4-0.1
				c-0.4-0.1-0.8-0.4-1.2-0.6c-0.4-0.1-0.9-0.2-1.3-0.3c-0.4-0.1-0.9-0.2-1.3-0.4c-0.4-0.2-0.6-0.7-1-1c-0.4-0.2-0.8-0.4-1.1-0.7
				c-0.3-0.3-0.6-0.6-0.8-1s-0.4-0.8-0.6-1.2c-0.1-0.4-0.4-0.8-0.5-1.2c-0.1-0.4-0.1-0.9-0.3-1.3c-0.1-0.4-0.2-0.9-0.3-1.3
				s-0.5-0.8-0.6-1.2c-0.1-0.4,0.1-1-0.1-1.4c-0.1-0.4-0.3-0.8-0.4-1.3c-0.1-0.4-0.1-0.9-0.2-1.3c-0.1-0.4-0.6-0.8-0.7-1.2
				C6,175.5,6,175,5.9,174.6c-0.1-0.4,0-0.9-0.1-1.4c-0.1-0.4-0.1-0.9-0.2-1.3c-0.1-0.4-0.4-0.8-0.5-1.3c-0.1-0.4-0.2-0.9-0.3-1.3
				s-0.1-0.9-0.2-1.3c-0.1-0.4-0.1-0.9-0.2-1.4c-0.1-0.4-0.1-0.9-0.2-1.3c-0.1-0.4-0.3-0.9-0.4-1.3c-0.1-0.4,0.2-0.9,0.2-1.4
				c-0.1-0.5-0.1-1-0.1-1.5s-0.1-1-0.1-1.5s-0.1-1-0.1-1.6c0-0.5,0-1,0-1.5s0.4-1,0.3-1.5c0-0.5-0.4-1-0.4-1.5s0.3-1,0.3-1.5
				s-0.3-1-0.3-1.5s0.1-1,0.1-1.5s0.1-1,0.1-1.5s0.1-1,0.1-1.5s-0.1-1-0.1-1.5s-0.4-1-0.4-1.5s0-1,0-1.5s0.2-1,0.2-1.5
				s0.2-0.9,0.3-1.4c0-0.5-0.1-0.9-0.1-1.4c0.1-0.5,0.1-0.9,0.2-1.4c0.1-0.5,0.1-0.9,0.2-1.4c0.1-0.5,0-0.9,0-1.4
				c0.1-0.5,0.4-0.9,0.4-1.4c0.1-0.5-0.1-1-0.1-1.4c0.1-0.5,0.2-0.9,0.2-1.4c0.1-0.5,0.1-0.9,0.1-1.4c0.1-0.5,0.5-0.9,0.5-1.3
				c0.1-0.5-0.1-1,0-1.4c0.1-0.5,0.4-0.9,0.4-1.4s-0.2-1-0.2-1.4c0-0.5,0.2-0.9,0.2-1.4c0.1-0.5-0.1-1,0-1.4
				c0.1-0.5,0.6-0.8,0.7-1.3c0.1-0.5,0-1,0.2-1.4c0.1-0.4,0.2-0.9,0.3-1.4c0.1-0.4,0.3-0.9,0.5-1.3c0.1-0.4,0.4-0.9,0.5-1.3
				c0.1-0.5,0.4-0.9,0.5-1.4s0-1,0.1-1.5s0.1-1,0.2-1.4c0.1-0.5,0.4-0.9,0.5-1.4s0.2-0.9,0.4-1.4c0.1-0.5,0.2-1,0.3-1.4
				c0.1-0.5,0.4-0.9,0.5-1.4c0.1-0.5,0.2-0.9,0.3-1.4c0.1-0.5,0.2-0.9,0.4-1.4c0.1-0.5,0.1-1,0.3-1.4c0.2-0.5,0.2-1,0.5-1.4
				c0.2-0.4,0.4-0.9,0.7-1.3c0.2-0.4,0.7-0.7,0.9-1.2c0.3-0.4,0.3-1,0.5-1.4s0.4-0.8,0.6-1.3s0.4-0.9,0.5-1.3
				c0.1-0.5,0.7-0.8,0.8-1.3c0.1-0.5,0.1-1,0.3-1.4c0.1-0.5-0.1-1,0.1-1.5s0.7-0.8,0.9-1.2c0.2-0.4,0.1-1,0.3-1.5
				c0.2-0.4,0.5-0.8,0.8-1.2c0.2-0.4,0.5-0.8,0.7-1.3s0.7-0.7,0.9-1.2c0.2-0.4,0.4-0.9,0.6-1.3c0.2-0.4,0.1-1.1,0.3-1.5
				c0.2-0.4,0.8-0.7,1-1.1c0.2-0.4,0.3-0.9,0.5-1.4c0.2-0.4,0.4-0.9,0.6-1.3c0.2-0.4,0.6-0.8,0.8-1.2c0.2-0.4,0.5-0.8,0.7-1.2
				s0.3-0.9,0.6-1.3c0.2-0.4,0.7-0.7,0.9-1.1c0.2-0.4,0.4-0.9,0.6-1.3c0.2-0.4,0.4-0.9,0.6-1.3c0.2-0.4,0.3-0.9,0.6-1.3
				c0.3-0.4,0.8-0.6,1.1-1c0.3-0.4,0.2-1,0.5-1.4s0.8-0.6,1-1s0.6-0.8,0.8-1.2c0.2-0.4,0.3-0.9,0.6-1.3c0.2-0.4,0.2-1,0.4-1.4
				c0.2-0.4,0.7-0.7,0.9-1.1c0.2-0.4,0.4-0.9,0.6-1.3c0.2-0.4,0.6-0.8,0.8-1.2c0.2-0.4,0.5-0.8,0.7-1.3c0.2-0.4,0.2-0.9,0.4-1.4
				c0.2-0.4,0.2-0.9,0.3-1.4c0.1-0.4,0.4-0.8,0.6-1.3c0.1-0.5,0.3-0.9,0.4-1.4c0.1-0.4,0.8-0.8,0.8-1.2c0-0.5-0.4-1-0.6-1.3
				c-0.3-0.4-0.6-0.4-1.2-0.3c-0.4,0.1-0.9,0-1.3,0.1s-0.8,0.3-1.3,0.4c-0.4,0.1-0.9,0.1-1.3,0.2c-0.4,0.1-0.8,0.3-1.3,0.4
				c-0.4,0.1-0.9,0.2-1.3,0.3s-0.9,0-1.3,0s-0.9,0.1-1.3,0.1s-0.9,0-1.3,0s-0.9,0-1.3,0s-0.9,0.1-1.3,0.1c-0.5,0.1-0.9,0.4-1.4,0.5
				s-1,0-1.4,0.1c-0.5,0.1-0.9,0.3-1.4,0.4c-0.5,0.1-0.9,0.5-1.3,0.6c-0.5,0.1-1-0.3-1.5-0.2s-0.9,0.3-1.3,0.1S14,46.4,13.9,46
				c-0.2-0.4-0.5-0.8-0.3-1.3c0.2-0.4,0.5-0.8,0.7-1.3c0.2-0.4,0.4-0.9,0.6-1.3c0.2-0.4,0.3-0.9,0.5-1.3c0.2-0.4,0.3-0.9,0.5-1.3
				c0.2-0.4,0.7-0.7,0.9-1.2c0.2-0.4,0.1-1,0.3-1.4c0.2-0.4,0.8-0.7,1-1.1c0.2-0.4,0.5-0.8,0.7-1.2c0.3-0.4,0.4-0.9,0.7-1.3
				c0.3-0.4,0.7-0.7,0.9-1.1c0.3-0.4,0.4-0.9,0.7-1.3c0.3-0.4,0.5-0.8,0.8-1.2c0.3-0.4,0.9-0.5,1.1-0.8c0.3-0.4,0.1-1,0.4-1.4
				s0.7-0.6,1-1c0.3-0.3,0.7-0.6,1-0.9s0.7-0.6,1-0.9s0.7-0.5,1.1-0.8s0.6-0.7,0.9-1c0.4-0.3,0.8-0.5,1.1-0.7
				c0.4-0.2,0.8-0.5,1.1-0.7c0.4-0.2,0.7-0.6,1.1-0.8c0.4-0.2,0.8-0.4,1.2-0.6c0.4-0.2,0.8-0.3,1.2-0.5c0.4-0.2,0.8-0.5,1.2-0.6
				c0.4-0.1,1,0.1,1.4-0.1c0.4-0.1,0.8-0.3,1.3-0.5s0.8-0.6,1.3-0.8c0.5-0.2,0.9-0.3,1.4-0.5s1-0.1,1.5-0.3c0.5-0.2,0.8-0.5,1.3-0.7
				s1-0.3,1.4-0.4c0.5-0.1,0.9-0.3,1.4-0.4s1-0.3,1.4-0.3c0.5-0.1,1,0.1,1.5,0s0.9-0.4,1.4-0.5s1.1,0.2,1.5,0.1
				c0.5-0.1,0.9-0.5,1.4-0.7s1-0.1,1.5-0.3c0.5-0.2,0.9-0.4,1.4-0.6s0.8-0.8,1.2-0.9c0.5-0.2,1-0.2,1.5-0.3c0.5-0.1,1,0.2,1.5,0.1
				s0.9-0.5,1.4-0.5s1,0.3,1.5,0.2c0.5,0,1-0.3,1.4-0.4c0.5-0.1,1-0.2,1.4-0.3c0.5-0.1,1-0.1,1.5-0.2s1-0.2,1.4-0.3
				c0.5-0.1,1-0.2,1.5-0.3c0.5-0.1,1-0.1,1.5-0.2s0.9-0.3,1.4-0.4c0.4-0.1,0.9-0.2,1.3-0.3c0.4-0.1,0.9-0.1,1.3-0.2
				c0.4-0.1,0.9,0,1.3-0.1c0.4-0.1,0.9-0.2,1.3-0.3c0.4-0.1,0.9,0.1,1.3,0c0.4-0.1,0.9-0.1,1.3-0.1c0.4,0,0.9-0.3,1.3-0.3
				c0.4,0,0.9,0.1,1.3,0.1c0.4,0,0.9-0.1,1.3-0.1c0.4,0,0.9,0.2,1.3,0.2c0.4,0,0.9-0.2,1.3-0.3c0.4-0.1,0.8-0.5,1.2-0.6
				s0.9,0.1,1.4,0c0.4-0.1,0.9-0.1,1.3-0.2c0.4-0.1,0.9-0.1,1.3-0.1c0.4,0,0.9-0.1,1.3-0.2c0.4,0,0.9-0.4,1.3-0.4
				c0.4,0,0.9,0.2,1.3,0.2c0.4,0,0.9,0,1.3,0c0.4,0,0.9-0.1,1.3-0.1c0.5,0,1.1,0.1,1.6,0.1s1.1,0,1.6,0s1.1-0.2,1.6-0.2
				s1.1,0,1.6-0.1c0.5,0,1-0.2,1.5-0.2s1,0.1,1.5,0.1s1-0.1,1.5-0.1s1,0.4,1.4,0.4c0.5,0,1,0.1,1.5,0.1s1,0,1.4,0.1
				c0.5,0,1,0.1,1.4,0.2c0.5,0.1,1,0.2,1.4,0.2c0.5,0.1,1-0.3,1.5-0.3s0.9,0.1,1.4,0.1s1.1,0.2,1.6,0.2s1.1-0.2,1.6-0.3
				c0.5-0.1,1.1-0.1,1.6-0.2c0.5,0,1.1,0,1.6,0.1c0.4,0,0.9,0,1.3,0.1c0.4,0.1,0.8,0.4,1.2,0.6c0.4,0.1,0.9,0.2,1.3,0.3
				c0.4,0.1,0.8,0.3,1.3,0.3c0.4,0.1,0.9-0.2,1.3-0.1c0.5,0,1.1,0.5,1.6,0.5s1.1-0.4,1.6-0.5c0.5,0,1.1-0.1,1.6-0.2
				c0.5,0,1.1,0.2,1.6,0.3c0.4,0,0.8,0.3,1.3,0.3c0.4,0,0.9,0.1,1.3,0.2c0.4,0,0.9-0.2,1.3-0.2c0.4,0.1,0.8,0.5,1.2,0.5
				c0.5,0.1,1.1,0.1,1.1,0.7s-0.6,1.1-1,1.2s-0.9-0.1-1.3,0c-0.4,0-0.9,0.2-1.3,0.2c-0.4,0-0.9,0.1-1.3,0.1
				c-0.4-0.1-0.8-0.6-1.2-0.6c-0.5-0.1-1,0-1.4,0c-0.5,0-1,0.1-1.4,0c-0.5,0-0.9-0.3-1.4-0.3s-1,0.2-1.4,0.2c-0.5,0-0.9-0.2-1.4-0.2
				s-1,0.2-1.4,0.2c-0.5-0.1-0.9-0.4-1.4-0.4c-0.5-0.1-1-0.1-1.4-0.1c-0.5-0.1-1,0.2-1.4,0.1c-0.5,0-0.9-0.5-1.4-0.5s-1,0.2-1.4,0.2
				c-0.5,0-1,0.1-1.4,0.1c-0.5,0-1,0.1-1.4,0.1c-0.5,0-0.9,0-1.4,0s-0.9-0.2-1.4-0.2s-1-0.2-1.4-0.2c-0.5,0-0.9,0.2-1.4,0.2
				s-0.9,0.3-1.4,0.3s-1-0.2-1.4-0.1c-0.5,0-0.9,0.2-1.4,0.2c-0.4,0-0.9-0.3-1.3-0.4c-0.4,0-0.9,0.2-1.3,0.2c-0.4,0-0.9,0.1-1.3,0.1
				c-0.4,0-0.9-0.1-1.3-0.1c-0.4,0-0.9,0-1.3,0c-0.4,0-0.9-0.2-1.3-0.2c-0.4,0-0.9,0.4-1.3,0.4c-0.4,0-0.9-0.4-1.3-0.4
				c-0.4,0-0.9,0.1-1.3,0.1c-0.4,0-0.9,0.2-1.3,0.2c-0.4,0-0.9,0.1-1.3,0.1c-0.4,0-0.9-0.1-1.3-0.1c-0.4,0-0.9,0.3-1.3,0.3
				c-0.4,0-0.9-0.4-1.3-0.4c-0.4,0-0.9,0-1.3,0.1c-0.4,0-0.9,0.4-1.3,0.4c-0.4,0-0.9-0.2-1.3-0.2c-0.4,0-0.9,0.1-1.3,0.2
				c-0.4,0-0.9,0-1.3,0c-0.4,0-0.8,0.5-1.3,0.5s-0.9,0.1-1.4,0.2s-1-0.3-1.5-0.2c-0.5,0.1-0.8,0.7-1.3,0.8c-0.5,0.1-0.9,0.1-1.4,0.2
				s-1,0.1-1.4,0.2c-0.5,0.1-1,0-1.4,0c-0.5,0-0.9,0.1-1.4,0.1s-1-0.2-1.4-0.2c-0.5,0-0.9,0.3-1.4,0.4c-0.5,0-1,0-1.4,0.1
				c-0.5,0.1-0.9,0.1-1.4,0.1c-0.5,0.1-0.9,0.3-1.4,0.4s-0.9,0.3-1.4,0.4s-1,0-1.4,0.1c-0.5,0.1-1,0-1.4,0.1
				c-0.5,0.1-0.9,0.4-1.4,0.5s-0.9,0.1-1.4,0.2s-0.9,0.2-1.4,0.3c-0.5,0.1-0.9,0.2-1.4,0.3s-1,0.1-1.4,0.2c-0.5,0.1-0.9,0.3-1.4,0.4
				s-0.9,0.2-1.4,0.3c-0.5,0.1-0.9,0.5-1.3,0.6c-0.5,0.1-0.9,0.1-1.4,0.3c-0.5,0.1-0.9,0.1-1.4,0.3c-0.4,0.1-0.9,0.1-1.4,0.2
				c-0.4,0.1-0.8,0.5-1.3,0.6c-0.4,0.1-0.9,0-1.4,0.2c-0.4,0.1-0.9,0.3-1.3,0.4s-0.9,0.2-1.3,0.3c-0.4,0.1-0.8,0.4-1.3,0.5
				c-0.4,0.1-0.9,0.1-1.4,0.3c-0.4,0.2-0.9,0.3-1.3,0.5s-0.8,0.5-1.2,0.7c-0.4,0.2-0.9,0.2-1.3,0.4c-0.4,0.2-0.8,0.5-1.1,0.7
				c-0.4,0.2-0.8,0.4-1.2,0.6c-0.4,0.2-0.8,0.4-1.2,0.6c-0.4,0.2-0.8,0.5-1.1,0.7c-0.4,0.3-0.5,0.8-0.9,1c-0.4,0.3-0.7,0.5-1.1,0.8
				c-0.3,0.3-0.9,0.3-1.2,0.6c-0.3,0.3-0.6,0.6-0.9,1c-0.3,0.3-0.6,0.7-0.9,1s-0.5,0.7-0.8,1.1c-0.3,0.3-0.6,0.6-0.9,0.9
				c-0.3,0.3-0.7,0.6-1,0.9c-0.3,0.3-0.5,0.8-0.8,1.1s-0.5,0.7-0.8,1.1c-0.3,0.4-0.6,0.6-0.9,1s-0.4,0.9-0.7,1.2
				c-0.3,0.4-0.7,0.6-1,1s-0.5,0.8-0.8,1.1c-0.3,0.4-0.4,0.9-0.7,1.2c-0.3,0.4-0.7,0.6-1,1s-0.4,0.8-0.6,1.2s-0.7,0.7-0.9,1.1
				c-0.2,0.5,0.1,1.1,0.5,1.7c0.4,0.5,0.9,0.6,1.3,0.5c0.5-0.1,0.8-0.6,1.3-0.7c0.4-0.1,0.9,0.1,1.4,0c0.4-0.1,0.9-0.3,1.3-0.4
				c0.4-0.1,0.9-0.3,1.3-0.4c0.4-0.1,1,0.2,1.4,0.1c0.5-0.1,0.8-0.5,1.3-0.6c0.4-0.1,0.9-0.2,1.3-0.3s0.9-0.2,1.3-0.3s0.9,0,1.4-0.1
				c0.4-0.1,0.9,0,1.4-0.1s0.9-0.1,1.4-0.1s0.9-0.4,1.4-0.4s0.9,0.2,1.4,0.2s0.9-0.1,1.4-0.1s0.9-0.1,1.4-0.1
				c0.5-0.1,0.9-0.1,1.4-0.2c0.5-0.1,0.9-0.1,1.4-0.1c0.5-0.1,0.9-0.6,1.3-0.7c0.5-0.1,0.9-0.1,1.4-0.1c0.5-0.1,0.9,0,1.4-0.1
				s0.9-0.1,1.4-0.1s0.9-0.3,1.4-0.3c0.5-0.1,1,0.1,1.4,0c0.5-0.1,1,0.2,1.4,0.1c0.5-0.1,0.9-0.2,1.4-0.2c0.5-0.1,0.9-0.3,1.4-0.4
				c0.5,0,1,0.1,1.4,0.1s0.9-0.2,1.3-0.2s0.9-0.3,1.3-0.3s0.9,0.2,1.3,0.2s0.9-0.1,1.3-0.1s0.9-0.2,1.3-0.3c0.4,0,0.9,0.3,1.3,0.3
				s0.9-0.1,1.3-0.1s0.9-0.2,1.3-0.2s0.9-0.1,1.3-0.1s0.9-0.3,1.3-0.3s0.9,0.3,1.3,0.2s0.9,0,1.3,0c0.5,0,0.9-0.2,1.4-0.2
				s0.9,0,1.4,0s0.9-0.2,1.4-0.2s0.9-0.1,1.4-0.1s0.9,0.3,1.4,0.2c0.5,0,0.9-0.4,1.4-0.5s1,0.3,1.4,0.2c0.5-0.1,0.9-0.1,1.4-0.2
				c0.5-0.1,0.9-0.2,1.4-0.2c0.5-0.1,0.9-0.5,1.3-0.5c0.5,0,1.1-0.1,1.6-0.1c0.5-0.1,1.1,0.3,1.6,0.2s1-0.4,1.5-0.5s1.1-0.1,1.6-0.1
				s1.1,0,1.6-0.1c0.5,0,1.1,0.2,1.6,0.2s1.1-0.3,1.6-0.3s1.1-0.2,1.6-0.2s1.1,0.3,1.6,0.3s1.1-0.1,1.6-0.1s1.1-0.1,1.6-0.1
				s1.1,0,1.6,0s0.9-0.1,1.4-0.1s0.9-0.1,1.4-0.2c0.5,0,1,0.2,1.4,0.2c0.5,0,0.9-0.2,1.4-0.3c0.5,0,0.9-0.1,1.4-0.1s0.9,0.1,1.4,0.1
				s0.9,0.1,1.4,0.1s0.9-0.1,1.4,0c0.5,0,0.9,0.1,1.4,0.1s0.9,0.2,1.4,0.2s0.9-0.2,1.4-0.1c0.5,0,0.9,0.3,1.4,0.4
				c0.5,0.1,1-0.3,1.5-0.2s0.9,0.1,1.4,0.2c0.5,0,0.9,0.5,1.4,0.5s0.9-0.3,1.4-0.3s0.9,0.2,1.4,0.2s0.9-0.1,1.4-0.1s0.9,0,1.4,0
				s0.9,0.1,1.4,0.1c0.6,0,1.1-0.2,1.6-0.4c0.4-0.2,0.9-0.6,1.3-1c0.4-0.3,0.7-0.8,1.1-1.1c0.3-0.3,0.8-0.5,1.2-0.8s0.7-0.6,1-0.9
				c0.4-0.3,0.7-0.6,1-0.9c0.3-0.3,0.5-0.8,0.9-1.1c0.3-0.3,0.6-0.6,0.9-1c0.3-0.4,0.5-0.8,0.8-1.1c0.3-0.4,0.5-0.8,0.8-1.1
				c0.3-0.4,0.9-0.5,1.2-0.8s0.6-0.7,0.9-1c0.3-0.3,0.4-0.9,0.7-1.2c0.4-0.4,0.7-0.7,1.1-1.1c0.4-0.3,1.1-0.3,1.5-0.6
				c0.4-0.3,0.7-0.8,1.1-1.1c0.4-0.3,0.8-0.7,1.2-1s0.8-0.6,1.2-0.9s0.9-0.5,1.4-0.7c0.4-0.3,0.8-0.6,1.2-0.9s0.7-0.8,1.2-1.1
				c0.4-0.3,0.9-0.5,1.3-0.8c0.4-0.3,0.9-0.5,1.3-0.8c0.4-0.3,0.9-0.6,1.3-0.8c0.4-0.3,0.9-0.5,1.4-0.7s0.9-0.6,1.4-0.7s1.1,0,1.6,0
				c0.5-0.1,1-0.2,1.5-0.2s1,0,1.6,0.1c0.5,0,1,0.3,1.5,0.4s1,0.1,1.5,0.2s0.9,0.4,1.3,0.6c0.5,0.2,1.1,0.2,1.5,0.4
				c0.4,0.3,0.8,0.6,1.2,0.9s0.3,1,0.6,1.4s0.7,0.7,0.9,1.2c0.2,0.4,0.4,0.9,0.7,1.3c0.2,0.4,0.7,0.8,0.9,1.2
				c0.2,0.5,0.3,0.9,0.4,1.4c0.1,0.5,0.3,0.9,0.4,1.4c0.1,0.5,0.1,1,0.2,1.4c0.1,0.5,0,1,0.1,1.4c0,0.5,0,1,0,1.5s-0.1,1-0.1,1.5
				s0.2,1,0.2,1.5s0.1,1,0.1,1.5s-0.2,1-0.3,1.4c-0.1,0.5-0.3,0.9-0.4,1.4c-0.1,0.5-0.2,1-0.4,1.4s0,1-0.2,1.5
				c-0.1,0.5-0.6,0.9-0.7,1.3c-0.1,0.5-0.2,1-0.4,1.4c-0.2,0.5-0.4,0.9-0.5,1.4c-0.2,0.5-0.2,1-0.4,1.4s-0.3,0.9-0.5,1.4
				c-0.2,0.4-0.7,0.7-1,1.2c-0.2,0.4-0.1,1-0.4,1.5c-0.2,0.4-0.8,0.7-1,1.1c-0.2,0.4-0.2,1-0.4,1.4s-0.3,0.8-0.5,1.2
				s-0.5,0.7-0.7,1.1c-0.2,0.4-0.1,0.9-0.2,1.3s-0.4,0.8-0.6,1.2c-0.2,0.4-0.7,0.7-0.9,1.1s-0.3,0.8-0.5,1.2s-0.2,0.9-0.4,1.3
				c-0.2,0.4-0.4,0.8-0.6,1.2c-0.2,0.4-0.5,0.7-0.7,1.1c-0.2,0.4-0.2,0.9-0.4,1.3c-0.2,0.4-0.5,0.8-0.7,1.2s-0.6,0.7-0.8,1.1
				c-0.2,0.4-0.3,0.9-0.4,1.3c-0.2,0.4-0.1,0.9-0.2,1.3c-0.1,0.4-0.5,0.8-0.7,1.2c-0.1,0.4,0,0.9-0.2,1.3c-0.2,0.4-0.6,0.7-0.8,1.1
				c-0.2,0.4-0.1,0.9-0.3,1.3c-0.2,0.4-0.3,0.8-0.5,1.2s-0.8,0.6-1,1s-0.1,0.9-0.2,1.3c-0.2,0.4-0.4,0.8-0.6,1.2
				c-0.2,0.4-0.5,0.8-0.7,1.2s-0.5,0.7-0.7,1.1c-0.2,0.4-0.2,0.9-0.5,1.3c-0.2,0.4-0.5,0.8-0.7,1.2s-0.5,0.8-0.7,1.2s-0.2,1-0.4,1.4
				s-0.4,0.8-0.6,1.2c-0.2,0.4-0.7,0.7-0.8,1.1c-0.2,0.4-0.1,1-0.2,1.4c-0.2,0.4-0.6,0.7-0.8,1.2c-0.2,0.4-0.4,0.8-0.6,1.3
				c-0.2,0.4-0.3,0.9-0.5,1.3c-0.2,0.4-0.3,0.9-0.5,1.3c-0.2,0.4-0.2,0.9-0.5,1.3c-0.2,0.4-0.7,0.6-1,1.1c-0.2,0.4-0.1,1-0.4,1.4
				c-0.2,0.4-0.4,0.8-0.6,1.2c-0.2,0.4-0.2,0.9-0.3,1.3c-0.1,0.4-0.7,0.8-0.8,1.2s0.1,1-0.1,1.4c-0.1,0.4-0.2,0.9-0.4,1.3
				c-0.1,0.4-0.4,0.9-0.5,1.3c-0.2,0.4-0.3,0.9-0.4,1.3c-0.2,0.4-0.5,0.8-0.6,1.3c-0.1,0.4,0,1-0.2,1.4c-0.1,0.4-0.6,0.8-0.7,1.2
				c-0.1,0.4,0,1-0.2,1.4c-0.1,0.5-0.3,0.9-0.4,1.4c-0.1,0.5-0.5,0.9-0.7,1.3c-0.1,0.5-0.2,1-0.3,1.4c-0.1,0.5-0.2,0.9-0.4,1.4
				c-0.1,0.5-0.4,0.9-0.5,1.4s-0.1,1-0.2,1.5c-0.2,0.5-0.7,0.8-0.8,1.3c-0.2,0.5,0,1-0.1,1.5c-0.2,0.5-0.5,0.9-0.6,1.3
				c-0.2,0.5-0.6,0.9-0.7,1.3c-0.1,0.5,0,1-0.1,1.5s-0.4,0.9-0.6,1.4c-0.1,0.5,0.1,1,0,1.5s-0.3,0.9-0.4,1.4
				c-0.1,0.5-0.7,0.8-0.8,1.3s0,1-0.2,1.5c-0.1,0.5-0.1,1-0.3,1.4c-0.1,0.5-0.5,0.9-0.7,1.3c-0.1,0.5,0,1-0.1,1.5s-0.3,0.9-0.4,1.4
				c-0.1,0.5-0.1,1-0.2,1.5c-0.1,0.5-0.3,0.9-0.4,1.4c-0.1,0.5,0.1,1,0,1.5s-0.4,0.9-0.5,1.4s-0.1,1-0.2,1.5c-0.1,0.5-0.1,1-0.2,1.5
				c-0.1,0.5-0.2,1-0.3,1.4c-0.1,0.5-0.3,0.9-0.4,1.4c-0.1,0.5-0.1,1-0.2,1.5c-0.1,0.5-0.6,0.9-0.7,1.4c-0.1,0.4-0.2,0.9-0.2,1.3
				c-0.1,0.4,0,0.9-0.1,1.3c-0.1,0.4-0.2,0.9-0.3,1.3c-0.1,0.4-0.1,0.9-0.1,1.3c-0.1,0.4,0.1,0.9,0.1,1.3c-0.1,0.4-0.2,0.9-0.3,1.3
				s-0.5,0.8-0.6,1.2c-0.1,0.4-0.2,0.9-0.3,1.3s0.1,0.9,0,1.4c-0.1,0.4-0.2,0.9-0.2,1.3c-0.1,0.4,0,0.9-0.1,1.3s-0.4,0.8-0.5,1.3
				c0,0.4,0.2,0.9,0.2,1.4c0,0.4-0.3,0.9-0.4,1.3s-0.1,0.9-0.1,1.3c-0.1,0.5-0.1,0.9-0.1,1.4s-0.3,0.9-0.3,1.4s0.3,0.9,0.3,1.4
				s-0.3,0.9-0.3,1.4s0.4,0.9,0.5,1.4c0,0.5-0.3,0.9-0.3,1.4s-0.1,1,0,1.4c0.1,0.5,0.1,0.9,0.2,1.4c0.1,0.5,0.4,0.9,0.6,1.3
				c0.1,0.4,0.5,0.8,0.6,1.3c0.1,0.4-0.1,1,0,1.5c0.1,0.4,0.6,0.8,0.8,1.2c0.2,0.5-0.3,1.2-0.1,1.7c0.3,0.6,0.6,1.1,0.9,1.4
				c0.4,0.4,1,0.5,1.5,0.6s1.1,0.1,1.6-0.2c0.4-0.2,0.8-0.7,1.2-1.1c0.4-0.3,0.8-0.6,1.1-0.9c0.3-0.4,0.6-0.8,0.9-1.1
				c0.3-0.4,0.5-0.8,0.8-1.2c0.3-0.4,0.6-0.8,0.8-1.2c0.3-0.4,0.5-0.8,0.7-1.2c0.2-0.4,0.4-0.9,0.6-1.3c0.2-0.4,0.3-0.9,0.5-1.4
				c0.2-0.4,0.5-0.8,0.6-1.2c0.1-0.4,0-0.9,0.1-1.4s0.3-0.9,0.4-1.3c0.1-0.5,0.5-0.8,0.6-1.3c0.1-0.4,0.2-0.9,0.4-1.3
				s0.3-0.9,0.5-1.3s0.5-0.8,0.7-1.2c0.2-0.4,0.1-0.9,0.2-1.4c0.1-0.5,0.6-0.9,0.7-1.4s0-1.1,0.1-1.6s0.2-1,0.3-1.5s0.2-1,0.3-1.5
				s0.4-1,0.5-1.5s0.5-0.9,0.6-1.4s-0.1-1.1,0-1.6s0.4-1,0.5-1.5s0.2-1,0.3-1.5s0.5-0.9,0.6-1.4c0.2-0.5-0.1-1.1,0-1.6
				s0.5-0.9,0.6-1.4s0.3-1,0.5-1.5s0.3-1,0.5-1.5s0.2-1,0.4-1.5s0.7-1,1-1.5s0.5-1.1,0.7-1.6c0.2-0.6-0.1-1-0.3-1.3
				c-0.3-0.3-0.7-0.5-1.3-0.4c-0.5,0-1,0.3-1.4,0.4c-0.5,0.1-1-0.1-1.5,0s-0.9,0.6-1.4,0.7c-0.5,0.1-1,0.3-1.4,0.4
				c-0.5,0.1-1.1-0.2-1.5-0.1c-0.5,0.1-0.9,0.3-1.4,0.4c-0.5,0.1-0.9,0.2-1.4,0.2c-0.5-0.1-0.9-0.4-1.4-0.5s-1-0.3-1.4-0.3
				s-0.9,0.7-1,0.2s0.5-0.7,0.9-0.8c0.5-0.2,1-0.3,1.5-0.4c0.5-0.1,1-0.4,1.5-0.4c0.5-0.1,1-0.2,1.6-0.2c0.5-0.1,1.1,0.2,1.6,0.1
				c0.5,0,1-0.2,1.6-0.3c0.5,0,1,0.1,1.4,0c0.5-0.1,0.8-0.6,1.3-0.7c0.5-0.1,0.9-0.1,1.4-0.2c0.5-0.1,0.9,0.2,1.4,0.2
				s0.9,0.1,1.2,0.2c0.5,0.2,1,0.1,1.2,0.5c0.1,0.3,0,0.8,0,1.3c0,0.4-0.1,0.8-0.2,1.3c-0.1,0.5-0.3,1-0.4,1.6c0,0.5,0,1.1,0,1.6
				s0.3,1.1,0.3,1.6s-0.1,1.1-0.2,1.6c-0.1,0.5-0.2,1-0.3,1.5s-0.3,1-0.4,1.5c-0.1,0.5-0.2,1-0.3,1.5s-0.4,1-0.5,1.5
				s-0.1,1.1-0.3,1.6s-0.2,1-0.4,1.5s-0.6,0.9-0.8,1.4s-0.1,1.1-0.2,1.6c-0.1,0.5-0.2,1-0.3,1.5s-0.2,1-0.3,1.5s-0.6,0.9-0.7,1.4
				c-0.1,0.5-0.3,1-0.4,1.5c-0.1,0.5-0.2,1-0.4,1.5s-0.2,1-0.3,1.5s0,1.1-0.1,1.6s-0.4,1-0.6,1.4c-0.1,0.5-0.1,1.1-0.2,1.5
				c-0.2,0.5-0.6,0.9-0.7,1.4c-0.2,0.5-0.4,0.9-0.6,1.4c-0.2,0.5-0.6,0.9-0.8,1.3c-0.2,0.5-0.3,1-0.6,1.4c-0.2,0.5-0.3,1-0.5,1.5
				s-0.6,0.8-0.9,1.3c-0.2,0.4-0.4,0.9-0.6,1.3c-0.2,0.4-0.3,0.9-0.6,1.3s-0.8,0.6-1.1,0.9c-0.3,0.4-0.4,0.9-0.8,1.2
				c-0.4,0.3-1,0.3-1.4,0.6c-0.4,0.3-0.6,0.8-1,1s-0.9,0.3-1.3,0.5c-0.5,0.2-0.9,0.1-1.4,0.2s-0.9,0.2-1.3,0.1
				c-0.4-0.1-0.9-0.2-1.3-0.4c-0.4-0.3-0.6-0.7-0.9-1.1c-0.3-0.3-0.8-0.5-1.1-1c-0.2-0.4-0.5-0.9-0.7-1.3s-0.3-1-0.6-1.4
				c-0.2-0.5-0.3-1-0.5-1.4c-0.2-0.5-0.4-0.9-0.6-1.4c-0.2-0.5-0.2-1-0.3-1.5s-0.6-0.9-0.7-1.4c-0.1-0.5-0.2-1-0.2-1.5
				c-0.1-0.5,0.1-1,0.1-1.5s0-1,0-1.4c0-0.5-0.4-0.9-0.4-1.4s0.1-1,0.1-1.5s-0.2-1-0.2-1.4c0-0.5,0-1,0.1-1.5c0-0.5,0.3-0.9,0.3-1.4
				c0.1-0.5,0.3-0.9,0.4-1.4c0.1-0.5-0.1-1,0.1-1.5c0.1-0.5,0.1-1,0.2-1.4c0.1-0.5,0.3-0.9,0.4-1.4c0.1-0.5,0.1-1,0.1-1.4
				c0-0.5,0.3-0.9,0.3-1.4s-0.2-0.9-0.1-1.4c0-0.5,0.2-0.9,0.2-1.4s0.1-0.9,0.1-1.4s0.1-0.9,0.2-1.4c0.1-0.5,0-1,0.1-1.4
				c0.1-0.5,0.2-0.9,0.2-1.4c0.1-0.5,0.4-0.9,0.5-1.3c0.1-0.5-0.1-1,0-1.4c0.1-0.5,0.2-0.9,0.3-1.4s0.5-0.9,0.6-1.3
				c0.1-0.5,0.2-0.9,0.3-1.4s0.3-0.9,0.4-1.3c0.1-0.5-0.2-1-0.1-1.5c0.1-0.5,0.4-0.9,0.5-1.3c0.1-0.5,0.1-0.9,0.2-1.4
				c0.1-0.5,0.3-0.9,0.4-1.4c0.1-0.5,0.1-0.9,0.2-1.4c0.1-0.5,0.2-0.9,0.3-1.4s0.4-0.9,0.5-1.3c0.1-0.5,0-1,0.1-1.5s0.4-0.9,0.6-1.4
				c0.1-0.5,0.3-1,0.5-1.4c0.1-0.5,0.4-0.9,0.5-1.4s0.2-1,0.3-1.5s0-1,0.1-1.5s0.3-1,0.3-1.5c0.1-0.5,0.3-1,0.3-1.5
				c0.1-0.5,0.2-1,0.3-1.5s0.1-1,0.2-1.5c0.1-0.5,0.6-0.9,0.7-1.4c0.1-0.5,0.3-1,0.5-1.5c0.1-0.5-0.1-1.1,0.1-1.5
				c0.1-0.5,0.5-0.9,0.6-1.4s0.3-1,0.4-1.5c0.2-0.5-0.1-1.1,0.1-1.6c0.2-0.5,0.6-0.9,0.8-1.3c0.2-0.5,0.6-0.8,0.8-1.3s0.1-1,0.3-1.5
				s0.6-0.9,0.7-1.3c0.2-0.4,0.2-0.9,0.3-1.4c0.2-0.4,0.4-0.9,0.6-1.3c0.2-0.4,0.1-1,0.3-1.4s0.8-0.7,0.9-1.2c0.2-0.4-0.1-1.1,0-1.5
				c0.2-0.4,0.5-0.8,0.7-1.3c0.1-0.5,0.1-1,0.2-1.4c0.1-0.5,0.4-0.9,0.5-1.4s0.5-0.9,0.6-1.3c0.1-0.5-0.1-1,0.1-1.5
				c0.2-0.4,0.3-0.9,0.5-1.3c0.2-0.4,0.6-0.8,0.8-1.2s0.6-0.8,0.8-1.2s0.3-0.9,0.5-1.4c0.2-0.4,0.5-0.8,0.7-1.3
				c0.2-0.4,0.2-1,0.4-1.4s0.4-0.9,0.6-1.3c0.2-0.4,0.4-0.9,0.6-1.3c0.2-0.4,0.6-0.8,0.8-1.2s0.6-0.8,0.8-1.2s0.4-0.8,0.6-1.2
				c0.2-0.4,0.1-1,0.3-1.4s0.6-0.7,0.8-1.1c0.2-0.4,0.4-0.8,0.7-1.2c0.2-0.4,0.3-0.9,0.5-1.3c0.2-0.4,0.7-0.6,0.9-1.1
				c0.2-0.4,0.1-1,0.3-1.4s0.4-0.8,0.6-1.2c0.2-0.4,0.5-0.8,0.6-1.2c0.2-0.4,0.4-0.8,0.5-1.2c0.2-0.4,0.1-0.9,0.3-1.3
				c0.2-0.4,0.6-0.7,0.8-1.1c0.2-0.4,0.3-0.9,0.5-1.3c0.2-0.4,0.7-0.7,0.8-1.1c0.2-0.4,0.4-0.8,0.6-1.2s0.3-0.9,0.4-1.3
				c0.2-0.4,0.3-0.9,0.5-1.3c0.2-0.4,0.5-0.8,0.7-1.2s0.2-1,0.4-1.4s0.7-0.8,0.9-1.2c0.2-0.5,0.2-1,0.4-1.4c0.2-0.5,0.5-0.9,0.7-1.3
				c0.2-0.4,0.5-0.8,0.7-1.3c0.2-0.4,0.2-1,0.4-1.4s0.5-0.8,0.7-1.3c0.2-0.4,0.5-0.8,0.7-1.3c0.2-0.4,0.1-1.1,0.3-1.5s0.8-0.7,1-1.2
				c0.2-0.4,0.2-1,0.4-1.4s0.4-0.9,0.7-1.3c0.2-0.4,0.7-0.7,1-1.2c0.2-0.4,0.2-1,0.4-1.4s0.3-0.9,0.5-1.4s0.5-0.9,0.6-1.3
				c0.1-0.5,0.1-1,0.2-1.5c0.1-0.5,0.1-1,0.2-1.5c0.1-0.5,0.4-0.9,0.5-1.4s0.1-1,0.2-1.4c0.1-0.5-0.1-1,0-1.5s0-1,0-1.4
				c0-0.5,0.1-0.9,0.1-1.4s0.4-1,0.4-1.4c0-0.5-0.1-1-0.2-1.4c0-0.5-0.3-0.9-0.3-1.3c0-0.5,0.1-0.9,0-1.4s-0.2-0.9-0.2-1.3
				c-0.1-0.4-0.1-0.9-0.2-1.4c-0.1-0.4-0.1-0.9-0.2-1.4c-0.1-0.4-0.2-0.9-0.3-1.3s-0.5-0.8-0.7-1.2c-0.2-0.4-0.5-0.7-0.7-1
				c-0.3-0.4-0.5-0.6-0.9-0.8c-0.4-0.2-0.7-0.5-1.1-0.6c-0.4-0.1-0.8-0.1-1.3-0.1s-0.9-0.1-1.4,0s-0.9,0-1.4,0.1s-0.9,0.4-1.3,0.5
				c-0.4,0.1-0.9,0.3-1.3,0.4c-0.4,0.2-1,0.1-1.4,0.3c-0.4,0.2-0.7,0.8-1.1,1c-0.4,0.2-1,0-1.4,0.2s-0.8,0.3-1.2,0.5
				s-0.7,0.6-1.1,0.8c-0.4,0.2-0.9,0.2-1.3,0.4c-0.4,0.2-0.6,0.6-1,0.9c-0.4,0.2-0.6,0.6-1,0.9c-0.4,0.2-0.8,0.4-1.2,0.6
				s-0.9,0.2-1.3,0.4c-0.4,0.2-0.8,0.5-1.1,0.7c-0.4,0.2-0.7,0.6-1,0.9c-0.4,0.3-0.8,0.4-1.1,0.7c-0.3,0.3-0.5,0.8-0.8,1.1
				c-0.3,0.3-0.6,0.6-1,0.9c-0.3,0.3-0.9,0.3-1.2,0.7c-0.3,0.3-0.4,0.9-0.7,1.2c-0.3,0.3-0.9,0.4-1.2,0.7c-0.3,0.3-0.5,0.7-0.8,1.1
				c-0.3,0.3-0.4,0.8-0.7,1.2c-0.3,0.4-0.7,0.6-1,0.9c-0.3,0.4-0.3,0.9-0.6,1.3c-0.3,0.4-0.5,0.7-0.8,1.1c-0.3,0.4-0.4,0.8-0.6,1.2
				c-0.2,0.4-0.8,0.6-1,0.9c-0.2,0.4-0.3,0.9-0.5,1.2c-0.2,0.4-0.2,1-0.5,1.2c-0.2,0.3-0.7,0.3-1.3,0.2c-0.4-0.1-0.9-0.1-1.3-0.1
				c-0.4,0-0.9,0.2-1.3,0.2c-0.4,0-0.9,0-1.3,0c-0.4,0-0.9,0.1-1.3,0.1c-0.5,0-0.9,0-1.4-0.1c-0.5,0-0.9-0.1-1.4-0.2
				c-0.5,0-0.9,0.1-1.4,0.1s-0.9-0.2-1.4-0.2s-0.9-0.3-1.4-0.3s-0.9,0-1.4,0s-0.9,0.3-1.4,0.3s-0.9-0.1-1.4-0.1s-1,0-1.5,0
				s-1,0.1-1.5,0.1s-1-0.2-1.5-0.1c-0.5,0-1,0.1-1.5,0.1s-1,0.1-1.5,0.1s-1,0.4-1.5,0.4s-1-0.2-1.5-0.2s-1,0.3-1.5,0.3
				s-1,0.1-1.5,0.1s-1,0.1-1.5,0.1s-1-0.3-1.5-0.3s-1,0.1-1.5,0.1s-1-0.2-1.5-0.2s-1,0.3-1.5,0.3s-1-0.2-1.5-0.2s-1,0-1.5,0
				s-1,0.1-1.5,0.1s-1,0-1.5,0s-1-0.2-1.5-0.2s-1,0.2-1.5,0.2s-1-0.1-1.5-0.1s-1-0.1-1.5-0.1s-0.9,0.3-1.4,0.3
				c-0.5,0.1-0.9,0.2-1.4,0.3s-0.9,0-1.4,0.1s-0.9,0.4-1.3,0.5c-0.5,0.1-1-0.1-1.4,0c-0.5,0.1-0.9,0.1-1.4,0.1s-0.9,0-1.4,0.1
				c-0.5,0-0.9,0-1.4,0.1c-0.5,0-0.9,0.1-1.4,0.1s-0.9,0.3-1.4,0.3s-0.9-0.2-1.4-0.2s-0.9,0.3-1.4,0.3s-0.9-0.3-1.4-0.3
				s-0.9,0.4-1.4,0.4s-0.9-0.3-1.4-0.3s-0.9,0-1.4,0s-0.9,0-1.4,0s-0.9,0.2-1.4,0.2s-1,0.1-1.4,0.2c-0.5,0.1-1-0.1-1.5-0.1
				c-0.5,0.1-0.9,0.5-1.4,0.6s-1,0.1-1.4,0.1c-0.5,0.1-1,0.2-1.4,0.3c-0.5,0-1-0.1-1.5-0.1s-1,0.1-1.5,0.1s-1-0.3-1.4-0.3
				c-0.5,0-1,0.1-1.5,0.2c-0.5,0-1-0.1-1.5,0c-0.5,0-1,0.2-1.4,0.3c-0.5,0.1-1,0-1.5,0.2c-0.5,0.1-0.9,0.4-1.4,0.5s-1,0.1-1.4,0.2
				c-0.5,0.1-0.9,0.3-1.4,0.4c-0.7,0.1-1.4,0.1-1.5,0.9c-0.1,0.4-0.5,0.8-0.6,1.2s-0.2,0.9-0.3,1.3c-0.1,0.4-0.4,0.8-0.5,1.2
				s-0.2,0.9-0.3,1.3c-0.2,0.4-0.1,0.9-0.3,1.3c-0.2,0.4-0.3,0.9-0.5,1.3c-0.2,0.4-0.5,0.8-0.7,1.2s-0.5,0.8-0.7,1.2
				s-0.3,0.8-0.5,1.3c-0.2,0.4-0.2,0.9-0.4,1.3c-0.2,0.4-0.3,0.8-0.5,1.3c-0.2,0.4-0.4,0.8-0.7,1.2c-0.2,0.4-0.4,0.8-0.7,1.2
				c-0.2,0.4-0.4,0.8-0.6,1.2s-0.7,0.6-0.9,1c-0.2,0.4-0.4,0.8-0.6,1.2s-0.6,0.7-0.8,1.1c-0.2,0.4-0.4,0.8-0.6,1.2s-0.5,0.8-0.7,1.2
				s-0.3,0.9-0.5,1.3c-0.2,0.4-0.1,1-0.3,1.4c-0.2,0.4-0.7,0.7-0.9,1.1c-0.2,0.4-0.1,1-0.3,1.4c-0.2,0.4-0.7,0.7-0.9,1.1
				c-0.2,0.4-0.4,0.8-0.6,1.2s-0.6,0.7-0.8,1.1c-0.2,0.4-0.5,0.8-0.7,1.2s-0.2,0.9-0.4,1.3c-0.2,0.4-0.7,0.7-0.9,1.1
				c-0.2,0.4-0.4,0.8-0.6,1.2s-0.3,0.9-0.6,1.3c-0.2,0.4-0.6,0.7-0.8,1.1c-0.2,0.4-0.2,0.9-0.4,1.3c-0.2,0.4-0.5,0.8-0.6,1.2
				c-0.2,0.4-0.7,0.7-0.9,1.1c-0.2,0.4,0,1-0.2,1.4s-0.6,0.7-0.8,1.2c-0.2,0.4-0.2,0.9-0.4,1.3c-0.2,0.4,0,1-0.2,1.4
				c-0.1,0.4-0.5,0.8-0.6,1.2s-0.1,0.9-0.2,1.4c-0.1,0.4-0.5,0.8-0.6,1.3c-0.1,0.4-0.3,0.9-0.5,1.3c-0.1,0.4-0.4,0.8-0.5,1.2
				c-0.2,0.4,0,0.9-0.2,1.4c-0.2,0.4-0.2,0.9-0.4,1.3c-0.2,0.4-0.5,0.7-0.7,1.2c-0.2,0.4-0.1,0.9-0.2,1.3c-0.1,0.4-0.6,0.8-0.7,1.2
				s-0.2,0.9-0.2,1.3c-0.1,0.4,0.2,0.9,0.2,1.4c-0.1,0.4-0.1,0.9-0.2,1.3c-0.1,0.4-0.2,0.9-0.3,1.3c-0.1,0.4-0.2,0.9-0.3,1.3
				c-0.1,0.4-0.5,0.8-0.6,1.2s-0.2,0.9-0.3,1.3c-0.1,0.4-0.2,0.9-0.3,1.3c-0.1,0.4-0.1,0.9-0.2,1.3c-0.1,0.4-0.2,0.9-0.3,1.3
				c-0.1,0.4-0.1,0.9-0.2,1.3c-0.1,0.4-0.4,0.8-0.6,1.2c-0.1,0.4-0.3,0.8-0.4,1.3c-0.1,0.4-0.3,0.8-0.4,1.3
				c-0.1,0.4-0.2,0.9-0.3,1.3c-0.1,0.4,0.1,0.9,0,1.3c-0.1,0.4,0.1,0.9,0,1.3c-0.1,0.4-0.3,0.9-0.3,1.3c-0.1,0.4-0.1,0.9-0.1,1.3
				c-0.1,0.5-0.2,1-0.2,1.5s-0.4,1-0.4,1.5s0.5,1,0.4,1.5c0,0.5-0.4,1-0.4,1.5s0.2,1,0.2,1.5s-0.1,1-0.1,1.5s-0.1,1-0.1,1.5
				s0.5,1,0.4,1.5c0,0.5-0.3,1-0.3,1.5s0.3,1,0.3,1.5s0.1,1,0.1,1.5C7.8,146.2,7.7,146.7,7.7,147.2z"/>
		</g>
		<g>
			<path d="M75.5,214.6c0-0.5,0.2-1,0.3-1.5c0-0.5-0.3-1-0.2-1.5s0.3-1,0.4-1.4c0.1-0.5,0-1,0.1-1.5s0.1-1,0.2-1.5
				c0.1-0.5,0.3-1,0.4-1.4c0.1-0.5,0.1-1,0.1-1.5c0.1-0.5,0.6-0.9,0.7-1.4c0.1-0.5-0.1-1,0-1.5s0.5-0.9,0.6-1.4s0.1-1,0.2-1.5
				c0.1-0.5-0.1-1,0-1.5s0.3-1,0.4-1.4c0.1-0.5,0.6-0.9,0.7-1.4c0.1-0.5-0.1-1,0-1.5s0.1-1,0.2-1.5c0.1-0.5,0.1-1,0.2-1.5
				c0.1-0.5,0.5-0.9,0.6-1.4s0-1,0.1-1.5s0.4-0.9,0.5-1.4c0.2-0.9,0.4-1.4-0.5-2c-0.4-0.3-1.1-0.2-1.4-0.5c-0.4-0.3-0.5-0.9-0.8-1.3
				s-0.9-0.5-1.2-0.9s-0.3-1-0.6-1.4s-0.7-0.7-1-1.2c-0.2-0.4-0.1-1-0.3-1.5c-0.2-0.4-0.5-0.9-0.6-1.3c-0.1-0.5-0.3-0.9-0.4-1.4
				c-0.1-0.5,0.1-1,0.1-1.5s-0.1-0.9-0.1-1.4s-0.1-1-0.1-1.4c0.1-0.5,0.1-1,0.2-1.4c0.1-0.5,0.4-0.9,0.6-1.3
				c0.1-0.5,0.4-0.9,0.5-1.3c0.2-0.4,0.1-1,0.3-1.4s0.3-0.9,0.5-1.3s0.4-0.9,0.6-1.3c0.2-0.4,0.5-0.8,0.7-1.2
				c0.2-0.4,0.6-0.7,0.9-1.1c0.3-0.4,0.4-0.9,0.7-1.2c0.3-0.4,0.8-0.6,1.1-0.9c0.3-0.3,0.8-0.6,1.1-0.9c0.4-0.3,0.6-0.8,1-1.1
				s0.8-0.6,1.2-0.9c0.4-0.2,0.9-0.3,1.4-0.5c0.4-0.2,0.9-0.3,1.4-0.5c0.4-0.2,0.9-0.4,1.3-0.6c0.4-0.2,0.9-0.3,1.4-0.4
				c0.5-0.1,0.9-0.5,1.3-0.6c0.5-0.1,0.9-0.2,1.4-0.3c0.4-0.1,0.9,0.1,1.4,0.1c0.4,0,0.9,0,1.3,0.1c0.4,0.1,0.8,0.3,1.3,0.4
				c0.4,0.1,0.9,0.2,1.3,0.3c0.4,0.1,0.9,0.1,1.3,0.2c0.4,0.1,0.8,0.5,1.2,0.6s0.9,0.1,1.3,0.2c0.4,0.2,0.8,0.4,1.2,0.6
				c0.4,0.2,0.8,0.4,1.2,0.6c0.4,0.2,0.8,0.4,1.1,0.7c0.4,0.2,0.9,0.3,1.3,0.5c0.4,0.2,0.9,0.3,1.2,0.6c0.4,0.2,0.6,0.7,1,1
				s0.8,0.4,1.2,0.7c0.3,0.3,0.6,0.6,0.9,1c0.3,0.3,0.4,0.8,0.6,1.2c0.2,0.4,0.6,0.7,0.8,1.1s0.1,0.9,0.2,1.3
				c0.1,0.4,0.4,0.8,0.5,1.2c0.1,0.4,0.5,0.8,0.6,1.2c0.1,0.5,0,1,0.1,1.5s0.5,0.9,0.6,1.4s0.3,1,0.4,1.4c0.1,0.5,0.2,1,0.2,1.5
				s-0.2,1-0.3,1.5c0,0.5,0.2,1,0.1,1.5c-0.1,0.5-0.4,0.9-0.6,1.4c-0.2,0.5-0.2,1-0.4,1.4s-0.5,0.9-0.7,1.3s-0.6,0.8-0.9,1.2
				c-0.3,0.4-0.7,0.7-1,1.1s-0.5,0.8-0.9,1.2c-0.3,0.4-0.7,0.7-1,1c-0.4,0.3-0.8,0.5-1.2,0.8s-0.7,0.7-1.1,0.9
				c-0.4,0.2-0.9,0.4-1.3,0.6c-0.4,0.2-0.8,0.5-1.3,0.6c-0.5,0.2-0.8,0.5-1.1,0.8s-0.7,0.6-0.6,1.1c0.1,0.5,0.4,0.9,0.5,1.3
				c0.1,0.5,0,1,0.1,1.4c0.1,0.5,0.3,0.9,0.4,1.4c0.1,0.5,0,1,0.1,1.4c0.1,0.5,0.4,0.9,0.5,1.3c0.1,0.5,0.2,0.9,0.3,1.4
				s0,0.9,0.1,1.4c0,0.5,0.3,0.9,0.4,1.4c0,0.5-0.1,0.9-0.1,1.4s0,0.9,0,1.4s0.3,0.9,0.3,1.4s-0.3,1-0.3,1.4
				c0.1,0.5,0.4,0.9,0.5,1.4s-0.1,1,0,1.5s0.3,0.9,0.3,1.4s-0.2,1-0.1,1.5c0,0.5,0.3,0.9,0.4,1.4c0,0.5-0.1,1,0,1.5
				c0,0.5,0.2,0.9,0.3,1.4c0,0.5,0,1,0,1.5s0.3,0.9,0.3,1.4s-0.3,1-0.3,1.5c0,0.4,0.4,0.8,0.3,1.1c-0.2,0.8-0.5,0.7-1.2,0.1
				c-0.4-0.3-0.7-0.7-1-1c-0.4-0.3-0.6-0.7-1-1.1c-0.4-0.3-0.8-0.6-1.1-0.9c-0.4-0.3-0.9-0.4-1.3-0.8c-0.3-0.3-0.4-1-0.7-1.4
				c-0.3-0.3-0.7-0.7-1.1-1c-0.4-0.3-0.8-0.5-1.2-0.8s-0.7-0.7-1-1c-0.4-0.3-0.8-0.6-1.1-0.9s-0.8-0.6-1.1-0.9
				c-0.3-0.4-0.6-0.8-0.9-1.1c-0.3-0.4-0.3-1-0.6-1.4s-0.8-0.6-1.1-1s-0.4-0.9-0.7-1.3s-0.7-0.7-0.9-1.1c-0.3-0.5-0.6-0.6-0.8-0.7
				s-0.3,0.2-0.7,0.6c-0.3,0.4-0.8,0.6-1.1,1s-0.6,0.8-0.9,1.2c-0.3,0.4-0.8,0.6-1.2,1c-0.3,0.4-0.5,0.9-0.8,1.3s-0.6,0.8-0.9,1.2
				c-0.3,0.4-0.8,0.7-1.1,1.1s-0.3,1-0.6,1.4s-0.7,0.7-1,1.1s-0.6,0.8-0.9,1.2c-0.3,0.4-0.1,1.1-0.4,1.5c-0.2,0.4-0.5,0.8-0.7,1.3
				s-0.6,0.8-0.7,1.3c-0.1,0.2-0.2,0.2-0.3,0.3c-0.2,0.4,0.1,0.9-0.4,0.9s-0.7-0.4-0.9-0.8c-0.1-0.5-0.1-0.9-0.2-1.4
				c-0.1-0.5,0-0.9,0-1.4C75.5,215.5,75.5,215.1,75.5,214.6z M110.8,170.8c0-0.5,0.2-1,0.1-1.5c0-0.5-0.4-1-0.5-1.5s0-1-0.1-1.5
				s-0.4-0.9-0.6-1.4c-0.2-0.5-0.4-0.9-0.6-1.4c-0.2-0.5-0.3-0.9-0.6-1.4c-0.3-0.4-0.7-0.8-1-1.2c-0.3-0.4-0.3-1.1-0.7-1.4
				c-0.4-0.4-0.9-0.5-1.3-0.8c-0.4-0.3-0.6-0.9-1.1-1.2c-0.4-0.2-0.8-0.4-1.2-0.6c-0.4-0.2-0.9-0.2-1.3-0.4
				c-0.4-0.2-0.8-0.4-1.2-0.6c-0.4-0.2-0.7-0.7-1.2-0.8c-0.4-0.1-1,0-1.4-0.1s-0.9-0.1-1.3-0.2c-0.4,0-0.9,0-1.3,0
				c-0.4,0-0.9-0.3-1.4-0.3c-0.4,0-0.9,0.3-1.3,0.3c-0.4,0-0.9-0.1-1.3,0c-0.5,0-0.9,0.1-1.4,0.1c-0.5,0.1-0.8,0.5-1.3,0.6
				s-1-0.1-1.4,0s-0.7,0.6-1.2,0.8c-0.4,0.2-1,0.1-1.4,0.3s-0.7,0.7-1,0.9c-0.4,0.2-0.9,0.2-1.3,0.5c-0.4,0.3-0.7,0.7-1,0.9
				c-0.4,0.3-0.7,0.6-1,1c-0.3,0.3-0.9,0.4-1.2,0.8c-0.3,0.3-0.6,0.7-0.8,1.1c-0.3,0.4-0.4,0.9-0.6,1.3c-0.2,0.4-0.3,0.9-0.5,1.3
				s-0.5,0.8-0.6,1.3c-0.1,0.4-0.3,0.9-0.4,1.3c-0.1,0.5,0.1,1,0,1.4c-0.1,0.5-0.1,0.9-0.1,1.4s0,0.9,0,1.4s0,0.9,0,1.4
				s-0.1,0.9-0.1,1.4c0.1,0.5,0.3,0.9,0.4,1.3c0.1,0.4,0.1,0.9,0.2,1.3c0.2,0.4,0.3,0.9,0.5,1.3s0.7,0.6,1,1c0.3,0.3,0.7,0.6,1,0.9
				s0.6,0.7,0.9,1c0.4,0.3,0.7,0.6,1.1,0.8c0.4,0.2,0.8,0.4,1.2,0.6s0.9,0.5,1.3,0.6c0.5,0.2,1,0.1,1.5,0.2c0.5,0.2,0.9,0.3,1.4,0.4
				s0.9,0.4,1.4,0.5s1,0.2,1.5,0.3c0.5,0.1,0.9,0.3,1.4,0.4s1,0.1,1.5,0.2s0.9,0,1.4,0s0.9,0.3,1.4,0.3s0.9-0.2,1.4-0.3
				c0.5,0,0.9,0,1.4-0.1s0.9-0.2,1.4-0.3c0.4-0.1,0.9-0.3,1.3-0.5c0.5-0.2,0.8-0.6,1.3-0.8c0.5-0.2,0.8-0.5,1.3-0.7s1-0.1,1.5-0.4
				c0.4-0.2,0.8-0.6,1.2-0.9s0.8-0.5,1.2-0.9c0.4-0.3,0.9-0.6,1.2-0.9c0.3-0.4,0.4-0.9,0.7-1.4c0.2-0.4,0.6-0.8,0.8-1.3
				s0.2-1,0.3-1.5s0-1,0.1-1.5s0.4-0.9,0.5-1.5C111,171.8,110.8,171.3,110.8,170.8z M102.5,213.8c0-0.2,0.2-0.4,0.2-0.5
				c-0.1-0.5-0.5-1-0.5-1.5s0.1-1.1,0-1.6s-0.3-1-0.3-1.5c-0.1-0.5-0.1-1-0.2-1.5c-0.1-0.5,0-1-0.1-1.6c-0.1-0.5-0.3-1-0.3-1.5
				c-0.1-0.5,0.3-1.1,0.2-1.6s-0.4-1-0.5-1.5s0.1-1.1,0-1.6s-0.4-1-0.5-1.5s-0.6-0.9-0.7-1.4c-0.1-0.5-0.1-1.1-0.2-1.6
				c-0.1-0.5,0.2-1,0.2-1.5c-0.1-0.5-0.5-0.9-0.5-1.4c-0.1-0.5-0.2-1-0.3-1.4c-0.1-0.5-0.1-1-0.2-1.4c-0.1-0.5,0.2-1,0.1-1.5
				c-0.1-0.8-0.2-1.3-1.1-1.3c-0.4,0-0.9-0.1-1.3-0.1c-0.4,0-0.9,0-1.3,0.1c-0.4,0-0.9,0.4-1.3,0.4c-0.4,0-0.9-0.4-1.3-0.4
				c-0.4,0-0.9,0.3-1.3,0.3c-0.4,0-0.8-0.4-1.3-0.4c-0.4-0.1-0.9,0.1-1.3,0c-0.4-0.1-0.8-0.5-1.2-0.6s-0.9-0.1-1.3-0.2
				c-0.4-0.1-0.9-0.2-1.3-0.3c-0.5-0.1-1-0.3-1.3,0s-0.6,0.7-0.7,1.2c-0.1,0.4-0.1,0.9-0.2,1.3c-0.1,0.4-0.1,0.9-0.2,1.3
				c-0.1,0.4-0.3,0.8-0.5,1.2c-0.1,0.5-0.3,0.9-0.4,1.4c-0.1,0.5,0.1,1-0.1,1.5c-0.1,0.5-0.2,0.9-0.3,1.4s-0.2,0.9-0.3,1.4
				s-0.3,0.9-0.4,1.4c-0.1,0.5-0.4,0.9-0.6,1.4c-0.1,0.5-0.1,1-0.3,1.4c-0.2,0.5-0.5,0.9-0.6,1.3c-0.1,0.5-0.4,0.9-0.5,1.4
				s0,1-0.1,1.5s-0.1,1-0.2,1.4c-0.1,0.5-0.4,0.9-0.4,1.4c-0.1,0.5-0.2,0.9-0.3,1.4s-0.1,1-0.2,1.4c-0.1,0.5-0.2,1-0.2,1.4
				c-0.1,0.4,0.3,0.6,0.8,0.8c0.5,0.2,0.7,0.3,1-0.1s0.7-0.7,0.9-1.1s0.4-0.9,0.6-1.3c0.2-0.4,0.5-0.8,0.7-1.2
				c0.2-0.4,0.4-0.9,0.6-1.3c0.2-0.4,0.3-0.9,0.6-1.3s0.7-0.6,1-0.9c0.3-0.4,0.4-0.8,0.7-1.2c0.3-0.3,0.7-0.6,1-1
				c0.3-0.3,0.6-0.7,0.9-1c0.3-0.3,0.6-0.7,0.9-1c0.5-0.6,0.8-1.1,1.3-1.1c0.5-0.1,1.2,0.1,1.7,0.7c0.4,0.5,0,1.5,0.4,2.1
				c0.2,0.4,0.6,0.7,0.9,1c0.3,0.4,0.5,0.7,0.8,1.1c0.3,0.3,0.4,0.8,0.7,1.1c0.3,0.3,0.8,0.5,1.1,0.8s0.5,0.8,0.8,1.1
				c0.3,0.3,0.7,0.5,1,0.9c0.3,0.3,0.8,0.5,1,0.9c0.3,0.4,0.3,0.9,0.6,1.3s0.7,0.6,1,0.9c0.3,0.4,0.6,0.7,0.9,1
				c0.3,0.3,0.6,0.7,0.9,1c0.3,0.3,0.4,0.9,0.7,1.2c0.3,0.2,0.8,0.4,1.2,0.2C102.4,214.6,102.6,214.1,102.5,213.8z"/>
		</g>
		<g>
			<path d="M121.5,86c-0.5-0.1-1-0.4-1.5-0.4s-1-0.1-1.5-0.1s-1,0.3-1.5,0.3s-1-0.2-1.5-0.2s-1,0.2-1.5,0.2s-1,0-1.5,0
				s-1,0.2-1.5,0.2s-1-0.1-1.5-0.1s-1-0.1-1.5-0.1s-1,0.4-1.5,0.4c-0.5,0.1-1,0-1.5,0c-0.5,0.1-1,0.2-1.5,0.2c-0.5,0.1-1,0-1.5,0.1
				s-1,0.3-1.5,0.4c-0.5,0.1-1,0.3-1.5,0.4c-0.5,0.1-1,0-1.5,0.1c-0.5,0-1-0.3-1.5-0.3s-1,0.2-1.5,0.2s-1-0.1-1.5,0
				c-0.5,0-1-0.1-1.5,0c-0.5,0-1,0.5-1.5,0.6s-1-0.1-1.5-0.1c-0.5,0.1-1,0-1.5,0.1s-1,0.3-1.5,0.3s-1,0-1.5,0s-0.9,0.1-1.4,0
				c-0.5,0-1,0-1.4-0.1c-0.5-0.1-0.8-0.4-1.3-0.6c-0.4-0.2-0.8-0.4-1.3-0.6c-0.4-0.2-0.8-0.4-1.2-0.7s-0.9-0.6-1.3-0.8
				c-0.4-0.3-1.1-0.2-1.5-0.4c-0.5-0.2-0.9-0.6-1.3-0.7c-0.5-0.2-1-0.1-1.5-0.2c-0.5-0.1-1-0.2-1.5-0.2c-0.4,0-0.9,0-1.3,0
				s-0.9-0.3-1.3-0.4c-0.4,0-0.9-0.1-1.3-0.1s-0.9,0.1-1.3,0.1s-0.9,0.1-1.3,0.2c-0.4,0-0.9,0.1-1.3,0.2c-0.4,0.1-0.9,0-1.3,0.1
				s-0.8,0.3-1.3,0.4c-0.4,0.1-0.9,0.1-1.3,0.2c-0.4,0.1-0.8,0.5-1.3,0.6c-0.4,0.1-0.9,0.1-1.3,0.2c-0.4,0.1-0.9,0-1.3,0.1
				s-0.9,0.2-1.3,0.3s-0.9,0-1.3,0.1s-0.9,0.1-1.3,0.2c-0.5,0.1-0.8,0.6-1.3,0.8c-0.5,0.1-1,0-1.5,0.1s-1,0.2-1.4,0.3
				c-0.5,0.1-0.9,0.3-1.4,0.4c-0.5,0.1-1,0.2-1.4,0.3c-0.5,0.1-1,0.2-1.4,0.3c-0.5,0.1-1,0.1-1.5,0.2c-0.4,0.1-0.8,0-1.2,0
				c-0.4,0-0.8,0-1.2-0.1c-0.4,0-1.2,0.5-1.3,0c-0.2-0.5,0.9-0.5,1.2-0.8c0.3-0.2,0.5-0.6,0.8-0.9c0.3-0.3,0.5-0.8,0.8-0.9
				c0.4-0.1,0.9,0.1,1.4,0c0.4-0.1,0.8-0.5,1.3-0.6c0.4-0.1,1,0.2,1.4,0.1c0.4-0.1,0.9-0.4,1.3-0.4c0.4-0.1,0.9,0,1.4-0.1
				c0.4-0.1,0.8-0.4,1.3-0.5c0.4-0.1,0.9-0.2,1.3-0.3s0.9-0.2,1.3-0.3s0.9-0.2,1.3-0.3s0.9-0.1,1.3-0.2c0.4-0.1,0.8-0.4,1.3-0.5
				c0.4-0.1,0.9-0.3,1.3-0.4c0.4-0.1,0.9,0,1.4-0.1c0.4-0.1,0.8-0.4,1.3-0.4c0.4-0.1,0.9,0.2,1.4,0.1c0.4-0.1,0.9-0.2,1.3-0.2
				s0.9-0.4,1.3-0.4c0.4-0.1,0.9-0.1,1.3-0.1c0.5-0.1,1-0.1,1.6-0.2c0.5,0,1,0.2,1.6,0.2c0.5,0,1,0,1.6,0c0.5,0.1,1.1,0,1.6,0.1
				s1,0,1.6,0.1c0.5,0.1,1,0.4,1.5,0.5s1.1,0.1,1.6,0.3s0.9,0.6,1.3,0.9c0.4,0.2,0.8,0.3,1.2,0.5s0.9,0.2,1.3,0.4
				c0.4,0.2,0.8,0.3,1.2,0.5s0.9,0.2,1.3,0.3c0.4,0.1,0.8,0.4,1.2,0.4c0.4,0.1,0.9,0.2,1.3,0.3c0.4,0.1,0.9-0.1,1.4,0
				c0.4,0,0.9,0.3,1.3,0.4c0.4,0,0.9-0.2,1.4-0.2c0.4,0,0.9,0.4,1.3,0.4c0.4,0,0.9-0.3,1.3-0.3c0.4,0,0.9-0.2,1.3-0.2
				c0.4-0.1,0.9,0.1,1.4,0c0.4-0.1,0.9-0.2,1.3-0.3c0.4-0.1,0.9-0.1,1.3-0.2c0.4-0.1,0.8-0.5,1.3-0.6c0.4-0.1,0.9,0.2,1.4,0.1
				c0.4,0,0.9-0.2,1.3-0.2c0.4,0,0.9-0.2,1.3-0.2c0.4,0,0.9,0.3,1.3,0.3c0.4,0,0.9-0.4,1.3-0.4c0.4,0,0.9,0,1.3,0
				c0.4,0,0.9,0,1.3-0.1c0.4-0.1,0.9-0.2,1.3-0.4c0.4-0.1,0.8-0.4,1.3-0.5c0.4-0.1,0.9-0.3,1.3-0.4c0.4-0.1,0.9,0.2,1.4,0.1
				c0.5-0.1,1-0.4,1.5-0.4s1.1-0.1,1.6,0c0.5,0,1,0.4,1.5,0.5s1,0,1.6,0.1c0.5,0.1,1,0,1.6,0c0.5,0,1,0,1.6,0c0.5,0,1,0.2,1.5,0.3
				s1,0.3,1.5,0.4c0.5,0.1,1.1-0.3,1.6-0.2s1,0.2,1.5,0.3c0.3,0,0.8,0.1,1.2,0.2c0.5,0,1.1,0.1,1.1,0.6s-0.5,0.8-1,0.9
				c-0.4,0.1-0.9,0-1.2,0.1c-0.4,0.1-0.8,0.1-1.3,0.1c-0.4,0-0.8,0.3-1.3,0.3c-0.4,0-0.8-0.3-1.3-0.3C122.3,85.6,121.9,86,121.5,86z
				"/>
		</g>
		<g>
			<path d="M96.9,65.1c-0.5,0-1,0.4-1.6,0.4c-0.5,0.1-1.1,0-1.6,0c-0.5,0.1-1,0.2-1.6,0.2c-0.5,0-1.1-0.2-1.6-0.2s-1.1-0.1-1.6,0
				c-0.5,0-1,0.4-1.5,0.5c-0.5,0-1.1-0.2-1.6-0.1c-0.5,0-1,0.2-1.6,0.2c-0.5,0-1.1,0-1.6,0s-1.1,0-1.6,0s-1.1,0.1-1.6,0.1
				s-1.1-0.3-1.6-0.3s-1,0-1.5,0s-1,0.4-1.5,0.4s-1,0-1.5,0s-1-0.1-1.5-0.1s-1,0-1.5,0.1c-0.5,0-1-0.1-1.5,0s-1,0-1.5,0
				s-1,0.5-1.5,0.5s-0.9-0.2-1.4-0.2s-1,0.2-1.4,0.1c-0.5,0-0.9-0.2-1.4-0.2s-0.9-0.2-1.4-0.2s-0.9,0.1-1.4,0.1s-0.9,0-1.4,0.1
				c-0.5,0-0.9-0.1-1.4-0.1s-0.9,0-1.4,0.1c-0.5,0-0.9,0.3-1.4,0.3s-0.9-0.2-1.4-0.2s-0.9,0.3-1.4,0.4c-0.5,0.1-0.9,0.3-1.4,0.3
				c-0.5,0.1-0.9,0.1-1.4,0.1c-0.5,0.1-0.9,0.2-1.4,0.3c-0.5,0-1-0.1-1.4-0.1s-0.9-0.7-1.3-0.8c-0.4,0-1.4,0.1-1.4-0.4
				c-0.1-0.5,0.9-0.6,1.3-0.8c0.5-0.2,1.1-0.2,1.6-0.4s1-0.6,1.5-0.7c0.5-0.1,1.1-0.2,1.6-0.3c0.5,0,1,0.2,1.5,0.2s1,0,1.5,0.1
				c0.5,0,1,0.2,1.5,0.2s1,0,1.5,0s1-0.2,1.5-0.2s1,0.1,1.5,0s1-0.3,1.4-0.3c0.5-0.1,1-0.3,1.5-0.3s1,0.2,1.5,0.2s1,0.1,1.4,0.1
				c0.5,0,1,0.2,1.4,0.2c0.5,0,1-0.2,1.5-0.2s1,0.1,1.5,0.1s1-0.3,1.4-0.2c0.5,0,1,0.3,1.4,0.3c0.5,0,1-0.1,1.5-0.1s1,0,1.4,0
				c0.5,0,1,0,1.4,0c0.5,0,1-0.1,1.4-0.1c0.5,0,1,0,1.4-0.1c0.5,0,1,0,1.4,0c0.5,0,1-0.1,1.4-0.1c0.5,0,1,0.1,1.5,0.1
				c0.4,0,0.9,0,1.3,0c0.4,0,0.9-0.4,1.3-0.4c0.4,0,0.9,0.4,1.4,0.3c0.4,0,0.9-0.3,1.3-0.3c0.4,0,0.9,0,1.3,0c0.4,0,0.9-0.2,1.3-0.2
				c0.4,0,0.9,0,1.3,0c0.4,0,0.9,0.3,1.3,0.3c0.4,0,0.9-0.3,1.3-0.3c0.4,0,0.9-0.1,1.3-0.1c0.5,0,1,0.3,1.5,0.3s1,0,1.5,0
				s1-0.1,1.5-0.1s1-0.3,1.5-0.3s1,0,1.5,0s1,0.3,1.5,0.3c0.5-0.1,0.9-0.4,1.4-0.5s1-0.2,1.5-0.3s1-0.3,1.5-0.4
				c0.5-0.1,1-0.1,1.5-0.1s1,0.1,1.5,0.1s1-0.2,1.5-0.2s1,0.3,1.5,0.3s1,0,1.5,0s1-0.4,1.5-0.4s1,0.1,1.5,0.1s1,0,1.5,0
				s1,0.1,1.5,0.1s1-0.1,1.5-0.1s1,0.1,1.5,0.1s1-0.2,1.5-0.2s1,0.1,1.5,0.1s1,0.1,1.5,0.1s1,0.1,1.5,0.1s1-0.4,1.5-0.4
				c0.3,0,0.8,0.1,1.3,0.2c0.5,0.1,0.9,0.2,1,0.7s-0.2,0.9-0.7,1.2c-0.4,0.3-1,0.2-1.4,0.3s-0.8,0.3-1.3,0.3c-0.4,0-0.9-0.1-1.3-0.1
				c-0.4,0-0.9,0.3-1.3,0.3c-0.4,0-0.9-0.1-1.3-0.1c-0.4,0-0.9,0.1-1.3,0.1c-0.4,0-0.9-0.4-1.3-0.4c-0.4,0-0.9,0.2-1.3,0.2
				c-0.4,0-0.9-0.3-1.3-0.3c-0.4,0-0.9,0-1.3,0.1c-0.4,0-0.9,0.3-1.3,0.4c-0.4,0.1-0.9,0-1.4,0.1c-0.4,0.1-0.8,0.3-1.3,0.4
				c-0.4,0.1-0.9,0.1-1.3,0.2c-0.4,0.1-0.8,0.2-1.3,0.3c-0.5,0-1,0.2-1.5,0.2s-1,0.2-1.5,0.2s-1-0.3-1.5-0.3s-1,0.1-1.5,0.1
				s-1,0-1.5-0.1c-0.5,0-1-0.1-1.5-0.1s-1-0.3-1.5-0.3s-1,0-1.5,0s-1-0.1-1.5-0.1s-1,0.1-1.5,0.1C97.9,65.1,97.4,65.1,96.9,65.1z"/>
		</g>
		<g>
			<path d="M45.5,102.8c0.5,0,0.9,0,1.4-0.1s1,0,1.4-0.1c0.5-0.1,0.9-0.6,1.3-0.7c0.5-0.1,1,0.3,1.5,0.2s0.9-0.5,1.4-0.6
				c0.5,0,0.9,0,1.4,0s0.9,0.1,1.4,0.2c0.5,0,0.9,0.2,1.4,0.2s0.9,0,1.4,0.1c0.5,0,0.9-0.2,1.4-0.2s0.9,0.1,1.4,0.1s0.9,0,1.4,0.1
				c0.5,0,0.9,0.1,1.4,0.1s0.9,0.1,1.4,0.1s0.9,0,1.4,0s0.9,0.2,1.4,0.2s0.9-0.1,1.4-0.1s0.9,0,1.4,0s0.9-0.2,1.4-0.2
				s0.9,0.4,1.4,0.4s0.9-0.3,1.4-0.3s0.9,0,1.4,0s0.9,0.4,1.4,0.5c0.5,0,0.9-0.4,1.4-0.4s0.9,0.4,1.4,0.4s1-0.1,1.5-0.1
				s1-0.1,1.5-0.1s1,0.1,1.5,0c0.5,0,1-0.1,1.5-0.1s1,0,1.5,0s1-0.1,1.5,0c0.5,0,1,0.1,1.5,0.2c0.5,0,1,0.2,1.5,0.2s1-0.2,1.5-0.1
				c0.5,0,1-0.2,1.5-0.2s1,0.5,1.5,0.5c0.5,0.1,1-0.1,1.5,0s1,0.1,1.5,0.1c0.5,0.1,1,0.4,1.5,0.4c0.5,0.1,1-0.1,1.5,0
				c0.5,0,1,0.1,1.5,0.1s1-0.1,1.5-0.1s1,0,1.5,0s1-0.1,1.5-0.2c0.5,0,1-0.2,1.5-0.2s1,0.2,1.5,0.2c0.4,0,0.9-0.3,1.4-0.2
				c0.4,0.1,0.8,0.4,1.2,0.5s0.8,0.4,1.2,0.6c0.4,0.2,0.8,0.3,1.2,0.5c0.4,0.1,0.3,0.4,0.2,0.9s-0.1,0-0.5,0c-0.5,0-0.9,0.4-1.4,0.4
				s-0.9-0.4-1.4-0.3c-0.5,0.1-0.9,0.5-1.3,0.5c-0.5,0-0.9,0-1.4,0s-1-0.4-1.5-0.5s-1-0.1-1.5-0.2c-0.5-0.1-1-0.1-1.5-0.1
				c-0.5-0.1-1-0.1-1.5-0.2c-0.5-0.1-1-0.3-1.5-0.3s-1,0.3-1.5,0.3s-1-0.3-1.5-0.3s-1-0.1-1.5-0.1s-1,0.1-1.5,0.1s-1,0-1.5,0
				s-1-0.1-1.5,0c-0.5,0-1,0.3-1.5,0.4c-0.5,0-1,0-1.5,0s-1-0.1-1.5-0.1s-1,0.4-1.5,0.4s-1-0.2-1.5-0.2s-1,0.1-1.5,0.1s-1,0-1.5,0
				s-1-0.3-1.5-0.3s-1,0-1.5-0.1c-0.5,0-1,0.1-1.5,0.1s-1-0.1-1.5-0.1s-1,0.1-1.5,0.1s-1,0.1-1.5,0.1s-1-0.3-1.5-0.3s-1-0.2-1.5-0.3
				s-1.1,0.2-1.6,0.1c-0.5-0.1-1-0.4-1.5-0.5s-1-0.2-1.5-0.3c-0.5,0-1,0.1-1.6,0.1c-0.5,0-1,0-1.4,0c-0.5,0-0.9,0.3-1.4,0.3
				s-1-0.3-1.4-0.3s-0.9,0.1-1.4,0.1s-1,0-1.4,0c-0.5,0-0.9,0.3-1.4,0.3s-0.9,0.1-1.4,0.2c-0.5,0.1-1,0.1-1.4,0.2
				c-0.5,0.1-1,0.1-1.4,0.1c-0.5,0-1-0.2-1.4-0.2c-0.5,0-1,0.2-1.5,0.1c-0.5-0.1-0.9-0.2-1.4-0.3s-1-0.2-1.4-0.2
				c-0.5-0.1-0.9-0.3-1.4-0.4c-0.5-0.1-1,0.1-1.4,0.1c-0.5,0-0.9,0.1-1.4,0.1s-1-0.1-1.4-0.1c-0.5,0.1-0.9,0.2-1.4,0.3
				s-0.9,0.5-1.3,0.5c-0.5,0.1-1-0.2-1.4-0.1c-0.5,0.1-0.9,0.3-1.4,0.3s-1,0.2-1.4,0.2c-0.5,0-0.9-0.1-1.4-0.1s-0.9-0.5-1.4-0.6
				c-0.5,0-1,0-1.4,0c-0.5,0-0.9-0.2-1.4-0.2s-1,0.2-1.4,0.2c-0.5,0-1.8,0.7-1.8,0c-0.1-0.7,1.2-0.5,1.7-0.6
				c0.4-0.1,0.9-0.3,1.3-0.5c0.4-0.1,1,0,1.4-0.2c0.4-0.1,0.8-0.4,1.3-0.5c0.4-0.1,0.9,0,1.4-0.1s0.9-0.4,1.4-0.4s0.9,0.3,1.4,0.3
				s0.9-0.3,1.4-0.2c0.5,0,0.9-0.1,1.4-0.1s1,0.3,1.5,0.2c0.5,0,1-0.1,1.4-0.1c0.5,0,1,0,1.4,0c0.5,0,1-0.1,1.4-0.1
				C44.6,102.8,45,102.8,45.5,102.8z"/>
		</g>
		<g>
			<path d="M91.7,126.9c-0.4,0-0.9-0.1-1.3-0.1c-0.4,0-0.9-0.2-1.3-0.3c-0.4,0-0.9,0.1-1.3,0c-0.4-0.1-0.8-0.4-1.3-0.4
				c-0.4-0.1-0.9,0.2-1.3,0.1c-0.4,0-0.9-0.4-1.3-0.4c-0.4,0-0.9,0.3-1.3,0.3c-0.4,0-0.9-0.3-1.3-0.3c-0.4,0-0.9-0.1-1.3-0.2
				c-0.4,0-0.9,0.2-1.3,0.2c-0.4-0.1-0.9-0.2-1.3-0.3c-0.4-0.1-0.9,0-1.3-0.1c-0.4-0.1-0.9-0.1-1.3-0.2c-0.4-0.1-0.8-0.5-1.2-0.6
				c-0.4-0.1-0.9,0.2-1.4,0.1c-0.4-0.1-0.9-0.1-1.3-0.2c-0.4-0.1-0.8-0.4-1.3-0.6c-0.4-0.1-0.9-0.2-1.3-0.3s-0.9-0.3-1.3-0.4
				c-0.4-0.1-0.9,0-1.4-0.1c-0.4,0-0.9-0.2-1.4-0.2c-0.4,0-0.9,0.3-1.3,0.3c-0.4,0.1-0.8,0.4-1.3,0.5c-0.4,0.1-0.9,0-1.4,0.1
				c-0.4,0.1-0.9-0.1-1.4-0.1c-0.4,0-0.9-0.2-1.3-0.2s-0.9,0.4-1.3,0.4s-0.9-0.2-1.3-0.2s-0.9-0.1-1.3,0c-0.4,0-0.9,0.1-1.3,0.2
				c-0.4,0-0.9-0.1-1.3,0s-0.9,0.2-1.3,0.2c-0.4,0.1-0.9,0.3-1.3,0.4c-0.4,0.1-0.8,0.4-1.3,0.5c-0.4,0.1-0.9,0.1-1.3,0.1
				c-0.4,0.1-0.9,0-1.3,0s-0.9,0.3-1.3,0.3s-0.9-0.3-1.3-0.3s-0.9,0.1-1.3,0.1s-0.9,0-1.3,0.1c-0.4,0-0.9,0.1-1.3,0.2
				c-0.4,0.1-0.9,0.1-1.3,0.1c-0.4,0.1-0.8,0.4-1.3,0.4c-0.4,0.1-0.9,0-1.3,0c-0.4,0.1-0.9,0.3-1.3,0.4c-0.4,0-0.9,0-1.3,0
				s-0.9,0.2-1.3,0.3c-0.5,0-0.9,0.2-1.4,0.2c-0.5,0.1-1-0.1-1.4,0c-0.5,0.1-0.9,0.3-1.4,0.4c-0.5,0.1-1-0.2-1.4-0.2
				c-0.5,0-0.9,0.2-1.4,0.2c-0.3,0-0.6,0-0.9-0.1c-0.4-0.1-0.8-0.2-0.9-0.8c-0.1-0.7,0.1-1.3,0.6-1.4c0.5-0.1,1-0.2,1.5-0.3
				s1-0.4,1.5-0.5s1-0.1,1.5-0.2c0.5-0.1,1-0.1,1.5-0.2c0.5-0.1,1-0.2,1.5-0.2c0.5-0.1,1,0.2,1.5,0.2c0.5-0.1,1-0.2,1.5-0.3
				s1-0.2,1.4-0.3c0.5-0.1,1,0.1,1.5,0c0.5,0,1,0,1.5,0s1-0.2,1.4-0.2c0.5,0,1-0.1,1.5-0.2c0.5-0.1,1-0.2,1.4-0.2
				c0.5-0.1,1-0.1,1.5-0.2c0.5-0.1,0.9-0.3,1.4-0.4c0.5-0.1,1-0.3,1.4-0.3c0.5-0.1,1,0,1.5,0s1,0,1.6,0c0.5,0,1,0.2,1.6,0.2
				c0.5,0.1,1.1,0,1.6,0s1,0.3,1.5,0.2c0.5,0,1-0.3,1.5-0.3s1.1,0.2,1.6,0.2s1-0.3,1.5-0.4c0.5,0,1-0.1,1.6-0.1c0.5,0,1,0.2,1.6,0.2
				c0.5,0,1-0.2,1.5-0.3s1-0.1,1.6-0.1c0.5,0,1,0.1,1.5,0.1s1-0.1,1.5-0.1c0.5,0.1,0.9,0.4,1.4,0.5s1,0.1,1.5,0.2
				c0.5,0.1,1,0.2,1.5,0.3s1.1-0.3,1.6-0.2s1,0.3,1.5,0.3s1,0.3,1.5,0.3s1-0.2,1.5-0.2s1,0.2,1.5,0.2s1-0.2,1.5-0.2s1,0.3,1.5,0.3
				s1-0.1,1.5,0c0.5,0,1.1,0.2,1.6,0.3c0.5,0,1.1-0.2,1.6-0.2s1.1,0,1.6,0s1.1,0.2,1.6,0.2s1.1,0.1,1.6,0.1s1.1,0.1,1.6,0.2
				c0.5,0,1.1-0.3,1.6-0.2c0.5,0,1.1,0.4,1.6,0.4c0.4,0,0.9,0,1.3,0c0.4,0,0.9-0.4,1.3-0.4c0.4,0,0.9,0.2,1.4,0.2
				c0.4,0,0.8-0.4,1.3-0.5c0.4-0.1,0.9,0.2,1.4,0.2c0.4-0.1,0.9-0.2,1.3-0.3c0.4-0.1,0.8-0.4,1.3-0.4c0.4-0.1,0.9,0.1,1.4,0.1
				c0.4,0,0.9-0.5,1.3-0.5c0.4,0,0.9,0.1,1.3,0.1c0.4,0,0.9,0.6,0.9,1.1c0.1,0.6-0.4,0.7-0.8,0.8c-0.5,0.2-1.1,0-1.6,0.1
				s-1,0.3-1.5,0.4c-0.5,0.1-1,0.4-1.5,0.4c-0.5,0.1-1,0.2-1.5,0.2c-0.5,0.1-1.1-0.3-1.6-0.3s-1,0.6-1.5,0.6c-0.5,0.1-1-0.1-1.4-0.1
				c-0.5,0.1-0.9,0.4-1.4,0.5s-1,0-1.4,0.1c-0.5,0.1-1-0.1-1.4-0.1c-0.5,0-0.9,0.2-1.4,0.3C92.7,126.7,92.2,126.9,91.7,126.9z"/>
		</g>
		<g>
			<path d="M52.1,143.9c0.5,0,1,0,1.5,0s1-0.4,1.4-0.5c0.5,0,1,0,1.5,0s1,0.1,1.5,0.1s1-0.1,1.4-0.1c0.5,0,1,0.1,1.5,0.1
				s1,0.1,1.5,0.1s1-0.1,1.4-0.2c0.5,0,1-0.2,1.4-0.2c0.5,0,1,0.1,1.4,0.1c0.5,0,1-0.4,1.5-0.4s0.9,0.5,1.4,0.5s1-0.2,1.5-0.2
				s1,0,1.4,0c0.5,0,1,0.3,1.4,0.3c0.5,0,1-0.1,1.5-0.1s1,0,1.5-0.1c0.5,0,1-0.3,1.5-0.3s1-0.1,1.5-0.1s1,0,1.5,0s1,0.4,1.5,0.5
				c0.7,0.1,1.7-0.2,1.7,0.6c0,1-0.9,1.2-1.6,1.3c-0.5,0-0.9-0.1-1.4-0.1s-0.9-0.3-1.4-0.3s-1,0.3-1.4,0.2c-0.5,0-0.9-0.4-1.4-0.4
				s-0.9,0.2-1.4,0.2s-0.9-0.1-1.4-0.1s-0.9,0-1.4,0s-0.9,0.4-1.4,0.4s-0.9-0.2-1.4-0.2s-0.9,0-1.4,0s-1.1,0-1.6,0s-1.1,0.1-1.6,0.1
				s-1.1,0.2-1.6,0.2s-1.1-0.1-1.6,0c-0.5,0-1.1,0.2-1.6,0.2s-1.1,0-1.6,0s-1.1,0-1.6,0s-1.1,0-1.6,0s-1.1-0.1-1.6,0s-1.1,0-1.6,0.1
				s-1,0.3-1.6,0.3c-0.5,0.1-1.1,0.2-1.6,0.2s-1.1-0.1-1.6-0.1s-1.1,0.2-1.6,0.2s-1.1-0.1-1.6-0.1s-1.1,0-1.6,0s-0.9-0.4-1.4-0.4
				s-0.9,0.3-1.4,0.2c-0.5,0-0.9,0.1-1.4,0.1s-0.9-0.1-1.4-0.1s-0.9-0.2-1.4-0.2s-0.9-0.1-1.4-0.1s-0.9,0.1-1.4,0.2
				c-0.4,0.1-0.8-0.1-1.3-0.1c-0.4,0-0.9,0.3-1.3,0.3c-0.4-0.1-0.9-0.1-1.3-0.2c-0.4-0.1-0.8-0.3-1.2-0.4c-0.4-0.1-0.7,0-0.7-0.6
				s0.2-0.9,0.7-0.9c0.5-0.1,1.1-0.4,1.6-0.4s1.1,0.1,1.6,0.2c0.5,0,1.1,0.1,1.6,0.1s1,0.1,1.6,0c0.5-0.1,1-0.2,1.5-0.3s1.1,0,1.6,0
				c0.5-0.1,1-0.1,1.6-0.1c0.5,0,1-0.4,1.5-0.4s0.9,0,1.4,0s0.9,0.2,1.4,0.2s0.9-0.3,1.4-0.3s0.9-0.2,1.4-0.2s1,0,1.4,0.1
				c0.5,0,0.9,0.3,1.4,0.4c0.5,0.1,1,0,1.4,0.1C51.3,143.4,51.7,143.9,52.1,143.9z"/>
		</g>
	</g>
</g>
</svg>
