<?xml version="1.0" encoding="utf-8"?>
<!-- Generator: Adobe Illustrator 23.0.2, SVG Export Plug-In . SVG Version: 6.00 Build 0)  -->
<svg version="1.1" id="Layer_1" xmlns="http://www.w3.org/2000/svg" xmlns:xlink="http://www.w3.org/1999/xlink" x="0px" y="0px"
	 viewBox="0 0 24 24" style="enable-background:new 0 0 24 24;" xml:space="preserve">
<style type="text/css">
	.st0{fill:#E5618B;}
</style>
<g>
	<g>
		<g>
			<path class="st0" d="M15,20.7c0,0-3.8-5-4-6l0,0c-0.2,1-2,6-2,6l-6-1l5.8-8.8L5,3.7h5c0,0,1,3.9,1.2,4.7h0
				C11.4,7.5,15,3.7,15,3.7h5l-6.9,7.4l7.9,9.6H15z"/>
		</g>
	</g>
	<g>
		<g>
			<path d="M17.8,3.3l-4.8,7.8l4.9,7.7h-3.7c0,0-3.3-4.3-3.5-5.3h0c-0.2,1-3.2,5.3-3.2,5.3H4.1l4.7-7.9L4.2,3.3h3.7
				c0,0,3,4.2,3.2,5.1h0c0.2-0.9,3.1-5.1,3.1-5.1H17.8 M19.6,2.3h-1.8h-3.5h-0.5l-0.3,0.4c-0.5,0.8-1.5,2.3-2.3,3.5
				c-0.7-1.2-1.7-2.6-2.4-3.6L8.5,2.3H7.9H4.2H2.5l0.9,1.5l4.3,7.1l-4.4,7.4l-0.9,1.5h1.8h3.5h0.5l0.3-0.4c0.6-0.8,1.6-2.4,2.4-3.7
				c0.9,1.3,2,2.9,2.7,3.8l0.3,0.4h0.5H18h1.8l-1-1.5l-4.6-7.2l4.5-7.3L19.6,2.3L19.6,2.3z"/>
		</g>
	</g>
</g>
</svg>
