<?xml version="1.0" encoding="utf-8"?>
<!-- Generator: Adobe Illustrator 24.2.2, SVG Export Plug-In . SVG Version: 6.00 Build 0)  -->
<svg version="1.1" id="Layer_1" xmlns="http://www.w3.org/2000/svg" xmlns:xlink="http://www.w3.org/1999/xlink" x="0px" y="0px"
	 viewBox="0 0 181.25 184.38" style="enable-background:new 0 0 181.25 184.38;" xml:space="preserve">
<style type="text/css">
	.st0{fill:#F8B618;}
	.st1{fill:#010101;}
</style>
<g>
	<g>
		<g>
			<polygon class="st0" points="171.04,92.33 171.12,93.54 171.14,94.76 170.59,95.94 170.68,97.16 170.56,98.36 170.25,99.54 
				170.37,100.76 170.04,101.93 170.04,103.15 170,104.36 169.57,105.51 169.37,106.7 169.09,107.87 168.82,109.04 168.85,110.28 
				168.73,111.49 168.22,112.61 168.06,113.81 167.79,114.99 167.01,116.02 166.69,117.17 166.58,118.41 166.1,119.52 
				165.68,120.65 165.36,121.82 164.98,122.97 164.61,124.13 163.6,125 163.54,126.29 162.94,127.35 162.34,128.4 161.77,129.46 
				161.43,130.65 160.62,131.58 159.92,132.57 159.18,133.53 158.85,134.74 158.16,135.73 157.32,136.62 156.67,137.64 
				155.94,138.59 155.59,139.83 154.66,140.64 153.82,141.52 153.23,142.59 152.28,143.37 151.54,144.32 150.96,145.42 
				150.21,146.37 149.19,147.07 148.48,148.07 147.67,148.97 146.64,149.63 145.7,150.39 144.89,151.3 143.83,151.92 143.17,152.99 
				142.18,153.69 141.3,154.53 140.19,155.07 139.2,155.75 138.37,156.66 137.43,157.41 136.38,158.01 135.31,158.58 134.42,159.42 
				133.26,159.85 132.43,160.78 131.39,161.41 130.21,161.77 129.3,162.62 128.25,163.22 127.02,163.47 125.87,163.85 
				124.85,164.49 123.86,165.23 122.82,165.87 121.58,166.02 120.55,166.7 119.34,166.92 118.28,167.52 117.17,167.99 
				115.95,168.17 114.76,168.41 113.59,168.66 112.5,169.24 111.3,169.41 110.13,169.71 109.01,170.21 107.77,170.18 106.67,170.83 
				105.42,170.66 104.24,170.93 103.06,171.15 101.89,171.52 100.65,171.29 99.51,171.95 98.29,171.91 97.08,171.82 95.88,171.99 
				94.67,171.98 93.47,172.11 92.26,172.09 91.06,171.92 89.85,172.06 88.65,171.85 87.44,172.01 86.23,171.99 85.05,171.69 
				83.82,171.89 82.64,171.54 81.44,171.43 80.22,171.53 79,171.51 77.84,171.11 76.61,171.12 75.53,170.31 74.28,170.45 
				73.1,170.16 71.99,169.66 70.72,169.73 69.63,169.16 68.53,168.62 67.35,168.38 66.2,168.02 65.08,167.56 63.96,167.14 
				62.74,166.96 61.52,166.77 60.61,165.81 59.3,165.8 58.22,165.26 57.09,164.83 55.98,164.34 55.03,163.55 53.99,162.93 
				52.92,162.38 51.9,161.74 50.82,161.19 49.82,160.52 48.86,159.8 47.65,159.44 46.85,158.47 45.58,158.19 44.58,157.52 
				43.9,156.4 42.92,155.71 41.72,155.29 40.8,154.51 39.94,153.65 39.23,152.62 37.99,152.21 37.21,151.28 36.23,150.56 
				35.54,149.53 34.45,148.92 33.77,147.9 33.11,146.87 32.34,145.94 31.38,145.19 30.66,144.22 29.53,143.59 28.87,142.58 
				28.06,141.68 27.26,140.76 26.73,139.65 25.89,138.77 25.55,137.54 24.88,136.54 23.98,135.69 23.26,134.72 22.7,133.64 
				22.37,132.44 21.53,131.54 21.09,130.41 20.65,129.28 19.97,128.27 19.38,127.23 18.84,126.15 18.16,125.13 17.99,123.9 
				17.36,122.85 16.65,121.84 16.4,120.64 16.21,119.43 15.53,118.39 15.03,117.29 14.77,116.1 14.21,115.01 13.86,113.86 
				14.01,112.56 13.33,111.49 13.14,110.3 13.22,109.04 12.9,107.88 12.74,106.69 12.19,105.56 12.01,104.37 12.28,103.11 
				11.7,101.97 11.82,100.75 11.45,99.57 11.76,98.34 11.15,97.17 11.29,95.95 11.41,94.74 11.38,93.54 11.43,92.33 11.25,91.13 
				11.32,89.92 11.28,88.71 11.38,87.51 11.4,86.3 11.48,85.09 11.42,83.87 11.97,82.72 11.84,81.49 12.44,80.36 12.24,79.1 
				12.83,77.98 12.5,76.69 12.96,75.55 13.48,74.43 13.43,73.18 14.07,72.1 14.18,70.89 14.22,69.64 15.02,68.62 15.06,67.37 
				15.34,66.19 16.11,65.18 16.29,63.96 16.85,62.89 17.53,61.86 17.94,60.73 18.12,59.49 18.71,58.43 19.22,57.34 19.79,56.28 
				20.42,55.24 20.99,54.18 21.26,52.95 22.27,52.14 22.87,51.1 23.19,49.88 23.78,48.82 24.53,47.87 25.35,46.97 26.14,46.05 
				26.54,44.84 27.59,44.12 28.13,43.02 29.18,42.32 29.99,41.42 30.34,40.14 31.51,39.56 32.3,38.65 33.05,37.71 33.9,36.86 
				34.68,35.94 35.29,34.83 36.55,34.42 37.23,33.37 38.17,32.61 39.15,31.91 40.11,31.18 41.01,30.39 41.73,29.35 42.75,28.7 
				43.86,28.17 44.6,27.13 45.85,26.82 46.68,25.9 47.78,25.38 48.89,24.88 49.62,23.78 50.96,23.66 51.89,22.87 52.84,22.1 
				54.01,21.73 55.18,21.36 56.24,20.8 57.24,20.11 58.37,19.69 59.38,18.99 60.44,18.42 61.71,18.33 62.67,17.47 63.92,17.38 
				64.93,16.62 66.07,16.21 67.36,16.29 68.43,15.67 69.67,15.6 70.83,15.28 71.93,14.72 73.06,14.24 74.25,14.05 75.52,14.24 
				76.65,13.73 77.86,13.66 79.07,13.59 80.21,13.02 81.44,13.13 82.63,12.92 83.82,12.75 85.02,12.54 86.24,12.68 87.44,12.51 
				88.65,12.8 89.85,12.56 91.06,12.68 92.27,12.48 93.48,12.37 94.68,12.59 95.87,12.84 97.11,12.47 98.29,12.83 99.48,13.07 
				100.67,13.26 101.85,13.5 103.06,13.54 104.31,13.35 105.42,14.02 106.66,13.98 107.87,14.06 109.02,14.48 110.2,14.72 
				111.27,15.43 112.44,15.68 113.65,15.83 114.9,15.87 115.91,16.67 117.2,16.61 118.29,17.16 119.46,17.49 120.56,17.99 
				121.69,18.41 122.72,19.08 123.95,19.28 124.97,19.96 126.08,20.43 127.12,21.06 128.1,21.78 129.33,22.05 130.25,22.88 
				131.37,23.35 132.33,24.08 133.23,24.92 134.33,25.43 135.41,25.98 136.27,26.86 137.55,27.13 138.3,28.15 139.21,28.94 
				140.43,29.34 141.42,30.04 142.21,30.97 143.07,31.83 143.92,32.68 144.91,33.38 145.77,34.23 146.57,35.14 147.43,35.98 
				148.4,36.71 149.41,37.42 149.9,38.62 150.78,39.44 151.57,40.35 152.38,41.25 152.94,42.34 153.85,43.15 154.59,44.11 
				155.13,45.2 155.92,46.12 156.53,47.15 157.38,48.03 158.28,48.88 158.86,49.94 159.34,51.07 159.83,52.17 160.48,53.19 
				161.07,54.24 161.91,55.15 162.02,56.45 162.85,57.39 163.61,58.36 164.04,59.49 164.2,60.74 164.8,61.79 165.15,62.95 
				165.99,63.92 166.29,65.1 166.49,66.3 166.96,67.42 167.34,68.56 167.74,69.7 167.84,70.93 168.05,72.12 168.8,73.17 
				169.11,74.34 168.94,75.61 169.66,76.69 169.88,77.89 169.9,79.11 169.78,80.35 169.97,81.53 170.46,82.69 170.71,83.88 
				170.23,85.13 170.33,86.33 170.44,87.53 170.61,88.72 170.61,89.93 170.67,91.13 			"/>
		</g>
		<g>
			<g>
				<g>
					<path d="M71.52,65.31c-0.03-0.4-0.28-0.77-0.26-1.17c0.02-0.4,0.19-0.75,0.27-1.14c0.08-0.39-0.08-0.84,0.07-1.22
						c0.19-0.45,0.34-0.96,0.62-1.3c0.31-0.36,0.95-0.27,1.37-0.47c0.4-0.19,0.72-0.82,1.22-0.83c0.37-0.01,0.71,0.45,1.05,0.53
						c0.36,0.08,0.89-0.2,1.2-0.01c0.31,0.18,0.7,0.46,0.94,0.73c0.23,0.26-0.06,0.89,0.09,1.24c0.13,0.31,0.58,0.57,0.69,1.03
						c0.09,0.35-0.15,0.82-0.07,1.25c0.07,0.37,0.14,0.76,0.2,1.18c0.06,0.38,0.43,0.74,0.48,1.15c0.05,0.39,0.34,0.77,0.38,1.18
						c0.04,0.39-0.01,0.81,0.02,1.22c0.03,0.4-0.49,0.84-0.46,1.25c0.03,0.4,0.4,0.78,0.42,1.18c0.02,0.4-0.13,0.81-0.12,1.22
						c0.01,0.4-0.12,0.81-0.11,1.21c0.01,0.41,0.5,0.81,0.51,1.21c0,0.41-0.32,0.82-0.32,1.21c0,0.41,0.09,0.82,0.08,1.21
						c-0.01,0.42,0.03,0.82,0.01,1.22c-0.02,0.42,0.09,0.84,0.06,1.22c-0.03,0.42-0.33,0.81-0.37,1.18
						c-0.05,0.43,0.02,0.86-0.05,1.22c-0.08,0.46-0.57,0.74-0.68,1.05c-0.13,0.39-0.05,0.8-0.24,1.09
						c-0.22,0.34-0.56,0.48-0.85,0.69c-0.31,0.24-0.53,0.61-0.89,0.68c-0.36,0.07-0.81,0.22-1.19,0.12
						c-0.34-0.09-0.63-0.45-0.97-0.68c-0.29-0.19-0.42-0.59-0.69-0.89c-0.3-0.32-0.99-0.34-1.21-0.69
						c-0.22-0.37-0.13-0.92-0.28-1.31c-0.15-0.39-0.13-0.84-0.24-1.25c-0.1-0.41-0.12-0.82-0.19-1.24
						c-0.07-0.42-0.02-0.84-0.08-1.26c-0.06-0.42-0.27-0.82-0.33-1.24c-0.01-0.06-0.5-0.47-0.52-1.14
						c-0.01-0.34,0.56-0.75,0.54-1.19c-0.01-0.37-0.36-0.75-0.37-1.17c-0.01-0.38-0.21-0.77-0.22-1.17
						c-0.01-0.39,0.18-0.79,0.17-1.18c-0.01-0.4-0.08-0.79-0.09-1.18c-0.01-0.41,0.5-0.82,0.49-1.2c-0.01-0.42-0.1-0.81-0.11-1.18
						c-0.01-0.44-0.24-0.84-0.25-1.17C71.27,65.83,71.52,65.37,71.52,65.31z"/>
				</g>
				<g>
					<path d="M111.32,66.12c0.04-0.4,0.22-0.79,0.2-1.18c-0.02-0.4,0.23-0.85,0.15-1.25c-0.08-0.39-0.27-0.79-0.42-1.17
						c-0.18-0.46-0.77-0.66-1.05-1c-0.3-0.37-0.55-0.71-0.96-0.92c-0.4-0.19-0.81-0.28-1.31-0.3c-0.37-0.02-0.72-0.04-1.07,0.04
						c-0.36,0.08-0.74,0.11-1.05,0.29c-0.31,0.18-0.61,0.42-0.85,0.69c-0.23,0.26-0.03,0.76-0.19,1.11
						c-0.13,0.3-0.79,0.48-0.91,0.94c-0.09,0.35-0.17,0.76-0.25,1.19c-0.07,0.37,0.3,0.85,0.23,1.27c-0.06,0.38-0.03,0.79-0.08,1.2
						c-0.05,0.39-0.23,0.77-0.28,1.18c-0.04,0.39-0.29,0.77-0.33,1.18c-0.04,0.4-0.21,0.79-0.25,1.19c-0.03,0.4,0.41,0.83,0.39,1.24
						c-0.03,0.4-0.55,0.77-0.57,1.18c-0.02,0.4,0.25,0.82,0.24,1.22c-0.02,0.41-0.49,0.8-0.5,1.2c-0.01,0.41-0.08,0.82-0.08,1.22
						c0,0.41,0.68,0.82,0.68,1.21c0,0.42-0.6,0.83-0.59,1.23c0.01,0.42,0.06,0.83,0.08,1.22c0.02,0.42,0.17,0.83,0.21,1.21
						c0.04,0.44,0.06,0.85,0.12,1.21c0.07,0.46,0.27,0.85,0.38,1.17c0.13,0.39,0.66,0.52,0.85,0.81c0.22,0.34-0.04,1.09,0.24,1.3
						c0.31,0.24,0.87,0.1,1.23,0.18c0.36,0.08,0.74,0.15,1.12,0.05c0.34-0.08,0.78-0.12,1.12-0.34c0.29-0.19,0.67-0.41,0.95-0.7
						c0.3-0.32,0.56-0.71,0.78-1.06c0.23-0.36,0.02-0.95,0.18-1.33c0.16-0.39,0.41-0.73,0.52-1.14c0.11-0.41,0.48-0.76,0.56-1.18
						c0.08-0.41-0.35-0.91-0.29-1.33c0.06-0.42,0.69-0.75,0.76-1.16c0.01-0.06-0.31-0.55-0.28-1.23c0.02-0.34,0.24-0.73,0.25-1.17
						c0.02-0.37,0.25-0.75,0.26-1.17c0.02-0.38-0.64-0.8-0.63-1.21c0.02-0.39,0.75-0.75,0.76-1.15c0.02-0.4-0.25-0.8-0.23-1.19
						c0.02-0.41-0.22-0.81-0.2-1.19c0.02-0.42,0.3-0.8,0.31-1.17c0.02-0.44,0.29-0.83,0.3-1.17
						C111.84,66.64,111.32,66.18,111.32,66.12z"/>
				</g>
			</g>
		</g>
		<g>
			<path class="st1" d="M51,112.61c0.22-0.57,0.67-0.37,1.25-0.53c0.6-0.17,0.67,0.21,1.29,0.1c0.61-0.11,0.56-0.37,1.17-0.43
				c0.62-0.07,0.64,0.26,1.26,0.18c0.52-0.07,0.62-0.09,0.86-0.56c0.24-0.49,0.15-0.54-0.28-0.88c-0.44-0.35-0.47-0.18-1.03-0.2
				c-0.66-0.02-0.66,0.04-1.31,0.03c-0.65,0-0.64,0.1-1.29,0.14c-0.65,0.04-0.67-0.23-1.31-0.13c-0.65,0.1-0.59,0.31-1.22,0.52
				c-0.62,0.21-0.58,0.28-1.19,0.54c-0.54,0.23-0.67-0.05-1.18,0.24c-0.51,0.28-0.35,0.5-0.79,0.89c-0.44,0.39-0.42,0.39-0.84,0.79
				c-0.42,0.4-0.43,0.35-0.79,0.81c-0.36,0.46-0.52,0.32-0.87,0.79c-0.35,0.46-0.25,0.53-0.64,0.96c-0.39,0.44-0.68,0.26-0.96,0.77
				c-0.29,0.52-0.12,0.64-0.1,1.23c0.01,0.38-0.05,0.58,0.33,0.53c0.59-0.08,0.41-0.31,0.75-0.79c0.37-0.53,0.1-0.7,0.5-1.21
				c0.39-0.52,0.77-0.16,1.25-0.6c0.48-0.43,0.38-0.54,0.85-0.97c0.47-0.43,0.46-0.44,0.99-0.81c0.47-0.33,0.36-0.58,0.91-0.41
				c0.53,0.16,0.31,0.3,0.48,0.83c0.19,0.59-0.02,0.64,0.12,1.24c0.14,0.61,0.15,0.64,0.42,1.19c0.29,0.58,0.55,0.41,0.87,0.98
				c0.3,0.54,0.03,0.66,0.28,1.22c0.24,0.54,0.31,0.5,0.55,1.04c0.24,0.54,0.2,0.53,0.39,1.09c0.19,0.57,0,0.71,0.32,1.22
				c0.33,0.52,0.7,0.24,1.1,0.7c0.38,0.44,0.46,0.42,0.71,0.95c0.27,0.54,0.02,0.66,0.29,1.2c0.27,0.53,0.34,0.49,0.75,0.91
				c0.43,0.44,0.63,0.23,1.02,0.7c0.39,0.47-0.08,0.81,0.3,1.28c0.38,0.46,0.54,0.34,1.01,0.72c0.45,0.37,0.63,0.19,1,0.65
				c0.38,0.48,0.14,0.65,0.55,1.09c0.41,0.44,0.54,0.27,1,0.66c0.45,0.38,0.48,0.36,0.86,0.81c0.39,0.45,0.34,0.48,0.77,0.9
				c0.43,0.41,0.46,0.32,0.98,0.62c0.53,0.3,0.42,0.46,0.93,0.81c0.49,0.34,0.61,0.18,1.04,0.6c0.43,0.42,0.35,0.49,0.82,0.85
				c0.47,0.36,0.46,0.36,0.97,0.67c0.51,0.3,0.53,0.27,1.03,0.6c0.5,0.33,0.53,0.26,1.03,0.58c0.51,0.31,0.49,0.33,0.98,0.67
				c0.5,0.35,0.32,0.6,0.85,0.89c0.53,0.3,0.58,0.2,1.15,0.42c0.55,0.21,0.63,0.04,1.15,0.31c0.53,0.27,0.51,0.31,1.03,0.59
				c0.52,0.29,0.45,0.41,0.96,0.72c0.51,0.31,0.5,0.35,1.04,0.61c0.54,0.26,0.54,0.3,1.12,0.44c0.59,0.14,0.72-0.33,1.3-0.13
				c0.57,0.2,0.41,0.6,0.98,0.79c0.58,0.19,0.59,0.06,1.19,0.18c0.58,0.12,0.6,0.06,1.16,0.25c0.56,0.19,0.51,0.33,1.07,0.52
				c0.56,0.2,0.56,0.23,1.14,0.38c0.58,0.15,0.62-0.09,1.21,0c0.61,0.1,0.6,0.08,1.21,0.15c0.61,0.06,0.6,0.18,1.21,0.22
				c0.61,0.04,0.61-0.02,1.22,0.01c0.62,0.03,0.65-0.15,1.25-0.05c0.62,0.1,0.55,0.44,1.16,0.58c0.6,0.13,0.61,0.19,1.22,0.19
				c0.62,0,0.61-0.21,1.23-0.2c0.61,0.01,0.6,0.31,1.21,0.33c0.61,0.02,0.62-0.32,1.23-0.33c0.61-0.01,0.61,0.11,1.23,0.12
				c0.61,0.01,0.61-0.04,1.22-0.09c0.62-0.05,0.63,0.07,1.25,0.02c0.62-0.04,0.61-0.02,1.23,0.02c0.63,0.04,0.63,0.02,1.26,0.03
				c0.62,0.01,0.61-0.11,1.23-0.17c0.62-0.06,0.63,0.06,1.25-0.04c0.62-0.1,0.62-0.09,1.24-0.2c0.61-0.11,0.59-0.25,1.21-0.3
				c0.62-0.05,0.66,0.24,1.27,0.14c0.62-0.1,0.54-0.46,1.15-0.6c0.61-0.13,0.62-0.05,1.23-0.17c0.61-0.13,0.61-0.09,1.22-0.16
				c0.64-0.08,0.62,0.04,1.24-0.15c0.61-0.18,0.44-0.46,1.01-0.75c0.54-0.28,0.67,0.01,1.24-0.19c0.58-0.2,0.66-0.04,1.21-0.3
				c0.55-0.26,0.44-0.48,1-0.72c0.57-0.25,0.56-0.25,1.14-0.5c0.56-0.24,0.48-0.34,0.98-0.71c0.5-0.36,0.61-0.22,1.06-0.64
				c0.45-0.42,0.27-0.65,0.77-1.01c0.51-0.36,0.71-0.05,1.22-0.4c0.51-0.34,0.38-0.49,0.8-0.94c0.43-0.44,0.35-0.52,0.77-0.96
				c0.42-0.44,0.51-0.36,0.98-0.74c0.48-0.39,0.65-0.2,1.09-0.64c0.43-0.44,0.28-0.56,0.72-0.99c0.45-0.44,0.54-0.31,0.96-0.79
				c0.42-0.47,0.23-0.58,0.63-1.09c0.38-0.49,0.53-0.33,0.95-0.78c0.41-0.45,0.17-0.65,0.58-1.11c0.41-0.46,0.68-0.21,1.08-0.68
				c0.39-0.47,0.11-0.66,0.4-1.2c0.29-0.54,0.45-0.45,0.75-0.97c0.3-0.52,0.31-0.51,0.63-1.02c0.32-0.51,0.28-0.54,0.59-1.05
				c0.31-0.52,0.25-0.55,0.51-1.09c0.26-0.55,0.42-0.48,0.65-1.04c0.23-0.56-0.08-0.7,0.19-1.24c0.27-0.54,0.41-0.47,0.68-1.01
				c0.27-0.54,0.3-0.52,0.59-1.05c0.3-0.54,0.35-0.5,0.64-1.04c0.28-0.53,0.25-0.55,0.48-1.11c0.23-0.56,0.22-0.56,0.43-1.13
				c0.21-0.57,0.17-0.58,0.39-1.15c0.22-0.56,0.35-0.5,0.62-1.04c0.27-0.54,0.25-0.56,0.47-1.13c0.22-0.57,0.23-0.56,0.45-1.13
				c0.21-0.56,0.18-0.57,0.39-1.14c0.21-0.57,0.05-0.63,0.31-1.18c0.24-0.52,0.12-0.67,0.68-0.8c0.56-0.13,0.57,0,1.01,0.37
				c0.46,0.4,0.22,0.64,0.65,1.07c0.44,0.43,0.57,0.27,0.98,0.73c0.41,0.46,0.39,0.46,0.76,0.94c0.36,0.47,0.3,0.49,0.84,0.73
				c0.56,0.25,0.59,0.46,1.14,0.19c0.61-0.29,0.64-0.36,0.68-1.03c0.04-0.67,0.03-0.71-0.37-1.24c-0.47-0.62-0.72-0.42-1.22-1.02
				c-0.41-0.49-0.32-0.56-0.78-1.01c-0.46-0.45-0.42-0.5-0.93-0.89c-0.51-0.4-0.56-0.32-1.15-0.6c-0.49-0.23-0.49-0.2-1.01-0.34
				c-0.55-0.15-0.48-0.37-1.03-0.54c-0.54-0.17-0.58-0.06-1.13-0.19c-0.55-0.13-0.56-0.08-1.09-0.26c-0.55-0.19-0.49-0.38-1.05-0.54
				c-0.71-0.21-0.78-0.35-1.52-0.27c-0.72,0.08-1.05,0.06-1.33,0.73c-0.21,0.51,0.35,0.41,0.86,0.62c0.5,0.22,0.45,0.24,0.98,0.37
				c0.52,0.13,0.57-0.04,1.06,0.17c0.64,0.27,0.66,0.24,1.3,0.53c0.67,0.3,1.09,0.05,1.39,0.72c0.26,0.57-0.12,0.77-0.42,1.32
				c-0.29,0.54-0.55,0.38-0.88,0.9c-0.32,0.51-0.43,0.47-0.61,1.04c-0.19,0.59,0.05,0.65-0.17,1.23c-0.21,0.57-0.39,0.46-0.67,0.99
				c-0.28,0.53-0.19,0.58-0.46,1.11c-0.27,0.53-0.33,0.5-0.62,1.02c-0.29,0.52-0.37,0.48-0.65,1.01c-0.28,0.53-0.07,0.64-0.34,1.17
				c-0.26,0.54-0.48,0.43-0.74,0.97c-0.26,0.54,0.06,0.71-0.26,1.22c-0.32,0.51-0.41,0.44-0.7,0.96c-0.29,0.53-0.4,0.45-0.72,0.97
				c-0.32,0.52-0.45,0.4-0.79,0.91c-0.33,0.5,0.06,0.76-0.3,1.25c-0.37,0.49-0.55,0.33-0.94,0.81c-0.38,0.47-0.29,0.52-0.65,1
				c-0.36,0.48-0.66,0.25-1.01,0.74c-0.36,0.49,0.08,0.8-0.3,1.28c-0.38,0.47-0.6,0.27-1.01,0.72c-0.41,0.44-0.23,0.59-0.63,1.04
				c-0.4,0.44-0.64,0.22-1.03,0.68c-0.4,0.47-0.05,0.78-0.5,1.19c-0.45,0.42-0.71,0.09-1.2,0.47c-0.47,0.37-0.46,0.38-0.9,0.78
				c-0.44,0.4-0.55,0.27-1,0.66c-0.46,0.4-0.3,0.57-0.74,0.98c-0.44,0.41-0.43,0.4-0.95,0.71c-0.53,0.31-0.47,0.36-0.98,0.7
				c-0.51,0.34-0.38,0.51-0.92,0.81c-0.54,0.3-0.63,0.07-1.19,0.34c-0.55,0.26-0.41,0.45-0.93,0.77c-0.51,0.32-0.61,0.17-1.16,0.4
				c-0.56,0.23-0.54,0.31-1.11,0.48c-0.58,0.18-0.71-0.18-1.26,0.07c-0.56,0.25-0.48,0.4-1.04,0.65c-0.55,0.24-0.52,0.31-1.09,0.49
				c-0.57,0.18-0.54,0.29-1.12,0.46c-0.58,0.17-0.6,0.1-1.2,0.22c-0.59,0.11-0.69-0.23-1.26-0.03c-0.59,0.21-0.41,0.66-1.02,0.79
				c-0.62,0.13-0.63-0.25-1.26-0.23c-0.6,0.02-0.65-0.04-1.23,0.12c-0.59,0.16-0.5,0.46-1.11,0.51c-0.61,0.06-0.6-0.2-1.21-0.16
				c-0.6,0.04-0.54,0.36-1.14,0.38c-0.6,0.02-0.56-0.18-1.16-0.16c-0.6,0.02-0.56,0.12-1.16,0.15c-0.59,0.02-0.55-0.08-1.14-0.17
				c-0.57-0.08-0.58,0.14-1.16,0.13c-0.58-0.01-0.58-0.08-1.15-0.12c-0.58-0.03-0.58-0.34-1.16-0.31c-0.6,0.03-0.57,0.49-1.17,0.47
				c-0.59-0.02-0.59-0.13-1.16-0.27c-0.56-0.14-0.53-0.29-1.11-0.29c-0.6,0-0.59,0.38-1.2,0.36c-0.6-0.02-0.64-0.11-1.21-0.28
				c-0.58-0.17-0.47-0.58-1.06-0.69c-0.58-0.11-0.65,0.29-1.23,0.19c-0.59-0.1-0.53-0.33-1.12-0.4c-0.61-0.07-0.59-0.11-1.2-0.15
				c-0.59-0.04-0.58-0.03-1.15-0.19c-0.57-0.16-0.54-0.27-1.11-0.44c-0.57-0.16-0.63,0.07-1.21-0.04c-0.59-0.11-0.63,0.02-1.2-0.17
				c-0.58-0.2-0.38-0.7-0.97-0.88c-0.58-0.18-0.7,0.31-1.29,0.17c-0.58-0.13-0.51-0.34-1.05-0.6c-0.54-0.25-0.56-0.2-1.12-0.42
				c-0.56-0.21-0.51-0.33-1.08-0.53c-0.56-0.19-0.66,0.07-1.2-0.17c-0.54-0.24-0.54-0.27-1.03-0.6c-0.51-0.35-0.31-0.61-0.83-0.95
				c-0.5-0.32-0.61-0.11-1.12-0.42c-0.51-0.31-0.36-0.53-0.87-0.84c-0.52-0.32-0.66-0.05-1.2-0.33c-0.53-0.27-0.48-0.35-0.97-0.68
				c-0.49-0.34-0.53-0.29-1.01-0.65c-0.48-0.36-0.53-0.32-0.92-0.76c-0.41-0.46-0.28-0.56-0.69-1.02c-0.39-0.45-0.49-0.33-0.93-0.74
				c-0.44-0.4-0.53-0.34-0.91-0.8c-0.38-0.46-0.09-0.7-0.49-1.14c-0.4-0.44-0.64-0.22-1.03-0.67c-0.39-0.45-0.07-0.7-0.44-1.17
				c-0.37-0.47-0.61-0.27-1.01-0.71c-0.4-0.45-0.24-0.56-0.57-1.05c-0.34-0.5-0.56-0.35-0.86-0.87c-0.3-0.51-0.22-0.56-0.53-1.06
				c-0.31-0.5-0.16-0.6-0.45-1.11c-0.29-0.51-0.44-0.43-0.77-0.92c-0.34-0.5-0.2-0.59-0.55-1.08c-0.35-0.49-0.5-0.39-0.76-0.93
				c-0.26-0.54-0.32-0.51-0.57-1.06c-0.23-0.52-0.03-0.61-0.28-1.12c-0.25-0.51-0.52-0.41-0.67-0.96c-0.16-0.57-0.07-0.58-0.22-1.15
				c-0.14-0.55,0.16-0.71-0.2-1.15C51.31,113.1,50.8,113.13,51,112.61z"/>
		</g>
	</g>
	<g>
		<polygon class="st1" points="172.7,79.53 172.6,78.34 171.94,77.24 171.73,76.07 171.97,74.82 171.26,73.75 171.01,72.6 
			170.87,71.42 170.76,70.19 170.26,69.1 169.41,68.2 168.68,67.11 168.67,65.69 168.12,64.52 167.55,63.35 166.89,62.23 
			166.31,61.07 165.65,60.04 165.01,59 164.16,58.08 163.69,56.94 162.91,55.98 162.2,54.98 161.68,53.87 160.93,52.9 160.5,51.73 
			159.72,50.77 158.99,49.79 158.65,48.56 157.57,47.8 157.17,46.61 156.3,45.71 155.99,44.48 155.03,43.74 154.33,42.79 
			153.52,41.93 152.75,41.03 151.78,40.33 150.9,39.54 150.14,38.62 149.35,37.74 148.73,36.69 147.48,36.27 146.66,35.41 
			146.02,34.37 144.97,33.76 144.41,32.6 143.42,31.93 142.27,31.49 141.47,30.55 140.24,30.28 139.21,29.69 138.17,29.13 
			137.19,28.44 136.23,27.69 134.93,27.69 133.89,27.11 132.93,26.32 131.77,26.01 130.7,25.5 129.52,25.27 128.46,24.71 
			127.25,24.58 126.07,24.36 124.98,23.89 123.98,23.11 122.79,22.93 121.6,22.74 120.49,22.33 119.38,21.9 118.16,21.77 
			117.04,21.33 115.9,20.96 114.73,20.69 113.57,20.4 112.45,19.95 111.34,19.47 110.14,19.3 109.05,18.71 107.81,18.76 
			106.6,18.68 105.44,18.35 104.31,17.89 103.11,17.76 101.89,17.82 100.74,17.38 99.53,17.39 98.36,17.1 97.24,17.01 96.12,16.92 
			94.99,16.88 93.88,16.67 92.75,16.71 91.63,16.88 91.33,16.52 90.16,16.65 88.97,16.68 87.8,16.99 86.61,16.97 85.41,16.8 
			84.23,17 83.08,17.32 81.92,17.59 80.71,17.44 79.6,18.01 78.4,17.98 77.23,18.15 76.12,18.58 74.9,18.56 73.74,18.78 
			72.62,19.15 71.54,19.69 70.38,19.92 69.28,20.37 68.2,20.86 67.11,21.36 65.92,21.57 64.77,21.93 63.66,22.39 62.54,22.81 
			61.39,23.18 60.36,23.84 59.31,24.43 58.28,25.04 57.1,25.38 56.09,26.02 55.11,26.71 54.04,27.25 53.02,27.87 51.91,28.35 
			50.94,29.03 49.95,29.69 49.07,30.53 48.04,31.12 47,31.72 46.01,32.37 45.29,33.44 44.06,33.75 43.21,34.61 42.04,35.03 
			41.35,36.1 40.16,36.49 39.23,37.24 38.36,38.05 37.57,38.97 36.48,39.53 35.66,40.4 34.71,41.12 34.03,42.13 33.22,43.02 
			32.24,43.71 31.54,44.7 30.71,45.56 29.79,46.33 28.89,47.14 27.95,47.92 27.48,49.08 26.9,50.14 26.19,51.11 25.23,51.89 
			24.6,52.91 23.79,53.81 23.39,54.98 22.81,56.02 22.28,57.1 21.28,57.91 21.07,59.16 20.39,60.15 19.89,61.24 19.22,62.25 
			18.71,63.33 18.58,64.6 17.97,65.65 17.45,66.75 17.12,67.92 16.56,69 16.14,70.14 15.62,71.24 14.98,72.28 14.22,73.28 
			13.98,74.49 13.7,75.68 13.26,76.8 13,77.99 12.89,79.19 12.85,80.39 12.81,81.6 12.98,82.8 12.57,84 12.78,85.21 12.44,86.41 
			12.92,87.62 12.6,88.83 12.85,90.04 12.42,91.26 12.88,92.46 12.94,93.66 12.73,94.89 13.18,96.07 13.14,97.28 13.35,98.47 
			13.36,99.69 13.69,100.87 13.44,102.11 13.72,103.3 13.96,104.49 13.8,105.73 14.39,106.88 14.03,108.15 14.34,109.34 
			14.82,110.49 14.72,111.73 14.76,112.96 15.15,114.12 15.37,115.32 15.39,116.55 16.12,117.64 16.08,118.87 16.28,120.06 
			16.89,121.14 16.9,122.38 17.24,123.53 17.41,124.73 18.11,125.76 18.62,126.85 18.96,128 19.3,129.15 19.71,130.28 20.35,131.31 
			20.89,132.37 21.14,133.57 21.85,134.56 22.1,135.77 22.64,136.84 23.16,137.92 23.73,138.98 24.54,139.89 25.22,140.88 
			25.6,142.06 26.42,142.96 27.36,143.75 27.99,144.77 28.78,145.66 29.52,146.6 30.29,147.51 31.09,148.4 31.7,149.46 32.65,150.2 
			33.24,151.31 34.36,151.87 35.36,152.54 35.86,153.79 36.88,154.44 38.05,154.9 38.95,155.68 39.99,156.28 41.01,156.89 
			41.98,157.59 42.77,158.62 44,158.88 45.13,159.25 46.1,159.92 47.03,160.69 48.13,161.13 49.33,161.31 50.38,161.85 
			51.47,162.27 52.5,162.87 53.7,163.02 54.82,163.35 55.88,163.87 56.91,164.5 57.99,164.97 59.24,164.92 60.2,165.77 61.33,166.1 
			62.51,166.28 63.7,166.42 64.78,166.88 65.93,167.14 67.1,167.34 68.04,168.26 69.37,168.1 70.52,168.51 71.58,169.14 
			72.61,169.87 73.94,169.78 74.91,170.64 76.02,171.16 77.23,171.39 78.45,171.59 79.49,172.28 80.66,172.61 81.74,173.21 
			82.93,173.47 84.11,173.76 85.33,173.86 86.46,174.36 87.64,174.67 88.89,174.51 90.07,174.97 91.28,175.05 92.51,174.6 
			93.71,174.55 94.93,174.52 96.15,174.54 97.37,174.39 98.62,174.63 99.8,174.12 101.04,174.21 102.26,174.12 103.47,173.93 
			104.73,174.04 105.9,173.59 107.06,173.11 108.26,172.92 109.48,172.78 110.7,172.62 111.95,172.57 113.13,172.25 114.28,171.8 
			115.33,171.05 116.67,171.22 117.79,170.71 118.77,169.86 120.07,169.82 121.2,169.36 122.15,168.45 123.19,167.84 123.73,167.24 
			122.63,167.78 121.35,167.92 120.33,168.56 119.19,168.78 118.03,168.93 116.98,169.49 115.76,169.43 114.64,169.72 
			113.54,170.09 112.47,170.57 111.34,170.82 110.16,170.9 109,171.05 107.87,171.33 106.76,171.75 105.63,172.06 104.51,172.46 
			103.33,172.49 102.14,172.43 100.97,172.46 99.86,173.11 98.67,173.05 97.49,172.85 96.33,173.21 95.13,173.31 93.96,172.79 
			92.77,172.67 91.54,172.97 90.41,172.43 89.16,172.64 88.03,172.22 86.89,171.84 85.78,171.37 84.56,171.32 83.36,171.16 
			82.39,170.29 81.1,170.43 80.05,169.89 79.04,169.24 77.96,168.8 76.78,168.62 75.7,168.17 74.59,167.8 73.6,167.1 72.41,166.97 
			71.39,166.35 70.21,166.19 69.04,166.02 67.95,165.64 66.91,165.09 65.83,164.67 64.69,164.46 63.56,164.2 62.58,163.45 
			61.4,163.35 60.28,163.06 59.15,162.78 58.08,162.33 57,161.69 55.84,161.3 54.72,160.79 53.53,160.47 52.35,160.08 51.13,159.81 
			50.14,159.02 49,158.54 48.02,157.77 46.97,157.14 45.84,156.65 44.58,156.36 43.58,155.64 42.54,154.97 41.55,154.23 
			40.51,153.56 39.68,152.62 38.91,151.64 37.77,151.08 37.06,150.03 35.94,149.42 35.4,148.24 34.3,147.58 33.81,146.39 
			32.95,145.51 32.16,144.57 31.44,143.58 30.76,142.56 30.11,141.53 29.52,140.46 28.59,139.58 28.25,138.36 27.51,137.37 
			26.89,136.3 26.62,135.07 26.16,133.93 25.62,132.84 25.23,131.67 24.46,130.66 24.12,129.52 23.69,128.41 23.15,127.34 
			22.98,126.14 22.71,124.98 22.1,123.92 21.8,122.77 21.68,121.57 21.28,120.44 20.83,119.33 20.67,118.14 20.57,116.95 
			20.2,115.81 20.22,114.6 19.98,113.43 19.54,112.3 19.41,111.12 19.18,109.95 19.09,108.76 19.05,107.57 18.76,106.41 
			18.4,105.26 18.4,104.06 18.48,102.82 18.3,101.62 17.86,100.45 17.83,99.23 18.05,97.99 17.54,96.81 17.37,95.6 17.77,94.36 
			17.49,93.16 17.14,91.95 17.1,90.73 17.15,89.51 17.1,88.29 17.27,87.08 17.73,85.88 17.29,84.64 17.74,83.45 17.54,82.21 
			18.11,81.06 18.02,79.81 18.47,78.66 18.69,77.47 18.99,76.3 19,75.04 19.78,74 19.75,72.73 20.15,71.58 20.29,70.35 20.83,69.24 
			21.25,68.1 21.95,67.06 22.4,65.94 22.43,64.65 23.05,63.59 23.8,62.59 23.87,61.29 24.6,60.29 25.34,59.3 25.49,58.02 
			26.12,56.98 26.54,55.82 27.18,54.78 27.9,53.79 28.63,52.86 29.26,51.86 29.96,50.92 30.89,50.16 31.63,49.25 31.97,48.01 
			33.15,47.48 33.84,46.53 34.64,45.67 35.22,44.59 36.01,43.71 37.25,43.32 38.01,42.42 38.82,41.57 39.61,40.68 40.5,39.91 
			41.49,39.27 42.45,38.58 43.55,38.1 44.33,37.18 45.25,36.45 46.3,35.89 47.21,35.15 48.29,34.64 49.09,33.71 50.13,33.15 
			51.26,32.72 52.17,31.97 52.98,31.06 54.04,30.54 55.1,30 56.17,29.49 56.97,28.65 57.84,27.91 58.99,27.63 60,27.13 60.91,26.45 
			61.9,25.71 63.17,25.6 64.28,25.12 65.25,24.31 66.43,24.02 67.61,23.73 68.67,23.11 69.76,22.56 70.94,22.29 72.08,21.9 
			73.32,21.8 74.33,20.98 75.6,21.03 76.65,20.28 77.85,20.08 79.05,19.72 80.29,19.52 81.6,19.74 82.81,19.45 84,19.02 
			85.26,18.98 86.46,18.49 87.71,18.47 88.95,18.28 90.2,18.23 91.42,18.32 92.63,18.41 93.82,18.82 95.01,18.95 96.24,18.72 
			97.45,18.85 98.64,19.07 99.88,18.94 101.05,19.3 102.21,19.66 103.45,19.65 104.54,20.3 105.81,20.16 106.95,20.61 108.07,21.09 
			109.21,21.5 110.44,21.57 111.69,21.56 112.7,22.42 113.84,22.81 115.08,22.87 116.3,23.04 117.33,23.75 118.44,24.24 
			119.68,24.36 120.76,24.93 121.85,25.44 122.99,25.83 124.09,26.33 125.39,26.35 126.33,27.21 127.42,27.73 128.6,28.05 
			129.74,28.46 130.84,28.95 131.77,29.77 132.85,30.27 134.06,30.55 134.92,31.46 136.11,31.81 136.95,32.73 138.12,33.13 
			139.21,33.65 139.97,34.65 140.9,35.41 141.98,35.97 143.02,36.6 143.79,37.54 144.79,38.23 145.55,39.17 146.53,39.9 147,41.09 
			147.9,41.89 148.34,43.06 149.48,43.67 149.86,44.86 150.85,45.58 151.3,46.72 151.96,47.68 152.76,48.55 153.71,49.31 
			154.36,50.3 154.99,51.3 155.47,52.41 156.51,53.11 156.83,54.31 157.86,55.06 158.54,56.05 158.69,57.37 159.77,58.12 
			160.26,59.24 160.57,60.46 161.67,61.19 162.24,62.26 162.47,63.53 163.55,64.28 164.18,65.31 164.34,66.62 164.98,67.63 
			166.05,68.4 166.63,69.49 166.69,70.81 167.16,71.91 167.69,73 168.06,74.15 168.74,75.21 168.68,76.47 168.95,77.65 
			169.48,78.78 169.67,79.99 169.65,81.21 169.96,82.4 169.62,83.64 169.7,84.84 169.7,86.05 170.18,87.27 170.19,88.48 
			169.7,89.68 169.89,90.91 169.69,92.12 169.74,93.34 169.81,94.58 169.15,95.73 169.27,96.97 168.97,98.16 168.6,99.33 
			168.97,100.64 168.32,101.76 167.97,102.93 167.66,104.11 167.63,105.35 167.62,106.6 167.36,107.79 166.61,108.86 166.41,110.07 
			166.04,111.23 165.54,112.36 165.78,113.69 165.23,114.8 165.11,116.04 164.74,117.2 164.42,118.37 164.17,119.57 163.72,120.72 
			163.45,121.92 163.12,123.1 162.26,124.11 161.93,125.29 161.92,126.59 161.19,127.62 160.88,128.81 160.09,129.81 159.73,130.99 
			159.29,132.05 159.01,133.2 158.12,134.04 157.8,135.17 156.96,136.01 156.38,137.01 156.1,138.19 155.23,139 154.75,140.06 
			154.13,141.03 153.29,141.86 152.93,143.02 152.03,143.95 151.65,145.19 151.29,146.34 151.51,146.3 152.46,145.78 153.5,145.25 
			153.89,144.15 154.8,143.31 155.53,142.33 156.19,141.31 156.47,140.05 157.28,139.12 158.21,138.27 158.49,137.03 158.96,135.9 
			159.98,135.08 160.34,133.89 160.93,132.83 161.51,131.78 161.82,130.58 162.77,129.69 162.99,128.46 163.46,127.35 
			163.79,126.18 164.45,125.15 165,124.07 165.4,122.93 165.97,121.85 166.51,120.76 166.8,119.58 166.9,118.33 167.3,117.19 
			167.88,116.11 168.01,114.88 168.66,113.82 169.02,112.66 169.49,111.54 169.86,110.38 170.11,109.2 170.51,108.05 170.68,106.85 
			171.02,105.7 171.34,104.54 171.39,103.33 171.84,102.19 171.81,100.96 172.33,99.84 172.63,98.68 172.59,97.45 172.4,96.22 
			172.62,95.04 173.14,93.89 173.37,92.71 172.9,91.47 173.54,90.3 173.41,89.1 173.06,87.89 173.07,86.7 173.52,85.49 
			173.12,84.31 173.09,83.11 172.71,81.95 172.63,80.75 		"/>
	</g>
	<path d="M141.01,109.31"/>
</g>
</svg>
