<?xml version="1.0" encoding="utf-8"?>
<!-- Generator: Adobe Illustrator 24.2.2, SVG Export Plug-In . SVG Version: 6.00 Build 0)  -->
<svg version="1.1" id="Layer_1" xmlns="http://www.w3.org/2000/svg" xmlns:xlink="http://www.w3.org/1999/xlink" x="0px" y="0px"
	 viewBox="0 0 205 213" style="enable-background:new 0 0 205 213;" xml:space="preserve">
<style type="text/css">
	.st0{fill:#F15D4B;}
</style>
<g>
	<g>
		<g>
			<path class="st0" d="M92.5,94c-0.3-0.2-0.5-0.6-0.9-1c-0.3-0.3-0.6-0.6-0.9-1c-0.3-0.3-0.7-0.6-1-1c-0.3-0.3-0.4-0.8-0.7-1.2
				c-0.3-0.3-0.4-0.8-0.7-1.1c-0.3-0.3-0.7-0.5-1-0.9c-0.3-0.3-0.7-0.6-1-0.9c-0.3-0.3-0.4-0.9-0.7-1.2c-0.3-0.3-0.6-0.7-0.9-1
				s-0.8-0.5-1.1-0.8c-0.3-0.3-0.6-0.6-0.9-0.9c-0.3-0.3-0.5-0.7-0.8-1s-0.6-0.7-0.9-1s-0.6-0.7-0.9-1s-0.8-0.4-1.1-0.7
				c-0.3-0.3-0.6-0.7-0.9-1c-0.4-0.3-0.9-0.3-1.3-0.5s-0.6-0.7-1-0.9s-0.7-0.5-1.1-0.7s-0.9-0.2-1.3-0.4s-0.8-0.4-1.2-0.6
				c-0.4-0.2-0.6-0.7-1-1c-0.4-0.2-0.9-0.2-1.3-0.4s-0.9-0.2-1.3-0.3s-0.8-0.2-1.3-0.3c-0.4,0-0.9-0.1-1.3,0c-0.4,0-0.9-0.1-1.4,0
				c-0.4,0.1-0.9,0.1-1.4,0.2c-0.4,0.1-0.9,0.2-1.3,0.4c-0.4,0.1-0.8,0.6-1.2,0.8c-0.4,0.1-0.9,0.1-1.3,0.3s-0.9,0.2-1.3,0.4
				s-0.8,0.4-1.2,0.6c-0.4,0.2-0.6,0.8-1,1s-0.8,0.4-1.2,0.6c-0.4,0.3-0.8,0.6-1.2,0.9c-0.4,0.3-0.6,0.8-0.9,1.2s-0.8,0.6-1.1,1
				c-0.3,0.4-0.6,0.8-0.9,1.2s-0.3,1-0.6,1.4c-0.2,0.4-0.5,0.9-0.7,1.3c-0.2,0.4-0.3,0.9-0.5,1.4c-0.2,0.4-0.7,0.8-0.8,1.2
				c-0.2,0.5-0.4,0.9-0.5,1.4s0,1-0.1,1.5s-0.3,1-0.4,1.4c0,0.5,0.1,1,0.1,1.5s-0.1,1,0,1.5c0,0.5,0.2,1,0.2,1.5s0.1,1,0.2,1.5
				c0,0.5-0.2,1-0.1,1.5c0,0.5,0.2,1,0.2,1.4c0,0.5-0.1,1-0.1,1.5c0.1,0.5,0.6,0.9,0.6,1.4c0.1,0.5-0.2,1-0.1,1.5s0.1,1,0.2,1.4
				c0.1,0.5,0.2,1,0.2,1.5c0.1,0.5,0.1,1,0.2,1.5s0.5,0.9,0.6,1.4s0.1,1,0.3,1.4c0.1,0.5,0.1,1,0.3,1.5c0.1,0.5,0.2,1,0.4,1.4
				c0.1,0.5,0.3,0.9,0.4,1.4c0.2,0.5,0.7,0.8,0.8,1.3c0.2,0.5,0.1,1,0.3,1.5c0.2,0.4,0.6,0.8,0.8,1.2c0.2,0.4,0.5,0.8,0.7,1.3
				c0.2,0.4,0.1,1.1,0.3,1.5c0.2,0.4,0.5,0.8,0.7,1.3s0.9,0.7,1.1,1.1c0.2,0.4,0.4,0.9,0.7,1.3c0.2,0.4,0.3,1,0.5,1.4
				s0.5,0.8,0.8,1.3c0.2,0.4,0.4,0.9,0.6,1.4c0.3,0.4,0.4,0.9,0.7,1.3c0.3,0.4,0.6,0.8,1,1.1c0.3,0.4,0.7,0.7,1,1.1
				c0.3,0.4,0.5,0.8,0.9,1.2c0.3,0.4,1,0.5,1.3,0.8c0.3,0.4,0.3,1,0.6,1.4c0.3,0.4,0.8,0.6,1.1,1c0.3,0.4,0.6,0.8,0.9,1.2
				s0.4,1,0.7,1.4c0.3,0.4,0.6,0.8,1,1.1c0.3,0.4,0.6,0.8,1,1.1c0.3,0.3,0.9,0.5,1.2,0.8c0.4,0.3,0.8,0.6,1.1,0.9
				c0.4,0.3,0.8,0.6,1.2,0.9c0.4,0.3,0.6,0.9,1,1.2s1,0.3,1.4,0.6s0.8,0.6,1.2,0.8c0.4,0.3,0.8,0.6,1.2,0.9c0.4,0.2,0.7,0.7,1.2,0.9
				c0.4,0.2,1,0.2,1.5,0.4c0.4,0.2,0.7,0.7,1.1,1s0.9,0.4,1.3,0.6c0.4,0.3,0.7,0.7,1.1,1s0.8,0.5,1.2,0.8c0.4,0.3,1,0.2,1.4,0.5
				c0.4,0.2,0.8,0.6,1.2,0.9c0.4,0.2,0.9,0.4,1.3,0.7c0.4,0.2,0.8,0.5,1.3,0.8c0.4,0.2,0.9,0.4,1.3,0.7c0.4,0.2,0.9,0.3,1.4,0.5
				s0.8,0.5,1.3,0.6c0.4-0.1,0.8-0.4,1.2-0.6c0.4-0.2,0.9-0.3,1.3-0.5s0.8-0.4,1.2-0.6c0.4-0.2,0.9-0.4,1.3-0.6
				c0.4-0.2,0.9-0.2,1.3-0.4c0.4-0.2,0.9-0.2,1.3-0.3c0.4-0.1,0.8-0.4,1.3-0.5c0.4-0.1,0.8-0.3,1.3-0.5c0.4-0.2,0.9-0.2,1.3-0.4
				c0.4-0.2,0.7-0.6,1.1-0.8c0.4-0.2,0.9-0.3,1.3-0.5c0.4-0.2,0.9-0.3,1.3-0.5c0.4-0.2,1,0,1.4-0.2s0.7-0.6,1.1-0.8
				c0.4-0.2,0.7-0.5,1.1-0.8c0.4-0.2,0.8-0.4,1.2-0.7s0.9-0.4,1.2-0.6c0.4-0.3,0.8-0.5,1.2-0.7c0.4-0.3,0.7-0.6,1.1-0.9
				c0.4-0.3,0.8-0.4,1.2-0.7s0.5-0.8,0.9-1.1s0.7-0.5,1.1-0.8c0.4-0.3,0.8-0.5,1.1-0.8c0.4-0.3,0.8-0.4,1.2-0.7s0.8-0.5,1.1-0.8
				c0.4-0.3,0.5-0.9,0.8-1.2c0.4-0.3,0.7-0.5,1.1-0.8c0.4-0.3,0.7-0.5,1.1-0.8c0.4-0.3,0.8-0.5,1.1-0.8s0.6-0.7,0.9-1
				c0.3-0.3,0.8-0.5,1.1-0.9c0.3-0.3,0.7-0.6,1-1c0.3-0.3,0.4-0.9,0.7-1.2s0.6-0.7,0.9-1c0.3-0.4,0.8-0.6,1-0.9
				c0.3-0.4,0.4-0.9,0.6-1.2c0.3-0.4,0.4-0.8,0.6-1.2c0.2-0.4,0.5-0.8,0.7-1.2s0.6-0.7,0.8-1.1c0.2-0.4,0.3-0.9,0.5-1.3
				c0.2-0.4,0.5-0.8,0.7-1.2s0.6-0.7,0.8-1.1c0.2-0.4,0.2-0.9,0.3-1.3c0.2-0.4,0.4-0.8,0.6-1.2c0.2-0.4,0.7-0.7,0.8-1.1
				c0.2-0.4-0.1-1,0.1-1.4c0.2-0.4,0.5-0.8,0.7-1.2s0.2-0.9,0.3-1.3c0.2-0.4,0.7-0.7,0.8-1.2s0.3-0.9,0.3-1.3c0.1-0.4,0-0.9,0.1-1.4
				c0.1-0.4,0.2-0.9,0.3-1.4c0.1-0.4,0.4-0.9,0.5-1.3c0.1-0.5-0.2-1-0.1-1.4c0.1-0.5,0.2-0.9,0.3-1.4s0.2-0.9,0.2-1.4
				s-0.1-0.9-0.2-1.4c0-0.5,0.4-1,0.3-1.4c0-0.5-0.1-0.9-0.2-1.4c0-0.5-0.3-0.9-0.3-1.4s0.4-0.9,0.4-1.4s-0.3-1-0.2-1.4
				c0-0.5,0-0.9,0-1.4s0.2-0.9,0.1-1.4c0-0.5-0.1-0.9-0.2-1.4c-0.1-0.5-0.3-0.9-0.4-1.4c-0.1-0.5,0-1-0.2-1.4
				c-0.1-0.5-0.3-0.9-0.4-1.4c-0.2-0.4-0.2-0.9-0.4-1.4c-0.2-0.4-0.8-0.7-1-1.1c-0.2-0.4-0.4-0.8-0.6-1.3c-0.3-0.4-0.4-0.9-0.7-1.2
				c-0.3-0.4-0.7-0.6-1.1-1c-0.3-0.4-0.5-0.9-0.8-1.2s-0.9-0.5-1.2-0.8s-0.5-0.9-0.9-1.2s-0.9-0.3-1.3-0.6c-0.4-0.3-0.6-0.8-1-1
				s-0.8-0.6-1.2-0.8s-1-0.2-1.4-0.3c-0.4-0.2-0.8-0.4-1.3-0.6c-0.4-0.1-0.9-0.1-1.4-0.1c-0.5-0.1-0.9-0.1-1.4-0.2
				c-0.5-0.1-0.9-0.5-1.3-0.6c-0.5-0.1-1,0.2-1.5,0.1c-0.5-0.1-1-0.1-1.5-0.2c-0.5-0.1-1-0.4-1.5-0.5s-1-0.1-1.5-0.2
				c-0.5,0-1-0.2-1.5-0.2s-1,0.1-1.5,0.2c-0.5,0-1.1-0.1-1.6-0.1c-0.5,0.1-1,0.3-1.5,0.4c-0.5,0.1-1,0.5-1.5,0.6s-1,0.1-1.5,0.3
				s-1,0.2-1.5,0.4s-1,0.3-1.5,0.6c-0.4,0.3-0.6,0.9-1.1,1.2c-0.4,0.3-0.9,0.5-1.3,0.8c-0.4,0.3-0.8,0.7-1.2,1
				c-0.4,0.4-0.7,0.8-1,1.2c-0.4,0.4-0.8,0.6-1.2,1c-0.3,0.4-0.7,0.8-1,1.2s-0.5,0.9-0.8,1.3c-0.3,0.4-0.4,1-0.7,1.4
				c-0.3,0.5-0.6,0.8-0.9,1.3s-0.6,0.9-0.9,1.3c-0.3,0.5-0.3,1.1-0.6,1.5c-0.3,0.5-0.8,0.8-1.1,1.2c-0.3,0.5-0.6,1-0.8,1.3
				C93.2,93.9,92.8,94.3,92.5,94z"/>
		</g>
		<g>
			<path d="M45.1,93.7c0,0.5-0.1,1-0.1,1.5s0.4,1,0.4,1.5s-0.1,1-0.1,1.5s-0.1,1,0,1.5c0,0.5,0.3,0.9,0.4,1.4s-0.2,1.1-0.1,1.5
				c0.1,0.5,0.5,0.9,0.7,1.3c0.2,0.5,0.3,0.9,0.5,1.4s0.3,0.9,0.5,1.4s0.5,0.9,0.7,1.3c0.1,0.5,0.1,1,0.3,1.5c0.1,0.5,0.1,1,0.2,1.5
				s0.4,0.9,0.5,1.4s0.3,0.9,0.5,1.4s0.3,0.9,0.5,1.4c0.2,0.4,0.5,0.9,0.7,1.3c0.2,0.4,0.6,0.8,0.8,1.2c0.2,0.4,0.3,1,0.5,1.4
				c0.3,0.4,0.5,0.9,0.7,1.3c0.3,0.4,0.6,0.8,0.8,1.2c0.2,0.4,0.5,0.7,0.8,1.1c0.2,0.4,0.4,0.8,0.6,1.2s0.3,0.8,0.6,1.2
				c0.2,0.4,0.8,0.5,1.1,0.9c0.2,0.4,0.2,1,0.4,1.3c0.2,0.4,0.7,0.6,0.9,1c0.3,0.4,0.5,0.7,0.8,1.1c0.3,0.3,0.7,0.6,1,0.9
				c0.3,0.3,0.6,0.7,0.9,1s0.8,0.4,1.1,0.7c0.3,0.3,0.4,0.9,0.7,1.2c0.3,0.3,0.9,0.4,1.2,0.7c0.3,0.3,0.3,0.9,0.6,1.3
				c0.3,0.4,0.6,0.7,0.8,1.1c0.3,0.4,0.6,0.7,0.8,1.1c0.3,0.4,0.5,0.7,0.8,1.1c0.3,0.4,0.8,0.5,1.1,0.9c0.3,0.3,0.4,0.8,0.8,1.1
				c0.3,0.3,0.6,0.6,1,0.9c0.4,0.3,0.9,0.2,1.3,0.5c0.4,0.2,0.7,0.5,1.1,0.7s0.7,0.6,1,0.8c0.4,0.2,0.7,0.5,1.1,0.7
				c0.3,0.3,0.6,0.6,1,0.9c0.3,0.3,0.7,0.5,1.1,0.7c0.3,0.3,0.7,0.5,1.1,0.8c0.3,0.3,0.5,0.7,0.9,1c0.4,0.2,0.7,0.4,1.1,0.7
				c0.4,0.2,0.9,0.2,1.3,0.4s0.8,0.4,1.1,0.6c0.4,0.2,0.5,0.8,0.9,1s1,0,1.4,0.2s0.7,0.6,1.1,0.8s0.8,0.3,1.2,0.5
				c0.4,0.1,0.8,0.3,1.2,0.4c0.4,0.1,0.8,0.2,1.3,0.3c0.4,0.1,0.9,0.1,1.3,0.2c0.4,0.1,0.8,0.3,1.2,0.5c0.5,0.2,1.1,0.3,1.5,0.5
				c0.5,0.3,0.7,0.9,1,1.3c0.3,0.3,0.8,0.8,0.5,1.3c-0.2,0.4-0.9,0.3-1.3,0.2c-0.5-0.1-1-0.6-1.5-0.7c-0.5-0.2-1-0.1-1.4-0.2
				c-0.5-0.1-0.9-0.5-1.3-0.6c-0.5-0.1-1-0.1-1.4-0.2c-0.5-0.1-0.9-0.3-1.4-0.4s-1-0.1-1.4-0.2c-0.4-0.2-0.9-0.4-1.3-0.7
				c-0.4-0.2-0.7-0.7-1.1-1c-0.4-0.2-1-0.2-1.4-0.5s-0.6-0.8-1-1s-1-0.2-1.4-0.5c-0.4-0.2-0.9-0.4-1.3-0.6c-0.4-0.2-0.8-0.5-1.2-0.7
				c-0.4-0.2-0.8-0.5-1.2-0.7c-0.4-0.2-0.6-0.8-1-1s-0.9-0.3-1.3-0.6s-0.8-0.7-1.2-1c-0.4-0.3-0.9-0.5-1.3-0.9s-0.8-0.7-1.1-1.1
				c-0.4-0.4-0.4-1-0.8-1.4s-1-0.4-1.4-0.8c-0.3-0.3-0.4-0.9-0.7-1.2c-0.3-0.3-1-0.2-1.3-0.5s-0.5-0.7-0.9-1c-0.3-0.3-0.7-0.6-1-0.9
				c-0.3-0.3-0.6-0.6-0.9-0.9c-0.3-0.3-0.6-0.7-0.9-1s-0.7-0.5-1-0.8s-0.3-0.9-0.6-1.2c-0.3-0.3-0.6-0.6-0.9-0.9
				c-0.3-0.3-0.7-0.5-1-0.9c-0.3-0.3-0.6-0.6-0.9-1c-0.3-0.3-0.4-0.8-0.6-1.2c-0.3-0.3-0.7-0.5-1-0.9c-0.3-0.3-0.7-0.6-1-0.9
				c-0.3-0.4-0.1-1-0.4-1.3c-0.3-0.4-0.7-0.8-0.9-1.2c-0.3-0.4-0.8-0.7-1.1-1.1c-0.3-0.4-0.5-0.9-0.7-1.4c-0.3-0.4-0.2-1.1-0.4-1.5
				c-0.2-0.4-0.6-0.8-0.8-1.3c-0.2-0.5-0.7-0.8-0.9-1.2c-0.2-0.5-0.1-1-0.3-1.5c-0.2-0.5-0.4-0.9-0.6-1.4s-0.7-0.8-0.8-1.3
				c-0.2-0.5-0.3-1-0.4-1.5c-0.2-0.5-0.3-1-0.5-1.4c-0.2-0.5-0.3-1-0.5-1.4c-0.2-0.5-0.6-0.9-0.8-1.3c-0.2-0.5-0.2-1-0.3-1.5
				c-0.2-0.5-0.3-1-0.4-1.5s-0.1-1-0.2-1.5s-0.1-1-0.2-1.5s-0.3-1-0.3-1.5s-0.1-1-0.2-1.5c0-0.5,0.2-1,0.1-1.5
				c0-0.5-0.2-0.9-0.3-1.4c-0.1-0.5-0.1-0.9-0.1-1.4c-0.1-0.5,0.1-1,0-1.4c-0.1-0.5-0.5-0.9-0.5-1.3c-0.1-0.5,0.2-1,0.2-1.4
				c0-0.5-0.4-0.9-0.4-1.4s0.3-0.9,0.3-1.4s-0.2-0.9-0.2-1.4s0-0.9,0-1.4s0.4-0.9,0.4-1.4c0.1-0.5-0.1-1-0.1-1.4
				c0.1-0.5,0.4-0.8,0.6-1.3c0.2-0.4,0.4-0.8,0.7-1.2c0.2-0.4,0.2-1,0.4-1.4c0.2-0.4,0.8-0.6,1-1s0.3-0.9,0.6-1.4
				c0.2-0.4,0.4-1,0.6-1.4c0.3-0.4,0.9-0.5,1.2-0.9c0.3-0.4,0.4-0.9,0.7-1.3c0.3-0.4,0.6-0.8,1-1.2c0.4-0.3,1-0.5,1.3-0.8
				c0.4-0.4,0.7-0.7,1.1-1.1c0.4-0.3,0.7-0.8,1.1-1.1s0.9-0.5,1.3-0.8s0.7-0.8,1.2-1s1.1,0,1.6-0.2c0.5-0.1,1-0.3,1.5-0.4
				c0.5-0.1,1-0.1,1.5-0.1s1-0.1,1.5-0.1s1-0.2,1.5-0.2s1-0.1,1.5,0s1,0,1.5,0.1s1,0.2,1.5,0.4c0.5,0.1,0.9,0.6,1.4,0.7
				c0.5,0.2,0.9,0.5,1.4,0.6c0.4,0.2,0.9,0.2,1.3,0.3c0.4,0.2,0.8,0.4,1.2,0.6c0.4,0.2,0.8,0.3,1.2,0.5c0.4,0.2,0.9,0.2,1.3,0.4
				s0.6,0.8,0.9,1c0.4,0.2,0.9,0.3,1.3,0.6c0.4,0.2,0.7,0.6,1.1,0.8s0.7,0.6,1.1,0.8c0.4,0.3,0.8,0.4,1.2,0.7c0.4,0.3,0.6,0.7,0.9,1
				s0.9,0.5,1.2,0.9c0.3,0.4,0.4,0.9,0.7,1.3c0.3,0.4,0.5,0.8,0.8,1.2s0.7,0.6,1,1s0.6,0.7,0.9,1.1c0.3,0.3,0.4,0.9,0.8,1.2
				c0.3,0.3,1,0.3,1.3,0.7c0.4,0.3,0.4,0.9,0.8,1.3c0.3,0.3,0.7,0.6,1,1c0.3,0.3,0.8,0.5,1.2,0.9c0.7,0.8,0.9,1.1,1.2,0.9
				c0.2-0.2,0.4-0.6,0.8-1.3c0.2-0.4,0.2-0.9,0.4-1.3c0.2-0.4,0.8-0.5,1-0.9c0.3-0.4,0.5-0.7,0.8-1s0.4-0.8,0.7-1.2
				c0.3-0.3,0.6-0.7,0.9-1s0.8-0.5,1-0.8c0.3-0.4,0.4-1.1,0.8-1.5c0.4-0.4,1-0.5,1.4-0.8c0.4-0.4,0.5-1,0.9-1.3s0.8-0.6,1.3-1
				c0.4-0.3,0.9-0.5,1.4-0.8c0.4-0.3,0.8-0.7,1.3-1c0.4-0.3,0.8-0.6,1.3-0.9c0.5-0.3,0.9-0.6,1.4-0.8s1.1-0.2,1.6-0.4
				s0.9-0.5,1.4-0.7s1-0.2,1.5-0.4c0.5-0.1,1-0.4,1.5-0.5s1-0.3,1.5-0.4c0.5-0.1,1-0.2,1.6-0.3c0.5-0.1,1-0.2,1.6-0.2
				c0.5-0.1,1.1-0.2,1.6-0.3c0.5,0,1.1,0,1.6,0s1.1,0,1.6,0.1c0.5,0,1,0.3,1.6,0.4c0.5,0.1,1,0.3,1.5,0.4c0.4,0.1,0.9-0.2,1.4-0.1
				c0.4,0.1,0.9,0.2,1.3,0.3c0.4,0.1,0.9,0.1,1.3,0.3c0.4,0.1,0.7,0.6,1.2,0.7c0.4,0.2,0.8,0.4,1.2,0.6c0.4,0.2,0.9,0.2,1.3,0.4
				c0.4,0.2,0.7,0.5,1.1,0.8c0.3,0.3,0.7,0.6,1,0.9c0.3,0.3,0.5,0.8,0.8,1.1s0.7,0.6,1,0.9c0.3,0.3,0.7,0.6,1,0.9
				c0.3,0.3,0.5,0.7,0.8,1.1c0.3,0.4,0.4,0.9,0.7,1.4c0.3,0.4,0.7,0.8,0.9,1.2c0.2,0.5,0.5,0.9,0.7,1.3c0.2,0.5,0.4,0.9,0.6,1.4
				c0.2,0.5,0.4,0.9,0.6,1.4c0.2,0.5,0.1,1,0.3,1.5s0.3,0.9,0.5,1.4s0.3,0.9,0.4,1.4c0.1,0.5,0.4,0.9,0.5,1.4s0,1,0,1.5
				c0.1,0.5,0.4,1,0.4,1.5s-0.2,1-0.1,1.5c0,0.5,0.1,1,0.1,1.5s0.2,1,0.2,1.5s-0.6,0.9-0.6,1.4c-0.1,0.5,0,1-0.1,1.5
				s0.2,1.1,0.1,1.6c-0.1,0.5-0.2,1-0.2,1.5c-0.1,0.5-0.7,0.9-0.8,1.4s0.1,1.1-0.1,1.6c-0.1,0.5-0.5,1-0.6,1.5s0.1,1.1,0,1.6
				s-0.3,1-0.4,1.5c-0.1,0.5-0.2,1-0.3,1.5s-0.1,1.1-0.3,1.6s-0.7,0.8-0.9,1.3s-0.3,1-0.5,1.5s-0.5,0.9-0.8,1.4
				c-0.2,0.5-0.4,0.9-0.7,1.4c-0.2,0.5-0.5,0.9-0.8,1.3c-0.3,0.5-0.6,0.9-0.8,1.3c-0.3,0.4-0.2,1.1-0.5,1.5s-0.6,0.9-0.9,1.3
				c-0.3,0.4-0.6,0.9-0.9,1.3c-0.3,0.4-0.7,0.8-1,1.2c-0.2,0.4-0.6,0.6-0.9,1c-0.3,0.4-0.4,0.8-0.6,1.2c-0.3,0.4-0.4,0.8-0.7,1.1
				s-0.6,0.6-0.9,0.9c-0.3,0.3-0.7,0.6-0.9,0.9c-0.3,0.3-0.5,0.7-0.8,1s-0.6,0.6-1,0.9c-0.3,0.3-0.7,0.5-1.1,0.8
				c-0.4,0.3-0.8,0.4-1.2,0.7c-0.3,0.3-0.6,0.6-0.9,0.9c-0.3,0.3-0.5,0.7-0.8,1s-0.5,0.7-0.8,1s-0.6,0.6-0.9,1
				c-0.3,0.3-0.7,0.5-1,0.8s-0.6,0.6-1,0.8c-0.3,0.3-0.6,0.7-0.9,0.9c-0.3,0.3-0.8,0.4-1.1,0.7c-0.4,0.3-0.8,0.4-1.1,0.7
				c-0.4,0.2-0.6,0.7-0.9,0.9c-0.4,0.2-0.8,0.4-1.2,0.6c-0.4,0.3-0.5,0.8-0.8,1.1c-0.4,0.2-0.8,0.4-1.2,0.6
				c-0.4,0.2-0.8,0.3-1.2,0.5s-0.6,0.7-0.9,1c-0.4,0.2-1,0.1-1.3,0.3c-0.4,0.3-0.8,0.5-1.2,0.8s-0.7,0.6-1.1,0.9
				c-0.4,0.3-0.7,0.6-1.1,0.9c-0.4,0.3-0.7,0.6-1.1,0.8c-0.4,0.2-0.8,0.5-1.3,0.7c-0.4,0.2-0.9,0.4-1.3,0.5
				c-0.4,0.1-0.9,0.4-1.3,0.5c-0.4,0.2-1,0-1.4,0.3c-0.4,0.2-0.9,0.5-1.3,0.8c-0.4,0.3-0.8,0.5-1.3,0.4c-0.4,0-0.9-0.3-1-0.7
				c-0.1-0.4,0.3-0.8,0.7-1c0.4-0.3,1.1-0.1,1.6-0.3c0.4-0.2,0.6-0.7,1-0.9c0.4-0.3,1-0.2,1.3-0.4c0.4-0.3,0.5-0.9,0.8-1.2
				s0.7-0.5,1.1-0.8c0.4-0.3,0.8-0.4,1.2-0.6c0.4-0.2,0.8-0.3,1.2-0.5s0.8-0.5,1.2-0.7s0.9-0.3,1.3-0.5c0.4-0.2,0.7-0.5,1.1-0.8
				c0.4-0.2,1-0.2,1.3-0.4c0.4-0.3,0.7-0.6,1.1-0.9c0.3-0.3,0.7-0.6,1-0.9c0.3-0.3,0.5-0.8,0.8-1.1s0.6-0.7,0.9-1
				c0.3-0.3,0.7-0.5,1.1-0.8c0.3-0.3,0.6-0.7,1-1c0.4-0.2,0.8-0.4,1.2-0.6c0.4-0.2,0.8-0.4,1.2-0.6c0.4-0.2,0.7-0.6,1-0.9
				c0.4-0.3,0.9-0.3,1.3-0.6c0.4-0.4,0.4-1.1,0.8-1.5c0.3-0.4,0.7-0.8,1-1.2s0.9-0.7,1.2-1.1c0.3-0.4,0.5-1,0.9-1.3
				c0.4-0.4,0.7-0.8,1.1-1.2c0.4-0.3,1-0.5,1.4-0.8s0.7-0.8,1.1-1.1c0.4-0.4,1-0.5,1.4-0.9c0.3-0.4,0.4-1.1,0.7-1.5s0.5-0.9,0.8-1.4
				s0.5-0.9,0.8-1.4s0.7-0.8,1-1.3c0.3-0.4,0.4-1,0.6-1.5c0.3-0.5,0.6-0.8,0.9-1.3c0.2-0.5,0.6-0.9,0.8-1.3c0.2-0.5,0.5-0.9,0.7-1.4
				s0.7-0.8,0.9-1.3s0.3-1,0.5-1.5s0.4-1,0.6-1.4c0.2-0.5,0.5-0.9,0.7-1.4s0.1-1.1,0.3-1.6s0.5-0.9,0.7-1.4s0.5-0.9,0.7-1.4
				s0.2-1.1,0.4-1.5c0.2-0.5,0.5-0.9,0.7-1.4c0.1-0.5,0.4-1,0.5-1.5s-0.3-1.1-0.2-1.6c0-0.5,0.3-1,0.3-1.5s0.1-1,0-1.6
				c0-0.5-0.3-1-0.3-1.6c0-0.5,0.3-1.1,0.3-1.6s-0.1-1-0.1-1.5s-0.1-1-0.2-1.5c-0.1-0.5-0.3-1-0.4-1.5c-0.1-0.5-0.1-1-0.2-1.5
				c-0.1-0.5-0.1-1-0.3-1.5c-0.1-0.5-0.3-1-0.4-1.5c-0.1-0.5-0.5-0.9-0.7-1.4s-0.4-1-0.6-1.4c-0.3-0.5-0.4-1-0.7-1.4
				s-0.8-0.7-1.2-1.1c-0.3-0.4-0.8-0.7-1.1-1.1c-0.3-0.4-0.4-1.1-0.7-1.5s-0.9-0.4-1.2-0.7s-0.4-0.9-0.7-1.2s-0.8-0.4-1.2-0.7
				s-0.6-0.7-1-1s-0.8-0.5-1.2-0.7s-0.8-0.4-1.3-0.6c-0.4-0.2-0.9-0.3-1.3-0.4c-0.4-0.1-0.9-0.2-1.3-0.3c-0.4-0.1-0.9-0.3-1.3-0.4
				c-0.4-0.1-0.9-0.2-1.3-0.3c-0.4-0.1-0.9,0-1.4-0.1c-0.4-0.1-0.9-0.4-1.3-0.4c-0.5,0-0.9,0.1-1.4,0.1s-0.9,0.2-1.4,0.2
				s-0.9-0.2-1.4-0.2s-0.9,0-1.4,0.1s-0.9,0.4-1.3,0.5c-0.4,0.1-1-0.1-1.4,0s-0.8,0.5-1.2,0.7s-0.8,0.5-1.2,0.7s-1,0.1-1.4,0.3
				s-0.8,0.4-1.2,0.7c-0.4,0.2-0.7,0.7-1.1,0.9c-0.4,0.2-0.8,0.4-1.2,0.7s-0.8,0.6-1.1,0.9c-0.4,0.3-0.8,0.6-1.1,0.9
				c-0.3,0.3-0.5,0.8-0.9,1.1c-0.3,0.3-0.6,0.7-0.9,1.1c-0.3,0.4-0.9,0.5-1.2,0.8c-0.3,0.4-0.3,1-0.6,1.3c-0.3,0.4-0.6,0.7-0.9,1.1
				c-0.3,0.4-0.7,0.7-1,1c-0.3,0.4-0.6,0.7-0.9,1.1c-0.3,0.4-0.6,0.7-0.9,1.1c-0.3,0.4-0.6,0.7-0.9,1.1c-0.2,0.4-0.6,0.8-0.8,1.2
				c-0.2,0.5-0.3,0.9-0.5,1.2c-0.3,0.5-0.6,0.7-0.9,0.7s-0.7,0-1.2-0.4c-0.3-0.2-0.6-0.6-0.9-0.9c-0.4-0.4-0.5-1-0.9-1.4
				s-0.9-0.6-1.3-0.9c-0.4-0.3-0.9-0.6-1.3-1s-0.9-0.6-1.2-1c-0.4-0.4-0.7-0.8-1-1.3c-0.3-0.4-0.7-0.8-1-1.2s-0.6-0.9-0.9-1.3
				c-0.3-0.4-0.6-0.9-0.9-1.2c-0.4-0.4-0.7-0.7-1.1-1.1c-0.4-0.4-0.6-0.8-1-1.2s-0.7-0.8-1.1-1.1s-0.8-0.6-1.2-1
				c-0.4-0.3-1-0.3-1.5-0.6c-0.4-0.3-0.7-0.8-1.2-1s-1-0.2-1.5-0.5c-0.5-0.2-0.9-0.5-1.3-0.7c-0.5-0.2-1-0.3-1.4-0.5
				c-0.5-0.2-1-0.3-1.5-0.4c-0.5-0.2-0.9-0.4-1.4-0.6c-0.5-0.1-1-0.3-1.5-0.4c-0.5-0.1-1-0.3-1.5-0.4c-0.5-0.1-1-0.2-1.5-0.2
				c-0.4,0-0.9,0.2-1.3,0.2s-0.9,0.1-1.3,0.1s-0.9,0.1-1.3,0.1c-0.4,0.1-0.9,0.1-1.3,0.2c-0.4,0.1-1-0.3-1.4-0.2s-0.9,0.3-1.3,0.4
				c-0.4,0.2-0.7,0.7-1,0.9c-0.4,0.2-0.7,0.5-1.1,0.7c-0.4,0.3-0.7,0.5-1,0.8s-0.9,0.3-1.2,0.6c-0.3,0.3-0.4,0.8-0.7,1.2
				c-0.3,0.3-0.6,0.7-0.8,1c-0.3,0.4-0.5,0.7-0.7,1.1c-0.2,0.4-0.6,0.7-0.8,1.1c-0.2,0.4-0.5,0.8-0.6,1.2c-0.2,0.4-0.5,0.8-0.7,1.3
				c-0.2,0.4-0.2,1-0.3,1.4c-0.2,0.5-0.4,0.9-0.6,1.3c-0.1,0.5,0,1-0.1,1.5s-0.2,0.9-0.2,1.4c-0.1,0.5-0.6,0.9-0.6,1.4
				s0.2,1,0.2,1.5s0,1,0,1.4c0,0.5-0.1,1-0.1,1.5C45.1,92.7,45.1,93.2,45.1,93.7z"/>
		</g>
		<g>
			<path d="M161,103.5c0.4,0,0.9,0.3,1.3,0.3s0.9-0.2,1.3-0.2c0.4,0,0.9,0.3,1.3,0.4c0.4,0,0.9,0,1.3,0c0.4,0,0.9,0.2,1.3,0.3
				c0.4,0,0.9-0.4,1.3-0.4c0.4,0,0.9,0.4,1.4,0.3c0.4-0.1,0.9-0.4,1.3-0.5c0.4-0.1,0.9,0.1,1.4,0c0.4,0,0.9,0,1.3,0
				c0.5,0,1-0.1,1.4-0.1c0.5,0,0.9,0,1.4,0.1c0.5,0,1,0,1.4,0c0.5,0,0.9,0.2,1.4,0.2s0.9,0.3,1.4,0.3s1-0.2,1.4-0.2
				c0.5,0,0.9,0.3,1.4,0.4c0.5,0,1-0.1,1.4,0c0.5,0,0.9,0.3,1.4,0.4c0.5,0,1,0,1.4,0.1c0.5,0,1,0,1.4,0.1c0.5,0,1,0,1.4,0
				c0.5,0.1,0.9,0.1,1.4,0.2c0.5,0.1,0.9,0.2,1.4,0.3s1-0.1,1.4-0.1c0.5,0.1,0.9,0.3,1.4,0.3s1-0.2,1.5-0.2s1-0.1,1.5-0.1
				s1,0.4,1.4,0.5c0.3,0.1,0.7-0.2,1-0.1c0.4,0.1,1,0.6,1,1.1c0,0.4-0.6,0.7-1,0.8c-0.5,0.1-0.9,0.2-1.4,0.3s-0.9,0.4-1.4,0.5
				s-0.9,0.4-1.4,0.5s-1-0.3-1.5-0.3s-1.1,0.2-1.6,0.1c-0.5-0.1-1.1,0-1.6-0.1s-1-0.4-1.6-0.5c-0.5-0.1-1.1-0.2-1.6-0.2
				s-1.1,0-1.6,0s-1.1-0.2-1.6-0.2s-1.1-0.1-1.6-0.1s-1.1,0.2-1.6,0.2s-0.9-0.2-1.4-0.3c-0.5,0-0.9-0.4-1.4-0.4s-1-0.1-1.4-0.1
				c-0.5-0.1-1-0.1-1.4-0.2c-0.5,0-1-0.1-1.4-0.1c-0.5,0-1,0.3-1.5,0.3s-1-0.1-1.5,0c-0.5,0-1,0.1-1.5,0.2c-0.5,0.1-1,0.1-1.5,0.2
				c-0.5,0.1-1.1-0.3-1.6-0.3s-1,0.3-1.5,0.2c-0.5,0-1-0.2-1.5-0.3s-1-0.3-1.5-0.4c-0.5-0.1-1-0.1-1.5-0.2c-0.5-0.1-0.9-0.6-1.4-0.7
				c-0.5-0.1-1.1,0.2-1.6,0.2c-0.1,0-0.3,0.7-0.3,0.6c-0.6-0.1-1.1-0.5-1.5-0.8c-0.5-0.5-0.6-1-0.4-1.4c0.2-0.6,0.2-1.2,0.6-1.3
				c0.4-0.2,1.1,0.2,1.5,0.1c0.3,0,0.6-0.1,1-0.1C161,102.9,161,103.5,161,103.5z"/>
		</g>
		<g>
			<path d="M63.6,204.9c0-0.5,0-1,0.1-1.5s-0.2-1.1,0-1.6s0.4-1,0.6-1.4c0.2-0.5,0.5-0.9,0.7-1.4s0.5-0.9,0.7-1.4
				c0.1-0.4,0.1-0.9,0.2-1.3s0.1-0.9,0.2-1.3s0.4-0.8,0.6-1.2c0.1-0.4,0.2-0.9,0.3-1.3c0.1-0.4,0.1-0.9,0.3-1.3
				c0.1-0.4,0.6-0.8,0.7-1.2c0.1-0.4,0.1-0.9,0.2-1.3s0.2-0.9,0.3-1.3c0.1-0.4-0.3-1-0.2-1.4c0.1-0.4,0.6-0.8,0.8-1.2
				c0.1-0.4-0.1-1,0-1.4s0.5-0.8,0.6-1.2c0.1-0.4,0.1-0.9,0.3-1.3c0.1-0.4,0.4-0.8,0.6-1.2s0.2-0.9,0.4-1.3c0.1-0.4,0.5-0.7,0.7-1.2
				c0.2-0.4,0.1-0.9,0.3-1.3c0.2-0.4,0.6-0.7,0.8-1.1c0.2-0.4,0.3-0.8,0.5-1.2c0.2-0.4,0.5-0.7,0.7-1.1s-0.1-0.9-0.1-1.3
				c0.1-0.4,0.5-0.8,0.6-1.2c0.1-0.4-0.1-0.9,0.1-1.3s0.9-1,1.5-0.9s0.2,1,0.3,1.5c0.1,0.5,0.3,1,0.3,1.5s0,1.1-0.1,1.6
				s-0.2,0.9-0.3,1.4c-0.1,0.5-0.4,0.9-0.5,1.3c-0.1,0.5-0.5,0.9-0.6,1.3c-0.1,0.5,0,1-0.1,1.5s-0.5,0.8-0.7,1.3
				c-0.1,0.5-0.1,1-0.3,1.4c-0.2,0.4-0.6,0.8-0.7,1.3c-0.2,0.4-0.3,0.9-0.5,1.4c-0.2,0.4-0.3,0.9-0.5,1.4s-0.2,0.9-0.4,1.4
				c-0.1,0.5-0.2,0.9-0.4,1.4c-0.1,0.5-0.3,0.9-0.4,1.4s0,1-0.1,1.5s-0.4,0.9-0.5,1.3c-0.1,0.5-0.1,1-0.2,1.4
				c-0.1,0.5-0.2,0.9-0.4,1.4c-0.1,0.5-0.6,0.8-0.7,1.3s-0.2,0.9-0.3,1.4c-0.1,0.5,0.1,1,0,1.5s-0.4,0.9-0.6,1.3
				c-0.1,0.4-0.4,0.8-0.6,1.2c-0.2,0.4-0.3,0.8-0.5,1.2c-0.2,0.4-0.3,0.9-0.5,1.2c-0.2,0.4-0.8,0.6-1,0.9c-0.2,0.4-0.3,0.9-0.5,1.2
				c-0.3,0.5-0.1,1.4-0.9,1.2c-0.8-0.2-0.4-0.9-0.5-1.5C63.8,205.1,63.6,204.9,63.6,204.9z"/>
		</g>
		<g>
			<path d="M106.1,5.9c0,0.5-0.4,0.9-0.4,1.4s-0.1,0.9-0.2,1.4c0,0.5,0.2,1,0.1,1.4c0,0.5-0.2,0.9-0.2,1.4s-0.3,0.9-0.4,1.4
				c0,0.5,0.3,1,0.3,1.4c0,0.5,0,0.9,0,1.4s-0.3,0.9-0.3,1.4s0.2,0.9,0.2,1.4s0.1,0.9,0.1,1.4s-0.3,0.9-0.3,1.4s0.1,0.9,0,1.4
				c0,0.5,0.1,1,0,1.5s-0.5,0.9-0.6,1.4s-0.2,1-0.3,1.5s-0.1,1-0.2,1.5c-0.1,0.5-0.3,1-0.3,1.5c-0.1,0.5-0.2,1-0.2,1.5
				c-0.1,0.5,0.3,1,0.2,1.5s-0.2,1-0.3,1.5s-0.3,1-0.4,1.4c-0.1,0.5-0.4,0.9-0.5,1.4s0,1-0.1,1.5s0,1-0.1,1.5
				c-0.1,0.4-0.2,0.8-0.2,1.2s0.1,0.8,0.2,1.2c0,0.4,0.1,0.9-0.1,1.3c-0.2,0.5-1,0.1-1.5,0.1c-0.6,0-1.1,0.3-1.3-0.1
				c-0.2-0.4-0.2-0.9-0.4-1.4c-0.1-0.5-0.6-1-0.6-1.4c0.1-0.5,0.6-0.9,0.7-1.3c0.1-0.5-0.2-1,0-1.5c0.1-0.5,0.4-0.9,0.5-1.3
				c0.1-0.5,0.1-1,0.2-1.4c0.1-0.5,0.3-0.9,0.4-1.4c0.1-0.5,0-1,0.1-1.4c0.1-0.5,0.3-0.9,0.4-1.4c0.1-0.5-0.2-1-0.1-1.4
				s0.4-0.9,0.4-1.4c0.1-0.5,0-1,0.1-1.4c0.1-0.5,0.3-0.9,0.4-1.4c0.1-0.5-0.2-1-0.1-1.5c0.1-0.5,0.6-0.9,0.7-1.3
				c0.1-0.5-0.1-1-0.1-1.5c0.1-0.5,0.3-0.9,0.4-1.4c0.1-0.5,0.1-0.9,0.2-1.4c0-0.5-0.1-1,0-1.4c0-0.5,0.1-0.9,0.1-1.4s0-1,0-1.4
				c0-0.5,0.2-0.9,0.3-1.4c0.1-0.4,0.3-0.9,0.4-1.3c0.1-0.4-0.2-0.9-0.1-1.4c0-0.5,0.4-0.9,0.4-1.3c0-0.5-0.1-0.9,0-1.4
				c0-0.5,0.3-0.9,0.4-1.3c0.1-0.4,0.1-0.9,0.1-1.4c0.1-0.4,0-0.8,0-1.3c0-0.4,0-0.8,0.2-1.2c0.2-0.3,0.6-0.1,1,0s0.2,0.2,0.2,0.5
				c0,0.5,0.4,0.9,0.5,1.4C106,5,106.1,5.5,106.1,5.9z"/>
		</g>
		<g>
			<path d="M47.8,54.1c-0.4-0.1-0.7-0.4-1-0.7S46,53,45.7,52.7c-0.3-0.3-0.3-0.8-0.6-1.1c-0.3-0.3-0.5-0.8-0.8-1.2
				C44,50.1,43.4,50,43,49.7c-0.3-0.3-0.4-0.9-0.7-1.2c-0.3-0.3-0.9-0.4-1.2-0.7c-0.3-0.3-0.7-0.6-1-1c-0.3-0.3-0.4-0.9-0.7-1.2
				c-0.3-0.3-0.6-0.6-0.9-1s-0.5-0.9-0.9-1.3c-0.3-0.4-0.7-0.7-1-1.1c-0.3-0.4-0.7-0.7-1-1.1c-0.3-0.4-0.8-0.6-1.2-1
				c-0.3-0.4-0.4-1-0.8-1.3c-0.3-0.4-0.7-0.8-1-1.1c-0.4-0.4-0.9-0.5-1.3-0.9c-0.3-0.4-0.4-1-0.8-1.4c-0.3-0.4-0.7-0.8-1-1.2
				c-0.4-0.4-0.9-0.5-1.3-0.9c-0.4-0.3-0.7-0.7-1.1-1.1c-0.4-0.4-0.5-0.9-0.9-1.3c-0.3-0.3-0.9-0.4-1.2-0.7s-0.6-0.6-0.9-1
				c-0.3-0.3-0.4-0.8-0.7-1.2c-0.3-0.3-0.7-0.5-1-0.9c-0.2-0.3-0.4-0.7-0.5-1.1c-0.1-0.4,0.2-0.8,0.1-1.2c-0.1-0.4-0.3-0.7,0-1
				c0.4-0.3,0.8-0.1,1.2,0.1c0.3,0.2,0.1,0.9,0.4,1.2c0.3,0.3,0.6,0.6,0.9,0.9c0.3,0.3,0.7,0.6,1,0.9c0.3,0.3,0.6,0.7,0.9,1
				c0.3,0.3,0.6,0.6,0.9,1c0.3,0.3,0.9,0.3,1.2,0.6s0.6,0.6,1,0.9c0.4,0.3,0.7,0.6,1,0.8c0.4,0.2,0.6,0.6,1,0.9
				c0.4,0.3,0.8,0.4,1.2,0.7s0.8,0.5,1.1,0.8s0.5,0.8,0.7,1.2c0.3,0.4,0.5,0.7,0.8,1.1c0.2,0.4,0.6,0.7,0.8,1.1
				c0.2,0.4,0.2,1,0.4,1.3c0.3,0.4,0.6,0.7,0.9,1c0.4,0.4,0.6,0.8,1,1.2s1.1,0.4,1.4,0.8c0.4,0.4,0.4,1.1,0.7,1.5
				c0.4,0.4,1,0.5,1.4,0.9s0.6,0.9,0.9,1.3c0.3,0.4,0.8,0.7,1.2,1c0.4,0.4,0.6,0.9,1,1.2c0.4,0.4,0.8,0.7,1.2,1.1
				c0.4,0.4,0.5,0.9,0.9,1.3c0.3,0.4,0.9,0.7,1.2,1.1c0.3,0.5-0.2,1.2-0.1,1.8C48.5,53.3,48.6,54.1,47.8,54.1z"/>
		</g>
		<g>
			<path d="M22.4,160.4c-1,0-1.3-0.3-0.8-1c0.3-0.4,0.5-1,0.9-1.4s0.8-0.7,1.3-1c0.4-0.3,0.8-0.7,1.3-0.9c0.4-0.2,0.8-0.6,1.2-0.8
				c0.4-0.2,0.9-0.4,1.3-0.6c0.4-0.2,1-0.2,1.4-0.4c0.4-0.2,0.9-0.5,1.3-0.7c0.5-0.2,0.9-0.3,1.4-0.5c0.4-0.2,1-0.3,1.4-0.5
				s0.9-0.4,1.4-0.6c0.4-0.2,0.7-0.9,1.1-1.1c0.4-0.3,1.1-0.2,1.5-0.4c0.4-0.3,0.8-0.6,1.2-0.8c0.4-0.3,0.7-0.7,1.2-0.9
				c0.4-0.2,1-0.1,1.5-0.2c0.5-0.1,0.9-0.5,1.4-0.7c0.5-0.1,1-0.1,1.5-0.3c0.5-0.1,0.8-0.6,1.3-0.8c0.4-0.2,0.9-0.2,1.3-0.4
				s0.9-0.2,1.3-0.4s0.6-0.8,1-1s1-0.1,1.4-0.3s0.6-0.8,1-1s0.8-0.4,1.2-0.6c0.3-0.1,0.6-0.1,0.9-0.2c0.5-0.1,0.6-0.1,0.9,0.4
				s0.1,0.4-0.2,0.7c-0.3,0.4-0.5,0.7-0.9,0.9c-0.3,0.3-0.6,0.5-1.1,0.7s-0.8,0.7-1.3,0.9s-1.1,0.2-1.5,0.4s-0.9,0.4-1.4,0.7
				s-0.8,0.7-1.2,1c-0.5,0.2-1.1,0.2-1.5,0.4c-0.5,0.2-0.9,0.4-1.4,0.7c-0.4,0.3-0.7,0.8-1.1,1.1s-0.9,0.5-1.3,0.8s-1,0.4-1.4,0.7
				s-0.7,0.9-1.1,1.1c-0.5,0.2-0.9,0.5-1.4,0.6c-0.5,0.2-1.1,0.1-1.6,0.2c-0.5,0.2-0.9,0.5-1.4,0.7s-1,0.3-1.4,0.5
				c-0.5,0.2-1.1,0.1-1.5,0.4c-0.5,0.2-0.9,0.6-1.3,0.8c-0.4,0.3-0.8,0.7-1.2,1s-1.1,0.2-1.5,0.5s-0.9,0.5-1.3,0.8
				c-0.4,0.3-0.9,0.5-1.3,0.8c-0.4,0.2-0.8,0.1-1.2,0.1C23.2,159.9,22.8,160.3,22.4,160.4z"/>
		</g>
		<g>
			<path d="M122.5,161.1c0.5,0.1,0.9-0.2,1.3,0c0.4,0.2,0.8,0.4,1.2,0.6c0.4,0.3,0.6,0.7,1,1c0.3,0.3,0.8,0.5,1.1,0.8
				s0.3,0.9,0.6,1.3c0.3,0.3,0.7,0.6,1,1c0.3,0.3,0.7,0.6,1,0.9s0.5,0.8,0.8,1.1c0.3,0.3,0.7,0.5,1,0.9c0.3,0.3,0.5,0.7,0.8,1.1
				s0.7,0.8,1,1.2c0.3,0.4,1,0.6,1.3,1s0.4,1.1,0.7,1.5s0.9,0.7,1.2,1.1s0.7,0.8,1,1.2c0.3,0.4,0.2,1.1,0.5,1.6s0.7,0.8,1,1.3
				c0.3,0.4,0.5,0.9,0.8,1.4c0.3,0.4,0.7,0.8,0.9,1.3c0.3,0.4,0.7,0.8,1,1.2c0.3,0.5,0.5,0.9,0.8,1.4s0.4,1,0.7,1.5
				c0.4,0.6,1.5,0.8,0.7,1.5c-0.7,0.6-1.2-0.1-1.8-0.6c-0.4-0.3-0.6-0.7-1-0.9c-0.4-0.3-0.6-0.6-1-1c-0.3-0.3-1-0.4-1.3-0.7
				c-0.3-0.3-0.3-1-0.6-1.3c-0.3-0.4-0.6-0.7-0.9-1c-0.3-0.4-0.8-0.6-1-0.9c-0.3-0.4-0.3-1-0.6-1.4s-0.8-0.7-1-1.1
				c-0.3-0.4-0.4-0.9-0.7-1.3s-0.8-0.6-1.1-1s-0.4-0.9-0.7-1.3s-0.5-0.9-0.8-1.2c-0.3-0.4-1-0.4-1.3-0.8c-0.3-0.3-0.4-1-0.7-1.3
				s-1-0.4-1.3-0.8s-0.7-0.7-1-1.1s-0.4-1-0.7-1.3c-0.3-0.4-0.6-0.7-1-1.1c-0.3-0.4-0.5-0.8-0.8-1.2s-0.7-0.7-1-1.1s-0.7-0.7-1-1
				c-0.4-0.5-1.5-0.7-1.7-1.3C121,161.4,121.9,161.2,122.5,161.1z"/>
		</g>
		<g>
			<path d="M151,59.1c0.1-0.4,0.2-0.8,0.3-1.2s0.5-0.6,0.7-1c0.2-0.3,0.3-0.7,0.6-1s0.6-0.7,1-1.1c0.3-0.4,0.7-0.7,1.1-1
				c0.3-0.4,0.7-0.7,1-1c0.3-0.4,0.6-0.7,1-1s0.6-0.8,1-1.1s0.8-0.6,1.2-0.9c0.4-0.3,0.9-0.4,1.3-0.7c0.4-0.3,0.6-0.8,1-1.1
				s0.8-0.6,1.2-0.9c0.4-0.3,0.6-0.8,1-1.1s1.1-0.2,1.5-0.5s0.6-0.8,1-1.1s0.8-0.6,1.2-0.9c0.4-0.3,0.9-0.5,1.3-0.8
				c0.4-0.3,0.6-0.8,1-1.1s1-0.4,1.3-0.7c0.4-0.3,0.7-0.7,1-1.1c0.4-0.3,0.6-0.7,1-1.1c0.4-0.3,0.9-0.5,1.2-0.8
				c0.4-0.3,0.7-0.7,1.1-1c0.6-0.4,1.2-0.7,1.8-1.1c0.2-0.1,0.6-0.3,1-0.4c0.4-0.1,0.9-0.4,1.2-0.1c0.4,0.5-0.9,1.3-1.2,1.7
				s-0.3,0.9-0.6,1.3c-0.3,0.4-0.5,0.8-0.8,1.2s-1,0.4-1.3,0.7s-0.6,0.8-0.9,1.1c-0.4,0.3-0.8,0.6-1.1,0.9c-0.3,0.3-0.7,0.6-1,0.9
				c-0.4,0.3-0.7,0.7-1.1,0.9c-0.4,0.2-0.8,0.5-1.2,0.7s-0.9,0.3-1.3,0.6c-0.4,0.3-0.7,0.6-1,0.9c-0.3,0.3-0.7,0.6-1,0.9
				c-0.3,0.3-0.7,0.6-1,1s-0.6,0.7-0.9,1.1c-0.3,0.4-0.2,1-0.5,1.4c-0.3,0.3-0.9,0.4-1.2,0.7c-0.4,0.3-0.7,0.7-1.1,1.1
				c-0.4,0.3-0.6,0.9-0.9,1.2c-0.4,0.3-1,0.4-1.4,0.8c-0.4,0.3-0.6,0.9-1,1.2s-0.9,0.6-1.2,0.9c-0.4,0.3-0.5,0.9-0.9,1.3
				c-0.4,0.3-0.9,0.5-1.3,0.8c-0.4,0.3-0.9,0.5-1.3,0.8c-0.3,0.2-0.5,0.6-0.9,0.6s-0.8-0.4-1.1-0.3C150.9,59.7,151,59.9,151,59.1z"
				/>
		</g>
		<g>
			<path d="M9.8,97.2c0.5,0,1,0,1.5,0.1s1.1-0.1,1.6-0.1c0.5,0.1,1,0.3,1.5,0.4c0.5,0.1,1,0.4,1.5,0.4c0.5,0.1,1.1-0.2,1.6-0.2
				c0.5,0.1,1,0.1,1.5,0.1s1,0,1.6,0.1c0.5,0,1,0.3,1.5,0.4c0.5,0,1.1-0.2,1.6-0.1c0.5,0.1,0.9,0.6,1.4,0.8s1.1,0.4,1,1.2
				c-0.1,0.7-0.7,0.6-1.3,0.7c-0.5,0-1,0.2-1.6,0.2c-0.5,0.1-1.1-0.3-1.6-0.2c-0.5,0-1,0.2-1.6,0.2c-0.5,0-1.1,0.1-1.6,0.1
				s-1-0.3-1.6-0.3c-0.5,0-0.9,0.1-1.4,0c-0.5,0-0.9,0-1.4-0.1c-0.5,0-0.9-0.2-1.4-0.3c-0.5,0-0.9-0.2-1.4-0.2s-0.9-0.1-1.4-0.1
				s-0.9,0.1-1.4,0.1s-0.9-0.1-1.4-0.1s-1-0.3-1.5-0.4c-0.5-0.1-1.1,0-1.6-0.2c-0.4-0.2-1-0.7-0.9-1.2C3.1,98.1,3.8,98,4.2,98
				c0.5-0.1,1,0.3,1.5,0.2s0.8-0.5,1.3-0.7c0.5-0.1,0.9-0.3,1.4-0.4C8.8,97.1,9.3,97.3,9.8,97.2z"/>
		</g>
	</g>
</g>
</svg>
