<?xml version="1.0" encoding="utf-8"?>
<!-- Generator: Adobe Illustrator 24.2.2, SVG Export Plug-In . SVG Version: 6.00 Build 0)  -->
<svg version="1.1" id="Layer_1" xmlns="http://www.w3.org/2000/svg" xmlns:xlink="http://www.w3.org/1999/xlink" x="0px" y="0px"
	 viewBox="0 0 230 209" style="enable-background:new 0 0 230 209;" xml:space="preserve">
<style type="text/css">
	.st0{fill:#FF7BE9;}
</style>
<g>
	<g>
		<g>
			<path class="st0" d="M175.4,16c-0.2-0.4-0.6-0.6-0.8-0.9c-0.2-0.3-0.2-0.8-0.5-1.2c-0.2-0.3-0.5-0.7-0.8-1
				c-0.3-0.3-0.7-0.5-1-0.8c-0.3-0.3-0.8-0.3-1.1-0.6c-0.3-0.3-0.4-0.8-0.8-1c-0.3-0.2-0.6-0.5-1-0.7c-0.4-0.2-0.8-0.3-1.2-0.4
				c-0.4-0.2-0.7-0.5-1.1-0.6c-0.4-0.1-0.9,0.1-1.3-0.1c-0.4-0.1-0.7-0.6-1.1-0.7c-0.4-0.1-0.8-0.2-1.2-0.4
				c-0.4-0.1-0.7-0.4-1.1-0.5c-0.4-0.1-0.9,0.1-1.3,0c-0.4-0.1-0.7-0.6-1.1-0.7c-0.4-0.1-0.8-0.2-1.2-0.2c-0.4-0.1-0.8,0.1-1.2,0
				c-0.4-0.1-0.8-0.2-1.2-0.3c-0.4-0.1-0.8-0.2-1.2-0.2c-0.4,0-0.8,0.1-1.2,0.1c-0.4,0-0.8-0.2-1.2-0.2c-0.4,0-0.8-0.1-1.2-0.1
				c-0.4,0-0.8,0-1.2,0c-0.4,0-0.8,0-1.2,0c-0.4,0-0.8-0.1-1.2-0.1c-0.4,0-0.8,0.3-1.2,0.3c-0.4,0-0.8-0.3-1.2-0.3
				c-0.4,0-0.8-0.1-1.2-0.2c-0.4,0-0.8,0.4-1.2,0.5c-0.4,0-0.8,0-1.2,0.1c-0.4,0-0.8-0.1-1.2-0.1c-0.4,0.1-0.7,0.5-1.1,0.6
				c-0.4,0.1-0.8,0.1-1.2,0.2c-0.4,0.1-0.7,0.4-1.1,0.5c-0.4,0.1-0.9,0-1.2,0.1c-0.4,0.1-0.8,0-1.2,0.1c-0.4,0.1-0.7,0.6-1.1,0.6
				c-0.4,0.1-0.8-0.2-1.3-0.1c-0.4,0.1-0.8,0.1-1.2,0.2c-0.4,0.1-0.8,0.1-1.2,0.2c-0.4,0.1-0.8,0.2-1.2,0.3
				c-0.4,0.1-0.8,0.2-1.2,0.4c-0.4,0.1-0.7,0.5-1.1,0.6c-0.4,0.1-0.8,0.1-1.2,0.3c-0.4,0.2-0.8,0.3-1.1,0.5
				c-0.4,0.2-0.8,0.3-1.1,0.4c-0.4,0.2-0.7,0.4-1.1,0.5c-0.4,0.2-0.6,0.7-0.9,0.9c-0.4,0.2-0.9,0.1-1.2,0.2c-0.4,0.2-0.6,0.5-1,0.7
				c-0.3,0.2-0.8,0.2-1.2,0.4c-0.3,0.2-0.6,0.6-0.9,0.8c-0.3,0.2-0.6,0.5-1,0.7c-0.3,0.2-0.9,0.1-1.2,0.3c-0.3,0.2-0.6,0.5-1,0.7
				c-0.3,0.2-0.6,0.5-1,0.7c-0.3,0.2-0.7,0.5-1,0.7c-0.3,0.2-0.9,0.1-1.2,0.4c-0.3,0.2-0.6,0.6-0.9,0.8c-0.3,0.2-0.6,0.6-0.9,0.8
				c-0.3,0.2-0.8,0.3-1.1,0.5c-0.3,0.2-0.7,0.4-1,0.6c-0.3,0.2-0.4,0.8-0.7,1c-0.3,0.2-0.9,0.2-1.2,0.4c-0.3,0.2-0.5,0.7-0.8,1
				c-0.3,0.2-0.7,0.4-1,0.6c-0.3,0.3-0.5,0.6-0.9,0.9c-0.3,0.3-0.6,0.5-1,0.8c-0.3,0.3-0.7,0.4-1,0.7c-0.3,0.3-0.7,0.5-1,0.7
				c-0.3,0.3-0.7,0.5-1,0.7c-0.3,0.3-0.5,0.6-0.8,0.9c-0.3,0.3-0.4,0.7-0.7,1c-0.3,0.3-0.8,0.4-1.1,0.7c-0.3,0.3-0.6,0.5-0.9,0.8
				c-0.3,0.3-0.6,0.6-0.8,0.9c-0.3,0.3-0.3,0.9-0.5,1.2c-0.3,0.3-0.8,0.4-1.1,0.7c-0.3,0.3-0.5,0.7-0.7,1c-0.3,0.3-0.3,0.8-0.6,1.1
				c-0.3,0.3-0.9,0.3-1.2,0.6c-0.3,0.3-0.3,0.8-0.6,1.1c-0.3,0.3-0.5,0.6-0.7,0.9c-0.3,0.3-0.5,0.6-0.8,0.9
				c-0.3,0.3-0.6,0.5-0.8,0.9c-0.3,0.3-0.6,0.5-0.9,0.9c-0.2,0.3-0.4,0.7-0.6,1.1c-0.2,0.3-0.4,0.7-0.6,1c-0.2,0.3-0.7,0.5-0.9,0.8
				c-0.2,0.3-0.6,0.6-0.8,0.9c-0.2,0.3-0.5,0.7-0.7,1c-0.3,0.3-0.4,0.7-0.6,1c-0.3,0.3-0.6,0.5-0.9,0.9c-0.3,0.3-0.3,0.8-0.6,1.1
				c-0.2,0.3-0.5,0.6-0.8,0.9c-0.2,0.3-0.4,0.7-0.7,1c-0.2,0.3-0.5,0.7-0.7,1c-0.2,0.3-0.7,0.5-0.9,0.8c-0.2,0.3-0.2,0.8-0.5,1.1
				c-0.2,0.3-0.5,0.6-0.7,1c-0.2,0.3-0.5,0.6-0.7,1c-0.2,0.3-0.8,0.4-1,0.8c-0.2,0.3-0.3,0.8-0.5,1.1c-0.2,0.3-0.5,0.7-0.7,1
				c-0.2,0.4-0.2,0.8-0.4,1.2c-0.2,0.4-0.7,0.6-0.9,0.9c-0.2,0.4-0.3,0.7-0.5,1.1c-0.2,0.4-0.3,0.7-0.5,1.1c-0.2,0.3-0.4,0.7-0.6,1
				c-0.2,0.3-0.2,0.8-0.4,1.2c-0.2,0.3-0.4,0.7-0.6,1c-0.2,0.4-0.8,0.5-1,0.8c-0.2,0.4-0.3,0.8-0.5,1.1c-0.2,0.4-0.4,0.7-0.6,1
				c-0.2,0.4-0.4,0.7-0.6,1.1c-0.2,0.4-0.3,0.8-0.4,1.1c-0.2,0.4,0,0.9-0.2,1.2c-0.2,0.4-0.6,0.6-0.7,1c-0.2,0.4-0.4,0.7-0.6,1.1
				c-0.2,0.4-0.1,0.8-0.2,1.2c-0.2,0.4-0.5,0.7-0.7,1c-0.2,0.4-0.5,0.7-0.6,1c-0.2,0.4-0.3,0.7-0.5,1.1c-0.2,0.4-0.2,0.8-0.4,1.1
				c-0.2,0.4-0.2,0.8-0.4,1.1c-0.2,0.4-0.5,0.7-0.7,1c-0.1,0.4-0.2,0.8-0.3,1.2c-0.1,0.4,0.1,0.9-0.1,1.2c-0.1,0.4-0.5,0.7-0.6,1.1
				c-0.1,0.4-0.2,0.8-0.3,1.2c-0.1,0.4,0,0.8-0.1,1.2c-0.1,0.4-0.4,0.7-0.6,1.1c-0.1,0.4,0,0.8-0.1,1.2c-0.1,0.4-0.2,0.8-0.3,1.2
				c-0.1,0.4-0.5,0.7-0.6,1.1c-0.1,0.4-0.2,0.8-0.3,1.2c-0.1,0.4,0.2,0.9,0.1,1.3c-0.1,0.4-0.3,0.7-0.4,1.1
				c-0.1,0.4-0.2,0.8-0.3,1.2c-0.1,0.4-0.5,0.7-0.6,1.1c-0.1,0.4,0,0.8-0.1,1.2c-0.1,0.4-0.1,0.8-0.2,1.2c-0.1,0.4-0.4,0.7-0.5,1.1
				c-0.1,0.4,0,0.9-0.1,1.2c-0.3,0.3-0.7,0.4-1,0.7c-0.3,0.3-0.7,0.4-1,0.6c-0.3,0.2-0.5,0.6-0.8,0.8c-0.3,0.2-0.8,0.2-1.1,0.4
				c-0.3,0.2-0.5,0.7-0.8,0.9c-0.3,0.2-0.8,0.1-1.2,0.3c-0.3,0.2-0.5,0.6-0.9,0.8c-0.3,0.2-0.7,0.3-1.1,0.5
				c-0.3,0.2-0.7,0.3-1.1,0.5c-0.4,0.2-0.7,0.4-1,0.6c-0.4,0.2-0.8,0-1.2,0.2c-0.4,0.1-0.7,0.3-1.1,0.5c-0.4,0.1-0.8,0.1-1.2,0.3
				c-0.4,0.1-0.6,0.7-0.9,0.8c-0.4,0.1-0.8,0-1.2,0.2c-0.4,0.1-0.6,0.5-1,0.6c-0.4,0.1-0.8,0-1.2,0.1c-0.4,0.1-0.6,0.6-1,0.8
				c-0.4,0.1-0.9,0-1.2,0.1c-0.4,0.2-0.5,0.7-0.9,0.9c-0.3,0.2-0.8,0.1-1.2,0.3c-0.3,0.2-0.6,0.6-0.9,0.8c-0.3,0.2-0.7,0.3-1.1,0.5
				c-0.3,0.2-0.6,0.5-1,0.7c-0.3,0.2-0.8,0.2-1.1,0.4c-0.3,0.2-0.7,0.3-1.1,0.5c-0.3,0.2-0.7,0.4-1,0.6c-0.3,0.2-0.7,0.4-1,0.6
				c-0.3,0.2-0.8,0.2-1.1,0.4c-0.3,0.2-0.4,0.7-0.8,1c-0.3,0.2-0.6,0.4-0.9,0.7c-0.3,0.3-0.6,0.5-0.9,0.8c-0.3,0.3-0.5,0.6-0.8,0.9
				c-0.3,0.3-0.6,0.5-0.9,0.8c-0.3,0.3-0.6,0.5-0.8,0.8c-0.3,0.3-0.5,0.6-0.8,0.9c-0.3,0.3-0.7,0.4-1,0.7c-0.2,0.3-0.1,0.9-0.3,1.2
				c-0.2,0.3-0.7,0.5-0.9,0.8c-0.2,0.3-0.1,0.8-0.3,1.2c-0.2,0.3-0.5,0.6-0.7,1c-0.2,0.3-0.6,0.5-0.8,0.9c-0.2,0.3-0.5,0.6-0.7,1
				c-0.2,0.3-0.4,0.7-0.7,1c-0.2,0.3-0.2,0.8-0.5,1.2c-0.2,0.3-0.5,0.6-0.7,1c-0.2,0.3-0.4,0.7-0.6,1.1c-0.2,0.4-0.6,0.6-0.7,1
				c-0.2,0.4-0.3,0.7-0.5,1.1c-0.2,0.4-0.4,0.7-0.6,1c-0.2,0.4-0.4,0.7-0.6,1.1c-0.2,0.4-0.2,0.8-0.4,1.2c-0.2,0.4-0.5,0.7-0.6,1.1
				c-0.2,0.4-0.3,0.8-0.5,1.1c-0.1,0.4-0.2,0.8-0.3,1.2c-0.1,0.4,0,0.8-0.1,1.2c-0.1,0.4-0.4,0.8-0.5,1.2c-0.1,0.4-0.1,0.8-0.2,1.2
				c-0.1,0.4-0.3,0.8-0.4,1.2c-0.1,0.4,0,0.8-0.1,1.2c-0.1,0.4-0.3,0.8-0.4,1.2c-0.1,0.4,0.1,0.8,0,1.2c-0.1,0.4-0.2,0.8-0.2,1.2
				c0,0.4,0.1,0.8,0.1,1.2c0,0.4-0.3,0.8-0.3,1.2c0,0.4,0,0.8,0,1.2c0,0.4-0.4,0.8-0.4,1.2c0,0.4,0,0.8-0.1,1.2
				c0,0.4,0.1,0.8,0.1,1.2c0,0.4-0.3,0.8-0.3,1.2c0,0.4,0,0.8,0,1.2c0,0.4,0.2,0.8,0.2,1.2c0,0.4-0.2,0.8-0.2,1.2
				c0,0.4,0.3,0.8,0.4,1.2c0.1,0.4,0.3,0.8,0.4,1.2c0.1,0.4,0.1,0.8,0.1,1.2c0.1,0.4,0.2,0.8,0.3,1.2c0.1,0.4-0.2,0.9-0.2,1.3
				c0.1,0.4,0.3,0.8,0.4,1.2c0.1,0.4,0.4,0.7,0.5,1.1c0.1,0.4,0.1,0.8,0.2,1.2c0.1,0.4,0,0.8,0.1,1.2c0.1,0.4,0.3,0.8,0.4,1.1
				c0.1,0.4,0,0.9,0.1,1.2c0.1,0.4,0.4,0.7,0.5,1.1c0.1,0.4,0.3,0.8,0.4,1.1c0.1,0.4,0.3,0.7,0.5,1.1c0.1,0.4,0.2,0.8,0.4,1.2
				c0.2,0.4,0.2,0.8,0.3,1.2c0.2,0.4,0.7,0.6,0.9,0.9c0.2,0.3,0.5,0.6,0.8,0.9c0.2,0.3,0.4,0.7,0.6,1.1c0.3,0.3,0.6,0.5,0.9,0.8
				c0.3,0.3,0.7,0.5,1,0.8c0.3,0.3,0.3,0.9,0.6,1.2c0.3,0.3,0.6,0.6,0.8,0.9c0.3,0.3,0.8,0.3,1.1,0.6c0.3,0.3,0.5,0.6,0.8,0.9
				c0.3,0.3,0.5,0.6,0.8,0.9c0.3,0.3,0.7,0.5,1,0.7c0.3,0.3,0.4,0.8,0.7,1c0.3,0.2,0.7,0.5,1,0.7c0.3,0.2,0.9,0.2,1.2,0.4
				c0.3,0.2,0.7,0.4,1,0.7c0.3,0.2,0.4,0.8,0.8,1c0.3,0.2,0.8,0.3,1.2,0.5c0.3,0.2,0.6,0.5,1,0.7c0.4,0.2,0.8,0.2,1.2,0.4
				c0.4,0.2,0.6,0.5,1,0.6c0.4,0.1,0.7,0.2,1.1,0.4c0.4,0.1,0.8,0,1.2,0.1c0.4,0.1,0.8,0.1,1.2,0.2c0.4,0.1,0.7,0.3,1.1,0.4
				c0.4,0.1,0.7,0.2,1.1,0.4c0.4,0.1,0.8,0.2,1.1,0.3c0.4,0.1,0.8,0.2,1.1,0.3c0.4,0.1,0.7,0.4,1,0.6c0.4,0.1,0.8,0.1,1.1,0.2
				c0.4,0.1,0.8,0.2,1.1,0.3c0.4,0.1,0.7,0.5,1,0.6c0.4,0.1,0.7,0.3,1.1,0.4c0.4,0.1,0.8-0.2,1.2-0.1c0.4,0.1,0.7,0.4,1.1,0.5
				c0.4,0.1,0.8-0.1,1.2,0c0.4,0.1,0.7,0.5,1.1,0.6c0.4,0.1,0.8-0.1,1.2,0c0.4,0.1,0.7,0.4,1.1,0.4c0.4,0.1,0.8,0.1,1.1,0.2
				c0.4,0.1,0.8-0.3,1.2-0.2c0.4,0.1,0.7,0.5,1.1,0.5c0.4,0.1,0.8,0,1.2,0.1c0.4,0,0.8,0.3,1.1,0.3c0.4,0,0.8,0.1,1.2,0.1
				c0.4,0,0.8,0,1.2,0c0.4,0,0.8,0,1.2,0c0.4,0,0.8,0,1.2,0c0.4,0,0.8,0.2,1.2,0.2c0.4,0,0.8-0.4,1.2-0.4c0.4,0,0.8,0.3,1.2,0.2
				c0.4,0,0.8-0.2,1.2-0.2c0.4,0,0.8-0.1,1.2-0.2c0.4,0,0.8,0,1.2,0c0.4,0,0.8-0.3,1.1-0.3s0.8,0,1.2,0c0.4-0.1,0.8,0,1.2-0.1
				c0.4-0.1,0.8-0.1,1.2-0.2c0.4-0.1,0.7-0.3,1.1-0.4c0.4-0.1,0.7-0.4,1.1-0.5c0.4-0.1,0.8,0.1,1.2,0c0.4-0.1,0.7-0.2,1.1-0.3
				c0.4-0.1,0.7-0.3,1.1-0.4c0.4-0.1,0.8,0,1.2,0c0.4-0.1,0.8-0.2,1.1-0.2c0.4-0.1,0.7-0.2,1.1-0.3c0.4-0.1,0.8-0.1,1.2-0.2
				c0.4-0.1,0.7-0.2,1.1-0.3c0.4-0.1,0.8-0.2,1.1-0.3c0.4-0.1,0.8-0.1,1.1-0.3c0.4-0.1,0.7-0.4,1-0.6c0.4-0.1,0.8-0.1,1.1-0.3
				c0.4-0.2,0.8-0.2,1.1-0.3c0.4-0.2,0.7-0.4,1-0.6c0.4-0.1,0.7-0.4,1-0.5c0.3-0.2,0.6-0.6,0.9-0.8c0.3-0.2,0.7-0.3,1.1-0.5
				c0.3-0.2,0.8-0.2,1.1-0.4c0.3-0.2,0.7-0.3,1-0.5c0.3-0.2,0.7-0.4,1-0.6c0.3-0.2,0.7-0.4,1-0.5c0.3-0.2,0.6-0.5,0.9-0.7
				c0.3-0.2,0.7-0.3,1.1-0.5c0.3-0.2,0.6-0.5,1-0.6c0.3-0.2,0.7-0.3,1.1-0.5c0.3-0.2,0.6-0.5,0.9-0.7c0.3-0.2,0.6-0.5,0.9-0.7
				c0.3-0.2,0.7-0.3,1-0.5c0.3-0.2,0.7-0.3,1-0.5c0.3-0.2,0.7-0.4,1-0.6c0.3-0.2,0.4-0.7,0.7-1c0.3-0.2,0.8-0.2,1.1-0.5
				c0.3-0.2,0.6-0.5,0.9-0.8c0.3-0.3,0.5-0.6,0.8-0.9c0.3-0.3,0.6-0.5,0.9-0.8c0.3-0.3,0.3-0.8,0.6-1.1c0.3-0.3,0.7-0.4,1-0.6
				c0.3-0.3,0.5-0.6,0.7-0.9c0.3-0.3,0.5-0.6,0.8-0.9c0.3-0.3,0.6-0.6,0.8-0.9c0.2-0.3,0.5-0.7,0.8-1c0.2-0.3,0.5-0.7,0.7-1
				c0.2-0.3,0.5-0.7,0.8-1c0.3-0.3,0.5-0.6,0.8-1c0.2-0.3,0.4-0.7,0.7-1c0.2-0.3,0.4-0.7,0.6-1.1c0.2-0.3,0.8-0.5,1-0.8
				c0.2-0.3,0.5-0.7,0.7-1c0.2-0.3,0.4-0.7,0.7-1c0.3-0.3,0.5-0.7,0.7-1c0.3-0.3,0.7-0.5,0.9-0.8c0.3-0.3,0.5-0.7,0.7-1
				c0.3-0.3,0.6-0.6,0.8-1c0.2-0.3-0.2-0.6-0.5-1.1c-0.2-0.3-0.2-0.8-0.5-1.1c-0.2-0.3-0.6-0.5-0.9-0.8c-0.3-0.3-0.7-0.4-1-0.8
				c-0.3-0.3-0.5-0.6-0.8-0.9c-0.3-0.3-0.4-0.7-0.7-1.1c-0.3-0.3-0.6-0.6-0.8-0.9c-0.2-0.3-0.6-0.6-0.8-0.9c-0.2-0.3-0.4-0.7-0.6-1
				c-0.2-0.3-0.2-0.8-0.4-1.2c-0.2-0.3-0.6-0.6-0.9-0.9c-0.2-0.3-0.4-0.7-0.7-1c-0.2-0.3-0.5-0.6-0.8-0.9c-0.2-0.3-0.4-0.7-0.6-1.1
				c-0.2-0.3-0.3-0.7-0.5-1.1c-0.2-0.3-0.5-0.6-0.7-1c-0.2-0.3-0.4-0.7-0.6-1c-0.2-0.3-0.3-0.7-0.5-1.1c-0.2-0.3-0.7-0.5-0.9-0.9
				c-0.2-0.3-0.1-0.9-0.3-1.2c-0.2-0.3-0.4-0.7-0.6-1.1c-0.2-0.3-0.3-0.7-0.5-1.1c-0.2-0.4-0.7-0.5-0.9-0.9
				c-0.2-0.4-0.2-0.8-0.4-1.2c-0.2-0.4-0.3-0.7-0.5-1.1c-0.1-0.4-0.3-0.8-0.4-1.2c-0.1-0.4-0.2-0.8-0.3-1.2c-0.1-0.4,0.1-0.8,0-1.2
				c-0.1-0.4-0.5-0.7-0.6-1.1c-0.1-0.4-0.2-0.8-0.3-1.2c-0.1-0.4,0.2-0.9,0-1.3c-0.1-0.4-0.7-0.6-0.9-1c-0.2-0.4,0-0.9-0.1-1.3
				c-0.2-0.4-0.5-0.7-0.6-1.1c-0.1-0.4-0.4-0.7-0.5-1.1c-0.1-0.4,0-0.8-0.1-1.2c-0.1-0.4-0.6-0.7-0.6-1.1c-0.1-0.4,0.2-0.8,0.2-1.2
				c0-0.4-0.2-0.8-0.2-1.2c0-0.4,0-0.8-0.1-1.2c0-0.4-0.2-0.8-0.2-1.2c0-0.4,0.2-0.8,0.2-1.2c-0.1-0.4-0.4-0.8-0.4-1.2
				c0-0.4-0.2-0.8-0.3-1.2c0-0.4,0.1-0.8,0.1-1.2c0-0.4-0.1-0.8-0.1-1.2c0-0.4-0.2-0.8-0.2-1.2c0-0.4,0.3-0.8,0.3-1.2
				c0-0.4-0.4-0.8-0.4-1.2c0-0.4,0-0.8-0.1-1.2c-0.1-0.4,0-0.8,0-1.2c-0.1-0.4,0.1-0.8,0-1.2c0-0.4-0.1-0.8-0.1-1.2
				c0-0.4,0-0.8,0-1.2c0-0.4-0.5-0.8-0.5-1.2c0-0.4,0-0.8,0.1-1.2c0-0.4,0.2-0.8,0.3-1.2c0-0.4,0.1-0.8,0.1-1.2
				c0-0.4,0.3-0.8,0.4-1.2c0-0.4-0.2-0.8-0.2-1.2c0-0.4,0.1-0.8,0.1-1.1c0-0.4-0.1-0.8-0.1-1.1c0-0.4,0.3-0.8,0.3-1.1
				c0-0.4-0.3-0.8-0.3-1.1c0-0.4-0.1-0.8-0.1-1.1c0-0.4,0.1-0.8,0.1-1.1c0-0.4-0.4-0.7-0.4-1.1c0-0.4,0-0.8,0-1.1
				c0-0.4,0.2-0.8,0.1-1.2c0-0.4-0.1-0.8-0.1-1.1c0-0.4,0-0.8,0-1.1c0-0.4-0.3-0.7-0.3-1.1c0-0.4-0.2-0.7-0.3-1.1
				c0-0.4,0.3-0.8,0.3-1.1c0-0.4,0.1-0.7,0.1-1.1c0-0.4,0-0.7,0-1.1c0-0.4-0.3-0.8-0.2-1.1c0-0.4,0.3-0.7,0.4-1.1
				c0.1-0.4,0.2-0.7,0.3-1.1c0.1-0.4,0.2-0.7,0.3-1.1c0.1-0.4,0.2-0.7,0.3-1.1c0.1-0.3,0-0.8,0.2-1.2c0.2-0.3,0.5-0.6,0.7-0.9
				c0.2-0.3,0.2-0.8,0.4-1.1c0.2-0.3,0.6-0.5,0.9-0.8c0.2-0.3,0.3-0.7,0.6-1c0.2-0.3,0.5-0.6,0.7-0.9c0.2-0.3,0.7-0.4,0.9-0.7
				c0.1-0.2,0.1-0.7,0.3-1.2c0.1-0.3,0.2-0.7,0.3-1.1c0.1-0.4,0.2-0.7,0.3-1.1c0.1-0.4,0.3-0.7,0.4-1.1c0.1-0.4,0.2-0.8,0.2-1.1
				c0.1-0.4-0.1-0.8,0-1.2c0.1-0.5,0.3-0.9,0.3-1.1c0-0.3,0-0.7,0-1.1c0-0.3,0.2-0.7,0.3-1.1c0.1-0.3,0-0.7,0.2-1.1
				c0.1-0.3,0.2-0.7,0.3-1.1c0.1-0.3,0.3-0.7,0.5-1c0.1-0.3,0.3-0.7,0.4-1.1c0.1-0.3,0.3-0.7,0.5-1c0.2-0.3,0.4-0.6,0.6-0.9
				c0.2-0.3,0.5-0.5,0.8-0.8c0.3-0.2,0.5-0.6,0.9-0.8c0.4-0.1,0.8-0.3,1.1-0.4c0.4,0,0.8,0,1.2,0c0.4,0.1,0.6,0.6,0.9,0.7
				c0.3,0.2,0.8,0.1,1.1,0.3c0.3,0.2,0.6,0.5,0.9,0.6c0.3,0.1,0.7,0,1.1-0.2c0.4-0.2,0.5-0.5,0.8-0.9c0.2-0.3,0.7-0.5,0.9-0.8
				c0.2-0.3,0.1-0.9,0.3-1.2c0.2-0.3,0.7-0.5,0.9-0.8c0.3-0.3,0.5-0.6,0.9-0.8c0.3-0.2,0.7-0.4,1.1-0.5c0.4-0.1,0.8-0.1,1.2-0.2
				c0.4-0.1,0.7-0.3,1.1-0.2c0.3,0.1,0.7,0.2,1.1,0.4c0.3,0.2,0.6,0.4,0.9,0.6c0.3,0.2,0.5,0.6,0.9,0.7c0.3,0.2,0.7,0.3,1.1,0.4
				c0.3,0.1,0.7-0.3,1.1-0.4c0.4-0.1,0.7-0.1,1-0.5c0.3-0.3,0.5-0.6,0.8-0.9c0.2-0.3,0.5-0.6,0.8-0.9c0.3-0.3,0.6-0.5,1-0.7
				c0.3-0.2,0.7-0.3,1.2-0.3c0.4-0.1,0.9-0.1,1.2,0c0.4,0.1,0.8,0.2,1.1,0.5c0.3,0.2,0.6,0.6,0.8,0.9c0.2,0.3,0.5,0.7,0.6,1.1
				c0.1,0.4,0,0.9,0.1,1.2c0.1,0.5,0.1,0.9,0.1,1.2c0,0.3,0.3,0.7,0.3,1.1c0,0.4,0,0.7,0,1.1c0,0.4,0.1,0.7,0.1,1.1
				c0,0.4-0.4,0.7-0.4,1.1c0,0.4,0.3,0.8,0.3,1.1c0,0.4-0.4,0.7-0.4,1.1c0,0.4,0,0.7-0.1,1.1c0,0.4,0.3,0.8,0.2,1.2
				c-0.1,0.4-0.2,0.7-0.3,1.1c-0.1,0.4-0.1,0.7-0.2,1.1c-0.1,0.4-0.2,0.7-0.3,1.1c-0.1,0.4-0.4,0.7-0.5,1c-0.1,0.4-0.2,0.7-0.2,1.1
				c-0.1,0.4,0,0.8-0.1,1.1c0,0.4,0,0.8-0.1,1.1c0,0.4-0.1,0.7-0.1,1.1c0,0.4,0.2,0.8,0.3,1.1c0,0.4-0.3,0.8-0.2,1.1
				c0,0.4,0.3,0.8,0.3,1.1c0,0.4,0,0.8,0,1.1c0,0.4-0.4,0.7-0.4,1.1c0,0.4-0.1,0.7-0.2,1.1c0,0.4,0.2,0.8,0.2,1.1
				c0,0.4-0.1,0.7-0.1,1.1c0,0.4,0.1,0.8,0,1.1c0,0.4-0.1,0.7-0.1,1.1c0,0.4-0.1,0.7-0.1,1.1c0,0.4,0.3,0.8,0.3,1.1
				c0,0.4-0.3,0.7-0.4,1.1c0,0.4-0.1,0.7-0.1,1.1c0,0.4,0,0.8-0.1,1.1c0,0.4,0.4,0.8,0.4,1.1c0,0.4-0.3,0.8-0.3,1.1
				c0,0.4,0.2,0.7,0.2,1.1c0,0.4,0.1,0.7,0.1,1.1c0.1,0.4,0,0.8,0.1,1.1c0.1,0.4,0.2,0.7,0.3,1.1c0.1,0.4,0.1,0.7,0.2,1.1
				c0.1,0.4,0.3,0.7,0.4,1c0.1,0.4,0.3,0.7,0.4,1c0.1,0.4,0,0.8,0.1,1.1c0.1,0.4,0.1,0.8,0.3,1.1c0.1,0.3,0.3,0.7,0.4,1
				c0.2,0.3,0.5,0.6,0.7,0.9c0.2,0.3,0.4,0.6,0.6,1c0.2,0.3,0.6,0.5,0.8,0.9c0.2,0.3,0.3,0.7,0.4,1c0.2,0.3,0,0.8,0.1,1.2
				c0.1,0.4,0.4,0.6,0.5,1c0.1,0.4,0.3,0.7,0.4,1c0.1,0.4,0.1,0.8,0.2,1.1c0.1,0.4,0.5,0.6,0.6,0.9c0.2,0.4,0.3,0.6,0.5,1
				c0.2,0.4,0.5,0.7,0.7,1.1c0.3,0.4,0.5,0.7,0.8,1c0.3,0.4,0.4,0.9,0.7,1.1c0.4,0.3,0.8,0.7,1.1,0.7c0.5,0.1,1,0,1.4-0.3
				c0.3-0.3,0.6-0.5,0.8-0.7c0.3-0.3,0.5-0.6,0.7-0.9c0.3-0.2,0.5-0.5,0.8-0.8c0.3-0.2,0.6-0.4,0.9-0.6c0.3-0.2,0.5-0.6,0.7-0.9
				c0.3-0.2,0.6-0.4,0.9-0.7c0.3-0.2,0.6-0.4,0.9-0.7c0.3-0.3,0.5-0.5,0.8-0.8c0.3-0.3,0.3-0.8,0.5-1c0.3-0.3,0.5-0.6,0.7-0.9
				c0.2-0.3,0.5-0.5,0.8-0.8c0.2-0.3,0.5-0.6,0.7-0.8c0.2-0.3,0.7-0.3,1-0.6c0.3-0.3,0.3-0.7,0.6-1c0.3-0.3,0.9-0.4,1.2-0.7
				c0.3-0.3,0.6-0.6,0.9-0.9c0.3-0.3,0.5-0.7,0.8-1.1c0.3-0.3,0.5-0.7,0.8-1c0.3-0.3,0.7-0.5,1-0.9c0.3-0.3,0.3-0.9,0.6-1.2
				c0.2-0.3,0.6-0.5,0.8-0.8c0.2-0.3,0.4-0.6,0.7-0.9c0.2-0.3,0.6-0.5,0.8-0.8c0.2-0.3,0.4-0.6,0.6-0.9c0.2-0.3,0.5-0.5,0.8-0.8
				c0.2-0.3,0.2-0.8,0.4-1.1c0.2-0.3,0.6-0.5,0.7-0.9c0.2-0.3,0.4-0.7,0.6-1c0.2-0.3,0.2-0.8,0.4-1.1c0.2-0.3,0.1-0.8,0.3-1.2
				c0.2-0.4,0.5-0.6,0.7-1c0.2-0.4,0.2-0.8,0.3-1.1c0.1-0.4,0.3-0.7,0.5-1.1c0.1-0.4,0.4-0.7,0.6-1c0.1-0.4,0.2-0.8,0.4-1.1
				c0.1-0.4,0.5-0.7,0.6-1c0.1-0.4,0-0.8,0.2-1.2c0.1-0.4,0.6-0.6,0.7-1c0.1-0.4,0.2-0.8,0.3-1.1c0.1-0.4,0.1-0.8,0.1-1.2
				c0.1-0.4,0.4-0.7,0.5-1.1c0.1-0.4-0.2-0.8-0.1-1.2c0.1-0.4,0.3-0.7,0.3-1.1c0.1-0.4,0.3-0.7,0.4-1.1c0.1-0.4-0.1-0.8-0.1-1.2
				c0.1-0.4,0.6-0.7,0.7-1.1c0.1-0.4-0.2-0.9-0.1-1.2c0.1-0.4,0.6-0.7,0.7-1c0.1-0.4,0-0.8,0.1-1.2c0.1-0.4-0.1-0.8,0-1.2
				c0.1-0.4,0.4-0.7,0.5-1.1c0.1-0.4-0.1-0.8,0-1.2c0.1-0.4,0.2-0.8,0.3-1.1c0.1-0.4,0.1-0.8,0.2-1.2c0.1-0.4,0.6-0.7,0.7-1.1
				c0.1-0.4,0-0.8,0.1-1.2c0.1-0.4-0.1-0.8,0-1.2c0-0.4,0-0.8,0.1-1.2c0-0.4,0.4-0.8,0.4-1.2c0-0.4-0.2-0.8-0.2-1.2
				c0-0.4,0.1-0.8,0.1-1.2c0-0.4,0-0.8,0-1.2c0-0.4-0.1-0.8-0.1-1.2c0-0.4,0-0.8,0.1-1.2c0-0.4,0.5-0.7,0.5-1.1
				c0.1-0.4,0-0.8,0.1-1.2c0.1-0.4-0.1-0.8-0.1-1.2c0-0.4,0.2-0.8,0.2-1.2c0-0.4-0.1-0.8-0.1-1.2c0-0.4,0.3-0.8,0.3-1.2
				c0-0.4-0.1-0.8-0.2-1.2c0-0.4-0.2-0.8-0.2-1.2c0-0.4,0.1-0.8,0.1-1.2c0-0.4-0.1-0.8-0.1-1.2c0-0.4,0-0.8,0-1.2
				c0-0.4-0.1-0.8-0.1-1.2c-0.1-0.4-0.2-0.8-0.3-1.2c-0.1-0.4-0.2-0.8-0.3-1.2c-0.1-0.4-0.2-0.8-0.3-1.2c-0.1-0.4-0.5-0.7-0.6-1.1
				c-0.1-0.4,0-0.8,0-1.2c-0.1-0.4-0.2-0.8-0.3-1.1c-0.1-0.4-0.3-0.7-0.4-1.1c-0.1-0.4,0-0.8-0.1-1.2c-0.1-0.4-0.5-0.7-0.6-1.1
				c-0.1-0.4,0.1-0.9,0-1.2c-0.1-0.4-0.5-0.7-0.7-1c-0.1-0.4-0.1-0.8-0.2-1.2c-0.1-0.4-0.3-0.7-0.4-1.1c-0.1-0.4-0.4-0.7-0.5-1.1
				c-0.1-0.4,0.1-0.9,0-1.2c-0.1-0.4-0.5-0.7-0.6-1C175.5,16.8,175.6,16.3,175.4,16z"/>
		</g>
		<g>
			<path d="M214.3,74.9c0,0.4,0.1,0.8,0.1,1.2c0,0.4-0.2,0.8-0.2,1.2c0,0.4,0.3,0.8,0.3,1.2c0,0.4,0,0.8,0,1.2
				c0,0.4,0.2,0.8,0.2,1.2c0,0.4-0.2,0.8-0.2,1.2c0,0.4-0.3,0.8-0.3,1.1c-0.1,0.4,0,0.8-0.1,1.2c-0.1,0.4-0.2,0.8-0.3,1.1
				c-0.1,0.4-0.2,0.8-0.3,1.1c-0.1,0.4,0,0.8,0,1.2c-0.1,0.4,0,0.8,0,1.2c0,0.4-0.4,0.8-0.4,1.1c0,0.4-0.1,0.8,0,1.2
				c0,0.4,0.1,0.8,0.1,1.2c0,0.4,0.1,0.8,0.2,1.2c0,0.4,0.1,0.8,0.1,1.2c0,0.4-0.1,0.8-0.1,1.2c0,0.4,0.1,0.8,0,1.2
				c-0.1,0.4-0.6,0.7-0.7,1c-0.1,0.4,0.1,0.8,0,1.2c-0.1,0.4-0.2,0.8-0.3,1.1c-0.1,0.4-0.6,0.7-0.7,1c-0.1,0.4,0,0.8,0,1.2
				c-0.1,0.4-0.2,0.8-0.2,1.1c0,0.4-0.1,0.8-0.1,1.2c0,0.4-0.1,0.8-0.1,1.2c0,0.4,0.1,0.8,0.1,1.2c0,0.4-0.2,0.8-0.3,1.1
				c0,0.4-0.1,0.8-0.1,1.1c-0.1,0.4,0.3,0.8,0.2,1.2c-0.1,0.4-0.3,0.7-0.4,1.1c-0.1,0.4,0,0.8-0.1,1.2c-0.1,0.4-0.7,0.6-0.8,1
				c-0.1,0.4,0.1,0.8,0,1.2c-0.1,0.4-0.3,0.7-0.3,1.1c-0.1,0.4-0.3,0.8-0.4,1.2c-0.1,0.4,0.1,0.9,0,1.3c-0.1,0.4-0.4,0.8-0.4,1.2
				c-0.1,0.4,0,0.9,0,1.2s-0.4,0.7-0.5,1.1s-0.3,0.8-0.4,1.2c-0.1,0.4,0.1,0.9,0.1,1.3s-0.3,0.8-0.4,1.2c-0.1,0.4-0.1,0.8-0.2,1.2
				c-0.1,0.4-0.4,0.7-0.5,1.1c-0.1,0.4,0.1,0.9,0,1.3c-0.1,0.4-0.3,0.8-0.4,1.2c-0.1,0.4,0,0.8-0.1,1.2c-0.1,0.4-0.1,0.8-0.2,1.2
				c-0.1,0.4-0.1,0.8-0.2,1.2c-0.1,0.4-0.1,0.8-0.2,1.2c-0.1,0.4-0.4,0.8-0.5,1.2c-0.1,0.4,0,0.8-0.1,1.2c-0.1,0.4-0.6,0.7-0.7,1.1
				c-0.1,0.4-0.3,0.8-0.4,1.2c-0.2,0.4,0,0.9-0.1,1.3c-0.2,0.4-0.6,0.6-0.8,1c-0.2,0.4-0.2,0.8-0.4,1.2c-0.1,0.4-0.5,0.7-0.6,1.1
				c-0.1,0.4-0.1,0.8-0.2,1.2c-0.1,0.4-0.3,0.8-0.4,1.2c-0.1,0.4,0.2,0.9,0,1.3c-0.1,0.4-0.2,0.8-0.3,1.2c-0.1,0.4-0.2,0.8-0.3,1.2
				c-0.1,0.4-0.6,0.7-0.7,1.1c-0.1,0.4,0.1,0.8,0,1.2c-0.1,0.4-0.1,0.8-0.2,1.1c-0.1,0.4-0.2,0.7-0.3,1.1c-0.1,0.4-0.5,0.7-0.5,1.1
				c-0.1,0.4-0.2,0.8-0.3,1.1c-0.1,0.4,0.1,0.8,0,1.2c-0.1,0.4-0.6,0.6-0.7,1c-0.1,0.4,0.1,0.8,0,1.2c-0.1,0.4-0.4,0.7-0.5,1.1
				c-0.1,0.4-0.3,0.7-0.4,1.1c-0.1,0.4-0.2,0.7-0.3,1.1c-0.1,0.4-0.5,0.7-0.6,1c-0.1,0.4,0,0.8-0.1,1.2c-0.1,0.4-0.2,0.8-0.3,1.1
				c-0.1,0.4-0.4,0.7-0.5,1c-0.1,0.4-0.1,0.8-0.2,1.2c-0.1,0.4-0.5,0.6-0.7,1c-0.1,0.4-0.4,0.7-0.5,1.1c-0.1,0.4,0.1,0.8,0.1,1.2
				c-0.1,0.4-0.3,0.8-0.4,1.1c0,0.4,0.2,0.8,0.2,1.2c0,0.4,0.1,0.8,0.1,1.2c0,0.4-0.3,0.8-0.3,1.2c0,0.4-0.2,0.7-0.3,1.1
				c-0.1,0.4,0,0.8-0.1,1.2c-0.1,0.4-0.2,0.7-0.3,1.1c-0.1,0.4-0.4,0.7-0.5,1c-0.1,0.4,0.2,0.9,0.1,1.2c-0.1,0.4-0.6,0.6-0.6,1
				c-0.1,0.4-0.3,0.7-0.4,1.1c-0.1,0.4,0.1,0.8-0.2,1.1c-0.2,0.3-0.7,0.5-0.9,0.8c-0.1,0.3,0.3,1.3-0.1,1.3c-0.5,0-0.7-0.9-0.7-1.3
				c0-0.4-0.1-0.8-0.1-1.2c0-0.4,0.2-0.8,0.2-1.2c0-0.4,0-0.8,0-1.2c0-0.4,0.4-0.8,0.4-1.2c0-0.4,0.1-0.8,0.2-1.2
				c0.1-0.4-0.1-0.9,0-1.3c0.1-0.4,0.3-0.8,0.3-1.2s-0.2-0.9-0.1-1.3c0.1-0.4,0.3-0.8,0.4-1.2s0-0.9,0-1.3c0.1-0.4,0.2-0.8,0.3-1.2
				c0.1-0.4,0.2-0.8,0.3-1.2c0.1-0.4,0.2-0.8,0.3-1.2c0.1-0.4,0-0.9,0.1-1.3c0.1-0.4,0.5-0.8,0.5-1.2c0.1-0.4-0.1-0.9,0-1.3
				c0.1-0.4,0.3-0.8,0.4-1.2c0.1-0.4,0.1-0.9,0.2-1.3c0.1-0.4,0.2-0.8,0.4-1.3c0.1-0.4,0.2-0.9,0.3-1.3c0.1-0.4,0.4-0.8,0.5-1.2
				c0.1-0.4,0.3-0.8,0.4-1.2c0.1-0.4,0.3-0.8,0.4-1.2c0.1-0.4,0.4-0.8,0.5-1.2c0.2-0.4,0.1-0.9,0.2-1.3c0.2-0.4,0.3-0.8,0.4-1.2
				c0.2-0.4,0.5-0.8,0.6-1.2c0.1-0.4,0.3-0.8,0.4-1.2c0.1-0.4,0.2-0.9,0.3-1.3c0.1-0.4,0.4-0.8,0.6-1.2c0.1-0.4,0.2-0.8,0.4-1.3
				c0.1-0.4,0.2-0.8,0.4-1.2c0.1-0.4,0.3-0.8,0.4-1.2c0.1-0.4,0.1-0.9,0.2-1.3c0.1-0.4,0.5-0.8,0.6-1.2c0.1-0.4,0-0.9,0.2-1.3
				c0.1-0.4,0.3-0.8,0.4-1.2c0.1-0.4,0.3-0.8,0.4-1.2c0.1-0.4,0.3-0.8,0.4-1.2c0.1-0.4-0.1-0.9,0-1.3c0.1-0.4,0.4-0.8,0.5-1.2
				c0.1-0.4,0.1-0.9,0.2-1.3c0.1-0.4,0.1-0.8,0.2-1.2c0.1-0.4,0.3-0.7,0.4-1.1c0.1-0.4,0.1-0.8,0.2-1.2c0.1-0.4-0.1-0.8,0-1.2
				c0.1-0.4,0.2-0.8,0.3-1.2c0.1-0.4,0-0.8,0.1-1.2c0.1-0.4,0.5-0.7,0.6-1.1c0.1-0.4,0-0.8,0.1-1.2c0.1-0.4,0.6-0.6,0.8-1
				c0.1-0.4,0.1-0.8,0.3-1.2c0.1-0.4,0-0.8,0.1-1.2c0.1-0.4,0.3-0.7,0.3-1.1c0.1-0.4,0.4-0.7,0.5-1.1c0.1-0.4,0.2-0.8,0.2-1.2
				c0-0.4-0.2-0.8-0.1-1.2c0-0.4,0.3-0.8,0.3-1.2c0-0.4-0.3-0.8-0.2-1.2c0.1-0.4,0.1-0.8,0.2-1.2c0.1-0.4,0.3-0.8,0.4-1.1
				c0.1-0.4,0.1-0.8,0.2-1.2c0.1-0.4,0.2-0.8,0.3-1.1c0.1-0.4,0.6-0.6,0.7-1c0.1-0.4-0.2-0.9-0.1-1.2c0.1-0.4,0.4-0.7,0.5-1.1
				c0.1-0.4,0.1-0.8,0.2-1.2c0.1-0.4,0.2-0.8,0.2-1.2c0.1-0.4,0.3-0.7,0.4-1.1c0.1-0.4-0.2-0.8-0.2-1.2c0.1-0.4,0.2-0.8,0.2-1.2
				c0.1-0.4,0-0.8,0-1.2c0.1-0.4,0.5-0.7,0.5-1.1c0-0.4-0.1-0.8,0-1.2c0-0.4,0.1-0.8,0.2-1.2c0-0.4-0.2-0.8-0.2-1.2
				c0-0.4,0.2-0.8,0.2-1.2c0-0.4-0.2-0.8-0.2-1.2c0-0.4,0.4-0.8,0.4-1.1c0-0.4-0.1-0.8,0-1.2c0-0.4-0.1-0.8-0.1-1.2
				c0-0.4,0.1-0.8,0.1-1.2c0-0.4,0-0.8,0.1-1.2c0-0.4,0.2-0.8,0.3-1.2c0-0.4-0.2-0.8-0.2-1.2c0-0.4,0.3-0.8,0.3-1.2
				c0-0.4-0.1-0.8-0.1-1.2c0-0.4,0.1-0.8,0.2-1.2c0-0.4,0.1-0.8,0.1-1.2c0-0.4,0.1-0.8,0.1-1.2c0-0.4-0.2-0.8-0.2-1.2
				c0-0.4,0.2-0.8,0.3-1.2c0-0.4,0.3-0.8,0.3-1.1c0-0.4,0.1-0.8,0.1-1.2c0-0.4,0-0.8,0-1.2c0-0.4,0.1-0.8,0.1-1.2c0-0.4,0-0.8,0-1.3
				c0-0.4-0.5-0.8-0.5-1.2c0-0.4,0.4-0.9,0.4-1.3c0-0.4-0.3-0.8-0.4-1.2c0-0.4-0.2-0.8-0.2-1.2c0-0.4,0.2-0.9,0.1-1.3
				c0-0.4,0-0.9,0-1.3c-0.1-0.4-0.2-0.8-0.3-1.2c-0.1-0.4-0.2-0.8-0.3-1.2c-0.1-0.4-0.3-0.8-0.4-1.2c-0.1-0.4-0.2-0.8-0.3-1.2
				c-0.1-0.4-0.1-0.8-0.2-1.2c-0.1-0.4-0.2-0.8-0.3-1.2c-0.1-0.4-0.3-0.8-0.4-1.2c-0.1-0.4,0-0.9-0.1-1.3c-0.1-0.4-0.5-0.7-0.6-1.1
				c-0.1-0.4,0.2-0.9,0.1-1.3c-0.1-0.4-0.4-0.8-0.5-1.2c-0.1-0.4-0.2-0.8-0.3-1.2c-0.2-0.4-0.5-0.7-0.7-1.1
				c-0.2-0.4-0.3-0.8-0.5-1.1c-0.2-0.4-0.3-0.8-0.5-1.2c-0.2-0.4-0.2-0.8-0.4-1.2c-0.2-0.4-0.4-0.7-0.6-1.1c-0.2-0.4-0.4-0.7-0.6-1
				c-0.2-0.4-0.3-0.7-0.5-1.1c-0.2-0.3-0.6-0.6-0.8-0.9c-0.2-0.3-0.5-0.6-0.7-1c-0.2-0.3-0.4-0.7-0.6-1c-0.2-0.3-0.3-0.8-0.5-1.1
				c-0.2-0.3-0.3-0.8-0.5-1.1c-0.2-0.3-0.6-0.5-0.9-0.8c-0.2-0.3-0.5-0.6-0.7-0.9c-0.2-0.3-0.6-0.5-0.9-0.8c-0.3-0.3-0.4-0.7-0.6-1
				c-0.3-0.3-0.3-0.7-0.6-1c-0.3-0.3-0.5-0.6-0.8-0.9c-0.3-0.3-0.7-0.4-1-0.7c-0.3-0.3-0.6-0.5-0.9-0.8c-0.3-0.3-0.3-0.8-0.6-1
				c-0.3-0.3-0.6-0.5-0.9-0.8c-0.3-0.3-0.7-0.4-1-0.7c-0.3-0.3-0.7-0.5-1-0.8c-0.3-0.3-0.5-0.7-0.8-1c-0.3-0.3-0.6-0.6-1-0.9
				c-0.3-0.3-0.7-0.5-1.1-0.7c-0.3-0.3-0.6-0.6-1-0.8c-0.3-0.3-0.6-0.7-0.9-0.9c-0.4-0.2-0.7-0.5-1.1-0.7c-0.4-0.2-0.9-0.1-1.3-0.3
				c-0.4-0.2-0.8-0.3-1.2-0.5c-0.4-0.2-0.6-0.6-1-0.9c-0.4-0.2-0.9-0.2-1.2-0.5c-0.4-0.2-0.7-0.5-1-0.8c-0.3-0.2-0.6-0.6-1-0.8
				c-0.4-0.2-0.6-0.7-1-0.9c-0.4-0.2-0.8-0.3-1.2-0.5c-0.3-0.2-0.7-0.4-1-0.6c-0.3-0.1-0.8,0.1-1.2-0.1c-0.4-0.1-0.7-0.3-1.1-0.4
				c-0.4-0.1-0.7-0.3-1-0.5c-0.4-0.1-0.7-0.2-1.1-0.3c-0.4-0.1-0.7-0.2-1.1-0.3c-0.4-0.1-0.6-0.6-1-0.7c-0.4-0.1-0.8,0.1-1.2-0.1
				c-0.4-0.1-0.6-0.5-1-0.6c-0.4-0.1-0.8-0.1-1.1-0.2c-0.4-0.1-0.7-0.2-1.1-0.3c-0.4-0.1-0.7-0.3-1.1-0.4c-0.4-0.1-0.8,0-1.1-0.1
				c-0.4-0.1-0.7-0.3-1.1-0.4c-0.4-0.1-0.8,0-1.1-0.1c-0.4-0.1-0.7-0.2-1.1-0.3c-0.4-0.1-0.7-0.2-1.1-0.2c-0.4,0-0.8,0-1.1,0
				c-0.4,0-0.8-0.1-1.1-0.1c-0.4,0-0.8-0.1-1.2-0.1c-0.4,0-0.8,0.4-1.2,0.4c-0.4,0-0.8-0.2-1.1-0.2c-0.4,0-0.8,0-1.1,0
				c-0.4,0-0.8-0.1-1.2-0.1c-0.4,0-0.7,0.3-1.1,0.4c-0.4,0.1-0.8-0.3-1.2-0.2c-0.4,0.1-0.7,0.5-1,0.6c-0.4,0.1-0.8-0.1-1.2,0
				c-0.4,0.1-0.8,0.1-1.1,0.1c-0.4,0.1-0.7,0.4-1.1,0.5c-0.4,0.1-0.8,0.2-1.1,0.2c-0.4,0-0.8-0.2-1.2-0.2c-0.4,0-0.7,0.3-1.1,0.3
				c-0.4,0-0.7,0.3-1.1,0.3c-0.4,0-0.8,0.1-1.1,0.1c-0.4,0.1-0.7,0.1-1.1,0.2c-0.2,0-0.4,0.4-0.6,0.4c-0.3,0-0.6-0.2-0.9-0.4
				c-0.3-0.1-0.7-0.2-0.8-0.5c-0.2-0.7,1-0.4,1.6-0.7c0.3-0.2,0.7-0.3,1.1-0.5c0.3-0.2,0.7-0.4,1-0.6c0.3-0.2,0.5-0.6,0.9-0.8
				c0.3-0.2,0.8-0.1,1.2-0.2c0.4-0.1,0.6-0.6,1-0.6c0.4-0.1,0.8,0,1.2-0.1c0.4-0.1,0.8,0,1.2-0.1c0.4-0.1,0.7-0.5,1.1-0.6
				c0.4-0.1,0.8,0,1.2-0.1c0.4-0.1,0.8-0.2,1.1-0.2c0.4,0,0.9,0.2,1.3,0.3c0.4,0,0.9-0.1,1.3-0.1c0.4,0.1,0.9,0,1.3,0.1
				c0.4,0.1,0.8,0.2,1.3,0.2c0.4,0,0.8,0,1.3,0c0.4,0,0.8,0.2,1.3,0.2c0.4,0,0.8-0.1,1.3-0.2c0.4,0,0.8-0.1,1.3-0.2
				c0.4,0,0.8,0.2,1.3,0.2c0.4,0,0.8-0.2,1.3-0.1c0.4,0,0.9-0.1,1.3-0.1c0.4,0,0.8,0.1,1.3,0.1c0.4,0,0.8,0.4,1.2,0.4
				c0.4,0,0.9-0.1,1.3,0c0.4,0.1,0.8,0.3,1.2,0.4c0.4,0.1,0.8,0.2,1.2,0.3c0.4,0.1,0.9,0,1.3,0.2c0.4,0.1,0.7,0.5,1.1,0.7
				c0.4,0.2,0.8,0.3,1.2,0.4c0.4,0.2,0.9,0.1,1.3,0.3c0.4,0.2,0.7,0.5,1.1,0.7c0.4,0.1,0.9,0,1.3,0.2c0.4,0.1,0.8,0.4,1.2,0.6
				c0.4,0.1,0.9,0.1,1.3,0.2c0.4,0.1,0.7,0.5,1.2,0.6c0.4,0.1,0.8,0.4,1.2,0.5c0.4,0.2,0.8,0.3,1.2,0.5c0.4,0.2,0.9,0.1,1.3,0.3
				c0.4,0.2,0.6,0.6,1,0.8c0.3,0.3,0.7,0.5,1.1,0.7c0.3,0.3,0.7,0.5,1.1,0.7c0.3,0.3,0.6,0.7,0.9,0.9c0.3,0.3,0.7,0.5,1,0.7
				c0.4,0.2,0.7,0.5,1.1,0.7c0.4,0.2,0.9,0.2,1.2,0.4c0.4,0.2,0.7,0.5,1,0.7c0.4,0.2,0.8,0.3,1.2,0.6c0.4,0.2,0.5,0.7,0.9,1
				c0.3,0.2,0.8,0.3,1.2,0.6c0.3,0.2,0.6,0.5,0.9,0.7c0.3,0.2,0.5,0.5,0.8,0.8c0.3,0.3,0.6,0.5,0.8,0.7c0.3,0.3,0.6,0.5,0.9,0.7
				c0.3,0.3,0.5,0.6,0.7,0.9c0.3,0.3,0.6,0.5,0.8,0.8s0.5,0.6,0.8,0.8c0.3,0.3,0.5,0.6,0.8,0.8c0.3,0.3,0.4,0.7,0.6,0.9
				c0.2,0.3,0.5,0.6,0.7,0.8c0.2,0.3,0.4,0.6,0.6,0.9c0.2,0.3,0.7,0.4,0.9,0.7c0.2,0.3,0.6,0.5,0.8,0.8c0.2,0.3,0.4,0.6,0.7,0.9
				c0.2,0.3,0.2,0.8,0.4,1.1c0.2,0.3,0.6,0.5,0.8,0.8c0.2,0.3,0.3,0.7,0.5,1c0.2,0.3,0.6,0.5,0.8,0.8c0.2,0.3,0.2,0.8,0.4,1.1
				c0.2,0.3,0.4,0.6,0.6,1c0.2,0.3,0.7,0.5,0.8,0.8c0.2,0.4,0.3,0.8,0.5,1.1c0.1,0.4,0,0.8,0.1,1.2c0.1,0.4,0.6,0.7,0.7,1.1
				c0.1,0.4,0,0.8,0.1,1.2c0.1,0.4,0.2,0.8,0.4,1.1c0.1,0.4,0.1,0.8,0.2,1.2c0.1,0.4,0.7,0.6,0.8,1c0.1,0.4-0.1,0.9,0,1.3
				c0.1,0.4,0.4,0.7,0.6,1.1c0.1,0.4,0.5,0.7,0.6,1.1c0.1,0.4,0,0.8,0.1,1.2c0.1,0.4,0.1,0.8,0.2,1.2c0.1,0.4,0.6,0.7,0.7,1
				c0.1,0.4-0.2,0.9-0.1,1.3c0.1,0.4,0.2,0.8,0.3,1.2c0.1,0.4,0.4,0.8,0.5,1.2c0.1,0.4-0.1,0.8-0.1,1.2c0,0.4,0,0.8,0,1.2
				c0,0.4,0.1,0.8,0.1,1.2c0,0.4,0.3,0.8,0.4,1.2c0,0.4-0.1,0.8-0.1,1.2c0,0.4,0.3,0.8,0.3,1.2c0,0.4-0.3,0.9-0.2,1.3
				c0.1,0.4,0.3,0.8,0.4,1.2c0.1,0.4-0.1,0.8,0,1.2c0.1,0.4,0.2,0.8,0.2,1.2c0.1,0.4,0.5,0.8,0.5,1.2c0,0.4-0.3,0.9-0.3,1.2
				C214.2,74.2,214.3,74.6,214.3,74.9z"/>
		</g>
		<g>
			<path d="M222.5,91.9c0-0.4-0.3-0.8-0.3-1.2c0-0.4,0-0.8,0.1-1.2c0-0.4,0.4-0.8,0.4-1.2c0-0.4-0.3-0.8-0.3-1.2
				c0-0.4,0.5-0.8,0.5-1.2c0-0.4-0.2-0.8-0.3-1.2c0-0.4,0.1-0.8,0.1-1.2c-0.1-0.4-0.4-0.8-0.5-1.1c-0.1-0.4,0-0.8-0.1-1.2
				c-0.1-0.4-0.3-0.8-0.4-1.2c-0.1-0.4,0-0.9-0.1-1.2c-0.1-0.4-0.5-0.7-0.6-1.1c-0.1-0.4-0.4-0.7-0.5-1.1c-0.1-0.4,0.2-0.9,0.1-1.3
				c-0.1-0.4-0.7-0.6-0.8-1c-0.1-0.4,0-0.9-0.1-1.3c-0.1-0.4,0-0.8,0-1.2c0-0.4-0.1-1,0.4-1.1c0.5-0.1,0.2,0.7,0.4,1.1
				c0.2,0.3,0.5,0.6,0.7,0.9c0.2,0.3,0.3,0.7,0.5,1.1c0.2,0.3,0.3,0.7,0.5,1c0.2,0.3,0.6,0.6,0.8,0.9c0.1,0.4,0,0.8,0.1,1.2
				c0.1,0.4,0.5,0.6,0.6,1c0.1,0.4-0.2,0.8-0.1,1.2c0.1,0.4,0.5,0.7,0.5,1c0.1,0.4,0.1,0.7,0.1,1.1c0.1,0.4,0.2,0.7,0.2,1.1
				c0.1,0.4-0.1,0.8,0,1.1c0.1,0.4,0.3,0.7,0.4,1.1c0,0.4-0.1,0.8-0.1,1.1c0,0.4,0.2,0.7,0.2,1.1c0,0.4-0.1,0.8-0.1,1.1
				c0,0.4,0.2,0.7,0.2,1.1s-0.1,0.8-0.1,1.1c0,0.4,0.4,0.8,0.4,1.1c0,0.4-0.4,0.8-0.3,1.2c0,0.4,0.4,0.7,0.5,1.1
				c0,0.4-0.3,0.8-0.3,1.2c0,0.4,0.1,0.8,0.1,1.2c0,0.4,0.1,0.8,0.1,1.2c0,0.4-0.1,0.8-0.1,1.2c0,0.4-0.1,0.8-0.1,1.2
				c-0.1,0.4,0.3,0.8,0.2,1.2c-0.1,0.4-0.6,0.7-0.7,1.1c-0.1,0.4-0.1,0.8-0.2,1.2c-0.1,0.4,0.2,0.9,0.1,1.2
				c-0.1,0.4-0.2,0.8-0.3,1.1c-0.1,0.4-0.4,0.7-0.5,1.1c-0.1,0.4,0.1,0.8,0.1,1.2c-0.1,0.4-0.5,0.7-0.5,1.1c-0.1,0.4,0.1,0.8,0,1.2
				c-0.1,0.4-0.3,0.7-0.4,1.1c-0.1,0.4-0.1,0.8-0.2,1.2c-0.1,0.4-0.1,0.8-0.2,1.2c-0.1,0.4,0,0.8-0.1,1.2c-0.1,0.4-0.5,0.7-0.6,1.1
				c-0.1,0.4,0.1,0.9,0,1.3c-0.1,0.4-0.4,0.7-0.6,1.1c-0.1,0.4-0.3,0.8-0.4,1.1c-0.1,0.4-0.4,0.7-0.5,1.1c-0.1,0.4-0.3,0.7-0.5,1.1
				c-0.1,0.4-0.2,0.8-0.4,1.2c-0.2,0.4-0.4,0.7-0.6,1.1c-0.2,0.4,0.1,0.9-0.1,1.3c-0.2,0.4-0.3,0.7-0.5,1.1c-0.2,0.4-0.5,0.7-0.6,1
				c-0.2,0.4-0.2,0.8-0.4,1.2c-0.2,0.4-0.5,0.7-0.6,1c-0.2,0.4-0.2,0.8-0.3,1.2c-0.2,0.4-0.6,0.6-0.8,1c-0.2,0.4-0.3,0.8-0.5,1.2
				c-0.2,0.4-0.5,0.7-0.7,1c-0.2,0.4-0.2,0.8-0.4,1.2c-0.2,0.4-0.7,0.6-0.9,1c-0.2,0.4-0.2,0.9-0.3,1.2c-0.2,0.4-0.5,0.7-0.6,1.1
				c-0.1,0.4,0,0.9-0.2,1.3c-0.1,0.4-0.3,0.8-0.4,1.2c-0.1,0.4-0.3,0.8-0.4,1.2c-0.1,0.4-0.2,0.8-0.3,1.2c-0.1,0.4-0.2,0.8-0.3,1.2
				c-0.1,0.4-0.4,0.8-0.5,1.1c-0.2,0.4,0,0.9-0.2,1.3c-0.2,0.4-0.7,0.6-0.9,1c-0.2,0.4-0.3,0.8-0.5,1.2c-0.2,0.4,0,0.9-0.1,1.3
				c-0.1,0.4-0.5,0.7-0.6,1.1c-0.1,0.4,0.1,0.8,0,1.2c-0.1,0.4-0.3,0.7-0.3,1.1c0,0.4-0.1,0.8-0.2,1.1c0,0.4,0.1,0.8,0,1.2
				c0,0.4-0.3,0.7-0.3,1.1c-0.1,0.4,0.2,0.8,0.1,1.2c-0.1,0.4-0.2,0.7-0.3,1.1c-0.1,0.4-0.2,0.7-0.3,1.1c-0.1,0.4-0.1,0.8-0.1,1.1
				c0,0.4-0.3,0.8-0.3,1.2c0,0.4,0.3,0.7,0.4,1.1c0,0.4,0.1,0.7,0.1,1.1c0,0.4,0,0.7,0,1.1c0,0.4,0.1,0.7,0.1,1.1
				c0,0.4-0.5,0.7-1,0.7c-0.5,0-0.8-0.3-0.9-0.7c-0.1-0.4,0-0.8-0.1-1.2c-0.1-0.4-0.5-0.8-0.5-1.2c0-0.4,0-0.8,0-1.3
				c0-0.4,0.1-0.8,0.1-1.2c0-0.4,0.2-0.8,0.2-1.2c0-0.4,0-0.8,0-1.2c0-0.4-0.4-0.8-0.4-1.2c0-0.4,0.3-0.8,0.3-1.2
				c0-0.4,0.2-0.8,0.2-1.2c0-0.4-0.1-0.8,0-1.2c0-0.4-0.1-0.9,0-1.3c0.1-0.4,0.3-0.8,0.4-1.2c0.1-0.4,0.4-0.8,0.5-1.2
				c0.1-0.4,0.3-0.8,0.5-1.2c0.1-0.4,0.1-0.8,0.2-1.2c0.1-0.4,0-0.9,0.1-1.3c0.1-0.4,0.4-0.8,0.5-1.2c0.1-0.4,0.5-0.7,0.6-1.1
				c0.1-0.4-0.1-0.9,0-1.3c0.1-0.4,0.5-0.7,0.6-1.1c0.1-0.4,0.2-0.8,0.3-1.2c0.1-0.4,0.1-0.8,0.3-1.2c0.1-0.4,0.6-0.7,0.7-1.1
				c0.1-0.4,0.4-0.8,0.5-1.2c0.1-0.4-0.1-0.9,0-1.3c0.1-0.4,0.4-0.7,0.6-1.1c0.1-0.4,0.4-0.7,0.5-1.1c0.1-0.4,0.3-0.8,0.4-1.2
				c0.2-0.4,0-0.9,0.2-1.3c0.2-0.4,0.6-0.7,0.8-1.1c0.1-0.4,0.3-0.8,0.5-1.2c0.1-0.4,0-0.9,0.2-1.3c0.2-0.4,0.6-0.7,0.8-1.1
				c0.2-0.4,0.2-0.9,0.4-1.3c0.2-0.4,0.3-0.8,0.6-1.2c0.2-0.4,0.7-0.6,0.9-1c0.2-0.4,0.4-0.8,0.6-1.2c0.2-0.4,0.4-0.8,0.6-1.2
				c0.1-0.3,0.3-0.7,0.3-1.1c0.1-0.4-0.1-0.8,0-1.1c0.1-0.4,0.4-0.7,0.4-1.1c0-0.4,0-0.7,0-1.1c0.1-0.4,0-0.7,0.1-1.1
				c0.1-0.4-0.1-0.8,0.1-1.1c0.1-0.4,0.6-0.7,0.8-1.1c0.2-0.4,0.4-0.8,0.6-1.2c0.2-0.4,0.3-0.8,0.5-1.2c0.2-0.4,0-0.9,0.1-1.3
				c0.1-0.4,0.2-0.8,0.3-1.3c0.1-0.4,0.5-0.7,0.6-1.1c0.1-0.4-0.1-0.8,0-1.2c0.1-0.4,0.5-0.7,0.6-1.1c0.1-0.4-0.2-0.9-0.1-1.3
				c0.1-0.4,0.5-0.7,0.6-1.1c0.1-0.4,0.3-0.8,0.3-1.1c0.1-0.4,0.1-0.8,0.1-1.2c0.1-0.4,0.1-0.8,0.1-1.2c0-0.4,0.1-0.8,0.1-1.2
				c0-0.4-0.3-0.8-0.3-1.2c0-0.4,0.4-0.8,0.4-1.2c0-0.4-0.4-0.8-0.4-1.2c0-0.4-0.1-0.8-0.2-1.2C222.2,92.7,222.6,92.3,222.5,91.9z"
				/>
		</g>
		<g>
			<path d="M192.4,109.7c0,0.4,0.3,0.7,0.4,1.1c0.1,0.4,0.3,0.7,0.3,1.1c0.1,0.4,0.1,0.8,0.1,1.1c0,0.4-0.1,0.8-0.2,1.1
				c-0.1,0.4-0.5,0.7-0.7,0.9c-0.3,0.3-0.7,0.3-1,0.4c-0.3,0.1-0.7,0.5-1.1,0.5c-0.3,0-0.6-0.5-1-0.7c-0.4-0.1-0.8-0.3-1.1-0.4
				c-0.4-0.1-0.9,0-1.2-0.2c-0.4-0.2-0.6-0.6-1-0.8c-0.4-0.2-0.9-0.1-1.2-0.3c-0.4-0.2-0.7-0.4-1.1-0.6c-0.3-0.2-0.6-0.5-0.9-0.8
				c-0.3-0.2-0.5-0.7-0.8-0.9c-0.3-0.2-0.6-0.5-1-0.7c-0.3-0.3-0.7-0.5-1-0.7c-0.3-0.3-0.7-0.5-1-0.8c-0.3-0.3-0.9-0.3-1.2-0.6
				c-0.3-0.3-0.6-0.6-0.9-0.9c-0.3-0.3-0.7-0.5-1-0.9c-0.3-0.3-0.3-0.9-0.5-1.2c-0.3-0.4-1-0.7-0.7-1.2c0.4-0.5,1-0.3,1.5-0.1
				c0.4,0.1,0.7,0.5,1,0.7c0.4,0.2,0.7,0.4,1.1,0.6c0.4,0.2,0.7,0.4,1.1,0.6c0.3,0.2,0.8,0.3,1.1,0.6c0.3,0.2,0.6,0.5,0.9,0.8
				c0.3,0.2,0.7,0.4,1,0.7c0.3,0.3,0.7,0.4,1.1,0.7c0.3,0.3,0.4,0.8,0.7,1.1c0.3,0.3,0.7,0.6,1,0.8c0.3,0.3,0.8,0.4,1.1,0.7
				c0.4,0.2,0.7,0.5,1.1,0.7c0.4,0.2,0.8,0.3,1.2,0.4c0.6,0.2,0.9-0.1,1.2-0.4c0.2-0.3,0.3-0.7,0.3-1.3c0-0.4,0.3-0.9,0.3-1.3
				c0-0.4-0.3-0.8-0.3-1.2c0-0.4,0.1-0.8,0.1-1.2c0-0.4-0.1-0.8-0.1-1.2c0-0.4-0.2-0.8-0.3-1.2c0-0.4,0-0.8-0.1-1.2
				c0-0.4,0.3-0.8,0.3-1.3c0-0.4-0.1-0.8-0.2-1.2c0-0.4-0.2-0.8-0.2-1.2c0-0.4,0.1-0.8,0.1-1.2c0-0.4-0.2-0.8-0.2-1.2
				c0-0.4,0.2-0.8,0.2-1.2c0-0.4-0.1-0.8-0.1-1.2c0-0.4,0.3-0.9,0.2-1.3c0-0.4-0.1-0.8-0.1-1.3c0-0.4-0.2-0.8-0.2-1.2s0-0.8-0.1-1.3
				c0-0.4-0.3-0.8-0.3-1.2c0-0.4,0-0.8-0.1-1.3c0-0.4,0.3-0.9,0.3-1.3c0-0.4-0.3-0.8-0.4-1.2c0-0.4-0.2-0.8-0.2-1.3
				c0-0.4,0-0.8,0-1.3c0-0.4,0.3-0.9,0.3-1.3c0-0.4-0.3-0.8-0.3-1.2c0-0.4,0-0.9,0-1.3c0-0.4-0.2-0.8-0.2-1.2c0-0.4-0.3-0.8-0.3-1.2
				c0-0.4,0-0.9,0-1.3c0-0.4,0-0.8-0.1-1.3c0-0.4-0.3-0.8-0.3-1.2c0-0.4,0-0.8-0.1-1.3c0-0.4-0.1-0.8-0.1-1.3c0-0.4,0.3-0.8,0.3-1.3
				c0-0.4-0.2-0.8-0.2-1.2c0-0.4,0-0.8,0-1.3c0-0.4-0.1-0.8-0.1-1.2c0-0.4,0-0.8-0.1-1.2c-0.1-0.4-0.1-0.8-0.1-1.2
				c-0.1-0.4-0.4-0.8-0.4-1.2c-0.1-0.4-0.1-0.8-0.2-1.2c-0.1-0.4-0.3-0.8-0.4-1.2c-0.1-0.4,0-0.9-0.1-1.3c-0.1-0.4-0.3-0.8-0.4-1.2
				c-0.1-0.4,0.2-0.9,0.1-1.3c-0.1-0.5,0-0.8,0-1.2c0.1-0.4,0.2-0.7,0.4-1c0.2-0.3,0.5-0.5,0.9-0.7c0.3-0.2,0.6-0.5,1-0.7
				c0.3-0.2,0.5-0.7,0.8-0.9c0.3-0.2,0.6-0.5,0.9-0.7c0.3-0.2,0.9-0.1,1.2-0.3c0.3-0.2,0.7-0.3,1.1-0.5c0.4-0.2,0.7-0.4,1.1-0.5
				c0.4-0.1,0.7-0.3,1.1-0.4c0.4-0.1,0.8-0.2,1.2-0.3c0.4-0.1,0.8-0.1,1.2-0.2c0.4-0.1,0.8-0.2,1.1-0.4c0.3-0.1,0.8-0.1,1-0.3
				c0.3-0.2,0.5-0.6,0.7-0.8c0.3-0.2,0.6-0.3,0.9-0.4c0.5-0.2,0.8-0.3,1.1,0.3c0.4,0.7,0.3,1-0.1,1.4c-0.3,0.3-0.6,0.6-1,0.8
				c-0.4,0.2-0.7,0.4-1.1,0.7c-0.4,0.2-0.8,0.2-1.2,0.4c-0.4,0.2-0.7,0.5-1.1,0.7c-0.4,0.2-0.8,0.2-1.2,0.4
				c-0.4,0.2-0.8,0.3-1.2,0.5c-0.4,0.2-0.7,0.5-1.1,0.7c-0.4,0.2-0.7,0.6-1,0.8c-0.4,0.2-0.7,0.4-1.1,0.6c-0.4,0.2-0.9,0.1-1.3,0.3
				c-0.4,0.2-0.8,0.4-1.2,0.5c-0.4,0.2-0.6,0.7-0.8,0.9c-0.3,0.3-0.3,0.4-0.2,1c0.1,0.4,0,0.8,0.1,1.2c0,0.4,0,0.8,0,1.2
				c0,0.4,0.1,0.8,0.2,1.2c0,0.4,0,0.8,0,1.2c0,0.4,0.2,0.8,0.2,1.2c0,0.4,0.1,0.8,0.2,1.2c0.1,0.4-0.1,0.8,0,1.2
				c0.1,0.4-0.1,0.8,0,1.2c0.1,0.4,0.6,0.7,0.6,1.1c0.1,0.4,0.2,0.8,0.2,1.2c0.1,0.4,0.1,0.8,0.2,1.2c0.1,0.4-0.2,0.8-0.1,1.2
				c0,0.4,0,0.8,0.1,1.2c0,0.4,0.3,0.8,0.4,1.1c0,0.4,0.2,0.8,0.2,1.2c0,0.4,0,0.8,0,1.2c0,0.4,0,0.8,0.1,1.2c0,0.4,0.2,0.8,0.3,1.2
				c0,0.4-0.2,0.8-0.1,1.2c0.1,0.4,0.2,0.8,0.3,1.2c0.1,0.4-0.1,0.8-0.1,1.2c0.1,0.4,0.4,0.7,0.5,1.1c0.1,0.4-0.1,0.8,0,1.2
				c0.1,0.4,0.3,0.8,0.4,1.2c0,0.4,0.1,0.8,0.1,1.2c0,0.4-0.2,0.8-0.2,1.2c0,0.4,0,0.8,0,1.2c0,0.4,0,0.8,0,1.2
				c0,0.4,0.5,0.8,0.5,1.2c0,0.4-0.4,0.8-0.4,1.2c0,0.4,0,0.8,0,1.2c0,0.4,0.3,0.8,0.3,1.2c0,0.4,0,0.8,0.1,1.2
				c0,0.4-0.1,0.8-0.1,1.2c0,0.4,0.1,0.8,0.1,1.2c0,0.4,0.1,0.8,0.1,1.2c0,0.4,0.3,0.8,0.3,1.2c0,0.4,0,0.8,0,1.2
				c0,0.4,0.1,0.8,0.1,1.2c0,0.4-0.3,0.8-0.3,1.2c0,0.4,0.1,0.8,0.1,1.2c0,0.4,0.3,0.8,0.3,1.2c0,0.4-0.3,0.8-0.3,1.2
				c0,0.4,0.2,0.8,0.2,1.2c0,0.4-0.1,0.8-0.1,1.2C192.7,108.9,192.4,109.3,192.4,109.7z"/>
		</g>
		<g>
			<path d="M158.7,145.6c0,0.4,0,0.8,0,1.2c0,0.4-0.2,0.8-0.2,1.2c0,0.4,0.4,0.8,0.4,1.2c0,0.4-0.2,0.8-0.2,1.2
				c0,0.4,0.2,0.8,0.2,1.2c0,0.4-0.3,0.8-0.4,1.2c0,0.4-0.1,0.8-0.2,1.2c-0.1,0.4,0.1,0.8,0,1.2c-0.1,0.4-0.4,0.7-0.5,1.1
				c-0.1,0.4,0.1,0.8,0.1,1.2c-0.1,0.4-0.4,0.7-0.5,1.1c-0.1,0.4,0.1,0.8,0,1.2c-0.1,0.4-0.5,0.7-0.7,1.1c-0.1,0.4,0,0.8-0.1,1.2
				c-0.1,0.4-0.1,0.8-0.2,1.2c-0.1,0.4-0.6,0.6-0.8,1c-0.2,0.4-0.4,0.7-0.5,1.1c-0.2,0.4,0.1,0.9-0.1,1.3c-0.2,0.4-0.3,0.7-0.5,1.1
				c-0.2,0.4-0.4,0.7-0.6,1c-0.2,0.4-0.5,0.7-0.6,1c-0.2,0.4-0.2,0.8-0.4,1.2c-0.2,0.4-0.7,0.6-0.8,0.9c-0.2,0.4-0.1,0.9-0.3,1.2
				c-0.2,0.4-0.7,0.6-0.9,0.9c-0.2,0.4,0,0.9-0.2,1.3c-0.2,0.4-0.5,0.7-0.7,1c-0.2,0.4-0.6,0.6-0.8,0.9c-0.2,0.3-0.1,0.9-0.3,1.2
				c-0.1,0.2-0.4,0.6-0.6,0.9c-0.2,0.3-0.5,0.4-0.9,0.3c-0.4-0.2-0.5-0.4-0.4-0.8c0.1-0.4,0.1-0.8,0.2-1c0.1-0.4,0.3-0.7,0.5-1
				c0.1-0.4,0-0.8,0.2-1.1c0.1-0.3,0.3-0.7,0.4-1c0.2-0.3,0.8-0.5,0.9-0.8c0.2-0.3-0.1-0.8,0.1-1.2c0.1-0.3,0.5-0.6,0.7-1
				c0.1-0.4,0.3-0.7,0.4-1.1c0.1-0.4-0.1-0.8,0-1.2c0.1-0.4,0.2-0.7,0.3-1.1c0.1-0.4,0.2-0.7,0.3-1.1c0.1-0.4,0.4-0.7,0.5-1
				c0.1-0.4,0-0.8,0.1-1.1c0.1-0.4,0.1-0.8,0.2-1.1c0.1-0.4,0.5-0.6,0.6-1c0.1-0.4,0-0.8,0.1-1.1c0.1-0.4,0.2-0.7,0.3-1.1
				c0.1-0.4,0.4-0.6,0.5-1c0.1-0.4,0.3-0.7,0.4-1.1c0.1-0.4,0.2-0.7,0.3-1.1c0.1-0.4-0.1-0.9,0-1.3c0.1-0.4,0.1-0.8,0.2-1.2
				c0.1-0.4,0.3-0.8,0.4-1.2c0.1-0.4,0.1-0.8,0.1-1.2c0.1-0.4,0-0.8,0-1.2c0.1-0.4,0.5-0.8,0.5-1.2c0-0.4,0-0.8,0-1.2
				c0-0.4,0.2-0.8,0.2-1.2c0-0.4-0.2-0.8-0.2-1.2c0-0.4,0-0.8,0-1.2c0-0.4,0.4-0.8,0.4-1.2c0-0.4,0.1-0.8,0.1-1.2
				c0-0.4-0.2-0.8-0.2-1.2c0-0.4-0.3-0.8-0.3-1.2c0-0.4-0.1-0.8-0.2-1.2c0-0.4,0.3-0.9,0.2-1.3c-0.1-0.4-0.3-0.8-0.3-1.2
				c-0.1-0.4-0.3-0.8-0.4-1.2c-0.1-0.4-0.1-0.8-0.2-1.2c-0.1-0.4,0-0.8-0.1-1.2c-0.1-0.4-0.2-0.8-0.3-1.2c-0.1-0.4-0.3-0.8-0.4-1.2
				c-0.1-0.4-0.3-0.8-0.4-1.2c-0.1-0.4-0.1-0.8-0.2-1.2c-0.1-0.4-0.4-0.7-0.5-1.1c-0.1-0.4-0.1-0.8-0.3-1.2
				c-0.2-0.4-0.2-0.8-0.4-1.1c-0.2-0.4-0.5-0.6-0.7-1c-0.2-0.4-0.5-0.7-0.6-1c-0.2-0.4-0.1-0.9-0.3-1.2c-0.2-0.4-0.4-0.7-0.5-1.1
				c-0.1-0.4-0.5-0.7-0.6-1.1c-0.1-0.4,0-0.9-0.2-1.2c-0.1-0.4-0.2-0.8-0.3-1.2c-0.2-0.4-0.5-0.7-0.7-1.1c-0.2-0.4-0.5-0.7-0.7-1
				c-0.2-0.3-0.5-0.7-0.7-1c-0.2-0.3-0.5-0.6-0.8-1c-0.2-0.3-0.4-0.7-0.7-1c-0.2-0.3-0.3-0.8-0.6-1.1c-0.3-0.3-0.5-0.6-0.8-0.9
				c-0.3-0.3-0.7-0.4-1-0.8c-0.2-0.3-0.3-0.8-0.5-1.1c-0.3-0.3-0.6-0.5-0.9-0.8c-0.3-0.3-0.7-0.5-0.8-0.9c-0.2-0.4,0.1-1.2,0.6-1.5
				c0.5-0.4,0.9,0,1.2,0.4c0.3,0.3,0.6,0.5,0.9,0.8c0.3,0.3,0.6,0.6,0.9,0.8c0.3,0.3,0.5,0.7,0.8,0.9c0.3,0.3,0.5,0.7,0.8,1
				c0.3,0.3,0.6,0.5,0.8,0.9c0.2,0.3,0.6,0.5,0.8,0.8c0.2,0.3,0.1,0.8,0.3,1.1c0.2,0.3,0.6,0.5,0.7,0.9c0.2,0.3,0.3,0.7,0.5,1
				c0.2,0.3,0.2,0.7,0.4,1c0.2,0.3,0.3,0.7,0.4,1c0.2,0.3,0.4,0.6,0.6,0.9c0.2,0.3,0.6,0.5,0.8,0.8c0.2,0.3,0.1,0.8,0.4,1.1
				c0.2,0.3,0.8,0.3,1,0.6c0.2,0.3,0.4,0.7,0.5,1c0.2,0.3,0.1,0.8,0.3,1.1c0.2,0.3,0.3,0.7,0.4,1c0.1,0.3,0.4,0.6,0.5,1
				c0.1,0.4,0.4,0.7,0.4,1c0.1,0.4,0.1,0.7,0.2,1.1c0.1,0.4,0.3,0.7,0.4,1c0.1,0.4,0.3,0.7,0.4,1c0.1,0.3,0.2,0.7,0.3,1
				c0.1,0.3,0.2,0.7,0.3,1.1c0.1,0.3,0.5,0.6,0.7,0.9c0.1,0.3,0.2,0.7,0.3,1.1c0.1,0.3,0.1,0.7,0.3,1.1c0.1,0.3,0.2,0.7,0.3,1.1
				c0.1,0.4,0.4,0.7,0.5,1c0.1,0.4-0.2,0.8-0.2,1.1c0,0.4,0.1,0.7,0.1,1.1c0,0.4-0.1,0.7-0.1,1.1c0,0.4,0.3,0.7,0.4,1.1
				c0,0.4,0.2,0.7,0.2,1.1c0,0.4-0.1,0.8-0.1,1.1c0,0.4,0.1,0.8,0.1,1.1c0,0.4-0.2,0.7-0.2,1.1c0,0.4,0.2,0.7,0.2,1.1
				C158.8,144.9,158.7,145.3,158.7,145.6z"/>
		</g>
		<g>
			<path d="M100,100.9c0-0.4-0.3-0.7-0.3-1.1c0-0.4,0.4-0.8,0.4-1.1c0-0.4-0.1-0.7-0.1-1.1c0-0.4,0-0.7,0.1-1
				c0.2-0.5,0.4-0.9,1.1-0.7c0.6,0.1,0.8,0.5,0.8,1c0,0.4,0,0.7,0,1.1c0,0.4-0.1,0.7-0.1,1.1c0,0.4-0.2,0.7-0.2,1.1
				c0,0.4-0.1,0.7-0.1,1.1c0,0.4,0.3,0.7,0.3,1.1c0,0.4-0.3,0.7-0.3,1.1c0,0.4,0.3,0.7,0.3,1.1c0,0.4-0.3,0.8-0.3,1.2
				c0,0.4,0.5,0.8,0.5,1.2c0,0.4-0.2,0.8-0.1,1.2c0,0.4-0.1,0.8-0.1,1.2c0,0.4,0.4,0.8,0.5,1.2c0,0.4-0.1,0.8-0.1,1.2
				c0,0.4-0.1,0.8-0.1,1.2c0,0.4,0.2,0.8,0.3,1.2c0.1,0.4,0.4,0.7,0.5,1.1c0.1,0.4,0.1,0.8,0.2,1.2c0.1,0.4,0.1,0.8,0.1,1.2
				c0.1,0.4,0.2,0.8,0.3,1.2c0,0.4,0,0.8,0,1.2c0,0.4-0.2,0.8-0.1,1.2c0,0.4,0,0.8,0.1,1.2c0,0.4,0.3,0.8,0.4,1.2
				c0,0.4,0.1,0.8,0.1,1.2c0.1,0.4,0,0.8,0.1,1.2c0.1,0.4-0.1,0.8,0,1.2c0.1,0.4,0.5,0.7,0.6,1.1c0.1,0.4,0.1,0.8,0.2,1.2
				c0.1,0.4,0.3,0.8,0.4,1.2c0.1,0.4,0.1,0.8,0.1,1.2c0.1,0.4,0.1,0.8,0.2,1.2c0.1,0.4,0.5,0.6,0.6,1c0.1,0.4,0.2,0.7,0.3,1.1
				c0.1,0.4,0.3,0.7,0.4,1c0.1,0.4,0,0.8,0.1,1.2c0.1,0.4,0.5,0.6,0.6,1c0.1,0.4,0.3,0.7,0.4,1c0.1,0.4,0.1,0.8,0.2,1.1
				c0.1,0.4,0.3,0.7,0.4,1c0.1,0.4,0,0.8,0.1,1.1c0.1,0.4,0.3,0.7,0.4,1c0.1,0.4,0.5,0.6,0.6,1c0.1,0.4,0.1,0.8,0.2,1.1
				c0.1,0.4,0.4,0.6,0.5,1c0.1,0.3,0.2,0.7,0.3,1.1c0.2,0.3,0.2,0.7,0.4,1.1c0.1,0.3,0.1,0.8,0.2,1.1c0.1,0.4,0.5,0.6,0.7,1
				c0.1,0.4,0.4,0.7,0.6,1c0.1,0.4,0,0.8,0.2,1.2c0.2,0.3,0.4,0.7,0.5,1c0.2,0.3,0.2,0.8,0.4,1.1c0.2,0.3,0.6,0.6,0.8,0.9
				c0.2,0.3,0.7,0.4,0.9,0.7c0.2,0.3,0.3,0.8,0.5,1.1c0.3,0.3,0.5,0.6,0.7,0.9c0.3,0.3,0.5,0.5,0.8,0.8c0.3,0.3,0.5,0.6,0.7,0.9
				c0.2,0.3,0.7,0.4,1,0.7c0.2,0.3,0.2,0.8,0.4,1.2c0.2,0.4,0.4,0.7,0.5,1.1c0.2,0.4,0.6,0.6,0.8,1c0.1,0.2,0.3,0.6,0.3,1
				c0.1,0.4,0,0.8-0.3,1c-0.2,0.2-0.5-0.2-0.8-0.4c-0.2-0.2-0.5-0.5-0.7-0.6c-0.3-0.2-0.8-0.2-1.2-0.5c-0.3-0.2-0.5-0.7-0.8-0.9
				c-0.3-0.2-0.6-0.5-0.9-0.8c-0.3-0.3-0.6-0.6-0.9-0.8c-0.3-0.3-0.5-0.6-0.7-1c-0.2-0.3-0.7-0.5-0.9-0.9c-0.2-0.3-0.2-0.8-0.4-1.2
				c-0.2-0.4-0.1-0.8-0.3-1.2c-0.2-0.4-0.6-0.6-0.7-1c-0.2-0.4-0.3-0.7-0.5-1.1c-0.2-0.3-0.3-0.7-0.5-1c-0.2-0.3-0.3-0.7-0.5-1
				c-0.2-0.3-0.6-0.5-0.8-0.9c-0.2-0.3-0.3-0.7-0.5-1c-0.2-0.3-0.3-0.7-0.5-1c-0.2-0.3-0.4-0.6-0.6-1c-0.2-0.3-0.1-0.8-0.3-1.1
				c-0.2-0.3-0.6-0.5-0.8-0.9c-0.2-0.3-0.3-0.7-0.4-1.1c-0.2-0.3-0.2-0.7-0.4-1.1c-0.2-0.3-0.7-0.5-0.8-0.9c-0.2-0.3,0-0.8-0.1-1.2
				c-0.1-0.4-0.4-0.7-0.6-1c-0.1-0.4-0.4-0.7-0.5-1c-0.1-0.4-0.2-0.7-0.3-1.1c-0.1-0.4-0.1-0.8-0.2-1.1c-0.1-0.4-0.2-0.7-0.4-1.1
				c-0.1-0.4-0.3-0.7-0.4-1.1c-0.1-0.4-0.2-0.7-0.3-1.1c-0.1-0.4,0-0.8-0.1-1.1c0-0.4-0.3-0.7-0.3-1.1c0-0.4,0.2-0.8,0.2-1.2
				c0-0.4,0.1-0.8,0-1.2c0-0.4,0-0.8-0.1-1.2c-0.1-0.4-0.5-0.7-0.6-1c-0.1-0.4,0.2-0.8,0.1-1.2c-0.1-0.4-0.3-0.7-0.3-1.1
				c-0.1-0.4,0-0.8,0-1.1c-0.1-0.4-0.5-0.7-0.6-1.1c-0.1-0.4,0.2-0.8,0.1-1.2c-0.1-0.4-0.4-0.8-0.4-1.2c-0.1-0.4,0.3-0.9,0.2-1.3
				c-0.1-0.4-0.4-0.8-0.5-1.2c-0.1-0.4,0.1-0.8,0.1-1.2c-0.1-0.4,0-0.8-0.1-1.2c0-0.4-0.3-0.8-0.3-1.2c0-0.4-0.2-0.8-0.3-1.2
				c0-0.4-0.1-0.8-0.2-1.2c0-0.4,0.2-0.8,0.2-1.2c0-0.4-0.1-0.8-0.1-1.2c0-0.4-0.1-0.8-0.1-1.2c0-0.4,0.2-0.8,0.2-1.2
				c0-0.4-0.1-0.8-0.1-1.2c0-0.4-0.2-0.8-0.2-1.2c0-0.4,0.2-0.8,0.2-1.2c0-0.4-0.1-0.8-0.1-1.2c0-0.4-0.1-0.8-0.1-1.2
				c0-0.4,0-0.8,0-1.2c0-0.4-0.2-0.8-0.2-1.1C99.8,101.7,100,101.3,100,100.9z"/>
		</g>
		<g>
			<path d="M104.8,84.3c0-0.4,0.1-0.8,0.1-1.1c0-0.4,0-0.8,0-1.1c0-0.4-0.1-0.8-0.1-1.1c0-0.4,0.2-0.8,0.2-1.1
				c0-0.4-0.5-0.8-0.5-1.1c0-0.4,0.2-0.8,0.2-1.1c0-0.4,0.1-0.8,0.1-1.1c0-0.4,0.2-0.7,0.3-1.1c0-0.4-0.1-0.8-0.1-1.1
				c0-0.4,0.2-0.7,0.2-1.1c0-0.4-0.2-0.8-0.2-1.2c0-0.4-0.1-0.8-0.1-1.2c0-0.4,0.5-0.7,0.6-1.1c0.1-0.4,0.1-0.7,0.2-1.1
				c0.1-0.4,0.2-0.8,0.3-1.2c0.1-0.4,0-0.8,0.1-1.2c0.1-0.3,0.3-0.4,0.6-0.6c0.2-0.2,0.4-0.5,0.7-0.4c0.4,0,0.5,0.3,0.7,0.6
				c0.2,0.3,0.6,0.5,0.6,0.8c0,0.4,0,0.8,0,1.2c0,0.4,0,0.8,0,1.2c0,0.4-0.2,0.8-0.3,1.2c0,0.4-0.1,0.8-0.1,1.2
				c-0.1,0.4-0.1,0.8-0.1,1.2c-0.1,0.4-0.1,0.8-0.1,1.2c-0.1,0.4-0.3,0.8-0.4,1.2c0,0.4,0.2,0.8,0.2,1.2c0,0.4-0.2,0.8-0.2,1.2
				c0,0.4,0.2,0.8,0.2,1.2c0.1,0.4,0.2,0.8,0.2,1.2c0.1,0.4,0.1,0.8,0.1,1.2c0,0.4-0.2,0.8-0.2,1.2c0,0.4,0.2,0.8,0.2,1.3
				c0,0.4,0.1,0.8,0,1.3c0,0.4,0,0.8,0,1.2c0,0.4-0.2,0.8-0.2,1.2c0,0.4,0.1,0.8,0.1,1.2c0,0.4,0.2,0.8,0.2,1.2
				c0,0.4-0.2,0.8-0.2,1.3c0,0.4,0.2,0.8,0.3,1.2c0,0.4-0.2,0.9-0.2,1.3c0,0.4,0.2,0.8,0.2,1.2c0,0.4,0.2,0.8,0.3,1.2
				c0,0.4-0.1,0.8-0.1,1.3c0,0.4-0.1,0.8-0.1,1.3c0,0.4,0.2,0.8,0.2,1.2c0,0.4-0.1,0.8-0.1,1.3c0,0.4,0,0.8,0,1.3
				c0,0.4,0.1,0.8,0.1,1.3c0,0.4,0.2,0.8,0.2,1.2c0.1,0.4,0.2,0.8,0.3,1.2c0.1,0.4,0.2,0.8,0.3,1.2c0.1,0.4,0,0.9,0.2,1.3
				c0.1,0.4,0.5,0.7,0.6,1.1c0.1,0.4,0.2,0.8,0.3,1.2c0.1,0.4,0.1,0.8,0.2,1.2c0.1,0.4-0.2,0.9-0.2,1.3c0.1,0.4,0.4,0.8,0.5,1.2
				c0.1,0.4-0.1,0.9-0.1,1.3c0.1,0.4,0.3,0.8,0.4,1.2c0.1,0.4,0,0.8,0.1,1.3c0.1,0.4,0.1,0.8,0.2,1.2c0.1,0.5,0.2,0.9,0.2,1.4
				c-0.1,0.5-0.1,0.9-0.1,1.4c0.1,0.5,0.4,0.9-0.1,1.1c-0.6,0.3-0.9-0.1-1.2-0.6c-0.2-0.3-0.6-0.5-0.7-0.9c-0.1-0.3,0.1-0.8,0-1.1
				c-0.1-0.4-0.2-0.9-0.3-1.3c-0.1-0.4-0.2-0.9-0.3-1.3c-0.1-0.4-0.5-0.8-0.6-1.2c-0.1-0.4-0.3-0.8-0.4-1.2
				c-0.1-0.4,0.2-0.9,0.1-1.4c-0.1-0.4-0.2-0.8-0.3-1.3c-0.1-0.4-0.3-0.8-0.3-1.3c-0.1-0.4-0.1-0.9-0.1-1.3
				c-0.1-0.4-0.4-0.8-0.5-1.2c-0.1-0.4-0.1-0.9-0.2-1.3c-0.1-0.4,0-0.9-0.1-1.3c-0.1-0.4-0.6-0.8-0.7-1.2c-0.1-0.4-0.1-0.9-0.1-1.3
				c-0.1-0.4-0.3-0.8-0.4-1.3c-0.1-0.4-0.1-0.9-0.1-1.3c-0.1-0.4,0-0.9-0.1-1.3c0-0.4,0.1-0.9,0.1-1.3c0-0.4-0.1-0.9-0.1-1.3
				c0-0.4,0-0.9-0.1-1.3c0-0.4-0.3-0.9-0.3-1.3c0-0.4,0-0.8,0-1.2c0-0.4-0.1-0.8-0.1-1.1c0-0.4-0.1-0.8-0.1-1.1
				c0-0.4,0.2-0.8,0.2-1.2c0-0.4-0.1-0.8-0.1-1.1c0-0.4,0.1-0.8,0.1-1.2c0-0.4,0-0.8,0-1.1c0-0.4-0.3-0.8-0.4-1.1
				C104.7,85.1,104.8,84.7,104.8,84.3z"/>
		</g>
		<g>
			<path d="M113.9,83.6c0-0.4-0.1-0.9-0.1-1.3c0-0.4,0.1-0.9,0.1-1.3c0-0.4,0.2-0.8,0.2-1.2c0.1-0.4,0.1-0.8,0.1-1.3
				c0.1-0.4,0.3-0.8,0.3-1.2c0-0.4,0-0.8,0-1.3c0-0.4,0.2-0.8,0.3-1.2c0-0.4,0.2-0.8,0.2-1.2c0-0.4,0-0.8,0-1.3
				c0-0.4-0.2-0.9-0.1-1.3c0-0.4,0.3-0.8,0.4-1.2c0-0.4,0.1-0.8,0.1-1.3c0.1-0.4,0-0.8,0.1-1.3c0-0.4,0-0.8,0.1-1.3
				c0-0.4,0.5-0.8,0.5-1.2c0-0.4-0.2-0.9-0.1-1.3c0.1-0.4,0.1-0.8,0.2-1.3c0.1-0.4,0.3-0.8,0.4-1.2c0.1-0.4-0.1-0.9,0-1.3
				c0.1-0.4,0.4-0.8,0.7-1.1c0.3-0.4,0.8-0.2,1.4,0.1c0.6,0.2,1,0.3,0.9,0.8c0,0.4-0.2,0.9-0.3,1.2c-0.2,0.4-0.5,0.7-0.6,1.2
				c-0.1,0.4,0,0.8-0.1,1.1c-0.1,0.4-0.3,0.7-0.3,1.1c0,0.4-0.1,0.7-0.2,1.1c0,0.4-0.2,0.7-0.2,1.1c0,0.4,0,0.7,0,1.1
				c0,0.4,0.1,0.8,0.1,1.1c0,0.4-0.3,0.7-0.3,1.1c0,0.4-0.1,0.7-0.2,1.1c-0.1,0.4-0.2,0.7-0.3,1.1c-0.1,0.4,0.1,0.8,0,1.1
				c-0.1,0.4-0.3,0.7-0.4,1.1c-0.1,0.4-0.1,0.7-0.2,1.1c-0.1,0.4,0.3,0.8,0.3,1.2c0,0.4-0.3,0.7-0.3,1.1c0,0.4,0.1,0.7,0.1,1.1
				c0,0.4-0.3,0.8-0.3,1.1c0,0.4,0.3,0.7,0.4,1.1c0,0.4,0.2,0.7,0.2,1.1c0,0.4,0,0.7,0,1.1c0,0.4-0.1,0.8-0.1,1.1
				c0,0.4,0.2,0.7,0.2,1.1c0,0.4,0,0.9,0,1.3c0,0.4-0.3,0.9-0.2,1.3c0,0.4,0.4,0.8,0.5,1.3c0,0.4,0,0.9,0.1,1.3s-0.2,0.9-0.1,1.3
				c0,0.4,0.5,0.8,0.6,1.2c0.1,0.4,0,0.9,0.1,1.3c0.1,0.4,0,0.9,0.1,1.3c0.1,0.4,0.6,0.8,0.7,1.2c0.1,0.4,0.2,0.9,0.2,1.3
				c0.1,0.4,0.1,0.9,0.2,1.3c0,0.4-0.4,0.9-0.3,1.3c0,0.4,0.2,0.8,0.3,1.3c0,0.4,0,0.9,0,1.3c0.1,0.4,0.3,0.8,0.4,1.3
				c0.1,0.4,0.1,0.9,0.2,1.3c0.1,0.4,0.3,0.8,0.4,1.2c0.1,0.4,0,0.9,0.1,1.3c0.1,0.4,0.3,0.8,0.4,1.2c0.1,0.4,0.4,0.8,0.5,1.2
				c0.1,0.3,0,0.6,0,0.9c0,0.3,0,0.6,0,0.9c0.1,0.5-0.2,0.9-0.8,1.1c-0.5,0.2-0.7-0.2-0.9-0.5c-0.2-0.3-0.3-0.8-0.6-1.1
				c-0.3-0.3-0.6-0.6-0.7-1c-0.1-0.4-0.1-0.8-0.1-1.1c-0.1-0.4-0.1-0.7-0.2-1.1c-0.1-0.4-0.4-0.7-0.5-1c-0.1-0.4-0.1-0.8-0.1-1.1
				c-0.1-0.4-0.4-0.7-0.5-1c-0.1-0.4-0.1-0.7-0.1-1.1c-0.1-0.4,0.1-0.8,0-1.1c-0.1-0.4-0.2-0.7-0.3-1.1c-0.1-0.4-0.6-0.6-0.6-1
				c-0.1-0.4,0-0.8-0.1-1.1c-0.1-0.4,0.1-0.8,0-1.2c-0.1-0.4-0.3-0.7-0.3-1.1c-0.1-0.4,0-0.7-0.1-1.1c0-0.4-0.1-0.7-0.1-1.1
				c0-0.4,0.1-0.8,0-1.1c0-0.4,0-0.7,0-1.1c0-0.4-0.4-0.7-0.4-1.1c0-0.4,0.1-0.8,0.1-1.1c0-0.4,0-0.9,0-1.3c0-0.4-0.4-0.8-0.5-1.3
				c0-0.4,0.4-0.9,0.4-1.3c0-0.4,0-0.9,0-1.3c0-0.4-0.2-0.9-0.2-1.3C114.2,84.5,114,84.1,113.9,83.6z"/>
		</g>
		<g>
			<path d="M126.2,78.4c0-0.4,0-0.8,0-1.2c0-0.4,0.2-0.8,0.2-1.2c0-0.4,0-0.8,0-1.2c0-0.4,0.2-0.8,0.2-1.2c0-0.4,0.1-0.8,0.1-1.2
				c0-0.4-0.3-0.8-0.3-1.2c0-0.4,0.3-0.8,0.4-1.2c0-0.4,0-0.8,0-1.2c0-0.4,0.1-0.8,0.1-1.2c0-0.4-0.1-0.8,0-1.2
				c0-0.4,0.3-0.8,0.3-1.1c0.1-0.4,0.1-0.8,0.2-1.2c0.1-0.4,0.2-0.8,0.3-1.1c0.1-0.4,0.1-0.8,0.2-1.2c0.1-0.4,0.1-0.8,0.2-1.2
				c0.1-0.4,0.3-0.7,0.4-1.1c0.1-0.4,0.2-0.8,0.3-1.1s0.2-0.8,0.3-1.2c0.1-0.3,0.2-0.7,0.3-1c0.1-0.3,0.3-0.6,0.4-0.9
				c0.1-0.3,0-0.7,0.2-1c0.3-0.4,0.5-0.9,1.1-0.7c0.5,0.2,0.5,0.7,0.4,1.1c-0.1,0.4-0.1,0.7-0.2,1.1c-0.1,0.4,0.1,0.8,0,1.1
				c-0.1,0.4-0.2,0.7-0.2,1.1c-0.1,0.4,0.1,0.8,0,1.1c-0.1,0.4-0.5,0.7-0.5,1.1c-0.1,0.4-0.2,0.8-0.3,1.1c-0.1,0.4,0,0.8-0.1,1.2
				c-0.1,0.4,0,0.8-0.1,1.2c-0.1,0.4-0.4,0.7-0.5,1.1c-0.1,0.4,0.1,0.8,0,1.2c-0.1,0.4-0.5,0.7-0.6,1.1c0,0.4,0.1,0.8,0,1.2
				c0,0.4-0.2,0.8-0.2,1.2c0,0.4,0.2,0.8,0.1,1.2c0,0.4-0.1,0.8-0.1,1.2c0,0.4,0,0.8,0,1.2c0,0.4-0.1,0.8-0.1,1.2
				c0,0.4,0.2,0.8,0.2,1.2c0,0.4-0.5,0.8-0.5,1.2c0,0.4,0.3,0.8,0.3,1.2c0,0.4-0.4,0.8-0.4,1.2c0,0.4,0.1,0.8,0.1,1.2
				c0,0.4,0.1,0.8,0.1,1.2c0,0.4,0.2,0.8,0.2,1.2s-0.1,0.8-0.1,1.2c0,0.4,0.1,0.8,0.1,1.2c0,0.4-0.1,0.8-0.1,1.2
				c0,0.4,0.3,0.8,0.3,1.2c0,0.4,0,0.8,0,1.2c0,0.4-0.1,0.8,0,1.2c0,0.4,0.3,0.8,0.3,1.2c0,0.4,0,0.8,0,1.2c0,0.4-0.1,0.8-0.1,1.2
				c0.1,0.4,0.4,0.8,0.5,1.2s-0.1,0.8,0,1.2c0.1,0.4,0.3,0.8,0.4,1.2c0.1,0.4,0.2,0.8,0.3,1.2c0.1,0.4,0.3,0.8,0.4,1.2
				c0.1,0.4-0.1,0.9,0,1.3c0.1,0.4,0.3,0.8,0.4,1.2c0.1,0.4,0.4,0.7,0.4,1c0,0.4-0.3,0.7-0.3,1.1c0,0.4,0,0.8,0,1.1
				c0.1,0.4,0.5,0.8-0.1,1c-0.5,0.2-0.6-0.2-0.8-0.5c-0.3-0.4-0.7-0.7-0.9-1.1c-0.2-0.4-0.3-0.9-0.4-1.3c-0.1-0.4,0-0.9-0.1-1.3
				c-0.1-0.4-0.4-0.8-0.5-1.2c-0.1-0.4,0-0.9,0-1.3c0-0.4,0-0.9-0.1-1.3c-0.1-0.4-0.2-0.8-0.2-1.3c-0.1-0.4-0.3-0.8-0.4-1.2
				c-0.1-0.4-0.1-0.9-0.2-1.3c-0.1-0.4-0.1-0.9-0.2-1.3c-0.1-0.4-0.5-0.7-0.6-1.2c-0.1-0.4,0.1-0.9,0.1-1.3
				c-0.1-0.4-0.5-0.8-0.5-1.2c0-0.4-0.1-0.9-0.1-1.3c0-0.4,0.4-0.8,0.4-1.3c0-0.4-0.3-0.9-0.3-1.3c0-0.4,0.1-0.9,0-1.3
				c0-0.4,0-0.9,0-1.3c0-0.4-0.1-0.8-0.1-1.3c0-0.4,0.2-0.8,0.2-1.3c0-0.4,0.1-0.8,0.1-1.3C126.6,79.2,126.2,78.8,126.2,78.4z"/>
		</g>
		<g>
			<path d="M201.1,65.1c-0.1-0.3,0.4-0.6,0.5-0.9c0.1-0.3,0-0.6-0.5-0.8c-0.4-0.2-0.7-0.1-1,0c-0.3,0.1-0.9,0-1.2,0.2
				c-0.3,0.2-0.6,0.6-0.8,0.9c-0.3,0.3-0.2,0.8-0.5,1.1c-0.2,0.3-0.6,0.5-0.9,0.8c-0.2,0.3-0.5,0.6-0.8,0.8
				c-0.4,0.4-1.1,0.4-1.6,0.7c-0.4,0.3-0.4,0.6-0.9,0.3c-0.5-0.4-0.6-0.6-0.4-1.1c0.1-0.3,0.1-0.8,0.4-1c0.2-0.2,0.7-0.3,1-0.5
				c0.3-0.2,0.3-0.7,0.5-1c0.3-0.3,0.7-0.5,1-0.8c0.3-0.3,0.7-0.5,0.9-0.8c0.3-0.3,0.4-0.8,0.7-1.1c0.3-0.3,0.8-0.2,1.2-0.5
				c0.3-0.2,0.6-0.7,0.9-0.8c0.4-0.2,0.8,0,1.2-0.1c0.4-0.1,0.8-0.1,1.2-0.1c0.4,0,0.8-0.2,1.2-0.2c0.4,0,0.8-0.1,1.2,0.1
				c0.4,0.1,0.6,0.5,1,0.7c0.3,0.2,0.7,0.3,1.1,0.5c0.3,0.2,0.5,0.6,0.7,0.9c0.3,0.3,0.6,0.5,0.8,0.9c0.2,0.3,0.6,0.6,0.7,1
				c0.1,0.4,0.2,0.8,0.3,1.2c0.1,0.4-0.1,0.8-0.1,1.2c0,0.4-0.3,0.7-0.4,1.1c-0.1,0.5,0,1-0.2,1.3c-0.2,0.4-0.6,0.6-1,0.8
				c-0.3,0.2-0.8,0.2-1.2,0.3c-0.5,0.1-0.9,0.2-1.4,0.2c-0.5,0-0.9-0.3-1.3-0.6c-0.3-0.2-0.7-0.5-0.9-0.9c-0.3-0.4-0.6-0.8-0.8-1.2
				c-0.2-0.4-0.5-0.8-0.6-1.3C201.1,66.1,201.1,65.6,201.1,65.1z"/>
		</g>
		<g>
			<path d="M189.6,134.9c0.5,0,0.9,0.1,1.3,0.1c0.4,0,0.8,0.1,1.2,0.4c0.6,0.3,0.8,0.4,0.6,1.2c-0.1,0.8-0.4,0.8-1,0.8
				c-0.4,0-0.8,0.3-1.1,0.3c-0.4,0-0.8,0.2-1.1,0.2c-0.4,0-0.8-0.1-1.2,0c-0.4,0.1-0.7,0.3-1.1,0.4c-0.4,0.1-0.8-0.1-1.2,0
				c-0.4,0-0.8-0.1-1.2,0c-0.4,0-0.8,0.3-1.2,0.3c-0.4,0-0.8-0.2-1.2-0.2c-0.4,0-0.8,0.3-1.2,0.4c-0.4,0.1-0.9-0.2-1.3-0.1
				c-0.3,0.1-0.4,0.6-0.7,0.6c-0.4,0.1-0.8,0.4-1.1-0.1c-0.3-0.5,0-0.9,0.3-1.2c0.3-0.3,0.5-0.6,0.9-0.7c0.4-0.1,0.8-0.1,1.2-0.2
				c0.4-0.1,0.8-0.2,1.1-0.4c0.4-0.1,0.7-0.3,1.1-0.4c0.4-0.1,0.7-0.3,1.1-0.4c0.4-0.1,0.7-0.4,1.1-0.4c0.4-0.1,0.8-0.2,1.2-0.2
				c0.4-0.1,0.8,0.2,1.2,0.2c0.4,0,0.8-0.2,1.2-0.2C188.8,135.2,189.2,135,189.6,134.9z"/>
		</g>
	</g>
</g>
</svg>
