<?xml version="1.0" encoding="utf-8"?>
<!-- Generator: Adobe Illustrator 24.2.2, SVG Export Plug-In . SVG Version: 6.00 Build 0)  -->
<svg version="1.1" id="Layer_1" xmlns="http://www.w3.org/2000/svg" xmlns:xlink="http://www.w3.org/1999/xlink" x="0px" y="0px"
	 viewBox="0 0 230.21 117.71" style="enable-background:new 0 0 230.21 117.71;" xml:space="preserve">
<style type="text/css">
	.st0{fill:#B35FA6;}
	.st1{fill:#FF7BE9;}
</style>
<g>
	<path class="st0" d="M189.44,16.08C147.33,17.74,2.03,20.48,9.74,26.86c8.81,7.29,24.45,20.24,24.45,20.24l12.89,51.34l163.7-86.6"
		/>
	<path class="st1" d="M218.78,14.08c-13.8,15.65-64.48,72.92-80.85,88.86c-2.78,2.7-8.73,2.25-12.34-0.19
		c-10.06-6.8-66.63-44.66-66.63-44.66L218.78,14.08z"/>
	<g>
		<path d="M217.46,11.4c-0.44,0.02-0.91-0.3-1.36-0.29s-0.87,0.45-1.32,0.47c-0.44,0.02-0.91-0.58-1.36-0.56
			c-0.44,0.02-0.86,0.78-1.3,0.8s-0.9-0.18-1.34-0.16c-0.44,0.02-0.88,0.38-1.32,0.39c-0.44,0.02-0.93-0.97-1.37-0.96
			c-0.44,0.02-0.86,0.68-1.31,0.7c-0.44,0.02-0.91-0.39-1.35-0.37c-0.44,0.02-0.87,0.42-1.32,0.43c-0.44,0.02-0.88,0.19-1.33,0.2
			c-0.44,0.02-0.89,0.06-1.33,0.08c-0.44,0.02-0.91-0.51-1.35-0.5s-0.9-0.17-1.34-0.15c-0.44,0.02-0.88,0.23-1.32,0.25
			c-0.43,0.02-0.87-0.07-1.3-0.05c-0.43,0.02-0.86,0.18-1.29,0.19s-0.84,0.58-1.28,0.6s-0.87-0.17-1.31-0.16s-0.85,0.33-1.29,0.35
			s-0.88-0.29-1.31-0.28c-0.43,0.02-0.87-0.18-1.31-0.16c-0.43,0.02-0.88-0.32-1.31-0.31c-0.43,0.02-0.86,0.13-1.3,0.15
			c-0.43,0.02-0.84,0.65-1.27,0.66s-0.88-0.42-1.32-0.4c-0.43,0.02-0.85,0.56-1.28,0.58c-0.43,0.02-0.87,0.02-1.3,0.03
			c-0.43,0.02-0.88-0.33-1.31-0.31c-0.43,0.02-0.87-0.19-1.31-0.17c-0.43,0.02-0.87-0.17-1.31-0.15c-0.43,0.02-0.83,1.03-1.26,1.04
			s-0.88-0.26-1.31-0.24c-0.43,0.02-0.87-0.15-1.31-0.13c-0.43,0.02-0.85,0.44-1.28,0.46c-0.43,0.02-0.88-0.24-1.31-0.22
			c-0.43,0.02-0.86,0.07-1.3,0.09c-0.43,0.02-0.87-0.13-1.31-0.12c-0.43,0.02-0.85,0.39-1.28,0.41c-0.43,0.02-0.87-0.04-1.3-0.02
			c-0.43,0.02-0.86,0.08-1.3,0.1c-0.43,0.02-0.87-0.03-1.3-0.01c-0.43,0.02-0.88-0.28-1.31-0.26c-0.43,0.02-0.85,0.42-1.28,0.43
			c-0.43,0.02-0.87-0.17-1.31-0.16c-0.43,0.02-0.86,0.06-1.3,0.08c-0.43,0.02-0.86,0.21-1.29,0.23c-0.43,0.02-0.86,0.13-1.3,0.15
			c-0.43,0.02-0.89-0.61-1.32-0.59c-0.43,0.02-0.86,0.2-1.29,0.22c-0.43,0.02-0.85,0.37-1.29,0.39c-0.43,0.02-0.89-0.52-1.32-0.5
			c-0.43,0.02-0.84,0.78-1.27,0.8c-0.44,0.02-0.91-0.57-1.35-0.55c-0.44,0.02-0.9-0.33-1.34-0.31c-0.44,0.02-0.86,0.47-1.3,0.49
			c-0.44,0.02-0.88,0.17-1.32,0.19c-0.44,0.02-0.88,0.08-1.32,0.09c-0.44,0.02-0.89-0.16-1.33-0.14c-0.44,0.02-0.9-0.37-1.34-0.35
			c-0.44,0.02-0.87,0.23-1.31,0.25c-0.44,0.02-0.85,0.71-1.3,0.72c-0.44,0.02-0.9-0.55-1.35-0.53c-0.44,0.02-0.9-0.33-1.34-0.31
			c-0.44,0.02-0.85,0.94-1.29,0.96c-0.44,0.02-0.89-0.3-1.34-0.28c-0.44,0.02-0.88,0.01-1.32,0.03s-0.89-0.11-1.33-0.1
			c-0.44,0.02-0.89-0.22-1.33-0.2c-0.44,0.02-0.85,0.79-1.29,0.8c-0.44,0.02-0.89-0.22-1.33-0.21c-0.44,0.02-0.89-0.25-1.33-0.23
			c-0.44,0.02-0.86,0.59-1.3,0.61c-0.44,0.02-0.9-0.51-1.34-0.5c-0.44,0.02-0.89-0.09-1.33-0.07c-0.44,0.02-0.88-0.05-1.33-0.03
			c-0.44,0.02-0.88,0.01-1.32,0.03c-0.44,0.02-0.85,0.76-1.29,0.77c-0.44,0.02-0.88,0.2-1.32,0.21c-0.44,0.02-0.9-0.44-1.34-0.42
			c-0.44,0.02-0.88,0.19-1.32,0.2c-0.44,0.02-0.87,0.4-1.31,0.41c-0.44,0.02-0.9-0.56-1.35-0.55c-0.44,0.02-0.89-0.22-1.33-0.2
			c-0.44,0.02-0.89-0.13-1.33-0.11c-0.44,0.02-0.86,0.59-1.3,0.61c-0.44,0.02-0.89-0.09-1.33-0.07c-0.44,0.02-0.86,0.46-1.31,0.48
			c-0.44,0.02-0.88-0.04-1.32-0.02c-0.44,0.02-0.9-0.56-1.35-0.54s-0.86,0.45-1.31,0.47s-0.89-0.28-1.33-0.26
			c-0.44,0.02-0.89-0.25-1.33-0.23c-0.44,0.02-0.85,0.72-1.3,0.74c-0.44,0.02-0.9-0.35-1.34-0.33c-0.44,0.02-0.89-0.17-1.33-0.15
			c-0.44,0.02-0.88,0.04-1.32,0.06c-0.44,0.02-0.86,0.47-1.3,0.49c-0.44,0.02-0.88,0.01-1.32,0.03c-0.44,0.02-0.88,0.08-1.32,0.1
			c-0.44,0.02-0.89-0.17-1.33-0.16c-0.44,0.02-0.88-0.09-1.32-0.07c-0.44,0.02-0.89-0.11-1.32-0.09c-0.44,0.02-0.84,0.93-1.28,0.94
			c-0.44,0.02-0.9-0.43-1.34-0.41c-0.44,0.02-0.87,0.18-1.31,0.2s-0.89-0.16-1.33-0.14c-0.44,0.02-0.87,0.18-1.31,0.2
			c-0.44,0.02-0.88-0.04-1.32-0.03c-0.44,0.02-0.88-0.02-1.32-0.01c-0.44,0.02-0.9-0.42-1.34-0.4c-0.44,0.02-0.88,0.11-1.32,0.13
			c-0.44,0.02-0.86,0.57-1.3,0.59c-0.44,0.02-0.88-0.01-1.32,0.01c-0.44,0.02-0.9-0.38-1.34-0.36c-0.44,0.02-0.88,0.09-1.32,0.11
			c-0.44,0.02-0.87,0.15-1.31,0.17c-0.44,0.02-0.86,0.52-1.3,0.54s-0.9-0.38-1.34-0.36s-0.89-0.14-1.33-0.13
			c-0.44,0.02-0.85,0.74-1.29,0.76c-0.44,0.02-0.91-0.62-1.34-0.61c-0.44,0.02-0.88,0.1-1.32,0.12c-0.44,0.02-0.89-0.35-1.33-0.33
			c-0.44,0.02-0.86,0.47-1.3,0.49c-0.44,0.02-0.86,0.47-1.3,0.49c-0.44,0.02-0.9-0.51-1.34-0.5c-0.44,0.02-0.87,0.17-1.31,0.19
			c-0.44,0.02-0.86,0.52-1.3,0.54c-0.44,0.02-0.91-0.65-1.35-0.64c-0.44,0.02-0.86,0.6-1.3,0.62c-0.44,0.02-0.87,0.18-1.31,0.2
			c-0.44,0.02-0.9-0.61-1.34-0.59c-0.44,0.02-0.87,0.19-1.31,0.21c-0.44,0.02-0.9-0.37-1.33-0.35s-0.88,0.03-1.32,0.05
			c-0.44,0.02-0.88,0.07-1.32,0.08c-0.44,0.02-0.88,0.01-1.32,0.03c-0.44,0.02-0.88,0.05-1.32,0.07c-0.44,0.02-0.87,0.39-1.31,0.41
			c-0.44,0.02-0.88-0.01-1.32,0.01c-0.44,0.02-0.89-0.14-1.33-0.12c-0.44,0.02-0.87,0.26-1.31,0.28c-0.44,0.02-0.87,0.4-1.31,0.42
			c-0.44,0.02-0.88-0.01-1.32,0.01c-0.44,0.02-0.89-0.22-1.33-0.2c-0.44,0.02-0.89-0.29-1.33-0.28c-0.44,0.02-0.88,0.18-1.32,0.2
			c-0.44,0.02-0.88-0.06-1.32-0.05c-0.44,0.02-0.86,0.54-1.3,0.56c-0.44,0.02-0.9-0.51-1.34-0.49s-0.87,0.4-1.31,0.42
			s-0.91-0.56-1.35-0.54c-0.44,0.02-0.87,0.39-1.31,0.41c-0.44,0.02-0.88,0.04-1.32,0.06s-0.9-0.32-1.34-0.3
			c-0.12,0.01-0.2,0.77-0.32,0.78c-0.13,0.01-0.82-0.49-1.48-0.31c-0.45,0.12-0.79,0.74-1.2,0.91c-0.7,0.28-0.99,0.18-0.65,0.43
			c0.36,0.27,0.64,0.63,0.99,0.9s0.52,0.8,0.87,1.06c0.36,0.27,0.84,0.36,1.19,0.63c0.36,0.27,0.64,0.64,0.99,0.9
			c0.36,0.27,0.77,0.45,1.13,0.72s0.84,0.36,1.2,0.63s0.31,1.07,0.67,1.34s1.19-0.1,1.54,0.16s0.2,1.21,0.56,1.48
			c0.36,0.27,0.65,0.61,1.01,0.88c0.36,0.27,0.93,0.24,1.29,0.51c0.36,0.27,0.54,0.77,0.89,1.03c0.36,0.27,1.2-0.12,1.55,0.15
			c0.36,0.27,0.25,1.16,0.6,1.42c0.36,0.27,0.88,0.31,1.24,0.58c0.36,0.27,0.67,0.6,1.02,0.86c0.36,0.27,0.94,0.23,1.3,0.5
			c0.33,0.25,0.29,1,0.62,1.25s1.24-0.27,1.57-0.02c0.33,0.25,0.46,0.77,0.8,1.02c0.33,0.25,0.68,0.48,1.01,0.73
			s0.49,0.74,0.82,0.98s0.99,0.06,1.32,0.31c0.33,0.25,0.33,0.95,0.66,1.2c0.33,0.25,0.45,0.79,0.78,1.04
			c0.33,0.25,1.09-0.08,1.43,0.17s0.53,0.68,0.86,0.92c0.31,0.23,0.52,0.52,0.77,0.7c0.3,0.22,0.86-0.1,1.15,0.03
			c0,0.02,0.19,0.4,0.2,0.42c0.05,0.43-0.46,0.92-0.41,1.35c0.05,0.43,0.76,0.78,0.81,1.21c0.05,0.43-0.62,0.94-0.57,1.37
			c0.05,0.43,0.63,0.8,0.68,1.23c0.05,0.43-0.04,0.88,0.01,1.31c0.05,0.43-0.05,0.88,0,1.31c0.05,0.43-0.01,0.87,0.03,1.3
			c0.05,0.43-0.31,0.91-0.26,1.34s0.92,0.77,0.97,1.2c0.05,0.43-0.33,0.91-0.28,1.34c0.05,0.43-0.23,0.9-0.18,1.33
			s0.85,0.77,0.9,1.2c0.05,0.43,0.16,0.85,0.21,1.28s-0.58,0.94-0.53,1.37c0.05,0.43,0.52,0.81,0.57,1.24
			c0.05,0.43,0.1,0.86,0.15,1.29c0.05,0.43,0.38,0.83,0.43,1.26c0.05,0.43-0.71,0.95-0.66,1.38c0.05,0.43,0.02,0.87,0.07,1.3
			c0.05,0.43,0.51,0.81,0.56,1.24s-0.06,0.88-0.01,1.31c0.05,0.43,0.32,0.83,0.37,1.26s-0.33,0.91-0.28,1.34
			c0.05,0.43,0.26,0.84,0.31,1.27s0.21,0.85,0.26,1.28c0.05,0.43,0.72,0.79,0.77,1.22c0.05,0.43-0.77,0.96-0.72,1.39
			c0.05,0.43,0.77,0.78,0.81,1.21c0.05,0.43-0.58,0.94-0.53,1.37c0.05,0.43,0.52,0.81,0.56,1.24c0.05,0.43,0.2,0.85,0.25,1.28
			c0.05,0.43,0.41,0.82,0.46,1.25c0.05,0.43-0.21,0.9-0.16,1.33c0.05,0.43-0.24,0.9-0.19,1.33c0.05,0.43,0.28,0.84,0.33,1.27
			c0.05,0.43-0.14,0.89-0.09,1.32s-0.08,0.88-0.03,1.31c0.05,0.43,0.68,0.79,0.73,1.22c0.05,0.43,0.22,0.85,0.27,1.28
			c0.05,0.48-0.1,0.98-0.05,1.45c0.05,0.48,0.08,0.95,0.13,1.43c0.05,0.48-0.08,0.97-0.02,1.45c0.05,0.48,0.65,0.89,0.71,1.36
			c0.06,0.48-0.82,1.07-0.76,1.55c0.07,0.49,1,0.56,1.28,0.82c0.3,0.28,0.57,0.19,1.01,0.28c0.39,0.07,0.76,0.81,1.21,0.77
			c0.42-0.04,0.69-0.85,1.11-0.96c0.43-0.11,1.13,0.59,1.49,0.43c0.4-0.17,0.56-0.9,0.97-1.08c0.4-0.17,0.69-0.61,1.09-0.79
			c0.4-0.17,1.17,0.5,1.57,0.32c0.4-0.17,0.6-0.83,1-1c0.4-0.17,0.74-0.5,1.14-0.68c0.4-0.17,0.74-0.49,1.14-0.66
			s0.94-0.04,1.34-0.22s0.79-0.37,1.2-0.54s0.8-0.35,1.2-0.52c0.4-0.17,0.73-0.51,1.14-0.68s1.09,0.31,1.49,0.14
			c0.4-0.17,0.8-0.35,1.2-0.53s0.8-0.35,1.2-0.52s0.79-0.37,1.19-0.55c0.4-0.17,0.59-0.85,0.99-1.02c0.4-0.17,0.89-0.16,1.29-0.33
			s0.96,0.02,1.37-0.15c0.4-0.17,0.7-0.59,1.1-0.76c0.4-0.17,0.68-0.63,1.08-0.8c0.4-0.17,0.91-0.1,1.31-0.28
			c0.4-0.17,0.67-0.65,1.07-0.83c0.4-0.17,1.02,0.15,1.42-0.03c0.4-0.17,0.76-0.44,1.16-0.62s0.63-0.74,1.04-0.91
			c0.4-0.17,0.93-0.05,1.34-0.22s0.77-0.42,1.17-0.6c0.4-0.17,0.98,0.06,1.38-0.11c0.4-0.17,0.57-0.88,0.98-1.05
			c0.4-0.17,0.81-0.34,1.21-0.52c0.4-0.17,0.7-0.59,1.1-0.76s0.84-0.27,1.24-0.45s0.72-0.55,1.12-0.73c0.38-0.16,1.34,0.22,1.6-0.15
			c0.26-0.38,0.02-1.09-0.29-1.53c-0.31-0.44-0.88-0.73-1.45-0.73c-0.57,0.01-1.14,0.37-1.54,0.54c-0.4,0.17-0.89,0.15-1.29,0.33
			c-0.4,0.17-0.55,0.93-0.96,1.1c-0.4,0.17-0.79,0.39-1.19,0.56c-0.4,0.17-1.05-0.23-1.45-0.06s-0.87,0.19-1.27,0.36
			c-0.4,0.17-0.71,0.57-1.11,0.74s-0.93,0.06-1.33,0.24c-0.4,0.17-0.62,0.78-1.02,0.96c-0.4,0.17-1.02-0.16-1.42,0.02
			s-0.67,0.65-1.07,0.82c-0.4,0.17-0.56,0.9-0.97,1.08s-0.91,0.1-1.31,0.28s-0.99-0.08-1.39,0.09s-0.5,1.04-0.91,1.21
			c-0.4,0.17-0.9,0.13-1.3,0.3c-0.4,0.17-0.95,0.01-1.35,0.18s-0.65,0.71-1.05,0.88s-0.77,0.43-1.17,0.61
			c-0.4,0.17-0.94,0.04-1.34,0.21s-0.85,0.23-1.26,0.41c-0.4,0.17-0.7,0.59-1.1,0.77c-0.4,0.17-0.75,0.47-1.15,0.64
			c-0.4,0.17-0.98-0.05-1.38,0.12c-0.4,0.17-0.93,0.06-1.33,0.23c-0.4,0.17-0.58,0.86-0.98,1.03c-0.4,0.17-1.03-0.18-1.43,0
			c-0.4,0.17-0.79,0.39-1.19,0.56c-0.4,0.17-0.75,0.47-1.15,0.64c-0.41,0.18-0.83,0.31-1.24,0.48c-0.41,0.18-0.56,0.93-0.97,1.1
			c-0.41,0.18-0.99,0.09-1.39,0.27c0.1-0.42,0.54-0.82,0.65-1.25c0.1-0.42-0.1-0.92,0.01-1.35c0.1-0.42-0.01-0.9,0.09-1.32
			c0.1-0.42,0.35-0.81,0.46-1.23s0.44-0.79,0.54-1.21s0.09-0.88,0.19-1.3c0.1-0.42-0.1-0.92,0.01-1.34c0.1-0.42,0.56-0.76,0.66-1.18
			c0.1-0.42,0.47-0.78,0.57-1.21c0.1-0.42-0.26-0.96-0.16-1.39c0.1-0.42-0.13-0.93-0.03-1.35c0.1-0.42,0.9-0.68,1.01-1.1
			s0.31-0.82,0.42-1.24c0.1-0.42-0.3-0.97-0.19-1.39c0.1-0.42,0.09-0.88,0.2-1.3c0.1-0.42,0.41-0.8,0.52-1.22
			c0.1-0.42,0.26-0.83,0.37-1.26c0.1-0.42,0.39-0.8,0.49-1.23c0.1-0.42-0.19-0.94-0.08-1.37c0.1-0.42,0.61-0.75,0.72-1.17
			c0.1-0.42-0.43-1-0.32-1.43c0.1-0.42,0.74-0.71,0.85-1.14s0.42-0.79,0.52-1.22s-0.22-0.95-0.11-1.38s0.21-0.85,0.31-1.27
			c0.1-0.42,0.89-0.68,0.99-1.1c0.1-0.42-0.28-0.97-0.17-1.39c0.1-0.42-0.15-0.93-0.04-1.36c0.11-0.44,0.27-0.86,0.38-1.3
			c0.11-0.44,0.41-1.06,0.51-1.5c0.38,0.22,0.84,0.77,1.22,0.99c0.38,0.22,0.65,0.64,1.03,0.86c0.38,0.22,0.75,0.46,1.13,0.67
			c0.38,0.22,1.13-0.2,1.51,0.02s0.58,0.76,0.96,0.98s0.57,0.78,0.95,0.99s0.78,0.41,1.16,0.63c0.38,0.22,1.16-0.25,1.54-0.03
			c0.38,0.22,0.6,0.71,0.99,0.93c0.38,0.22,0.72,0.52,1.1,0.74c0.38,0.22,0.94,0.13,1.32,0.35c0.38,0.22,0.48,0.93,0.86,1.15
			c0.38,0.22,0.67,0.59,1.05,0.81s1.01,0,1.39,0.22s0.76,0.45,1.14,0.67s0.92,0.17,1.3,0.39c0.38,0.22,0.42,1.03,0.81,1.25
			c0.38,0.22,0.67,0.6,1.05,0.82c0.38,0.22,0.98,0.05,1.37,0.27c0.38,0.22,0.57,0.76,0.95,0.97s0.87,0.24,1.24,0.45
			c0.38,0.22,0.66,0.6,1.03,0.82c0.38,0.22,0.86,0.25,1.24,0.46c0.38,0.22,0.86,0.25,1.24,0.46c0.38,0.22,0.54,0.8,0.92,1.01
			c0.38,0.22,0.88,0.21,1.26,0.43c0.38,0.22,0.53,0.82,0.91,1.03c0.38,0.22,1.21-0.36,1.58-0.14c0.38,0.22,0.35,1.14,0.73,1.35
			c0.38,0.22,0.75,0.44,1.13,0.65c0.38,0.22,0.8,0.35,1.18,0.57c0.38,0.22,0.75,0.44,1.13,0.66c0.38,0.22,1.1-0.16,1.47,0.05
			c0.38,0.22,0.68,0.56,1.06,0.77c0.38,0.22,0.57,0.76,0.94,0.97c0.38,0.22,0.7,0.52,1.08,0.74c0.38,0.22,0.72,0.5,1.09,0.71
			c0.38,0.22,1.14-0.24,1.51-0.02c0.38,0.22,0.45,0.95,0.83,1.17c0.38,0.22,1.01-0.02,1.39,0.2c0.38,0.22,0.82,0.32,1.2,0.53
			c0.38,0.22,0.27,1.28,0.64,1.5c0.38,0.22,0.77,0.41,1.15,0.62c0.38,0.22,1.2-0.34,1.57-0.13c0.38,0.22,0.71,0.51,1.09,0.72
			c0.38,0.22,0.56,0.78,0.93,0.99c0.38,0.22,0.83,0.31,1.2,0.52c0.38,0.22,0.6,0.7,0.98,0.92c0.38,0.22,0.61,0.67,0.99,0.89
			c0.38,0.22,0.84,0.29,1.21,0.5c0.38,0.22,0.88,0.22,1.25,0.43c0.38,0.22,0.59,0.72,0.97,0.93c0.38,0.22,1.17-0.29,1.55-0.08
			c0.38,0.22,0.29,1.24,0.67,1.45c0.38,0.22,1.06-0.1,1.44,0.12c0.38,0.22,0.82,0.31,1.2,0.52c0.4,0.23,0.5,0.98,0.9,1.21
			c0.4,0.23,0.86,0.36,1.26,0.59c0.4,0.23,0.77,0.52,1.17,0.75c0.4,0.23,1.03,0.07,1.43,0.3c0.4,0.23,0.82,0.43,1.22,0.66
			c0.4,0.23,0.81,0.45,1.21,0.68s0.47,1.04,0.87,1.27c0.4,0.23,1.16-0.17,1.56,0.06c0.32,0.18,0.66,0.1,1.24,0.02
			c0.47-0.06,0.97,0.07,1.42-0.1c0.54-0.2,1.36-0.07,1.6-0.33c0.29-0.32,0.04-1.14,0.33-1.46c0.29-0.32,1.01-0.25,1.3-0.57
			s0.27-0.93,0.56-1.25c0.29-0.32,0.88-0.37,1.17-0.69s0.58-0.64,0.87-0.96s0.07-1.11,0.36-1.43s0.88-0.36,1.17-0.68
			c0.29-0.32,0.57-0.65,0.86-0.97c0.29-0.32,0.67-0.56,0.97-0.87c0.29-0.32,0.5-0.71,0.8-1.03s0.4-0.81,0.69-1.13
			c0.29-0.32,0.72-0.52,1.01-0.83s0.33-0.87,0.62-1.19s0.65-0.58,0.94-0.9s0.57-0.65,0.86-0.97c0.29-0.32,0.64-0.58,0.94-0.9
			c0.29-0.32,0.84-0.4,1.13-0.72c0.29-0.32,0.81-0.43,1.1-0.75s0.42-0.78,0.72-1.1s0.51-0.7,0.8-1.02s0.69-0.54,0.99-0.86
			c0.29-0.32,0.17-1.01,0.47-1.33c0.29-0.32,0.64-0.59,0.93-0.9s0.62-0.6,0.91-0.92c0.29-0.32,1.18-0.09,1.48-0.4
			s0.15-1.04,0.44-1.36s0.34-0.86,0.64-1.18c0.29-0.32,0.63-0.59,0.92-0.91c0.29-0.32,0.88-0.37,1.17-0.68
			c0.29-0.32,0.75-0.48,1.05-0.8s0.5-0.72,0.79-1.03c0.29-0.32,0.78-0.46,1.07-0.78c0.3-0.32-0.01-1.2,0.29-1.52
			c0.3-0.32,0.59-0.64,0.89-0.96c0.3-0.32,0.75-0.5,1.05-0.82s0.88-0.38,1.18-0.7c0.3-0.32,0.74-0.51,1.03-0.83
			c0.3-0.32,0.01-1.18,0.31-1.5c0.3-0.32,0.66-0.58,0.95-0.9c0.3-0.32,0.69-0.56,0.98-0.88c0.3-0.32,0.82-0.44,1.11-0.76
			c0.3-0.32,0.4-0.82,0.69-1.14c0.3-0.32,0.85-0.4,1.15-0.72c0.3-0.32,0.65-0.59,0.94-0.92c0.3-0.32,0.07-1.12,0.37-1.44
			c0.3-0.32,0.63-0.61,0.92-0.93c0.3-0.32,0.99-0.28,1.29-0.6c0.3-0.32,0.29-0.93,0.58-1.25c0.3-0.32,0.43-0.79,0.73-1.11
			c0.3-0.32,0.65-0.59,0.95-0.91c0.3-0.32,0.87-0.39,1.17-0.71c0.3-0.32,0.25-0.96,0.55-1.28c0.3-0.32,0.72-0.53,1.01-0.85
			c0.3-0.32,0.94-0.32,1.24-0.65c0.3-0.32,0.2-1.01,0.49-1.33c0.3-0.32,0.68-0.56,0.98-0.88c0.3-0.32,1.11-0.16,1.41-0.49
			c0.3-0.32-0.1-1.28,0.2-1.6c0.3-0.32,0.85-0.4,1.15-0.73s0.3-0.91,0.6-1.23c0.3-0.32,1.2-0.08,1.5-0.4
			c0.3-0.32,0.6-0.64,0.89-0.96c0.3-0.32,0.26-0.95,0.56-1.27c0.3-0.32,0.59-0.65,0.88-0.97c0.3-0.32,0.87-0.39,1.17-0.71
			c0.3-0.32,0.04-1.16,0.33-1.48c0.3-0.32,0.68-0.56,0.98-0.88c0.3-0.32,0.72-0.53,1.01-0.85s0.36-0.86,0.66-1.18
			c0.3-0.32,1.21-0.08,1.5-0.4c0.3-0.32,0.44-0.78,0.74-1.1c0.3-0.32,0.17-1.03,0.47-1.35s1.12-0.16,1.41-0.48
			c0.3-0.32,0.12-1.07,0.42-1.4c0.3-0.32,0.51-0.72,0.8-1.04c0.3-0.32,0.85-0.41,1.14-0.73c0.3-0.32,0.52-0.71,0.82-1.03
			c0.3-0.32,0.4-0.82,0.7-1.14s0.98-0.29,1.27-0.61c0.3-0.32,0.64-0.59,0.94-0.92c0.3-0.32,0.78-0.47,1.08-0.79
			c0.3-0.32-0.01-1.2,0.29-1.52c0.3-0.33,0.72-0.54,1.02-0.87c0.3-0.33,0.83-0.44,1.13-0.77s0.28-0.94,0.58-1.27
			c0.3-0.33,0.99-0.29,1.29-0.62s0.2-1.02,0.5-1.34s1.1-0.19,1.4-0.52c0.3-0.33,0.08-1.13,0.38-1.46s1.04-0.24,1.34-0.57
			s0.81-0.46,1.11-0.78c0.3-0.33,0.15-1.06,0.45-1.39c0.3-0.33,0.77-0.48,1.07-0.8c0.2-0.11,0.05-0.42,0.11-0.55
			c0.07-0.09-0.01,0.03-0.04-0.08C218.34,11.22,218.06,11.31,217.46,11.4z M15.99,22.39c-0.64-0.48,0.87,0.23,0.23-0.25
			c0.24-0.01,0.54-0.17,1.17-0.2c0.37-0.02,0.84,0.57,1.34,0.55c0.4-0.02,0.8-0.79,1.27-0.82c0.41-0.02,0.86,0.17,1.32,0.15
			c0.42-0.02,0.84-0.38,1.29-0.41c0.42-0.02,0.91,0.96,1.36,0.94c0.42-0.02,0.83-0.69,1.28-0.71c0.43-0.02,0.89,0.38,1.33,0.36
			c0.43-0.02,0.84-0.43,1.29-0.45c0.43-0.02,0.86-0.2,1.3-0.22c0.43-0.02,0.87-0.08,1.31-0.1c0.43-0.02,0.9,0.5,1.34,0.48
			c0.43-0.02,0.88,0.15,1.32,0.13c0.43-0.02,0.86-0.24,1.3-0.27c0.43-0.02,0.87,0.05,1.32,0.03c0.43-0.02,0.86-0.19,1.3-0.21
			c0.43-0.02,0.84-0.6,1.28-0.62c0.43-0.02,0.88,0.16,1.32,0.14c0.43-0.02,0.85-0.34,1.3-0.37c0.43-0.02,0.89,0.28,1.33,0.26
			c0.43-0.02,0.88,0.17,1.32,0.14c0.43-0.02,0.89,0.31,1.33,0.29c0.43-0.02,0.87-0.15,1.31-0.17c0.43-0.02,0.84-0.66,1.28-0.68
			c0.43-0.02,0.9,0.4,1.34,0.38c0.44-0.02,0.84-0.57,1.28-0.6c0.44-0.02,0.87-0.03,1.31-0.05c0.44-0.02,0.89,0.31,1.33,0.29
			c0.43-0.02,0.88,0.17,1.32,0.15c0.43-0.02,0.88,0.16,1.32,0.14c0.43-0.02,0.82-1.04,1.25-1.06c0.43-0.02,0.89,0.25,1.32,0.22
			c0.43-0.02,0.88,0.14,1.32,0.11c0.44-0.02,0.85-0.45,1.29-0.48c0.44-0.02,0.89,0.23,1.32,0.2c0.44-0.02,0.87-0.08,1.31-0.1
			c0.44-0.02,0.88,0.12,1.32,0.1c0.44-0.02,0.85-0.41,1.29-0.43c0.44-0.02,0.88,0.03,1.32,0.01c0.44-0.02,0.87-0.09,1.31-0.11
			c0.44-0.02,0.88,0.01,1.31-0.01c0.44-0.02,0.89,0.27,1.33,0.25c0.44-0.02,0.85-0.43,1.29-0.45c0.44-0.02,0.89,0.16,1.32,0.14
			c0.44-0.02,0.87-0.07,1.31-0.1c0.44-0.02,0.87-0.22,1.3-0.25c0.44-0.02,0.87-0.15,1.31-0.17c0.44-0.02,0.91,0.6,1.35,0.57
			c0.44-0.02,0.87-0.22,1.31-0.24c0.44-0.02,0.86-0.38,1.3-0.41c0.44-0.02,0.91,0.51,1.35,0.48c0.44-0.02,0.84-0.8,1.28-0.82
			c0.44-0.02,0.91,0.55,1.35,0.53c0.44-0.02,0.9,0.32,1.34,0.29c0.44-0.02,0.86-0.48,1.3-0.51c0.44-0.02,0.87-0.19,1.31-0.21
			c0.44-0.02,0.88-0.09,1.32-0.11c0.44-0.02,0.89,0.15,1.33,0.12c0.44-0.02,0.9,0.36,1.34,0.34c0.44-0.02,0.87-0.24,1.31-0.27
			c0.44-0.02,0.85-0.72,1.28-0.74c0.44-0.02,0.91,0.54,1.35,0.51c0.44-0.02,0.9,0.32,1.34,0.29c0.44-0.02,0.83-0.95,1.27-0.97
			c0.44-0.02,0.9,0.29,1.33,0.27c0.44-0.02,0.88-0.02,1.31-0.04c0.44-0.02,0.89,0.1,1.32,0.08c0.44-0.02,0.89,0.21,1.33,0.19
			c0.44-0.02,0.84-0.8,1.28-0.82c0.44-0.02,0.9,0.21,1.33,0.19c0.44-0.02,0.9,0.24,1.33,0.22c0.44-0.02,0.85-0.6,1.29-0.62
			c0.44-0.02,0.91,0.5,1.35,0.48c0.44-0.02,0.89,0.08,1.32,0.06c0.44-0.02,0.89,0.04,1.32,0.02c0.44-0.02,0.88-0.02,1.32-0.04
			c0.44-0.02,0.84-0.77,1.28-0.79c0.44-0.02,0.87-0.21,1.31-0.23c0.44-0.02,0.9,0.43,1.34,0.41c0.44-0.02,0.87-0.19,1.3-0.22
			c0.44-0.02,0.86-0.41,1.29-0.43c0.44-0.02,0.91,0.55,1.34,0.53c0.44-0.02,0.89,0.21,1.32,0.19c0.44-0.02,0.89,0.12,1.32,0.1
			c0.44-0.02,0.86-0.6,1.28-0.62c0.45-0.02,0.89,0.08,1.32,0.06c0.45-0.02,0.86-0.47,1.29-0.49c0.45-0.02,0.89,0.03,1.31,0.01
			c0.45-0.02,0.92,0.55,1.34,0.53c0.45-0.02,0.87-0.46,1.29-0.48c0.45-0.02,0.9,0.27,1.32,0.25c0.46-0.02,0.91,0.24,1.32,0.23
			c0.47-0.02,0.87-0.72,1.27-0.74c0.44-0.02,0.89,0.35,1.33,0.33c0.44-0.02,0.89,0.17,1.33,0.15c0.44-0.02,0.88-0.04,1.32-0.06
			c0.44-0.02,0.86-0.47,1.3-0.49c0.44-0.02,0.88-0.01,1.32-0.03c0.44-0.02,0.88-0.08,1.32-0.1c0.44-0.02,0.89,0.17,1.33,0.16
			c0.44-0.02,0.88,0.09,1.32,0.07c0.44-0.02,0.89,0.11,1.32,0.09c0.44-0.02,0.84-0.93,1.28-0.94c0.44-0.02,0.9,0.43,1.34,0.41
			c0.44-0.02,0.87-0.18,1.31-0.2c0.44-0.02,0.89,0.16,1.33,0.14c0.44-0.02,0.87-0.18,1.31-0.2c0.44-0.02,0.88,0.04,1.32,0.03
			c0.44-0.02,0.88,0.02,1.32,0.01c0.44-0.02,0.9,0.42,1.34,0.4c0.44-0.02,0.88-0.11,1.32-0.13c0.44-0.02,0.86-0.57,1.3-0.59
			c0.44-0.02,0.88,0.01,1.32-0.01c0.44-0.02,0.9,0.38,1.34,0.36c0.44-0.02,0.88-0.09,1.32-0.11c0.44-0.02,0.87-0.15,1.31-0.17
			c0.44-0.02,0.86-0.52,1.3-0.54c0.44-0.02,0.9,0.38,1.34,0.36s0.89,0.14,1.33,0.13c0.44-0.02,0.85-0.74,1.29-0.76
			c0.44-0.02,0.91,0.62,1.34,0.61c0.44-0.02,0.88-0.1,1.32-0.12c0.44-0.02,0.89,0.35,1.33,0.33c0.44-0.02,0.86-0.47,1.3-0.49
			c0.44-0.02,0.86-0.47,1.3-0.49c0.44-0.02,0.9,0.51,1.34,0.5c0.44-0.02,0.87-0.17,1.31-0.19c0.44-0.02,0.86-0.52,1.3-0.54
			c0.44-0.02,0.91,0.65,1.35,0.64c0.44-0.02,0.86-0.6,1.3-0.62c0.44-0.02,0.87-0.18,1.31-0.2c0.44-0.02,0.9,0.61,1.34,0.59
			c0.45-0.02,0.89-0.19,1.33-0.21s0.91,0.37,1.35,0.35c0.45-0.02,0.89-0.03,1.34-0.05s0.89-0.07,1.34-0.08
			c0.45-0.02,0.89-0.01,1.34-0.03c0.45-0.02,0.89-0.05,1.34-0.07c0.45-0.02,0.88-0.39,1.32-0.41s0.89,0,1.34-0.01
			c0.45-0.02,0.9,0.14,1.34,0.12c0.45-0.02,0.88-0.26,1.33-0.28c0.45-0.02,0.88-0.4,1.32-0.42s1.16,0.17,1.61,0.15
			c-0.42,0.07-1.09,0.3-1.52,0.37c-0.42,0.07-0.9-0.18-1.32-0.1c-0.42,0.07-0.82,0.29-1.24,0.36c-0.42,0.07-0.86,0.05-1.28,0.12
			s-0.76,0.65-1.18,0.72c-0.42,0.07-0.94-0.39-1.37-0.32s-0.79,0.5-1.21,0.58s-0.95-0.44-1.38-0.37c-0.42,0.07-0.79,0.5-1.21,0.57
			c-0.42,0.07-0.85,0.15-1.27,0.23c-0.42,0.07-0.91-0.21-1.34-0.13c-0.42,0.07-0.72,0.9-1.14,0.98c-0.42,0.07-0.96-0.47-1.38-0.4
			s-0.77,0.63-1.19,0.71c-0.42,0.07-0.81,0.4-1.23,0.47c-0.42,0.07-0.87,0.02-1.3,0.1c-0.42,0.07-0.91-0.18-1.33-0.1
			c-0.42,0.07-0.81,0.35-1.24,0.43c-0.42,0.07-0.87,0.02-1.3,0.09c-0.42,0.07-0.83,0.25-1.26,0.32c-0.42,0.07-0.81,0.36-1.24,0.43
			c-0.42,0.07-0.96-0.52-1.39-0.44c-0.42,0.07-0.71,0.93-1.14,1c-0.42,0.07-0.99-0.69-1.42-0.62c-0.42,0.07-0.87,0.05-1.29,0.12
			c-0.42,0.07-0.79,0.5-1.21,0.58c-0.42,0.07-0.9-0.14-1.32-0.07c-0.42,0.07-0.71,0.94-1.14,1.02c-0.42,0.07-0.98-0.62-1.41-0.55
			c-0.42,0.07-0.8,0.42-1.23,0.49c-0.42,0.07-0.86,0.07-1.29,0.14c-0.42,0.07-0.79,0.52-1.21,0.59c-0.42,0.07-0.96-0.47-1.38-0.4
			c-0.42,0.07-0.69,1.09-1.11,1.16c-0.42,0.07-0.91-0.19-1.33-0.11c-0.42,0.07-0.85,0.16-1.27,0.24c-0.42,0.07-0.9-0.15-1.33-0.07
			c-0.42,0.07-0.76,0.68-1.18,0.75c-0.43,0.07-0.95-0.41-1.37-0.33c-0.43,0.07-0.91-0.21-1.34-0.14c-0.43,0.07-0.73,0.85-1.15,0.93
			c-0.43,0.07-0.89-0.07-1.31,0c-0.43,0.07-0.87,0.05-1.29,0.13c-0.43,0.07-0.75,0.71-1.18,0.78c-0.43,0.07-0.86,0.11-1.28,0.18
			c-0.43,0.07-0.95-0.41-1.37-0.33c-0.43,0.07-0.74,0.81-1.16,0.88s-0.97-0.57-1.4-0.49c-0.43,0.07-0.76,0.68-1.18,0.75
			c-0.43,0.07-0.87,0.01-1.3,0.08c-0.43,0.07-0.88,0-1.3,0.07c-0.43,0.07-0.87,0.04-1.3,0.11c-0.43,0.07-0.92-0.26-1.35-0.18
			s-0.71,0.96-1.13,1.04c-0.43,0.07-0.92-0.28-1.35-0.21s-0.91-0.18-1.33-0.11c-0.43,0.07-0.72,0.9-1.15,0.97s-0.84,0.21-1.27,0.28
			c-0.43,0.07-0.97-0.53-1.39-0.46c-0.43,0.07-0.78,0.56-1.2,0.64s-0.85,0.15-1.28,0.22s-0.8,0.43-1.23,0.5
			c-0.43,0.07-0.99-0.65-1.41-0.58s-0.86,0.07-1.29,0.15c-0.43,0.07-0.78,0.56-1.2,0.63s-0.88-0.01-1.3,0.07
			c-0.43,0.07-0.81,0.37-1.24,0.45c-0.43,0.07-0.92-0.28-1.35-0.21c-0.43,0.07-0.82,0.31-1.25,0.39c-0.43,0.07-0.83,0.26-1.26,0.33
			s-0.74,0.77-1.17,0.84c-0.43,0.07-1-0.72-1.43-0.64c-0.43,0.07-0.74,0.81-1.16,0.88c-0.43,0.07-0.97-0.53-1.39-0.45
			c-0.43,0.07-0.78,0.56-1.2,0.63s-0.83,0.25-1.26,0.33s-0.8,0.46-1.22,0.53c-0.43,0.07-0.9-0.16-1.33-0.08
			c-0.43,0.07-0.92-0.18-1.35-0.11c-0.43,0.07-0.83,0.33-1.26,0.4s-0.9-0.09-1.33-0.02c-0.43,0.07-0.89-0.02-1.32,0.05
			c-0.43,0.07-0.76,0.72-1.19,0.8c-0.43,0.07-0.84,0.27-1.27,0.35c-0.43,0.07-0.9-0.05-1.33,0.02c-0.43,0.07-0.86,0.13-1.3,0.21
			c-0.43,0.07-0.89-0.03-1.32,0.05s-0.77,0.69-1.2,0.76s-1.02-0.79-1.45-0.71c-0.43,0.07-0.72,0.98-1.15,1.05s-0.83,0.32-1.26,0.4
			c-0.43,0.07-0.99-0.59-1.42-0.51s-0.73,0.89-1.16,0.96s-1.01-0.73-1.45-0.66c-0.43,0.07-0.76,0.75-1.19,0.82s-0.81,0.44-1.24,0.51
			c-0.43,0.07-1.02-0.75-1.45-0.68c-0.43,0.07-0.77,0.67-1.2,0.74c-0.43,0.07-0.83,0.32-1.26,0.39c-0.43,0.07-0.83,0.3-1.27,0.38
			c-0.43,0.07-0.92-0.18-1.35-0.1c-0.43,0.07-0.86,0.17-1.29,0.25c-0.43,0.07-0.86,0.15-1.29,0.23c-0.43,0.07-0.83,0.32-1.26,0.4
			s-0.98-0.56-1.42-0.48s-0.86,0.16-1.29,0.23c-0.43,0.07-0.86,0.15-1.29,0.23s-0.86,0.18-1.29,0.25s-0.77,0.68-1.2,0.76
			c-0.43,0.07-0.9-0.05-1.33,0.02c-0.43,0.07-0.93-0.25-1.36-0.17c-0.43,0.07-0.82,0.41-1.25,0.48c-0.44,0.08-0.83,0.45-1.26,0.53
			c-0.44,0.08-0.92-0.11-1.36-0.03s-0.82,0.48-1.26,0.56c-0.44,0.08-0.97-0.38-1.41-0.3c-0.44,0.08-0.86,0.26-1.3,0.33
			c-0.44,0.08-0.81,0.57-1.24,0.65c-0.44,0.08-0.93-0.17-1.37-0.09c-0.44,0.08-0.86,0.23-1.3,0.31c-0.44,0.08-0.95-0.29-1.39-0.21
			c-0.44,0.08-0.78,0.72-1.22,0.8c-0.44,0.08-0.88,0.15-1.32,0.22c-0.46,0.08-0.89,0.42-1.36,0.49c-0.46,0.07-0.94,0.06-1.41,0.14
			c-0.47,0.07-0.89,0.37-1.36,0.44c-0.47,0.08-1.05-0.75-1.51-0.66c-0.03-0.05-0.34,0.07-0.97-0.4c-0.29-0.22-0.55-0.59-0.95-0.89
			c-0.32-0.24-0.79-0.33-1.16-0.61c-0.33-0.24-0.55-0.67-0.92-0.94c-0.33-0.25-1.06,0.01-1.42-0.26c-0.34-0.25-0.71-0.47-1.08-0.73
			c-0.34-0.25-0.32-1.01-0.68-1.27c-0.34-0.25-0.59-0.64-0.95-0.9c-0.34-0.25-0.84-0.31-1.19-0.57c-0.35-0.25-0.51-0.76-0.87-1.02
			c-0.35-0.25-0.98-0.12-1.33-0.38c-0.35-0.25-0.37-0.95-0.72-1.2c-0.35-0.25-0.89-0.24-1.24-0.5c-0.35-0.25-1.06-0.02-1.41-0.28
			c-0.35-0.26-0.55-0.73-0.9-0.98c-0.35-0.26-0.43-0.89-0.78-1.14c-0.35-0.26-1.15,0.1-1.5-0.16c-0.35-0.26-0.56-0.71-0.91-0.96
			c-0.35-0.26-0.48-0.81-0.83-1.07c-0.35-0.26-0.94-0.2-1.28-0.45c-0.36-0.26-0.76-0.44-1.11-0.7c-0.36-0.26-0.51-0.79-0.85-1.04
			c-0.36-0.26-0.63-0.62-0.97-0.87c-0.36-0.26-0.87-0.31-1.2-0.56C16.65,22.92,16.32,22.64,15.99,22.39z M56.33,56.72
			c-0.09,0.03-0.28-0.27-0.38-0.25c-0.05,0.01-0.41,0.57-0.92,0.87c-0.36,0.22-1.17,0.15-1.31,0.48c-0.02,0.04,0.6,0.71,0.44,1.47
			c-0.07,0.35-0.37,0.73-0.47,1.21c-0.08,0.38,0.17,0.87,0.07,1.32c-0.08,0.39-1.16,0.61-1.25,1.05c-0.08,0.4,0.46,0.95,0.37,1.39
			c-0.08,0.4-0.59,0.74-0.68,1.17c-0.08,0.41,0.2,0.9,0.11,1.33c-0.09,0.41-0.02,0.86-0.11,1.29c-0.09,0.41-0.15,0.84-0.23,1.26
			c-0.09,0.41-0.71,0.72-0.8,1.14c-0.09,0.41-0.37,0.79-0.46,1.21c-0.09,0.42,0.01,0.87-0.07,1.29c-0.09,0.42-0.28,0.81-0.37,1.23
			c-0.09,0.42-0.04,0.87-0.13,1.29c-0.09,0.42,0.36,0.96,0.26,1.38c-0.09,0.42-0.39,0.8-0.48,1.22c-0.09,0.42,0.1,0.91,0.01,1.32
			c-0.09,0.42-0.51,0.77-0.6,1.19c-0.09,0.42-0.4,0.79-0.49,1.2c-0.1,0.42-0.54,0.76-0.63,1.17c-0.1,0.42-0.1,0.86-0.19,1.27
			c-0.1,0.43,0.4,0.98,0.3,1.39c-0.02,0.08-0.06-0.46-0.17-1.34c-0.05-0.36-0.62-0.73-0.68-1.23c-0.05-0.39-0.08-0.83-0.13-1.3
			c-0.05-0.41,0.26-0.88,0.21-1.34c-0.05-0.41,0.12-0.87,0.07-1.32c-0.05-0.42,0.11-0.87,0.06-1.32c-0.05-0.42-1.08-0.75-1.13-1.19
			c-0.05-0.42,0.2-0.89,0.15-1.33c-0.05-0.43,0.09-0.88,0.04-1.32c-0.05-0.43-0.5-0.82-0.54-1.26c-0.05-0.43,0.18-0.89,0.13-1.33
			c-0.05-0.43-0.13-0.86-0.17-1.3c-0.05-0.43,0.07-0.88,0.03-1.31c-0.05-0.43-0.45-0.83-0.49-1.26c-0.05-0.43-0.02-0.87-0.06-1.31
			c-0.05-0.43-0.14-0.86-0.18-1.3c-0.05-0.44-0.03-0.88-0.08-1.31c-0.05-0.44,0.22-0.9,0.18-1.34c-0.05-0.44-0.47-0.83-0.52-1.26
			c-0.05-0.44,0.12-0.89,0.07-1.33c-0.05-0.44-0.12-0.87-0.16-1.3c-0.05-0.44-0.27-0.85-0.31-1.29c-0.05-0.44-0.19-0.86-0.23-1.29
			c-0.05-0.44,0.55-0.94,0.51-1.37c-0.05-0.44-0.26-0.86-0.31-1.29c-0.05-0.44-0.43-0.84-0.47-1.27c-0.05-0.45,0.46-0.94,0.42-1.36
			c-0.05-0.45-0.84-0.81-0.88-1.23c-0.05-0.45,0.51-0.95,0.46-1.36c-0.05-0.46,0.27-0.93,0.23-1.34c-0.05-0.47-0.53-0.86-0.57-1.26
			c-0.05-0.5-0.24-0.92-0.27-1.29c-0.07-0.67-0.09-1.26-0.11-1.43c0.44-0.07,0.95,0.03,1.38-0.05c0.43-0.07,0.94,0.25,1.37,0.18
			c0.44-0.07,0.84-0.34,1.27-0.42c0.44-0.07,0.76-0.81,1.19-0.89c0.43-0.07,0.97,0.43,1.4,0.35c0.43-0.07,0.93,0.21,1.36,0.13
			c0.43-0.08,0.71-1.04,1.14-1.12c0.43-0.08,0.92,0.18,1.35,0.1c0.43-0.08,0.87-0.13,1.3-0.2c0.43-0.08,0.89,0,1.32-0.08
			c0.43-0.08,0.91,0.1,1.34,0.03c0.43-0.08,0.73-0.89,1.16-0.97c0.43-0.08,0.91,0.1,1.34,0.03c0.43-0.08,0.91,0.13,1.34,0.06
			c0.43-0.08,0.76-0.7,1.2-0.78c0.43-0.08,0.95,0.39,1.38,0.31c0.43-0.08,0.88-0.03,1.31-0.1c0.43-0.08,0.88-0.07,1.31-0.14
			c0.43-0.07,0.87-0.12,1.3-0.2c0.43-0.08,0.75-0.86,1.18-0.94c0.43-0.07,0.83-0.31,1.25-0.38c0.43-0.07,0.93,0.32,1.36,0.25
			s0.83-0.3,1.25-0.37c0.43-0.07,0.79-0.5,1.22-0.58c0.43-0.07,0.96,0.44,1.38,0.37c0.43-0.07,0.9,0.1,1.32,0.03
			s0.88,0.01,1.31-0.06c0.43-0.07,0.76-0.7,1.19-0.77c0.43-0.07,0.87-0.02,1.3-0.1c0.43-0.07,0.78-0.57,1.21-0.64
			c0.43-0.07,0.87-0.08,1.29-0.15c0.43-0.07,0.95,0.44,1.38,0.36c0.43-0.07,0.78-0.56,1.21-0.63c0.43-0.07,0.91,0.16,1.33,0.09
			c0.43-0.07,0.9,0.13,1.33,0.06s0.74-0.82,1.16-0.9s0.92,0.23,1.35,0.16c0.43-0.07,0.89,0.06,1.32-0.02
			c0.43-0.07,0.85-0.16,1.28-0.23s0.78-0.58,1.21-0.65c0.43-0.07,0.86-0.12,1.28-0.19c0.43-0.07,0.85-0.19,1.27-0.26
			s0.89,0.06,1.32-0.02c0.43-0.07,0.87-0.02,1.3-0.1s0.88,0,1.3-0.08c0.43-0.07,0.7-1.03,1.13-1.1s0.93,0.31,1.36,0.23
			c0.43-0.07,0.83-0.3,1.25-0.37c0.43-0.07,0.89,0.04,1.31-0.03c0.43-0.07,0.83-0.29,1.26-0.37c0.43-0.07,0.87-0.07,1.29-0.14
			c0.43-0.07,0.86-0.09,1.29-0.16c0.43-0.07,0.93,0.3,1.36,0.23c0.43-0.07,0.84-0.22,1.27-0.3c0.43-0.07,0.76-0.68,1.19-0.75
			s0.86-0.1,1.29-0.18c0.43-0.07,0.92,0.26,1.35,0.19c0.43-0.07,0.84-0.2,1.27-0.28c0.43-0.07,0.83-0.26,1.26-0.33
			c0.43-0.07,0.77-0.63,1.2-0.7s0.92,0.26,1.35,0.18s0.88,0.03,1.31-0.05s0.73-0.85,1.16-0.92c0.43-0.07,0.97,0.5,1.39,0.43
			s0.84-0.22,1.27-0.29c0.43-0.07,0.93,0.23,1.36,0.16c0.43-0.07,0.79-0.58,1.22-0.65c0.43-0.07,0.79-0.58,1.22-0.66
			c0.43-0.07,0.96,0.39,1.39,0.32c0.43-0.07,0.84-0.28,1.27-0.36c0.43-0.07,0.78-0.63,1.21-0.7c0.43-0.07,0.98,0.53,1.41,0.45
			c0.43-0.07,0.77-0.71,1.2-0.78c0.43-0.07,0.84-0.29,1.27-0.37c0.43-0.07,0.97,0.49,1.41,0.41c0.43-0.07,0.84-0.3,1.27-0.38
			c0.43-0.07,0.93,0.25,1.36,0.17c0.43-0.07,0.86-0.14,1.3-0.22c0.43-0.07,0.86-0.18,1.29-0.26c0.43-0.07,0.87-0.13,1.3-0.2
			s0.86-0.16,1.29-0.24c0.43-0.07,0.8-0.5,1.23-0.58s0.87-0.11,1.3-0.18s0.89,0.02,1.33-0.05c0.43-0.07,0.83-0.37,1.26-0.45
			s0.8-0.51,1.23-0.59s0.87-0.11,1.3-0.18s0.91,0.1,1.34,0.02c0.43-0.07,0.92,0.17,1.35,0.1s0.84-0.29,1.27-0.37
			s0.88-0.05,1.31-0.13s0.78-0.65,1.21-0.73s0.96,0.39,1.39,0.32c0.43-0.07,0.8-0.51,1.23-0.58c0.43-0.07,0.97,0.44,1.4,0.37
			s0.8-0.5,1.24-0.57s0.86-0.16,1.29-0.23c0.43-0.07,0.93,0.21,1.36,0.13c0.43-0.07,0.73-0.9,1.17-0.98
			c0.43-0.07,0.97,0.47,1.4,0.39c0.43-0.07,0.78-0.64,1.21-0.71c0.43-0.07,0.82-0.4,1.25-0.47s0.89-0.03,1.32-0.1
			c0.43-0.07,0.92,0.17,1.35,0.1c0.43-0.07,0.83-0.36,1.26-0.43s0.89-0.02,1.32-0.1c0.43-0.07,0.85-0.25,1.28-0.32
			s0.83-0.36,1.26-0.44c0.43-0.07,0.98,0.52,1.41,0.44c0.43-0.07,0.73-0.93,1.16-1.01c0.41-0.07,0.97,0.7,1.4,0.62
			c0.41-0.07,0.84-0.04,1.27-0.11c0.41-0.07,0.77-0.5,1.19-0.57c0.41-0.07,0.88,0.15,1.3,0.08c0.41-0.07,0.7-0.94,1.12-1.01
			c0.41-0.07,0.96,0.63,1.38,0.56c0.42-0.07,0.79-0.41,1.21-0.48c0.42-0.07,0.85-0.06,1.27-0.13c0.42-0.07,0.78-0.51,1.2-0.58
			c0.42-0.07,0.94,0.48,1.36,0.41c0.42-0.07,0.69-1.08,1.1-1.15c0.42-0.07,0.9,0.19,1.32,0.12c0.42-0.07,0.84-0.16,1.25-0.23
			c0.42-0.07,0.89,0.15,1.3,0.08c0.42-0.07,0.75-0.68,1.16-0.75c0.43-0.07,0.94,0.41,1.35,0.34c0.43-0.07,0.88,0.22,1.29,0.15
			c-0.13,0.04-0.58-0.17-1.28,0.03c-0.36,0.1-0.84,0-1.33,0.13c-0.39,0.11-0.84,0.13-1.3,0.26c-0.4,0.11-0.68,0.77-1.13,0.9
			c-0.4,0.11-0.84,0.19-1.28,0.31c-0.41,0.11-0.98-0.32-1.42-0.2c-0.41,0.11-0.66,0.87-1.1,0.99c-0.41,0.11-1.03-0.47-1.46-0.35
			c-0.42,0.11-0.7,0.75-1.13,0.87c-0.42,0.11-0.88,0.1-1.31,0.21c-0.42,0.11-0.88,0.08-1.31,0.2c-0.42,0.11-0.87,0.12-1.3,0.24
			c-0.42,0.11-0.95-0.16-1.38-0.05c-0.42,0.11-0.63,1.03-1.05,1.15c-0.42,0.12-0.96-0.19-1.39-0.07c-0.42,0.12-0.94-0.09-1.36,0.03
			c-0.42,0.12-0.65,0.96-1.07,1.08c-0.42,0.12-0.83,0.29-1.26,0.41c-0.42,0.12-1.03-0.43-1.46-0.31c-0.43,0.12-0.74,0.64-1.17,0.76
			c-0.43,0.12-0.85,0.23-1.28,0.35c-0.43,0.12-0.78,0.51-1.21,0.62c-0.43,0.12-1.07-0.55-1.5-0.43c-0.43,0.12-0.88,0.16-1.3,0.28
			c-0.43,0.12-0.75,0.64-1.17,0.76c-0.43,0.12-0.9,0.09-1.32,0.2c-0.43,0.12-0.8,0.46-1.22,0.57c-0.43,0.12-0.97-0.18-1.39-0.07
			c-0.43,0.12-0.81,0.4-1.23,0.51c-0.43,0.12-0.83,0.34-1.25,0.46c-0.43,0.12-0.69,0.84-1.11,0.96c-0.43,0.12-1.09-0.61-1.51-0.49
			c-0.44,0.12-0.68,0.89-1.1,1c-0.44,0.12-1.05-0.42-1.45-0.3c-0.44,0.12-0.75,0.65-1.15,0.76c-0.42,0.12-0.8,0.34-1.22,0.45
			c-0.42,0.12-0.75,0.54-1.16,0.66c-0.42,0.12-0.92-0.06-1.33,0.05c-0.42,0.12-0.92-0.09-1.34,0.03s-0.78,0.41-1.2,0.53
			s-0.9,0-1.31,0.12c-0.42,0.12-0.88,0.06-1.3,0.18c-0.42,0.12-0.67,0.8-1.09,0.91s-0.8,0.36-1.21,0.47
			c-0.42,0.12-0.89,0.04-1.3,0.16c-0.42,0.12-0.84,0.22-1.25,0.34s-0.88,0.06-1.3,0.18s-0.68,0.76-1.1,0.88
			c-0.42,0.12-1.09-0.68-1.51-0.56s-0.61,1.04-1.02,1.16s-0.78,0.4-1.2,0.52c-0.42,0.12-1.03-0.48-1.45-0.37s-0.63,0.96-1.05,1.07
			s-1.08-0.63-1.49-0.51c-0.42,0.12-0.67,0.82-1.08,0.93s-0.75,0.51-1.17,0.63c-0.42,0.12-1.08-0.65-1.5-0.53
			c-0.42,0.12-0.69,0.74-1.11,0.86s-0.79,0.4-1.2,0.51s-0.79,0.39-1.21,0.5s-0.92-0.09-1.34,0.03c-0.42,0.12-0.83,0.26-1.24,0.37
			c-0.42,0.12-0.83,0.24-1.25,0.35c-0.42,0.12-0.78,0.41-1.2,0.52c-0.42,0.12-1.03-0.46-1.44-0.34c-0.42,0.12-0.83,0.24-1.25,0.36
			c-0.42,0.12-0.83,0.24-1.25,0.35c-0.42,0.12-0.83,0.26-1.24,0.38c-0.42,0.12-0.69,0.76-1.1,0.88c-0.42,0.12-0.89,0.04-1.3,0.15
			c-0.42,0.12-0.94-0.15-1.36-0.04c-0.42,0.12-0.76,0.49-1.18,0.61c-0.42,0.12-0.75,0.53-1.17,0.65c-0.42,0.12-0.91-0.02-1.33,0.1
			c-0.42,0.12-0.74,0.56-1.16,0.68c-0.42,0.12-0.98-0.28-1.4-0.16s-0.81,0.34-1.22,0.46c-0.42,0.12-0.72,0.65-1.14,0.76
			c-0.42,0.12-0.92-0.08-1.34,0.04c-0.42,0.12-0.81,0.31-1.23,0.43c-0.42,0.12-0.96-0.19-1.37-0.07c-0.42,0.12-0.68,0.79-1.1,0.91
			c-0.42,0.12-0.84,0.23-1.25,0.35c-0.42,0.12-0.76,0.49-1.18,0.61c-0.42,0.12-0.86,0.16-1.28,0.28c-0.42,0.12-0.78,0.45-1.19,0.57
			c-0.42,0.12-1.08-0.65-1.5-0.53c-0.42,0.12-0.73,0.62-1.14,0.74c-0.42,0.12-0.87,0.1-1.29,0.22c-0.42,0.12-0.78,0.43-1.2,0.55
			c-0.42,0.12-0.89,0.03-1.31,0.15c-0.42,0.12-0.66,0.84-1.08,0.96c-0.42,0.12-0.82,0.28-1.24,0.4c-0.42,0.12-1.01-0.37-1.42-0.25
			c-0.42,0.12-0.88,0.07-1.3,0.19c-0.42,0.12-0.77,0.47-1.19,0.59s-0.92-0.06-1.34,0.06c-0.42,0.12-0.71,0.69-1.12,0.81
			s-0.98-0.29-1.4-0.17c-0.42,0.12-0.75,0.55-1.16,0.67c-0.42,0.12-0.67,0.82-1.09,0.94s-0.91-0.02-1.33,0.1s-0.96-0.21-1.38-0.1
			c-0.42,0.12-0.63,0.96-1.05,1.08c-0.43,0.12-0.93,0.01-1.36,0.14c-0.43,0.12-0.96-0.11-1.4,0.01c-0.43,0.12-0.76,0.62-1.19,0.74
			c-0.43,0.12-0.84,0.33-1.27,0.45c-0.43,0.12-0.96-0.08-1.39,0.04c-0.43,0.12-0.9,0.12-1.33,0.24c-0.43,0.12-0.79,0.5-1.23,0.62
			c-0.43,0.12-0.83,0.37-1.26,0.49c-0.43,0.12-0.98-0.18-1.41-0.06c-0.43,0.12-0.95-0.06-1.38,0.06c-0.43,0.12-0.71,0.78-1.14,0.9
			c-0.43,0.12-1.02-0.3-1.45-0.18c-0.43,0.12-0.85,0.29-1.28,0.41c-0.43,0.12-0.83,0.38-1.26,0.5
			C57.08,56.07,56.76,56.6,56.33,56.72z M186.61,42.93c-0.29,0.31-0.84,0.4-1.14,0.73c-0.29,0.31-0.28,0.92-0.59,1.25
			c-0.29,0.31-1.04,0.21-1.34,0.54c-0.29,0.31-0.05,1.15-0.35,1.47c-0.3,0.31-0.75,0.48-1.06,0.81c-0.3,0.31-0.35,0.87-0.66,1.19
			c-0.3,0.31-1.33-0.06-1.64,0.26c-0.3,0.31-0.13,1.07-0.44,1.4c-0.3,0.31-0.91,0.33-1.21,0.65c-0.3,0.31-0.32,0.89-0.63,1.21
			c-0.3,0.31-0.49,0.73-0.8,1.05c-0.3,0.31-0.58,0.65-0.89,0.96c-0.3,0.31-1,0.25-1.3,0.56c-0.3,0.31-0.75,0.49-1.05,0.8
			c-0.3,0.31-0.46,0.76-0.77,1.08c-0.3,0.31-0.68,0.56-0.98,0.87c-0.3,0.31-0.5,0.73-0.81,1.04c-0.3,0.31-0.21,1.01-0.52,1.33
			c-0.3,0.31-0.76,0.48-1.06,0.8c-0.3,0.31-0.4,0.83-0.7,1.15c-0.3,0.31-0.84,0.4-1.15,0.71c-0.3,0.31-0.76,0.48-1.07,0.79
			c-0.31,0.31-0.87,0.38-1.17,0.69c-0.31,0.31-0.54,0.7-0.85,1.01c-0.31,0.31-0.17,1.06-0.48,1.37c-0.31,0.31-0.94,0.31-1.24,0.63
			c-0.31,0.31-0.24,1-0.54,1.31c-0.31,0.31-0.63,0.62-0.94,0.93c-0.31,0.31-0.87,0.38-1.18,0.69c-0.31,0.31-0.77,0.48-1.08,0.79
			c-0.31,0.32-0.76,0.49-1.07,0.8c-0.31,0.32,0.09,1.33-0.22,1.64c-0.31,0.32-0.83,0.42-1.14,0.74c-0.31,0.32-0.75,0.5-1.06,0.82
			c-0.31,0.32-0.33,0.92-0.64,1.23c-0.31,0.32-0.81,0.44-1.12,0.75c-0.31,0.32-0.6,0.65-0.9,0.97c-0.31,0.32-0.74,0.51-1.05,0.83
			c-0.31,0.32-0.36,0.88-0.67,1.19c-0.31,0.32-0.67,0.58-0.98,0.89c-0.31,0.32-0.59,0.66-0.9,0.97c-0.31,0.32-0.66,0.59-0.97,0.9
			c-0.31,0.32-0.85,0.41-1.15,0.72c-0.31,0.32-0.35,0.9-0.65,1.21c-0.31,0.32-0.77,0.48-1.07,0.79c-0.31,0.32-0.6,0.65-0.91,0.96
			c-0.31,0.32-0.49,0.75-0.8,1.06c-0.31,0.32-0.55,0.7-0.85,1c-0.31,0.32-1.08,0.17-1.38,0.48c-0.31,0.32-0.5,0.75-0.8,1.05
			c-0.31,0.32-0.38,0.87-0.68,1.17c-0.32,0.32-1.02,0.24-1.32,0.55c-0.32,0.32-0.09,1.16-0.39,1.46c-0.32,0.32-1.05,0.21-1.35,0.51
			c-0.32,0.33-0.89,0.38-1.18,0.68c-0.32,0.33-0.32,0.95-0.6,1.24c-0.33,0.34-0.54,0.75-0.82,1.03c-0.35,0.35-0.62,0.7-0.88,0.96
			c-0.42,0.44-0.83,0.61-1.01,0.79c-0.38-0.22-0.54-0.78-0.91-0.99c-0.38-0.22-0.86-0.26-1.23-0.47c-0.38-0.21-1.09,0.17-1.46-0.04
			c-0.38-0.21-0.48-0.93-0.85-1.14c-0.38-0.21-0.59-0.74-0.97-0.94c-0.38-0.21-1.2,0.38-1.58,0.18c-0.38-0.21-0.6-0.71-0.98-0.91
			c-0.38-0.2-0.75-0.43-1.14-0.63c-0.38-0.2-0.69-0.54-1.07-0.74c-0.38-0.2-0.64-0.63-1.02-0.83c-0.38-0.2-1.11,0.26-1.49,0.06
			c-0.38-0.2-0.64-0.63-1.02-0.83c-0.38-0.2-0.62-0.66-1-0.86c-0.38-0.2-1.02,0.09-1.4-0.12c-0.38-0.2-0.5-0.89-0.88-1.1
			c-0.38-0.2-0.7-0.52-1.08-0.73c-0.38-0.21-0.71-0.49-1.09-0.7c-0.37-0.21-0.73-0.44-1.11-0.65c-0.37-0.21-1.11,0.21-1.49-0.01
			c-0.37-0.21-0.83-0.29-1.21-0.5c-0.38-0.22-0.52-0.84-0.89-1.06c-0.38-0.22-0.83-0.3-1.21-0.52c-0.38-0.22-0.93-0.12-1.31-0.33
			c-0.38-0.22-0.46-0.95-0.83-1.17c-0.38-0.22-0.63-0.65-1-0.87c-0.38-0.22-0.67-0.58-1.05-0.79c-0.38-0.22-1.03,0.05-1.41-0.17
			c-0.38-0.22-0.69-0.54-1.07-0.76c-0.38-0.22-0.97-0.06-1.34-0.28c-0.38-0.22-0.72-0.5-1.09-0.71c-0.38-0.22-0.46-0.95-0.84-1.16
			c-0.38-0.22-0.96-0.07-1.34-0.29c-0.38-0.22-0.6-0.7-0.98-0.92c-0.38-0.22-0.61-0.68-0.99-0.89c-0.38-0.22-1.09,0.16-1.47-0.06
			c-0.38-0.22-0.56-0.77-0.94-0.98c-0.38-0.22-0.65-0.61-1.03-0.83c-0.38-0.22-0.76-0.42-1.14-0.64c-0.38-0.22-0.97-0.06-1.35-0.27
			c-0.38-0.22-0.74-0.46-1.12-0.67c-0.38-0.22-0.78-0.4-1.15-0.61c-0.38-0.22-0.65-0.61-1.03-0.83c-0.38-0.22-0.69-0.54-1.07-0.76
			c-0.38-0.22-0.68-0.56-1.06-0.78c-0.38-0.22-1.2,0.34-1.57,0.13c-0.38-0.22-0.52-0.83-0.9-1.05c-0.38-0.22-0.83-0.3-1.21-0.52
			c-0.38-0.22-0.66-0.6-1.04-0.81s-0.83-0.31-1.2-0.52s-0.71-0.5-1.09-0.72c-0.38-0.22-0.73-0.48-1.1-0.7
			c-0.38-0.22-0.53-0.83-0.9-1.04c-0.38-0.22-0.79-0.37-1.17-0.58c-0.38-0.22-1.02,0.03-1.4-0.18c-0.38-0.22-0.73-0.47-1.11-0.69
			c-0.38-0.22-0.55-0.79-0.92-1.01c-0.38-0.22-0.78-0.38-1.16-0.6c-0.39-0.22-0.79-0.32-1.11-0.5c-0.39-0.22-0.97,0-1.29-0.18
			c-0.37-0.21-0.5-0.77-0.84-0.96c-0.34-0.19-0.58-0.54-0.96-0.75c-0.31-0.18-1.01,0.24-1.4,0.01c-0.31-0.18-0.27-0.89-0.66-1.12
			c0.2-0.06,0.5,0.05,1.13-0.14c0.35-0.1,0.88,0.14,1.36,0c0.38-0.11,0.67-0.65,1.13-0.79c0.39-0.12,0.68-0.66,1.13-0.79
			c0.4-0.12,0.97,0.29,1.41,0.16c0.4-0.12,0.78-0.37,1.22-0.5c0.4-0.12,0.68-0.71,1.11-0.84c0.41-0.12,1.02,0.41,1.45,0.29
			c0.41-0.12,0.66-0.79,1.09-0.91c0.41-0.12,0.78-0.39,1.21-0.51c0.41-0.12,1.01,0.37,1.44,0.25c0.41-0.12,0.78-0.39,1.21-0.52
			c0.41-0.12,0.94,0.14,1.37,0.01c0.41-0.12,0.83-0.24,1.25-0.37c0.41-0.12,0.82-0.28,1.24-0.4c0.41-0.12,0.83-0.22,1.26-0.35
			c0.41-0.12,0.82-0.26,1.25-0.39c0.41-0.12,0.73-0.59,1.15-0.72c0.41-0.12,0.84-0.21,1.26-0.33c0.41-0.12,0.88-0.08,1.3-0.21
			c0.41-0.12,0.77-0.46,1.19-0.59c0.41-0.12,0.73-0.6,1.15-0.72c0.41-0.12,0.84-0.21,1.26-0.33c0.41-0.12,0.9-0.01,1.32-0.13
			c0.41-0.12,0.92,0.07,1.34-0.06c0.41-0.12,0.79-0.39,1.21-0.51c0.41-0.12,0.86-0.15,1.28-0.28c0.41-0.12,0.69-0.74,1.11-0.86
			c0.42-0.12,0.99,0.28,1.41,0.15c0.42-0.12,0.73-0.6,1.15-0.72c0.42-0.12,1,0.33,1.42,0.2c0.42-0.12,0.73-0.59,1.15-0.71
			c0.42-0.12,0.83-0.25,1.25-0.38c0.42-0.12,0.94,0.1,1.36-0.03c0.42-0.12,0.61-0.98,1.03-1.11c0.41-0.12,1.01,0.35,1.43,0.23
			c0.41-0.12,0.69-0.72,1.11-0.84c0.42-0.12,0.76-0.49,1.18-0.62c0.42-0.12,0.87-0.13,1.29-0.25c0.42-0.12,0.93,0.07,1.34-0.06
			c0.42-0.12,0.77-0.45,1.19-0.57c0.42-0.12,0.87-0.12,1.29-0.25c0.42-0.12,0.81-0.34,1.22-0.47c0.42-0.12,0.77-0.45,1.19-0.58
			c0.42-0.12,1.03,0.4,1.45,0.27c0.42-0.12,0.61-1.01,1.03-1.14c0.42-0.12,1.08,0.57,1.5,0.44c0.42-0.12,0.86-0.15,1.28-0.28
			c0.42-0.12,0.73-0.6,1.15-0.72c0.42-0.12,0.92,0.03,1.34-0.09c0.42-0.12,0.6-1.02,1.02-1.15c0.42-0.12,1.06,0.5,1.48,0.37
			c0.42-0.12,0.76-0.52,1.18-0.64c0.42-0.12,0.86-0.17,1.28-0.3c0.42-0.12,0.73-0.61,1.15-0.74c0.42-0.12,1.02,0.35,1.44,0.22
			c0.42-0.12,0.57-1.17,0.99-1.29c0.42-0.12,0.94,0.07,1.35-0.05c0.42-0.13,0.83-0.27,1.25-0.39c0.42-0.13,0.93,0.04,1.34-0.09
			c0.42-0.13,0.69-0.77,1.11-0.89c0.42-0.13,1,0.29,1.42,0.16c0.42-0.12,0.94,0.1,1.36-0.03c0.42-0.12,0.63-0.94,1.05-1.06
			c0.42-0.12,0.9-0.04,1.32-0.16c0.42-0.12,0.87-0.16,1.28-0.28c0.42-0.12,0.68-0.8,1.09-0.92c0.42-0.12,0.85-0.21,1.27-0.33
			c0.42-0.12,1,0.29,1.42,0.17c0.42-0.12,0.65-0.89,1.07-1.02c0.42-0.13,1.05,0.45,1.46,0.32c0.42-0.13,0.69-0.77,1.1-0.89
			c0.42-0.13,0.88-0.12,1.3-0.24c0.42-0.13,0.88-0.11,1.3-0.23c0.42-0.13,0.87-0.14,1.29-0.27c0.42-0.13,0.96,0.14,1.37,0.02
			c0.42-0.13,0.6-1.04,1.02-1.17c0.42-0.13,0.96,0.17,1.38,0.04c0.42-0.13,0.93,0.07,1.35-0.06c0.42-0.13,0.62-0.98,1.04-1.1
			c0.42-0.13,0.82-0.31,1.24-0.44c0.42-0.13,1.03,0.41,1.45,0.28c0.42-0.12,0.72-0.65,1.14-0.78c0.42-0.12,0.84-0.25,1.26-0.37
			c0.42-0.12,0.76-0.52,1.17-0.64c0.42-0.12,1.07,0.53,1.48,0.4c0.42-0.12,0.86-0.18,1.28-0.3c0.42-0.12,0.72-0.65,1.14-0.77
			c0.42-0.13,0.88-0.1,1.3-0.22c0.42-0.13,0.78-0.47,1.19-0.59c0.42-0.13,0.96,0.17,1.38,0.04c0.42-0.13,0.79-0.41,1.21-0.53
			c0.42-0.13,0.81-0.36,1.22-0.48c0.43-0.13,0.67-0.85,1.08-0.97c0.43-0.13,1.09,0.59,1.51,0.47c0.42-0.13,0.65-0.89,1.07-1.02
			c0.42-0.13,1.04,0.41,1.45,0.29c0.43-0.13,0.72-0.65,1.13-0.77c0.43-0.13,0.82-0.35,1.23-0.47c0.43-0.13,0.76-0.55,1.17-0.67
			c0.43-0.13,0.94,0.05,1.34-0.07c0.43-0.13,0.94,0.07,1.35-0.05c0.43-0.13,0.8-0.42,1.2-0.54c0.43-0.13,0.92-0.02,1.32-0.13
			c0.44-0.13,0.91-0.08,1.31-0.2c0.45-0.13,0.7-0.81,1.09-0.92c0.46-0.13,0.84-0.37,1.22-0.48c0.48-0.14,0.96-0.06,1.3-0.16
			c0.42-0.12,0.84-0.22,1.26-0.34c0.42-0.12,0.89-0.06,1.3-0.18c0.42-0.12,0.69-0.76,1.11-0.88c0.42-0.12,1.09,0.68,1.51,0.56
			c0.42-0.12,0.61-1.04,1.03-1.16c0.42-0.12,0.79-0.4,1.21-0.52c0.42-0.12,1.04,0.48,1.46,0.37s0.63-0.96,1.05-1.07
			c0.42-0.12,1.08,0.63,1.5,0.51c0.42-0.12,0.67-0.82,1.09-0.94c0.42-0.12,0.76-0.52,1.18-0.63s1.09,0.65,1.5,0.53
			c0.42-0.12,0.82-0.69,1.23-0.81c-0.3,0.32-0.49,0.89-0.78,1.22s-0.48,0.76-0.78,1.08s-0.84,0.42-1.14,0.75s-0.58,0.66-0.88,0.99
			c-0.3,0.32-0.59,0.65-0.89,0.98c-0.3,0.32-0.47,0.77-0.76,1.09c-0.3,0.32-1.12,0.16-1.42,0.49s-0.59,0.65-0.89,0.98
			s-0.59,0.65-0.89,0.98c-0.3,0.32-0.58,0.67-0.87,0.99c-0.3,0.32-0.2,1.02-0.49,1.34s-0.75,0.51-1.05,0.83
			c-0.3,0.32-0.89,0.38-1.19,0.7c-0.3,0.32-0.4,0.83-0.7,1.15c-0.3,0.32-0.37,0.86-0.67,1.18s-0.79,0.47-1.09,0.79
			s-0.35,0.88-0.65,1.2c-0.3,0.32-0.99,0.28-1.29,0.61c-0.3,0.32-0.52,0.72-0.82,1.05s-0.28,0.94-0.58,1.26
			c-0.3,0.32-0.84,0.43-1.13,0.75c-0.3,0.32-0.54,0.7-0.83,1.03c-0.3,0.32-0.92,0.35-1.22,0.67c-0.3,0.32-0.17,1.04-0.47,1.36
			c-0.3,0.32-0.6,0.65-0.9,0.97c-0.3,0.32-0.4,0.83-0.7,1.15c-0.3,0.32-0.66,0.59-0.95,0.92c-0.3,0.32-0.43,0.8-0.73,1.12
			c-0.3,0.32-1.27,0.03-1.57,0.35C186.77,41.88,186.91,42.61,186.61,42.93z"/>
	</g>
</g>
</svg>
