<?xml version="1.0" encoding="utf-8"?>
<!-- Generator: Adobe Illustrator 24.2.2, SVG Export Plug-In . SVG Version: 6.00 Build 0)  -->
<svg version="1.1" id="Layer_1" xmlns="http://www.w3.org/2000/svg" xmlns:xlink="http://www.w3.org/1999/xlink" x="0px" y="0px"
	 viewBox="0 0 209 325" style="enable-background:new 0 0 209 325;" xml:space="preserve">
<style type="text/css">
	.st0{fill:#F8B618;}
	.st1{fill:#F15D4B;}
</style>
<g>
	<path class="st0" d="M41.6,12.9c0.4-0.1,0.9-0.1,1.4-0.3c0.4-0.1,0.8-0.4,1.3-0.5c0.4-0.1,0.9-0.2,1.4-0.3c0.4-0.1,1,0.3,1.5,0.2
		c0.4-0.1,0.9-0.3,1.4-0.4c0.5,0,0.9-0.1,1.4-0.2c0.5,0,0.9-0.2,1.4-0.2s0.9,0.2,1.4,0.2s0.9-0.1,1.4-0.2c0.5,0,0.9,0.1,1.4,0.1
		s0.9-0.4,1.4-0.4s0.9,0.1,1.4,0c0.5,0,0.9-0.2,1.4-0.3c0.5,0,0.9,0.1,1.4,0.1s0.9-0.2,1.4-0.2s0.9-0.1,1.4-0.1
		c0.5-0.1,1,0.3,1.5,0.2s0.9-0.5,1.4-0.5c0.5-0.1,1,0.1,1.4,0c0.5-0.1,0.9,0,1.4,0s0.9-0.2,1.4-0.2s0.9,0.2,1.4,0.1
		c0.5,0,0.9-0.3,1.4-0.3s0.9,0.2,1.4,0.2s0.9-0.3,1.4-0.3s0.9,0.3,1.4,0.3S79,10,79.5,10s1-0.3,1.4-0.2c0.5,0,0.9,0.2,1.4,0.2
		s0.9-0.1,1.4-0.1s0.9,0.1,1.4,0c0.5,0,0.9,0,1.4-0.1s0.9-0.1,1.4-0.2c0.5-0.1,0.9-0.2,1.4-0.2s0.9,0,1.4-0.1c0.5,0,0.9-0.3,1.4-0.3
		s0.9,0.2,1.4,0.2s0.9,0.2,1.4,0.1c0.5,0,0.9-0.3,1.4-0.3s0.9-0.1,1.4-0.1S98.6,9,99.1,9s0.9,0.3,1.4,0.3s0.9-0.4,1.4-0.4
		c0.5,0,0.9,0.2,1.4,0.2s0.9,0.2,1.4,0.1c0.5,0,1-0.3,1.4-0.2c0.5,0.1,0.9,0.2,1.4,0.3s0.9,0.4,1.4,0.5s0.9,0.2,1.4,0.3
		s1-0.3,1.4-0.3c0.5,0,0.9,0,1.4,0s0.9-0.1,1.4-0.2c0.5-0.1,0.9-0.1,1.4-0.1c0.5-0.1,1,0.2,1.4,0.2c0.5,0,0.9-0.4,1.4-0.4
		s0.9,0.4,1.4,0.4s0.9,0.1,1.4,0.2c0.5,0.1,1-0.3,1.5-0.2s0.9,0.4,1.4,0.5c0.5,0,1,0,1.4,0c0.5,0,0.9-0.2,1.4-0.2s0.9-0.2,1.4-0.3
		c0.5,0,0.9-0.1,1.4-0.1s1,0.1,1.4,0.1c0.5,0,0.9,0,1.4,0s1-0.3,1.4-0.2c0.5,0,0.9,0.3,1.4,0.4c0.5,0,1,0,1.4,0
		c0.5,0,0.9,0.3,1.4,0.3s0.9,0.1,1.4,0.1s0.9-0.1,1.4-0.1s0.9,0.1,1.4,0.2c0.5,0,1-0.2,1.4-0.2c0.5,0,0.9,0.5,1.4,0.5s1-0.3,1.4-0.3
		c0.5,0,0.9-0.1,1.4-0.2c0.5,0,1,0.2,1.5,0.1c0.5-0.1,0.9-0.3,1.4-0.3c0.5-0.1,0.9-0.2,1.4-0.3c0.5,0,1-0.1,1.4-0.1
		c0.5,0,1,0.1,1.4,0.2c0.5,0,0.9,0.2,1.4,0.2c0.5,0.1,1,0,1.4,0c0.5,0.1,0.9,0.2,1.4,0.2s0.9,0.4,1.4,0.4s0.9,0,1.4,0s0.9,0,1.4,0
		s0.9,0,1.4,0.1c0.5,0,1-0.3,1.4-0.2c0.5,0,0.9,0.3,1.4,0.3s1-0.2,1.4-0.2c0.5,0,1,0.4,1.4,0.4c0.5,0,0.9-0.2,1.4-0.2
		s0.9-0.3,1.4-0.3s1,0.1,1.4,0.1c0.5,0,0.9,0.2,1.4,0.3s0.9,0.3,1.4,0.4c0.5,0.1,0.9,0.2,1.4,0.3s0.9,0.2,1.4,0.3s1-0.1,1.4-0.1
		c0.5,0,0.9,0.2,1.4,0.2s1-0.1,1.4-0.1c0.5,0,1,0,1.4,0c0.5,0,0.9,0.2,1.4,0.2s1-0.2,1.4-0.2c0.5,0,0.9,0.4,1.4,0.4s0.9,0.2,1.4,0.2
		s1-0.1,1.4,0c0.5,0,1,0,1.4,0.1c0.5,0.1,0.9,0.3,1.4,0.4c0.5,0.1,1-0.1,1.4-0.1c0.5,0.1,0.9,0.2,1.4,0.3s0.9,0.3,1.4,0.4
		c0.5,0.1,0.9,0.3,1.3,0.4c0.5,0.1,1.1-0.1,1.5,0c0.2,0.3,0.3,0.9,0.5,1.5c0.1,0.4,0.3,0.9,0.4,1.4c0.1,0.4,0.2,0.9,0.3,1.4
		c0.1,0.4,0,0.9,0,1.4s-0.1,0.9,0,1.4c0,0.5,0.4,0.9,0.5,1.4s0.1,0.9,0.2,1.4c0.1,0.5-0.1,1,0,1.4c0.1,0.5,0.1,0.9,0.1,1.4
		s0.2,0.9,0.2,1.4s-0.2,0.9-0.2,1.4s0.1,0.9,0.1,1.4s0,0.9,0,1.4c0,0.5-0.3,0.9-0.3,1.4s0.1,0.9,0.1,1.4s0.2,1,0.2,1.4
		c0,0.5-0.5,0.9-0.6,1.4c0,0.5-0.1,0.9-0.1,1.4c-0.1,0.5,0.1,1,0,1.4c0,0.5,0,0.9,0,1.4s0.1,0.9,0,1.4c0,0.5-0.2,0.9-0.2,1.4
		s-0.2,0.9-0.2,1.4s0.2,1,0.1,1.4c0,0.5-0.1,0.9-0.1,1.4s-0.1,0.9-0.2,1.4c0,0.5-0.2,0.9-0.2,1.4s-0.2,0.9-0.2,1.4s0.4,1,0.4,1.4
		c0,0.5-0.1,0.9-0.1,1.4s-0.2,0.9-0.3,1.4s0,1,0,1.4c-0.1,0.5-0.5,0.9-0.6,1.3c-0.1,0.5,0,1-0.1,1.4c-0.1,0.5-0.1,0.9-0.1,1.4
		s-0.2,0.9-0.2,1.4c-0.1,0.5-0.2,0.9-0.2,1.4c-0.1,0.5,0.2,1,0.1,1.4c-0.1,0.5-0.2,0.9-0.3,1.4s-0.4,0.9-0.4,1.4s-0.1,0.9-0.1,1.4
		s0.2,1,0.2,1.4c0,0.5-0.3,0.9-0.4,1.4c0,0.5-0.1,0.9-0.2,1.4c0,0.5-0.1,0.9-0.2,1.4c0,0.5,0,0.9,0,1.4c-0.1,0.5,0.2,1,0.1,1.4
		c-0.1,0.5-0.5,0.9-0.5,1.4c-0.1,0.5,0,1,0,1.4c-0.1,0.5-0.1,0.9-0.1,1.4c-0.1,0.5,0,0.9,0,1.4s-0.4,0.9-0.4,1.4s0.2,0.9,0.2,1.4
		s0.1,1,0.1,1.4c0,0.5-0.2,0.9-0.2,1.4c-0.1,0.5-0.3,0.9-0.3,1.4c-0.1,0.5,0.1,1,0,1.4c-0.1,0.5-0.1,0.9-0.1,1.4
		c-0.1,0.5,0,0.9-0.1,1.4s-0.3,0.9-0.3,1.4c-0.1,0.5-0.2,0.9-0.2,1.4s-0.2,0.9-0.3,1.4c0,0.5,0.2,1,0.2,1.4c0,0.5-0.3,0.9-0.3,1.4
		c-0.1,0.5,0.2,1,0.2,1.4c-0.1,0.5-0.2,0.9-0.3,1.4s-0.2,0.9-0.3,1.4s-0.6,0.8-0.8,1.3c-0.1,0.5-0.1,1-0.2,1.4
		c-0.1,0.5-0.2,0.9-0.2,1.4c-0.1,0.5,0.1,1,0,1.4c-0.1,0.5-0.4,0.9-0.5,1.4s-0.1,0.9-0.2,1.4c-0.1,0.5-0.2,0.9-0.3,1.4
		s-0.1,0.9-0.2,1.4c-0.1,0.5,0,1,0,1.4c0,0.5,0.3,1,0.3,1.4c0,0.5,0.1,0.9,0.1,1.4s-0.2,1-0.2,1.4c0,0.5-0.4,0.9-0.4,1.4
		c-0.1,0.5,0.2,1,0.2,1.4c-0.1,0.5-0.2,0.9-0.3,1.4s-0.3,0.9-0.4,1.4c-0.1,0.5,0.4,1,0.3,1.5c-0.1,0.5-0.3,0.9-0.4,1.4
		c-0.1,0.5-0.4,0.9-0.5,1.4s0.1,1,0,1.4c-0.1,0.5-0.3,0.9-0.4,1.4c-0.1,0.5,0.1,1,0,1.4c-0.1,0.5-0.4,0.9-0.5,1.4s-0.2,0.9-0.3,1.4
		s-0.1,0.9-0.2,1.4c-0.1,0.5-0.3,0.9-0.3,1.4c-0.1,0.5-0.2,0.9-0.3,1.4s0,0.9-0.1,1.4s0,1,0,1.4c0,0.5,0.1,1,0.1,1.4
		c0,0.5-0.2,0.9-0.2,1.4s-0.4,0.9-0.4,1.4s0.3,1,0.3,1.5c-0.1,0.5-0.5,0.9-0.6,1.3c-0.1,0.5-0.1,1-0.2,1.4c-0.1,0.5-0.2,0.9-0.3,1.4
		s-0.4,0.9-0.5,1.3c-0.1,0.5,0,1-0.1,1.4c-0.1,0.5-0.1,0.9-0.1,1.4c-0.1,0.5-0.2,0.9-0.3,1.4s-0.3,0.9-0.3,1.4c-0.1,0.5,0.1,1,0,1.4
		c-0.1,0.5-0.3,0.9-0.4,1.4c-0.1,0.5,0.1,1,0,1.4c-0.1,0.5,0.1,1,0,1.4c0,0.5-0.1,0.9-0.1,1.4s-0.4,0.9-0.4,1.4
		c-0.1,0.5-0.2,0.9-0.2,1.4c-0.1,0.5,0.2,1,0.1,1.5c-0.1,0.5-0.4,0.9-0.5,1.3c-0.1,0.5,0,1-0.1,1.4c-0.1,0.5-0.5,0.9-0.6,1.3
		c-0.1,0.5,0,1-0.1,1.4c-0.1,0.5-0.5,0.9-0.6,1.3c-0.1,0.5,0,1-0.2,1.4c-0.1,0.5-0.1,1-0.2,1.4c-0.1,0.5-0.4,0.9-0.5,1.3
		c-0.1,0.5-0.1,0.9-0.2,1.4c-0.1,0.5-0.3,0.9-0.4,1.4c-0.1,0.5-0.1,1-0.2,1.4c-0.1,0.5-0.1,1-0.2,1.4c-0.1,0.5,0.1,1,0,1.4
		c-0.1,0.5-0.3,0.9-0.4,1.4c-0.1,0.5-0.3,1-0.4,1.5c-0.1,0.5,0,1-0.1,1.5s-0.4,1-0.4,1.4c-0.1,0.6-0.1,1-0.2,1.5
		c-0.1,0.6-0.2,0.9-0.3,1.3c-0.4,0-0.8,0.1-1.3,0.1c-0.4,0-0.9,0.2-1.5,0.2c-0.5,0-1-0.3-1.5-0.3s-1,0.1-1.5,0.1s-1,0.3-1.5,0.3
		s-0.9,0.1-1.4,0.1s-0.9-0.2-1.4-0.2s-0.9,0.1-1.4,0c-0.5,0-0.9-0.4-1.4-0.4s-1,0.4-1.4,0.4c-0.5,0-0.9-0.1-1.4,0
		c-0.5,0-1-0.1-1.4,0c-0.5,0-0.9,0-1.4,0.1c-0.5,0-0.9,0-1.4,0.1c-0.5,0-0.9,0.2-1.4,0.2s-0.9-0.2-1.4-0.3c-0.5,0-1,0.3-1.5,0.2
		c-0.5,0-0.9-0.2-1.4-0.3c-0.5,0-1,0-1.4,0c-0.5,0-0.9-0.2-1.4-0.2s-0.9-0.1-1.4-0.2c-0.5,0-1,0.2-1.4,0.2c-0.5,0-0.9-0.2-1.4-0.2
		s-0.9-0.1-1.4-0.1s-0.9,0-1.4,0s-0.9,0-1.4,0s-1-0.3-1.5-0.3s-0.9,0.4-1.4,0.4s-0.9,0.2-1.4,0.2s-1,0-1.4,0c-0.5,0-0.9,0-1.4,0
		s-0.9-0.2-1.4-0.2s-1,0.1-1.4,0.1c-0.5,0-1-0.3-1.4-0.3c-0.5,0-1,0-1.4,0c-0.5,0-1,0.3-1.4,0.3c-0.5,0-1,0-1.4,0
		c-0.5,0-1-0.3-1.4-0.3c-0.5,0-0.9,0.3-1.4,0.3s-1-0.2-1.4-0.2c-0.5,0-1,0.1-1.4,0.1c-0.5,0-0.9-0.2-1.4-0.2s-1,0-1.4,0
		c-0.5,0-1,0.1-1.4,0.1c-0.5,0-1-0.1-1.4-0.1c-0.5,0-1-0.2-1.4-0.2c-0.5,0-0.9,0.4-1.4,0.4s-1-0.1-1.4-0.1c-0.5,0-1,0-1.4,0
		c-0.5,0-1,0.1-1.4,0.1c-0.5,0-1,0-1.4,0c-0.5,0-1-0.1-1.4-0.1c-0.5,0-1,0-1.4,0c-0.5,0-1,0.2-1.4,0.2c-0.5,0-1,0.1-1.4,0.1
		c-0.5,0-1,0-1.4,0c-0.5,0-1-0.1-1.4-0.2c-0.5,0-0.9-0.3-1.4-0.3s-1,0-1.4,0c-0.5,0-1,0-1.4,0c-0.5,0-1-0.1-1.4-0.1
		c-0.5,0-1-0.1-1.4-0.1c-0.5,0-0.9,0.3-1.4,0.3s-1-0.2-1.4-0.2c-0.5,0-1,0.2-1.4,0.2c-0.5,0-0.9-0.3-1.4-0.3s-1,0.2-1.5,0.2
		c-0.5-0.1-0.9-0.4-1.4-0.5s-1-0.1-1.4-0.2c-0.5,0-1,0-1.4,0c-0.5,0-1,0-1.4,0c-0.5,0-1,0.1-1.4,0.1c-0.5,0-1,0.2-1.4,0.2
		c-0.5,0-1-0.1-1.4-0.1c-0.5,0-1,0.3-1.4,0.3c-0.5,0-1,0-1.4-0.1c-0.5,0-0.9-0.2-1.4-0.2c-0.5-0.1-1-0.1-1.4-0.1
		c-0.5-0.1-0.9-0.3-1.4-0.3s-1-0.2-1.4-0.2c-0.5,0-1,0-1.4,0c-0.5,0-1,0.1-1.4,0.1c-0.5,0-1-0.1-1.4-0.1c-0.5,0-1,0.1-1.4,0.1
		c-0.5,0-0.9,0-1.4,0s-0.9-0.1-1.4-0.1s-1,0.1-1.4,0.1c-0.5,0-1,0-1.4,0c-0.5,0-1,0.2-1.4,0.2c-0.5,0-1-0.3-1.4-0.4
		c-0.5,0-1,0.3-1.4,0.3c-0.5,0-0.9-0.3-1.4-0.4c-0.5,0-1-0.1-1.4-0.1c-0.5,0-0.9-0.1-1.4-0.2c-0.5,0-1,0.2-1.4,0.2
		c-0.5,0-1,0.1-1.4,0.1c-0.5,0-1-0.1-1.4-0.1c-0.5,0-1-0.2-1.4-0.2c-0.5,0-1,0-1.4,0c-0.5,0-1,0.2-1.4,0.2c-0.5,0-1-0.2-1.4-0.3
		c-0.5-0.1-0.9-0.3-1.4-0.4c-0.5-0.1-0.9-0.2-1.4-0.3s-1,0.2-1.5,0.1c-0.5-0.1-0.9-0.5-1.4-0.5s-1,0-1.4,0c-0.5,0-1,0-1.4-0.1
		c-0.5,0-1-0.2-1.4-0.2c-0.5,0-1,0.1-1.4,0.1c-0.5-0.1-0.9-0.3-1.4-0.3c-0.5-0.1-1,0.2-1.5,0.1c-0.5,0-0.9-0.3-1.4-0.4
		c-0.5,0-1,0.1-1.4,0c-0.5-0.1-1,0.1-1.4,0.1c-0.5-0.1-1-0.2-1.4-0.3c-0.3-0.1-0.4-0.6-0.6-1.4c-0.1-0.4-0.5-0.8-0.6-1.4
		c-0.1-0.4-0.2-0.9-0.2-1.5c0-0.5,0.3-1,0.2-1.5c0-0.5-0.2-1-0.3-1.5c0-0.5,0.1-1,0.1-1.5s-0.3-0.9-0.4-1.4c0-0.5,0.4-1,0.4-1.5
		s-0.4-1-0.4-1.5s0.3-1,0.3-1.5s-0.1-1-0.1-1.5s0.2-0.9,0.2-1.4s-0.1-1,0-1.5c0-0.5,0.2-1,0.3-1.4c0-0.5-0.2-1-0.2-1.5
		s0.2-1,0.2-1.4c0-0.5,0-1,0-1.5s-0.2-1-0.2-1.5s0.4-0.9,0.4-1.4s-0.3-1-0.2-1.5c0-0.5,0.2-1,0.3-1.4c0-0.5,0.2-0.9,0.3-1.4
		s0-1,0.1-1.5s0.1-1,0.2-1.5c0-0.5-0.2-1-0.2-1.5s0-1,0-1.4c0-0.5,0.2-1,0.2-1.5s-0.1-1-0.1-1.5s0.3-1,0.3-1.5s0-1,0-1.5
		s0-1,0.1-1.5c0-0.5-0.3-1-0.2-1.5c0-0.5,0.4-0.9,0.4-1.4s-0.1-1,0-1.5c0-0.5,0-1,0-1.5s0.1-1,0.1-1.5s0.2-1,0.2-1.5s-0.4-1-0.4-1.5
		s0-1,0-1.5s0.3-1,0.3-1.4c0-0.5,0.3-1,0.3-1.5s-0.2-1-0.2-1.5s-0.3-1-0.3-1.5s0-1,0-1.5s0.3-1,0.4-1.4c0-0.5-0.3-1-0.2-1.5
		s0.2-1,0.3-1.4c0.1-0.5,0.6-0.9,0.7-1.3c0.1-0.5,0.2-1,0.3-1.4c0.1-0.5-0.1-1-0.1-1.5s0.2-1,0.2-1.5s-0.1-1-0.1-1.5s0.1-1,0.1-1.5
		s-0.3-1-0.2-1.5c0-0.5,0.3-1,0.3-1.4c0-0.5,0.3-0.9,0.3-1.4s-0.1-1,0-1.5s0-1,0.1-1.5c0-0.5-0.1-1-0.1-1.5s0.3-0.9,0.4-1.4
		c0-0.5,0.1-1,0.2-1.5c0-0.5-0.1-1-0.1-1.5s0-1,0-1.5s0.1-1,0.2-1.5c0-0.5,0.2-1,0.3-1.4c0-0.5,0-1,0.1-1.5s0.3-0.9,0.4-1.4
		c0.1-0.5,0.1-1,0.2-1.5c0.1-0.5,0.4-0.9,0.5-1.4s0-1,0-1.5s0.1-1,0.2-1.5c0-0.5,0-1,0-1.5s0-1,0-1.5s0.2-1,0.3-1.4
		c0-0.5-0.1-1-0.1-1.5c0.1-0.5,0.3-0.9,0.3-1.4c0.1-0.5,0.3-0.9,0.3-1.4c0.1-0.5,0-1,0-1.5s-0.2-1-0.1-1.5s0.2-1,0.2-1.4
		c0.1-0.5,0.2-1,0.3-1.4c0-0.5,0.1-1,0.1-1.5s0-1,0.1-1.5c0-0.5,0.3-0.9,0.4-1.4c0-0.5,0-1,0.1-1.5s0.2-1,0.3-1.4
		c0.1-0.5,0-1,0.1-1.5s0.1-1,0.2-1.5c0.1-0.5,0.3-0.9,0.4-1.4c0.1-0.5-0.1-1,0-1.5s0.2-1,0.3-1.4c0.1-0.5,0.1-1,0.2-1.5
		c0.1-0.5,0.5-0.9,0.6-1.4s0-1,0.1-1.5s0.4-0.9,0.4-1.4c0.1-0.5,0-1,0.1-1.5c0-0.5,0.1-1,0.1-1.5s0.1-1,0.2-1.5c0-0.5,0-1,0.1-1.5
		c0-0.5-0.2-1-0.1-1.5c0.1-0.5,0-1,0.1-1.5s0.6-0.9,0.7-1.4c0.1-0.5-0.2-1-0.1-1.5c0.1-0.5,0.4-0.9,0.4-1.4c0.1-0.5-0.2-1-0.1-1.5
		c0.1-0.5,0-1,0.1-1.5s0.5-0.9,0.6-1.4s0-1,0.1-1.5s0.4-0.9,0.5-1.4s-0.2-1-0.1-1.5c0.1-0.5,0.3-0.9,0.4-1.4c0.1-0.5,0.2-1,0.3-1.4
		c0.1-0.5,0.6-0.9,0.7-1.3c0.1-0.5,0-1,0.1-1.5s0.4-0.9,0.5-1.4s0.1-1,0.2-1.5c0.1-0.5,0.1-1,0.2-1.5c0.1-0.5,0.6-0.9,0.7-1.3
		c0.1-0.5-0.2-1.1,0-1.5c0.1-0.5,0.3-0.9,0.4-1.4c0.1-0.5,0.6-0.9,0.7-1.3c0.1-0.5,0.1-1,0.2-1.5c0.1-0.5,0.3-0.9,0.5-1.4
		c0.1-0.5,0.2-1,0.4-1.4c0.2-0.5,0.4-0.9,0.5-1.3c0.2-0.5,0.4-0.9,0.6-1.3c0.2-0.5,0.2-1,0.5-1.4s0.7-0.8,1-1.1
		c0.4-0.4,0.7-0.8,1.1-1C40.8,13.3,41.2,13,41.6,12.9z"/>
</g>
<g>
	<g>
		<g>
			<path class="st1" d="M154.3,87.9c0,0.5,0.3,1,0.2,1.4c-0.1,0.5-0.5,0.9-0.6,1.3c-0.1,0.5-0.1,1-0.2,1.4c-0.1,0.5-0.3,0.9-0.4,1.4
				c-0.1,0.5,0,1-0.1,1.4c-0.1,0.5,0.1,1,0.1,1.4c0,0.5-0.2,0.9-0.3,1.4c0,0.5-0.3,0.9-0.3,1.4s-0.2,0.9-0.3,1.4s0,0.9-0.2,1.4
				c-0.1,0.5-0.3,0.9-0.5,1.3c-0.1,0.4-0.1,1-0.2,1.4c-0.2,0.4-0.6,0.8-0.8,1.2c-0.2,0.4-0.3,0.9-0.4,1.4c-0.2,0.4-0.5,0.8-0.7,1.2
				c-0.2,0.4-0.2,0.9-0.4,1.4c-0.2,0.4-0.3,0.9-0.5,1.3s-0.3,0.9-0.5,1.3s-0.4,0.9-0.6,1.3c-0.2,0.4-0.7,0.7-1,1.1s-0.3,0.9-0.6,1.3
				s-0.6,0.7-0.9,1.1c-0.3,0.4-0.4,0.9-0.7,1.3s-0.8,0.6-1.1,0.9c-0.3,0.4-0.4,0.9-0.6,1.3c-0.3,0.4-0.6,0.7-0.9,1.1
				c-0.3,0.4-0.8,0.6-1,1s-0.2,1-0.4,1.4s-0.6,0.7-0.8,1.2c-0.2,0.4-0.3,0.9-0.5,1.3s-0.8,0.6-1,1c-0.3,0.4-0.2,1-0.5,1.4
				s-0.6,0.7-0.9,1c-0.3,0.3-0.9,0.4-1.2,0.7s-0.8,0.5-1.1,0.7c-0.4,0.3-0.5,0.8-0.9,1c-0.4,0.3-0.9,0.3-1.2,0.6
				c-0.4,0.3-0.5,0.8-0.8,1.1s-0.7,0.6-1,0.9c-0.3,0.3-0.8,0.4-1.2,0.7c-0.3,0.3-0.5,0.7-0.9,1c-0.3,0.3-0.7,0.6-1,0.8
				c-0.3,0.3-0.9,0.3-1.2,0.6c-0.4,0.3-0.6,0.7-1,0.9s-0.9,0.3-1.3,0.5c-0.4,0.2-0.8,0.4-1.2,0.6c-0.4,0.2-0.8,0.3-1.2,0.5
				s-0.9,0.2-1.3,0.3c-0.4,0.2-0.8,0.3-1.2,0.5s-0.9,0.2-1.3,0.4c-0.5,0.2-0.8,0.6-1.3,0.8s-1,0.3-1.4,0.5c-0.5,0.2-0.8,0.7-1.2,0.9
				c-0.5,0.2-1.1,0.1-1.5,0.3c-0.5,0.2-0.8,0.6-1.3,0.8c-0.5,0.1-1.1-0.1-1.6,0s-1,0.3-1.4,0.4c-0.5,0.1-0.9,0.5-1.4,0.6s-1,0-1.5,0
				c-0.5,0.1-1,0.3-1.5,0.4c-0.5,0.1-1,0.3-1.5,0.4c-0.5,0.1-1,0.1-1.5,0.2c-0.5,0.1-1,0.1-1.5,0.1s-1,0.1-1.5,0.1s-1-0.1-1.5-0.1
				s-0.9,0.2-1.3,0.2c-0.5,0-0.9,0.1-1.4,0.1s-0.9,0-1.4,0s-0.9-0.3-1.3-0.4c-0.4,0-0.9-0.2-1.3-0.3c-0.5-0.1-0.9,0.2-1.4,0.2
				c-0.5-0.1-0.9-0.5-1.3-0.5c-0.5-0.1-0.9,0-1.4-0.1s-0.9,0.1-1.4,0.1c-0.4-0.1-0.9-0.4-1.3-0.5s-0.9-0.3-1.3-0.4
				c-0.4-0.1-0.9-0.3-1.3-0.4c-0.4-0.2-0.8-0.4-1.3-0.5c-0.4-0.2-0.8-0.4-1.2-0.6c-0.4-0.2-1,0.1-1.4-0.1c-0.4-0.2-0.7-0.7-1.1-0.8
				c-0.4-0.2-0.9-0.2-1.3-0.4s-0.9-0.1-1.3-0.3s-0.8-0.5-1.2-0.7c-0.4-0.2-0.8-0.4-1.2-0.7c-0.4-0.2-0.8-0.4-1.2-0.6
				c-0.4-0.2-0.7-0.5-1.1-0.7s-0.8-0.4-1.2-0.7c-0.4-0.2-0.8-0.4-1.2-0.6c-0.4-0.2-0.9-0.3-1.3-0.5s-0.7-0.7-1.1-0.8
				c-0.4-0.2-1-0.1-1.4-0.3s-0.8-0.7-1.2-0.9c-0.4-0.2-1-0.2-1.4-0.4s-0.9-0.5-1.3-0.7c-0.4-0.3-0.7-0.7-1-1
				c-0.4-0.3-0.9-0.5-1.2-0.9c-0.3-0.4-0.4-0.9-0.6-1.3c-0.3-0.4-0.6-0.7-0.9-1.2c-0.2-0.4-0.4-0.9-0.6-1.3
				c-0.2-0.4-0.6-0.8-0.8-1.2c-0.3-0.4-0.6-0.7-0.8-1.1c-0.2-0.4-0.5-0.8-0.7-1.1c-0.2-0.4-0.4-0.8-0.6-1.2
				c-0.2-0.4-0.3-0.8-0.5-1.2c-0.2-0.4-0.4-0.8-0.6-1.2c-0.2-0.4-0.5-0.8-0.7-1.2c-0.2-0.4-0.2-0.9-0.4-1.3
				c-0.2-0.4-0.6-0.7-0.8-1.2c-0.2-0.4-0.5-0.8-0.6-1.2c-0.2-0.4,0.2-1,0.1-1.4s-0.6-0.8-0.7-1.2c-0.1-0.4-0.2-0.9-0.3-1.4
				c-0.1-0.4,0.1-0.9,0-1.4s-0.2-0.9-0.3-1.3c-0.1-0.5-0.1-0.9-0.2-1.4c0-0.4-0.1-0.9-0.1-1.4c0-0.4,0-0.9,0-1.4
				c0-0.4,0.4-0.9,0.5-1.3c0-0.4,0.1-0.9,0.2-1.3c0-0.4,0-0.9,0-1.4c0-0.4-0.2-0.9-0.2-1.3s-0.1-0.9-0.1-1.3s0.2-0.9,0.2-1.3
				s-0.1-0.9-0.1-1.3s0-0.9,0.1-1.3c0.1-0.5,0-1,0.1-1.5s0.2-1,0.3-1.5c0.1-0.5,0.3-1,0.4-1.4c0.1-0.5,0.5-0.9,0.6-1.4s0-1,0.2-1.5
				c0.1-0.5,0.1-1,0.3-1.5c0.2-0.5,0.4-0.9,0.6-1.4s0.6-0.8,0.8-1.3c0.2-0.5,0.3-0.9,0.5-1.4s0.6-0.8,0.8-1.3
				c0.2-0.5,0.4-0.9,0.5-1.4c0.2-0.5,0.3-1,0.4-1.4c0.2-0.5,0-1,0.2-1.5s0.6-0.8,0.8-1.3c0.2-0.5,0.1-1.1,0.3-1.5
				c0.2-0.4,0.4-0.8,0.7-1.2c0.3-0.4,0.8-0.5,1.1-0.9c0.3-0.4,0.6-0.7,0.8-1.1c0.3-0.4,0.5-0.7,0.8-1.1c0.2-0.4,0.4-0.8,0.6-1.2
				c0.2-0.4,0.2-0.9,0.4-1.3c0.2-0.4,0.5-0.7,0.8-1.1c0.2-0.4,0.6-0.6,0.9-1s0.3-1,0.6-1.4c0.3-0.4,1-0.5,1.3-0.9s0.5-0.9,0.8-1.3
				c0.3-0.4,0.8-0.7,1.1-1c0.3-0.4,0.6-0.8,0.9-1.2s0.8-0.6,1.1-1c0.4-0.3,0.6-0.8,1-1.1s0.7-0.8,1-1.1c0.4-0.3,0.9-0.5,1.3-0.8
				s0.7-0.7,1.2-0.9c0.4-0.3,0.9-0.4,1.3-0.7s0.8-0.6,1.1-0.9c0.3-0.3,0.5-0.8,0.9-1.1s0.9-0.4,1.3-0.7s0.7-0.7,1.1-1s0.6-0.8,1-1
				c0.4-0.3,1-0.2,1.4-0.4s0.8-0.5,1.2-0.8c0.4-0.2,0.9-0.4,1.3-0.6c0.4-0.2,0.8-0.5,1.2-0.7c0.4-0.2,0.8-0.7,1.2-0.8
				c0.4-0.2,1-0.1,1.4-0.3s0.9-0.2,1.4-0.4c0.4-0.2,0.8-0.6,1.2-0.8c0.4-0.2,0.9-0.4,1.3-0.5c0.4-0.2,0.9-0.3,1.3-0.4
				c0.4-0.2,0.9-0.2,1.3-0.4c0.4-0.1,0.9-0.2,1.3-0.3s0.8-0.5,1.2-0.6c0.4-0.1,0.9,0,1.4-0.1c0.4-0.1,0.9-0.3,1.3-0.4
				c0.4-0.1,0.9-0.2,1.3-0.3s0.9-0.2,1.3-0.3s0.9-0.3,1.3-0.4c0.4-0.1,0.9-0.3,1.3-0.4c0.4-0.1,0.9,0.1,1.4,0
				c0.4-0.1,0.9,0.1,1.4,0.1s0.9-0.2,1.3-0.2c0.5,0,0.9-0.3,1.3-0.3c0.5,0,0.9,0.1,1.4,0.1s0.9-0.2,1.4-0.2s0.9,0.3,1.4,0.2
				c0.5,0,0.9-0.1,1.4-0.1s1-0.3,1.4-0.3c0.5,0.1,0.9,0.3,1.3,0.4c0.4,0.1,0.9,0.1,1.4,0.2c0.4,0.1,0.9,0.3,1.3,0.5
				c0.4,0.1,0.9,0.2,1.3,0.4c0.5,0.2,0.9,0.6,1.4,0.7c0.5,0.2,1,0.4,1.5,0.5c0.5,0.2,1,0.3,1.5,0.5c0.5,0.1,1.1-0.1,1.6,0
				s1,0.4,1.5,0.6c0.5,0.2,0.9,0.5,1.4,0.7s1,0.4,1.5,0.6c0.5,0.2,0.9,0.6,1.3,0.9c0.5,0.3,0.9,0.6,1.3,0.9c0.4,0.3,1,0.5,1.4,0.8
				s0.8,0.7,1.2,1s1,0.5,1.4,0.8c0.4,0.2,0.7,0.5,1.1,0.7c0.4,0.2,0.6,0.6,1,0.8s0.8,0.4,1.1,0.6c0.4,0.2,0.6,0.7,1,0.9
				s0.9,0.1,1.3,0.3c0.4,0.2,0.6,0.6,0.9,0.9c0.3,0.3,0.5,0.6,0.8,0.9c0.3,0.3,0.8,0.4,1,0.7c0.3,0.4,0.2,1.1,0.5,1.6
				c0.3,0.4,1,0.6,1.2,1.1c0.3,0.4,0.4,1,0.6,1.5c0.3,0.5,0.3,1,0.6,1.5c0.3,0.4,0.8,0.8,1,1.2c0.3,0.4,0.6,0.9,0.8,1.3
				c0.3,0.5,0.6,0.9,0.9,1.3c0.2,0.5,0.3,1,0.5,1.5s0.5,0.9,0.7,1.4s0.1,1.1,0.3,1.6s0.6,0.8,0.8,1.3s0.5,0.9,0.6,1.3
				c0.2,0.5,0.4,0.9,0.5,1.3c0.2,0.5-0.1,1,0,1.5s0.3,0.9,0.4,1.4c0.1,0.5,0.2,0.9,0.4,1.4c0.1,0.5,0.3,0.9,0.4,1.4
				c0.1,0.5,0.2,0.9,0.3,1.4s0.2,0.9,0.3,1.4s0.5,0.9,0.6,1.4s0.1,1.1,0.1,1.6s0,1.1,0,1.6C154.6,86.8,154.3,87.4,154.3,87.9z
				 M136.4,86c0-0.5-0.3-0.9-0.3-1.4s0.4-0.9,0.3-1.4c0-0.5-0.2-0.9-0.3-1.4s0-1-0.1-1.4c-0.1-0.5-0.4-1-0.5-1.4
				c-0.1-0.5-0.5-0.9-0.7-1.4s-0.2-1-0.4-1.5s-0.2-1-0.4-1.5s-0.3-1-0.6-1.4c-0.3-0.5-0.6-0.9-0.9-1c-0.3-0.1-0.7,0-1.2,0.5
				c-0.3,0.3-0.4,0.8-0.7,1.1c-0.3,0.3-0.8,0.3-1.2,0.6c-0.3,0.3-0.6,0.6-1,0.8c-0.4,0.2-0.8,0.3-1.2,0.5c-0.5,0.3-1,0.6-1.5,0.9
				s-0.9,0.7-1.3,1.1c-0.3,0.3-0.6,0.8-0.9,1.1c-0.3,0.4-0.6,0.8-0.9,1.1c-0.3,0.4-0.8,0.6-1.1,0.9c-0.3,0.4-0.4,0.9-0.7,1.3
				s-0.7,0.7-0.9,1.1c-0.3,0.4-0.4,0.9-0.7,1.3s-0.8,0.5-1.1,0.8s-0.5,0.8-0.9,1.1c-0.4,0.3-0.8,0.5-1.2,0.7
				c-0.4,0.3-0.9,0.3-1.3,0.5c-0.4,0.2-0.6,0.8-0.9,1c-0.4,0.2-0.9,0.4-1.2,0.6c-0.4,0.3-0.6,0.7-1,0.9c-0.4,0.3-0.9,0.3-1.2,0.6
				c-0.3,0.3-0.4,0.9-0.7,1.2c-0.3,0.3-0.7,0.6-1,0.9s-0.9,0.4-1.2,0.7c-0.3,0.3-0.7,0.5-1.1,0.8c-0.3,0.3-0.5,0.8-0.9,1.1
				c-0.4,0.3-0.9,0.3-1.2,0.6c-0.4,0.2-0.6,0.8-0.9,1c-0.4,0.3-0.7,0.5-1,0.8s-0.8,0.4-1.2,0.7c-0.3,0.3-0.5,0.8-0.8,1.2
				c-0.3,0.4-0.6,0.7-0.9,1.1s-0.8,0.6-1.1,0.9c-0.3,0.4-0.5,0.9-0.8,1.2c-0.3,0.4-0.8,0.6-1.1,0.9c-0.3,0.3-0.6,0.7-1,1
				c-0.3,0.3-0.7,0.7-1,1s-0.8,0.6-1.1,0.9c-0.3,0.3-0.7,0.7-1,1s-0.8,0.6-1.1,0.9c-0.3,0.3-0.5,0.8-0.9,1.2
				c-0.4,0.3-0.8,0.5-1.2,0.9c-0.4,0.3-0.5,0.9-0.8,1.2c-0.4,0.3-0.9,0.4-1.3,0.7c-0.3,0.3-0.5,0.9-0.8,1.2c-0.3,0.4-1,0.4-1.3,0.8
				s-0.6,0.8-1,1.1c-0.3,0.4-0.5,0.9-0.8,1.3c-0.4,0.4-0.9,0.5-1.2,0.9c-0.4,0.3-0.7,0.8-1,1.1c-0.4,0.3-0.7,0.8-1,1.1
				c-0.4,0.3-0.7,0.7-1.1,1s-0.8,0.6-1.2,1c-0.4,0.3-0.8,0.6-1.2,0.9c-0.4,0.3-0.9,0.4-1.4,0.6c-0.4,0.2-0.6,0.5-0.8,0.8
				c-0.2,0.3-0.2,0.4,0.1,0.9c0.3,0.4,0.6,0.7,0.9,1s0.4,0.9,0.8,1.2c0.3,0.3,0.7,0.7,1.1,0.9s1,0.1,1.4,0.3s0.6,0.7,1,1
				c0.4,0.2,0.8,0.4,1.2,0.6c0.4,0.2,0.9,0.2,1.3,0.4s0.7,0.6,1.1,0.8s0.8,0.4,1.2,0.5c0.4,0.1,0.9,0.3,1.3,0.4
				c0.4,0.1,0.9,0.3,1.3,0.4c0.4,0.1,0.9,0.2,1.3,0.3s1-0.3,1.4-0.2s0.8,0.5,1.3,0.6c0.4,0.1,0.9,0.1,1.4,0.2c0.4,0.1,0.9,0,1.4,0
				c0.4,0.1,0.9,0.2,1.3,0.2s0.9,0,1.3-0.1c0.5-0.1,1-0.2,1.5-0.3s1,0,1.5-0.1s1-0.1,1.5-0.2c0.5-0.1,1-0.1,1.5-0.2
				c0.5-0.1,0.9-0.3,1.4-0.4c0.5-0.1,1,0,1.5-0.1c0.5-0.2,0.8-0.6,1.3-0.8c0.4-0.2,1-0.1,1.4-0.3s0.7-0.6,1.1-0.9
				c0.4-0.2,0.8-0.5,1.2-0.7s0.9-0.3,1.3-0.5c0.4-0.2,0.7-0.6,1.1-0.9c0.4-0.2,0.9-0.2,1.4-0.4c0.4-0.2,0.8-0.5,1.2-0.7
				c0.5-0.2,1-0.4,1.4-0.7c0.4-0.3,0.7-0.7,1.1-1.1c0.3-0.4,0.6-0.8,0.9-1.1c0.3-0.3,0.7-0.7,1.1-1c0.4-0.3,0.8-0.6,1.1-0.9
				c0.4-0.3,0.8-0.6,1.1-0.9c0.4-0.3,0.7-0.7,1-1s0.6-0.8,0.9-1.1c0.3-0.4,0.8-0.6,1.1-1s0.4-0.9,0.7-1.3s0.4-0.8,0.7-1.2
				c0.3-0.4,0.9-0.6,1.1-1c0.2-0.4,0.1-1,0.4-1.4c0.2-0.4,0.5-0.8,0.7-1.2c0.2-0.4,0.7-0.7,0.9-1c0.3-0.4,0.5-0.8,0.7-1.2
				c0.3-0.4,0.5-0.8,0.7-1.1c0.2-0.4,0.4-0.8,0.6-1.2c0.2-0.4,0.3-0.8,0.4-1.3c0.1-0.4,0.7-0.7,0.9-1.1s0.5-0.8,0.7-1.2
				c0.2-0.4,0.4-0.9,0.6-1.3c0.2-0.5,0.2-1,0.3-1.4c0.1-0.5,0.2-1,0.3-1.4c0.1-0.5,0.4-0.9,0.5-1.4s0-1,0.1-1.5s0.1-1,0.1-1.5
				c0.1-0.5,0-1,0.1-1.5s0.2-0.9,0.2-1.4c0.1-0.5,0.3-0.9,0.3-1.4c0.1-0.5,0.4-0.9,0.4-1.4s-0.1-1-0.1-1.5s-0.1-1-0.1-1.4
				C136,87,136.4,86.5,136.4,86z M63.3,104.8c0,0.5,0.4,1.1,0.3,1.6c0,0.5-0.5,1-0.5,1.6c-0.1,0.5,0,1.1,0,1.6s-0.1,1.1,0,1.6
				s0.6,0.6,1.1,0.8c0.5,0.1,0.6-0.1,1-0.4c0.3-0.3,0.6-0.6,0.9-0.9s0.8-0.5,1.1-0.9c0.3-0.3,0.7-0.6,1-0.9s0.6-0.7,0.9-1
				s0.7-0.5,1.1-0.8c0.3-0.3,0.5-0.8,0.9-1.1c0.4-0.3,0.9-0.3,1.3-0.6c0.4-0.3,0.6-0.6,1-0.9s0.9-0.6,1.2-1.1c0.3-0.4,0.5-1,0.7-1.4
				c0.3-0.5,0.5-1,0.8-1.3c0.3-0.4,0.6-0.8,0.9-1.2c0.4-0.3,0.7-0.7,1.1-1.1c0.4-0.3,1-0.4,1.3-0.7c0.4-0.3,0.7-0.8,1.1-1.1
				c0.4-0.3,0.9-0.5,1.3-0.8s0.7-0.8,1.1-1c0.4-0.3,1-0.3,1.4-0.6c0.4-0.3,0.5-0.8,0.9-1.1c0.3-0.3,0.7-0.5,1.1-0.8
				c0.3-0.3,0.8-0.4,1.2-0.8c0.3-0.3,0.4-0.9,0.7-1.2c0.3-0.3,0.8-0.5,1.1-0.9c0.3-0.3,0.5-0.8,0.9-1.1c0.3-0.3,0.9-0.4,1.2-0.6
				c0.3-0.3,0.5-0.9,0.8-1.1c0.4-0.3,0.7-0.5,1.1-0.8s0.9-0.3,1.3-0.6c0.4-0.3,0.8-0.5,1.1-0.8c0.3-0.3,0.5-0.8,0.8-1.1
				c0.4-0.3,0.9-0.5,1.2-0.9c0.4-0.4,0.5-1,0.8-1.3c0.3-0.4,0.7-0.8,1-1.1c0.4-0.4,0.9-0.5,1.3-0.9c0.4-0.3,0.6-0.8,1-1.1
				c0.4-0.3,0.8-0.6,1.2-1c0.4-0.3,1-0.4,1.3-0.8c0.4-0.3,0.6-0.8,1-1.2c0.4-0.3,0.9-0.5,1.3-0.9c0.4-0.3,0.7-0.7,1.1-1.1
				c0.4-0.3,0.8-0.7,1.1-1c0.4-0.3,0.8-0.6,1.2-1c0.1-0.1,0-0.2,0.1-0.3c0.4-0.3,0.8-0.6,1.2-0.9s0.5-0.9,0.9-1.2
				c0.3-0.4,0.8-0.6,1.1-1s0.4-0.9,0.8-1.3c0.3-0.4,0.9-0.5,1.3-0.8c0.4-0.3,0.5-0.9,0.9-1.2c0.4-0.3,1-0.3,1.4-0.6s0.7-0.7,1.1-1
				c0.4-0.3,0.6-0.8,1-1.1s0.9-0.4,1.3-0.7c0.6-0.4,0.8-1.2,0.1-1.7c-0.4-0.3-0.8-0.5-1.2-0.8s-0.7-0.6-1.1-0.9
				c-0.4-0.3-0.7-0.6-1.1-0.8c-0.4-0.2-0.8-0.4-1.3-0.5c-0.4-0.1-0.8-0.4-1.3-0.5c-0.4-0.1-0.9,0-1.3-0.1c-0.4-0.1-0.9-0.1-1.3-0.1
				c-0.4-0.1-0.9-0.1-1.3-0.1c-0.4-0.1-0.8-0.4-1.3-0.4c-0.4,0-0.9-0.2-1.3-0.3c-0.5-0.1-1,0.2-1.5,0.1c-0.5-0.1-0.9-0.5-1.3-0.6
				c-0.5-0.1-1-0.1-1.4-0.2c-0.5-0.1-1,0.1-1.4,0.1c-0.5,0-0.9-0.3-1.4-0.2c-0.5,0-1,0.1-1.4,0.1c-0.5,0.1-0.9,0.2-1.4,0.3
				s-0.9,0.2-1.4,0.4c-0.4,0.2-0.9,0.3-1.4,0.5c-0.4,0.2-0.7,0.8-1.1,1c-0.5,0.2-1.1,0.3-1.6,0.6s-0.9,0.7-1.4,0.9
				c-0.5,0.1-0.8,0.5-1.2,0.7c-0.4,0.2-0.8,0.4-1.2,0.6c-0.4,0.2-0.8,0.5-1.2,0.7c-0.4,0.2-0.8,0.5-1.1,0.8
				c-0.4,0.2-0.8,0.4-1.2,0.6c-0.4,0.2-0.8,0.5-1.2,0.7c-0.4,0.2-0.8,0.5-1.2,0.7c-0.4,0.2-0.7,0.6-1.1,0.8
				c-0.4,0.3-0.9,0.3-1.3,0.6c-0.4,0.3-0.6,0.9-1,1.2c-0.4,0.3-1,0.5-1.4,0.8c-0.4,0.4-0.6,0.9-0.9,1.3c-0.4,0.4-0.7,0.8-1.1,1.2
				c-0.4,0.4-0.8,0.7-1.2,1.1c-0.4,0.4-0.5,0.9-0.9,1.3c-0.3,0.4-0.9,0.7-1.2,1.1c-0.3,0.4-0.5,0.9-0.8,1.4
				c-0.3,0.4-0.6,0.8-0.9,1.3c-0.2,0.5-0.4,1-0.6,1.4c-0.2,0.5-0.4,1-0.6,1.4s-0.5,0.9-0.8,1.3s-0.6,0.8-0.8,1.3
				c-0.2,0.4-0.6,0.8-0.8,1.3c-0.2,0.5-0.3,1-0.5,1.4c-0.2,0.5-0.2,1-0.3,1.5c-0.1,0.5-0.5,0.9-0.6,1.4s-0.1,1-0.3,1.5
				c-0.2,0.5-0.3,1-0.6,1.4c-0.2,0.5-0.9,0.7-1.1,1.1s-0.1,1.1-0.3,1.6c-0.2,0.5-0.4,0.9-0.6,1.4c-0.2,0.6-0.6,1.2-0.5,1.9
				c0,0.5,0.1,1,0.1,1.5s0,1,0,1.5s0.1,1,0.1,1.5s0.1,1,0.1,1.5s-0.4,1-0.3,1.5c0,0.5,0,1,0,1.5C63.2,103.9,63.3,104.3,63.3,104.8z"
				/>
		</g>
	</g>
</g>
<g>
	<path class="st1" d="M68,202.8c-0.4,0.4-0.6,0.7-0.8,1.1c-0.3,0.5-0.3,0.9-0.3,1.3c0,0.4-0.1,0.9,0.1,1.4c0.1,0.4,0.5,0.7,0.6,1.2
		c0.1,0.4-0.1,0.8,0,1.3c0,0.4,0.3,0.9,0.3,1.4s-0.5,0.9-0.6,1.4s0.1,1,0.1,1.5c-0.1,0.5,0,1,0,1.5c-0.1,0.5-0.3,0.9-0.3,1.4
		s0,1,0,1.5s-0.3,0.9-0.4,1.4c0,0.5,0,1,0,1.5s0.2,1,0.2,1.5s-0.5,0.9-0.5,1.4s0.3,1,0.3,1.5s-0.5,0.9-0.6,1.4s0.1,1,0.1,1.5
		c-0.1,0.5-0.3,0.9-0.4,1.4s-0.2,1-0.2,1.5c-0.1,0.5-0.2,1-0.2,1.5s0,1,0,1.5s0,1,0,1.5s0,1-0.1,1.5c0,0.5,0.2,1,0.2,1.5
		s-0.4,1-0.5,1.4c0,0.5,0.2,1,0.2,1.5s0,1,0,1.5s-0.3,1-0.3,1.5s0.3,1,0.3,1.5s0.1,1,0.1,1.5s-0.1,1-0.2,1.5s-0.4,0.9-0.5,1.4
		s0,1-0.1,1.5s-0.1,1-0.2,1.5s-0.4,1-0.4,1.4c0,0.5,0.3,1,0.3,1.5s0.1,1,0.1,1.5s0,1,0,1.5s0.1,1,0.2,1.5c0,0.5-0.2,1-0.2,1.5
		s0,1,0,1.5s0.1,1,0,1.5c0,0.5-0.2,1-0.2,1.5s0.3,1,0.3,1.5s0,1-0.1,1.5c0,0.5-0.3,1-0.3,1.4c0,0.5,0.1,1,0.1,1.4c0,0.5,0,1,0,1.4
		c0,0.6,0.2,1,0.3,1.4c0.1,0.7,0,1.3,0.1,1.5c0.2,0.3,0.8,0.4,1.4,0.7c0.4,0.2,0.8,0.6,1.4,0.8c0.5,0.1,1,0.2,1.5,0.3
		c0.5,0.1,1-0.2,1.6-0.1c0.5,0.1,1,0.3,1.5,0.3s1-0.1,1.6-0.1c0.5,0,1.1,0.3,1.6,0.2c0.5-0.1,1-0.5,1.5-0.5c0.5-0.1,1.1-0.1,1.6-0.2
		s1.1-0.2,1.6-0.2c0.5-0.1,1.1-0.1,1.6-0.2s1.1,0,1.6-0.1c0.6-0.1,1.1-0.1,1.6-0.2c0.6-0.1,1.1-0.3,1.5-0.4c0.7-0.2,1-0.8,1.1-1
		c0.1-0.1,0.2-0.6,0.4-1.3c0.1-0.4,0.6-0.8,0.7-1.3c0.1-0.4,0.1-1,0.2-1.5s0.4-0.9,0.5-1.4s0.2-1,0.3-1.5c0.1-0.5,0-1,0.1-1.5
		c0-0.5,0-1,0-1.5s-0.3-1-0.3-1.5s0-1,0.1-1.5c0-0.5,0.4-0.9,0.4-1.4c0.1-0.5,0.2-0.9,0.3-1.4c0.1-0.5-0.1-1,0-1.5s0.3-0.9,0.4-1.4
		s0-1,0-1.5c0.1-0.5,0.3-0.9,0.4-1.4s0.2-1,0.2-1.5c0.1-0.5-0.2-1-0.2-1.5s0.2-1,0.2-1.5s0.4-0.9,0.4-1.4c0.1-0.5,0-1,0.1-1.5
		s0.2-1,0.3-1.4c0.1-0.5,0.1-1,0.3-1.5c0.1-0.5,0.4-0.9,0.5-1.4s0.2-1,0.3-1.5c0.1-0.5,0-1,0-1.5c0.1-0.5,0.1-1,0.2-1.5
		s0.4-0.9,0.5-1.4s0.2-1,0.2-1.5c0.1-0.5,0.1-1,0.1-1.5c0.1-0.5-0.2-1-0.1-1.5s0.4-0.9,0.5-1.4s0-1,0.1-1.5s0.3-1,0.4-1.4
		c0.1-0.5-0.1-1,0-1.5s0-1,0.1-1.5s0.3-1,0.3-1.5s-0.3-1-0.3-1.5s0-1,0.1-1.5c0-0.5,0.4-1,0.4-1.5s-0.1-1-0.1-1.5s0.3-1,0.3-1.5
		c0.1-0.5-0.1-1-0.1-1.5c0.1-0.5,0.4-1,0.5-1.4c0.1-0.5-0.3-1-0.2-1.5c0-0.5,0.1-1,0.2-1.5c0-0.5,0.1-1,0.2-1.5c0-0.5,0.1-1,0.2-1.5
		c0-0.5,0.3-1,0.3-1.5c0-0.6,0-1.1,0-1.5c0-0.7-0.4-1.1-0.4-1.4c-0.1-0.4-0.3-0.9-0.7-1.2c-0.3-0.3-0.7-0.7-1.2-0.9
		c-0.4-0.2-1-0.1-1.5-0.2c-0.5-0.1-1,0-1.5-0.1s-0.9-0.3-1.5-0.3c-0.5,0-0.9,0.1-1.4,0.2c-0.5,0-1-0.1-1.5-0.1
		c-0.5,0.1-0.9,0.1-1.4,0.2c-0.5,0.1-1,0.1-1.4,0.2c-0.5,0.1-0.9,0.2-1.4,0.2c-0.5,0.1-0.9,0.1-1.4,0.2c-0.5,0.1-0.9,0.4-1.4,0.5
		s-1,0-1.4,0.1c-0.5,0.1-1-0.1-1.4,0c-0.5,0.1-0.9,0.3-1.4,0.4c-0.6,0.1-1.1,0.4-1.5,0.4c-0.6,0-1.1-0.3-1.5-0.3
		c-0.6-0.1-1.1-0.3-1.5-0.3c-0.5,0-0.9,0.3-1.4,0.6C68.9,202.2,68.4,202.3,68,202.8z"/>
</g>
<g>
	<g>
		<g>
			<path d="M94.1,248.3c-0.5,0.1-0.7,0.1-0.9,0.3c-0.3,0.3-0.4,0.5-0.8,0.7s-0.7,0.5-1,0.6c-0.4,0.1-0.7,0.5-1.1,0.6s-0.9,0-1.3,0
				c-0.4,0.1-0.8,0-1.2,0.1c-0.4,0.1-0.8,0.4-1.1,0.5c-0.4,0.1-0.8,0.2-1.2,0.3c-0.4,0.1-0.8,0.3-1.1,0.4c-0.4,0.1-0.8,0.1-1.2,0.2
				c-0.4,0.1-0.8,0.1-1.2,0.2c-0.4,0.1-0.8,0-1.2,0.1c-0.4,0.1-1.4,0.3-1.4,0.7c-0.1,0.5,0.9,0.9,1.2,1.1c0.4,0.2,0.7,0.4,1.1,0.6
				c0.4,0.2,0.7,0.4,1.1,0.6c0.4,0.2,0.6,0.6,0.9,0.8c0.3,0.2,0.7,0.4,1,0.7c0.3,0.3,0.5,0.6,0.7,0.9c0.3,0.4,0.5,0.7,0.7,1.1
				s0.7,0.7,0.8,1.1c0.2,0.4,0.1,0.9,0.2,1.3s-0.1,0.9-0.1,1.3s0.2,0.7,0.2,1.1s0,0.7,0,1.1s-0.2,0.7-0.3,1c-0.1,0.4,0,0.7-0.2,1.1
				c-0.1,0.3-0.4,0.6-0.6,0.9c-0.3,0.4-0.6,0.6-1,0.8c-0.4,0.2-0.6,0.8-1,1s-0.9,0.1-1.4,0.2c-0.4,0.1-0.9,0.1-1.3,0.2
				s-0.7,0.2-1.1,0.3c-0.4,0.1-0.6,0.5-1,0.6s-0.8,0.1-1.1,0.2c-0.4,0.1-0.8,0-1.1,0c-0.4,0.1-0.7,0.4-1.1,0.4s-0.8,0-1.2,0
				c-0.4,0-0.7-0.2-1.1-0.3c-0.4,0-0.8-0.1-1.1-0.1c-0.4,0-0.8,0-1.1,0.1c-0.4,0.1-0.8,0-1.2,0c-0.4,0.1-0.7,0.4-1.1,0.4
				s-0.8-0.1-1.2-0.1c-0.4,0-0.9-0.2-1.3-0.2s-0.9,0.2-1.3,0.2c-0.7,0-1,0.1-1.1,0.8c0,0.4,0,0.5,0.2,0.7s0.4,0.4,0.7,0.5
				c0.4,0.1,0.8,0,1.2,0.1c0.4,0,0.8,0.2,1.2,0.2c0.4,0,0.8,0,1.3,0c0.4,0,0.8,0.2,1.2,0.3c0.4,0,0.8,0.3,1.2,0.3
				c0.4,0,0.8-0.2,1.3-0.2s0.9-0.2,1.4-0.2s0.9,0.3,1.4,0.3s0.9-0.1,1.4-0.1s0.9-0.1,1.4-0.2s0.9,0,1.4-0.1s0.9-0.2,1.4-0.2
				s0.9-0.4,1.4-0.3s0.9,0.2,1.4,0.3c0.5,0.1,0.9,0.4,1.4,0.4c0.4,0,0.9-0.1,1.3-0.1s0.9-0.1,1.3,0s0.7,0.5,1.1,0.8
				c0.4,0.2,0.5,0.6,0.4,1.2s-0.3,0.4-0.8,0.4c-0.4,0.1-0.7,0.2-1.1,0.3c-0.4,0.1-0.8,0.1-1.1,0.2c-0.4,0.1-0.7,0.3-1,0.5
				c-0.4,0.1-0.7,0.2-1.1,0.3c-0.4,0.1-0.8-0.1-1.1,0c-0.4,0.1-0.8,0.1-1.3,0c-0.4,0-0.9,0.2-1.4,0.2c-0.4-0.1-0.9-0.2-1.3-0.2
				s-0.9-0.3-1.3-0.3s-0.9,0-1.3,0s-0.9,0.4-1.3,0.4s-0.9-0.2-1.3-0.2s-0.9-0.1-1.3-0.1s-0.9,0-1.3,0s-0.9,0.1-1.3,0.1
				s-0.9,0-1.3-0.1s-0.8-0.5-1.2-0.6c-0.3-0.1-0.7,0-1.1,0s-0.7-0.1-1.1-0.1s-0.7,0.1-1.1,0s-0.6-0.5-0.9-0.6
				c-0.5-0.2-0.7-0.4-0.8-0.9c-0.1-0.4,0-0.8,0.1-1.4c0.1-0.2-0.2-0.6-0.2-0.8c0-0.4,0.1-0.8,0.1-1.1c0-0.5-0.1-0.8-0.3-1.1
				c-0.2-0.2-0.5-0.5-0.9-0.6c-0.3-0.1-0.7,0-1.1-0.1s-0.8-0.5-1.2-0.7c-0.4-0.2-0.9-0.2-1.3-0.4c-0.4-0.2-0.9-0.1-1.3-0.3
				c-0.4-0.2-0.8-0.5-1.2-0.7c-0.4-0.2-0.8-0.5-1.1-0.8c-0.3-0.3-0.6-0.8-0.5-1.3c0.1-0.4,0.4-0.8,0.5-1.2c0-0.4-0.1-0.8-0.1-1.3
				c0-0.4,0-0.8,0-1.2c0-0.4,0-0.8,0-1.2c0-0.4,0.1-0.8,0.1-1.2c0-0.4-0.3-0.8-0.2-1.2c0.1-0.4,0.2-0.8,0.3-1.2
				c0.1-0.4,0.3-0.8,0.4-1.1c0.1-0.4-0.1-0.8,0-1.2c0-0.4,0.3-0.8,0.2-1.2c0-0.4-0.3-0.8-0.4-1.2s0-0.8,0-1.2s0.1-0.8,0.1-1.2
				s-0.3-0.8-0.3-1.2s0.3-0.8,0.4-1.2c0-0.4-0.2-0.8-0.2-1.2s0.5-0.8,0.5-1.2s0-0.8,0-1.2s0-0.8,0-1.2s0.1-0.8,0.2-1.2
				c0-0.4-0.1-0.8,0-1.2c0-0.4,0.3-0.7,0.4-1.1c0-0.4-0.1-0.8,0-1.2s-0.1-0.8,0-1.2s0.1-0.8,0.1-1.1c0-0.4,0.5-0.7,0.6-1.1
				c0-0.4-0.1-0.8,0-1.1c0.1-0.4,0-0.8,0-1.2c0.1-0.4,0-0.8,0-1.1c0-0.4,0.5-0.7,0.5-1.1c0-0.4-0.4-0.8-0.4-1.2
				c0-0.2-0.7-0.6-0.6-0.9c0.1-0.4,0.6-0.7,1-1.1c0.3-0.4,0.6-0.7,1.1-0.6c0.3,0.1,0.7,0.1,1,0.4c0.2,0.3,0.5,0.6,0.6,0.9
				c0.1,0.4-0.1,0.8-0.2,1.1c-0.1,0.4,0,0.8-0.1,1.2s-0.1,0.8-0.2,1.2s-0.3,0.7-0.4,1.1c-0.1,0.4-0.2,0.8-0.3,1.2
				c-0.1,0.4,0,0.8-0.1,1.2s-0.2,0.8-0.3,1.2c0,0.4-0.2,0.7-0.1,1.1c0,0.4,0.3,0.7,0.4,1.1c0,0.4-0.3,0.7-0.3,1.1
				c0,0.4,0.3,0.7,0.3,1.1c0,0.4-0.3,0.7-0.3,1.1c-0.1,0.4-0.2,0.7-0.3,1c-0.1,0.4,0,0.8,0,1.1c-0.1,0.4-0.1,0.7-0.1,1.1
				c0,0.4-0.2,0.8-0.3,1.2c0,0.4,0.1,0.8,0,1.2c0,0.4,0.1,0.8,0.1,1.2s-0.4,0.8-0.4,1.2s0.4,0.8,0.5,1.2c0,0.4-0.2,0.8-0.2,1.3
				c0.1,0.4,0.1,0.8,0.1,1.2s0,0.8,0,1.2s0.2,0.8,0.1,1.2c0,0.4-0.3,0.8-0.4,1.2s0.3,0.9,0.3,1.3s-0.2,0.8-0.2,1.2
				c0,0.4-0.2,0.8-0.1,1.1c0.1,0.4,0.4,0.7,0.5,1.1s0,0.8,0.1,1.1c0.1,0.4,0.1,0.8,0.1,1.1c0,0.4,0,0.8,0,1.1c0.1,0.4,0.2,0.7,0.5,1
				c0.2,0.2,0.5,0.5,0.9,0.7s0.9,0.3,1.3,0.4c0.4,0.2,0.9,0.1,1.3,0.3c0.4,0.1,0.8,0.5,1.2,0.6c0.4,0.1,0.9,0.2,1.3,0.3
				c0.4,0.1,1-0.2,1.4-0.1s0.8,0.4,1.2,0.6c0.4,0.1,0.8,0.3,1.3,0.4c0.4,0.1,0.9,0.1,1.3,0.1s0.9-0.1,1.3-0.1s0.9,0.1,1.3,0
				s0.9-0.1,1.3-0.1c0.4-0.1,0.9-0.1,1.3-0.1s0.8-0.5,1.2-0.6c0.4,0,0.9,0.2,1.3,0.2c0.4-0.1,0.8-0.1,1.2-0.2
				c0.4-0.1,0.8-0.2,1.2-0.3c0.4-0.1,0.7-0.4,1-0.6s0.7-0.4,1-0.6s0.7-0.4,1-0.7c0.4-0.2,0.7-0.4,1-0.7c0.3-0.3,0.5-0.7,0.7-1
				s0.7-0.6,0.8-1c0.1-0.4-0.3-0.8-0.4-1.2c-0.1-0.3,0.1-0.8,0-1.2c-0.2-0.4-0.5-0.7-0.7-1.1s-0.5-0.7-0.8-1s-0.5-0.7-0.8-1
				s-0.9-0.3-1.2-0.5c-0.3-0.2-0.7-0.4-1.1-0.5s-0.8-0.2-1.2-0.3c-0.4-0.1-0.8-0.2-1.2-0.3c-0.4-0.1-0.8-0.2-1.2-0.2
				c-0.4-0.1-0.7-0.4-1-0.5c-0.4-0.1-0.8,0-1.1-0.1c-0.4-0.1-0.8,0.1-1.2,0.1c-0.4-0.1-0.7-0.3-1.1-0.3s-0.8,0-1.2,0
				c-0.4-0.1-0.7-0.4-1.1-0.5s-0.8,0.1-1.2,0c-0.4-0.1-0.7-0.1-1.1-0.1s-0.8,0-1.1,0c-0.4,0-0.7-0.1-1.1-0.1s-0.7-0.2-1.1-0.3
				s-0.8,0.1-1.1,0.1c-0.4-0.1-0.7-0.3-1.1-0.3s-0.8-0.1-1.1-0.1c-0.5-0.1-0.3,0-0.4-0.5s-0.6-1.2-0.1-1.4c0.3-0.2,0.7,0.1,1.1,0.1
				c0.4,0.1,0.8,0.2,1.1,0.2c0.4,0,0.9-0.1,1.3-0.2c0.4-0.1,0.8-0.6,1.2-0.6c0.4-0.1,0.9,0,1.3,0s0.8,0.2,1.2,0.3
				c0.4,0,0.9-0.3,1.3-0.2c0.4,0,0.8,0.2,1.2,0.2c0.4,0,0.9-0.2,1.3-0.2s0.9,0,1.3-0.1s0.9-0.1,1.3-0.2c0.4-0.1,0.9,0,1.3-0.1
				s0.9,0,1.3,0s0.9,0.1,1.3,0c0.4,0,0.8-0.3,1.3-0.4c0.4-0.1,0.9,0,1.3-0.1s0.7-0.3,1-0.4c0.4-0.1,0.8,0.1,1.1,0
				c0.3-0.1,0.7-0.3,1-0.4c0.3-0.1,0.7,0,1.1-0.1s0.6-0.6,1-0.7c0.4-0.1,0.8,0.2,1.1,0.2c0.4-0.1,0.7-0.2,1.1-0.2
				c0.4-0.1,0.7-0.2,1-0.3c0.4-0.1,0.9-0.1,1.3-0.3s0.6-0.6,0.9-0.9c0.3-0.3,0.4-0.7,0.6-1.1c0.1-0.3,0.4-0.7,0.4-1.2
				c0.1-0.5,0.2-0.9,0.2-1.2c-0.1-0.4-0.6-0.6-0.9-0.9c-0.2-0.3-0.5-0.5-0.9-0.7c-0.3-0.2-0.5-0.6-0.9-0.8c-0.3-0.2-0.7-0.2-1.1-0.4
				c-0.3-0.2-0.7-0.4-0.9-0.6c-0.3-0.2-0.6-0.4-0.9-0.6c-0.3-0.2-0.5-0.7-0.8-0.9c-0.3-0.1-0.8,0.1-1.2,0c-0.4-0.1-0.7-0.3-1.1-0.3
				c-0.4-0.1-0.7-0.3-1.1-0.3c-0.4-0.1-0.8,0.1-1.1,0c-0.4-0.1-0.7-0.3-1.1-0.3s-0.7,0.2-1.1,0.2s-0.7-0.1-1.1-0.1s-0.7-0.2-1.1-0.2
				s-0.8,0.3-1.1,0.3c-0.4,0-0.7-0.5-1.1-0.5s-0.8,0.2-1.1,0.1c-0.4,0-0.7-0.1-1.1-0.1s-0.7,0.1-1.1,0.1s-0.7-0.2-1.1-0.2
				s-0.7,0-1.1,0.1c-0.4,0-0.7,0-1.1,0.1c-0.4,0-0.7,0.1-1.1,0.1s-0.7,0.1-1.1,0c-0.2,0-0.3-0.2-0.5-0.2c-0.4-0.1-0.8-0.3-1.2-0.5
				c-0.4-0.2-1-0.4-1-0.9s0.6-0.5,1-0.5c0.4-0.1,0.8-0.3,1.1-0.4c0.4,0,0.7-0.2,1.1-0.3c0.4,0,0.7,0,1.1,0s0.7,0,1.1-0.1
				c0.4,0,0.7,0.2,1.1,0.2s0.7-0.3,1.1-0.3s0.7,0.1,1.1,0.1s0.7,0.1,1.1,0.1s0.7-0.1,1.1,0s0.8,0.2,1.2,0.2c0.4,0,0.8,0,1.3,0
				c0.4,0,0.8-0.1,1.3-0.1c0.4,0,0.8,0,1.3,0c0.4,0,0.8-0.4,1.2-0.4c0.4,0,0.8-0.1,1.2-0.1c0.4,0,0.9,0.2,1.3,0.2s0.8-0.2,1.2-0.2
				c0.4-0.1,0.9,0,1.3,0s0.9,0,1.3,0s0.9-0.3,1.3-0.4c0.4-0.1,0.9,0,1.4,0c0.4,0,0.9-0.1,1.3-0.2c0.4,0,0.9-0.3,1.3-0.4
				c0.4-0.1,0.8-0.3,1.2-0.5c0.4-0.2,1,0,1.4-0.3c0.4-0.2,0.6-0.7,1-0.9s1-0.2,1.2-0.4c0.4-0.3,0.3-0.8,0.5-1.2
				c0.1-0.4,0.2-0.7,0-1.1c-0.1-0.3-0.2-0.8-0.5-1.1s-0.8-0.3-1.2-0.5c-0.3-0.2-0.6-0.6-0.9-0.8s-0.8-0.3-1.1-0.5
				c-0.3-0.2-0.6-0.6-1-0.7c-0.4-0.2-0.7-0.5-1-0.7c-0.4-0.1-0.9,0.2-1.3,0.1c-0.4-0.1-0.8-0.3-1.2-0.3c-0.4,0-0.8-0.3-1.2-0.3
				c-0.4,0-0.8,0.2-1.2,0.2c-0.4,0-0.8-0.2-1.2-0.2c-0.4,0-0.8,0.3-1.2,0.3c-0.4,0-0.8-0.2-1.2-0.2c-0.4,0-0.8-0.3-1.2-0.3
				c-0.4,0-0.8,0-1.2,0c-0.4,0-0.8-0.1-1.2-0.1c-0.4,0-0.8,0.2-1.2,0.2c-0.4,0-0.8-0.2-1.2-0.2c-0.4,0-0.8,0.3-1.2,0.3
				c-0.4,0-0.8,0-1.2,0.1c-0.4,0-0.8-0.2-1.2-0.2c-0.4,0-0.8-0.1-1.2,0c-0.4,0-0.8,0.3-1.2,0.4c-0.4,0-0.8,0.2-1.2,0.2
				c-0.4,0-0.8,0-1.2,0c-0.4,0-0.8,0.1-1.2,0.2c-0.4,0-0.8-0.1-1.2-0.1c-0.4,0-0.8,0.1-1.2,0.1c-0.4,0-0.8,0.1-1.2,0.1
				c-0.4,0-0.8-0.1-1.2-0.1c-0.4,0-0.8-0.1-1.2,0c-0.6,0.1-1.1,0.8-1.3,0c-0.2-0.7,0.5-0.5,1-0.8c0.3-0.2,0.5-0.6,0.9-0.7
				c0.3-0.1,0.7-0.2,1-0.3s0.6-0.4,1-0.5c0.3-0.1,0.7-0.2,1.1-0.3s0.8,0.1,1.1,0c0.4-0.1,0.8-0.3,1.1-0.6c0.2-0.3,0-0.8,0.1-1.2
				s0.4-0.7,0.4-1.1c0-0.4,0-0.7,0-1.1c0-0.4,0.1-0.7,0.1-1.1c0-0.4-0.3-0.8-0.2-1.1c0.1-0.4,0.4-0.7,0.5-1s0.2-0.7,0.3-1.1
				c0.2-0.3,0.5-0.6,0.7-0.9c0.1-0.3,0-0.8,0.1-1.1c0.1-0.4,0.4-0.7,0.5-1c0-0.4,0-0.7,0-1.1c0-0.4-0.1-0.7-0.1-1.1
				c0-0.4,0-0.8,0.1-1.1c0.1-0.4,0.6-0.6,0.6-1c0.1-0.4,0-0.7,0.1-1.1c0.1-0.4,0-0.7,0-1.1c0.1-0.4,0.1-0.7,0.2-1.1
				c0.1-0.4,0.1-0.8,0.2-1.1s0.3-0.7,0.5-1s0.7-0.5,0.8-0.9c0.1-0.3,0.2-0.8,0.2-1.1c0-0.1-0.2-0.2-0.2-0.3c0.1-0.7-0.2-1-0.5-1.2
				c-0.2-0.3-0.5-0.5-1.2-0.5c-0.4,0-0.9-0.1-1.3-0.1s-0.9-0.2-1.3-0.2s-0.9,0.1-1.3,0.2c-0.4,0-0.9,0.1-1.3,0.1s-0.9,0-1.3,0
				s-0.9,0.2-1.3,0.2s-0.9-0.3-1.3-0.3s-0.9,0.1-1.3,0.1s-0.9,0.1-1.3,0c-0.4,0-0.8-0.2-1.3-0.3c-0.4-0.1-0.8-0.2-1.3-0.3
				c-0.4,0-0.9,0.3-1.3,0.3s-0.8-0.1-1.2,0c-0.4,0-0.8,0.2-1.1,0.2c-0.4,0-0.8,0-1.2,0c-0.4,0-0.8-0.2-1.2-0.2
				c-0.4,0-0.7-0.2-1.1-0.3s-0.8,0.1-1.2,0c-0.4-0.1-0.7-0.3-1.1-0.4c-0.4-0.1-0.8,0.2-1.2,0.2c-0.4,0-0.8-0.1-1.2-0.1
				c-0.4,0-0.8,0-1.2,0c-0.4,0.1-0.7,0.3-1.1,0.3s-0.8-0.3-1.2-0.3c-0.4,0-0.8,0.5-1.2,0.5c-0.4,0-0.8-0.2-1.2-0.2
				c-0.4,0-0.8,0-1.2,0s-0.8,0.1-1.2,0.1s-0.7-0.4-1.1-0.4c-0.4,0-0.8,0-1.1,0c-0.4,0-0.8,0-1.1,0c-0.4,0-0.7,0-1.1,0
				c-0.4,0-0.8,0.3-1.2,0.3c-0.4-0.1-0.8-0.1-1.1-0.1c-0.4-0.1-0.7-0.3-1.1-0.4c-0.4-0.1-0.8-0.1-1.1-0.1c-0.4,0-0.8-0.1-1.1-0.1
				c-0.4,0-0.8,0.1-1.1,0.1c-0.4,0-0.8-0.2-1.1-0.2c-0.4,0-0.8,0-1.1,0c-0.4,0-0.8,0.3-1.1,0.2c-0.4,0-0.8-0.1-1.1-0.1
				c-0.4,0-0.7-0.2-1.1-0.2c-0.4,0-0.8,0.1-1.1,0.1c-0.4,0-0.8,0-1.2,0s-0.8,0-1.2,0s-0.8,0.2-1.2,0.2s-0.8,0-1.2,0.1
				c-0.4,0-0.8-0.4-1.2-0.4s-0.8,0.2-1.2,0.2s-0.8,0.2-1.2,0.1c-0.4,0-0.8,0-1.2-0.1c-0.4,0-0.8-0.1-1.2-0.2c-0.4,0-0.7-0.4-1.1-0.4
				c-0.7-0.1-1.3,0-1.5-0.3s0.2-0.9,0.2-1.5c0-0.4-0.2-0.9-0.2-1.3c0-0.4-0.2-0.8-0.3-1.3c0-0.4,0-0.9,0-1.3c0-0.4,0.1-0.9,0.2-1.3
				c0-0.4,0.3-0.8,0.4-1.2s0.2-0.8,0.3-1.3c0.1-0.4-0.1-0.9,0-1.3c0.1-0.4,0.2-0.8,0.2-1.3c0-0.4,0.4-0.8,0.5-1.2
				c0.1-0.4,0.1-0.9,0.2-1.3c0.1-0.4,0-0.9,0.1-1.3c0.1-0.4,0.4-0.8,0.4-1.2s0-0.7,0-1.1c0-0.4,0-0.7,0-1.1c0-0.4,0.1-0.7,0.1-1.1
				c0-0.4-0.2-0.8-0.2-1.1c0-0.4,0.1-0.7,0.1-1.1c0-0.4,0.3-0.7,0.4-1.1c0-0.4-0.1-0.8-0.1-1.1c0-0.4,0.1-0.7,0.2-1.1
				c0-0.4,0.1-0.7,0.1-1.1c0-0.4,0.4-0.7,0.4-1.1c0-0.4-0.3-0.8-0.3-1.1c0-0.4,0.2-0.7,0.1-1.1c0-0.4,0-0.7,0-1.1
				c0-0.4-0.3-0.7-0.3-1.1c0-0.4,0.4-0.7,0.5-1.1c0-0.4-0.1-0.9-0.1-1.3c0.1-0.4,0-0.9,0.1-1.3c0.1-0.4,0.3-0.8,0.3-1.3
				c0.1-0.4,0-0.9,0.1-1.3c0-0.4,0.3-0.9,0.4-1.3c0.1-0.4,0-0.9,0-1.3c0.1-0.4,0.1-0.9,0.2-1.3c0.1-0.4,0.5-0.8,0.5-1.3
				c0-0.4-0.2-0.9-0.2-1.3c0-0.4,0.3-0.9,0.3-1.3c0-0.4,0-0.9,0-1.3c0-0.4,0-0.9,0-1.3c0-0.4,0.1-0.8,0.1-1.2s0-0.8-0.1-1.2
				c0-0.4-0.1-0.8-0.1-1.2s0.3-0.8,0.4-1.2c0-0.4,0.1-0.8,0.1-1.2s0-0.8,0.1-1.2s0.1-0.8,0.1-1.2s-0.2-0.8-0.2-1.2s0.5-0.8,0.5-1.2
				c0.1-0.4-0.3-0.9-0.2-1.3c0.1-0.4,0.2-0.8,0.3-1.2s0.1-0.8,0.1-1.2s0.1-0.8,0.1-1.2c0.1-0.4,0.1-0.8,0.2-1.2
				c0.1-0.4,0.4-0.8,0.5-1.1c0.1-0.4,0.1-0.8,0.1-1.2c0-0.4,0.1-0.8,0.1-1.2c0-0.4-0.1-0.8,0-1.2c0-0.4,0.4-0.8,0.4-1.2
				c0-0.4,0-0.8,0.1-1.2c0-0.4-0.2-0.8-0.2-1.2c0.1-0.4,0-0.8,0-1.1c0.1-0.4,0.2-0.7,0.2-1.1c0.1-0.4,0.5-0.7,0.6-1.1
				c0-0.4-0.2-0.8-0.1-1.2c0-0.4,0.3-0.7,0.3-1.1s-0.2-0.8-0.2-1.2c0-0.4,0.3-0.7,0.4-1.1c0-0.4,0.2-0.8,0.2-1.1
				c0-0.4-0.1-0.8-0.1-1.1c0-0.4,0-0.8,0-1.1c0-0.4-0.3-0.8-0.2-1.1c0-0.4,0.3-0.7,0.3-1.1s0-0.8,0-1.1c0-0.4,0.3-0.7,0.3-1.1
				s0-0.8,0.1-1.1c0-0.4-0.2-0.8-0.2-1.2c0-0.4,0.2-0.7,0.3-1.1c0-0.4-0.2-0.8-0.2-1.2c0-0.4,0.6-0.7,0.6-1.1s0-0.8,0.1-1.2
				c0.1-0.4,0.2-0.7,0.3-1.1s0.1-0.8,0.2-1.2c0.1-0.4,0.2-0.8,0.2-1.2c0-0.4,0.2-0.8,0.2-1.2c0-0.4,0.2-0.8,0.2-1.2
				c0-0.4-0.3-0.8-0.3-1.2c0-0.4,0.4-0.7,0.4-1.1s-0.3-0.8-0.2-1.2c0-0.4,0.3-0.8,0.3-1.2c0-0.4,0-0.8,0.1-1.2
				c0-0.4,0.2-0.8,0.3-1.1c0-0.4-0.3-0.8-0.2-1.2c0.1-0.4,0.6-0.7,0.6-1.1c0.1-0.4,0.1-0.8,0.2-1.2c0.1-0.4,0-0.8,0.1-1.2
				c0-0.4-0.1-0.8,0-1.2c0.1-0.4,0.2-0.7,0.3-1.1s0.2-0.7,0.3-1.1s0.1-0.7,0.2-1.1c0-0.4,0.2-0.7,0.2-1.1s-0.1-0.8-0.1-1.2
				c0-0.4,0-0.8,0-1.2c0-0.4,0-0.8,0-1.2c0-0.4,0-0.8,0.1-1.2c0.1-0.4,0.3-0.7,0.4-1.1c0.1-0.4,0-0.8,0.1-1.2
				c0.1-0.4,0.1-0.7,0.2-1.1c0-0.4,0.1-0.8,0.2-1.1c0.1-0.4,0.2-0.7,0.2-1.1c0.1-0.4,0.5-0.7,0.5-1.1c0.1-0.4-0.4-0.8-0.3-1.2
				c0-0.4,0.1-0.8,0.2-1.1c0.1-0.4,0.3-0.7,0.4-1.1c0.1-0.4,0.3-0.7,0.3-1.1c0.1-0.4,0.1-0.7,0.2-1.1c0-0.4-0.1-0.8-0.1-1.2
				s0.4-0.8,0.4-1.1c0-0.4,0-0.8,0.1-1.1c0-0.4,0.1-0.7,0.1-1.1c0-0.4,0.1-0.7,0.2-1.1c0.1-0.4-0.1-0.8,0-1.2s0.3-0.7,0.4-1.1
				c0.1-0.4-0.2-0.8-0.2-1.2c0.1-0.4,0.4-0.8,0.4-1.2s0-0.8,0-1.2s-0.1-0.8-0.1-1.2s-0.2-0.8-0.1-1.2c0.1-0.4,0.1-0.8,0.2-1.2
				c0.1-0.4,0.6-0.7,0.7-1c0.1-0.4,0-0.9,0.1-1.3c0.1-0.4,0.2-0.8,0.3-1.2s0-0.8,0.1-1.2c0-0.4,0.3-0.8,0.3-1.2s0.2-0.8,0.3-1.2
				c0-0.4,0-0.8,0-1.2c0.1-0.4-0.1-0.8-0.1-1.2s0.3-0.8,0.3-1.2s0.3-0.8,0.3-1.2c0-0.4,0-0.8,0-1.2c0.1-0.4,0.1-0.8,0.1-1.2
				c0-0.4-0.1-0.8-0.1-1.2c0-0.4,0.2-0.8,0.2-1.2c0-0.4,0.2-0.8,0.3-1.2c0.1-0.4,0.1-0.8,0.1-1.2c0.1-0.4,0.3-0.8,0.3-1.2
				c0.1-0.4,0.2-0.8,0.2-1.2c0.1-0.4,0-0.8,0.1-1.2c0.1-0.4,0.2-0.8,0.2-1.2c0-0.4-0.4-0.8-0.4-1.2c0-0.4,0.4-0.8,0.5-1.2
				c0-0.4-0.3-0.8-0.3-1.2c0.1-0.4,0.1-0.7,0.2-1.1c0.1-0.4,0.3-0.7,0.4-1c0.1-0.4,0.5-0.6,0.6-1s0-0.8,0-1.1c0.1-0.4,0.4-0.7,0.4-1
				c0.1-0.4-0.3-0.8-0.3-1.1c0-0.4,0-0.7,0-1.1c0-0.4,0.4-0.7,0.4-1.1s-0.5-0.7-0.5-1.1s0.1-0.8,0.1-1.1c0.1-0.6,0.2-1.1,0.4-1.4
				c0.2-0.4,0.8-0.5,1.4-0.4c0.4,0,0.8,0.4,1.3,0.4c0.5,0.1,1-0.9,1.5-0.9c0.4,0,0.8,0.3,1.2,0.3s0.8,0,1.2,0s0.8,0.1,1.2,0.1
				s0.8,0.1,1.2,0.1s0.8-0.2,1.2-0.2S37.7,4,38.1,4s0.8-0.3,1.1-0.3c0.4,0,0.8-0.1,1.2-0.1c0.4,0,0.8,0.4,1.2,0.4
				c0.4,0,0.8-0.5,1.2-0.5c0.4,0,0.8,0,1.2,0c0.4,0,0.8,0.1,1.2,0.1c0.4,0,0.8,0.1,1.2,0.1c0.4,0,0.8,0,1.2,0.1
				C48,3.9,48.4,4,48.7,4c0.4,0,0.8-0.1,1.2-0.1c0.4,0,0.8,0,1.1,0c0.4,0,0.8,0,1.2-0.1c0.4-0.1,0.8-0.1,1.2-0.2c0.4,0,0.8,0,1.2,0
				c0.4,0,0.8,0,1.2,0c0.4,0,0.8,0.1,1.2,0.1c0.4,0,0.8-0.3,1.1-0.3c0.4,0,0.8,0.4,1.2,0.4c0.4,0,0.8-0.2,1.2-0.2
				c0.4,0,0.8-0.1,1.2-0.1c0.4,0,0.8,0.3,1.1,0.4c0.4,0,0.8-0.2,1.2-0.2c0.4,0,0.8,0.3,1.1,0.3c0.4,0,0.8-0.3,1.2-0.2
				c-0.4-0.9,0-0.8,0.4-0.8c0.4,0,0.8,0.3,1.1,0.3c0.4,0,0.8-0.3,1.1-0.4c0.4,0,0.8,0.4,1.2,0.3c0.4,0,0.8-0.2,1.1-0.2
				c0.4,0,0.8-0.2,1.2-0.2c0.4,0,0.8,0.2,1.2,0.2c0.4,0,0.8,0.1,1.2,0c0.4,0,0.8-0.4,1.2-0.4c0.4,0,0.8,0.3,1.2,0.3
				c0.4,0,0.8-0.3,1.2-0.3c0.4,0,0.7,0.3,1.1,0.4c0.4,0,0.8,0.2,1.1,0.3c0.4,0,0.8-0.2,1.2-0.2C82.2,3.1,82.6,3,83,3
				c0.4,0,0.8,0,1.2,0c0.4,0,0.8-0.3,1.1-0.3c0.4,0,0.8,0,1.2,0c0.4,0,0.7,0.4,1.1,0.5c0.4,0,0.8,0.1,1.1,0.2
				c0.4,0.1,0.8,0.1,1.2,0.2c0.4,0,0.8-0.2,1.2-0.2c0.4,0,0.8-0.1,1.2-0.1c0.4,0,0.8-0.1,1.2-0.2c0.4,0,0.8,0.4,1.2,0.4
				c0.4,0,0.8-0.2,1.2-0.2c0.4,0,0.8-0.1,1.2-0.1c0.4-0.1,0.8-0.1,1.2-0.1c0.4-0.1,0.8-0.3,1.2-0.4c0.4-0.1,0.8,0,1.2,0
				c0.4,0,0.8-0.1,1.2-0.1s0.8,0.4,1.2,0.4s0.8,0.1,1.2,0.1s0.8-0.2,1.2-0.2s0.8,0,1.2,0.1s0.8,0.1,1.2,0.2c0.4,0.1,0.8,0.2,1.2,0.3
				s0.8-0.1,1.2-0.1s0.8,0.2,1.2,0.2s0.8-0.1,1.2-0.1s0.8-0.1,1.2-0.1s0.8,0.1,1.2,0.1s0.8,0.3,1.2,0.2s0.7-0.5,1.1-0.6
				c0.4-0.1,0.8,0,1.2,0c0.4-0.1,0.8-0.2,1.2-0.2s0.8,0.1,1.2,0.2c0.4,0.1,0.8,0,1.2,0.1s0.8,0.2,1.2,0.3s0.8,0.1,1.2,0.1
				s0.8,0.4,1.2,0.4s0.7-0.6,1.1-0.6c0.4-0.1,0.8,0,1.2-0.1c0.4,0,0.8,0.1,1.2,0.1s0.8,0.1,1.2,0.1s0.8-0.3,1.2-0.3s0.8,0.3,1.2,0.3
				s0.8-0.3,1.2-0.3s0.8-0.1,1.2-0.1s0.8,0.3,1.2,0.3s0.8-0.1,1.2-0.1s0.8,0.2,1.2,0.3c0.4,0,0.8-0.2,1.2-0.2s0.8,0.2,1.2,0.3
				c0.4,0,0.8,0,1.2,0s0.8,0.3,1.2,0.3s0.8,0,1.2,0s0.8,0,1.2-0.1c0.4,0,0.8-0.1,1.2-0.1s0.8-0.5,1.2-0.5s0.8,0.4,1.2,0.4
				s0.8,0.1,1.2,0.1s0.8-0.1,1.2-0.1s0.8-0.2,1.2-0.2s0.8-0.1,1.2-0.1s0.8,0.2,1.2,0.2s0.8,0.2,1.2,0.2s0.8-0.2,1.2-0.2
				s0.8,0.1,1.2,0.1c0.4,0.1,0.8-0.1,1.2,0s0.7,0.6,1.1,0.6c0.4,0.1,0.8-0.2,1.2-0.2s0.8,0.2,1.2,0.2s0.8-0.2,1.2-0.2
				c0.4-0.1,0.8-0.1,1.2-0.2c0.4,0,0.8,0,1.2,0s0.8,0,1.2,0.1c0.4,0.1,0.8,0,1.2,0.1s0.7,0.3,1.1,0.3c0.4,0.1,0.8-0.1,1.2-0.1
				s0.8,0.1,1.2,0.1s0.8-0.2,1.2-0.3c0.4-0.1,0.8,0.1,1.2,0c0.4,0,0.8-0.3,1.2-0.3s0.8,0.4,1.1,0.5c0.4,0,0.8,0.1,1.2,0.2
				s0.8,0.1,1.2,0.2c0.4,0,0.8-0.2,1.2-0.2s0.8,0,1.2,0c0.4-0.1,0.7-0.3,1.1-0.4c0.4-0.1,0.8-0.1,1.2-0.1c0.4-0.1,0.8,0.1,1.2,0.1
				s0.8,0.1,1.2,0.1s0.8,0.2,1.2,0.2s0.8,0.1,1.2,0.1s0.8-0.3,1.2-0.3s0.8,0.1,1.1,0.1c0.4,0,0.8,0.1,1.1,0.1
				c0.4,0.1,0.6,0.4,0.8,0.7c0.2,0.2,0.4,0.5,0.5,1c0.1,0.3,0.3,0.6,0.3,1.1c0.1,0.4-0.3,0.8-0.3,1.2s0.1,0.7,0.1,1.1
				c0,0.4-0.1,0.8-0.1,1.1c0,0.4,0.1,0.8,0.1,1.1c0,0.4,0.1,0.8,0,1.1c0,0.4-0.3,0.7-0.4,1.1c0,0.4-0.2,0.8-0.2,1.1
				c0,0.4,0.2,0.8,0.2,1.2s-0.2,0.8-0.3,1.1c0,0.4,0,0.8,0,1.2c0,0.4,0.1,0.8,0.1,1.2c0,0.4,0,0.9,0,1.3s0,0.9,0,1.3
				s-0.2,0.9-0.2,1.3s-0.3,0.9-0.3,1.3s0,0.9,0.1,1.3c0,0.4,0.2,0.9,0.2,1.3s0,0.9,0.1,1.3c0,0.4-0.2,0.9-0.3,1.3
				c0,0.4,0.3,0.9,0.2,1.3s-0.5,0.8-0.6,1.2c-0.1,0.4,0.1,0.9,0,1.3c-0.1,0.4-0.3,0.8-0.4,1.3c0,0.5,0.4,0.9,0.4,1.4
				s-0.4,0.9-0.4,1.3c0,0.5,0.2,0.9,0.1,1.4c0,0.5-0.4,0.9-0.5,1.3c-0.1,0.4-0.1,0.9-0.1,1.4c-0.1,0.4,0,0.9,0,1.4s-0.3,0.9-0.4,1.3
				c-0.1,0.4-0.3,0.9-0.4,1.3c-0.1,0.4-0.2,0.9-0.2,1.4c0,0.4,0.4,0.8,0.4,1.2s-0.4,0.7-0.4,1.1c0,0.4,0.2,0.8,0.1,1.2
				c0,0.4-0.1,0.8-0.2,1.1c0,0.4-0.4,0.8-0.3,1.2c0,0.4,0.4,0.7,0.4,1.1c0.1,0.4,0,0.8,0,1.2s0.3,0.8,0.3,1.2s-0.5,0.7-0.6,1.1
				c-0.1,0.4,0.2,0.8,0.1,1.2c-0.1,0.4-0.4,0.7-0.5,1.1c-0.1,0.4,0,0.8-0.1,1.2c0,0.4-0.1,0.7-0.2,1.1c-0.1,0.4-0.1,0.7-0.2,1.1
				c-0.1,0.4-0.4,0.7-0.4,1.1c-0.1,0.4-0.1,0.8-0.1,1.1c0,0.4,0.1,0.8,0.1,1.2c0,0.4,0,0.8,0,1.1c0,0.4,0.4,0.7,0.4,1.1
				s0.1,0.8,0,1.1c0,0.4-0.2,0.7-0.3,1.1c0,0.4-0.2,0.7-0.2,1.1s0.1,0.8,0,1.1c0,0.4,0.1,0.8,0.1,1.1c0,0.4-0.1,0.7-0.2,1.1
				c-0.1,0.3-0.4,0.6-0.5,1c-0.1,0.3-0.3,0.7-0.4,1c-0.1,0.3,0.2,0.8,0.1,1.1c0,0.4-0.2,0.7-0.1,1.1c0,0.4,0.1,0.7,0.1,1.1
				c0.1,0.4,0.2,0.7,0.3,1c0,0.4,0.2,0.7,0.2,1.1s-0.4,0.7-0.4,1c-0.1,0.3-0.2,0.7-0.2,1c-0.1,0.3,0.1,0.7,0.1,1.1
				c-0.1,0.3-0.1,0.7-0.1,1c0,0.4-0.2,0.7-0.2,1.1c-0.1,0.4,0.1,0.8,0,1.1c-0.1,0.3-0.5,0.6-0.6,1s-0.1,0.7-0.1,1.1
				s-0.2,0.7-0.2,1.1s0,0.7,0.1,1.1c0,0.4,0.5,0.7,0.5,1c0,0.4-0.3,0.7-0.3,1.1s-0.1,0.7-0.2,1.1c0,0.4,0.1,0.7,0.1,1.1
				s0.1,0.7,0.1,1.1s-0.3,0.7-0.3,1c0,0.4,0.2,0.8,0.2,1.2c0,0.4-0.1,0.8-0.1,1.1c-0.1,0.4-0.3,0.7-0.4,1.1c0,0.4,0.1,0.8,0,1.1
				c0,0.4-0.4,0.7-0.5,1.1s0.1,0.8,0,1.2c-0.1,0.4-0.2,0.7-0.2,1.1c-0.1,0.4-0.4,0.7-0.4,1.1s0,0.8,0.1,1.2c0.1,0.4,0.2,0.8,0.2,1.2
				c0.1,0.4,0.3,0.7,0.4,1.1c0.1,0.4-0.1,0.8-0.1,1.1c0,0.4,0,0.9-0.1,1.3s-0.1,0.9-0.2,1.3c-0.1,0.4-0.1,0.9-0.2,1.3
				c-0.1,0.4-0.1,0.9-0.2,1.3c0,0.4-0.1,0.9-0.2,1.3c-0.1,0.4-0.3,0.8-0.3,1.3c-0.1,0.4,0,0.9-0.1,1.3s-0.2,0.9-0.2,1.3
				s-0.2,0.8-0.2,1.2c0,0.4,0.4,0.8,0.4,1.2c0,0.4-0.3,0.8-0.3,1.2c0,0.4,0.1,0.8,0.1,1.2c0,0.4,0.1,0.8,0,1.2c0,0.4,0,0.8-0.1,1.2
				c0,0.4-0.2,0.8-0.3,1.2c0,0.4,0,0.8-0.1,1.2c0,0.4,0,0.8-0.1,1.2s-0.3,0.8-0.4,1.2c-0.1,0.4-0.2,0.8-0.2,1.2
				c-0.1,0.4-0.1,0.8-0.1,1.2s-0.1,0.9-0.2,1.3s0,0.9,0,1.4c0,0.4,0.2,0.9,0.2,1.4s-0.2,0.9-0.2,1.3c0,0.4-0.3,0.7-0.3,1.1
				c0,0.4,0.3,0.7,0.3,1.1c0,0.4-0.1,0.7-0.1,1.1c0,0.4,0.1,0.7,0.2,1.1c0,0.4-0.1,0.7-0.1,1.1c0,0.4,0.3,0.8,0.2,1.2
				s-0.1,0.8-0.1,1.2s-0.2,0.8-0.3,1.1c0,0.4,0.1,0.8,0.1,1.2s-0.2,0.8-0.3,1.1c0,0.4,0.1,0.8,0,1.2c0,0.4-0.3,0.7-0.4,1.1
				c0,0.4,0.3,0.8,0.3,1.2s-0.2,0.8-0.2,1.1c0,0.4-0.3,0.8-0.3,1.1c0,0.4-0.1,0.9-0.1,1.3c0,0.4-0.2,0.9-0.2,1.3
				c0,0.4,0.1,0.9,0,1.4c0,0.4,0,0.9-0.1,1.3c0,0.4-0.1,0.7-0.2,1.1c0,0.4-0.2,0.7-0.2,1.1c-0.1,0.4,0,0.7,0,1.1
				c-0.1,0.4-0.3,0.7-0.3,1.1c0,0.4,0.2,0.7,0.2,1.1c0,0.4-0.3,0.8-0.4,1.2c0,0.4,0.2,0.8,0.2,1.2c-0.1,0.4-0.4,0.7-0.5,1.1
				c-0.1,0.4-0.1,0.8-0.2,1.2c0,0.4-0.2,0.8-0.2,1.2s0.2,0.8,0.2,1.2s0,0.8-0.1,1.2c0,0.4-0.2,0.8-0.2,1.2s0.1,0.8,0,1.2
				c0,0.4,0,0.8,0,1.2s-0.1,0.7-0.1,1.1c0,0.4,0.1,0.7,0.1,1.1c0,0.4,0.1,0.7,0.1,1.1c0,0.4,0,0.7,0,1.1c0,0.4,0,0.7,0,1.1
				c0,0.4-0.3,0.7-0.3,1.1c-0.1,0.4,0,0.7,0,1.1c-0.1,0.4-0.2,0.7-0.3,1.1c-0.1,0.4,0,0.7,0,1.1c-0.1,0.4-0.1,0.7-0.1,1.1
				c0,0.4,0,0.7-0.1,1.1c0,0.4-0.2,0.7-0.2,1.1c0,0.4,0.3,0.8,0.2,1.1c0,0.4-0.4,0.7-0.4,1.1c0,0.4,0,0.8,0,1.1
				c0,0.4-0.1,0.8-0.2,1.1c-0.2,0.3-0.5,0.7-0.9,0.8s-0.8-0.1-1.1,0c-0.4,0-0.7,0.1-1.1,0.2c-0.4,0-0.8-0.3-1.1-0.3
				c-0.4,0-0.7,0.4-1.1,0.4c-0.4,0-0.7-0.1-1.1-0.2c-0.4,0-0.8,0-1.1,0c-0.4-0.1-0.7-0.4-1.1-0.5c-0.4-0.1-0.8,0.1-1.1,0.1
				c-0.5,0-1-0.2-1.4-0.2c-0.5,0-1,0.3-1.4,0.3s-0.7-0.4-1.1-0.5c-0.4-0.1-0.8,0.3-1.2,0.2s-0.7-0.5-1.1-0.6
				c-0.4-0.1-0.8,0.1-1.2,0.1s-0.8-0.1-1.1-0.1c-0.4,0-0.8,0.1-1.1,0.1c-0.4,0-0.8,0.1-1.1,0c-0.4,0-0.8,0-1.1,0
				c-0.4,0-0.8-0.1-1.1-0.1c-0.4,0-0.8,0-1.1-0.1c-0.4,0-0.7-0.2-1.1-0.3c-0.4,0-0.8,0.1-1.2,0.1s-0.8-0.2-1.1-0.2
				c-0.4,0-0.8-0.1-1.1-0.1c-0.4,0-0.8,0.3-1.2,0.3s-0.8-0.1-1.1-0.1c-0.4,0-0.7-0.4-1.1-0.4c-0.4,0-0.8,0-1.1,0
				c-0.4,0-0.7,0.1-1.1,0.1c-0.4,0-0.7,0.3-1.1,0.3c-0.4,0-0.7,0.1-1.1,0.1c-0.4,0-0.7,0.2-1.1,0.2c-0.4,0-0.8-0.3-1.1-0.3
				c-0.4,0-0.7,0.4-1.1,0.4c-0.4,0-0.7,0.1-1.1,0.1c-0.4,0-0.7-0.4-1.1-0.4c-0.4,0-0.7-0.1-1.1-0.2c-0.4-0.1-0.7-0.2-1.1-0.2
				c-0.4-0.1-0.8,0-1.1-0.1c-0.4-0.1-0.8,0.1-1.2,0.1c-0.4-0.1-0.7-0.1-1.1-0.1c-0.4,0-0.8-0.4-1.2-0.4s-0.8,0.2-1.2,0.2
				s-0.8,0-1.2,0s-0.8,0.1-1.2,0.1s-0.8-0.3-1.2-0.3s-0.8,0.1-1.2,0.2c-0.4,0.1-0.7,0.4-1.1,0.4c-0.4,0-0.8,0-1.2-0.1
				c-0.4,0-0.8,0.1-1.2,0.1s-0.8,0.1-1.2,0.1s-0.7-0.4-1.1-0.4c-0.4,0-0.8-0.1-1.2-0.2c-0.4,0-0.8,0-1.1-0.1c-0.4-0.1-0.8,0-1.2-0.1
				s-0.7-0.2-1.1-0.3c-0.4-0.1-0.8-0.3-1.2-0.3s-0.8,0-1.2,0s-0.8-0.1-1.2-0.1s-0.8,0.1-1.2,0.1s-0.8-0.1-1.1-0.1
				c-0.5,0-0.9,0.4-1.4,0.5c-0.5,0-0.9,0.1-1.4,0.1s-0.9-0.4-1.4-0.4s-0.9,0.1-1.4,0s-0.9-0.1-1.4-0.2c-0.5-0.1-0.9-0.4-1.3-0.4
				c-0.5,0-0.9,0.4-1.4,0.5s-0.9,0.1-1.4,0.1c-0.5,0.1-0.9-0.1-1.4-0.1c-0.4,0-0.8,0.3-1.2,0.3c-0.4,0-0.8-0.2-1.2-0.2
				c-0.4,0-0.8-0.1-1.2-0.1c-0.4,0-0.8,0-1.2,0c-0.4,0-0.8,0-1.2,0c-0.4,0-0.8,0.1-1.2,0.1c-0.4,0-0.8-0.2-1.2-0.2
				c-0.4,0-0.8,0.1-1.2,0.1c-0.4,0-0.8-0.1-1.2-0.2c-0.4,0-0.8-0.1-1.2-0.2c-0.4,0-0.8,0.2-1.2,0.2s-0.8-0.2-1.2-0.2
				c-0.4,0-0.8,0.1-1.2,0c-0.4-0.1-0.8-0.2-1.2-0.3c-0.4-0.1-0.7-0.3-1.1-0.4c-0.4-0.1-0.8-0.2-1.2-0.2c-0.4,0-0.8,0.3-1.1,0.3
				c-0.5,0-0.9-0.3-1.2-0.2c-0.3,0.2-0.2,0.7-0.3,1.1c-0.1,0.3-0.3,0.6-0.4,1c-0.1,0.3-0.2,0.7-0.3,1.1c-0.1,0.4-0.2,0.8-0.3,1.2
				c-0.1,0.4,0.1,0.8,0,1.2s-0.5,0.7-0.5,1.1c-0.1,0.4,0,0.8,0,1.2c-0.1,0.4-0.1,0.8-0.2,1.2c0,0.4-0.1,0.8-0.1,1.2
				s-0.2,0.8-0.3,1.2c0,0.4-0.1,0.8-0.2,1.2s0.2,0.8,0.1,1.2s-0.1,0.8-0.2,1.2s-0.1,0.8-0.2,1.2s-0.1,0.8-0.2,1.2s-0.2,0.8-0.3,1.2
				c-0.1,0.4-0.4,0.7-0.4,1.1c-0.1,0.4-0.1,0.8-0.2,1.2s-0.3,0.8-0.4,1.2c-0.1,0.6,0.1,1,0.2,1.2c0.1,0.4,0.2,0.5,0.8,0.5
				c0.3,0,0.7-0.1,1.2,0c0.4,0,0.8,0,1.1,0c0.4,0,0.7,0.3,1.1,0.3s0.7,0.3,1.1,0.3s0.8-0.3,1.1-0.3c0.4,0,0.7,0.3,1.1,0.3
				c0.4,0.1,0.8,0.1,1.1,0.2c0.4,0.1,0.8,0,1.1,0.1c0.4,0.1,0.7,0.1,1.1,0.1s0.8,0.3,1.1,0.3c0.4,0,0.8-0.1,1.1-0.1
				c0.4,0,0.8,0.1,1.1,0.1c0.4,0,0.8-0.4,1.2-0.3c0.4,0,0.7,0.4,1.1,0.5s0.8-0.1,1.2,0.1c0.4,0.1,0.7,0.3,1.1,0.4
				c0.4,0.1,0.7,0.2,1.1,0.3s0.7,0.3,1.1,0.4c0.4,0.1,0.7,0.3,1,0.5c0.4,0.1,0.7,0.3,1,0.5c0.3,0.1,0.6,0.4,1,0.5
				c0.3,0.2,0.9-0.1,1.2,0.1c0.3,0.2,0.5,0.7,0.8,0.9c0.4,0.2,0.9,0.3,1.2,0.6c0.4,0.3,0.9,0.4,1.2,0.7c0.3,0.3,0.5,0.9,0.7,1.2
				c0.2,0.4,0.2,0.8,0.2,1.3c0,0.4,0.2,0.8,0,1.1c-0.1,0.3-0.3,0.7-0.5,1s-0.3,0.7-0.6,1c-0.2,0.3-0.8,0.2-1.1,0.4
				c-0.3,0.2-0.3,0.8-0.7,1c-0.4,0.2-0.9,0.1-1.3,0.3s-0.8,0.4-1.2,0.5c-0.4,0.1-0.8,0.1-1.3,0.2c-0.4,0.1-0.8,0.3-1.2,0.4
				c-0.4,0.1-0.8,0.1-1.2,0.2c-0.3,0.1-0.6,0.3-1,0.4c-0.3,0.1-0.7,0.1-1,0.2c-0.3,0.1-0.7,0.1-1,0.2c-0.3,0.1-0.6,0.4-1,0.4
				c-0.3,0.1-0.5-0.3-0.5,0.1c0,0.3,0.4-0.2,0.6-0.1c0.3,0.1,0.5,0.6,0.8,0.8s0.7,0.2,1.1,0.4c0.3,0.2,0.6,0.4,0.9,0.6
				c0.3,0.2,0.5,0.7,0.8,0.8c0.4,0.2,0.9,0.2,1.2,0.5c0.4,0.3,0.8,0.5,1,0.8c0.3,0.3,0.3,0.8,0.5,1.2s0.4,0.7,0.5,1.2
				c0.1,0.4,0.5,0.8,0.6,1.2c0,0.4-0.2,0.8-0.1,1.2s0.1,0.9,0.1,1.3c0.3-0.1,0.7-0.4,1-0.5c0.3-0.2,0.4-0.5,0.6-0.7
				c0.2-0.3,0.6-0.5,0.8-0.8c0.2-0.3,0.4-0.7,0.6-1s0.5-0.6,0.7-0.9c0.2-0.3,0.4-0.7,0.7-1c0.3-0.3,0.8-0.3,1.1-0.5
				c0.3-0.2,0.6-0.5,1-0.7s0.8-0.2,1.1-0.4c0.4-0.2,0.7-0.3,1-0.5s0.8-0.1,1.2-0.3c0.3-0.2,0.6-0.5,1-0.6s0.6-0.5,1-0.6
				s0.8,0,1.2-0.1s0.7-0.4,1.1-0.5c0.4-0.1,0.7-0.3,1.1-0.4c0.4-0.1,0.8,0.1,1.2,0s0.8,0,1.1-0.1c0.4,0,0.8-0.2,1.2-0.2
				s0.8,0.3,1.2,0.4c0.4,0,0.8,0,1.2,0.1s0.8,0.1,1.2,0.2c0.4,0.1,0.7,0.4,1.1,0.5c0.4,0.1,0.8,0.2,1.1,0.4c0.4,0.2,0.8,0.2,1.2,0.4
				c0.3,0.2,0.5,0.7,0.8,1s0.4,0.7,0.6,1c0.2,0.3,0.8,0.4,1,0.8c0.2,0.3,0.3,0.7,0.5,1.1c0.2,0.4,0.2,0.8,0.3,1.2
				c0.1,0.3,0.5,0.6,0.7,0.9c0.2,0.3,0.2,0.7,0.4,1s0.1,0.7,0.3,1.1c0.1,0.3,0.3,0.7,0.4,1c0.1,0.3,0.3,0.7,0.4,1
				c0.1,0.3,0.2,0.7,0.3,1s0.2,0.7,0.3,1.1c0.1,0.4,0.4,0.7,0.5,1c0.1,0.4-0.2,0.8-0.1,1.2c0.1,0.4,0.3,0.7,0.3,1
				c0.1,0.4,0,0.7,0,1.1c0.1,0.4,0.4,0.7,0.5,1c0.1,0.4,0.3,0.7,0.3,1.1c0.1,0.4,0,0.7,0,1.1s-0.2,0.8-0.1,1.1
				c0,0.4,0.3,0.7,0.4,1.1c0.1,0.4-0.1,0.9,0,1.4c0.1,0.4,0.6,0.8,0.6,1.3c0.1,0.4-0.3,0.9-0.2,1.4c0.1,0.4,0.5,0.8,0.6,1.3
				c0.1,0.4-0.3,0.9-0.3,1.4c0,0.4,0.4,0.9,0.4,1.3s-0.1,0.9-0.1,1.3s-0.2,0.9-0.1,1.4c0,0.4,0.2,0.7,0.3,1.1s0.2,0.7,0.2,1.1
				c0.1,0.4,0.1,0.7,0.1,1.1c0.1,0.4,0.3,0.7,0.4,1c0,0.4-0.1,0.7-0.1,1.1s-0.1,0.9-0.1,1.3s0.3,0.9,0.3,1.4c0,0.4-0.2,0.9-0.2,1.3
				s0,0.9,0,1.3s-0.1,0.9-0.2,1.3c-0.1,0.4-0.2,0.9-0.3,1.3s-0.2,0.8-0.2,1.3c0,0.4-0.3,0.9-0.2,1.3c0,0.4-0.1,0.9-0.1,1.3
				s0.2,0.9,0.1,1.3c0,0.2,0,0.7-0.1,1s-0.5,0.5-0.8,0.6c-0.4,0-0.8-0.3-0.8-0.6c-0.1-0.3-0.1-0.7-0.1-1c-0.1-0.4-0.1-0.8-0.2-1.2
				c-0.1-0.4,0-0.9,0-1.3s-0.3-0.8-0.2-1.2c0-0.4,0.2-0.8,0.3-1.2c0-0.4,0.2-0.8,0.2-1.2c0-0.4,0-0.8,0-1.2c0-0.4,0-0.8-0.1-1.2
				c-0.1-0.4-0.3-0.8-0.4-1.2c-0.1-0.4-0.1-0.8-0.2-1.2c-0.1-0.4-0.3-0.8-0.3-1.2c0-0.4-0.1-0.8-0.1-1.2c0-0.4,0.4-0.8,0.5-1.2
				c0.1-0.4-0.3-0.9-0.2-1.3c0-0.4,0.1-0.8,0.1-1.2c0-0.4,0.2-0.8,0.2-1.2c0-0.4-0.4-0.8-0.4-1.2c0-0.4-0.2-0.8-0.2-1.2
				c0-0.4,0-0.8-0.1-1.2c-0.1-0.4,0.1-0.9,0-1.2c-0.1-0.4-0.6-0.7-0.7-1.1c-0.1-0.4,0.1-0.8,0-1.2c-0.1-0.4-0.1-0.8-0.1-1.2
				c-0.1-0.4-0.3-0.8-0.4-1.2c-0.1-0.4-0.3-0.8-0.3-1.2c-0.1-0.4,0.2-0.9,0.1-1.3c-0.1-0.4-0.2-0.8-0.3-1.2
				c-0.1-0.4-0.2-0.8-0.3-1.2c-0.1-0.4-0.4-0.8-0.5-1.2c-0.1-0.4,0.2-0.9,0.1-1.3c-0.1-0.4-0.3-0.8-0.4-1.2c-0.1-0.4,0-0.8,0-1.3
				c0-0.4-0.5-0.8-0.5-1.3c0-0.4,0.1-0.9,0.1-1.3c0-0.4,0-0.9-0.1-1.3c-0.1-0.4,0.1-0.8,0-1.2s-0.5-0.7-0.7-1
				c-0.1-0.4-0.4-0.7-0.5-1c-0.2-0.4-0.1-0.8-0.3-1.2c-0.2-0.3-0.7-0.4-1-0.7c-0.3-0.2-0.4-0.8-0.7-1s-0.8-0.1-1.2-0.3
				s-0.6-0.5-0.9-0.7c-0.3-0.2-0.6-0.4-1-0.5c-0.3-0.2-0.8,0-1.2-0.1c-0.3-0.1-0.7-0.2-1-0.3c-0.4-0.1-0.7-0.2-1.1-0.2
				c-0.4,0-0.8-0.1-1.1-0.1c-0.4,0-0.8,0.1-1.1,0.1c-0.4,0-0.8,0.1-1.1,0.1c-0.4,0.1-0.7,0.2-1.1,0.2c-0.4,0.1-0.8,0-1.2,0.1
				s-0.7,0.5-1,0.6c-0.4,0.1-0.8,0.1-1.1,0.2c-0.4,0.1-0.6,0.4-1,0.6c-0.3,0.2-0.7,0.3-1,0.5s-0.6,0.5-0.9,0.8
				c-0.3,0.2-0.6,0.4-0.9,0.7s-0.7,0.3-1,0.6s-0.7,0.5-1,0.8s-0.6,0.6-0.9,0.9c-0.3,0.3-0.6,0.6-0.9,1c-0.3,0.3-0.5,0.7-0.8,1
				s-0.2,0.9-0.4,1.3c-0.2,0.4-0.7,0.6-0.8,1c-0.1,0.4-0.1,0.8-0.2,1.2s0,0.8-0.1,1.2s-0.3,0.8-0.3,1.2c0,0.4,0,0.8,0.1,1.2
				c0.1,0.5,0.4,0.8,0.6,1c0.3,0.3,0.6,0.4,1,0.5c0.4,0,0.8,0.3,1.3,0.1c0.4-0.1,0.7-0.3,1.1-0.4s0.7-0.5,1-0.6
				c0.4-0.1,0.7-0.4,1-0.6s0.9,0,1.2-0.2s0.7-0.4,1.1-0.5c0.4-0.1,0.7-0.4,1.1-0.5c0.4-0.2,0.8-0.2,1.2-0.4c0.3-0.2,0.5-0.7,0.8-1
				c0.3-0.2,0.8-0.3,1-0.5c0.2-0.3,0.3-0.7,0.5-1s0.6-0.4,0.9-0.7c0.3-0.3,0.5-0.5,0.8-0.8c0.3-0.2,0.5-0.6,0.8-0.8
				c0.4-0.2,0.9-0.3,1.4-0.4c0.4-0.1,1,0,1.4,0.5c0.4,0.4,0.4,1,0.3,1.4c-0.2,0.4-0.7,0.7-1,1c-0.2,0.3-0.3,0.7-0.6,0.9
				s-0.7,0.3-1,0.5s-0.5,0.5-0.8,0.7s-0.7,0.3-0.9,0.5c-0.3,0.2-0.6,0.4-0.8,0.7c-0.2,0.3-0.5,0.6-0.7,0.8c-0.2,0.3-0.5,0.5-0.7,0.8
				c-0.3,0.3-0.5,0.5-0.8,0.7s-0.5,0.5-0.9,0.7c-0.3,0.1-0.8,0-1.1,0.1s-0.6,0.3-1,0.4c-0.3,0.1-0.7,0.1-1,0.2s-0.6,0.4-1,0.5
				c-0.3,0.1-0.7,0-1.1,0c-0.3,0-0.7,0.3-1,0.3s-0.7-0.1-1.1-0.1c-0.4,0.1-0.8,0.1-1.2,0.1c-0.4,0-0.8-0.1-1.1-0.3
				c-0.4-0.2-0.5-0.5-0.8-0.8c-0.2-0.3-0.7-0.4-0.9-0.8c-0.1-0.3,0-0.8-0.1-1.2c-0.1-0.4-0.5-0.7-0.5-1c-0.1-0.4,0.1-0.8,0.1-1.1
				c0-0.4-0.3-0.8-0.3-1.1c0-0.4,0.2-0.7,0.2-1.1c0.1-0.3,0.5-0.6,0.6-1c0.1-0.3,0-0.7,0-1.1c0-0.3-0.1-0.7,0-1.1
				C93.9,248.9,93.9,248.7,94.1,248.3z M33.5,5.8c-0.6,0-1.1-0.3-1.7-0.3c-0.4,0-0.8-0.1-1.1-0.1c-0.4,0-0.8,0.2-1,0.4
				c-0.3,0.2-0.3,0.5-0.5,0.9c-0.1,0.3-0.4,0.5-0.5,1c-0.1,0.4-0.2,0.7-0.3,1.1c0,0.4,0.2,0.8,0.2,1.2s-0.1,0.8-0.1,1.1
				c0,0.4,0,0.8,0,1.1c-0.1,0.4-0.2,0.7-0.3,1.1c-0.1,0.4-0.3,0.7-0.4,1.1c-0.1,0.4-0.4,0.7-0.5,1c-0.1,0.4,0,0.8-0.1,1.2
				c-0.1,0.4,0,0.8,0,1.1c0,0.4-0.1,0.7-0.1,1.1S27,19.5,27,19.9s-0.3,0.7-0.3,1.1c-0.1,0.4,0,0.8,0,1.2c0,0.4-0.1,0.8-0.1,1.1
				c0,0.4,0,0.8,0,1.1c0,0.4,0.2,0.8,0.2,1.2c-0.1,0.4-0.3,0.7-0.3,1.1s-0.4,0.7-0.4,1.1c-0.1,0.4,0,0.8,0,1.1
				C26,29.3,26,29.7,26,30c-0.1,0.4-0.2,0.8-0.2,1.1c0,0.4,0.2,0.8,0.2,1.1c0,0.4-0.1,0.8-0.1,1.1c0,0.4-0.1,0.7-0.1,1.1
				c-0.1,0.4,0.2,0.9,0.1,1.2c-0.1,0.4-0.5,0.6-0.6,1s-0.5,0.7-0.6,1c-0.1,0.4-0.2,0.8-0.3,1.1c-0.1,0.4,0.2,0.8,0.2,1.2
				s-0.2,0.7-0.2,1.1c0,0.4-0.3,0.7-0.3,1.1c0,0.4,0.3,0.8,0.2,1.2s-0.1,0.8-0.2,1.2c-0.1,0.4-0.4,0.7-0.5,1.1
				c-0.1,0.4-0.2,0.8-0.3,1.2S23.1,47.6,23,48s-0.2,0.8-0.2,1.2s0.3,0.8,0.3,1.2S23,51.2,23,51.6s-0.2,0.8-0.3,1.2
				c0,0.4,0,0.8,0,1.2s0.2,0.8,0.2,1.2s0,0.8-0.1,1.2c0,0.4-0.2,0.8-0.2,1.2s0,0.8,0,1.2c-0.1,0.4-0.3,0.8-0.4,1.2
				c-0.1,0.4-0.1,0.8-0.2,1.2c-0.1,0.4-0.3,0.8-0.3,1.2s-0.3,0.8-0.3,1.2s0.2,0.8,0.2,1.2c0,0.4,0.2,0.8,0.1,1.2
				c0,0.4-0.3,0.8-0.3,1.2c0,0.4,0,0.8,0,1.2c0,0.4,0,0.8-0.1,1.2c0,0.4-0.2,0.8-0.3,1.2c0,0.4-0.1,0.8-0.1,1.2
				c0,0.4,0.3,0.9,0.2,1.3s-0.2,0.8-0.2,1.2C20.3,75.2,20,75.6,20,76c-0.1,0.4,0,0.8,0,1.2c0,0.4,0.1,0.9,0,1.3s-0.5,0.7-0.5,1.1
				c-0.1,0.4-0.1,0.8-0.2,1.2c-0.1,0.4-0.2,0.8-0.3,1.2c0,0.4,0.1,0.8,0,1.2c0,0.4-0.1,0.8-0.1,1.2c0,0.4,0.1,0.8,0.1,1.2
				c0,0.4-0.1,0.8-0.1,1.2c0,0.4-0.3,0.7-0.4,1.1c-0.1,0.4-0.2,0.7-0.3,1.1s0.1,0.8,0,1.2c-0.1,0.4-0.2,0.7-0.3,1.1
				c0,0.4-0.3,0.8-0.3,1.1c0,0.4,0,0.8,0,1.1c0,0.4,0.4,0.8,0.4,1.1c0,0.4-0.2,0.8-0.2,1.1c0,0.4-0.1,0.7-0.2,1.1
				c-0.1,0.4-0.1,0.8-0.2,1.1c-0.1,0.4,0,0.8-0.1,1.1c-0.1,0.4-0.1,0.7-0.1,1.1s-0.5,0.7-0.5,1.1s0.1,0.8,0,1.1
				c0,0.4-0.1,0.7-0.2,1.1c0,0.4,0,0.8,0,1.1c0,0.4-0.4,0.8-0.3,1.3c0,0.4,0.1,0.8,0.2,1.3c0.1,0.4,0.1,0.8,0.1,1.2
				c0,0.4,0.3,0.8,0.2,1.2c0,0.4-0.2,0.8-0.3,1.2c-0.1,0.4-0.3,0.8-0.4,1.2c-0.1,0.4-0.3,0.8-0.4,1.2c-0.1,0.4,0.1,0.9,0,1.3
				c0,0.4-0.3,0.8-0.4,1.2c0,0.4,0,0.8,0,1.2s0.2,0.8,0.1,1.2c0,0.4-0.2,0.8-0.3,1.2c0,0.4-0.1,0.8-0.2,1.2c0,0.4,0.1,0.8,0.1,1.2
				c0,0.4-0.4,0.8-0.4,1.2c0,0.4,0.1,0.8,0,1.2c0,0.4,0,0.8,0,1.2c0,0.4,0,0.8,0,1.2c0,0.4,0,0.8,0,1.2c0,0.4,0.4,0.8,0.3,1.2
				c0,0.4-0.2,0.8-0.3,1.2s-0.4,0.7-0.5,1.1c-0.1,0.4-0.1,0.8-0.2,1.2c-0.1,0.4-0.5,0.7-0.5,1.1c0,0.4,0.2,0.8,0.1,1.2
				c0,0.4-0.2,0.8-0.2,1.2S13,136.6,13,137s0.3,0.8,0.2,1.2c0,0.4-0.3,0.8-0.3,1.1c0,0.4,0.2,0.8,0.2,1.2s-0.4,0.8-0.5,1.1
				c0,0.4,0,0.8,0,1.2s0,0.8-0.1,1.2s-0.1,0.8-0.2,1.2c-0.1,0.4,0,0.8,0,1.2c-0.1,0.4-0.4,0.8-0.4,1.2s0.1,0.8,0.1,1.2
				s0.2,0.8,0.2,1.2s0,0.8,0,1.2s-0.5,0.8-0.5,1.2s0.1,0.8,0,1.2c0,0.4,0.1,0.8,0.1,1.2s0.1,0.8,0.1,1.2s-0.5,0.8-0.5,1.2
				s0.3,0.9,0.2,1.3c-0.1,0.4-0.3,0.8-0.4,1.2c-0.1,0.4-0.6,0.7-0.7,1.1c-0.1,0.4-0.1,0.8-0.1,1.2s0.1,0.9,0.1,1.3
				c0,0.4,0.1,0.9,0.1,1.3c0,0.4-0.2,0.9-0.2,1.3c0,0.4,0.2,0.9,0.1,1.3c0,0.4,0,0.9,0,1.3c-0.1,0.4-0.2,0.8-0.3,1.3
				c-0.1,0.4-0.2,0.8-0.2,1.3c-0.1,0.4,0,0.9,0,1.3c0,0.4-0.2,0.8-0.3,1.3c-0.1,0.4-0.3,0.8-0.3,1.2c-0.1,0.4,0.2,0.9,0.1,1.3
				c-0.1,0.4-0.5,0.8-0.6,1.2c0,0.4,0.2,0.9,0.2,1.3c-0.1,0.4-0.3,0.8-0.4,1.2c-0.1,0.4-0.2,0.8-0.3,1.3c-0.1,0.4,0.1,0.9,0,1.3
				c0,0.4,0,0.8-0.1,1.1c-0.1,0.4-0.3,0.7-0.4,1.1c-0.1,0.4,0,0.8-0.1,1.1c-0.1,0.4,0,0.8,0,1.1c0,0.4-0.4,0.7-0.4,1.1
				c0,0.4,0.5,0.7,0.5,1.1c0.1,0.4-0.2,0.8-0.2,1.2s0,0.8,0,1.1c-0.1,0.5-0.3,0.8-0.2,1s0.4,0.2,1,0.2c0.5,0,0.9,0.3,1.4,0.3
				s0.9-0.4,1.4-0.4s0.9,0.1,1.4,0.2c0.3,0,0.7,0.3,1,0.3c0.3,0.1,0.7-0.1,1.1,0c0.3,0.1,0.6,0.3,1,0.4c0.3,0.1,0.7,0.1,1,0.1
				c0.5,0,0.9,0,1.4,0s0.9,0,1.4-0.1c0.5,0,0.9,0.1,1.4,0.1c0.4,0,0.7,0,1.1,0c0.4,0,0.8-0.1,1.1,0c0.4,0,0.7,0.4,1.1,0.4
				c0.4,0,0.8,0.1,1.1,0.1c0.4,0,0.8-0.4,1.1-0.3c0.4,0,0.7,0.2,1.1,0.2c0.4,0,0.7,0.1,1.1,0.1c0.4,0,0.8,0,1.1,0
				c0.4,0,0.8-0.1,1.1,0c0.4,0,0.7,0.2,1.1,0.2c0.4,0,0.8,0.1,1.3,0.1c0.4,0,0.8,0,1.2-0.1c0.4,0,0.8-0.5,1.2-0.5s0.8,0.4,1.2,0.5
				s0.8,0.2,1.2,0.3c0.4,0.1,0.8,0.2,1.2,0.2c0.4,0,0.8-0.2,1.2-0.2c0.4-0.1,0.8-0.1,1.2-0.2c0.4-0.1,0.8-0.2,1.2-0.2
				c0.4-0.1,0.8,0,1.2,0c0.4,0,0.8-0.1,1.2-0.1c0.4,0,0.8,0.4,1.2,0.5c0.4,0,0.8-0.3,1.2-0.3c0.4,0,0.8,0.4,1.2,0.4
				c0.4,0,0.8-0.1,1.2-0.1s0.8,0,1.2,0s0.8,0.2,1.2,0.2c0.4,0,0.8-0.3,1.2-0.3c0.4,0,0.8,0,1.2,0.1c0.4,0.1,0.8,0.1,1.2,0.2
				c0.4,0.1,0.8,0.2,1.2,0.3c0.4,0.1,0.8,0.2,1.2,0.2c0.4,0,0.8,0.3,1.2,0.3c0.4,0,0.8-0.2,1.2-0.2c0.4,0,0.8-0.4,1.2-0.4
				c0.4,0,0.8,0.1,1.2,0.1c0.4,0,0.8-0.1,1.2-0.1c0.4,0,0.8,0.3,1.2,0.3c0.4,0,0.8-0.2,1.2-0.2c0.4,0,0.8,0,1.2,0.1
				c0.4,0,0.8,0,1.2,0s0.8,0.1,1.2,0.1c0.5,0,0.8,0.1,1.1-0.2c0.2-0.2,0.2-0.6,0.4-1.1c0.3-0.5,0.9-0.6,1.3-0.5s0.7,0.5,0.9,1
				c0.2,0.5,0.6,0.8,1,1s0.9,0.1,1.4,0.1c0.4,0,0.9,0.2,1.3,0.1c0.4-0.1,0.9-0.1,1.3-0.2c0.4-0.1,0.8-0.1,1.3-0.1
				c0.4,0,0.9-0.3,1.3-0.3c0.4,0.1,0.8,0.3,1.2,0.4c0.4,0.1,0.8,0.3,1.3,0.4c0.4,0,0.8-0.3,1.1-0.2c0.4,0.1,0.7,0.3,1.1,0.4
				c0.4,0.1,0.8,0,1.1,0c0.4,0.1,0.7,0.2,1.1,0.2s0.7,0,1.1,0s0.7,0.2,1.1,0.2s0.7,0.2,1.1,0.2s0.7,0.2,1.1,0.2s0.7-0.3,1.1-0.3
				s0.7,0.1,1.1,0.1s0.7-0.2,1.1-0.2s0.7,0.2,1.1,0.2s0.7-0.1,1.1-0.1s0.7,0.2,1.1,0.3c0.4,0,0.8-0.4,1.1-0.3c0.4,0,0.7,0.4,1.1,0.4
				c0.4,0,0.8-0.1,1.1-0.1c0.4-0.1,0.7-0.2,1.1-0.3c0.4-0.1,0.8,0,1.1,0c0.4-0.1,0.7-0.3,1.1-0.3c0.4,0,0.8-0.1,1.1,0
				c0.4,0.1,0.7,0.3,1.1,0.4c0.4,0.1,0.7,0.4,1.1,0.4c0.4,0.1,0.8-0.3,1.2-0.3s0.7,0,1.1-0.1c0.4,0,0.8,0.2,1.1,0.2
				c0.4,0,0.7-0.3,1.1-0.3c0.4,0,0.8-0.2,1.1-0.1c0.4,0,0.8,0,1.1,0.1c0.4,0,0.7,0.5,1.1,0.5c0.4,0.1,0.8-0.2,1.1-0.2
				c0.4,0,0.7,0.2,1.1,0.2c0.4,0,0.7,0.2,1.1,0.2c0.4,0,0.7-0.2,1.1-0.3c0.4,0,0.7,0.1,1.1,0.1c0.4,0,0.7-0.3,1.1-0.3
				c0.4,0,0.7,0.1,1.1,0.2c0.4,0,0.7,0.3,1.1,0.3c0.4,0,0.8-0.2,1.1-0.2c0.4,0,0.7,0.5,1.1,0.5c0.4,0,0.7-0.2,1.1-0.2
				c0.4,0,0.7,0,1.1,0c0.4,0,0.7-0.2,1.1-0.2c0.4,0,0.7,0.2,1.1,0.2c0.4,0,0.7,0.1,1.1,0.1c0.4,0,0.7,0.1,1.1,0.2
				c0.4,0,0.7,0.1,1.1,0.1c0.4,0,0.7,0,1.1,0c0.4,0,0.7-0.2,1.1-0.3c0.4,0,0.7,0.1,1.1,0.1c0.4-0.1,0.7-0.3,1.1-0.3
				c0.4,0,0.7,0.4,1.1,0.4c0.4,0,0.7-0.3,1.1-0.3s0.7-0.1,1.1-0.1c0.4,0,0.7,0.1,1.1,0.1c0.4,0,0.7,0,1.1,0.1c0.4,0,0.7,0.3,1.1,0.4
				c0.4,0.1,0.8-0.1,1.1,0c0.4,0.1,0.7,0.4,1,0.5c0.4,0.1,0.7,0.3,1.1,0.3c0.4,0,0.7-0.1,1.1-0.1c0.4,0,0.7,0.1,1.1,0
				c0.4,0,0.7-0.1,1.1-0.1c0.4,0,0.7-0.1,1.1-0.1c0.4,0,0.8,0,1.2,0s0.8-0.3,1.1-0.4c0.4,0,0.8,0,1.1,0c0.4,0,0.8,0.3,1.2,0.3
				s0.8-0.1,1.1-0.1c0.4,0,0.8,0.2,1.1,0.2c0.4,0,0.8,0.1,1.1,0.2c0.4,0,0.8-0.2,1.2-0.1c0.4,0,0.8,0.2,1.1,0.3c0.4,0,0.8,0,1.2,0
				c0.3,0,0.7-0.7,1-0.6c0.4,0,0.7,0,1.1,0.1c0.4,0.1,0.6,0.5,1,0.6s0.8-0.2,1.1-0.2c0.4,0,0.7,0.4,1.1,0.4c0.4,0,0.7-0.4,1.1-0.4
				c0.4,0,0.7,0,1.1,0c0.4,0,0.7,0.2,1.1,0.2c0.4,0,0.8-0.3,1.1-0.2c0.4,0.1,0.8,0.2,1.1,0.1c0.3-0.1,0.4-0.3,0.4-0.8
				c0-0.4,0.2-0.7,0.2-1.1c0-0.4,0.2-0.7,0.2-1.1c0-0.4-0.4-0.7-0.4-1.1c0-0.4,0.2-0.7,0.2-1.1c0-0.4,0.3-0.7,0.3-1.1
				c0-0.4-0.2-0.7-0.2-1.1c0-0.4,0.1-0.7,0.1-1.1c0-0.4-0.4-0.7-0.4-1.1c0-0.4,0.1-0.7,0.1-1.1c0-0.4,0.3-0.7,0.3-1.1
				c0-0.4,0-0.7,0-1.1c0-0.4,0.1-0.7,0.1-1.1c0-0.5-0.1-0.9,0-1.4c0-0.5,0.3-0.9,0.3-1.4s-0.2-1-0.2-1.4c0-0.3,0.1-0.7,0.1-1.1
				c0.1-0.3,0.4-0.6,0.4-1c0.1-0.3,0.3-0.7,0.3-1c0.1-0.3-0.2-0.7-0.1-1.1c0-0.3-0.1-0.7,0-1.1c0.1-0.3,0.2-0.7,0.3-1s0.1-0.7,0.2-1
				c0.1-0.3,0.3-0.7,0.4-1c0-0.4,0-0.9,0-1.4c0-0.4-0.2-0.9-0.2-1.3c0-0.5,0.1-0.9,0.1-1.4c0-0.4,0.2-0.9,0.2-1.3c0-0.4,0-0.9,0-1.3
				c0-0.4,0.1-0.9,0.1-1.3c0-0.4-0.1-0.9,0-1.4c0.1-0.4,0.3-0.8,0.5-1.3c0.1-0.4,0-0.9,0.1-1.3c0-0.4,0.1-0.9,0.1-1.3
				c0-0.4,0.3-0.9,0.2-1.3c0-0.4,0-0.9,0-1.3c0-0.4-0.4-0.9-0.4-1.3c0-0.4,0.4-0.9,0.4-1.3c0-0.4,0-0.9,0-1.3c0-0.4,0.2-0.9,0.2-1.3
				c0-0.4-0.3-0.9-0.2-1.3c0-0.4,0.3-0.8,0.3-1.2s-0.1-0.8-0.1-1.2s0.3-0.8,0.3-1.2s-0.2-0.8-0.2-1.2s0.4-0.8,0.4-1.2
				s-0.1-0.8,0-1.2c0-0.4-0.1-0.8-0.1-1.2s-0.1-0.8,0-1.2c0-0.4,0.5-0.8,0.5-1.2s0-0.8,0-1.2s-0.1-0.8,0-1.2c0-0.4,0-0.8,0.1-1.2
				c0-0.4,0-0.8,0-1.1c0.1-0.4,0.2-0.7,0.3-1.1c0.1-0.4,0.6-0.6,0.6-1c0.1-0.4,0.1-0.7,0.1-1.1c0.1-0.4,0.1-0.7,0.1-1.1
				c0-0.4-0.3-0.7-0.3-1.1c0-0.4,0.2-0.7,0.2-1.1s0-0.7,0-1.1s0.2-0.7,0.2-1.1s-0.1-0.7-0.1-1.1s0-0.8,0.1-1.2
				c0.1-0.4,0.1-0.8,0.2-1.2c0.1-0.4,0-0.8,0-1.2c0.1-0.4,0.5-0.8,0.5-1.2c0-0.4-0.1-0.8,0-1.2c0-0.4-0.1-0.8-0.1-1.2
				c0-0.4,0.1-0.8,0.1-1.2c0-0.4,0.2-0.8,0.2-1.2c0-0.4-0.3-0.8-0.3-1.2c0-0.4,0.1-0.8,0.1-1.2c0-0.4-0.1-0.8-0.1-1.2
				c0-0.4,0.1-0.8,0.1-1.2c0-0.4,0.2-0.7,0.2-1.1s0.1-0.8,0.1-1.1c0-0.4-0.3-0.7-0.3-1.1s0.1-0.7,0.1-1.1s-0.3-0.7-0.3-1.1
				s0.2-0.7,0.3-1.1s0.3-0.7,0.4-1.1c0.1-0.4,0-0.8,0.1-1.1c0.1-0.4,0.5-0.6,0.6-1s-0.4-0.8-0.3-1.2c0-0.4,0.2-0.8,0.2-1.2
				c0-0.4,0-0.8,0-1.2c0-0.4-0.2-0.8-0.2-1.2c0-0.4,0.4-0.8,0.4-1.2c0-0.4,0.1-0.8,0.1-1.2c0-0.4,0.1-0.8,0.1-1.2
				c0-0.4,0-0.8,0.1-1.2c0-0.4-0.3-0.8-0.3-1.2c0-0.4,0-0.9,0.1-1.3s0.4-0.7,0.5-1.1s0.3-0.8,0.4-1.2c0.1-0.4,0.2-0.8,0.2-1.2
				c0-0.4,0-0.8,0-1.2c0-0.4,0.2-0.8,0.2-1.2c0-0.4,0-0.8,0-1.2c0-0.4-0.3-0.8-0.2-1.2c0-0.4,0.1-0.8,0.1-1.2c0-0.4,0.2-0.8,0.2-1.2
				c0-0.4-0.1-0.8-0.1-1.2c0-0.4,0-0.8,0-1.2c0-0.4,0.1-0.8,0.1-1.2c0-0.4-0.1-0.8-0.1-1.2c0-0.4,0-0.8,0-1.2c0-0.4,0.4-0.8,0.4-1.2
				c0-0.4-0.2-0.8-0.2-1.2c0-0.4-0.2-0.8-0.2-1.2c0-0.4,0-0.8,0-1.2c0-0.4,0.1-0.8,0.1-1.2c0-0.4,0.4-0.8,0.5-1.1
				c0.1-0.4-0.2-0.8-0.1-1.2c0.1-0.4,0.5-0.7,0.6-1.1c0.1-0.4-0.1-0.8-0.1-1.2s-0.1-0.8-0.1-1.2s0.1-0.8,0.1-1.2s0.1-0.8,0.1-1.2
				s0.3-0.8,0.3-1.2s0.1-0.8,0.2-1.2c0.1-0.4-0.1-0.8,0-1.2s0.2-0.8,0.3-1.2s0.4-0.8,0.5-1.2c0-0.4-0.1-0.8-0.1-1.2
				s-0.2-0.8-0.3-1.2c0-0.4,0.2-0.8,0.2-1.2s-0.1-0.8-0.1-1.2s0-0.8,0.1-1.2c0-0.4,0.1-0.8,0.1-1.2s-0.2-0.8-0.1-1.2
				c0-0.4,0.1-0.8,0.2-1.2c0-0.4,0.3-0.7,0.3-1.1c0-0.4-0.2-0.7-0.2-1.1c0-0.4,0-0.7,0.1-1.1c0-0.4,0-0.7,0.1-1.1
				c0-0.4,0.4-0.7,0.5-1c0.1-0.4-0.2-0.8-0.1-1.2c0.1-0.4,0.4-0.7,0.4-1c0.1-0.4,0.2-0.7,0.2-1.1c0-0.4-0.2-0.7-0.2-1.1
				s0.5-0.7,0.5-1.1s-0.2-0.7-0.2-1.1s-0.1-0.7-0.1-1.1s0.1-0.7,0.2-1.1c0-0.4-0.1-0.7,0-1.1c0-0.4,0.3-0.7,0.3-1.1
				s-0.1-0.7-0.1-1.1s0-0.9,0-1.3s0.4-0.9,0.4-1.3s-0.3-0.9-0.3-1.3s0.3-0.9,0.3-1.3s0-0.9,0-1.3s0-0.9,0-1.3s0.1-0.9,0.2-1.3
				c0-0.4,0-0.9,0-1.3c0-0.4,0-0.9,0-1.3c0.1-0.4,0.4-0.8,0.5-1.3c0.1-0.4,0.1-0.9,0.1-1.3c0.1-0.4,0-0.9,0.1-1.3c0-0.5,0-0.8-0.1-1
				c-0.1-0.3-0.5-0.1-1-0.2c-0.3,0-0.6-0.4-1-0.4s-0.8,0.3-1.2,0.3c-0.4-0.1-0.7-0.2-1.1-0.3c-0.4-0.1-0.8-0.1-1.1-0.2
				c-0.3,0.3-0.7,0.2-1,0.2c-0.4,0-0.8,0-1.2-0.1c-0.4,0-0.7-0.4-1.1-0.4c-0.4-0.1-0.8-0.1-1.1-0.1c-0.4-0.1-0.8-0.1-1.1-0.1
				c-0.4,0-0.7,0.1-1.1,0.1c-0.4,0-0.7-0.3-1.1-0.3c-0.4,0-0.7,0.1-1.1,0.1c-0.4,0-0.7,0.3-1.1,0.3c-0.4,0-0.7,0.1-1.1,0.1
				c-0.4,0-0.7-0.1-1.1-0.1c-0.4,0-0.7-0.5-1.1-0.5c-0.4,0-0.8,0.2-1.1,0.2c-0.4,0-0.7-0.2-1.1-0.3c-0.4,0-0.7,0.3-1.1,0.3
				c-0.4,0-0.7-0.3-1.1-0.2c-0.4,0-0.8-0.1-1.1,0c-0.4,0-0.7,0.2-1.1,0.3c-0.4,0-0.7,0-1.1,0c-0.4,0-0.7,0.3-1.1,0.3
				c-0.4,0-0.7-0.2-1.1-0.3c-0.4,0-0.8,0-1.1-0.1c-0.4-0.1-0.7-0.3-1.1-0.4c-0.4,0-0.8,0-1.1-0.1c-0.4,0-0.8,0.3-1.1,0.3
				c-0.4,0-0.7-0.2-1.1-0.2c-0.4,0-0.8,0.2-1.1,0.2c-0.4,0-0.7-0.5-1.1-0.5c-0.4,0-0.8,0.1-1.1,0.1c-0.4,0-0.8,0-1.1,0.1
				c-0.4,0-0.7,0.2-1.1,0.2c-0.4,0-0.7,0-1.1,0c-0.4,0-0.8-0.1-1.1,0c-0.4,0-0.8,0-1.1,0c-0.4,0-0.7,0.5-1.1,0.5
				c-0.4,0-0.8-0.3-1.1-0.3c-0.4,0-0.7,0.3-1.1,0.3s-0.7-0.2-1.1-0.2s-0.7,0-1.1,0S142.7,6,142.3,6c-0.4,0-0.8,0.4-1.2,0.4
				s-0.8-0.5-1.2-0.5s-0.8,0-1.2,0S137.9,6,137.5,6s-0.8,0.2-1.2,0.1c-0.4,0-0.8-0.1-1.2-0.1s-0.8-0.1-1.2-0.1s-0.8,0-1.2,0
				s-0.8-0.1-1.2-0.1s-0.8,0-1.2,0.1c-0.4,0-0.8,0-1.2,0s-0.8,0-1.2,0S127.1,6,126.7,6s-0.8-0.2-1.2-0.2s-0.8,0.1-1.2,0.1
				s-0.8,0-1.2,0s-0.8,0-1.2,0s-0.8,0-1.2,0s-0.8-0.3-1.2-0.3s-0.8,0.5-1.2,0.5s-0.8,0-1.2,0.1c-0.4,0-0.8,0-1.2,0
				c-0.4,0.1-0.8,0-1.2,0.1c-0.4,0-0.8,0.1-1.2,0.1s-0.8,0.2-1.2,0.2s-0.8-0.4-1.2-0.3c-0.4,0-0.8,0-1.2,0s-0.8,0-1.2,0
				s-0.8,0-1.2,0s-0.8,0.2-1.2,0.2s-0.8-0.2-1.2-0.2s-0.8,0.4-1.2,0.4s-0.8-0.3-1.2-0.4c-0.4,0-0.8-0.1-1.2-0.2
				C101.1,6,100.7,6,100.3,6c-0.4,0-0.8,0.1-1.2,0.1c-0.4,0-0.8,0.1-1.2,0.1c-0.4,0-0.8-0.3-1.2-0.3c-0.4,0-0.8,0.3-1.2,0.3
				c-0.4,0-0.8,0-1.2,0c-0.4,0-0.8,0.1-1.2,0.1c-0.4,0-0.8-0.2-1.2-0.1c-0.4,0-0.8-0.1-1.2-0.1c-0.4,0-0.8,0.1-1.2,0.1
				c-0.4,0-0.8,0.2-1.2,0.2c-0.4,0-0.8-0.2-1.2-0.3c-0.4,0-0.8-0.3-1.2-0.3c-0.4,0-0.8,0.1-1.2,0.1c-0.4,0-0.8,0-1.2-0.1
				c-0.4-0.1-0.8,0.1-1.2,0c-0.4-0.1-0.8-0.2-1.2-0.3c-0.4-0.1-0.8-0.2-1.2-0.2c-0.4,0-0.8,0.1-1.2,0.1c-0.4,0.1-0.8,0-1.2,0.1
				c-0.4,0.1-0.8,0.1-1.2,0.2c-0.4,0.1-0.8,0.2-1.2,0.2c-0.4,0-0.8-0.1-1.2-0.2c-0.4,0-0.8,0.4-1.2,0.3c-0.4,0-0.8-0.5-1.2-0.5
				c-0.4,0-0.8,0.3-1.2,0.3c-0.4,0-0.8,0-1.2,0c-0.4,0-0.8-0.2-1.2-0.2c-0.4,0-0.8-0.4-1.2-0.4c-0.4,0-0.8,0.2-1.2,0.2
				c-0.4,0-0.8-0.2-1.2-0.3c-0.4,0-0.8,0.3-1.2,0.2c-0.4,0-0.8-0.1-1.2-0.1c-0.4,0-0.8-0.5-1.2-0.5c-0.4,0-0.7,0.5-1.1,0.5
				s-0.7,0-1.1,0.1c-0.4,0-0.8,0.1-1.1,0.1c-0.4,0-0.8-0.1-1.1-0.1c-0.4,0-0.7-0.3-1.1-0.3S54.4,5.4,54,5.4c-0.4,0-0.7-0.3-1.1-0.3
				s-0.8,0-1.1,0c-0.4,0-0.8,0-1.1,0.1c-0.4,0.1-0.8,0.1-1.1,0.2c-0.4,0.1-0.7,0.4-1.1,0.5C47.7,6,47.3,5.7,47,5.7
				c-0.4,0-0.8,0.2-1.1,0.1c-0.4-0.1-0.8-0.1-1.1-0.2c-0.4-0.1-0.7-0.6-1-0.7c-0.4-0.1-0.8,0.3-1.2,0.3c-0.4,0-0.7,0-1.1,0
				s-0.8,0-1.1,0c-0.4,0-0.8,0-1.1,0c-0.4,0-0.8,0.1-1.1,0.1c-0.4,0-0.7-0.1-1.1,0c-0.4,0-0.7,0.3-1.1,0.3c-0.4,0-0.8,0-1.1,0.1
				C34.2,5.8,33.8,5.8,33.5,5.8z"/>
		</g>
		<g>
			<path d="M89.8,285.1c0.1-0.3,0-0.6-0.1-1c-0.1-0.3-0.3-0.6-0.3-0.9c0.1-0.4,0.6-0.8,1-0.8s0.4,0.5,0.5,0.9
				c0.2,0.5,0.1,0.9,0.2,1.4c0.1,0.4,0.1,0.8,0.2,1.2c0.1,0.4,0.1,0.8,0.2,1.2c0.1,0.4,0.3,0.8,0.4,1.2c0.1,0.4,0.3,0.8,0.4,1.2
				c0.1,0.4,0.1,0.8,0.2,1.2c0.1,0.4,0.2,0.8,0.3,1.2c0.1,0.4,0.1,0.9,0.2,1.3s0.6,0.7,0.6,1.1s0,0.9,0,1.3s-0.5,0.8-0.5,1.2
				c-0.1,0.4,0,0.9,0,1.3s0.2,0.8,0.2,1.2c0,0.4-0.2,0.9-0.2,1.4c0.1,0.4,0.5,0.8,0.6,1.2c0.1,0.4,0.1,0.9,0.1,1.3
				c0.1,0.4-0.1,0.9-0.1,1.3s0.2,0.9,0.3,1.3c0.1,0.4,0.2,0.9,0.2,1.3c0.1,0.4,0.3,0.8,0.3,1.3c0.1,0.4,0.1,0.9,0.2,1.3
				c0,0.4,0.1,0.9,0.1,1.3s0.1,0.9,0.1,1.3s0.2,0.9,0.2,1.3s-0.2,0.9-0.1,1.3c0,0.4,0.2,0.9,0.2,1.3s0,0.9,0,1.3s-0.2,0.9-0.2,1.3
				s-0.1,0.9-0.1,1.3c0.1,0.4,0.7,0.8,0.7,1.3c0,0.4-0.2,1.3-0.7,1.5c-0.3,0.1-0.5,0-0.8-0.3c-0.2-0.2-0.4-0.6-0.5-0.8
				c-0.2-0.3-0.4-0.6-0.5-0.9s-0.5-0.6-0.6-0.9s0-0.8-0.1-1.1c-0.1-0.3-0.1-0.7-0.2-1c-0.1-0.4-0.3-0.7-0.3-1.1
				c-0.1-0.4-0.2-0.7-0.3-1.1c-0.1-0.4-0.1-0.7-0.1-1.1s-0.3-0.7-0.3-1.1s0.2-0.8,0.2-1.1c0-0.4-0.1-0.7-0.2-1.1s-0.3-0.7-0.3-1.1
				c-0.1-0.4-0.2-0.7-0.2-1.1c-0.1-0.4,0-0.8,0-1.1c0-0.4,0-0.7-0.1-1.1c0-0.4-0.4-0.7-0.4-1.1s0.4-0.7,0.3-1.1
				c0-0.4-0.3-0.7-0.4-1.1c0-0.4-0.1-0.7-0.1-1.1s0.2-0.7,0.1-1.1c0-0.4-0.3-0.7-0.4-1.1s0.1-0.8,0.1-1.1c0-0.4-0.1-0.7-0.1-1.1
				s-0.3-0.7-0.2-1.1c0-0.4,0.1-0.7,0.1-1.1s0.2-0.7,0.2-1.1s0-0.7,0-1.1s-0.1-0.7-0.2-1.1c0-0.4,0.1-0.7,0.1-1.1s-0.3-0.7-0.3-1.1
				s0.2-0.7,0.1-1.1c0-0.4,0.1-0.7,0.1-1.1s-0.1-0.8,0-1.1c0-0.4,0-0.7,0-1.1C89.6,285.8,89.8,285.4,89.8,285.1z"/>
		</g>
	</g>
</g>
</svg>
