<?xml version="1.0" encoding="utf-8"?>
<!-- Generator: Adobe Illustrator 24.2.2, SVG Export Plug-In . SVG Version: 6.00 Build 0)  -->
<svg version="1.1" id="Layer_1" xmlns="http://www.w3.org/2000/svg" xmlns:xlink="http://www.w3.org/1999/xlink" x="0px" y="0px"
	 viewBox="0 0 140 151" style="enable-background:new 0 0 140 151;" xml:space="preserve">
<style type="text/css">
	.st0{fill:#65C2EE;}
</style>
<path class="st0" d="M25.2,47.7c16.4,2.4,16.4,46.3,0.3,50.2C3.7,97.3,2.2,44.3,25.2,47.7z"/>
<path class="st0" d="M93.4,46.2c16.4,2.4,16.4,46.3,0.3,50.2C71.9,95.8,70.4,42.9,93.4,46.2z"/>
<path d="M70.4,81.6c-0.5,0.1-0.6,0.5-0.6,0.9c-0.1,0.9-0.1,1.8,0.1,2.6c1.2,5.6,2.3,11.1,3.1,16.8c1.6,10.8,2.7,21.5,2.7,32.4
	c0,0.4,0,0.8,0.1,1.3c0.4,2.9,0,3.2-2.9,2.3c-3.4-1.1-6.6-2.7-9.6-4.6c-0.9-0.5-1.8-0.9-2.6-1.1c-1.4-0.3-2.7,0.1-1.9,1.3
	c0.4,0.7,0.8,1,1.6,1.6c3.4,3.8,7.8,5.5,12.6,6.4c1.7,0.3,3.2,0,4.6-0.7c0.9-0.4,1.3-1.1,1.3-2.1c0-1.4,0-2.7,0-4.7
	c0-1.4-0.1-3.5-0.2-5.5c-0.2-6.6-0.6-13.2-1.3-19.7c-0.8-7.4-2.3-14.7-4.4-21.8"/>
<path d="M36.4,102.2c-5.5-0.2-10.8-0.9-15.8-3.3c-6.9-3.5-11.3-9.1-12.9-16.6c-3-14.2,1.1-26.4,11.7-36.2c6.4-5.9,14.2-8.1,22.9-6.4
	c7.9,1.5,13.9,5.9,18.7,12.1c3.4,4.4,5.5,9.5,6.2,15c1.3,9.9-1.3,18.6-8,25.9c-5,5.5-11.9,8.9-19.3,9.3
	C38.7,102,37.5,102.2,36.4,102.2z M36.1,99.3c8.6-0.1,15.7-2.8,21.6-8.7c10.2-10.3,10.7-24.9,2.7-36.4c-4.3-6.2-10.3-9.9-17.6-11.8
	c-6.1-1.5-11.7-0.1-17.2,2.5c-1.9,0.9-1.9,1.3-0.4,2.7c3.2,2.9,5.5,6.4,7.3,10.3c3.1,7,4.3,14.3,2.8,21.9
	c-1.3,6.6-4.9,11.9-9.2,16.9c-0.3,0.4-0.8,0.7-0.7,1.2c0.2,0.6,0.8,0.6,1.3,0.7C29.9,99.2,33.2,99,36.1,99.3z M32.7,73
	c0-0.6,0-1.1,0-1.7c0-0.6-0.1-1.1-0.2-1.7c-0.8-8.2-4.3-15.1-10-20.8c-0.8-0.8-1.5-0.8-2.3,0C10.9,57.7,7.4,68.5,9.7,81.1
	c1.2,6.6,4.9,11.7,10.7,15.2c1.5,0.9,1.9,0.9,3.1-0.4C29.6,89.4,32.4,81.7,32.7,73z"/>
<path d="M106.5,37.4c7.3,0,13.5,2.8,18.8,7.6c5.5,4.8,9.4,11.4,10.7,18.6c1.8,9.9-0.6,18.6-6.7,26.3c-5,6.2-11.7,9.6-19.6,10.4
	c-6.2,0.6-12.3,0.1-18.1-2.2c-8.4-3.4-13.3-9.8-15.1-18.5c-1.9-9-0.1-17.5,4.2-25.5c2.8-5.2,6.6-9.6,11.7-12.7
	C96.8,38.7,101.4,37.3,106.5,37.4z M104.7,98.1c2.1,0.1,4.2-0.3,6.3-0.7c4.7-1,9-3.2,12.5-6.4c7.6-7,11.3-15.5,9.9-25.4
	c-1.4-10-6.3-17.8-15.2-22.7c-8.2-4.6-16.5-4.2-24.6,0.5c-1.3,0.8-1.3,1.2-0.2,2.3c1.5,1.5,2.9,3.2,4.1,5c4.6,6.7,7,14.1,6.8,22.3
	c-0.1,5.2-1.5,10.1-3.9,14.7c-1.5,2.7-3.3,5.2-5.3,7.6c-0.6,0.7-0.4,1.6,0.6,1.8C98.6,97.7,101.6,98,104.7,98.1z M101.7,71.5
	c0-1.6,0-3.2-0.3-4.8c-1.1-7.7-4.5-14.3-10.1-19.8c-0.7-0.7-1.3-0.9-2.2-0.2c-5.2,4.8-9.1,10.4-10.6,17.4
	c-1.9,8.4-1.1,16.5,3.9,23.8c2,2.9,4.5,5.3,8,6.3c1,0.3,1.8,0.2,2.4-0.6c0.7-0.9,1.6-1.7,2.3-2.6C99.7,85.2,101.6,78.7,101.7,71.5z"
	/>
<path d="M100.6,19.1c9.5,0,17.1,2.6,23.7,8.1c3.3,2.7,6.1,5.9,8.3,9.5c0.3,0.6,0.6,1.2,0.7,1.8c0.1,0.4,0.1,0.9-0.3,1.1
	c-0.5,0.2-0.9,0-1.2-0.4c-0.8-0.8-1.5-1.6-2.2-2.5c-6-7-13.6-11.1-22.5-13c-4.6-1-9.2-0.3-13.8,0.5c-1.1,0.2-2.2,0.4-3.3,0.5
	c-0.5,0.1-1,0-1.2-0.5c-0.2-0.5,0-0.9,0.4-1.3c0.4-0.5,0.9-0.9,1.5-1.2C93.9,19.8,97.6,18.9,100.6,19.1z"/>
<path d="M40.3,6.4C46,6.2,51,7.7,55.4,11.3c1,0.8,1.9,1.6,2.3,2.8c0.2,0.6,0.3,1.2-0.2,1.7c-0.5,0.5-1.1,0.3-1.7,0
	c-0.5-0.2-0.9-0.5-1.3-0.9c-4-3.1-8.5-4.3-13.4-4.4c-2.9-0.1-5.8,0-8.7,0.3c-5.6,0.6-10.4,3-14.9,6.2c-1.7,1.2-3.3,2.6-4.9,3.8
	c-0.5,0.4-1.2,1.1-1.8,0.5c-0.7-0.6-0.1-1.4,0.3-1.9c2.4-3.3,5.6-5.9,9.1-7.9C26.3,7.9,33.2,6.5,40.3,6.4z"/>
</svg>
