<?xml version="1.0" encoding="utf-8"?>
<!-- Generator: Adobe Illustrator 24.2.2, SVG Export Plug-In . SVG Version: 6.00 Build 0)  -->
<svg version="1.1" id="Layer_1" xmlns="http://www.w3.org/2000/svg" xmlns:xlink="http://www.w3.org/1999/xlink" x="0px" y="0px"
	 viewBox="0 0 180 182" style="enable-background:new 0 0 180 182;" xml:space="preserve">
<style type="text/css">
	.st0{fill:#BEF4FF;}
	.st1{fill:#F8B618;}
	.st2{fill:#FF7BE9;}
</style>
<g>
	<g>
		<g>
			<polyline class="st0" points="128.51,145.71 128.3,144.39 127.78,143.11 127.58,141.77 127.36,140.43 127.59,139.09 
				128.36,138.09 129.45,137.25 130.79,136.81 131.81,135.77 133.18,135.42 134.48,134.91 135.61,134.05 136.83,133.35 
				138.09,132.76 139.58,132.72 140.81,132.1 142.03,131.38 143.51,131.56 144.75,130.92 145.89,130.09 147.35,129.96 
				148.31,128.84 149.45,128.09 150.62,127.4 151.79,126.61 153.21,126.16 154.29,125.24 155.13,124.03 156.47,123.42 
				157.21,122.13 158.47,121.41 159.24,120.19 160.48,119.41 161.37,118.31 162.31,117.25 163.06,116.03 163.96,114.95 
				164.8,113.81 165.86,112.83 166.83,111.78 167.35,110.42 167.86,109.07 169.1,108.1 169.54,106.65 170.59,105.55 171.27,104.24 
				171.99,102.95 172.53,101.57 172.66,100.03 173.32,98.71 173.72,97.3 174.35,95.96 174.8,94.56 175.23,93.15 175.39,91.68 
				175.98,90.29 176.09,88.81 176.1,87.33 176.01,85.9 176.54,84.5 175.99,83.06 176.02,81.64 176.35,80.21 176.23,78.79 
				176.48,77.35 176.34,75.92 175.9,74.53 176,73.08 175.55,71.7 175.42,70.28 175.39,68.84 174.84,67.49 174.93,66.03 
				174.67,64.62 174.42,63.22 173.85,61.88 173.47,60.51 173.44,59.06 173.12,57.67 172.36,56.4 172.58,54.88 171.74,53.62 
				171.52,52.21 171.16,50.84 170.6,49.52 170.53,48.06 169.88,46.77 169.52,45.39 169.06,44.04 168.58,42.7 168.28,41.3 
				167.56,40.05 167.16,38.67 166.28,37.51 165.98,36.08 165.42,34.72 164.41,33.61 163.59,32.4 163.12,30.99 162.09,29.91 
				161.66,28.46 160.61,27.4 159.61,26.34 159,24.97 157.8,24.07 157.07,22.78 155.94,21.84 155.04,20.69 153.83,19.84 153,18.6 
				151.98,17.56 150.83,16.65 149.67,15.77 148.6,14.77 147.26,14.13 146.06,13.31 144.77,12.63 143.76,11.46 142.38,10.93 
				141.05,10.32 139.74,9.7 138.43,9.06 137.18,8.24 135.67,8.11 134.34,7.5 132.96,7.04 131.53,6.7 130.21,6 128.7,5.99 
				127.22,5.92 125.83,5.38 124.37,5.22 122.89,5.26 121.43,5.19 120.02,4.56 118.55,4.57 117.09,4.33 115.61,4.55 114.16,4.3 
				112.69,4.28 111.23,4.06 109.78,4.31 108.34,4.38 106.9,4.09 105.45,4.1 104.01,4.56 102.56,4.29 101.13,4.65 99.69,4.71 
				98.25,4.69 96.79,4.38 95.35,4.55 93.91,4.73 92.49,5 91.03,4.93 89.6,5.16 88.18,5.42 86.74,5.53 85.3,5.72 83.84,5.65 
				82.44,6.13 81.02,6.38 79.52,6.16 78.15,6.77 76.67,6.63 75.2,6.67 73.8,7.03 72.36,7.27 70.92,7.42 69.6,8.19 68.19,8.54 
				66.72,8.57 65.31,8.93 63.87,9.15 62.48,9.42 61.16,9.97 59.79,10.32 58.43,10.72 57.14,11.33 55.81,11.81 54.6,12.61 
				53.22,12.97 52,13.7 50.63,14.09 49.22,14.4 47.93,15 46.69,15.69 45.65,16.75 44.24,17.1 42.94,17.69 41.93,18.76 40.65,19.39 
				39.47,20.21 38.27,21 37.1,21.81 35.92,22.62 34.77,23.46 33.4,24 32.16,24.75 31.04,25.65 30.15,26.83 28.8,27.45 27.98,28.69 
				26.71,29.42 25.9,30.64 24.88,31.64 23.59,32.39 22.63,33.46 21.69,34.54 20.83,35.69 19.83,36.72 18.95,37.87 18.45,39.27 
				17.19,40.14 16.38,41.33 15.94,42.74 15.18,43.95 14.56,45.24 14.02,46.57 13.35,47.82 12.49,49.01 11.91,50.32 11.66,51.8 
				10.84,53.07 10.66,54.55 10.01,55.9 9.78,57.36 9.61,58.82 9.29,60.26 8.86,61.68 8.9,63.17 9.11,64.66 8.56,66.09 8.78,67.57 
				8.72,69.03 8.78,70.5 8.67,71.97 8.95,73.42 8.82,74.9 8.83,76.38 9.04,77.83 9.64,79.23 9.83,80.68 9.95,82.07 10.2,83.43 
				10.12,84.87 10.94,86.11 10.72,87.59 11.24,88.9 11.85,90.17 12.06,91.55 12.59,92.85 12.78,94.23 12.74,95.66 13.32,96.94 
				13.47,98.32 14.22,99.55 14.56,100.89 14.66,102.29 14.96,103.64 15.47,104.93 15.6,106.39 16.32,107.66 17.09,108.89 
				17.53,110.25 17.79,111.71 18.46,112.98 19.19,114.21 19.77,115.53 20.94,116.51 21.51,117.83 22.39,118.96 23.19,120.14 
				23.78,121.48 24.52,122.71 25.73,123.58 26.3,124.97 27.58,125.75 28.36,126.98 29.41,127.96 30.45,128.93 31.8,129.52 
				32.93,130.36 33.76,131.61 35.21,132.01 36.16,133.13 37.33,133.93 38.51,134.73 39.95,135.05 41.04,136.03 42.5,136.27 
				43.7,137.03 45.08,137.4 46.37,137.97 47.64,138.58 48.85,139.37 50.21,139.77 51.6,140.08 52.82,140.9 54.33,140.93 
				55.73,141.29 57.04,142.01 58.47,142.27 59.86,142.71 61.32,142.82 62.75,143.06 64.14,143.51 65.62,143.49 67.03,143.83 
				68.43,144.28 69.9,144.22 71.37,144.13 72.79,144.46 74.25,144.38 75.67,144.77 77.13,144.8 78.56,145.17 80.03,144.74 
				81.47,144.99 82.91,145.13 84.37,144.89 85.82,144.89 87.26,144.93 88.71,145.45 90.16,145.21 91.61,145.22 93.06,145.12 
				94.51,145.32 95.95,144.86 97.42,145.37 98.85,144.92 100.3,144.77 101.74,144.64 103.22,145.13 104.64,144.51 106.11,145.03 
				107.53,144.51 108.28,144.85 108.41,146.35 108.98,147.73 109.59,149.09 109.72,150.63 110.78,151.76 111.09,153.24 
				112.2,154.31 112.86,155.6 113.24,157.1 114.06,158.32 115.3,159.24 115.83,160.69 116.74,161.85 118.02,162.68 118.79,163.98 
				120.13,164.7 121.03,165.9 122.48,166.44 123.45,167.6 124.79,168.23 126.03,169.03 127.47,169.42 128.64,170.46 130.2,170.46 
				131.59,170.91 132.96,171.62 134.45,171.71 135.96,171.38 137.4,172.03 138.88,171.71 140.34,171.4 141.82,171.51 143.31,171.49 
				144.67,170.75 146.24,170.96 147.6,170.32 148.9,170.14 148.44,170.52 147.11,170.22 145.9,169.45 144.47,169.13 143.21,168.45 
				142,167.69 140.88,166.79 139.7,166.01 138.61,165.09 137.22,164.56 136.16,163.6 135.22,162.52 134,161.7 133.5,160.3 
				132.41,159.37 131.61,158.2 131.46,156.7 130.89,155.45 130.33,154.18 129.48,153 129.25,151.61 129.1,150.21 128.42,148.92 
				128.42,147.5 128.25,146.11 			"/>
		</g>
		<g>
			<line class="st1" x1="129.91" y1="145.67" x2="128.29" y2="146.11"/>
		</g>
	</g>
</g>
<g>
	<g>
		<g>
			<path class="st2" d="M64.59,51.71c0.53-0.08,0.97-0.2,1.35-0.28c0.53-0.1,0.9-0.42,1.28-0.52c0.46-0.13,0.86-0.22,1.32-0.35
				c0.38-0.1,0.8-0.22,1.33-0.33c0.38-0.08,0.83-0.14,1.35-0.22c0.52-0.08,0.95-0.21,1.34-0.27c0.53-0.09,0.95-0.18,1.34-0.25
				c0.46-0.09,0.93,0.17,1.4,0.08c0.38-0.08,0.77-0.35,1.3-0.43c0.38-0.06,0.8-0.3,1.32-0.37c0.4-0.06,0.87-0.01,1.26,0.12
				c0.37,0.13,0.56,0.62,0.86,0.89c0.31,0.26,0.83,0.37,1.01,0.72c0.26,0.5,0.11,1.11,0.31,1.5c0.26,0.51,0.76,0.8,0.95,1.19
				c0.24,0.49,0.48,0.9,0.68,1.32c0.19,0.42,0.18,0.94,0.41,1.44c0.18,0.39,0.58,0.73,0.83,1.24c0.2,0.39,0.31,0.88,0.57,1.38
				c0.26,0.5,0.49,0.92,0.69,1.31c0.26,0.51,0.71,0.81,0.91,1.19c0.26,0.48,0.05,1.12,0.27,1.53c0.22,0.41,0.87,0.59,1.12,1.07
				c0.2,0.38,0.42,0.81,0.68,1.31c0.2,0.39,0.37,0.85,0.63,1.35c0.24,0.46,0.56,0.74,1.05,0.75c0.48,0.01,0.79-0.27,1.04-0.72
				c0.3-0.58,0.86-0.86,1.07-1.25c0.31-0.57,0.33-1.11,0.57-1.53c0.24-0.41,0.41-0.86,0.72-1.43c0.21-0.39,0.6-0.77,0.9-1.35
				c0.23-0.45,0.29-0.88,0.44-1.23c0.2-0.47,0.45-0.81,0.55-1.17c0.12-0.43,0.46-0.75,0.58-1.18c0.1-0.36-0.02-0.83,0.17-1.3
				c0.14-0.34,0.25-0.77,0.48-1.21c0.23-0.45,0.55-0.79,0.69-1.15c0.18-0.48,0.38-0.87,0.5-1.24c0.14-0.45-0.01-0.98,0.21-1.36
				c0.19-0.34,0.54-0.65,0.92-1.01c0.28-0.26,0.66-0.49,1.09-0.78c0.54-0.36,1.04-0.44,1.44-0.56c0.56-0.17,1.03-0.48,1.53-0.4
				c0.45,0.07,0.87,0.59,1.46,0.67c0.44,0.06,0.97,0.15,1.57,0.13c0.6-0.02,1.08-0.38,1.49-0.36c0.6,0.02,1.02,0.35,1.47,0.4
				c0.44,0.05,0.9-0.15,1.5-0.13c0.41,0.01,0.89,0.2,1.49,0.18c0.49-0.02,1.04-0.12,1.42,0.12c0.4,0.26,0.74,0.74,0.89,1.17
				c0.15,0.42,0.04,0.95-0.16,1.41c-0.21,0.49-0.47,0.87-0.64,1.22c-0.24,0.48-0.58,0.77-0.79,1.11c-0.26,0.4-0.27,0.89-0.52,1.29
				c-0.21,0.33-0.43,0.69-0.68,1.17c-0.18,0.35-0.33,0.76-0.54,1.25c-0.21,0.49-0.27,0.94-0.4,1.31c-0.17,0.51-0.67,0.83-0.75,1.22
				c-0.1,0.46,0.09,0.93-0.01,1.4c-0.08,0.39-0.09,0.85-0.26,1.36c-0.12,0.37-0.39,0.76-0.6,1.25c-0.21,0.49-0.42,0.88-0.57,1.24
				c-0.21,0.5-0.23,0.95-0.38,1.31c-0.18,0.44-0.63,0.7-0.81,1.14c-0.15,0.36-0.29,0.76-0.5,1.26c-0.15,0.36-0.11,0.86-0.32,1.34
				c-0.21,0.49-0.53,0.83-0.69,1.19c-0.22,0.49-0.25,0.95-0.42,1.31c-0.2,0.42-0.51,0.74-0.71,1.16c-0.17,0.35-0.34,0.75-0.55,1.24
				c-0.16,0.36-0.06,0.88-0.26,1.37c-0.19,0.49-0.25,0.82-0.17,1.26c0.08,0.44,0.05,0.91,0.36,1.32c0.33,0.43,0.46,0.9,0.7,1.22
				c0.33,0.44,0.92,0.55,1.16,0.87c0.29,0.39,0.39,0.84,0.67,1.23c0.24,0.32,0.49,0.68,0.82,1.12c0.24,0.32,0.35,0.81,0.67,1.24
				c0.33,0.44,0.89,0.6,1.12,0.93c0.31,0.46,0.43,0.91,0.63,1.26c0.24,0.42,0.21,0.93,0.45,1.35c0.2,0.35,0.45,0.73,0.75,1.19
				c0.22,0.33,0.81,0.47,1.14,0.91c0.33,0.43,0.63,0.77,0.88,1.09c0.34,0.43,0.4,0.95,0.67,1.26c0.31,0.36,0.82,0.48,1.14,0.85
				c0.26,0.3,0.2,0.92,0.54,1.35c0.25,0.31,0.71,0.53,1.04,0.96c0.33,0.43,0.53,0.85,0.77,1.17c0.32,0.45,0.56,0.82,0.79,1.15
				c0.27,0.4,0.76,0.57,1.04,0.97c0.23,0.33,0.33,0.79,0.66,1.23c0.23,0.32,0.56,0.65,0.88,1.08c0.33,0.43,0.58,0.82,0.81,1.15
				c0.32,0.45,0.61,0.79,0.83,1.12c0.27,0.4,0.4,0.82,0.67,1.22c0.22,0.33,0.48,0.69,0.8,1.14c0.23,0.32,0.66,0.57,0.99,1
				c0.41,0.55,0.31,1.23,0.13,1.67c-0.18,0.44-0.61,0.75-1.3,0.84c-0.65,0.09-1.14,0.31-1.57,0.4c-0.64,0.13-1.15,0.04-1.62,0.17
				c-0.46,0.13-0.93,0.22-1.56,0.35c-0.43,0.09-0.9,0.45-1.55,0.54c-0.65,0.09-1.19-0.04-1.63,0c-0.65,0.06-1.14-0.09-1.62-0.06
				c-0.48,0.03-0.94,0.36-1.58,0.42c-0.44,0.04-0.98-0.1-1.63-0.02c-0.55,0.07-1-0.08-1.5-0.29c-0.5-0.21-1.22-0.22-1.52-0.7
				c-0.28-0.46-0.21-1.04-0.43-1.37c-0.3-0.46-0.61-0.78-0.84-1.1c-0.28-0.38-0.47-0.76-0.75-1.15c-0.23-0.32-0.78-0.47-1.08-0.92
				c-0.22-0.33-0.13-0.92-0.41-1.38c-0.28-0.46-0.79-0.68-1-1.01c-0.29-0.46-0.23-1.02-0.44-1.35c-0.25-0.4-0.64-0.65-0.89-1.06
				c-0.21-0.33-0.37-0.74-0.66-1.2c-0.21-0.33-0.68-0.57-0.96-1.03c-0.28-0.46-0.6-0.8-0.8-1.13c-0.28-0.47-0.2-1.02-0.4-1.36
				c-0.24-0.41-0.58-0.7-0.82-1.11c-0.2-0.34-0.45-0.7-0.73-1.16c-0.2-0.34-0.33-0.79-0.62-1.24c-0.28-0.46-0.74-0.71-0.95-1.04
				c-0.29-0.46-0.2-1.03-0.41-1.37c-0.26-0.4-0.76-0.57-1.02-0.98c-0.21-0.33-0.35-0.76-0.64-1.22c-0.21-0.33-0.44-0.72-0.72-1.18
				c-0.26-0.42-0.56-0.66-0.84-0.62c-0.28,0.04-0.33,0.42-0.51,0.87c-0.19,0.48-0.64,0.78-0.79,1.16c-0.2,0.49-0.19,0.97-0.34,1.33
				c-0.19,0.47-0.58,0.77-0.75,1.17c-0.17,0.39-0.03,0.92-0.22,1.38c-0.15,0.37-0.7,0.62-0.9,1.11c-0.15,0.37-0.23,0.83-0.42,1.31
				c-0.19,0.48-0.16,0.98-0.32,1.35c-0.22,0.48-0.65,0.76-0.83,1.12c-0.24,0.45-0.27,0.92-0.49,1.3c-0.22,0.37-0.39,0.77-0.62,1.21
				c-0.19,0.35-0.48,0.7-0.69,1.18c-0.17,0.37-0.37,0.77-0.56,1.25c-0.2,0.49-0.5,0.92-0.59,1.34c-0.11,0.52,0.1,1.03,0.08,1.47
				c-0.03,0.52-0.31,0.98-0.32,1.43c-0.01,0.49,0.37,1.02,0.23,1.48c-0.13,0.41-0.39,0.87-0.74,1.3c-0.26,0.32-0.61,0.69-1.04,1.05
				c-0.44,0.36-0.87,0.67-1.23,0.83c-0.5,0.23-1.04,0.13-1.49,0.11c-0.45-0.02-0.91-0.09-1.42-0.2c-0.42-0.09-0.85-0.35-1.39-0.41
				c-0.43-0.04-0.9,0.24-1.43,0.27c-0.53,0.03-0.98-0.18-1.37-0.16c-0.54,0.02-0.96,0.29-1.35,0.3c-0.47,0-0.88-0.41-1.35-0.41
				c-0.39,0-0.81,0.36-1.34,0.38c-0.39,0.01-0.84-0.15-1.36-0.12c-0.53,0.03-1.01,0.13-1.46,0.26c-0.51,0.15-1.04,0.18-1.46,0.37
				c-0.5,0.23-0.86,0.63-1.28,0.76c-0.51,0.16-0.93,0.1-1.39-0.15c-0.33-0.18-0.76-0.41-1.1-0.95c-0.36-0.56-0.31-1.04-0.31-1.42
				c0-0.51,0.08-0.95,0.48-1.32c0.32-0.3,0.73-0.61,1.16-0.94c0.37-0.29,0.85-0.5,1.21-0.89c0.32-0.34,0.75-0.69,1-1.16
				c0.25-0.47,0.2-1,0.37-1.35c0.23-0.49,0.5-0.84,0.65-1.2c0.18-0.44,0.11-0.91,0.29-1.35c0.15-0.36,0.47-0.7,0.7-1.18
				c0.17-0.35,0.58-0.64,0.83-1.1c0.25-0.47,0.41-0.88,0.61-1.22c0.28-0.46,0.38-0.91,0.6-1.23c0.27-0.39,0.58-0.68,0.85-1.07
				c0.23-0.32,0.34-0.76,0.62-1.22c0.2-0.34,0.39-0.74,0.64-1.2c0.25-0.47,0.77-0.71,0.94-1.07c0.23-0.49,0.15-1,0.29-1.37
				c0.17-0.44,0.31-0.83,0.48-1.27c0.14-0.37,0.34-0.75,0.56-1.24c0.17-0.35,0.48-0.69,0.73-1.16c0.25-0.47,0.26-0.97,0.45-1.32
				c0.25-0.47,0.49-0.84,0.68-1.18c0.22-0.41,0.41-0.78,0.64-1.19c0.19-0.34,0.49-0.67,0.74-1.14c0.18-0.34,0.18-0.85,0.43-1.31
				c0.31-0.58,0.45-1.07,0.37-1.65c-0.08-0.56-0.32-1.08-0.64-1.62c-0.28-0.48-0.41-0.94-0.6-1.31c-0.25-0.5-0.3-0.97-0.45-1.35
				c-0.18-0.46-0.38-0.84-0.57-1.3c-0.15-0.38-0.53-0.7-0.79-1.2c-0.18-0.36-0.25-0.86-0.53-1.33c-0.28-0.48-0.58-0.84-0.82-1.18
				c-0.32-0.46-0.61-0.8-0.88-1.12c-0.32-0.38-0.73-0.6-1.05-0.98c-0.26-0.31-0.2-0.92-0.52-1.38c-0.23-0.34-0.71-0.57-1-1.05
				c-0.28-0.48-0.32-0.99-0.51-1.35c-0.27-0.49-0.42-0.91-0.6-1.28c-0.22-0.44-0.77-0.65-0.99-1.09c-0.18-0.36-0.39-0.75-0.66-1.24
				c-0.2-0.36-0.4-0.77-0.68-1.24c-0.28-0.48-0.36-0.97-0.58-1.31c-0.3-0.48-0.39-0.96-0.63-1.3c-0.28-0.4-0.53-0.75-0.81-1.16
				c-0.23-0.33-0.47-0.7-0.77-1.17c-0.22-0.34-0.59-0.66-0.87-1.13c-0.32-0.54-0.43-1.2-0.06-1.62
				C63.3,51.74,64.03,51.79,64.59,51.71z"/>
		</g>
		<g>
			<path d="M105.18,46.34c0.48-0.04,1,0.16,1.54,0.15c0.49-0.01,1,0.06,1.52,0.06c0.5,0,1,0.01,1.52,0.02
				c0.5,0.01,1.01-0.01,1.53-0.01c0.51,0,1.02,0.17,1.53,0.16c0.14,0,0.27-0.56,0.4-0.55c0.75,0.05,1.4,0.21,1.61,0.6
				c0.21,0.39,0.15,1.12-0.22,1.77c-0.22,0.38-0.55,0.69-0.76,1.08c-0.2,0.39-0.24,0.86-0.44,1.25c-0.19,0.39-0.61,0.67-0.81,1.06
				c-0.19,0.39-0.23,0.86-0.43,1.25c-0.2,0.39-0.65,0.64-0.87,1.02c-0.22,0.38-0.55,0.66-0.81,1.02c-0.26,0.35-0.34,0.84-0.62,1.19
				c-0.28,0.34-0.7,0.57-0.98,0.9c-0.28,0.34-0.35,0.85-0.6,1.2c-0.26,0.36-0.62,0.65-0.83,1.03c-0.22,0.38-0.32,0.82-0.52,1.21
				c-0.19,0.39-0.59,0.69-0.77,1.09c-0.18,0.4-0.04,0.94-0.22,1.34c-0.18,0.4-0.7,0.64-0.89,1.03c-0.19,0.39-0.02,0.98-0.24,1.36
				c-0.24,0.43-0.8,0.68-1.05,1.1c-0.25,0.42-0.42,0.9-0.68,1.32c-0.26,0.42-0.71,0.73-0.96,1.15c-0.25,0.42-0.13,1.07-0.37,1.5
				c-0.24,0.43-0.72,0.73-0.99,1.14c-0.26,0.42-0.61,0.78-0.88,1.2c-0.27,0.41-0.43,0.9-0.7,1.32c-0.27,0.42-0.49,0.86-0.73,1.29
				c-0.37,0.64,0.41,0.91,0.9,1.51c0.31,0.39,0.43,0.91,0.66,1.37c0.22,0.44,0.33,0.94,0.53,1.4c0.2,0.46,0.38,0.95,0.6,1.39
				c0.23,0.45,0.8,0.68,1.11,1.06c0.28,0.34,0.33,0.91,0.65,1.22c0.32,0.31,0.76,0.5,1.1,0.8c0.34,0.3,0.83,0.42,1.16,0.71
				c0.34,0.3,0.5,0.79,0.82,1.1c0.32,0.31,0.84,0.46,1.13,0.8c0.29,0.34,0.34,0.88,0.64,1.21c0.29,0.34,0.76,0.51,1.06,0.85
				c0.3,0.33,0.3,0.92,0.59,1.26c0.29,0.33,0.7,0.57,0.99,0.91c0.29,0.34,0.72,0.55,1.01,0.9c0.32,0.38,0.68,0.74,0.99,1.13
				c0.3,0.39,0.31,1.01,0.6,1.41c0.29,0.4,0.84,0.62,1.13,1.02c0.29,0.4,0.6,0.79,0.89,1.2c0.29,0.4,0.32,1,0.62,1.4
				c0.3,0.4,0.87,0.58,1.18,0.97c0.31,0.39,0.59,0.8,0.91,1.18c0.31,0.39,0.48,0.89,0.79,1.27s0.77,0.65,1.09,1.04
				c0.31,0.39,0.34,1,0.65,1.39s0.93,0.53,1.24,0.92c0.31,0.39,0.59,0.8,0.9,1.19c0.32,0.42,0.45,0.97,0.31,1.25
				c-0.14,0.27-0.65,0.35-1.16,0.43c-0.07,0.01-0.13-0.19-0.2-0.19c-0.48,0.02-0.98-0.09-1.46-0.02c-0.47,0.06-0.95,0.18-1.42,0.27
				c-0.47,0.09-0.88,0.49-1.35,0.59c-0.47,0.1-1-0.12-1.47-0.03c-0.47,0.1-0.89,0.46-1.36,0.54c-0.47,0.08-0.94,0.23-1.42,0.28
				c-0.48,0.04-0.97-0.29-1.44-0.29c-0.45,0-0.9,0.32-1.35,0.34c-0.45,0.02-0.92-0.31-1.37-0.29c-0.45,0.02-0.89,0.4-1.34,0.4
				c-0.45,0-0.91,0-1.36-0.03c-0.45-0.03-0.91-0.09-1.36-0.17c-0.4-0.07-0.48-0.5-0.49-1.03c-0.01-0.51,0.07-0.92,0.47-1
				c0.47-0.1,0.95-0.26,1.43-0.32c0.48-0.06,0.97-0.11,1.46-0.15c0.48-0.04,0.98,0.11,1.47,0.09c0.48-0.02,0.97-0.07,1.45-0.08
				c0.48-0.01,0.97-0.15,1.45-0.15c0.48,0,0.97,0.35,1.45,0.34c0.57,0,1.13,0,1.7,0.08c0.56,0.08,1.13,0.02,1.69-0.01
				c0.5-0.03,0.99,0.12,1.49,0.15c0.49,0.03,0.99-0.15,1.48-0.15c0.3,0,0.56-0.13,0.71-0.49c0.14-0.33-0.28-0.28-0.47-0.5
				c-0.29-0.34-0.35-0.87-0.64-1.2c-0.29-0.33-0.78-0.49-1.07-0.83c-0.29-0.33-0.49-0.75-0.78-1.08c-0.29-0.33-0.43-0.8-0.71-1.14
				c-0.29-0.34-0.47-0.75-0.75-1.1c-0.28-0.34-0.83-0.47-1.11-0.81c-0.28-0.34-0.55-0.69-0.84-1.03c-0.28-0.34-0.39-0.83-0.68-1.17
				c-0.28-0.34-0.69-0.58-0.97-0.92s-0.63-0.63-0.9-0.98c-0.28-0.34-0.48-0.75-0.75-1.1c-0.27-0.35-0.56-0.69-0.83-1.04
				s-0.64-0.62-0.92-0.97s-0.51-0.72-0.78-1.07c-0.27-0.35-0.29-0.9-0.57-1.24c-0.29-0.36-0.59-0.71-0.88-1.06
				c-0.29-0.36-0.9-0.46-1.19-0.81c-0.29-0.36-0.48-0.8-0.78-1.15c-0.29-0.35-0.53-0.75-0.83-1.11c-0.29-0.35-0.48-0.8-0.77-1.15
				s-0.87-0.47-1.17-0.82c-0.3-0.35-0.37-0.9-0.67-1.25c-0.3-0.35-0.67-0.64-0.98-0.98c-0.3-0.35-0.43-0.85-0.74-1.19
				c-0.3-0.35-0.72-0.59-1.03-0.94c-0.31-0.34-0.71-0.6-1.02-0.94c-0.31-0.34-0.68-0.62-0.99-0.97c-0.31-0.34-0.3-0.81-0.14-1.19
				c0.13-0.29,0.67-0.45,0.87-0.83c0.23-0.43,0.14-1.02,0.34-1.46c0.2-0.44,0.54-0.83,0.72-1.28c0.18-0.45,0.11-1,0.29-1.45
				c0.18-0.45,0.43-0.88,0.63-1.32c0.2-0.44,0.72-0.72,0.96-1.14c0.23-0.42,0.31-0.92,0.56-1.33c0.25-0.41,0.39-0.89,0.64-1.3
				c0.26-0.41,0.7-0.69,0.96-1.1c0.26-0.4,0.41-0.88,0.66-1.29c0.26-0.41,0.44-0.86,0.68-1.27c0.25-0.41,0.75-0.68,0.98-1.1
				c0.23-0.42,0.11-1.04,0.34-1.45c0.23-0.42,0.43-0.86,0.67-1.28c0.24-0.42,0.86-0.61,1.1-1.03c0.24-0.41,0.39-0.88,0.63-1.3
				c0.24-0.41,0.42-0.86,0.66-1.28c0.24-0.41,0.57-0.78,0.82-1.19c0.22-0.37,0.34-0.81,0.56-1.18c0.21-0.38,0.6-0.66,0.81-1.04
				c0.21-0.38,0.01-0.98,0.23-1.36c0.21-0.38,0.51-0.71,0.74-1.08c0.22-0.37,0.46-0.74,0.7-1.1c0.18-0.27,0.97-0.81,0.76-1.17
				c-0.22-0.38-1.09,0.38-1.44,0.39c-0.46,0.01-0.93-0.11-1.4-0.1c-0.46,0.01-0.93-0.22-1.39-0.22c-0.46,0-0.93,0.06-1.39,0.06
				c-0.46,0-0.93-0.05-1.39-0.05c-0.46,0-0.93,0.37-1.39,0.37c-0.46,0-0.92,0.07-1.39,0.08c-0.46,0.01-0.93-0.02-1.39-0.01
				c-0.46,0.02-0.92-0.12-1.38-0.07c-0.45,0.05-0.89,0.33-1.35,0.37c-0.45,0.03-0.94-0.01-1.39-0.05c-0.28-0.02-0.76-0.01-0.8-0.38
				c-0.04-0.37,0.38-0.62,0.64-0.71c0.37-0.12,0.7-0.14,1.12,0c0.41,0.14,0.84,0.34,1.22,0.31c0.46-0.03,0.91-0.24,1.38-0.32
				c0.45-0.08,0.87-0.34,1.35-0.43c0.44-0.08,0.91-0.18,1.39-0.25C104.21,46.43,104.69,46.37,105.18,46.34z"/>
		</g>
		<g>
			<path d="M73.36,48.34c-0.5,0.09-0.91,0.56-1.39,0.62c-0.5,0.06-1,0.03-1.48,0.08c-0.5,0.04-0.98,0.2-1.47,0.23
				c-0.49,0.03-0.99-0.1-1.48-0.07c-0.49,0.03-0.98,0.1-1.47,0.13c-0.51,0.03-1.03-0.05-1.55-0.03c-0.51,0.02-1.02,0.27-1.53,0.29
				c-0.51,0.01-1.03-0.1-1.55-0.1c-0.51,0-1.03-0.19-1.54-0.2c-0.11,0-0.21,0.1-0.32,0.11c-0.24,0.02-0.5-0.19-0.65,0.06
				c-0.18,0.29,0.48,0.14,0.64,0.35c0.31,0.41,0.38,0.98,0.66,1.41c0.28,0.43,0.67,0.78,0.94,1.21c0.27,0.43,0.45,0.92,0.73,1.34
				c0.28,0.42,0.48,0.92,0.79,1.32c0.28,0.36,0.49,0.75,0.75,1.13c0.26,0.37,0.74,0.59,0.99,0.98c0.25,0.38,0.42,0.81,0.67,1.19
				c0.25,0.38,0.67,0.64,0.93,1.01c0.26,0.37,0.26,0.94,0.54,1.3c0.28,0.36,0.69,0.62,1.01,0.95c0.32,0.32,0.7,0.59,1.04,0.9
				c0.34,0.31,0.69,0.6,1.03,0.91c0.34,0.31,0.49,0.8,0.81,1.12c0.32,0.32,0.63,0.63,0.91,0.98c0.28,0.35,0.89,0.46,1.16,0.82
				c0.27,0.36,0.23,0.95,0.49,1.32c0.26,0.37,0.65,0.65,0.91,1.02c0.26,0.37,0.55,0.72,0.82,1.08c0.27,0.37,0.69,0.61,0.97,0.96
				c0.28,0.36,0.27,0.94,0.54,1.3c0.27,0.36,0.66,0.63,0.93,1c0.27,0.36,0.6,0.68,0.87,1.05c0.27,0.37,0.68,0.63,0.94,0.99
				c0.27,0.37,0.48,0.77,0.75,1.13c0.3,0.4,0.92,0.6,1.19,1.02c0.16,0.25-0.03,1.03-0.29,1.29c-0.27,0.26-0.48-0.49-0.73-0.63
				c-0.36-0.21-0.72-0.45-1.11-0.6c-0.4-0.16-0.77-0.31-1.06-0.62c-0.36-0.38-0.6-0.86-0.95-1.25c-0.35-0.39-0.79-0.69-1.13-1.08
				c-0.34-0.39-0.77-0.71-1.11-1.11c-0.34-0.4-0.71-0.77-1.04-1.17c-0.33-0.4-0.66-0.81-0.99-1.21c-0.33-0.4-0.41-1.01-0.75-1.41
				c-0.33-0.4-0.91-0.6-1.24-1c-0.33-0.4-0.66-0.8-0.99-1.21c-0.33-0.4-0.78-0.71-1.1-1.12c-0.32-0.41-0.6-0.85-0.92-1.27
				c-0.31-0.41-0.63-0.83-0.94-1.26c-0.3-0.42-0.46-0.95-0.75-1.38c-0.3-0.43-0.51-0.92-0.8-1.35c-0.29-0.43-0.6-0.85-0.89-1.28
				c-0.29-0.43-0.77-0.73-1.07-1.16c-0.3-0.43-0.55-0.89-0.83-1.33c-0.28-0.44-0.33-1.02-0.6-1.46c-0.27-0.45-0.44-0.95-0.71-1.39
				c-0.26-0.45-0.56-0.88-0.83-1.33c-0.27-0.45-0.52-0.91-0.8-1.35c-0.18-0.28-0.64-0.46-0.96-0.66c-0.32-0.2-0.88-0.2-1.05-0.49
				c-0.36-0.62-0.19-1.31,0.09-1.76c0.27-0.44,0.81-0.56,1.5-0.62c0.5-0.04,0.99-0.21,1.49-0.25c0.5-0.04,0.99-0.2,1.49-0.24
				c0.5-0.04,1.02,0.17,1.53,0.13c0.5-0.04,0.99-0.22,1.49-0.26c0.5-0.04,1-0.18,1.5-0.22c0.5-0.03,1.01,0.03,1.51,0
				c0.5-0.03,1-0.06,1.51-0.08c0.54-0.02,1.08-0.07,1.63-0.04c0.54,0.03,1.09-0.01,1.63,0.01c0.54,0.03,1.07,0.01,1.62-0.02
				c0.55-0.03,1.42,0.05,1.73,0.48c0.3,0.42,0.46,0.94,0.73,1.38c0.27,0.44,0.61,0.85,0.86,1.3c0.25,0.45,0.59,0.85,0.85,1.3
				c0.25,0.45,0.2,1.08,0.47,1.52c0.27,0.44,0.58,0.87,0.89,1.29c0.31,0.41,0.68,0.8,1.02,1.19c0.34,0.39,0.77,0.7,1.13,1.08
				c0.35,0.38,0.75,0.71,1.1,1.09c0.35,0.38,0.79,0.69,1.12,1.08c0.34,0.39,0.42,0.98,0.72,1.4c0.3,0.42,0.58,0.85,0.87,1.27
				c0.29,0.43,0.79,0.71,1.08,1.14c0.28,0.43,0.44,0.94,0.72,1.38c0.28,0.43,0.62,0.83,0.9,1.26c0.28,0.44,0.37,0.99,0.64,1.42
				c0.37,0.59,1,1.05,1.35,1.66c0.13,0.24-0.31,0.49-0.55,0.71c-0.28,0.26-0.52,0.49-0.74,0.3c-0.37-0.31-0.33-0.97-0.59-1.36
				c-0.26-0.38-0.71-0.63-0.99-1.02c-0.27-0.37-0.46-0.8-0.76-1.15c-0.3-0.35-0.79-0.52-1.1-0.85c-0.31-0.33-0.41-0.87-0.73-1.2
				c-0.32-0.33-0.78-0.53-1.09-0.86c-0.31-0.33-0.61-0.69-0.9-1.04c-0.3-0.35-0.36-0.88-0.62-1.25c-0.26-0.37-0.88-0.49-1.14-0.87
				c-0.26-0.37-0.34-0.87-0.59-1.25c-0.26-0.38-0.58-0.71-0.84-1.08c-0.26-0.38-0.61-0.68-0.87-1.06c-0.26-0.38-0.21-0.96-0.47-1.34
				s-0.78-0.56-1.04-0.94c-0.26-0.37-0.46-0.81-0.67-1.21c-0.21-0.4-0.49-0.78-0.68-1.2c-0.19-0.42-0.04-0.99-0.25-1.39
				c-0.21-0.41-0.66-0.67-0.92-1.04C74.51,48.6,73.75,48.22,73.36,48.34z"/>
		</g>
		<g>
			<path d="M63.08,109.58c0.5-0.02,1-0.23,1.5-0.23c0.5,0.01,0.99,0.22,1.5,0.24c0.5,0.02,1,0.04,1.5,0.07c0.5,0.03,1,0.04,1.5,0.07
				c0.5,0.03,1.01-0.18,1.51-0.16c0.5,0.02,0.99,0.19,1.49,0.2c0.5,0.01,1.01,0.19,1.51,0.17c0.2-0.01,0.4-0.82,0.6-0.81
				c0.49,0.03,0.89-0.11,1.24-0.22c0.36-0.12,0.56-0.39,0.81-0.84c0.24-0.43,0.56-0.83,0.79-1.26c0.23-0.44,0.49-0.87,0.72-1.31
				c0.23-0.44,0.47-0.88,0.7-1.32c0.23-0.44,0.32-0.96,0.56-1.39c0.24-0.44,0.7-0.75,0.95-1.18c0.26-0.45,0.56-0.89,0.81-1.35
				c0.25-0.46,0.48-0.93,0.73-1.39c0.25-0.46,0.54-0.89,0.8-1.35c0.26-0.46,0.44-0.95,0.71-1.39c0.27-0.45,0.51-0.91,0.78-1.36
				c0.28-0.44,0.6-0.86,0.88-1.3c0.28-0.44,0.26-1.07,0.54-1.51s0.65-0.83,0.93-1.27c0.24-0.37,0.67-0.6,0.95-0.94
				c0.28-0.34,0.65-0.59,0.94-0.92c0.29-0.33,0.57-0.67,0.86-1c0.22-0.25,0.33-0.62,0.59-0.83c0.16-0.13,0.61-0.48,0.81-0.35
				c0.23,0.16,0.19,0.78,0.11,1c-0.07,0.19-0.24,0.37-0.34,0.55c-0.25,0.46-0.18,1.12-0.47,1.56c-0.29,0.44-0.8,0.73-1.11,1.17
				c-0.3,0.43-0.34,1.04-0.63,1.48c-0.29,0.44-0.59,0.86-0.84,1.32c-0.26,0.46-0.54,0.9-0.79,1.37c-0.25,0.46-0.84,0.74-1.09,1.2
				c-0.25,0.46-0.38,0.99-0.64,1.45c-0.26,0.46-0.47,0.94-0.73,1.4c-0.27,0.45-0.56,0.89-0.82,1.36c-0.25,0.46-0.31,1.03-0.56,1.49
				c-0.25,0.46-0.86,0.73-1.11,1.19c-0.26,0.46-0.18,1.12-0.46,1.56c-0.28,0.45-0.77,0.76-1.06,1.2c-0.3,0.44-0.73,0.77-1.03,1.2
				c-0.3,0.43-0.54,0.91-0.84,1.34c-0.3,0.43-0.46,0.97-0.75,1.4c-0.34,0.51-0.8,1.01-1.46,0.98c-0.6-0.03-1.16,0.09-1.75,0.17
				c-0.59,0.08-1.2-0.09-1.8-0.05c-0.49,0.03-0.98,0.01-1.47,0.02c-0.49,0.01-0.98,0.13-1.47,0.12c-0.49,0-0.98,0.02-1.47,0.01
				c-0.49-0.01-0.98,0.09-1.47,0.09c-0.49,0-0.98-0.33-1.47-0.32c-0.49,0.02-0.96,0.42-1.44,0.46c-0.47,0.04-1-0.09-1.48-0.13
				c-0.35-0.03-0.11-0.49-0.11-0.89c0-0.35-0.22-0.38,0.09-0.42c0.42-0.05,0.82-0.46,1.25-0.49
				C63.07,109.44,63.08,109.58,63.08,109.58z"/>
		</g>
	</g>
</g>
<g>
	<g>
		<g>
			<path d="M138.32,137.45c0.65-0.31,0.86,0.34,1.56,0.15c0.7-0.19,0.53-0.78,1.23-0.96c0.71-0.18,0.84,0.39,1.55,0.23
				c0.71-0.16,0.67-0.37,1.33-0.67c0.67-0.3,0.63-0.36,1.26-0.73c0.62-0.36,0.52-0.59,1.17-0.89c0.66-0.31,0.82,0.05,1.42-0.37
				c0.62-0.44,0.25-0.92,0.92-1.29c0.69-0.38,1.04,0.45,1.74,0.08c0.65-0.35,0.49-0.6,1.07-1.06c0.57-0.45,0.4-0.66,1-1.08
				c0.59-0.42,0.48-0.54,1.05-0.99c0.57-0.45,0.61-0.37,1.16-0.85c0.55-0.47,0.54-0.45,1.04-0.98c0.5-0.52,0.77-0.28,1.22-0.84
				c0.46-0.57,0.16-0.81,0.65-1.36c0.46-0.53,0.65-0.35,1.18-0.81c0.53-0.47,0.36-0.65,0.87-1.13c0.51-0.48,0.54-0.4,0.95-0.97
				c0.42-0.59,0.29-0.68,0.79-1.21c0.51-0.54,1.02,0.01,1.51-0.55c0.48-0.56,0.23-0.74,0.61-1.36c0.37-0.6,0.05-0.81,0.5-1.35
				c0.44-0.54,0.79-0.24,1.26-0.77c0.47-0.54,0.48-0.55,0.85-1.16c0.38-0.63-0.29-0.98,0.1-1.6c0.38-0.62,1.01-0.15,1.45-0.72
				c0.43-0.56-0.03-0.82,0.27-1.46c0.3-0.64,0.67-0.43,1.05-1.02c0.39-0.6,0.27-0.65,0.62-1.28c0.34-0.64,0.25-0.63,0.61-1.26
				c0.36-0.64,0.58-0.46,0.9-1.13c0.33-0.66,0.07-0.71,0.38-1.38c0.31-0.67,0.22-0.65,0.57-1.31c0.34-0.65,0.48-0.55,0.74-1.23
				c0.26-0.68,0.37-0.62,0.67-1.28c0.3-0.66,0.54-0.66,0.67-1.37c0.13-0.74-0.02-0.79,0.03-1.53c0.04-0.72-0.1-0.66,0.15-1.34
				c0.27-0.72,0.2-0.71,0.48-1.42c0.26-0.68,0.22-0.68,0.28-1.4c0.06-0.72-0.29-0.72-0.3-1.45c-0.01-0.73,0.02-0.75,0.09-1.48
				c0.08-0.72,0.27-0.69,0.38-1.41c0.1-0.71,0.07-0.7,0.14-1.42c0.08-0.72,0-0.7,0-1.42c0.01-0.73,0.13-0.7,0.15-1.44
				c0.02-0.74,0.3-0.69,0.4-1.42c0.1-0.71-0.3-0.74-0.28-1.47c0.02-0.72,0.48-0.72,0.47-1.44c-0.01-0.72-0.53-0.7-0.59-1.42
				c-0.06-0.71-0.09-0.68-0.23-1.38c-0.14-0.71-0.15-0.7-0.3-1.41c-0.14-0.7-0.23-0.73-0.27-1.44c-0.04-0.72,0.23-0.74,0.23-1.45
				c0-0.72,0.02-0.7-0.08-1.41c-0.1-0.71,0.26-0.79,0.09-1.48c-0.17-0.69-0.35-0.63-0.44-1.34c-0.08-0.72,0.24-0.75,0.14-1.47
				c-0.1-0.71-0.54-0.63-0.75-1.32c-0.21-0.69-0.17-0.69-0.31-1.4c-0.14-0.7,0.13-0.74,0.03-1.45c-0.11-0.7-0.53-0.63-0.69-1.32
				c-0.16-0.69,0.22-0.79,0.05-1.48c-0.17-0.69-0.13-0.73-0.37-1.4c-0.25-0.68-0.48-0.59-0.71-1.28c-0.23-0.67-0.12-0.68-0.25-1.38
				c-0.13-0.7-0.3-0.67-0.49-1.36c-0.19-0.69,0.09-0.81-0.19-1.46c-0.28-0.66-0.89-0.45-1.07-1.14c-0.18-0.7,0.01-0.76-0.1-1.47
				c-0.11-0.73-0.04-0.72-0.24-1.43c-0.2-0.71-0.11-0.73-0.33-1.43c-0.22-0.7-0.49-0.62-0.71-1.32c-0.21-0.7,0.07-0.79-0.13-1.49
				c-0.2-0.71,0.2-0.91-0.16-1.55c-0.39-0.7-0.66-0.49-1.06-1.18c-0.37-0.63-0.68-0.48-0.89-1.18c-0.21-0.7-0.32-0.68-0.51-1.38
				c-0.2-0.72,0.11-0.77-0.24-1.44c-0.35-0.68-0.56-0.51-0.91-1.2c-0.34-0.68-0.05-0.76-0.39-1.44c-0.33-0.68-0.3-0.65-0.7-1.29
				c-0.39-0.63-0.49-0.55-0.85-1.19c-0.36-0.64-0.5-0.56-0.83-1.21c-0.34-0.67,0.24-0.97-0.17-1.6c-0.41-0.64-0.69-0.41-1.16-1.01
				c-0.46-0.58-0.45-0.57-0.8-1.22c-0.35-0.65-0.48-0.55-0.89-1.16c-0.41-0.6-0.23-0.73-0.74-1.25c-0.52-0.53-0.84-0.24-1.31-0.81
				c-0.47-0.57-0.28-0.7-0.75-1.27c-0.46-0.57-0.27-0.74-0.82-1.23c-0.54-0.49-0.44-0.54-0.92-1.1c-0.48-0.56-0.7-0.33-1.23-0.84
				c-0.54-0.52-0.5-0.49-1.01-1.05c-0.52-0.57-0.25-0.73-0.71-1.34c-0.44-0.58-0.79-0.2-1.37-0.64c-0.59-0.44-0.35-0.77-0.96-1.18
				c-0.6-0.41-0.92,0-1.48-0.47c-0.56-0.47-0.47-0.58-1.02-1.06c-0.55-0.48-0.48-0.51-1.1-0.9c-0.62-0.39-0.67-0.31-1.28-0.72
				c-0.61-0.41-0.37-0.74-0.94-1.2c-0.57-0.47-0.52-0.57-1.15-0.96c-0.62-0.38-0.78-0.03-1.47-0.26c-0.71-0.23-0.84,0.07-1.51-0.25
				c-0.67-0.32-0.26-1.14-0.95-1.41c-0.72-0.27-0.79,0.01-1.53-0.17c-0.7-0.17-0.61-0.21-1.24-0.54c-0.65-0.34-0.69-0.26-1.37-0.54
				c-0.67-0.27-0.71-0.16-1.42-0.3c-0.71-0.14-0.68-0.14-1.35-0.41c-0.71-0.29-0.52-0.83-1.27-0.99c-0.77-0.17-0.81,0.56-1.59,0.43
				c-0.74-0.12-0.58-0.44-1.3-0.68c-0.69-0.22-0.74-0.04-1.45-0.14c-0.71-0.1-0.69-0.4-1.4-0.45c-0.73-0.06-0.77,0.71-1.5,0.66
				c-0.71-0.05-0.71-0.32-1.41-0.49c-0.71-0.18-0.62-0.69-1.34-0.78c-0.73-0.08-0.75,0.4-1.47,0.28c-0.75-0.12-0.62-0.55-1.37-0.7
				c-0.71-0.14-0.76,0.19-1.48,0.13c-0.72-0.05-0.72-0.31-1.44-0.28c-0.75,0.03-0.75,0.09-1.49,0.2c-0.71,0.11-0.73,0.73-1.43,0.59
				c-0.76-0.14-0.64-0.53-1.4-0.63c-0.72-0.1-0.65,0.16-1.37,0.28c-0.72,0.12-0.74-0.05-1.47-0.11c-0.76-0.06-0.69-0.31-1.45-0.35
				c-0.74-0.03-0.7,0.21-1.44,0.28c-0.72,0.07-0.7-0.27-1.42-0.3c-0.72-0.03-0.74,0.41-1.46,0.37c-0.72-0.04-0.72-0.37-1.44-0.3
				c-0.74,0.07-0.69,0.1-1.44,0.12c-0.75,0.02-0.72,0.23-1.46,0.19c-0.72-0.04-0.74-0.37-1.46-0.29c-0.72,0.08-0.72,0.11-1.44,0.21
				c-0.72,0.09-0.66,0.6-1.38,0.68c-0.72,0.08-0.75-0.15-1.47-0.12c-0.73,0.03-0.73-0.05-1.45,0c-0.72,0.04-0.7,0.17-1.42,0.29
				c-0.72,0.12-0.7,0.27-1.42,0.35c-0.72,0.09-0.8-0.45-1.51-0.29c-0.73,0.17-0.6,0.65-1.34,0.75c-0.74,0.1-0.73-0.03-1.48-0.01
				c-0.72,0.02-0.69,0.13-1.41,0.22c-0.72,0.09-0.76-0.31-1.49-0.24c-0.72,0.08-0.69,0.31-1.4,0.47c-0.71,0.15-0.72,0.05-1.44,0.15
				c-0.73,0.1-0.69,0.25-1.41,0.37c-0.72,0.12-0.82-0.2-1.5,0.07c-0.69,0.28-0.45,0.98-1.17,1.18c-0.7,0.19-0.82-0.29-1.54-0.18
				c-0.71,0.11-0.73,0.06-1.43,0.22c-0.7,0.17-0.63,0.46-1.33,0.63c-0.7,0.17-0.86-0.4-1.55-0.19c-0.7,0.21-0.59,0.48-1.3,0.63
				c-0.72,0.15-0.68,0.26-1.4,0.41c-0.71,0.15-0.7,0.12-1.4,0.32c-0.7,0.2-0.75,0.01-1.44,0.26c-0.7,0.25-0.67,0.26-1.36,0.5
				c-0.69,0.24-0.56,0.7-1.27,0.85c-0.71,0.15-0.79-0.25-1.5-0.09c-0.71,0.16-0.84-0.15-1.52,0.12c-0.69,0.27-0.43,0.87-1.14,1.08
				c-0.73,0.22-0.8-0.21-1.52,0.05c-0.72,0.25-0.52,0.57-1.22,0.86c-0.69,0.29-0.71,0.1-1.4,0.38c-0.69,0.27-0.72,0.13-1.4,0.44
				c-0.67,0.31-0.5,0.71-1.2,0.93c-0.69,0.22-0.75,0.02-1.42,0.29c-0.68,0.26-0.6,0.4-1.25,0.73c-0.65,0.33-0.91-0.15-1.54,0.23
				c-0.62,0.37-0.5,0.58-1.12,0.94c-0.63,0.37-0.64,0.36-1.24,0.76c-0.61,0.4-0.58,0.43-1.2,0.83c-0.61,0.39-0.46,0.68-1.1,1
				c-0.65,0.33-0.78,0.07-1.42,0.42c-0.63,0.35-0.81,0.13-1.38,0.57c-0.58,0.45-0.16,1.01-0.77,1.42c-0.6,0.41-0.92-0.15-1.58,0.15
				c-0.68,0.31-0.48,0.66-1.12,1.04c-0.63,0.37-0.61,0.33-1.18,0.79c-0.56,0.46-0.79,0.17-1.36,0.62c-0.57,0.44-0.67,0.37-1.19,0.87
				c-0.52,0.5-0.3,0.68-0.89,1.1c-0.6,0.43-0.68,0.25-1.26,0.71c-0.58,0.46-0.13,0.9-0.69,1.39c-0.55,0.48-0.72,0.2-1.26,0.69
				c-0.55,0.49-0.46,0.52-0.95,1.06c-0.48,0.53-0.75,0.22-1.28,0.7c-0.52,0.48-0.25,0.77-0.81,1.21c-0.58,0.45-0.65,0.33-1.23,0.78
				c-0.56,0.43-0.64,0.35-1.13,0.87c-0.49,0.52-0.53,0.5-0.96,1.06c-0.43,0.57-0.12,0.81-0.57,1.37c-0.44,0.55-0.84,0.22-1.29,0.78
				c-0.44,0.56-0.37,0.61-0.81,1.18c-0.43,0.57-0.36,0.61-0.8,1.16c-0.44,0.55-0.42,0.55-0.89,1.09c-0.48,0.55-0.55,0.48-1.02,1.04
				c-0.46,0.55-0.69,0.5-0.97,1.15c-0.29,0.68,0.27,0.91-0.09,1.55c-0.35,0.64-0.75,0.35-1.16,0.95c-0.4,0.59-0.46,0.64-0.7,1.31
				c-0.25,0.68,0.15,0.82-0.11,1.49c-0.25,0.66-0.16,0.7-0.45,1.34c-0.3,0.64-0.41,0.59-0.72,1.22c-0.32,0.64-0.53,0.54-0.82,1.19
				c-0.28,0.65-0.02,0.74-0.18,1.43c-0.16,0.7,0.23,0.87-0.08,1.51c-0.33,0.7-1.09,0.3-1.32,1.03c-0.23,0.73,0.6,0.82,0.48,1.57
				c-0.12,0.71-0.89,0.53-1.03,1.23c-0.15,0.71,0.14,0.72-0.04,1.42c-0.2,0.73-0.61,0.55-0.81,1.28c-0.19,0.7,0.2,0.76,0.07,1.47
				c-0.14,0.72-0.31,0.67-0.36,1.4c-0.06,0.75,0.13,0.69,0.07,1.44c-0.07,0.75-0.41,0.62-0.54,1.36c-0.13,0.7,0.16,0.75,0.13,1.47
				c-0.03,0.71,0.13,0.69,0.21,1.4c0.08,0.75,0.06,0.7,0.1,1.46c0.04,0.73,0.03,0.67,0.07,1.4c0.03,0.73-0.17,0.74-0.02,1.46
				c0.14,0.7,0.75,0.68,0.7,1.39c-0.06,0.74-0.89,0.67-0.92,1.41c-0.03,0.71,0.28,0.72,0.33,1.43c0.05,0.72-0.27,0.74-0.2,1.45
				c0.07,0.71,0.81,0.62,0.91,1.33c0.1,0.7-0.38,0.77-0.29,1.47c0.09,0.71,0.31,0.68,0.38,1.39c0.07,0.71,0.06,0.71,0.1,1.43
				c0.04,0.71-0.23,0.75-0.11,1.45c0.12,0.7,0.23,0.69,0.5,1.35c0.28,0.7,0.28,0.66,0.48,1.39c0.19,0.7,0.36,0.62,0.48,1.34
				c0.12,0.71-0.1,0.74,0.08,1.43c0.17,0.69,0.12,0.66,0.14,1.37c0.02,0.74-0.29,0.78-0.17,1.51c0.11,0.71,1,0.51,1.16,1.21
				c0.17,0.7-0.49,0.84-0.3,1.54c0.19,0.7,0.65,0.54,0.88,1.23c0.24,0.72-0.15,0.82-0.01,1.57c0.14,0.74,0.23,0.73,0.43,1.46
				c0.2,0.73,0.36,0.69,0.48,1.44c0.13,0.77-0.03,0.77,0.14,1.53c0.17,0.75,0.38,0.65,0.65,1.37c0.26,0.7,0.27,0.7,0.53,1.4
				c0.26,0.7-0.13,0.88,0.22,1.55c0.34,0.67,0.64,0.51,1.01,1.17c0.37,0.65,0.06,0.81,0.4,1.48c0.34,0.67,0.27,0.67,0.56,1.37
				c0.29,0.69,0.7,0.53,0.96,1.24c0.26,0.72-0.15,0.91,0.24,1.57c0.39,0.67,0.88,0.31,1.36,0.91c0.47,0.58,0.15,0.83,0.56,1.45
				c0.41,0.63,0.35,0.64,0.7,1.3c0.33,0.61,0.69,0.42,1,1.04c0.31,0.61,0.11,0.71,0.53,1.25c0.43,0.55,0.31,0.59,0.66,1.19
				c0.37,0.63,0.49,0.52,0.82,1.18c0.31,0.62,0.38,0.51,0.85,1.02c0.48,0.51,0.33,0.63,0.77,1.17c0.45,0.54,0.48,0.5,0.91,1.05
				c0.43,0.54,0.55,0.37,1.09,0.81c0.55,0.45,0.38,0.64,0.92,1.09c0.53,0.44,0.56,0.39,1.09,0.82c0.58,0.47,0.89,0.15,1.41,0.69
				c0.54,0.57-0.05,1.09,0.53,1.63c0.56,0.52,0.63,0.47,1.28,0.85c0.64,0.38,0.99-0.12,1.57,0.35c0.58,0.47,0.29,0.83,0.9,1.28
				c0.6,0.44,0.71,0.23,1.38,0.56c0.67,0.33,0.73,0.26,1.36,0.66c0.64,0.4,0.5,0.58,1.16,0.93c0.67,0.36,0.56,0.46,1.22,0.85
				c0.66,0.4,0.43,0.71,1.12,1.05c0.7,0.34,0.8-0.05,1.52,0.25c0.69,0.3,0.47,0.59,1.14,0.94c0.65,0.34,0.79,0.12,1.5,0.32
				c0.7,0.2,0.84-0.18,1.49,0.14c0.67,0.33,0.47,0.69,1.12,1.06c0.64,0.36,0.67,0.36,1.38,0.56c0.72,0.2,0.78-0.08,1.5,0.11
				c0.71,0.18,0.59,0.48,1.27,0.76c0.68,0.28,0.74,0.13,1.44,0.35c0.7,0.22,0.71,0.13,1.43,0.24c0.73,0.1,0.74-0.04,1.47,0.03
				c0.73,0.06,0.77-0.13,1.49-0.02c0.72,0.11,0.74,0.19,1.44,0.39c0.71,0.2,0.64,0.45,1.33,0.7c0.7,0.26,0.64,0.39,1.38,0.44
				c0.78,0.05,0.75-0.37,1.52-0.25c0.78,0.12,0.62,0.46,1.39,0.6c0.75,0.13,0.7-0.12,1.47-0.1c0.73,0.02,0.73,0.12,1.45,0.27
				c0.71,0.15,0.69,0.12,1.42,0.17c0.73,0.05,0.73,0.04,1.46,0.12c0.73,0.07,0.72,0.12,1.45,0.22c0.72,0.1,0.69,0.46,1.42,0.5
				c0.73,0.04,0.75-0.31,1.47-0.27c0.73,0.03,0.72,0.07,1.45,0.07c0.73,0,0.73,0.07,1.46,0.03c0.73-0.04,0.73-0.14,1.46-0.09
				c0.74,0.05,0.78-0.13,1.5,0.01c0.72,0.14,0.67,0.74,1.4,0.72c0.75-0.03,0.73-0.28,1.47-0.37c0.72-0.08,0.7,0.08,1.42,0.11
				c0.73,0.03,0.75-0.27,1.47-0.16c0.74,0.11,0.71,0.25,1.46,0.24c0.75-0.01,0.72-0.08,1.46-0.12c0.73-0.04,0.73,0.35,1.46,0.32
				c0.74-0.03,0.69-0.44,1.43-0.42c0.75,0.02,0.7,0.25,1.45,0.34c0.69,0.08,0.72,0.1,1.42,0.07c0.69-0.04,0.71-0.03,1.4-0.12
				c0.69-0.09,0.66-0.12,1.36-0.14c0.7-0.01,0.65-0.4,1.35-0.47c0.71-0.07,0.64-0.18,1.33-0.36c0.67-0.17,0.73,0.33,1.42,0.33
				c0.7,0,0.68-0.03,1.38,0.04c0.69,0.06,0.82-0.49,1.4-0.11c0.54,0.36,0.41,0.51,0.71,1.09c0.32,0.63,0.32,0.62,0.65,1.25
				c0.33,0.63,0.14,0.73,0.46,1.36c0.32,0.63,0.09,0.81,0.53,1.37c0.46,0.58,1.03,0.09,1.51,0.65c0.46,0.54,0.05,0.86,0.41,1.46
				c0.36,0.61,0.45,0.56,0.83,1.15c0.38,0.6,0.31,0.61,0.58,1.26c0.29,0.7,0.08,0.75,0.38,1.46c0.28,0.65,0.69,0.42,1.07,1.02
				c0.38,0.61,0.08,0.8,0.47,1.41c0.39,0.6,0.52,0.52,1,1.05c0.48,0.53,0.46,0.55,1.03,0.98c0.58,0.44,0.63,0.36,1.17,0.86
				c0.53,0.49,0.37,0.61,0.87,1.14c0.49,0.52,0.67,0.28,1.26,0.68c0.59,0.4,0.36,0.67,0.89,1.15c0.54,0.49,0.64,0.33,1.21,0.79
				c0.57,0.46,0.8,0.1,1.36,0.57c0.57,0.47,0.16,0.89,0.71,1.39c0.52,0.47,0.71,0.2,1.27,0.6c0.57,0.41,0.35,0.71,0.95,1.08
				c0.59,0.37,0.76-0.06,1.43,0.14c0.68,0.2,0.54,0.67,1.22,0.86c0.66,0.18,0.67,0.07,1.3,0.34c0.63,0.27,0.53,0.56,1.18,0.79
				c0.65,0.23,0.91-0.52,1.55-0.26c0.67,0.27,0.4,1.01,1.1,1.16c0.7,0.15,0.76-0.46,1.47-0.38c0.7,0.08,0.64,0.34,1.33,0.46
				c0.7,0.12,0.71-0.1,1.43-0.05c0.71,0.05,0.7,0.42,1.41,0.36c0.73-0.05,0.68-0.34,1.42-0.38c0.72-0.04,0.71,0.33,1.43,0.3
				c0.72-0.04,0.66-0.22,1.38-0.23c0.76-0.01,0.71,0.21,1.47,0.25c0.72,0.04,0.73-0.21,1.39-0.48c0.72-0.29,0.52-0.74,1.27-0.94
				c0.73-0.19,0.78,0.41,1.51,0.21c0.73-0.2,0.69-0.19,1.38-0.5c0.65-0.29,0.62-0.26,1.28-0.53c0.33-0.13,0.79-0.3,0.58-0.58
				c-0.42-0.56-0.92,0.1-1.5-0.28c-0.62-0.41-0.28-0.87-0.89-1.29c-0.57-0.4-0.64-0.33-1.32-0.49c-0.75-0.18-0.8,0.16-1.55-0.05
				c-0.68-0.19-0.87-0.08-1.4-0.54c-0.56-0.49-0.01-1.09-0.58-1.58c-0.53-0.45-0.77-0.14-1.37-0.5c-0.6-0.36-0.56-0.42-1.14-0.8
				c-0.59-0.38-0.79-0.11-1.34-0.55c-0.55-0.43-0.28-0.78-0.85-1.18c-0.6-0.42-0.57-0.38-1.12-0.87c-0.54-0.48-0.72-0.25-1.19-0.79
				c-0.5-0.58-0.67-0.46-1.08-1.12c-0.42-0.68,0.22-1-0.19-1.68c-0.41-0.67-1.12-0.2-1.46-0.9c-0.35-0.72,0.35-0.95,0.06-1.7
				c-0.29-0.72-0.84-0.4-1.23-1.07c-0.37-0.65-0.04-0.84-0.32-1.54c-0.28-0.71-0.44-0.66-0.56-1.41c-0.12-0.78,0.11-0.77-0.04-1.55
				c-0.14-0.76-0.42-0.66-0.54-1.42c-0.12-0.77,0.47-0.81,0.34-1.58c-0.14-0.78-0.01-1.31-0.73-1.66c-0.64-0.31-1.35-0.08-1.72,0.53
				c-0.36,0.6,0.22,0.81,0.25,1.51c0.03,0.73-0.36,0.79-0.2,1.5c0.16,0.73,0.62,0.6,0.95,1.27c0.31,0.63,0.25,0.59,0.33,1.28
				c0.09,0.74-0.17,0.76,0,1.49c0.16,0.7,0.6,0.53,0.81,1.21c0.22,0.71-0.44,0.91-0.12,1.58c0.33,0.69,0.79,0.39,1.24,1.01
				c0.4,0.57,0.62,0.42,0.94,1.04c0.32,0.61-0.09,0.84,0.27,1.43c0.36,0.59,0.54,0.49,0.87,1.1c0.34,0.62,0.28,0.67,0.67,1.26
				c0.39,0.61,0.5,0.52,1.02,1.02c0.52,0.51,0.32,0.76,0.91,1.19c0.58,0.42,0.61,0.35,1.16,0.81c0.55,0.46,0.8,0.15,1.36,0.6
				c0.56,0.45,0.35,0.77,1,1.07c0.67,0.31,0.85-0.13,1.53,0.16c0.65,0.28,0.78,0.22,1.32,0.68c0.58,0.49,0.03,1.25,0.71,1.58
				c0.69,0.34,0.99-0.63,1.73-0.44c0.69,0.18,0.6,0.54,1.22,0.88c0.63,0.34,0.64,0.31,1.27,0.64c0.6,0.32,0.48,0.78,1.15,0.85
				c0.28,0.03,0.72-0.5,0.44-0.56c-0.6-0.14-0.58,0.35-1.19,0.47c-0.71,0.14-0.7,0.17-1.4,0.32c-0.7,0.15-0.73,0.13-1.45,0.2
				c-0.72,0.07-0.83-0.61-1.53-0.45c-0.74,0.17-0.56,0.67-1.32,0.72c-0.77,0.05-0.7,0.05-1.47,0c-0.72-0.05-0.71-0.27-1.43-0.19
				c-0.72,0.08-0.7,0.37-1.42,0.33c-0.72-0.04-0.7-0.18-1.4-0.35c-0.71-0.17-0.65-0.61-1.38-0.65c-0.78-0.04-0.77,0.72-1.55,0.63
				c-0.73-0.08-0.68-0.34-1.33-0.68c-0.65-0.34-0.62-0.39-1.28-0.71c-0.64-0.3-0.59-0.54-1.29-0.67c-0.76-0.15-0.92,0.54-1.64,0.25
				c-0.7-0.28-0.44-0.72-1.06-1.14c-0.59-0.41-0.65-0.3-1.29-0.62c-0.66-0.32-0.76-0.16-1.36-0.58c-0.6-0.42-0.25-0.83-0.78-1.32
				c-0.54-0.49-0.77-0.21-1.39-0.61c-0.63-0.41-0.74-0.25-1.31-0.75c-0.57-0.5-0.14-0.89-0.67-1.43c-0.52-0.53-0.72-0.31-1.28-0.79
				c-0.56-0.47-0.67-0.36-1.15-0.92c-0.48-0.55-0.41-0.62-0.89-1.17c-0.48-0.55-0.39-0.61-0.84-1.19c-0.45-0.59-0.59-0.47-1.03-1.05
				c-0.44-0.58-0.26-0.71-0.72-1.28c-0.45-0.57-0.66-0.37-1.15-0.9c-0.52-0.56-0.36-0.68-0.85-1.27c-0.47-0.56-0.55-0.49-0.94-1.11
				c-0.39-0.63-0.18-0.74-0.55-1.39c-0.36-0.64-0.75-0.48-0.95-1.19c-0.21-0.72,0.23-0.84,0.01-1.56c-0.22-0.72-0.65-0.56-0.9-1.27
				c-0.24-0.71,0.21-0.85,0.01-1.57c-0.2-0.72-0.09-0.77-0.34-1.47c-0.26-0.73-0.24-0.85-0.91-1.24c-0.63-0.37-0.64,0.45-1.37,0.47
				c-0.73,0.02-0.74-0.14-1.47-0.16c-0.72-0.02-0.71-0.28-1.43-0.17c-0.72,0.11-0.69,0.5-1.43,0.53c-0.73,0.03-0.76-0.71-1.49-0.64
				c-0.74,0.07-0.73,0.22-1.47,0.37c-0.71,0.14-0.64,0.14-1.36,0.09c-0.75-0.05-0.72-0.11-1.47-0.19c-0.72-0.08-0.72,0.35-1.43,0.46
				c-0.74,0.11-0.72-0.15-1.47-0.15c-0.76,0-0.69-0.32-1.46-0.34c-0.74-0.02-0.74,0.28-1.47,0.4c-0.72,0.11-0.68,0.36-1.4,0.44
				c-0.73,0.08-0.71,0.27-1.43,0.35c-0.72,0.08-0.75,0-1.47,0.01c-0.73,0.01-0.73-0.21-1.44-0.31c-0.74-0.1-0.72-0.17-1.46-0.31
				c-0.72-0.14-0.74-0.49-1.47-0.42c-0.76,0.07-0.67,0.65-1.43,0.73c-0.72,0.08-0.73-0.06-1.45-0.09c-0.73-0.03-0.73-0.25-1.45-0.23
				c-0.73,0.02-0.76,0.49-1.47,0.33c-0.77-0.17-0.6-0.75-1.37-0.9c-0.72-0.15-0.75,0.06-1.48,0.08c-0.72,0.02-0.71,0.03-1.43-0.04
				c-0.72-0.07-0.72,0.21-1.44,0.21c-0.75,0-0.73-0.13-1.48-0.1c-0.73,0.03-0.71-0.02-1.41-0.23c-0.74-0.22-0.7-0.15-1.45-0.27
				c-0.75-0.12-0.71,0.21-1.47,0.15c-0.73-0.06-0.59-0.72-1.3-0.93c-0.69-0.21-0.76-0.05-1.48-0.11c-0.75-0.06-0.71,0.03-1.44-0.13
				c-0.74-0.17-0.74-0.05-1.45-0.32c-0.68-0.26-0.64-0.31-1.35-0.42c-0.72-0.11-0.76,0.11-1.48,0c-0.72-0.12-0.78-0.06-1.46-0.31
				c-0.69-0.25-0.55-0.61-1.24-0.87c-0.68-0.25-0.67-0.3-1.38-0.42c-0.73-0.12-0.84,0.39-1.56,0.2c-0.7-0.18-0.8-0.23-1.41-0.62
				c-0.64-0.41-0.47-0.63-1.13-1.02c-0.62-0.37-0.58-0.28-1.28-0.46c-0.72-0.19-0.76-0.13-1.45-0.41c-0.68-0.27-0.46-0.69-1.1-1.04
				c-0.63-0.35-0.87,0.1-1.51-0.23c-0.64-0.33-0.38-0.74-0.93-1.2c-0.58-0.48-0.39-0.77-1.05-1.15c-0.67-0.39-0.89,0.13-1.6-0.18
				c-0.66-0.29-0.77-0.15-1.31-0.64c-0.55-0.5-0.15-0.92-0.68-1.43c-0.52-0.5-0.55-0.61-1.18-0.96c-0.67-0.36-1.06,0.41-1.73,0.05
				c-0.64-0.34-0.34-0.79-0.84-1.31c-0.52-0.53-0.37-0.63-0.84-1.2c-0.46-0.56-0.48-0.58-0.99-1.09c-0.51-0.51-0.51-0.61-1.12-0.98
				c-0.65-0.4-0.79-0.06-1.34-0.59c-0.55-0.54-0.58-0.42-1.03-1.04c-0.42-0.58-0.29-0.68-0.85-1.12c-0.58-0.46-0.6-0.38-1.04-0.97
				c-0.45-0.61-0.18-0.71-0.55-1.37c-0.35-0.62-0.77-0.32-1.24-0.87c-0.47-0.55-0.25-0.73-0.7-1.29c-0.44-0.57-0.37-0.58-0.67-1.23
				c-0.32-0.67-0.48-0.52-0.89-1.14c-0.43-0.64-0.4-0.56-0.77-1.24c-0.37-0.68-0.13-0.68-0.47-1.38c-0.33-0.69-0.46-0.53-0.85-1.19
				c-0.37-0.63-0.12-0.69-0.3-1.4c-0.18-0.7-0.21-0.7-0.52-1.36c-0.32-0.67-0.67-0.48-0.97-1.16c-0.3-0.66-0.04-0.75-0.22-1.46
				c-0.18-0.69,0.13-0.81-0.13-1.48c-0.26-0.67-0.73-0.5-0.9-1.2c-0.17-0.69,0.4-0.8,0.24-1.49c-0.16-0.67-0.75-0.49-1.02-1.13
				c-0.27-0.64,0.11-0.79-0.13-1.45c-0.24-0.65-0.74-0.53-0.82-1.21c-0.08-0.71,0.21-0.7,0.01-1.39c-0.2-0.71-0.28-0.6-0.45-1.32
				c-0.17-0.72,0.26-0.71,0.21-1.44c-0.04-0.69-0.06-0.73-0.24-1.4c-0.18-0.67-0.11-0.71-0.34-1.36c-0.23-0.66-0.34-0.64-0.62-1.29
				c-0.27-0.65-0.6-0.51-0.83-1.18c-0.22-0.66-0.25-0.67-0.32-1.36c-0.07-0.72-0.15-0.71-0.19-1.43c-0.04-0.69,0.17-0.7-0.01-1.37
				c-0.18-0.68-0.48-0.56-0.72-1.22c-0.24-0.66-0.02-0.74-0.19-1.42c-0.17-0.67,0.18-0.75,0.03-1.43c-0.15-0.68-0.32-0.64-0.47-1.33
				c-0.16-0.72-0.68-0.68-0.7-1.41c-0.03-0.75,0.34-0.76,0.34-1.51c0.01-0.73,0.13-0.73,0.09-1.46c-0.04-0.73-0.04-0.73-0.13-1.46
				c-0.08-0.73-0.28-0.69-0.45-1.41c-0.17-0.73-0.3-0.73-0.38-1.47c-0.08-0.73,0.54-0.75,0.54-1.49c0.01-0.73-0.32-0.74-0.31-1.47
				c0.02-0.74,0.15-0.74,0.13-1.47c-0.02-0.74-0.24-0.73-0.15-1.46c0.09-0.76,0.37-0.69,0.44-1.45c0.06-0.76-0.67-0.76-0.62-1.52
				c0.05-0.75,0.54-0.7,0.74-1.42c0.2-0.71,0.3-0.69,0.39-1.41c0.09-0.74-0.35-0.76-0.31-1.5c0.04-0.74,0.64-0.68,0.77-1.41
				c0.13-0.73-0.28-0.81-0.1-1.52c0.18-0.72,0.16-0.73,0.42-1.43c0.26-0.7,0.56-0.57,0.9-1.23c0.34-0.66,0.35-0.66,0.67-1.33
				c0.31-0.66,0.39-0.65,0.62-1.34c0.24-0.7,0.16-0.73,0.33-1.45c0.17-0.72-0.26-0.86,0.02-1.55c0.27-0.68,0.28-0.71,0.63-1.35
				c0.35-0.64,0.76-0.42,1.06-1.09c0.3-0.67,0.17-0.7,0.59-1.31c0.44-0.63,0.38-0.6,0.78-1.26c0.4-0.65,0.21-0.68,0.56-1.36
				c0.33-0.66,0.55-0.51,0.98-1.11c0.43-0.59,0.18-0.78,0.65-1.34c0.49-0.57,0.86-0.23,1.34-0.8c0.47-0.56,0.35-0.65,0.79-1.23
				c0.44-0.58,0.15-0.79,0.59-1.37c0.45-0.58,0.72-0.38,1.08-1.02c0.37-0.65,0.12-0.82,0.62-1.38c0.5-0.56,0.73-0.29,1.32-0.75
				c0.57-0.45,0.56-0.49,1.02-1.05c0.47-0.58,0.47-0.56,0.95-1.14c0.47-0.56,0.4-0.6,0.94-1.1c0.54-0.5,0.38-0.65,0.9-1.17
				c0.52-0.51,0.5-0.56,1.06-1.03c0.56-0.47,0.53-0.53,1.12-0.97c0.59-0.43,0.72-0.23,1.26-0.72c0.55-0.5,0.39-0.72,1.03-1.1
				c0.67-0.4,0.74-0.19,1.42-0.58c0.64-0.36,0.58-0.34,1.08-0.87c0.51-0.55,0.44-0.67,1.08-1.07c0.66-0.4,0.77-0.11,1.45-0.48
				c0.65-0.36,0.42-0.65,1.04-1.05c0.62-0.4,0.92,0.1,1.54-0.3c0.63-0.41,0.23-0.97,0.85-1.38c0.62-0.41,0.88,0.01,1.52-0.37
				c0.65-0.38,0.67-0.33,1.31-0.73c0.63-0.39,0.67-0.22,1.36-0.49c0.7-0.27,0.54-0.73,1.26-0.95c0.71-0.22,0.78,0.01,1.45-0.31
				c0.68-0.32,0.54-0.58,1.22-0.9c0.67-0.32,0.72-0.3,1.44-0.48c0.73-0.18,0.89,0.41,1.61,0.19c0.71-0.22,0.67-0.39,1.36-0.67
				c0.68-0.28,0.58-0.56,1.29-0.76c0.71-0.2,0.86,0.24,1.55-0.03c0.71-0.27,0.56-0.58,1.29-0.8c0.72-0.22,0.69-0.24,1.45-0.32
				c0.74-0.07,0.81,0.23,1.54,0.05c0.72-0.18,0.57-0.76,1.29-0.93c0.73-0.18,0.95,0.56,1.65,0.3c0.72-0.27,0.48-0.73,1.22-0.91
				c0.74-0.19,0.8,0.38,1.54,0.18c0.76-0.2,0.58-0.64,1.3-0.95c0.67-0.28,0.61-0.56,1.34-0.56c0.78,0,0.74,0.13,1.52,0.09
				c0.72-0.04,0.82,0.33,1.49,0.05c0.71-0.3,0.49-0.82,1.23-1.03c0.71-0.2,0.76,0.14,1.49,0.03c0.72-0.11,0.67-0.41,1.4-0.46
				c0.76-0.05,0.72,0.21,1.46,0.07c0.76-0.14,0.55-0.6,1.29-0.85c0.69-0.23,0.82,0.15,1.55,0.13c0.74-0.02,0.74,0.03,1.47,0.07
				c0.73,0.04,0.71-0.18,1.44-0.24c0.72-0.06,0.69-0.09,1.4-0.23c0.71-0.14,0.76,0.12,1.48,0.01c0.72-0.11,0.7-0.35,1.43-0.37
				c0.73-0.02,0.78,0.67,1.5,0.57c0.74-0.1,0.65-0.51,1.39-0.64c0.71-0.13,0.7-0.07,1.42-0.07c0.72,0,0.69-0.36,1.41-0.44
				c0.72-0.08,0.75-0.26,1.47-0.24c0.75,0.02,0.68,0.87,1.43,0.94c0.72,0.07,0.81,0.08,1.52-0.03c0.73-0.12,0.65-0.44,1.39-0.48
				c0.74-0.04,0.7-0.07,1.43-0.1c0.74-0.04,0.71-0.13,1.44-0.27c0.71-0.14,0.7-0.4,1.43-0.43c0.72-0.03,0.79-0.11,1.5,0.01
				c0.75,0.13,0.64,0.92,1.4,0.94c0.75,0.02,0.68-0.8,1.42-0.88c0.72-0.08,0.75,0.03,1.48,0.04c0.72,0.01,0.71,0.17,1.44,0.14
				c0.7-0.03,0.7,0.07,1.4,0.08c0.7,0,0.7-0.27,1.4-0.26c0.7,0.01,0.68,0.28,1.36,0.42c0.73,0.15,0.62,0.59,1.36,0.68
				c0.72,0.09,0.69-0.27,1.41-0.2c0.72,0.07,0.68-0.03,1.4,0.07c0.7,0.1,0.66,0.09,1.37,0.17c0.71,0.08,0.59,0.44,1.28,0.61
				c0.67,0.17,0.73,0.05,1.42,0.1c0.7,0.05,0.73-0.31,1.42-0.22c0.69,0.09,0.69,0,1.37,0.07c0.71,0.08,0.73-0.15,1.44-0.05
				c0.69,0.1,0.66,0.33,1.34,0.49c0.71,0.16,0.63,0.47,1.34,0.63c0.7,0.16,0.76-0.04,1.43,0.24c0.68,0.29,0.73,0.16,1.4,0.48
				c0.65,0.31,0.58,0.3,1.29,0.44c0.74,0.15,0.79,0,1.48,0.31c0.72,0.32,0.28,1.02,0.97,1.38c0.66,0.34,0.76,0.05,1.45,0.32
				c0.68,0.27,0.78,0.02,1.4,0.39c0.62,0.37,0.43,0.77,1.11,1.02c0.69,0.26,0.91-0.34,1.6-0.07c0.67,0.26,0.58,0.51,1.19,0.9
				c0.61,0.38,0.48,0.59,1.1,0.97c0.62,0.38,0.86-0.01,1.46,0.38c0.61,0.4,0.52,0.53,1.1,0.96c0.58,0.43,0.69,0.31,1.23,0.79
				c0.55,0.49,0.22,0.85,0.83,1.26c0.63,0.42,0.97-0.14,1.59,0.29c0.6,0.42,0.29,0.8,0.78,1.34c0.49,0.53,0.38,0.67,0.96,1.1
				c0.6,0.44,1.12-0.14,1.61,0.42c0.51,0.58,0,0.95,0.45,1.58c0.41,0.59,0.68,0.3,1.2,0.8c0.51,0.5,0.09,0.91,0.57,1.44
				c0.48,0.53,0.76,0.29,1.22,0.84c0.46,0.55,0.55,0.44,1.05,0.95c0.52,0.53,0.33,0.66,0.74,1.29c0.41,0.64,0.41,0.57,0.81,1.22
				c0.4,0.63,0.37,0.58,0.8,1.19c0.42,0.6,0.35,0.62,0.66,1.28c0.31,0.65,0.41,0.59,0.75,1.22c0.34,0.63,0.21,0.7,0.64,1.27
				c0.45,0.61,0.79,0.35,1.21,0.98c0.4,0.6,0.31,0.71,0.56,1.39c0.25,0.68,0.19,0.69,0.47,1.36c0.28,0.66,0.19,0.69,0.48,1.35
				c0.29,0.66,0.22,0.69,0.43,1.37c0.22,0.7,0.06,0.75,0.33,1.43c0.27,0.67,0.4,0.61,0.73,1.26c0.33,0.64,0.41,0.6,0.68,1.27
				c0.27,0.67,0.42,0.61,0.68,1.28c0.26,0.67-0.27,0.91,0.06,1.55c0.33,0.66,1.07,0.33,1.31,1.02c0.24,0.71-0.11,0.81,0.02,1.55
				c0.12,0.71-0.12,0.78,0.18,1.44c0.32,0.68,0.8,0.4,1.17,1.05c0.37,0.63,0.32,0.74,0.49,1.45c0.17,0.73-0.11,0.78-0.04,1.53
				c0.06,0.72-0.3,0.84-0.01,1.5c0.31,0.71,0.48,0.59,0.79,1.3c0.29,0.67,0.74,0.56,0.8,1.28c0.06,0.73-0.35,0.75-0.15,1.46
				c0.2,0.72,0.19,0.69,0.43,1.4c0.23,0.68,0.47,0.62,0.55,1.33c0.08,0.71,0.03,0.73,0.05,1.44c0.02,0.73-0.07,0.69,0.09,1.41
				c0.17,0.73,0.58,0.56,0.8,1.28c0.21,0.68-0.02,0.76,0.12,1.46c0.14,0.71,0.19,0.71,0.26,1.43c0.07,0.74-0.48,0.72-0.54,1.46
				c-0.06,0.72,0.19,0.72,0.31,1.43c0.12,0.73,0.2,0.69,0.38,1.4c0.18,0.69,0.31,0.69,0.39,1.4c0.08,0.71-0.02,0.72,0.04,1.43
				c0.07,0.71,0.37,0.75,0.29,1.46c-0.09,0.76-0.48,0.65-0.48,1.41c0.01,0.75-0.06,0.67-0.06,1.42c0,0.75-0.11,0.67-0.13,1.42
				c-0.03,0.74,0.04,0.69,0.05,1.44c0.01,0.73,0.02,0.68-0.02,1.41c-0.04,0.73,0.42,0.73,0.35,1.46c-0.07,0.75-0.66,0.65-0.8,1.39
				c-0.14,0.72,0.1,0.76,0.07,1.49c-0.03,0.75-0.04,0.74-0.18,1.47c-0.13,0.73-0.13,0.72-0.33,1.44c-0.2,0.71-0.06,0.74-0.24,1.46
				c-0.17,0.72-0.37,0.65-0.67,1.32c-0.3,0.69-0.41,0.63-0.62,1.36c-0.21,0.75,0.18,0.8-0.08,1.54c-0.25,0.73-0.43,0.59-0.73,1.3
				c-0.3,0.7-0.16,0.71-0.38,1.43c-0.22,0.7-0.08,0.79-0.42,1.44c-0.34,0.65-0.67,0.48-1.02,1.13c-0.35,0.65,0.04,0.91-0.4,1.5
				c-0.46,0.61-1.12,0.09-1.58,0.71c-0.44,0.59-0.05,0.86-0.35,1.53c-0.31,0.68-0.11,0.77-0.43,1.45c-0.32,0.66-0.45,0.6-0.81,1.23
				c-0.37,0.63-0.19,0.77-0.61,1.37c-0.42,0.6-0.61,0.47-1.07,1.04c-0.46,0.57-0.74,0.33-1.21,0.89c-0.47,0.56-0.31,0.69-0.74,1.28
				c-0.44,0.6-0.44,0.58-0.92,1.14c-0.47,0.56-0.26,0.78-0.82,1.26c-0.55,0.48-0.93,0.1-1.41,0.65c-0.49,0.57-0.08,0.9-0.62,1.42
				c-0.53,0.52-0.54,0.49-1.11,0.98c-0.56,0.48-0.73,0.22-1.32,0.66c-0.61,0.46-0.87,0.09-1.44,0.59c-0.58,0.51-0.1,0.95-0.67,1.47
				c-0.55,0.51-0.73,0.12-1.39,0.46c-0.66,0.33-0.44,0.73-1.06,1.12c-0.61,0.39-0.59,0.4-1.16,0.85c-0.58,0.45-0.53,0.49-1.08,0.97
				c-0.55,0.47-0.8,0.17-1.34,0.65c-0.54,0.48-0.42,0.55-1.06,0.88c-0.67,0.35-0.77,0.08-1.44,0.43c-0.64,0.33-0.4,0.71-0.97,1.15
				c-0.57,0.43-0.78,0.13-1.37,0.53c-0.61,0.41-0.38,0.76-1.04,1.07c-0.66,0.32-0.67,0.53-1.39,0.6c-0.74,0.08-1.04-0.92-1.6-0.42
				c-0.56,0.5-0.01,0.77-0.3,1.45C138.07,138.16,138.14,137.54,138.32,137.45z"/>
		</g>
	</g>
</g>
</svg>
