<?xml version="1.0" encoding="utf-8"?>
<!-- Generator: Adobe Illustrator 24.2.2, SVG Export Plug-In . SVG Version: 6.00 Build 0)  -->
<svg version="1.1" id="Layer_1" xmlns="http://www.w3.org/2000/svg" xmlns:xlink="http://www.w3.org/1999/xlink" x="0px" y="0px"
	 viewBox="0 0 353.12 210.43" style="enable-background:new 0 0 353.12 210.43;" xml:space="preserve">
<style type="text/css">
	.st0{fill:#BEF4FF;}
</style>
<g>
	<g>
		<path class="st0" d="M39.17,55.7c-0.6,0.51,0.02,0.88-0.74,1.56c-0.33,0.29-0.63,0.73-1.06,1.16c-0.34,0.33-1.01,0.4-1.41,0.82
			c-0.34,0.36-0.95,0.52-1.32,0.94c-0.33,0.37,0.04,1.39-0.31,1.82c-0.32,0.39-0.97,0.53-1.3,0.96c-0.31,0.4-0.11,1.2-0.43,1.64
			c-0.3,0.41-1.58,0.13-1.89,0.57c-0.29,0.42,0.4,1.53,0.1,1.98c-0.28,0.43-1.63,0.18-1.92,0.63c-0.28,0.44-0.27,1.07-0.55,1.53
			c-0.27,0.44,0.17,1.3-0.1,1.77c-0.26,0.45-1.46,0.38-1.71,0.85c-0.25,0.45-0.14,1.11-0.38,1.59c-0.24,0.46-0.13,1.1-0.36,1.58
			c-0.23,0.47-0.93,0.72-1.15,1.2c-0.22,0.47-0.1,1.1-0.31,1.59c-0.21,0.48-0.19,1.05-0.39,1.55c-0.2,0.48-0.65,0.86-0.85,1.36
			c-0.2,0.5-0.43,0.98-0.61,1.46c-0.2,0.5-0.24,1.05-0.43,1.54c-0.2,0.5-0.17,1.08-0.35,1.56c-0.19,0.5-0.41,0.99-0.6,1.47
			c-0.19,0.51-1.15,0.71-1.33,1.2c-0.19,0.51,0.09,1.18-0.08,1.67c-0.18,0.51-0.06,1.11-0.22,1.6c-0.18,0.51-0.69,0.9-0.85,1.39
			c-0.16,0.52,0.12,1.15-0.03,1.64c-0.15,0.52-1.19,0.79-1.32,1.29c-0.13,0.53,0.22,1.16,0.12,1.66c-0.1,0.54-0.64,1-0.7,1.51
			c-0.07,0.54,0.05,1.11,0.02,1.63c-0.02,0.54,0.98,1.04,1.01,1.56c0.03,0.53-0.48,1.08-0.38,1.6c0.1,0.52-0.24,1.17-0.08,1.67
			c0.16,0.5,1.09,0.69,1.32,1.17c0.22,0.46,0.44,0.9,0.73,1.35c0.27,0.43,0.58,0.81,0.92,1.24c0.31,0.4,0.28,1.1,0.65,1.51
			c0.34,0.38,1,0.46,1.4,0.84c0.37,0.35,0.99,0.42,1.4,0.77c0.39,0.33,0.53,0.96,0.96,1.3c0.38,0.3,0.94,0.35,1.43,0.66
			c0.42,0.26,0.86,0.5,1.37,0.77c0.45,0.24,0.69,0.9,1.19,1.15c0.46,0.22,0.74,0.9,1.24,1.13c0.47,0.21,0.89,0.61,1.4,0.83
			c0.48,0.2,1.08,0.16,1.59,0.36c0.49,0.19,1.09,0.1,1.61,0.3c0.49,0.19,0.92,0.56,1.43,0.75c0.49,0.18,1.18-0.14,1.69,0.04
			c0.5,0.17,0.79,0.97,1.3,1.14c0.5,0.17,0.92,0.61,1.43,0.78c0.5,0.17,1.3-0.56,1.82-0.39c0.5,0.16,0.97,0.46,1.48,0.63
			c0.51,0.16,0.84,0.89,1.35,1.05c0.51,0.16,1.15-0.13,1.67,0.03c0.51,0.15,0.94,0.56,1.46,0.71c0.51,0.15,0.96,0.52,1.48,0.67
			c0.51,0.15,1.03,0.29,1.55,0.44c0.51,0.15,0.97,0.5,1.49,0.65c0.51,0.15,1.13-0.07,1.65,0.07c0.51,0.14,1.18-0.27,1.7-0.12
			c0.51,0.14,1.06,0.15,1.58,0.29c0.52,0.14,0.94,0.63,1.45,0.77c0.52,0.14,1.09,0.06,1.61,0.2c0.52,0.14,1.09,0.07,1.61,0.21
			c0.52,0.14,0.88,0.87,1.4,1c0.52,0.14,1.16-0.2,1.68-0.07c0.52,0.14,0.86,0.95,1.38,1.08c0.52,0.14,1.06,0.2,1.58,0.34
			c0.52,0.13,1.18-0.27,1.7-0.13c0.52,0.13,0.9,0.85,1.42,0.98c0.52,0.13,0.93,0.74,1.45,0.87c0.52,0.13,1.24-0.51,1.76-0.38
			c0.53,0.13,0.95,0.65,1.47,0.78c0.52,0.13,1.15-0.18,1.67-0.05c0.52,0.13,1.06,0.21,1.57,0.34c0.53,0.13,0.99,0.48,1.51,0.61
			c0.53,0.13,1.06,0.21,1.57,0.33c0.53,0.13,0.96,0.62,1.47,0.75c0.53,0.13,1.06,0.19,1.58,0.31c0.53,0.13,1.07,0.19,1.58,0.31
			c0.53,0.13,1.21-0.4,1.72-0.28c0.53,0.13,1.1,0.07,1.61,0.19c0.53,0.13,0.76,1.45,1.27,1.57c0.54,0.13,1.27-0.6,1.78-0.48
			c0.54,0.13,0.9,0.92,1.4,1.04c0.54,0.13,1.03,0.37,1.53,0.49c0.55,0.14,1.09,0.17,1.58,0.3c0.56,0.14,1.23-0.31,1.7-0.18
			c0.59,0.16,1.03,0.56,1.47,0.69c0.74,0.22,1.29,0.31,1.55,0.43c0.52,0.25,0.79,0.77,1.21,1.09c0.4,0.31,0.85,0.57,1.33,0.93
			c0.38,0.29,1.03,0.26,1.55,0.58c0.41,0.25,0.83,0.54,1.38,0.8c0.44,0.21,1.03,0.13,1.58,0.35c0.46,0.18,0.96,0.29,1.52,0.47
			c0.48,0.16,0.62,1.48,1.18,1.65c0.49,0.14,1.23-0.49,1.78-0.35c0.5,0.13,1.02,0.23,1.57,0.36c0.5,0.12,1.01,0.28,1.56,0.4
			c0.51,0.11,0.97,0.52,1.52,0.63c0.51,0.1,1.05,0.15,1.6,0.25c0.51,0.09,1.04,0.2,1.59,0.3c0.52,0.09,1.1-0.15,1.65-0.07
			c0.52,0.08,1.05,0.15,1.6,0.23c0.52,0.08,1.05,0.17,1.6,0.25c0.52,0.07,1.03,0.34,1.57,0.41c0.52,0.07,0.99,0.7,1.53,0.76
			c0.52,0.07,1.08-0.04,1.63,0.02c0.53,0.06,1.05,0.25,1.6,0.31c0.53,0.06,1.15-0.67,1.7-0.61c0.53,0.06,1.01,0.71,1.55,0.76
			c0.53,0.05,1.03,0.51,1.58,0.56c0.52,0.05,1.07-0.02,1.62,0.02c0.52,0.04,1.1-0.51,1.64-0.47c0.52,0.03,1.06-0.05,1.6-0.03
			c0.52,0.03,1.04,0.49,1.58,0.51c0.53,0.02,1.07-0.4,1.61-0.39c0.53,0.02,1.05,0.37,1.59,0.38c0.53,0.01,1.07-0.58,1.61-0.57
			c0.53,0.01,1.06,0.13,1.6,0.13c0.53,0,1.06-0.07,1.6-0.07c0.53,0,1.07,0.85,1.6,0.85c0.53,0,1.06-0.22,1.6-0.23
			c0.53-0.01,1.06-0.48,1.59-0.49c0.53-0.01,1.07,0.23,1.6,0.22c0.53-0.01,1.05-0.39,1.59-0.41c0.53-0.01,1.09,0.71,1.62,0.7
			c0.53-0.02,1.04-0.65,1.58-0.67c0.53-0.02,1.09,0.6,1.62,0.58c0.53-0.02,1.06-0.28,1.59-0.3c0.53-0.02,1.03-0.88,1.56-0.9
			c0.53-0.02,1.08,0.41,1.61,0.39c0.53-0.03,1.08,0.31,1.61,0.28c0.53-0.03,1.03-0.59,1.57-0.62c0.53-0.03,1.11,0.89,1.65,0.86
			c0.53-0.03,1.04-0.43,1.57-0.46c0.53-0.03,1.08,0.19,1.61,0.16c0.53-0.03,1.06-0.09,1.59-0.13c0.53-0.03,1.04-0.41,1.58-0.44
			c0.53-0.03,1.06-0.05,1.6-0.09c0.53-0.03,1.08,0.14,1.61,0.11c0.53-0.03,1.04-0.41,1.57-0.44c0.53-0.04,1.08,0.21,1.61,0.17
			c0.53-0.04,1.07,0.07,1.61,0.04c0.53-0.04,1.04-0.51,1.57-0.55c0.53-0.04,1.05-0.24,1.59-0.27c0.53-0.04,1.09,0.32,1.63,0.28
			c0.53-0.04,1.09,0.22,1.62,0.18c0.53-0.04,1.07-0.05,1.6-0.09c0.53-0.04,0.99-1.25,1.52-1.29c0.53-0.04,1.11,0.58,1.65,0.54
			c0.53-0.04,1.04-0.45,1.57-0.49c0.53-0.04,1.07-0.05,1.6-0.09c0.53-0.04,1.1,0.34,1.63,0.3c0.53-0.04,1.02-0.68,1.56-0.71
			c0.53-0.04,1.1,0.4,1.63,0.37c0.53-0.04,1.02-0.69,1.56-0.73c0.53-0.04,1.13,0.84,1.66,0.81c0.54-0.04,1.05-0.38,1.58-0.41
			c0.54-0.04,1.03-0.7,1.56-0.73c0.54-0.04,1.07,0.01,1.6-0.03c0.54-0.04,1.14,1.02,1.67,0.98c0.54-0.04,1.01-1,1.54-1.04
			c0.54-0.03,1.14,1.06,1.67,1.03c0.54-0.03,1.06-0.23,1.59-0.26c0.54-0.03,1.01-1.08,1.54-1.11c0.54-0.03,1.08,0.07,1.61,0.04
			c0.54-0.03,1.05-0.46,1.58-0.48c0.54-0.03,1.13,1.03,1.66,1.01c0.54-0.03,1.02-1.05,1.55-1.07c0.54-0.03,1.11,0.69,1.63,0.67
			c0.54-0.02,1.06-0.47,1.58-0.5c0.54-0.02,1.09,0.46,1.62,0.44c0.54-0.02,1.06-0.36,1.59-0.37c0.54-0.02,1.07-0.08,1.6-0.1
			c0.54-0.01,1.08,0.37,1.61,0.36c0.54-0.01,1.07-0.6,1.59-0.6c0.54,0,1.08,0.63,1.6,0.63c0.55,0,1.08,0.11,1.6,0.12
			c0.55,0.01,1.11-0.89,1.63-0.88c0.55,0.02,1.08,0.31,1.6,0.34c0.55,0.03,1.08,0.16,1.59,0.2c0.56,0.04,1,0.93,1.51,0.98
			c0.56,0.06,1.17-0.62,1.67-0.54c0.57,0.09,1.06,0.34,1.54,0.45c0.58,0.13,0.96,0.6,1.41,0.76c0.59,0.22,0.97,0.37,1.31,0.66
			c0.4,0.33,1.18,0.19,1.61,0.52c0.41,0.31,1.01,0.37,1.45,0.68c0.42,0.3,0.65,0.88,1.09,1.18c0.43,0.29,0.52,1.1,0.96,1.4
			c0.43,0.29,1.09,0.26,1.53,0.55c0.43,0.29,0.8,0.69,1.24,0.98c0.43,0.29,1.15,0.17,1.59,0.46c0.43,0.29,0.44,1.22,0.88,1.53
			c0.43,0.3,1.4-0.18,1.84,0.13c0.43,0.3,0.95,0.5,1.38,0.81c0.42,0.31,0.39,1.25,0.81,1.57c0.42,0.32,1.21,0.16,1.62,0.49
			c0.41,0.33,0.89,0.59,1.3,0.93c0.4,0.34,0.39,1.17,0.79,1.52c0.39,0.35,1,0.47,1.39,0.83c0.38,0.36,0.94,0.55,1.32,0.92
			c0.37,0.37,0.13,1.34,0.5,1.73c0.36,0.38,0.92,0.57,1.28,0.97c0.35,0.39,0.45,0.99,0.79,1.4c0.33,0.4,0.82,0.68,1.15,1.1
			c0.32,0.41,0.57,0.87,0.88,1.31c0.3,0.42,0.43,0.96,0.73,1.41c0.29,0.43,1.17,0.49,1.45,0.95c0.27,0.44-0.26,1.37,0,1.83
			c0.26,0.45,0.88,0.7,1.13,1.17c0.24,0.46,0.56,0.89,0.8,1.37c0.23,0.47,0.87,0.76,1.09,1.25c0.22,0.49,0.63,0.86,0.86,1.34
			c0.23,0.48-0.24,1.31,0,1.77c0.25,0.47,0.36,1.02,0.63,1.48c0.26,0.46,0.73,0.81,1,1.26c0.28,0.45,0.34,1.06,0.63,1.5
			c0.29,0.44,0.48,0.98,0.79,1.41c0.31,0.43,0.89,0.68,1.21,1.1c0.32,0.42,1.22,0.39,1.55,0.79c0.34,0.41,0.63,0.84,0.98,1.24
			c0.35,0.4,0.32,1.14,0.69,1.52c0.37,0.38,0.5,1.02,0.88,1.39c0.38,0.37,0.78,0.75,1.17,1.1c0.4,0.36,1.26,0.18,1.66,0.51
			c0.41,0.34,0.35,1.28,0.77,1.6c0.42,0.32,1.36-0.06,1.79,0.24c0.44,0.3,0.41,1.31,0.86,1.6c0.45,0.28,1.18,0.13,1.64,0.39
			c0.46,0.26,1.13,0.13,1.6,0.37c0.47,0.24,0.61,1.19,1.1,1.4c0.49,0.22,1.04,0.32,1.53,0.51c0.5,0.19,1.22-0.26,1.72-0.1
			c0.5,0.16,0.89,0.69,1.4,0.83c0.51,0.14,1.01,0.34,1.53,0.45c0.52,0.11,1.09-0.09,1.61-0.01c0.52,0.08,0.96,1.01,1.49,1.05
			c0.53,0.05,1.12-0.76,1.65-0.75c0.53,0.02,1.04-0.34,1.57-0.35c0.53-0.01,1.1,0.83,1.63,0.78c0.52-0.05,0.95-0.95,1.48-1.03
			c0.52-0.08,1.22,0.81,1.74,0.71c0.51-0.11,1.07-0.19,1.59-0.32c0.51-0.13,0.65-1.52,1.16-1.69c0.5-0.16,1.25,0.41,1.75,0.22
			c0.52-0.2,1.12-0.19,1.6-0.4c0.51-0.22,0.77-0.95,1.25-1.18c0.5-0.24,1.39,0.26,1.85,0.01c0.49-0.27,0.47-1.39,0.91-1.67
			c0.47-0.3,0.94-0.53,1.36-0.84c0.45-0.33,0.88-0.62,1.28-0.97c0.42-0.37,1.14-0.4,1.51-0.78c0.38-0.4,1-0.64,1.32-1.07
			c0.33-0.44-0.2-1.45,0.07-1.91c0.28-0.47,0.98-0.69,1.19-1.19c0.22-0.5,0.58-0.96,0.73-1.48c0.15-0.52,0.6-1.01,0.7-1.55
			c0.1-0.53-0.64-1.18-0.59-1.73c0.04-0.53,0.61-1.06,0.61-1.61c0-0.53-0.82-1.03-0.87-1.58c-0.04-0.53,0.31-1.1,0.23-1.64
			c-0.08-0.53,0.46-1.18,0.35-1.72c-0.11-0.52-0.15-1.09-0.29-1.63c-0.13-0.52-0.81-0.91-0.96-1.44c-0.15-0.51-0.86-0.85-1.03-1.37
			c-0.16-0.51,0.26-1.22,0.08-1.74c-0.18-0.5-0.58-0.93-0.78-1.45c-0.19-0.5-0.71-0.88-0.91-1.39c-0.2-0.5,0.68-1.45,0.46-1.95
			c-0.21-0.49-1.1-0.71-1.32-1.21c-0.22-0.49-0.84-0.81-1.07-1.31c-0.23-0.51-0.44-1.02-0.65-1.49c-0.23-0.51,0.17-1.29-0.04-1.77
			c-0.23-0.52-1.04-0.75-1.25-1.23c-0.23-0.52-0.09-1.18-0.3-1.65c-0.23-0.53,0.07-1.24-0.14-1.72c-0.22-0.53-1.15-0.73-1.34-1.2
			c-0.22-0.54-0.92-0.87-1.09-1.34c-0.2-0.55,0.12-1.26-0.03-1.73c-0.17-0.57-0.45-1.08-0.54-1.57c-0.12-0.58,0.78-1.2,0.76-1.7
			c-0.02-0.56-1.09-1.16-1-1.68c0.09-0.51,0.28-1.09,0.46-1.63c0.16-0.48,0.85-0.8,1.07-1.34c0.19-0.46,0.68-0.84,0.91-1.38
			c0.2-0.46-0.39-1.3-0.17-1.84c0.2-0.47,0.37-0.98,0.59-1.51c0.21-0.53,0.62-0.92,0.78-1.39c0.19-0.55,1.2-0.81,1.32-1.28
			c0.15-0.57-0.12-1.22-0.07-1.69c0.06-0.6,0.34-1.22,0.26-1.69c-0.09-0.56-0.84-0.91-1.12-1.35c-0.27-0.43-0.34-1.08-0.75-1.47
			c-0.36-0.34-1.01-0.4-1.46-0.75c-0.4-0.3-0.74-0.73-1.2-1.06c-0.4-0.3-0.88-0.55-1.32-0.89c-0.4-0.31-0.73-0.74-1.15-1.1
			c-0.39-0.33-1.13-0.31-1.53-0.69c-0.37-0.35-0.22-1.25-0.6-1.65c-0.39-0.41-1.19-0.39-1.48-0.77c-0.34-0.46,0.14-1.31-0.07-1.73
			c-0.25-0.51-0.56-0.81-0.65-1.27c-0.1-0.54-0.07-0.93-0.02-1.42c0.06-0.52-0.53-1.17-0.36-1.65c0.17-0.49,0.62-0.88,0.83-1.35
			c0.21-0.47-0.01-1.12,0.18-1.59c0.19-0.48,0.83-0.77,0.93-1.28c0.1-0.5,0.35-1.02,0.29-1.55c-0.06-0.47,0.17-1.19-0.07-1.7
			c-0.19-0.42-1.24-0.43-1.59-0.88c-0.24-0.32,0.21-1.3-0.18-1.84c-0.27-0.38-0.59-0.81-0.93-1.3c-0.28-0.4-0.62-0.82-0.95-1.29
			c-0.29-0.41-0.96-0.59-1.29-1.05c-0.3-0.41-0.54-0.9-0.86-1.35c-0.3-0.42-0.91-0.63-1.24-1.08c-0.31-0.42-0.81-0.71-1.14-1.15
			c-0.31-0.42-0.76-0.74-1.1-1.17c-0.31-0.41,0-1.33-0.33-1.76c-0.32-0.41-0.55-0.91-0.89-1.34c-0.32-0.41-0.98-0.57-1.32-1
			c-0.33-0.41-0.97-0.58-1.31-1c-0.33-0.41-0.16-1.23-0.5-1.65c-0.33-0.41-0.72-0.78-1.07-1.2c-0.34-0.4-0.85-0.67-1.2-1.09
			c-0.34-0.4-0.69-0.8-1.04-1.22c-0.34-0.4-0.27-1.17-0.62-1.58c-0.35-0.4-1-0.54-1.36-0.94c-0.35-0.4-0.33-1.13-0.69-1.53
			c-0.35-0.39-1.34-0.23-1.7-0.63c-0.35-0.39-0.98-0.53-1.35-0.93c-0.36-0.39-0.44-1.04-0.8-1.43c-0.36-0.39-1-0.51-1.37-0.9
			c-0.36-0.38-0.37-1.11-0.74-1.5c-0.37-0.38-0.95-0.56-1.32-0.95c-0.37-0.38-0.62-0.88-0.99-1.26c-0.37-0.38-1.01-0.49-1.39-0.87
			c-0.37-0.37-0.16-1.35-0.54-1.73c-0.38-0.37-0.87-0.64-1.25-1.01c-0.38-0.37-1.17-0.32-1.56-0.69c-0.38-0.37-0.91-0.59-1.3-0.95
			c-0.39-0.36,0.2-1.77-0.19-2.14c-0.39-0.36-1.22-0.25-1.62-0.62c-0.39-0.36-0.43-1.11-0.83-1.47c-0.39-0.36-1.3-0.15-1.7-0.5
			c-0.4-0.35-0.85-0.64-1.26-1c-0.4-0.35-0.67-0.85-1.08-1.2c-0.4-0.35-0.8-0.71-1.21-1.06c-0.4-0.35-1.01-0.45-1.43-0.8
			c-0.41-0.34-0.35-1.24-0.76-1.59c-0.41-0.34-1.34-0.06-1.75-0.4c-0.41-0.34-0.76-0.76-1.17-1.1c-0.41-0.33-0.8-0.71-1.22-1.04
			c-0.42-0.33-0.84-0.65-1.27-0.98c-0.42-0.33-0.32-1.32-0.75-1.65c-0.42-0.33-1.12-0.3-1.55-0.63c-0.42-0.32-0.54-1.06-0.97-1.38
			c-0.43-0.32-0.91-0.58-1.34-0.9c-0.43-0.32-0.78-0.75-1.21-1.07c-0.43-0.31-1.18-0.19-1.61-0.5c-0.43-0.31-0.62-0.96-1.06-1.28
			c-0.43-0.31-1.48,0.25-1.92-0.06c-0.44-0.31-0.81-0.7-1.25-1c-0.44-0.3-0.49-1.17-0.93-1.47c-0.44-0.3-1.25-0.05-1.7-0.35
			c-0.44-0.3-0.6-1.03-1.05-1.32c-0.44-0.29-1.04-0.35-1.49-0.65c-0.45-0.29-1.17-0.15-1.62-0.44c-0.45-0.29-0.82-0.69-1.28-0.97
			c-0.45-0.28-0.5-1.21-0.96-1.49c-0.45-0.28-1.24-0.02-1.7-0.3c-0.45-0.28-0.63-1.02-1.09-1.29c-0.46-0.28-0.81-0.72-1.28-1
			c-0.46-0.27-1.26,0.03-1.72-0.24c-0.46-0.27-0.63-1.04-1.1-1.3c-0.46-0.27-0.99-0.42-1.45-0.69c-0.46-0.26-0.66-1.01-1.13-1.27
			c-0.47-0.26-1.05-0.32-1.52-0.58c-0.47-0.26-1.3,0.15-1.77-0.11c-0.47-0.25-0.79-0.79-1.26-1.04c-0.47-0.25-0.69-0.98-1.17-1.23
			c-0.47-0.25-1.48,0.52-1.95,0.27c-0.48-0.24-0.83-0.73-1.31-0.97c-0.48-0.24-0.71-0.98-1.19-1.22c-0.48-0.24-1.11-0.17-1.59-0.4
			c-0.48-0.23-0.67-1.07-1.16-1.3c-0.48-0.23-0.98-0.44-1.47-0.67c-0.48-0.23-0.96-0.49-1.45-0.71c-0.48-0.23-1.2,0.04-1.69-0.18
			c-0.49-0.22-1.12-0.13-1.61-0.35c-0.49-0.22-0.91-0.59-1.4-0.81c-0.49-0.22-1.05-0.29-1.54-0.5c-0.49-0.21-0.74-0.99-1.23-1.21
			c-0.49-0.21-1.19,0.06-1.68-0.15c-0.49-0.21-1.04-0.29-1.53-0.5c-0.49-0.21-0.89-0.66-1.38-0.86c-0.49-0.21-1.06-0.23-1.56-0.43
			c-0.5-0.21-0.98-0.43-1.47-0.63c-0.5-0.2-1.07-0.2-1.57-0.4c-0.5-0.2-0.68-1.17-1.18-1.37c-0.5-0.2-1.35,0.49-1.84,0.29
			c-0.5-0.2-0.64-1.3-1.14-1.49c-0.5-0.19-1.04-0.29-1.54-0.48c-0.5-0.19-0.94-0.54-1.44-0.73c-0.5-0.19-1.09-0.14-1.59-0.32
			c-0.5-0.19-1.32,0.47-1.82,0.29c-0.5-0.19-0.96-0.47-1.47-0.65c-0.5-0.18-0.67-1.29-1.17-1.47c-0.5-0.18-1.21,0.22-1.72,0.05
			c-0.51-0.18-1.03-0.3-1.53-0.47c-0.51-0.17-0.93-0.57-1.44-0.74c-0.51-0.17-0.94-0.56-1.45-0.73c-0.51-0.17-0.98-0.44-1.49-0.61
			c-0.51-0.16-1.18,0.19-1.69,0.03c-0.51-0.16-1.04-0.26-1.55-0.42c-0.51-0.16-0.96-0.5-1.47-0.66c-0.51-0.15-0.79-1.11-1.3-1.26
			c-0.51-0.15-1.31,0.68-1.82,0.54c-0.52-0.15-0.95-0.56-1.47-0.7c-0.52-0.14-1.13,0.11-1.65-0.03c-0.52-0.14-0.81-1.13-1.33-1.26
			c-0.52-0.13-1.32,0.87-1.84,0.74c-0.52-0.13-0.99-0.42-1.51-0.55c-0.52-0.12-0.85-1.04-1.37-1.16c-0.52-0.12-1.17,0.31-1.69,0.2
			c-0.52-0.11-1.07-0.07-1.6-0.18c-0.52-0.11-0.97-0.58-1.49-0.69c-0.52-0.1-1.09,0-1.61-0.1c-0.53-0.1-1.1,0.11-1.63,0.02
			c-0.53-0.09-1.07-0.05-1.59-0.14c-0.53-0.09-0.98-0.62-1.5-0.7c-0.53-0.08-1-0.52-1.53-0.59c-0.53-0.08-1.09,0.12-1.62,0.05
			c-0.53-0.07-1.02-0.45-1.55-0.52c-0.53-0.06-1.15,0.66-1.68,0.6c-0.53-0.06-0.95-1.22-1.48-1.28c-0.53-0.05-1.15,0.86-1.68,0.82
			c-0.53-0.04-1-0.94-1.53-0.98c-0.53-0.04-1.12,0.7-1.65,0.67c-0.53-0.03-1.06-0.11-1.59-0.13c-0.53-0.02-1.07,0.09-1.6,0.07
			c-0.53-0.02-1.06-0.05-1.59-0.06c-0.53-0.01-1.06-0.21-1.59-0.22c-0.53,0-1.06,0.18-1.6,0.19c-0.53,0-1.07-0.6-1.61-0.59
			c-0.53,0.01-1.06,0.36-1.59,0.38c-0.53,0.02-1.07-0.13-1.61-0.11c-0.53,0.03-1.05,0.26-1.59,0.29c-0.53,0.03-1.11-0.62-1.65-0.58
			c-0.53,0.04-1.08-0.05-1.61,0c-0.53,0.05-0.97,1.09-1.5,1.15c-0.53,0.06-1.15-0.64-1.68-0.58c-0.53,0.06-0.99,0.66-1.52,0.73
			c-0.53,0.07-1.01,0.42-1.54,0.5c-0.53,0.08-1.19-0.71-1.72-0.62c-0.53,0.09-0.86,1.27-1.39,1.36c-0.52,0.09-1.04,0.21-1.56,0.31
			c-0.52,0.1-1.19-0.53-1.71-0.42c-0.52,0.11-1.06,0.16-1.58,0.28c-0.52,0.12-0.89,0.86-1.41,0.98c-0.52,0.12-1.07,0.08-1.59,0.21
			c-0.52,0.13-1.1-0.02-1.62,0.12c-0.51,0.14-1.09,0.07-1.6,0.21c-0.51,0.14-1.07,0.16-1.58,0.31c-0.51,0.15-0.99,0.42-1.5,0.58
			c-0.51,0.16-0.8,1-1.31,1.16c-0.51,0.16-1.28-0.47-1.78-0.3c-0.5,0.17-1.13,0.01-1.64,0.19c-0.5,0.18-0.85,0.79-1.35,0.98
			c-0.5,0.18-0.96,0.47-1.46,0.66c-0.5,0.19-1.13,0.05-1.63,0.24c-0.49,0.2-0.66,1.2-1.16,1.4c-0.49,0.2-0.91,0.56-1.4,0.78
			c-0.49,0.21-1.2-0.1-1.69,0.11c-0.49,0.21-0.94,0.51-1.43,0.73c-0.48,0.22-0.74,0.93-1.22,1.16c-0.48,0.23-1.33-0.32-1.81-0.09
			c-0.48,0.23-1.06,0.27-1.54,0.51c-0.48,0.24-0.9,0.59-1.38,0.83c-0.47,0.24-1.01,0.37-1.49,0.62c-0.47,0.25-0.54,1.26-1.01,1.51
			c-0.47,0.25-0.89,0.58-1.36,0.84c-0.47,0.26-0.81,0.72-1.28,0.99c-0.46,0.26-1.02,0.35-1.48,0.62c-0.46,0.27-1.19,0.07-1.65,0.34
			c-0.46,0.27-0.61,1.05-1.07,1.33c-0.45,0.27-0.88,0.59-1.34,0.87c-0.45,0.28-1.3-0.07-1.75,0.21c-0.45,0.28-0.91,0.56-1.36,0.85
			c-0.45,0.29-0.92,0.54-1.36,0.84c-0.44,0.29-0.97,0.46-1.42,0.76c-0.44,0.29-1.09,0.29-1.53,0.59c-0.44,0.3-0.53,1.11-0.97,1.42
			c-0.44,0.3-0.48,1.18-0.91,1.48c-0.43,0.3-1.47-0.23-1.9,0.08c-0.43,0.31-0.68,0.88-1.12,1.19c-0.43,0.31-0.47,1.15-0.9,1.47
			c-0.43,0.32-1.28,0.07-1.7,0.39c-0.43,0.32-1.08,0.34-1.51,0.66c-0.42,0.32-0.54,1.05-0.97,1.38c-0.42,0.32-1.05,0.38-1.48,0.71
			c-0.42,0.33-0.65,0.9-1.07,1.23c-0.42,0.33-1.04,0.41-1.46,0.74c-0.41,0.33-0.87,0.63-1.28,0.97c-0.41,0.33-0.36,1.24-0.77,1.58
			c-0.41,0.34-0.99,0.47-1.4,0.81c-0.41,0.34-0.45,1.12-0.86,1.47c-0.41,0.34-1.01,0.45-1.42,0.8c-0.4,0.35-1.38,0.03-1.79,0.38
			c-0.4,0.35-0.14,1.46-0.55,1.81c-0.4,0.35-0.68,0.84-1.08,1.2c-0.4,0.35-0.85,0.65-1.25,1.01c-0.4,0.35-0.71,0.79-1.11,1.15
			c-0.39,0.36-1.24,0.22-1.63,0.58c-0.39,0.36-1.13,0.35-1.53,0.71c-0.39,0.36-0.23,1.32-0.62,1.69c-0.39,0.36-0.88,0.62-1.27,0.98
			c-0.39,0.37-0.96,0.54-1.35,0.91c-0.39,0.37-0.64,0.88-1.03,1.25S39.56,55.32,39.17,55.7z"/>
	</g>
	<g>
		<g>
			<g>
				<path d="M99.97,203.93c0,0,0-0.01,0.01-0.01C99.96,203.92,99.96,203.93,99.97,203.93z"/>
			</g>
			<g>
				<path d="M99.83,197.37c-0.46-0.15-0.86-0.38-1.3-0.54c-0.45-0.17-0.9-0.36-1.33-0.54c-0.45-0.19-0.83-0.5-1.25-0.71
					c-0.44-0.22-0.84-0.47-1.25-0.7c-0.42-0.24-0.89-0.39-1.28-0.65c-0.41-0.26-0.77-0.58-1.15-0.86c-0.39-0.29-0.88-0.45-1.24-0.75
					c-0.37-0.31-0.64-0.73-0.99-1.05c-0.35-0.33-0.67-0.69-0.99-1.04c-0.32-0.36-0.68-0.68-0.97-1.05c-0.3-0.38-0.63-0.73-0.9-1.12
					c-0.27-0.4-0.39-0.88-0.63-1.29c-0.24-0.41-0.5-0.81-0.71-1.24c-0.21-0.43-0.48-0.83-0.66-1.27c-0.18-0.44-0.37-0.88-0.53-1.34
					c-0.15-0.45-0.09-0.97-0.21-1.43c-0.13-0.46-0.26-0.91-0.36-1.38c-0.1-0.46-0.26-0.92-0.33-1.39c-0.08-0.47-0.11-0.94-0.17-1.42
					c-0.05-0.47-0.18-0.94-0.21-1.42c-0.03-0.47,0.11-0.96,0.09-1.44c-0.01-0.47-0.22-0.95-0.22-1.43c0-0.47,0.08-0.95,0.1-1.43
					c0.02-0.47-0.06-0.96-0.03-1.44c0.03-0.47,0.17-0.94,0.22-1.42c0.05-0.47-0.02-0.96,0.05-1.44c0.06-0.47,0.14-0.94,0.21-1.42
					c0.07-0.47,0.15-0.94,0.23-1.41c0.08-0.47,0.39-0.9,0.48-1.37c0.1-0.47,0.08-0.96,0.19-1.42c0.1-0.46,0.16-0.94,0.28-1.41
					c0.11-0.46,0.39-0.88,0.51-1.35c0.12-0.46,0.3-0.9,0.43-1.36c0.13-0.46,0.13-0.95,0.27-1.41c0.14-0.46,0.28-0.91,0.42-1.37
					c0.14-0.46,0.25-0.92,0.4-1.38c0.15-0.45,0.4-0.87,0.55-1.32c0.16-0.45,0.26-0.92,0.43-1.37c0.16-0.45,0.45-0.86,0.62-1.3
					c0.17-0.45,0.32-0.9,0.49-1.35c0.17-0.45,0.22-0.94,0.39-1.39c0.18-0.45,0.44-0.85,0.63-1.29c0.18-0.44,0.34-0.9,0.53-1.33
					c0.19-0.44,0.46-0.84,0.65-1.28c0.19-0.44,0.42-0.86,0.62-1.29c0.2-0.44,0.24-0.94,0.44-1.37c0.2-0.44,0.47-0.84,0.67-1.27
					c0.2-0.44,0.24-0.95,0.44-1.37c0.21-0.44,0.54-0.81,0.75-1.23c0.21-0.44,0.47-0.84,0.68-1.26c0.22-0.44,0.33-0.81,0.54-1.23
					c-0.34,0.34-0.72,0.55-1.05,0.91c-0.33,0.35-0.51,0.85-0.83,1.22c-0.31,0.37-0.58,0.77-0.89,1.16c-0.3,0.38-0.69,0.69-0.98,1.09
					c-0.29,0.39-0.52,0.82-0.8,1.22c-0.28,0.4-0.65,0.73-0.92,1.14c-0.27,0.41-0.42,0.89-0.67,1.3c-0.26,0.41-0.58,0.78-0.83,1.21
					c-0.25,0.42-0.42,0.88-0.65,1.31c-0.24,0.43-0.54,0.81-0.77,1.25c-0.23,0.43-0.44,0.87-0.66,1.31
					c-0.22,0.44-0.43,0.87-0.64,1.32c-0.21,0.44-0.44,0.87-0.64,1.32c-0.2,0.45-0.34,0.92-0.53,1.37c-0.19,0.45-0.39,0.89-0.58,1.35
					c-0.18,0.45-0.3,0.93-0.48,1.39c-0.18,0.46-0.5,0.86-0.66,1.32c-0.17,0.46-0.39,0.9-0.55,1.36c-0.16,0.46-0.29,0.94-0.44,1.4
					c-0.15,0.47-0.25,0.95-0.39,1.41c-0.14,0.47-0.26,0.95-0.39,1.41c-0.13,0.47-0.23,0.95-0.35,1.42
					c-0.12,0.48-0.35,0.92-0.47,1.39c-0.12,0.48,0,1-0.11,1.48c-0.1,0.48-0.44,0.9-0.53,1.38c-0.16,0.46-0.29,0.93-0.41,1.38
					c-0.12,0.47-0.15,0.96-0.23,1.43c-0.09,0.48-0.26,0.94-0.31,1.42c-0.05,0.48,0.09,0.97,0.07,1.45
					c-0.02,0.48-0.08,0.96-0.06,1.44c0.02,0.48-0.02,0.97,0.03,1.44c0.05,0.48,0.08,0.97,0.17,1.44c0.09,0.47,0.3,0.92,0.42,1.39
					c0.11,0.46,0.37,0.89,0.52,1.35c0.14,0.46,0.1,0.97,0.27,1.43c0.16,0.45,0.53,0.82,0.72,1.26c0.19,0.44,0.13,0.99,0.34,1.43
					c0.2,0.43,0.66,0.75,0.88,1.17c0.22,0.42,0.4,0.87,0.63,1.29c0.23,0.42,0.46,0.84,0.71,1.25c0.24,0.41,0.41,0.87,0.67,1.28
					c0.25,0.41,0.52,0.81,0.78,1.21c0.26,0.4,0.65,0.72,0.92,1.11c0.27,0.4,0.37,0.91,0.65,1.3c0.27,0.39,0.56,0.78,0.84,1.17
					c0.28,0.39,0.68,0.69,1.05,1c0.36,0.31,0.69,0.69,1.11,0.94c0.4,0.24,0.87,0.4,1.32,0.61c0.43,0.2,0.88,0.39,1.33,0.57
					c0.45,0.17,0.91,0.33,1.36,0.49c0.46,0.16,0.89,0.39,1.35,0.54c0.47,0.16,0.95,0.23,1.39,0.39c0.47,0.18,0.95,0.28,1.37,0.48
					c0.46,0.21,0.89,0.46,1.27,0.71c0.43,0.28,0.85,0.57,1.14,0.92c0.31,0.38,0.5,0.85,0.6,1.34c0.09,0.43,0.04,0.91-0.07,1.44
					c-0.08,0.42-0.17,0.95-0.4,1.44c-0.46,0.01-1-0.18-1.49-0.15c-0.46,0.03-0.92,0.31-1.41,0.35c-0.46,0.04-0.94,0.09-1.42,0.14
					c-0.47,0.05-0.94,0.06-1.42,0.11c-0.47,0.05-0.94,0.13-1.42,0.19c-0.47,0.05-0.94,0.15-1.42,0.2c-0.47,0.05-0.97-0.12-1.45-0.07
					c-0.47,0.05-0.95,0.06-1.42,0.1c-0.47,0.04-0.94,0.17-1.42,0.21c-0.48,0.04-0.95,0.14-1.42,0.17c-0.48,0.03-0.95,0.06-1.43,0.08
					c-0.48,0.02-0.96-0.1-1.43-0.1c-0.48,0-0.96,0.16-1.43,0.14c-0.48-0.02-0.95-0.19-1.42-0.23c-0.48-0.04-0.97,0.08-1.44,0.02
					c-0.48-0.06-0.93-0.26-1.39-0.35c-0.47-0.1-0.98-0.06-1.43-0.19c-0.46-0.13-0.85-0.49-1.28-0.66c-0.45-0.18-0.9-0.32-1.32-0.54
					c-0.42-0.22-0.77-0.52-1.15-0.79c-0.27-0.38-0.64-0.69-0.92-1.1c-0.27-0.39-0.64-0.72-0.92-1.13c-0.26-0.39-0.51-0.81-0.78-1.22
					c-0.26-0.4-0.31-0.94-0.58-1.35c-0.26-0.4-0.59-0.76-0.85-1.17c-0.25-0.4-0.59-0.76-0.84-1.18c-0.25-0.41-0.33-0.92-0.59-1.34
					c-0.25-0.41-0.6-0.76-0.85-1.18c-0.25-0.41-0.58-0.77-0.83-1.19c-0.24-0.41-0.52-0.81-0.76-1.23c-0.24-0.42-0.37-0.9-0.61-1.32
					c-0.24-0.42-0.44-0.86-0.68-1.28c-0.24-0.42-0.46-0.84-0.7-1.26c-0.24-0.42-0.4-0.88-0.63-1.3c-0.23-0.42-0.65-0.74-0.89-1.16
					c-0.23-0.42-0.49-0.83-0.73-1.25c-0.23-0.42-0.44-0.86-0.67-1.28c-0.23-0.42-0.44-0.86-0.67-1.28
					c-0.23-0.42-0.54-0.81-0.77-1.23c-0.23-0.42-0.27-0.95-0.5-1.38c-0.23-0.43-0.52-0.82-0.75-1.25c-0.23-0.43-0.37-0.9-0.59-1.33
					c-0.23-0.43-0.53-0.82-0.75-1.25c-0.23-0.43-0.38-0.9-0.61-1.33c-0.23-0.43-0.63-0.76-0.86-1.19c-0.23-0.43-0.31-0.93-0.54-1.36
					c-0.23-0.43-0.54-0.81-0.77-1.24c-0.23-0.43-0.49-0.83-0.72-1.26c-0.23-0.43-0.36-0.9-0.59-1.33c-0.23-0.43-0.56-0.8-0.79-1.22
					c-0.23-0.43-0.37-0.9-0.6-1.32c-0.23-0.43-0.59-0.79-0.81-1.21c-0.23-0.43-0.31-0.94-0.54-1.36c-0.23-0.43-0.59-0.79-0.81-1.21
					c-0.23-0.43-0.28-0.95-0.51-1.37c-0.23-0.43-0.52-0.82-0.75-1.24c-0.23-0.43-0.43-0.87-0.66-1.29
					c-0.24-0.43-0.67-0.74-0.91-1.15c-0.24-0.43-0.4-0.89-0.63-1.31c-0.24-0.43-0.37-0.91-0.6-1.32c-0.25-0.43-0.51-0.83-0.75-1.24
					c-0.25-0.43-0.51-0.83-0.75-1.23c-0.25-0.43-0.52-0.82-0.77-1.22c-0.68,0.15-0.6,0.36-1.19,0.72c-0.6,0.36-0.73,0.19-1.19,0.72
					c0.25,0.37,0.5,0.77,0.77,1.2c0.24,0.39,0.61,0.73,0.87,1.16c0.23,0.4,0.29,0.92,0.54,1.35c0.23,0.41,0.46,0.82,0.69,1.25
					c0.22,0.41,0.46,0.83,0.68,1.26c0.22,0.41,0.48,0.82,0.71,1.25c0.22,0.42,0.54,0.79,0.76,1.22c0.22,0.42,0.46,0.83,0.68,1.26
					c0.21,0.42,0.36,0.89,0.58,1.32c0.21,0.42,0.34,0.9,0.56,1.33c0.21,0.42,0.4,0.87,0.62,1.3c0.21,0.42,0.43,0.85,0.64,1.28
					c0.21,0.42,0.5,0.81,0.72,1.24c0.21,0.42,0.45,0.84,0.67,1.27c0.22,0.43,0.4,0.87,0.61,1.3c0.22,0.43,0.51,0.82,0.73,1.24
					c0.22,0.42,0.37,0.88,0.59,1.31c0.22,0.42,0.35,0.9,0.57,1.32c0.22,0.42,0.48,0.83,0.7,1.26c0.23,0.42,0.54,0.8,0.76,1.23
					c0.23,0.42,0.34,0.91,0.57,1.33c0.23,0.42,0.45,0.85,0.69,1.27c0.23,0.42,0.66,0.74,0.9,1.15c0.24,0.42,0.3,0.94,0.54,1.35
					c0.24,0.42,0.68,0.72,0.93,1.13c0.25,0.42,0.44,0.86,0.69,1.27c0.25,0.41,0.4,0.89,0.65,1.29c0.26,0.41,0.55,0.79,0.81,1.2
					c0.26,0.41,0.6,0.76,0.87,1.15c0.27,0.4,0.55,0.79,0.82,1.18c0.28,0.4,0.46,0.85,0.74,1.24c0.28,0.39,0.53,0.81,0.81,1.19
					c0.29,0.39,0.74,0.64,1.04,1.01c0.3,0.38,0.59,0.77,0.89,1.12c0.32,0.37,0.53,0.82,0.84,1.17c0.33,0.36,0.7,0.67,1.03,1
					c0.3,0.36,0.54,0.78,0.79,1.21c0.24,0.4,0.49,0.82,0.71,1.26c0.21,0.43,0.55,0.8,0.75,1.25c0.2,0.44,0.33,0.91,0.53,1.35
					c0.2,0.44,0.32,0.92,0.53,1.35c0.21,0.44,0.44,0.87,0.68,1.28c0.25,0.43,0.54,0.81,0.82,1.19c0.3,0.39,0.66,0.7,1.02,1.01
					c0.36,0.32,0.74,0.58,1.18,0.79c0.42,0.2,0.85,0.37,1.35,0.45c0.44,0.07,0.91,0.03,1.43,0c0.38-0.03,0.87,0.03,1.45,0.03
					c0.43,0,0.91,0.14,1.44,0.16c0.45,0.01,0.93,0,1.44,0.02c0.46,0.02,0.94-0.06,1.44-0.04c0.47,0.02,0.95,0.06,1.44,0.08
					c0.47,0.02,0.95,0.02,1.44,0.04c0.47,0.01,0.95,0.12,1.44,0.13c0.48,0.01,0.96-0.15,1.44-0.14c0.48,0.01,0.96,0.18,1.44,0.18
					c0.48,0,0.96-0.2,1.44-0.2c0.48-0.01,0.97,0.03,1.45,0.01c0.49-0.01,0.97-0.06,1.44-0.08c0.49-0.02,0.96-0.1,1.44-0.13
					c0.49-0.04,0.97-0.07,1.44-0.12c0.49-0.05,0.97-0.09,1.43-0.16c0.5-0.08,0.97-0.13,1.42-0.23c0.5-0.11,1-0.11,1.43-0.25
					c0.49-0.16,0.89-0.45,1.29-0.65c0.47-0.24,0.97-0.38,1.28-0.69c0.36-0.36,0.55-0.84,0.64-1.31c0.08-0.43,0.04-0.91-0.13-1.43
					c-0.13-0.4-0.34-0.83-0.64-1.3c-0.23-0.36-0.59-0.7-0.93-1.11C100.56,198.01,100.2,197.74,99.83,197.37z M100.08,204.02
					c-0.07,0.15-0.18-0.07-0.12-0.12C100.02,203.9,100.08,204.02,100.08,204.02z"/>
			</g>
			<g>
				<path d="M42.77,159.12c-0.31,0.36-0.48,0.84-0.78,1.21c-0.3,0.37-0.71,0.65-1,1.02c-0.29,0.38-0.61,0.73-0.88,1.12
					c-0.28,0.39-0.44,0.85-0.71,1.24c-0.27,0.39-0.69,0.68-0.94,1.09c-0.26,0.4-0.5,0.81-0.74,1.22c-0.24,0.41-0.29,0.93-0.52,1.34
					c-0.23,0.42-0.53,0.79-0.75,1.21c-0.22,0.42-0.55,0.79-0.75,1.22c-0.21,0.43-0.29,0.91-0.48,1.35
					c-0.19,0.44-0.38,0.87-0.55,1.31c-0.18,0.44-0.27,0.91-0.43,1.36c-0.16,0.45-0.38,0.87-0.52,1.32c-0.15,0.45-0.31,0.9-0.44,1.35
					c-0.13,0.46-0.41,0.87-0.53,1.33c-0.12,0.46-0.08,0.96-0.18,1.42c-0.1,0.46-0.18,0.93-0.27,1.4c-0.09,0.47-0.33,0.91-0.41,1.38
					c-0.07,0.47-0.06,0.95-0.11,1.42c-0.06,0.47-0.2,0.94-0.24,1.41c-0.04,0.47-0.08,0.95-0.11,1.42c-0.02,0.47,0.1,0.95,0.1,1.43
					c-0.01,0.47-0.04,0.94-0.03,1.41c0.41,0.12,0.87,0.26,1.35,0.44c0.43,0.16,0.83,0.44,1.28,0.65c0.43,0.2,0.93,0.28,1.35,0.52
					c0.42,0.24,0.77,0.58,1.16,0.86c0.4,0.28,0.89,0.46,1.23,0.77c0.36,0.35,0.49,0.87,0.73,1.26c0.27,0.42,0.5,0.81,0.58,1.27
					c0.08,0.45,0.02,0.89-0.13,1.38c-0.13,0.41-0.23,0.91-0.56,1.34c-0.43,0.03-0.95,0.12-1.48,0.19c-0.45,0.05-0.94,0.07-1.45,0.14
					c-0.46,0.06-0.96,0.05-1.46,0.12c-0.47,0.07-0.93,0.32-1.42,0.39c-0.47,0.06-1-0.19-1.49-0.13c-0.48,0.06-0.93,0.36-1.42,0.41
					c-0.48,0.06-0.97,0.09-1.46,0.14c-0.48,0.05-0.98-0.03-1.47,0.01c-0.49,0.04-0.98,0.05-1.46,0.08c-0.49,0.03-0.98,0.1-1.46,0.11
					c-0.49,0.01-0.98,0-1.47-0.01c-0.5-0.01-1,0.09-1.47,0.05c-0.5-0.04-0.98-0.2-1.45-0.27c-0.5-0.07-0.94-0.3-1.4-0.41
					c-0.49-0.12-0.96-0.21-1.4-0.39c-0.47-0.18-0.93-0.33-1.33-0.58c-0.42-0.27-0.71-0.65-1.04-0.99c-0.33-0.35-0.75-0.63-0.97-1.08
					c-0.21-0.42-0.36-0.89-0.46-1.39c-0.09-0.45-0.12-0.94-0.12-1.46c0.01-0.46,0.04-0.95,0.12-1.47c0.14-0.46,0.2-0.94,0.33-1.4
					c0.13-0.46,0.23-0.93,0.35-1.39c0.12-0.46,0.41-0.88,0.53-1.35c0.11-0.47,0.32-0.91,0.42-1.38c0.1-0.47,0.04-0.97,0.14-1.44
					c0.1-0.47,0.14-0.95,0.23-1.42c0.09-0.47,0.38-0.9,0.46-1.37c0.08-0.47,0.04-0.96,0.12-1.44c0.08-0.47,0.05-0.96,0.12-1.43
					c0.07-0.47,0.4-0.91,0.47-1.38c0.07-0.47,0.03-0.96,0.09-1.44c0.06-0.47,0.03-0.96,0.09-1.44c0.06-0.47,0.14-0.95,0.2-1.42
					c0.06-0.48,0.2-0.94,0.25-1.42c0.05-0.48-0.04-0.97,0.01-1.44c0.05-0.48,0.14-0.95,0.19-1.42c0.05-0.48,0-0.96,0.05-1.44
					c0.05-0.48,0.2-0.94,0.25-1.42c0.05-0.48,0.06-0.96,0.11-1.43c0.05-0.48,0.23-0.94,0.28-1.41c0.05-0.48-0.09-0.97-0.04-1.45
					c0.05-0.48,0.3-0.93,0.36-1.4c0.06-0.47,0.03-0.96,0.09-1.43c0.06-0.47,0.23-0.93,0.29-1.41c0.06-0.47,0.12-0.95,0.19-1.42
					c0.07-0.47,0.19-0.94,0.26-1.41c0.07-0.47-0.12-0.99-0.04-1.46c0.08-0.47,0.3-0.92,0.39-1.39c0.09-0.47,0.07-0.96,0.16-1.43
					c0.09-0.47,0.34-0.91,0.44-1.37c0.1-0.47,0.13-0.95,0.24-1.42c0.11-0.46,0.12-0.96,0.24-1.42c0.12-0.46,0.44-0.87,0.57-1.34
					c0.13-0.46,0.29-0.89,0.43-1.35c0.32-0.4,0.45-0.88,0.71-1.26c0.29-0.42,0.5-0.84,0.71-1.25c0.24-0.45,0.63-0.81,0.78-1.24
					c0.17-0.48,0.11-0.99,0.18-1.45c0.07-0.49,0.32-0.97,0.28-1.44c-0.03-0.48-0.34-0.93-0.48-1.39c-0.13-0.46-0.16-0.96-0.37-1.4
					c-0.2-0.43-0.51-0.81-0.78-1.23c-0.25-0.4-0.5-0.81-0.8-1.21c-0.29-0.37-0.52-0.81-0.84-1.18c-0.31-0.36-0.76-0.6-1.09-0.97
					c-0.32-0.35-0.69-0.66-1.02-1.02c-0.32-0.35-0.68-0.68-1-1.04c-0.32-0.35-0.54-0.81-0.86-1.18c-0.32-0.36-0.6-0.75-0.91-1.12
					c-0.3-0.37-0.51-0.82-0.8-1.21c-0.29-0.39-0.68-0.69-0.95-1.1c-0.26-0.4-0.49-0.83-0.72-1.25c-0.23-0.42-0.39-0.88-0.58-1.32
					c-0.19-0.44-0.42-0.87-0.56-1.33c-0.14-0.45-0.26-0.89-0.36-1.37c-0.12,0.45-0.27,0.88-0.28,1.36
					c-0.01,0.46,0.11,0.93,0.18,1.41c0.07,0.45,0.29,0.88,0.43,1.35c0.13,0.44,0.32,0.86,0.5,1.31c0.17,0.43,0.32,0.87,0.52,1.3
					c0.2,0.42,0.21,0.94,0.43,1.36c0.22,0.41,0.51,0.79,0.75,1.2c0.24,0.41,0.4,0.86,0.65,1.26c0.25,0.4,0.73,0.66,0.99,1.05
					c0.26,0.4,0.41,0.86,0.68,1.25c0.27,0.39,0.52,0.8,0.79,1.18c0.28,0.39,0.5,0.82,0.77,1.19c0.29,0.4,0.74,0.65,1.01,1.02
					c0.29,0.4,0.53,0.81,0.79,1.17c0.29,0.41,0.45,0.84,0.7,1.2c-0.25,0.42-0.57,0.77-0.8,1.19c-0.23,0.42-0.34,0.92-0.55,1.35
					c-0.22,0.43-0.56,0.81-0.76,1.24c-0.2,0.44-0.2,0.97-0.39,1.41c-0.19,0.45-0.27,0.93-0.44,1.38c-0.17,0.45-0.36,0.89-0.52,1.34
					c-0.16,0.46-0.32,0.91-0.46,1.37c-0.14,0.46-0.47,0.87-0.6,1.33c-0.13,0.46-0.22,0.94-0.34,1.41c-0.12,0.47-0.04,0.98-0.14,1.45
					c-0.1,0.47-0.19,0.94-0.28,1.41c-0.09,0.47-0.36,0.91-0.44,1.39c-0.08,0.47-0.06,0.97-0.13,1.44c-0.07,0.48-0.1,0.96-0.16,1.44
					c-0.06,0.48-0.32,0.93-0.37,1.41c-0.06,0.48-0.11,0.96-0.16,1.44c-0.05,0.48,0.06,0.97,0.02,1.45
					c-0.04,0.48-0.03,0.96-0.07,1.44c-0.04,0.48-0.23,0.95-0.26,1.43c-0.04,0.48,0.02,0.97-0.01,1.45
					c-0.03,0.48-0.24,0.95-0.26,1.43c-0.03,0.48,0.12,0.97,0.09,1.45c-0.03,0.48-0.22,0.95-0.25,1.43c-0.03,0.48,0.03,0.97,0,1.45
					c-0.03,0.48,0,0.96-0.03,1.45c-0.03,0.48,0.08,0.97,0.05,1.45c-0.03,0.48-0.03,0.96-0.06,1.45c-0.03,0.48-0.14,0.96-0.17,1.44
					c-0.03,0.48-0.06,0.96-0.1,1.44c-0.04,0.48-0.07,0.96-0.12,1.44c-0.04,0.48-0.34,0.94-0.39,1.41c-0.05,0.48-0.09,0.96-0.14,1.44
					c-0.05,0.48,0,0.97-0.06,1.45c-0.06,0.48-0.23,0.94-0.3,1.42c-0.07,0.48-0.03,0.97-0.11,1.44c-0.08,0.48-0.2,0.94-0.28,1.42
					c-0.09,0.47-0.2,0.94-0.29,1.41c-0.1,0.47-0.15,0.95-0.26,1.42c-0.11,0.47-0.33,0.91-0.45,1.37c-0.12,0.47-0.09,0.97-0.23,1.43
					c-0.13,0.46-0.19,0.94-0.34,1.39c-0.05,0.51-0.29,0.99-0.22,1.44c0.08,0.5,0.4,0.92,0.61,1.34c0.21,0.43,0.37,0.92,0.71,1.28
					c0.32,0.34,0.85,0.47,1.27,0.75c0.39,0.26,0.69,0.7,1.15,0.91c0.42,0.19,0.91,0.29,1.39,0.45c0.45,0.15,0.95,0.13,1.43,0.25
					c0.46,0.11,0.89,0.4,1.38,0.48c0.47,0.08,0.95,0.17,1.44,0.23c0.47,0.05,0.98-0.13,1.47-0.09c0.48,0.03,0.96,0.05,1.45,0.07
					c0.48,0.01,0.96,0.2,1.45,0.2c0.48,0,0.97-0.09,1.45-0.11c0.48-0.02,0.97-0.05,1.45-0.08c0.48-0.03,0.98,0.06,1.46,0.01
					c0.49-0.04,0.95-0.29,1.43-0.34c0.49-0.05,0.97-0.08,1.45-0.14c0.49-0.07,1,0.06,1.47-0.01c0.49-0.08,0.91-0.46,1.38-0.54
					c0.49-0.09,1-0.02,1.46-0.11c0.49-0.1,0.99-0.11,1.44-0.22c0.49-0.12,0.96-0.28,1.4-0.41c0.5-0.15,0.93-0.41,1.34-0.56
					c0.52-0.19,0.87-0.46,1.23-0.64c0.29-0.41,0.6-0.7,0.72-1.1c0.14-0.46,0.07-0.9,0.03-1.35c-0.05-0.45,0-0.94-0.2-1.36
					c-0.19-0.4-0.64-0.65-0.93-1.03c-0.27-0.35-0.52-0.73-0.86-1.05c-0.33-0.31-0.61-0.68-0.98-0.96c-0.37-0.27-0.83-0.41-1.22-0.65
					c-0.4-0.25-0.77-0.52-1.16-0.72c-0.42-0.22-0.8-0.5-1.2-0.67c-0.46-0.2-0.77-0.41-1.16-0.53c0.02-0.49-0.03-0.89,0-1.37
					c0.03-0.49,0.02-0.97,0.06-1.46c0.04-0.49-0.01-0.98,0.04-1.46c0.06-0.48,0.24-0.95,0.31-1.43c0.07-0.48,0.15-0.96,0.24-1.44
					c0.08-0.48,0.12-0.97,0.22-1.44c0.1-0.48,0.12-0.97,0.23-1.45c0.11-0.47,0.34-0.92,0.47-1.39c0.13-0.47,0.29-0.93,0.43-1.39
					c0.14-0.47,0.27-0.93,0.43-1.39c0.16-0.46,0.41-0.88,0.58-1.34c0.17-0.45,0.17-0.98,0.36-1.43c0.19-0.45,0.57-0.81,0.77-1.25
					c0.2-0.44,0.26-0.95,0.48-1.39c0.22-0.44,0.45-0.86,0.68-1.29c0.23-0.43,0.62-0.76,0.87-1.18c0.24-0.42,0.32-0.94,0.58-1.35
					c0.26-0.41,0.58-0.78,0.85-1.19c0.27-0.4,0.54-0.81,0.82-1.21c0.28-0.39,0.47-0.87,0.76-1.25c0.3-0.38,0.6-0.77,0.91-1.14
					c0.31-0.37,0.8-0.6,1.12-0.97c0.24-0.3-0.34-0.27-0.91-0.18C43.42,158.95,42.92,158.94,42.77,159.12z"/>
			</g>
			<g>
				<path d="M14.2,114.12c-0.48,0.22-1.11,0.22-1.52,0.35c-0.52,0.17-0.9,0.56-1.31,0.58c-0.56,0.03-0.79-0.53-1.17-0.72
					c-0.42-0.22-1.22,0-1.45-0.45c-0.19-0.39,0.27-1.02,0.2-1.54c-0.06-0.44-0.22-0.87-0.21-1.38c0.01-0.45-0.52-0.97-0.47-1.46
					c0.05-0.46,0.65-0.87,0.73-1.35c0.07-0.46,0.47-0.87,0.56-1.34c0.09-0.46-0.79-1.14-0.68-1.61c0.1-0.47,0.88-0.78,1-1.24
					c0.11-0.47-0.27-1.06-0.16-1.52c0.12-0.47,0.58-0.85,0.7-1.3c0.12-0.48,0.61-0.85,0.72-1.29c0.13-0.49-0.35-1.1-0.25-1.54
					c0.12-0.51-0.09-1.03-0.01-1.44c0.09-0.47,1.1-0.76,1.2-1.22c0.1-0.47-0.49-1.09-0.38-1.55c0.11-0.47,0.7-0.82,0.82-1.28
					c0.12-0.47,0.22-0.93,0.34-1.39c0.13-0.46,0.48-0.85,0.62-1.31c0.14-0.46,0-1,0.15-1.45c0.15-0.46,0.28-0.92,0.44-1.36
					c0.16-0.45,0.79-0.72,0.96-1.16c0.17-0.45-0.65-1.29-0.46-1.73c0.19-0.44,0.9-0.66,1.1-1.09c0.2-0.44,0.46-0.84,0.67-1.27
					c0.21-0.43-0.08-1.11,0.14-1.53c0.22-0.43,0.74-0.7,0.96-1.12c0.23-0.42,0.59-0.77,0.82-1.18c0.24-0.41,0.91-0.56,1.16-0.97
					c0.25-0.41,0.43-0.84,0.69-1.24c0.26-0.4-0.14-1.23,0.13-1.63c0.27-0.4,1.24-0.3,1.51-0.69c0.28-0.39,0.01-1.16,0.3-1.55
					c0.28-0.38,0.72-0.65,1.01-1.03c0.29-0.38,0.29-1,0.59-1.37c0.3-0.37,1-0.41,1.31-0.77c0.31-0.36,0.32-0.98,0.64-1.34
					c0.32-0.36,0.96-0.42,1.28-0.77c0.32-0.35,0.38-0.95,0.71-1.29c0.33-0.34,1.08-0.27,1.42-0.61c0.33-0.34-0.04-1.39,0.31-1.72
					c0.34-0.33,1.32,0,1.67-0.33c0.35-0.33,0.31-1.06,0.66-1.39c0.35-0.32,0.45-0.93,0.81-1.24c0.36-0.32,0.85-0.49,1.21-0.8
					c0.36-0.31,1.17-0.1,1.53-0.41c0.36-0.31,0.56-0.81,0.93-1.11c0.37-0.3,1.02-0.26,1.39-0.55c0.37-0.3,0.58-0.79,0.96-1.09
					c0.37-0.29,0.9-0.39,1.28-0.68c0.38-0.29,0.33-1.13,0.71-1.42c0.38-0.29,1.04-0.21,1.42-0.49c0.38-0.28,0.98-0.26,1.37-0.55
					c0.38-0.28,0.34-1.15,0.73-1.43c0.39-0.28,1.05-0.17,1.44-0.44c0.39-0.28,0.54-0.89,0.93-1.17c0.39-0.27,0.55-0.88,0.94-1.15
					c0.39-0.27,1.16,0,1.55-0.28c0.39-0.27,1.03-0.18,1.43-0.45c0.39-0.27,0.22-1.34,0.62-1.61c0.36-0.32,1.3,0.08,1.66-0.23
					c0.36-0.31,0.14-1.31,0.51-1.62c0.37-0.31,1.19-0.05,1.57-0.35c0.37-0.3,0.46-0.95,0.84-1.25c0.38-0.29,1-0.26,1.38-0.55
					c0.38-0.29,0.52-0.89,0.91-1.18c0.39-0.28,0.89-0.4,1.28-0.67c0.39-0.28,0.51-0.95,0.9-1.22c0.39-0.27,0.69-0.7,1.08-0.97
					c0.4-0.27,1.44,0.45,1.84,0.19c0.4-0.26,0.46-1.04,0.87-1.3c0.41-0.25,0.87-0.41,1.28-0.66c0.41-0.25,0.97-0.23,1.38-0.47
					c0.41-0.24,0.66-0.76,1.07-1c0.42-0.24,0.55-0.98,0.97-1.21c0.42-0.23,1.18,0.17,1.61-0.05c0.42-0.22,0.72-0.68,1.14-0.9
					c0.42-0.22,1.02-0.09,1.45-0.3c0.43-0.21,0.55-1.04,0.98-1.25c0.43-0.21,1.16,0.22,1.59,0.02c0.43-0.2,0.97-0.17,1.4-0.36
					c0.44-0.2,0.76-0.64,1.19-0.83c0.44-0.19,0.57-1.09,1.01-1.28c0.44-0.19,0.94-0.24,1.38-0.42c0.44-0.18,0.95-0.2,1.4-0.38
					c0.44-0.18,0.98-0.11,1.43-0.28c0.45-0.17,0.77-0.66,1.22-0.82c0.45-0.17,0.88-0.38,1.33-0.54c0.45-0.16,0.95-0.19,1.4-0.35
					c0.45-0.16,0.94-0.2,1.4-0.35c0.45-0.15,0.86-0.45,1.32-0.59c0.45-0.15,0.92-0.25,1.38-0.39c0.46-0.14,0.91-0.31,1.36-0.44
					c0.46-0.14,0.93-0.23,1.39-0.36c0.46-0.13,0.83-0.58,1.29-0.7c0.46-0.13,1.13,0.51,1.59,0.39c0.46-0.12,0.71-1.06,1.18-1.18
					c0.46-0.12,0.91-0.31,1.38-0.42c0.46-0.11,1.17,0.81,1.64,0.7c0.47-0.11,0.77-0.92,1.24-1.02c0.47-0.1,1.04,0.27,1.5,0.17
					c0.47-0.1,0.87-0.52,1.34-0.61c0.47-0.09,0.87-0.52,1.34-0.61c0.47-0.09,0.97-0.04,1.44-0.12c0.47-0.09,1.04,0.36,1.51,0.27
					c0.47-0.08,0.9-0.38,1.37-0.46c0.47-0.08,0.9-0.41,1.38-0.48c0.47-0.07,1.03,0.44,1.51,0.37c0.47-0.07,0.88-0.58,1.35-0.65
					c0.47-0.07,1,0.25,1.47,0.19c0.47-0.06,0.94-0.14,1.42-0.2c0.47-0.06,0.97,0.1,1.45,0.05c0.48-0.05,0.91-0.44,1.39-0.49
					c0.48-0.05,0.98,0.21,1.46,0.17c0.48-0.05,0.86-1.06,1.34-1.1c0.48-0.04,0.96-0.08,1.43-0.11c0.48-0.04,1.02,0.72,1.49,0.68
					c0.48-0.04,0.94-0.22,1.42-0.26c0.48-0.03,0.92-0.62,1.4-0.65c0.48-0.03,0.99,0.59,1.47,0.57c0.48-0.02,0.95-0.21,1.42-0.23
					c0.48-0.02,0.96,0.02,1.44,0c0.48-0.02,0.95-0.42,1.42-0.43c0.48-0.01,0.96,0.16,1.44,0.15c0.48-0.01,0.96,0.19,1.44,0.18
					c0.48-0.01,0.96,0.12,1.44,0.12c0.48,0,0.96-0.77,1.43-0.77c0.48,0,0.96-0.11,1.44-0.1c0.48,0,0.96,0.38,1.43,0.38
					c0.48,0.01,0.96,0.07,1.43,0.08c0.48,0.01,0.95,0.38,1.43,0.4c0.48,0.01,0.96-0.07,1.43-0.05c0.48,0.02,0.94,0.41,1.42,0.43
					c0.48,0.02,0.99-0.79,1.47-0.77c0.48,0.02,0.95,0.22,1.42,0.24c0.48,0.03,0.97-0.2,1.45-0.17c0.48,0.03,0.95,0.12,1.43,0.15
					c0.48,0.03,0.92,0.54,1.39,0.57c0.48,0.04,1-0.51,1.47-0.47c0.48,0.04,0.96,0.09,1.43,0.13c0.48,0.04,0.89,0.81,1.36,0.86
					c0.48,0.05,0.96,0.03,1.43,0.08c0.48,0.05,0.91,0.46,1.39,0.51c0.48,0.05,1.03-0.57,1.5-0.51c0.48,0.06,0.94,0.2,1.41,0.25
					c0.48,0.06,0.9,0.49,1.37,0.55c0.48,0.06,0.98-0.14,1.45-0.07c0.48,0.07,0.91,0.37,1.38,0.44c0.47,0.07,1.02-0.33,1.48-0.26
					c0.48,0.07,0.83,0.85,1.3,0.93c0.47,0.08,0.96,0.02,1.43,0.1c0.47,0.08,1.02-0.26,1.48-0.18c0.47,0.08,0.93,0.25,1.39,0.34
					c0.47,0.09,0.88,0.61,1.34,0.7c0.48,0.03,1.05-0.79,1.52-0.75c0.48,0.04,0.93,0.39,1.41,0.44c0.48,0.04,0.95,0.11,1.43,0.16
					c0.48,0.05,0.89,0.65,1.37,0.7c0.48,0.05,0.99-0.22,1.46-0.16c0.48,0.06,0.99-0.15,1.46-0.08c0.48,0.07,0.98-0.09,1.46-0.01
					c0.47,0.07,0.91,0.42,1.38,0.5c0.47,0.08,1.03-0.29,1.5-0.21c0.47,0.08,0.87,0.6,1.34,0.69c0.47,0.09,0.9,0.39,1.37,0.49
					c0.47,0.1,1.07-0.44,1.54-0.34c0.47,0.1,0.92,0.31,1.38,0.42c0.47,0.11,0.8,0.78,1.27,0.89c0.47,0.11,0.93,0.24,1.39,0.36
					c0.46,0.12,0.94,0.18,1.4,0.31c0.46,0.12,1.07-0.28,1.53-0.15c0.46,0.13,0.96,0.14,1.42,0.27c0.46,0.14,0.87,0.47,1.32,0.61
					c0.46,0.14,0.63,1.18,1.09,1.33c0.46,0.15,0.95,0.16,1.4,0.31c0.45,0.15,1,0.03,1.45,0.19c0.45,0.16,1.09-0.2,1.54-0.04
					c0.45,0.16,0.6,1.15,1.05,1.32c0.45,0.17,1.08-0.17,1.53,0.01c0.45,0.17,0.92,0.29,1.36,0.46c0.45,0.18,0.69,0.86,1.13,1.04
					c0.44,0.18,1.05-0.04,1.49,0.15c0.44,0.19,0.67,0.86,1.11,1.05c0.44,0.19,1,0.1,1.44,0.29c0.44,0.19,1.16-0.24,1.6-0.05
					c0.44,0.2,0.83,0.51,1.26,0.71c0.43,0.2,0.96,0.23,1.39,0.44c0.43,0.21,0.79,0.58,1.22,0.79c0.43,0.21,0.39,1.35,0.82,1.57
					c0.43,0.22,1.33-0.5,1.75-0.28c0.42,0.22,0.5,1.1,0.93,1.33c0.42,0.22,1.04,0.09,1.46,0.32c0.42,0.23,0.84,0.47,1.26,0.7
					c0.42,0.23,0.93,0.3,1.35,0.54c0.42,0.23,0.45,1.14,0.86,1.38c0.41,0.24,0.8,0.51,1.22,0.75c0.41,0.24,1.31-0.34,1.72-0.1
					c0.41,0.24,0.78,0.56,1.19,0.81c0.41,0.25,0.46,1.08,0.87,1.33c0.41,0.25,1.06,0.11,1.47,0.36c0.41,0.25,0.9,0.38,1.3,0.63
					c0.4,0.26,0.7,0.68,1.1,0.94c0.4,0.26,0.61,0.81,1.01,1.07c0.4,0.26,0.79,0.54,1.19,0.8c0.4,0.27,1.16,0,1.55,0.27
					c0.4,0.27,0.5,0.96,0.9,1.23c0.39,0.27,0.86,0.44,1.25,0.72c0.39,0.27,1.04,0.18,1.44,0.46c0.39,0.28,0.68,0.7,1.07,0.98
					c0.39,0.28,0.48,0.97,0.87,1.25c0.39,0.28,1.03,0.21,1.42,0.49c0.39,0.28,1.01,0.24,1.4,0.53c0.38,0.28,0.65,0.74,1.03,1.03
					c0.38,0.29,0.39,1.08,0.77,1.36c0.38,0.29,1.16,0.06,1.54,0.35c0.38,0.29,0.49,0.93,0.87,1.22c0.38,0.29,0.5,0.91,0.88,1.21
					c0.38,0.29,1.16,0.07,1.54,0.37c0.38,0.3,0.73,0.63,1.1,0.93c0.37,0.3,0.95,0.35,1.32,0.65c0.37,0.3,0.3,1.16,0.67,1.46
					c0.37,0.3,1.18,0.07,1.55,0.37c0.37,0.3,0.39,1.04,0.76,1.34c0.37,0.3,0.6,0.77,0.97,1.08c0.37,0.31,1.01,0.28,1.38,0.58
					c0.37,0.31,0.42,0.98,0.79,1.29c0.37,0.31,0.96,0.34,1.33,0.65c0.37,0.31,0.38,1.03,0.75,1.34c0.36,0.31,1.29-0.04,1.65,0.28
					c0.36,0.31,0.65,0.71,1.02,1.02c0.36,0.31,0.61,0.76,0.97,1.07c0.36,0.31,0.84,0.49,1.2,0.8c0.36,0.31,0.87,0.46,1.23,0.77
					c0.36,0.32,0.09,1.35,0.45,1.67c0.36,0.32,0.89,0.44,1.25,0.75c0.36,0.32,1.24,0.04,1.6,0.36c0.36,0.32,0.49,0.9,0.84,1.22
					c0.36,0.32,0.98,0.34,1.34,0.66c0.36,0.32,0.63,0.73,0.99,1.05c0.36,0.32,0.15,1.27,0.51,1.59c0.36,0.32,1.19,0.12,1.54,0.44
					c0.36,0.32,0.34,1.06,0.69,1.38c0.36,0.32,0.93,0.39,1.29,0.72c0.36,0.32,0.8,0.54,1.15,0.87c0.36,0.32,0.33,1.07,0.68,1.39
					c0.36,0.32,0.93,0.4,1.29,0.72c0.35,0.32,0.78,0.57,1.13,0.89s0.59,0.77,0.95,1.09c0.35,0.32,0.9,0.43,1.26,0.75
					c0.35,0.32,0.87,0.46,1.23,0.78s0.49,0.89,0.84,1.22c0.31,0.34,0.52,0.79,0.85,1.15c0.31,0.34,0.81,0.53,1.14,0.88
					c0.31,0.34,0.04,1.23,0.37,1.59c0.32,0.34,1.22,0.16,1.54,0.51c0.32,0.35,0.66,0.67,0.98,1.03c0.31,0.35,0.52,0.8,0.83,1.16
					c0.31,0.35,0.18,1.09,0.48,1.45c0.31,0.36,0.71,0.63,1.01,1c0.3,0.37,0.46,0.83,0.75,1.2c0.29,0.37,0.69,0.65,0.97,1.03
					c0.28,0.38,0.87,0.54,1.14,0.92c0.27,0.39,0.45,0.84,0.7,1.24c0.26,0.4,0.62,0.74,0.85,1.14c0.24,0.42,0.87,0.63,1.08,1.05
					c0.21,0.43-0.36,1.22-0.18,1.65c0.19,0.44,0.63,0.77,0.77,1.21c0.15,0.46,0.22,0.92,0.32,1.37c0.1,0.47,0.22,0.92,0.26,1.38
					c0.02,0.43,0.76,0.71,0.9,1.12c0.21,0.63,0.02,1.77,0.24,1.73c0.17-0.03,0.3-0.86,0.3-1.73c0-0.36-0.51-0.76-0.56-1.31
					c-0.06-0.48-0.12-0.93-0.2-1.39c-0.08-0.48,0.03-0.97-0.07-1.43c-0.1-0.47,0.09-1.01-0.03-1.46c-0.12-0.46-0.72-0.78-0.86-1.23
					c-0.14-0.46-0.28-0.9-0.45-1.34c-0.16-0.45,0.03-1.03-0.15-1.47c-0.18-0.44-0.49-0.82-0.7-1.25c-0.2-0.43-0.05-1.05-0.27-1.47
					c-0.22-0.42-0.93-0.58-1.17-0.99c-0.24-0.41,0.09-1.17-0.17-1.57c-0.25-0.4-1.1-0.42-1.37-0.82c-0.27-0.39-0.83-0.56-1.11-0.95
					c-0.28-0.38-0.3-0.95-0.59-1.33c-0.29-0.38-0.57-0.75-0.87-1.12c-0.3-0.37-0.7-0.65-1-1.01c-0.31-0.36-0.19-1.09-0.5-1.45
					c-0.31-0.36-0.79-0.57-1.11-0.92c-0.32-0.35-0.79-0.56-1.12-0.91c-0.32-0.35-0.76-0.56-1.09-0.9c-0.36-0.31-0.66-0.67-1.02-0.99
					c-0.36-0.31-0.65-0.71-1.01-1.03c-0.36-0.31-0.53-0.85-0.89-1.17c-0.36-0.31-1.05-0.25-1.41-0.56
					c-0.36-0.31-0.11-1.34-0.47-1.65c-0.36-0.31-0.78-0.56-1.14-0.88c-0.36-0.31-1.13-0.16-1.5-0.47c-0.36-0.31-0.46-0.93-0.83-1.24
					c-0.36-0.31-1.1-0.19-1.46-0.51c-0.36-0.31-0.08-1.37-0.44-1.68c-0.36-0.31-1.34,0.08-1.7-0.24c-0.36-0.31-0.3-1.11-0.66-1.43
					c-0.36-0.31-1.12-0.17-1.48-0.49c-0.36-0.31-0.43-0.97-0.79-1.29c-0.36-0.31-0.78-0.56-1.15-0.87c-0.36-0.31-1.1-0.19-1.46-0.51
					c-0.36-0.31-0.31-1.11-0.68-1.42c-0.36-0.31-0.61-0.76-0.98-1.07c-0.36-0.31-0.85-0.48-1.22-0.79c-0.37-0.31-1.1-0.18-1.47-0.49
					c-0.37-0.31-0.51-0.89-0.87-1.2c-0.37-0.31-0.49-0.91-0.86-1.21c-0.37-0.31-1.15-0.12-1.52-0.43c-0.37-0.31-0.73-0.62-1.1-0.93
					c-0.37-0.31-0.67-0.7-1.04-1c-0.37-0.31-0.84-0.49-1.21-0.79c-0.37-0.3-0.17-1.31-0.54-1.61c-0.37-0.3-0.83-0.5-1.21-0.8
					c-0.37-0.3-1.29,0.06-1.66-0.24c-0.37-0.3-0.52-0.89-0.89-1.19c-0.38-0.3-0.9-0.41-1.27-0.71c-0.38-0.3-0.43-1-0.81-1.3
					c-0.38-0.3-1.08-0.18-1.46-0.48c-0.38-0.3-0.24-1.26-0.62-1.56c-0.38-0.29-0.7-0.67-1.08-0.96c-0.38-0.29-0.82-0.51-1.2-0.8
					c-0.38-0.29-1.32,0.16-1.71-0.13c-0.38-0.29-0.31-1.19-0.7-1.47c-0.39-0.29-0.83-0.5-1.21-0.79c-0.39-0.28-1.1-0.12-1.49-0.41
					c-0.39-0.28-0.34-1.17-0.73-1.45c-0.39-0.28-0.89-0.41-1.28-0.69c-0.39-0.28-0.91-0.38-1.3-0.65c-0.39-0.28-0.65-0.75-1.05-1.02
					c-0.39-0.27-1.06-0.15-1.46-0.42c-0.4-0.27-0.82-0.5-1.22-0.77c-0.4-0.27-0.39-1.15-0.79-1.42c-0.4-0.27-1.05-0.16-1.45-0.42
					c-0.4-0.26-0.99-0.23-1.4-0.49c-0.4-0.26-0.75-0.61-1.16-0.86c-0.41-0.26-0.62-0.82-1.03-1.08c-0.41-0.26-0.76-0.61-1.17-0.86
					c-0.41-0.25-1.15,0.04-1.56-0.2c-0.41-0.25-0.35-1.29-0.76-1.54c-0.41-0.25-1.26,0.24-1.67,0c-0.42-0.24-0.66-0.77-1.08-1.01
					c-0.42-0.24-0.58-0.92-1-1.16c-0.42-0.24-1.33,0.41-1.75,0.18c-0.42-0.23-0.55-0.99-0.98-1.22c-0.42-0.23-0.84-0.48-1.26-0.7
					c-0.43-0.22-0.9-0.36-1.32-0.58c-0.43-0.22-0.91-0.33-1.34-0.54c-0.43-0.22-1.01-0.13-1.44-0.34c-0.43-0.21-0.43-1.31-0.86-1.52
					c-0.43-0.21-1-0.15-1.43-0.35c-0.44-0.2-0.88-0.39-1.32-0.59c-0.44-0.2-1.01-0.1-1.45-0.29c-0.44-0.19-0.88-0.39-1.32-0.58
					c-0.44-0.19-0.99-0.12-1.43-0.3c-0.44-0.19-0.87-0.41-1.31-0.59c-0.45-0.18-0.61-1.08-1.05-1.25c-0.45-0.18-1.24,0.53-1.68,0.36
					c-0.45-0.17-0.7-0.85-1.16-1.02c-0.45-0.17-0.95-0.2-1.4-0.36c-0.45-0.16-0.95-0.19-1.4-0.35c-0.45-0.15-0.97-0.11-1.43-0.26
					c-0.46-0.15-0.92-0.26-1.38-0.41c-0.46-0.14-0.79-0.68-1.25-0.82c-0.46-0.14-0.79-0.74-1.25-0.87
					c-0.46-0.13-1.07,0.24-1.53,0.12c-0.46-0.13-0.81-0.7-1.27-0.82c-0.46-0.12-0.97-0.11-1.44-0.22c-0.47-0.11-0.91-0.32-1.38-0.43
					c-0.47-0.11-1.01,0.09-1.48-0.01c-0.47-0.1-0.84-0.69-1.31-0.79c-0.47-0.1-1.01,0.13-1.48,0.04c-0.47-0.09-0.96-0.09-1.44-0.17
					c-0.47-0.08-0.99,0.11-1.47,0.03c-0.47-0.08-1,0.16-1.48,0.09c-0.47-0.08-0.94-0.23-1.41-0.32c-0.47-0.08-0.98,0.02-1.45-0.06
					c-0.47-0.08-0.84-0.76-1.31-0.84c-0.47-0.08-0.9-0.42-1.37-0.5c-0.47-0.08-1,0.18-1.48,0.1c-0.47-0.08-0.92-0.29-1.4-0.37
					c-0.47-0.08-0.93-0.26-1.4-0.34c-0.47-0.08-1.03,0.34-1.5,0.26c-0.47-0.08-0.83-0.88-1.31-0.95c-0.47-0.07-0.97-0.04-1.44-0.11
					c-0.47-0.07-0.94-0.2-1.42-0.27c-0.47-0.07-1.02,0.3-1.49,0.23c-0.47-0.07-1.03,0.38-1.5,0.31c-0.47-0.07-0.81-1.08-1.29-1.15
					c-0.47-0.07-0.95-0.11-1.43-0.18c-0.48-0.07-0.96-0.05-1.44-0.12c-0.48-0.06-1.06,0.68-1.54,0.62c-0.48-0.06-0.9-0.53-1.37-0.59
					c-0.48-0.06-1,0.23-1.47,0.17c-0.48-0.06-0.9-0.51-1.38-0.57c-0.48-0.06-0.93-0.31-1.41-0.37c-0.48-0.06-0.93-0.3-1.41-0.35
					c-0.48-0.05-1.02,0.5-1.5,0.45c-0.48-0.05-0.92-0.45-1.39-0.5c-0.48-0.05-0.99,0.22-1.46,0.17c-0.48-0.05-0.93-0.38-1.41-0.43
					c-0.48-0.04-0.98,0.2-1.46,0.15c-0.48-0.04-0.94-0.31-1.42-0.35c-0.48-0.04-0.94-0.33-1.42-0.36c-0.48-0.04-0.98,0.16-1.45,0.13
					c-0.48-0.03-0.94-0.32-1.42-0.35c-0.48-0.03-0.98,0.23-1.46,0.2c-0.48-0.03-0.93-0.62-1.41-0.64c-0.48-0.03-0.96-0.06-1.44-0.08
					c-0.48-0.02-0.98,0.43-1.46,0.41c-0.48-0.02-0.97,0.33-1.45,0.31c-0.48-0.02-0.96-0.03-1.44-0.05
					c-0.48-0.01-0.95-0.16-1.43-0.18c-0.48-0.01-0.95-0.62-1.43-0.63c-0.48-0.01-0.97,0.38-1.45,0.38
					c-0.48-0.01-0.96-0.35-1.44-0.35c-0.48,0-0.96,0.03-1.44,0.03c-0.48,0-0.95,0.74-1.43,0.74c-0.48,0.01-0.97-0.92-1.45-0.91
					c-0.48,0.01-0.96,0.34-1.43,0.36c-0.48,0.01-0.97-0.19-1.45-0.18c-0.48,0.02-0.94,0.6-1.42,0.62c-0.48,0.02-0.99-0.66-1.47-0.63
					c-0.48,0.02-0.94,0.4-1.42,0.43c-0.48,0.03-0.93,0.47-1.41,0.51c-0.48,0.03-0.97-0.18-1.45-0.14c-0.48,0.04-0.95,0.1-1.43,0.14
					c-0.48,0.04-0.98-0.21-1.46-0.16c-0.48,0.05-0.87,0.9-1.35,0.95c-0.48,0.05-1.05-0.75-1.52-0.7c-0.48,0.05-0.93,0.3-1.41,0.36
					c-0.48,0.06-0.95,0.16-1.42,0.23c-0.48,0.06-1.03-0.42-1.51-0.35c-0.48,0.07-0.88,0.64-1.35,0.72
					c-0.47,0.07-0.86,0.71-1.33,0.78c-0.47,0.08-0.99-0.12-1.46-0.04c-0.47,0.08-0.96,0.06-1.44,0.15c-0.47,0.09-1.03-0.25-1.5-0.16
					c-0.47,0.09-0.89,0.43-1.36,0.53c-0.47,0.1-0.8,0.83-1.27,0.94c-0.47,0.1-1.15-0.73-1.62-0.62c-0.47,0.11-0.89,0.41-1.36,0.53
					c-0.47,0.12-0.78,0.81-1.25,0.93c-0.46,0.12-0.96,0.12-1.42,0.25c-0.46,0.13-1.1-0.35-1.56-0.22c-0.46,0.13-0.69,1.06-1.15,1.2
					c-0.46,0.14-1,0.01-1.45,0.16c-0.46,0.14-0.88,0.4-1.33,0.55c-0.46,0.15-0.87,0.41-1.32,0.57c-0.45,0.16-1.14-0.34-1.59-0.18
					c-0.45,0.16-0.78,0.68-1.23,0.84c-0.45,0.17-0.98,0.13-1.43,0.3c-0.45,0.17-1.02,0.03-1.47,0.21c-0.44,0.18-0.79,0.62-1.23,0.8
					c-0.44,0.18-0.64,0.95-1.08,1.14c-0.44,0.19-1.22-0.38-1.66-0.18c-0.44,0.2-0.89,0.38-1.32,0.58c-0.43,0.2-0.77,0.62-1.21,0.83
					c-0.43,0.21-0.81,0.52-1.24,0.74c-0.43,0.21-0.57,0.99-1,1.21c-0.43,0.22-0.88,0.38-1.3,0.6c-0.42,0.23-1.17-0.15-1.59,0.08
					c-0.42,0.23-0.9,0.36-1.32,0.6c-0.42,0.24-0.83,0.48-1.25,0.73c-0.41,0.24-0.83,0.49-1.24,0.74c-0.41,0.25-0.65,0.78-1.06,1.03
					c-0.41,0.25-0.72,0.66-1.12,0.92c-0.4,0.26-0.82,0.5-1.22,0.76c-0.4,0.27-1.15,0.01-1.55,0.28c-0.4,0.27-0.21,1.38-0.6,1.66
					c-0.39,0.28-1.34-0.23-1.73,0.05c-0.39,0.27-0.3,1.21-0.69,1.49c-0.39,0.27-1.24-0.11-1.63,0.17c-0.39,0.27-0.6,0.8-0.99,1.07
					c-0.39,0.27-0.39,1.1-0.78,1.37c-0.39,0.27-1.14,0.03-1.53,0.31c-0.39,0.27-0.58,0.83-0.97,1.11c-0.39,0.28-0.84,0.46-1.23,0.74
					c-0.39,0.28-0.84,0.46-1.23,0.74c-0.39,0.28-1.12,0.08-1.5,0.36c-0.39,0.28-0.28,1.24-0.66,1.52c-0.39,0.28-0.86,0.44-1.25,0.72
					c-0.38,0.28-0.5,0.93-0.88,1.22c-0.38,0.28-1.25-0.08-1.63,0.2c-0.38,0.29-0.86,0.46-1.24,0.74c-0.38,0.29-0.52,0.89-0.9,1.18
					c-0.38,0.29-1.09,0.16-1.47,0.45c-0.38,0.29-0.77,0.57-1.14,0.87c-0.37,0.3-0.1,1.41-0.47,1.71c-0.37,0.3-0.88,0.43-1.25,0.73
					c-0.37,0.3-0.49,0.9-0.86,1.21c-0.37,0.31-1.5-0.29-1.86,0.02c-0.36,0.31-0.74,0.61-1.1,0.93c-0.36,0.31-0.41,0.99-0.77,1.31
					c-0.36,0.32-0.47,0.91-0.82,1.23c-0.35,0.32-1.03,0.29-1.38,0.61c-0.35,0.32-0.55,0.81-0.9,1.14c-0.35,0.33-0.6,0.76-0.94,1.09
					c-0.34,0.33-0.78,0.57-1.11,0.91c-0.34,0.34-0.6,0.75-0.94,1.09c-0.33,0.34-1.07,0.3-1.4,0.65c-0.33,0.35-0.39,0.95-0.71,1.3
					c-0.32,0.35-0.92,0.46-1.24,0.82c-0.32,0.36-0.06,1.22-0.37,1.58c-0.31,0.36-1.24,0.2-1.55,0.57c-0.31,0.37-0.64,0.72-0.94,1.1
					c-0.3,0.37-0.49,0.84-0.78,1.22c-0.29,0.38-0.43,0.88-0.71,1.26c-0.29,0.38-0.33,0.95-0.6,1.33c-0.28,0.39-0.9,0.54-1.17,0.93
					c-0.27,0.39-0.29,0.96-0.55,1.36c-0.26,0.4-0.65,0.72-0.9,1.12c-0.25,0.4,0.1,1.18-0.15,1.59c-0.25,0.41-1.35,0.31-1.59,0.73
					c-0.24,0.41,0.22,1.22,0,1.64c-0.23,0.42-0.53,0.79-0.75,1.22c-0.22,0.42-0.88,0.63-1.09,1.06c-0.21,0.43,0.28,1.18,0.08,1.62
					c-0.2,0.43-1.3,0.47-1.49,0.91c-0.19,0.44,0.04,1.06-0.14,1.5c-0.18,0.44,0.26,1.12,0.1,1.57c-0.17,0.45-0.4,0.86-0.56,1.31
					c-0.15,0.45-0.92,0.7-1.07,1.15c-0.14,0.45-0.08,0.98-0.21,1.44c-0.16,0.36,0.2,0.99,0.02,1.52c-0.14,0.41-0.86,0.68-1,1.18
					c-0.12,0.43-0.18,0.91-0.3,1.4c-0.11,0.45-0.03,0.95-0.14,1.43c-0.1,0.45-0.73,0.82-0.82,1.3c-0.09,0.46,0.04,0.98-0.04,1.45
					c-0.08,0.47-0.05,0.96-0.12,1.44c-0.07,0.47-0.58,0.89-0.63,1.37c-0.06,0.48,0,0.97-0.04,1.45c-0.05,0.48-0.24,0.96-0.28,1.43
					c-0.03,0.48,0.53,1,0.51,1.47c-0.02,0.49-0.13,0.96-0.12,1.43c0,0.49,0.59,0.94,0.62,1.41c0.03,0.49-0.54,1.01-0.49,1.47
					c0.06,0.5,0.32,0.94,0.41,1.38c0.1,0.5,0.43,0.87,0.58,1.29c0.17,0.49,0.05,1.03,0.28,1.4c0.27,0.44,0.71,0.59,1.08,0.85
					c0.39,0.27,0.65,0.77,1.16,0.82c0.43,0.04,0.96,0.1,1.48-0.04c0.41-0.11,0.95-0.19,1.43-0.43c0.39-0.2,0.48-0.99,0.92-1.28
					C13.14,114.56,13.79,114.44,14.2,114.12z"/>
			</g>
			<g>
				<path d="M336.55,181.12c-0.13-0.46,0.42-1.03,0.27-1.48c-0.15-0.45-0.66-0.78-0.84-1.22c-0.17-0.44-0.52-0.81-0.71-1.24
					c-0.19-0.43,0.09-1.09-0.12-1.52c-0.21-0.43-0.26-0.95-0.48-1.37c-0.22-0.42-0.85-0.62-1.09-1.04
					c-0.23-0.41-0.48-0.82-0.73-1.23c-0.24-0.41-0.62-0.73-0.88-1.13c-0.25-0.4-0.24-0.97-0.5-1.37c-0.26-0.4-0.67-0.7-0.93-1.09
					c-0.26-0.4-0.18-1.02-0.44-1.42c-0.26-0.4-0.59-0.75-0.85-1.15c-0.26-0.4-0.92-0.53-1.18-0.93c-0.26-0.4-0.27-0.96-0.53-1.36
					c-0.26-0.4-0.6-0.74-0.85-1.15c-0.25-0.4-0.25-0.96-0.5-1.36c-0.24-0.41-0.36-0.88-0.6-1.29c-0.23-0.41-0.93-0.57-1.15-0.99
					c-0.22-0.42-0.21-0.96-0.42-1.38c-0.21-0.43-0.98-0.6-1.17-1.04c-0.19-0.44,0.05-1.06-0.12-1.5c-0.17-0.44-0.16-0.95-0.31-1.4
					c-0.15-0.45-0.73-0.78-0.86-1.24c-0.12-0.46,0.38-1.06,0.28-1.53c-0.09-0.46-0.8-0.82-0.87-1.29c-0.07-0.47-0.29-0.95-0.33-1.42
					c-0.03-0.47,0.33-1.01,0.33-1.5c0.37-0.33,0.6-0.83,0.95-1.15c0.37-0.33,0.99-0.36,1.33-0.68c0.36-0.34,0.4-0.99,0.73-1.32
					c0.35-0.35,0.89-0.5,1.2-0.83c0.34-0.37,0.45-0.9,0.75-1.25c0.33-0.38,0.84-0.57,1.11-0.94c0.3-0.41,0.54-0.82,0.77-1.21
					c0.27-0.43,0.48-0.85,0.66-1.26c0.2-0.47,0.41-0.89,0.5-1.34c0.09-0.49-0.09-0.94-0.14-1.4c-0.05-0.47-0.11-0.88-0.3-1.34
					c-0.18-0.41-0.58-0.65-0.88-1.06c-0.27-0.36-0.18-1.04-0.55-1.4c-0.32-0.31-0.56-0.8-0.97-1.11c-0.36-0.28-0.81-0.5-1.23-0.78
					c-0.38-0.25-0.88-0.37-1.31-0.63c-0.39-0.23-0.85-0.41-1.28-0.65c-0.4-0.22-0.88-0.34-1.32-0.56c-0.41-0.21-0.69-0.75-1.14-0.96
					c-0.42-0.2-1.3,0.19-1.75-0.01c-0.14-0.39,0.48-1.17,0.51-1.72c0.02-0.43,0.06-0.86,0.17-1.38c0.09-0.44-0.06-0.96,0.09-1.45
					c0.13-0.44,0.58-0.8,0.74-1.27c0.15-0.44-0.22-1.08-0.05-1.55c0.16-0.44,0.54-0.82,0.71-1.28c0.17-0.45,0.59-0.8,0.77-1.25
					c0.17-0.45,0.48-0.85,0.65-1.3c0.18-0.45-0.02-1.05,0.15-1.49c0.17-0.46-0.08-1.06,0.07-1.51c0.17-0.47,0.94-0.72,1.09-1.17
					c0.15-0.48-0.37-1.13-0.25-1.57c0.13-0.49,1.11-0.78,1.18-1.23c0.09-0.52-0.74-1.07-0.75-1.51c-0.01-0.55,0.09-0.92-0.1-1.31
					c-0.21-0.43-0.41-0.67-0.9-0.85c-0.38-0.14-0.79-0.49-1.37-0.45c-0.42,0.03-0.9,0.13-1.43,0.26c-0.42,0.1-0.73,0.71-1.23,0.89
					c-0.42,0.15-1.11-0.31-1.59-0.11c-0.42,0.17-0.9,0.44-1.37,0.65c-0.85,0.83-0.65,1.15-0.15,1.04c0.33-0.07,0.99,0.09,1.55-0.17
					c0.45-0.2,0.83-0.66,1.26-0.88c0.62-0.31,1.1-0.56,1.3-0.65c0.53,0.12,0.91,0.27,1.25,0.53c0.39,0.3,0.41,0.74,0.59,1.19
					c0.16,0.41,0.54,0.76,0.56,1.28c0.01,0.44,0.24,0.96,0.16,1.46c-0.07,0.45-0.24,0.92-0.37,1.4c-0.12,0.45-0.11,0.96-0.26,1.43
					c-0.15,0.45-0.48,0.85-0.65,1.3c-0.17,0.44-0.51,0.82-0.69,1.27c-0.18,0.44-0.08,1.01-0.27,1.44c-0.2,0.45-1.07,0.58-1.26,1
					c-0.2,0.45,0.34,1.22,0.16,1.63c-0.21,0.47-0.39,0.9-0.55,1.3c-0.21,0.5-0.52,0.91-0.64,1.29c-0.31,0.43-0.47,0.86-0.64,1.24
					c-0.22,0.49-0.18,0.85-0.21,1.27c-0.03,0.5-0.66,1.05-0.48,1.48c0.18,0.42,0.41,0.98,0.75,1.35c0.3,0.33,0.88,0.48,1.28,0.78
					c0.36,0.27,0.89,0.35,1.31,0.61c0.39,0.24,0.82,0.45,1.24,0.69c0.41,0.23,0.62,0.82,1.04,1.05c0.42,0.23,1.1-0.01,1.51,0.23
					c0.42,0.24,0.57,0.9,0.95,1.16c0.41,0.27,1.12,0.1,1.48,0.39c0.38,0.31,0.47,0.93,0.77,1.27c0.32,0.37,1.03,0.54,1.22,0.96
					c0.19,0.43-0.37,1.07-0.35,1.56c0.02,0.44,0.16,0.86,0.03,1.36c-0.11,0.42-0.51,0.71-0.75,1.17c-0.2,0.38-0.1,0.97-0.39,1.4
					c-0.25,0.36-0.23,1-0.56,1.39c-0.29,0.34-0.7,0.69-1.05,1.05c-0.41,0.29-1.31-0.03-1.67,0.26c-0.39,0.32-0.55,0.89-0.88,1.22
					c-0.35,0.36-0.43,0.93-0.71,1.29c-0.3,0.4-1.11,0.47-1.33,0.88c-0.24,0.43-0.07,1.08-0.23,1.52c-0.16,0.46,0.05,0.99-0.02,1.46
					c-0.08,0.47,0.01,0.91,0.01,1.39c0,0.48-0.39,0.95-0.32,1.44c0.07,0.47,0.02,0.97,0.15,1.45c0.12,0.46,0.22,0.94,0.38,1.41
					c0.16,0.44,0.09,1.02,0.29,1.46c0.19,0.43,1.03,0.57,1.25,1.01c0.21,0.42,0.53,0.79,0.77,1.21c0.23,0.41,0.38,0.87,0.64,1.29
					c0.25,0.41,0.41,0.87,0.68,1.27c0.26,0.4,0.76,0.64,1.03,1.04c0.27,0.4-0.05,1.19,0.22,1.59c0.27,0.39,0.73,0.67,1,1.06
					c0.27,0.39,0.27,0.99,0.54,1.38c0.28,0.39,0.76,0.64,1.04,1.04c0.28,0.39,0.32,0.95,0.59,1.35c0.28,0.4,1.08,0.43,1.35,0.83
					c0.27,0.4,0.09,1.1,0.35,1.5c0.27,0.41,0.79,0.64,1.04,1.04c0.26,0.41,0.64,0.75,0.88,1.16c0.25,0.42,0.18,1.01,0.41,1.43
					c0.23,0.43,0.8,0.68,1.01,1.11c0.21,0.44,0.14,1,0.33,1.44c0.19,0.45,0.82,0.73,0.98,1.18c0.16,0.46-0.23,1.09-0.12,1.55
					c0.12,0.47,0.67,0.85,0.74,1.32c0.07,0.48-0.55,1.01-0.53,1.49c0.02,0.48,0.22,0.93,0.17,1.41c-0.05,0.48-0.24,0.89-0.36,1.36
					c-0.12,0.46,0.46,1.16,0.27,1.62c-0.18,0.43-0.66,0.78-0.91,1.21c-0.23,0.4-0.84,0.58-1.14,0.97c-0.28,0.37-0.51,0.79-0.85,1.15
					c-0.32,0.38-0.59,0.79-0.92,1.14c-0.33,0.36-0.6,0.78-0.93,1.13c-0.34,0.35-0.69,0.7-1.04,1.03c-0.36,0.34-0.7,0.68-1.07,1
					c-0.37,0.32-0.78,0.6-1.15,0.9c-0.38,0.31-0.48,0.99-0.87,1.28c-0.39,0.29-1.18,0.03-1.58,0.3c-0.4,0.27-0.8,0.54-1.22,0.79
					c-0.42,0.25-0.82,0.51-1.25,0.75c-0.43,0.23-0.79,0.58-1.23,0.8c-0.43,0.21-0.72,0.77-1.17,0.97c-0.44,0.19-0.87,0.49-1.32,0.67
					c-0.45,0.18-1.01,0.09-1.48,0.26c-0.46,0.16-1.02,0-1.49,0.15c-0.46,0.14-0.95,0.18-1.43,0.31c-0.46,0.13-0.93,0.24-1.41,0.36
					c-0.47,0.11-0.88,0.49-1.37,0.59c-0.48-0.01-0.97,0.04-1.46,0c-0.48-0.04-0.95-0.22-1.43-0.29c-0.48-0.06-1,0.12-1.48,0.04
					c-0.47-0.08-0.91-0.42-1.38-0.52c-0.47-0.1-0.85-0.55-1.33-0.67c-0.47-0.12-0.95-0.15-1.42-0.29c-0.46-0.14-1.02,0.02-1.48-0.14
					c-0.46-0.16-0.76-0.73-1.21-0.91c-0.45-0.17-0.87-0.38-1.32-0.57c-0.45-0.19-1.18,0.28-1.62,0.08c-0.44-0.2-0.6-1-1.03-1.22
					c-0.43-0.22-1.21,0.23-1.64,0c-0.43-0.23-0.77-0.63-1.19-0.87c-0.42-0.24-0.63-0.84-1.04-1.09c-0.41-0.26-0.89-0.4-1.3-0.67
					c-0.4-0.27-0.98-0.29-1.38-0.57c-0.4-0.28-0.83-0.53-1.21-0.83c-0.39-0.3-0.55-0.88-0.92-1.19c-0.38-0.31-0.62-0.76-0.99-1.08
					c-0.36-0.32-1.17-0.18-1.51-0.51c-0.35-0.34-0.64-0.75-0.98-1.1c-0.34-0.35-0.33-1.03-0.65-1.39c-0.32-0.37-0.76-0.63-1.06-1.01
					c-0.31-0.38-0.48-0.86-0.76-1.25c-0.29-0.4-0.62-0.75-0.88-1.16c-0.26-0.41-0.93-0.59-1.17-1.01c-0.24-0.43-0.29-0.97-0.5-1.4
					c-0.21-0.44-0.15-1.01-0.32-1.45c-0.18-0.45-0.36-0.9-0.5-1.37c-0.14-0.47-0.37-0.91-0.47-1.39c-0.1-0.48-0.37-0.94-0.43-1.42
					c-0.06-0.48-0.06-0.99-0.08-1.48c-0.01-0.48,0.12-0.98,0.15-1.47c0.03-0.48-0.08-1,0-1.49c0.08-0.47,0.4-0.92,0.52-1.39
					c0.12-0.46,0.69-0.78,0.86-1.24c0.17-0.45,0.26-0.9,0.47-1.35c0.2-0.43,0.16-0.99,0.41-1.42c0.24-0.41,0.58-0.77,0.86-1.18
					c0.27-0.39,0.52-0.8,0.83-1.19c0.29-0.37,0.82-0.55,1.15-0.92c0.32-0.35,0.18-0.93,0.53-1.28c-0.29-0.51-0.43-1.05-0.88-1.07
					c-0.41-0.02-0.72,0.74-1.21,1.02c-0.37,0.21-0.79,0.37-1.18,0.71c-0.34,0.3-0.61,0.68-0.95,1.05c-0.32,0.34-0.5,0.79-0.81,1.17
					c-0.3,0.38-0.59,0.73-0.87,1.12c-0.29,0.4-0.61,0.74-0.85,1.13c-0.27,0.44-0.6,0.79-0.8,1.17c-0.27,0.53-0.64,0.71-0.72,1.05
					c-0.31-0.43-0.84-0.49-1.14-0.84c-0.34-0.41-0.26-1.15-0.58-1.48c-0.38-0.38-0.91-0.55-1.27-0.83c-0.43-0.33-0.85-0.6-1.25-0.82
					c-0.47-0.25-0.93-0.45-1.37-0.59c-0.49-0.16-1.02,0-1.49-0.09c-0.48-0.09-0.98-0.09-1.47-0.19c-0.46-0.1-0.96-0.25-1.45-0.43
					c-0.43-0.16-1-0.23-1.46-0.5c-0.39-0.23-0.27-1.23-0.69-1.58c-0.35-0.29-1.14-0.13-1.51-0.52c-0.32-0.33-0.58-0.77-0.91-1.17
					c-0.29-0.35-0.37-0.91-0.68-1.33c-0.27-0.37-1.05-0.44-1.34-0.87c-0.26-0.39-0.55-0.8-0.82-1.24c-0.25-0.4,0.04-1.15-0.22-1.6
					c-0.24-0.41-0.87-0.62-1.11-1.07c-0.23-0.42-0.4-0.82-0.64-1.27c-0.4-0.17-0.79-0.75-1.25-0.63c-0.4,0.1-0.64,0.84-1.05,1.06
					c-0.4,0.21-0.85,0.32-1.22,0.54c-0.43,0.25-0.79,0.6-1.14,0.73c-0.52,0.15-1.03,0.11-1.44,0.06c-0.5-0.06-0.84-0.38-1.2-0.67
					c-0.34-0.28-0.83-0.5-1.06-0.94c-0.21-0.38-0.4-0.84-0.55-1.32c-0.13-0.43-0.4-0.87-0.5-1.34c-0.09-0.45,0.14-0.98,0.07-1.44
					c-0.07-0.46-0.58-0.87-0.65-1.33c-0.06-0.47,0.78-1.07,0.71-1.52c-0.07-0.49-0.49-0.91-0.57-1.34c-0.1-0.51-0.49-0.71-0.63-1.08
					c-0.5-0.01-0.75,0.15-1.21,0.28c-0.46,0.13-1.14-0.26-1.57-0.02c-0.41,0.23-0.65,0.79-1.04,1.1c-0.37,0.29-0.74,0.61-1.1,0.95
					c-0.34,0.33-1,0.39-1.34,0.75c-0.33,0.35-0.06,1.26-0.38,1.62c-0.32,0.37-1.31,0.15-1.63,0.52c-0.32,0.37-0.44,0.91-0.77,1.27
					c-0.33,0.36-0.56,0.81-0.91,1.15c-0.36,0.35-0.53,0.9-0.9,1.2c-0.39,0.31-1.13,0.07-1.54,0.3c-0.43,0.25-0.6,0.88-1.05,1.02
					c-0.19,0.44-0.22,0.9-0.42,1.33c-0.19,0.44-0.25,0.94-0.44,1.38c-0.19,0.44-0.7,0.74-0.89,1.18c-0.19,0.44-0.37,0.88-0.55,1.33
					c-0.18,0.45-0.71,0.76-0.88,1.2c-0.17,0.45-0.32,0.92-0.48,1.37c-0.16,0.46,0.24,1.09,0.1,1.55c-0.14,0.46-0.31,0.9-0.43,1.36
					c-0.12,0.47-0.94,0.77-1.04,1.24c-0.1,0.47,0.57,1.08,0.5,1.56c-0.07,0.48-0.76,0.88-0.8,1.36c-0.04,0.48,0.07,0.98,0.07,1.46
					c0,0.48,0.67,0.92,0.7,1.4c0.04,0.47-0.62,1.03-0.54,1.5c0.08,0.47,0.31,0.93,0.43,1.4c0.12,0.46,0.28,0.92,0.44,1.38
					c0.15,0.44,0.01,1.04,0.21,1.48c0.19,0.43,0.94,0.61,1.17,1.04c0.22,0.41,0.46,0.83,0.72,1.24c0.23,0.48,0.06,1.24,0.38,1.59
					c0.34,0.38,1.22,0.12,1.64,0.38c0.42,0.26,0.78,0.5,1.25,0.67c0.46,0.17,0.92,0.2,1.42,0.31c0.48,0.11,0.87,0.65,1.37,0.73
					c0.49,0.08,0.97,0.25,1.46,0.33c0.49,0.07,0.93,0.4,1.42,0.5c0.49,0.09,1.12-0.43,1.59-0.3c0.48,0.13,1.06,0.14,1.51,0.34
					c0.46,0.2,0.91,0.54,1.32,0.83c0.4,0.28,0.28,1.13,0.62,1.52c0.31,0.36,0.64,0.64,0.9,1.1c0.24,0.4,0.91,0.6,1.22,1.04
					c0.29,0.41,0.83,0.66,1.12,1.08c0.3,0.43-0.11,1.31,0.13,1.73c0.29,0.49,1.04,0.7,1.17,1.12c0.18,0.58-0.07,1.11-0.4,1.46
					c-0.26,0.28-0.63,0.8-1.32,0.88c-0.41,0.05-0.94-0.01-1.54-0.05c-0.45,0.1-0.85,0.36-1.33,0.47c-0.46,0.1-1.09-0.52-1.57-0.42
					c-0.46,0.1-0.79,0.89-1.26,0.99c-0.47,0.1-0.93,0.28-1.4,0.37c-0.47,0.09-0.98,0.01-1.46,0.09c-0.47,0.08-0.99-0.11-1.47-0.04
					c-0.48,0.07-1.01-0.37-1.48-0.32c-0.48,0.05-0.92,0.5-1.39,0.53c-0.48,0.03-0.96-0.1-1.44-0.09c-0.49,0.01-0.97,0.54-1.45,0.52
					c-0.49-0.02-0.95-0.38-1.43-0.43c-0.48-0.05-0.93-0.27-1.4-0.35c-0.48-0.09-0.96-0.1-1.42-0.23c-0.47-0.14-1.05,0.02-1.48-0.16
					c-0.45-0.19-0.58-0.98-1-1.22c-0.41-0.24-0.93-0.27-1.31-0.58c-0.37-0.3-0.76-0.57-1.09-0.93c-0.32-0.34-0.45-0.83-0.73-1.23
					c-0.27-0.38-0.35-0.84-0.58-1.28c-0.21-0.41-1.02-0.53-1.2-1c-0.26-0.38-0.22-0.94-0.47-1.37c-0.24-0.4-0.49-0.8-0.72-1.24
					c-0.22-0.41-0.6-0.76-0.81-1.21c-0.2-0.42-0.52-0.81-0.72-1.26c-0.19-0.43,0.05-1.06-0.14-1.51c-0.18-0.43-0.27-0.91-0.45-1.37
					c-0.18-0.44-0.87-0.68-1.04-1.14c-0.17-0.44-0.4-0.87-0.57-1.33c-0.17-0.44-0.34-0.89-0.51-1.35c-0.16-0.45,0.24-1.1,0.08-1.56
					c-0.16-0.45-0.84-0.72-1-1.18c-0.16-0.45,0.39-1.15,0.24-1.6c-0.15-0.45-0.57-0.82-0.72-1.27c-0.15-0.45-0.79-0.74-0.94-1.2
					c-0.15-0.45,0.23-1.08,0.08-1.54c-0.15-0.45-0.53-0.83-0.68-1.29c-0.15-0.46-0.07-0.99-0.22-1.44
					c-0.15-0.46-0.19-0.95-0.34-1.41c-0.15-0.46-0.77-0.76-0.92-1.21c-0.15-0.46,0.3-1.11,0.15-1.57c-0.15-0.46-0.64-0.8-0.8-1.26
					c-0.16-0.46-0.67-0.79-0.82-1.24c-0.16-0.46-0.41-0.88-0.57-1.33c-0.16-0.46,0.01-1.03-0.15-1.48
					c-0.16-0.46-0.66-0.79-0.82-1.23c-0.17-0.45-0.4-0.88-0.57-1.32c-0.17-0.45,0.06-1.06-0.12-1.5c-0.18-0.45-0.66-0.77-0.84-1.21
					c-0.19-0.45,0.28-1.17,0.09-1.6c-0.19-0.45-0.34-0.92-0.54-1.35c-0.2-0.45-0.87-0.67-1.07-1.09c-0.22-0.44-0.09-1.05-0.31-1.46
					c-0.23-0.44-0.44-0.89-0.68-1.29c-0.25-0.43-0.54-0.83-0.8-1.22c-0.28-0.42-0.63-0.78-0.91-1.15c-0.31-0.4-0.76-0.66-1.08-0.99
					c-0.35-0.37-0.9-0.46-1.25-0.73c-0.4-0.31-0.6-0.64-1.02-0.82c0.12,0.41,0.08,0.84,0.29,1.35c0.17,0.42,0.73,0.72,0.94,1.2
					c0.2,0.43,0.55,0.81,0.77,1.27c0.2,0.44,0.04,1.06,0.25,1.51c0.21,0.45,0.77,0.74,0.97,1.19c0.2,0.46-0.24,1.18-0.06,1.63
					c0.19,0.47,0.93,0.72,1.08,1.18c0.16,0.49,0.27,1.27,0.38,1.73c-0.48,0-1.22-0.3-1.7-0.3c-0.48,0-0.96,0.43-1.44,0.43
					c-0.48,0.01-0.96-0.16-1.44-0.15c-0.48,0.01-0.97-0.2-1.45-0.19c-0.48,0.01-0.96,0.13-1.44,0.14c-0.48,0.01-0.97-0.39-1.46-0.37
					c-0.48,0.02-0.95,0.29-1.43,0.31c-0.48,0.02-0.94,0.56-1.42,0.58c-0.48,0.02-0.96-0.01-1.44,0.01c-0.48,0.02-0.97-0.1-1.45-0.07
					c-0.48,0.02-0.97-0.08-1.45-0.06c-0.48,0.02-0.95,0.2-1.43,0.23c-0.48,0.03-0.97-0.07-1.45-0.04c-0.48,0.03-0.96,0.03-1.44,0.06
					c-0.48,0.03-0.96,0.08-1.44,0.1c-0.48,0.03-0.96,0.03-1.44,0.06c-0.48,0.03-0.99-0.37-1.47-0.34c-0.48,0.03-0.91,0.86-1.39,0.89
					c-0.48,0.03-1.02-0.84-1.5-0.8c-0.48,0.03-0.94,0.36-1.42,0.39c-0.48,0.03-0.96,0.09-1.44,0.12c-0.48,0.03-0.93,0.5-1.41,0.53
					c-0.48,0.03-0.97-0.16-1.45-0.13c-0.48,0.03-0.99-0.48-1.47-0.45c-0.48,0.03-0.91,0.85-1.39,0.88
					c-0.48,0.03-0.99-0.46-1.47-0.43c-0.48,0.03-0.97-0.08-1.45-0.05c-0.48,0.03-0.96-0.02-1.44,0.01
					c-0.48,0.03-0.94,0.47-1.42,0.49c-0.48,0.03-0.94,0.42-1.42,0.45c-0.48,0.02-0.99-0.64-1.48-0.62
					c-0.48,0.02-0.94,0.59-1.42,0.61c-0.48,0.02-0.97-0.05-1.45-0.03c-0.48,0.02-0.97-0.29-1.45-0.27
					c-0.48,0.02-0.96,0.15-1.44,0.16c-0.48,0.02-0.95,0.43-1.43,0.45c-0.48,0.01-0.97-0.08-1.45-0.06
					c-0.48,0.01-0.97-0.34-1.45-0.33c-0.48,0.01-0.96,0.42-1.44,0.42c-0.48,0.01-0.96-0.05-1.45-0.05c-0.48,0-0.96-0.48-1.44-0.48
					c-0.48,0-0.96,0.23-1.44,0.23c-0.48,0-0.96,0.02-1.44,0.01c-0.48-0.01-0.96,0.12-1.45,0.11c-0.48-0.01-0.96,0.04-1.45,0.02
					c-0.48-0.01-0.96-0.13-1.44-0.15c-0.48-0.02-0.97,0.07-1.45,0.05c-0.48-0.02-0.95-0.29-1.43-0.31c-0.48-0.02-0.95-0.27-1.43-0.3
					c-0.48-0.03-0.96-0.07-1.44-0.1c-0.48-0.03-1.01,0.58-1.49,0.54c-0.48-0.04-0.95-0.23-1.43-0.27c-0.48-0.04-0.95-0.18-1.43-0.23
					c-0.48-0.05-0.95-0.19-1.43-0.24c-0.48-0.05-1.01,0.31-1.48,0.25c-0.48-0.06-0.88-0.73-1.36-0.8c-0.48-0.06-1.01,0.32-1.49,0.25
					c-0.48-0.07-0.86-0.74-1.34-0.81c-0.48-0.07-0.98,0.04-1.45-0.04c-0.47-0.08-0.93-0.28-1.4-0.37c-0.47-0.08-1.04,0.36-1.52,0.27
					c-0.47-0.09-0.9-0.43-1.37-0.52c-0.47-0.1-0.86-0.57-1.33-0.67c-0.47-0.1-0.93-0.21-1.4-0.31c-0.47-0.11-1.06,0.31-1.53,0.19
					c-0.47-0.11-0.89-0.42-1.35-0.54c-0.46-0.12-0.96-0.12-1.43-0.24c-0.46-0.13-0.87-0.46-1.33-0.6c-0.46-0.13-1.09-0.28-1.55-0.42
					c0.44,0.19,0.93,0.69,1.37,0.87c0.44,0.18,0.93,0.27,1.38,0.44c0.45,0.17,1,0.07,1.45,0.24c0.45,0.16,0.73,0.83,1.18,0.98
					c0.45,0.15,1.04-0.08,1.5,0.07c0.46,0.15,0.82,0.59,1.28,0.73c0.46,0.14,1.02-0.08,1.49,0.06c0.46,0.13,0.97,0.06,1.44,0.19
					c0.46,0.12,0.85,0.55,1.31,0.67c0.46,0.12,0.85,0.57,1.32,0.69c0.47,0.11,0.94,0.23,1.41,0.33c0.47,0.1,1.04-0.27,1.51-0.17
					c0.47,0.1,1-0.1,1.47-0.01c0.47,0.09,0.95,0.13,1.42,0.22c0.47,0.09,0.85,0.68,1.33,0.76c0.47,0.08,0.93,0.27,1.4,0.34
					c0.47,0.08,0.99-0.14,1.47-0.07c0.47,0.07,0.99-0.13,1.46-0.07c0.47,0.06,0.87,0.75,1.35,0.81c0.48,0.06,1.01-0.36,1.49-0.3
					c0.48,0.06,0.97-0.06,1.45-0.01c0.48,0.05,0.92,0.39,1.4,0.43c0.48,0.05,0.93,0.34,1.41,0.39c0.48,0.04,0.97-0.04,1.45,0
					c0.48,0.04,0.98-0.23,1.46-0.2c0.48,0.03,0.92,0.6,1.4,0.63c0.48,0.03,0.96,0.08,1.44,0.1c0.48,0.03,0.96,0,1.44,0.03
					c0.48,0.02,0.98-0.54,1.46-0.52c0.48,0.02,0.95,0.3,1.43,0.32c0.48,0.02,0.95,0.41,1.43,0.43c0.48,0.01,0.97-0.46,1.45-0.45
					c0.48,0.01,0.95,0.4,1.44,0.4c0.48,0.01,0.96,0.06,1.44,0.06c0.48,0,0.96-0.29,1.44-0.29c0.48,0,0.96,0.13,1.44,0.13
					c0.48,0,0.96,0.11,1.44,0.11c0.48,0,0.96,0,1.44,0c0.48-0.01,0.96-0.17,1.44-0.18c0.48-0.01,0.97,0.13,1.45,0.12
					c0.48-0.01,0.97,0.17,1.45,0.16c0.48-0.01,0.96-0.09,1.44-0.11c0.48-0.02,0.95-0.35,1.43-0.37c0.48-0.02,0.94-0.45,1.42-0.47
					c0.48-0.02,0.96-0.09,1.44-0.11c0.48-0.02,0.98,0.28,1.46,0.26c0.48-0.02,0.97,0.05,1.45,0.03c0.48-0.03,0.98,0.34,1.47,0.32
					c0.48-0.03,0.94-0.4,1.42-0.43c0.48-0.03,0.98,0.29,1.46,0.26c0.48-0.03,0.96-0.06,1.44-0.09c0.48-0.03,0.95-0.24,1.43-0.28
					c0.48-0.03,0.97,0.09,1.45,0.05c0.48-0.03,0.94-0.28,1.42-0.31c0.48-0.03,0.98,0.22,1.46,0.18c0.48-0.03,0.9-0.81,1.38-0.85
					c0.48-0.04,0.95-0.13,1.43-0.17c0.48-0.04,0.96-0.02,1.44-0.05s1.04-0.13,1.51-0.17c0.46,0.22,0.62,1.15,1.03,1.38
					c0.44,0.25,1.24-0.12,1.62,0.14c0.42,0.29,0.88,0.55,1.23,0.85c0.39,0.33,0.45,0.99,0.76,1.34c0.33,0.38,1.04,0.5,1.29,0.89
					c0.26,0.42,0.43,0.97,0.6,1.41c0.18,0.46,0.32,0.99,0.41,1.46c0.1,0.47-0.32,1.03-0.3,1.52c0.02,0.48,0.21,0.96,0.17,1.45
					c-0.04,0.47-0.16,0.95-0.24,1.44c-0.09,0.47-0.61,0.83-0.74,1.31c-0.12,0.46,0.28,1.07,0.14,1.54
					c-0.14,0.46-0.48,0.86-0.64,1.32c-0.16,0.45-0.69,0.77-0.86,1.23c-0.17,0.45-0.1,0.99-0.28,1.45c-0.18,0.45-0.13,0.99-0.31,1.44
					c-0.18,0.45-0.73,0.75-0.91,1.2c-0.18,0.45-0.14,0.99-0.31,1.45c-0.17,0.46,0.02,1.04-0.14,1.5c-0.16,0.46-0.54,0.84-0.69,1.3
					c-0.15,0.47-0.32,0.92-0.45,1.38c-0.13,0.47-0.56,0.88-0.66,1.35c-0.1,0.48,0.01,1-0.05,1.48c-0.06,0.49-0.3,0.98-0.31,1.46
					c-0.01,0.49,0.17,0.99,0.22,1.47c0.05,0.5,0.25,0.97,0.34,1.42c0.1,0.49,0.27,0.94,0.42,1.39c0.17,0.47,0.23,0.98,0.45,1.4
					c0.23,0.44,0.96,0.52,1.25,0.9c0.29,0.39,0.39,0.88,0.73,1.21c0.35,0.34,0.51,0.88,0.9,1.16c0.39,0.28,0.66,0.81,1.09,1.04
					c0.42,0.23,0.97,0.29,1.42,0.47c0.44,0.18,0.85,0.56,1.32,0.7c0.46,0.14,1.12-0.48,1.6-0.38c0.47,0.1,0.81,0.95,1.29,1.02
					c0.47,0.07,0.99,0.04,1.47,0.08c0.48,0.04,1-0.66,1.49-0.64c0.48,0.01,0.96,0.4,1.44,0.4c0.48-0.01,0.96-0.24,1.44-0.27
					c0.49-0.03,1.02,0.57,1.5,0.52c0.49-0.05,0.87-0.93,1.35-0.99c0.48-0.07,1.07,0.53,1.54,0.45c0.49-0.09,0.84-0.81,1.3-0.91
					c0.48-0.1,1.09,0.39,1.55,0.27c0.48-0.12,0.87-0.52,1.31-0.65c0.1-0.52,0.59-1,0.59-1.46c0-0.53-0.2-1.08-0.3-1.54
					c-0.11-0.5-0.6-0.88-0.8-1.32c-0.21-0.45-0.38-0.93-0.67-1.33c-0.29-0.4-0.35-1.03-0.69-1.39c-0.34-0.37-1.04-0.39-1.39-0.73
					c-0.36-0.35-0.95-0.48-1.29-0.83c-0.35-0.37-0.39-1.01-0.67-1.4c-0.3-0.41-0.58-0.82-0.75-1.29c-0.16-0.45-0.28-0.95-0.26-1.47
					c0.01-0.45,0.6-0.79,0.77-1.31c0.14-0.42-0.29-1.13-0.02-1.61c0.22-0.4,0.67-0.69,0.98-1.13c-0.53-0.19-0.89-0.07-1.26,0.09
					c-0.39,0.17-0.62,0.47-0.88,0.9c-0.21,0.36-0.38,0.75-0.54,1.22c-0.14,0.41-0.66,0.75-0.78,1.2c-0.12,0.44-0.09,0.93-0.2,1.37
					c-0.12,0.47-0.5,0.82-0.63,1.23c-0.15,0.5-0.34,1.14-0.54,1.47c0.34,0.23,1.32-0.05,1.73,0.15c0.38,0.19,0.74,0.46,1.14,0.65
					c0.39,0.19,0.68,0.63,1.05,0.86c0.37,0.24,0.8,0.46,1.1,0.77c0.37,0.39,0.37,1.03,0.65,1.37c0.35,0.43,0.46,0.89,0.68,1.26
					c0.31,0.5,0.79,0.73,0.89,1.12c0.14,0.58-0.1,0.84-0.36,1.2c-0.25,0.35-0.37,0.94-0.91,1.11c-0.41,0.13-0.99-0.41-1.52-0.36
					c-0.45,0.04-0.89,0.14-1.41,0.13c-0.47-0.01-0.93-0.03-1.43-0.08c-0.47-0.04-0.99,0.27-1.48,0.21c-0.48-0.06-1,0.08-1.48,0
					c-0.48-0.08-0.89-0.56-1.37-0.66c-0.49-0.1-0.91-0.41-1.38-0.51c-0.49-0.11-1.18,0.62-1.63,0.5c-0.51-0.13-0.87-0.71-1.29-0.83
					c-0.45-0.21-1.09-0.06-1.48-0.28c-0.43-0.25-0.59-0.92-0.96-1.18c-0.41-0.29-0.56-0.82-0.9-1.12c-0.37-0.33-0.64-0.66-0.93-1
					c-0.32-0.38-0.89-0.51-1.12-0.91c-0.24-0.42-0.58-0.8-0.73-1.24c-0.16-0.45,0.27-1.02,0.2-1.49c-0.07-0.47-0.39-0.88-0.39-1.36
					c0-0.47,0.18-0.91,0.24-1.39c0.06-0.46-0.21-0.98-0.1-1.46c0.11-0.45,0.32-0.89,0.46-1.35c0.14-0.45,0.62-0.78,0.79-1.23
					c0.16-0.44-0.25-1.11-0.07-1.55c0.18-0.44,0.61-0.77,0.8-1.21c0.19-0.43,0.66-0.74,0.86-1.18c0.2-0.43,0.4-0.86,0.6-1.29
					c0.2-0.43,0.1-1,0.29-1.44c0.2-0.43,0.73-0.72,0.92-1.16c0.19-0.44,0.38-0.88,0.56-1.32c0.18-0.44,0.06-1.01,0.22-1.45
					c0.17-0.45,0.38-0.88,0.53-1.33c0.15-0.46,0.64-0.83,0.76-1.28c0.12-0.47-0.62-1.11-0.54-1.58c0.08-0.48,0.82-0.86,0.85-1.32
					c0.03-0.48,0-0.99-0.03-1.46c-0.03-0.48-0.71-0.85-0.81-1.31c-0.1-0.46-0.11-0.89-0.29-1.34c-0.17-0.43-0.07-1-0.32-1.41
					c-0.24-0.39-0.8-0.55-1.12-0.92c-0.29-0.35-0.35-0.93-0.72-1.27c-0.34-0.31-0.91-0.34-1.31-0.63c-0.37-0.27-0.86-0.82-1.28-1.08
					c0.48-0.02,1.24,0.3,1.7,0.27c0.48-0.04,0.91-0.58,1.38-0.62c0.48-0.04,0.97,0.08,1.43,0.04c0.49-0.04,0.97,0.27,1.43,0.25
					c0.49-0.02,0.93,0.14,1.38,0.17c0.49,0.02,1.06-0.73,1.5-0.64c0.48,0.1,0.75,0.81,1.16,1.01c0.42,0.2,0.85,0.32,1.19,0.66
					c0.32,0.31,0.8,0.55,1.04,0.99c0.21,0.38,0.66,0.76,0.81,1.25c0.13,0.41-0.34,1.02-0.25,1.53c0.07,0.43,0.29,0.87,0.33,1.38
					c0.17,0.46,0.74,0.77,0.9,1.22c0.16,0.46-0.5,1.2-0.34,1.66c0.16,0.46,1.1,0.65,1.25,1.1c0.16,0.46-0.03,1.03,0.13,1.49
					c0.15,0.46,0.5,0.85,0.66,1.31c0.15,0.46,0.27,0.93,0.42,1.39c0.15,0.46-0.18,1.08-0.03,1.54c0.15,0.46,0.22,0.95,0.37,1.41
					c0.15,0.46,0.29,0.93,0.44,1.38c0.15,0.46,0.53,0.84,0.69,1.3c0.15,0.46,0.82,0.74,0.98,1.2c0.16,0.46-0.45,1.17-0.29,1.63
					c0.16,0.46,0.8,0.74,0.96,1.2c0.16,0.46,0.44,0.87,0.6,1.32c0.17,0.45-0.25,1.13-0.08,1.58c0.17,0.45,0.63,0.8,0.8,1.25
					c0.18,0.45,0.65,0.78,0.84,1.23c0.18,0.45,0.36,0.89,0.55,1.34c0.19,0.44-0.19,1.14,0.01,1.58c0.2,0.44,0.43,0.87,0.63,1.31
					c0.2,0.44,0.93,0.63,1.14,1.06c0.21,0.43,0.26,0.95,0.48,1.38c0.22,0.43,0.28,0.95,0.51,1.37c0.23,0.42,0.51,0.83,0.75,1.25
					c0.24,0.42,0.35,0.92,0.6,1.33c0.25,0.41,0.62,0.76,0.88,1.17c0.26,0.41,0.77,0.6,1.04,1c0.42,0.2,0.88,0.18,1.34,0.35
					c0.43,0.17,0.81,0.49,1.28,0.63c0.45,0.14,0.9,0.28,1.37,0.4c0.45,0.12,0.92,0.21,1.39,0.31c0.46,0.1,0.88,0.44,1.36,0.52
					c0.47,0.08,0.92,0.34,1.4,0.41c0.47,0.06,0.96,0.04,1.44,0.09c0.47,0.05,1-0.47,1.48-0.43c0.48,0.03,0.94,0.22,1.42,0.23
					c0.48,0.02,0.95,0.04,1.43,0.04c0.48,0,0.96,0.34,1.44,0.33c0.48-0.01,0.97,0.13,1.45,0.1c0.48-0.03,0.94-0.4,1.42-0.44
					c0.48-0.04,0.98,0.08,1.45,0.02c0.48-0.06,0.89-0.54,1.36-0.62c0.48-0.08,0.95-0.1,1.42-0.19c0.48-0.1,1.06,0.28,1.51,0.16
					c0.47-0.12,0.85-0.59,1.3-0.73c0.47-0.15,0.88-0.4,1.32-0.57c0.46-0.17,1.08,0.05,1.51-0.14c0.44-0.21,0.81-0.59,1.21-0.83
					c0.42-0.25,0.64-0.79,1.01-1.06c0.39-0.29,1.27-0.33,1.59-0.66c-0.09-0.5-0.79-1.04-0.92-1.5c-0.14-0.49,0.04-1.06-0.13-1.51
					c-0.18-0.47-0.35-0.96-0.57-1.39c-0.23-0.45-0.67-0.77-0.95-1.17c-0.28-0.41-0.68-0.72-1-1.08c-0.33-0.37-0.67-0.71-1.03-1.04
					c-0.37-0.33-0.7-0.68-1.1-0.97c-0.4-0.29-0.88-0.43-1.31-0.67c-0.42-0.25-0.65-0.88-1.1-1.09c-0.44-0.21-0.87-0.51-1.33-0.69
					c-0.45-0.18-1.07,0.04-1.54-0.12c-0.46-0.16-0.84-0.61-1.32-0.75c-0.47-0.14-1.02-0.02-1.5-0.14c-0.48-0.12-0.97-0.16-1.46-0.26
					c-0.48-0.11-0.92-0.4-1.41-0.5c-0.48-0.1-0.74-0.47-1.22-0.57c-0.28-0.4-0.63-0.52-0.88-0.93c-0.25-0.42-0.93-0.6-1.15-1.03
					c-0.23-0.44-0.18-1.01-0.37-1.45c-0.19-0.45-0.38-0.9-0.53-1.35c-0.16-0.46-0.64-0.83-0.77-1.3c-0.13-0.47,0.23-1.06,0.13-1.53
					c-0.09-0.48-0.3-0.93-0.36-1.41c-0.06-0.48,0.1-0.98,0.08-1.46c-0.02-0.48,0.17-0.95,0.18-1.43c0.01-0.48-0.54-1-0.5-1.48
					c0.05-0.48,0.46-0.92,0.54-1.4c0.08-0.48-0.03-0.99,0.08-1.46c0.11-0.47,0.66-0.81,0.8-1.28c0.14-0.46,0.33-0.88,0.49-1.34
					c0.17-0.45-0.28-1.15-0.08-1.59c0.19-0.44,0.38-0.9,0.6-1.34c0.22-0.43,0.9-0.61,1.15-1.03c0.24-0.42-0.01-1.14,0.25-1.55
					c0.26-0.4,0.84-0.6,1.13-1c0.28-0.39,0.87-0.54,1.17-0.92c0.3-0.38,0.05-1.22,0.37-1.59c0.32-0.36,1.19-0.21,1.53-0.55
					c0.34-0.34,0.67-0.67,1.03-0.99c0.36-0.33,0.74-0.59,1.11-0.9c0.37-0.31,0.52-0.87,0.91-1.17c0.39-0.29,0.48-1,0.88-1.28
					c0.4-0.27,1.1-0.1,1.51-0.36c0.41-0.25,0.84-0.76,1.26-0.99c0.09,0.48,0.18,1.1,0.26,1.57c0.08,0.49,0.09,0.98,0.17,1.45
					c0.08,0.49,0.11,0.98,0.19,1.45c0.09,0.5,0.63,0.87,0.74,1.33c0.11,0.5,0.06,0.99,0.2,1.43c0.15,0.49-0.11,1.11,0.09,1.53
					c0.22,0.47,1.03,0.49,1.32,0.85c0.32,0.38,0.24,1.15,0.67,1.38c0.4,0.22,0.89,0.65,1.41,0.72c0.43,0.06,0.93-0.82,1.46-0.88
					c0.44-0.05,0.85-0.15,1.36-0.28c0.43-0.11,0.93-0.02,1.43-0.2c0.43-0.15,0.84,0.26,1.31,0.06c0.24,0.44,0.94,0.29,1.16,0.69
					c0.24,0.44,0.31,0.94,0.54,1.33c0.25,0.44,0.4,0.89,0.63,1.28c0.26,0.44,0.39,0.91,0.63,1.29c0.27,0.43,0.72,0.7,0.97,1.07
					c0.29,0.43,0.62,0.76,0.88,1.11c0.32,0.42,0.06,1.26,0.35,1.58c0.36,0.4,0.92,0.57,1.24,0.83c0.42,0.33,0.77,0.8,1.17,0.97
					c0.44,0.19,1.01,0.14,1.48,0.24c0.43,0.09,1.01-0.43,1.51-0.33c0.42,0.08,0.94,0.1,1.44,0.25c0.41,0.12,0.66,0.91,1.14,1.1
					c0.41,0.16,0.95,0.07,1.41,0.3c0.4,0.19,0.56,0.88,1,1.13c0.39,0.22,1.16-0.16,1.59,0.11c0.38,0.24,0.36,0.9,0.77,1.18
					c0.05,0.48,0.55,0.76,0.62,1.24c0.07,0.48,0.02,0.97,0.11,1.44c0.09,0.47,0.31,0.91,0.42,1.38c0.11,0.47,0.04,0.98,0.17,1.44
					c0.13,0.46,0.31,0.91,0.46,1.37c0.14,0.46,0.54,0.83,0.7,1.28c0.16,0.45-0.2,1.1-0.02,1.55c0.18,0.45,0.74,0.74,0.93,1.18
					c0.19,0.44,0.28,0.93,0.49,1.36c0.21,0.43,0.18,0.99,0.41,1.42c0.23,0.42,0.39,0.9,0.64,1.31c0.24,0.42,0.68,0.72,0.94,1.13
					c0.26,0.41,0.47,0.85,0.74,1.25c0.27,0.4,0.34,0.95,0.62,1.34c0.29,0.39,0.7,0.69,1,1.07c0.3,0.38,0.81,0.59,1.13,0.95
					c0.31,0.37,0.48,0.86,0.81,1.22c0.33,0.35,1.01,0.37,1.34,0.71c0.34,0.34,0.26,1.11,0.61,1.44c0.35,0.33,1.06,0.27,1.43,0.58
					c0.36,0.32,0.44,0.98,0.81,1.28c0.37,0.3,0.76,0.61,1.14,0.9c0.38,0.29,0.79,0.57,1.18,0.84c0.39,0.28,1.11,0.08,1.51,0.34
					c0.4,0.26,0.65,0.77,1.06,1.01c0.41,0.25,0.77,0.59,1.19,0.82c0.42,0.23,0.75,0.66,1.18,0.87c0.43,0.21,1.13-0.13,1.57,0.06
					c0.44,0.2,0.7,0.81,1.14,1c0.45,0.18,1.04-0.02,1.49,0.15c0.45,0.16,0.9,0.33,1.35,0.47c0.46,0.14,0.77,0.8,1.24,0.93
					c0.46,0.13,1.1-0.41,1.57-0.31c0.47,0.11,0.94,0.12,1.42,0.21c0.47,0.09,0.86,0.64,1.34,0.71c0.47,0.07,0.97,0,1.45,0.05
					c0.48,0.05,0.98-0.29,1.46-0.26c0.48,0.03,0.93,0.49,1.42,0.5c0.48,0.01,1.02,0.35,1.5,0.34c0.46-0.14,0.73-1.03,1.2-1.19
					c0.45-0.15,1.14,0.34,1.6,0.18c0.45-0.16,0.86-0.47,1.31-0.65c0.45-0.18,0.78-0.64,1.23-0.83c0.44-0.19,0.97-0.18,1.42-0.38
					c0.44-0.2,1.01-0.12,1.45-0.34c0.43-0.21,0.92-0.35,1.35-0.57c0.43-0.22,0.79-0.6,1.21-0.83c0.42-0.23,0.88-0.42,1.3-0.67
					c0.42-0.24,0.44-1.15,0.85-1.41c0.41-0.26,1.19,0.07,1.6-0.2c0.4-0.27,0.65-0.77,1.05-1.05c0.4-0.28,0.64-0.76,1.03-1.05
					c0.39-0.29,1.1-0.17,1.48-0.48c0.38-0.31,0.55-0.86,0.91-1.18c0.37-0.32,0.73-0.64,1.08-0.97c0.35-0.34,0.94-0.45,1.27-0.8
					c0.34-0.35,0.4-0.96,0.72-1.32c0.32-0.37,0.81-0.6,1.11-0.98c0.3-0.38,0.7-0.71,0.98-1.1c0.28-0.4,0.03-1.15,0.28-1.56
					c0.26-0.41,0.83-0.63,1.06-1.06c0.23-0.43-0.05-1.09,0.15-1.53c0.2-0.44,0.69-0.74,0.86-1.2c0.17-0.45,0.63-0.82,0.76-1.29
					c0.13-0.46-0.18-1.04-0.09-1.52C336.6,182,336.49,181.6,336.55,181.12z"/>
			</g>
			<g>
				<path d="M279.94,114.36c0.35-0.32,0.72-0.55,1.08-0.72c0.41-0.2,0.84-0.3,1.25-0.31c0.43-0.01,0.85,0.09,1.26,0.26
					c0.49,0.2,0.87,0.55,1.26,0.95c0.36,0.37,0.72,0.77,1.13,1.13c0.37,0.33,0.79,0.73,1.19,1.08c0.49,0.42,0.98,0.76,1.35,0.84
					c0.28,0.07,0.7-0.03,0.44-0.49c-0.16-0.28-0.42-0.64-0.69-0.98c-0.27-0.34-0.56-0.66-0.77-0.92c-0.3-0.37-0.64-0.76-1-1.17
					c-0.33-0.37-0.67-0.77-1.05-1.12c-0.38-0.35-0.78-0.67-1.21-0.95c-0.44-0.29-0.9-0.51-1.38-0.67c-0.35-0.11-0.74-0.12-1.14-0.1
					c-0.4,0.03-0.8,0.06-1.15,0.11c-0.45,0.07-0.89,0.13-1.28,0.23c-0.45,0.11-0.85,0.29-1.15,0.58c-0.37,0.36-0.61,0.79-0.76,1.26
					c-0.15,0.46-0.23,0.96-0.32,1.45c-0.11,0.62-0.19,1.19-0.15,1.73c0.04,0.6,0.22,1.15,0.49,1.66c0.25,0.47,0.56,1.57,0.95,1.8
					c0.55,0.32,1.16-0.03,1.91-0.54c0.14-0.1,0.24-0.67-0.11-1.1c-0.32-0.4-0.56-0.82-0.68-1.27c-0.13-0.47-0.14-0.96-0.04-1.44
					C279.46,115.25,279.66,114.79,279.94,114.36z"/>
			</g>
			<g>
				<path d="M297.61,150.18c0.34,0.26,0.75,0.42,1.2,0.48c0.42,0.06,0.87,0.03,1.3-0.07c0.43-0.1,0.85-0.27,1.2-0.51
					c0.38-0.25,0.67-0.59,0.85-0.98c0.17-0.37,0.24-0.8,0.13-1.28c-0.23-0.54-0.65-0.85-1.15-0.99c-0.47-0.13-1.02-0.11-1.55,0.04
					c-0.5,0.14-0.99,0.39-1.4,0.69c-0.46,0.34-0.82,0.76-0.97,1.2C297.07,149.23,297.15,149.72,297.61,150.18z M299.85,149.68
					C299.82,149.7,299.81,149.7,299.85,149.68C299.85,149.68,299.85,149.68,299.85,149.68z M299.7,149.8
					C299.7,149.8,299.7,149.8,299.7,149.8c0.03-0.03,0.05-0.05,0.06-0.05C299.74,149.77,299.72,149.79,299.7,149.8z M300.12,149.35
					c-0.54,0.67-0.96-1.05-0.41-1.4C300.24,148.03,300.42,148.91,300.12,149.35z M299.66,149.82
					C299.66,149.82,299.66,149.82,299.66,149.82C299.66,149.82,299.66,149.83,299.66,149.82
					C299.66,149.83,299.66,149.82,299.66,149.82z"/>
			</g>
			<g>
				<path d="M298.26,145.11c0.51-0.06,0.88-0.22,1.18-0.37c0.44-0.24,0.73-0.5,1.08-0.58c0.42-0.1,0.72-0.62,0.48-0.99
					c-0.15-0.23-0.51-0.38-1.17-0.33c-0.47,0.03-0.98,0.05-1.5,0.14c-0.47,0.08-0.96,0.21-1.43,0.45c-0.49,0.25-0.73,0.87-1.16,1.43
					c-0.38,0.48-0.93,0.9-1.22,1.3c-0.31,0.43-0.7,0.77-0.87,1.3c-0.18,0.54-0.45,1.09-0.43,1.75c0.65,0.51,0.9,0.49,1.11,0.08
					c0.17-0.34,0.6-0.78,0.88-1.24c0.17-0.29,0.3-0.61,0.46-0.9c0.16-0.29,0.35-0.56,0.59-0.82c0.28-0.3,0.58-0.57,0.91-0.78
					C297.5,145.32,297.87,145.16,298.26,145.11z M298.54,144.99c-0.06,0.02-0.04,0,0-0.01
					C298.55,144.98,298.55,144.99,298.54,144.99z"/>
			</g>
			<g>
				<path d="M311.8,188.67c0.05,0.53,0.19,0.98,0.42,1.32c0.27,0.41,0.66,0.68,1.08,0.86c0.42,0.18,0.89,0.26,1.37,0.24
					c0.47-0.03,0.94-0.14,1.36-0.34c0.43-0.21,0.83-0.5,1.1-0.86c0.28-0.37,0.41-0.82,0.41-1.31c0-0.41-0.09-0.87-0.35-1.35
					c-0.76-0.3-1.22-0.31-1.48-0.18c-0.41,0.21-0.36,0.8-0.34,1.39c0.02,0.59,0.02,1.18-0.49,1.33c-0.44-0.31-0.72-0.75-0.89-1.22
					c-0.17-0.46-0.21-0.97-0.16-1.5c0.05-0.49,0.19-0.99,0.39-1.46c0.21-0.47,0.47-0.92,0.8-1.28c0.36-0.39,0.78-0.69,1.23-0.86
					c0.11-0.02,0.31-0.06,0.13-0.04c0.56-0.08,1.15,0.05,1.65,0.37c0.49,0.31,0.85,0.8,0.98,1.38c0.62,0.09,1.1,0.09,1.45,0.05
					c0.75-0.1,0.92-0.47,0.69-0.93c-0.16-0.32-0.53-0.67-1.01-1.01c-0.36-0.25-0.79-0.48-1.26-0.68c-0.43-0.18-0.89-0.32-1.38-0.41
					c-0.47-0.08-0.95-0.12-1.43-0.08c-0.47,0.04-0.94,0.16-1.38,0.36c-0.41,0.19-0.81,0.46-1.16,0.83c-0.31,0.32-0.59,0.7-0.83,1.17
					c-0.2,0.39-0.36,0.84-0.5,1.35c-0.12,0.43-0.22,0.9-0.29,1.41C311.83,187.68,311.82,188.16,311.8,188.67z M315.01,189.78
					c-0.02,0.01-0.05,0.03-0.06,0.04C314.96,189.79,315,189.79,315.01,189.78z"/>
			</g>
		</g>
	</g>
</g>
</svg>
