<?xml version="1.0" encoding="utf-8"?>
<!-- Generator: Adobe Illustrator 24.2.2, SVG Export Plug-In . SVG Version: 6.00 Build 0)  -->
<svg version="1.1" id="Layer_1" xmlns="http://www.w3.org/2000/svg" xmlns:xlink="http://www.w3.org/1999/xlink" x="0px" y="0px"
	 viewBox="0 0 156.12 186.28" style="enable-background:new 0 0 156.12 186.28;" xml:space="preserve">
<style type="text/css">
	.st0{fill:#F8B618;}
</style>
<g>
	<g>
		<path class="st0" d="M45.34,50.46c-0.04-0.41-0.03-0.82-0.05-1.22c-0.03-0.41-0.24-0.81-0.25-1.22c-0.01-0.41-0.09-0.83-0.07-1.23
			c0.01-0.41,0.14-0.82,0.17-1.22c0.03-0.41,0.22-0.8,0.28-1.2c0.06-0.41,0.18-0.79,0.27-1.19c0.09-0.41,0.25-0.77,0.37-1.16
			c0.12-0.4,0.13-0.81,0.28-1.19c0.16-0.39,0.37-0.72,0.55-1.09c0.18-0.37,0.15-0.85,0.34-1.2c0.21-0.36,0.67-0.55,0.9-0.88
			c0.23-0.34,0.3-0.79,0.55-1.1c0.27-0.32,0.53-0.64,0.82-0.91c0.29-0.28,0.71-0.43,1.03-0.67c0.33-0.24,0.67-0.44,1.03-0.63
			c0.36-0.19,0.65-0.55,1.03-0.72c0.38-0.16,0.74-0.41,1.14-0.54c0.39-0.13,0.83-0.16,1.24-0.26c0.41-0.09,0.84-0.06,1.25-0.09
			c0.41-0.03,0.83-0.03,1.25,0c0.41,0.03,0.83-0.01,1.25,0.06c0.4,0.06,0.77,0.32,1.18,0.42c0.4,0.09,0.84,0.05,1.24,0.17
			c0.39,0.12,0.72,0.47,1.1,0.61c0.39,0.15,0.85,0.1,1.23,0.27c0.37,0.16,0.65,0.53,1.03,0.72c0.36,0.17,0.8,0.21,1.18,0.41
			c0.36,0.19,0.71,0.41,1.08,0.61c0.35,0.2,0.65,0.5,1,0.73c0.34,0.22,0.82,0.25,1.16,0.49c0.33,0.23,0.57,0.6,0.87,0.91
			c0.28,0.28,0.65,0.52,0.92,0.84c0.26,0.31,0.34,0.78,0.61,1.09c0.26,0.31,0.54,0.62,0.82,0.93c0.27,0.3,0.69,0.47,0.98,0.77
			c0.29,0.28,0.62,0.52,0.93,0.79c0.3,0.27,0.47,0.69,0.78,0.96c0.3,0.27,0.63,0.51,0.94,0.78c0.3,0.28,0.53,0.62,0.81,0.91
			c0.28,0.28,0.53,0.59,0.8,0.91c0.26,0.31,0.47,0.66,0.72,0.98c0.24,0.32,0.82,0.41,1.05,0.75c0.23,0.33,0.31,0.78,0.54,1.11
			c0.23,0.34,0.46,0.67,0.69,1.02c0.23,0.34,0.34,0.76,0.58,1.09c0.23,0.33,0.73,0.47,0.97,0.81c0.23,0.33,0.44,0.68,0.68,1.03
			c0.23,0.34,0.16,0.87,0.39,1.22c0.22,0.34,0.78,0.46,1.01,0.81c0.22,0.34,0.39,0.72,0.6,1.07c0.21,0.34,0.33,0.75,0.53,1.1
			c0.21,0.35,0.35,0.73,0.55,1.09c0.2,0.35,0.38,0.72,0.58,1.08c0.2,0.35,0.24,0.79,0.43,1.16c0.19,0.35,0.47,0.67,0.67,1.03
			c0.22,0.41,0.58,0.71,0.79,1.09c0.22,0.4,0.41,0.79,0.64,1.16c0.24,0.39,0.37,0.84,0.61,1.19c0.26,0.38,0.54,0.72,0.8,1.06
			c0.28,0.36,0.51,0.74,0.78,1.08c0.29,0.35,0.7,0.59,1,0.9c0.31,0.33,0.47,0.8,0.78,1.1c0.33,0.3,0.84,0.41,1.18,0.68
			c0.34,0.28,0.67,0.58,1.03,0.83c0.36,0.26,0.61,0.69,0.98,0.92c0.37,0.24,0.92,0.19,1.29,0.42c0.37,0.23,0.72,0.5,1.11,0.72
			c0.37,0.22,0.74,0.47,1.13,0.68c0.38,0.21,0.73,0.49,1.13,0.7c0.39,0.2,0.83,0.3,1.23,0.5c0.39,0.19,0.78,0.39,1.2,0.55
			c0.41,0.16,0.88,0.13,1.31,0.28c0.41,0.15,0.78,0.4,1.21,0.55c0.41,0.16,0.81,0.34,1.22,0.53c0.4,0.17,0.68,0.59,1.09,0.8
			c0.38,0.2,0.91,0.14,1.31,0.34c0.38,0.2,0.8,0.35,1.2,0.57c0.38,0.2,0.65,0.64,1.04,0.85c0.38,0.21,0.84,0.29,1.23,0.52
			c0.38,0.22,0.73,0.48,1.12,0.72c0.37,0.23,0.76,0.46,1.11,0.74c0.34,0.28,0.56,0.69,0.9,1c0.32,0.29,0.64,0.59,0.97,0.91
			c0.32,0.3,0.81,0.41,1.16,0.71c0.34,0.28,0.6,0.65,0.97,0.91c0.35,0.25,0.76,0.45,1.11,0.72c0.34,0.26,0.52,0.75,0.87,1.03
			c0.34,0.27,0.73,0.48,1.08,0.76c0.34,0.27,0.82,0.37,1.16,0.66c0.34,0.28,0.7,0.53,1.04,0.81c0.33,0.27,0.59,0.59,0.92,0.84
			s0.6,0.58,0.93,0.84c0.33,0.26,0.51,0.69,0.83,0.96c0.32,0.27,0.7,0.46,0.99,0.74c0.3,0.28,0.58,0.58,0.85,0.9
			c0.28,0.32,0.46,0.69,0.71,1.02c0.25,0.33,0.62,0.57,0.86,0.91c0.24,0.34,0.55,0.63,0.78,0.98c0.22,0.35,0.38,0.75,0.59,1.1
			c0.22,0.35,0.48,0.68,0.7,1.03c0.22,0.35,0.22,0.83,0.41,1.2c0.2,0.36,0.6,0.62,0.78,0.99c0.18,0.37,0.34,0.75,0.52,1.13
			c0.17,0.38,0.18,0.82,0.34,1.21c0.16,0.38,0.55,0.67,0.71,1.05c0.16,0.39,0.34,0.75,0.52,1.14c0.17,0.38,0.25,0.8,0.43,1.19
			c0.18,0.38,0.47,0.71,0.65,1.09c0.16,0.39,0.2,0.84,0.34,1.22c0.14,0.4,0.36,0.78,0.46,1.19c0.09,0.41,0.17,0.82,0.26,1.23
			c0.09,0.41,0.08,0.84,0.16,1.25c0.08,0.41,0.08,0.84,0.14,1.25c0.06,0.41-0.03,0.84,0.03,1.27c0.05,0.41,0.1,0.83,0.15,1.24
			c0.04,0.41,0.28,0.82,0.28,1.24c0.01,0.41,0.03,0.84,0.01,1.26c-0.02,0.41-0.24,0.83-0.27,1.24c-0.03,0.41,0.22,0.85,0.19,1.27
			c-0.02,0.42-0.38,0.83-0.39,1.24c0,0.41,0.1,0.84,0.11,1.26c0.01,0.41,0.05,0.84,0.07,1.25c0.01,0.41,0.25,0.84,0.25,1.25
			c0,0.41-0.12,0.84-0.14,1.26c-0.02,0.41,0,0.84-0.05,1.26c-0.04,0.41-0.31,0.8-0.39,1.21c-0.08,0.41-0.22,0.8-0.31,1.21
			c-0.09,0.41-0.02,0.85-0.12,1.26c-0.1,0.41-0.31,0.78-0.41,1.19c-0.09,0.41-0.24,0.81-0.33,1.22c-0.09,0.41-0.24,0.79-0.34,1.19
			c-0.1,0.41,0.02,0.86-0.09,1.26c-0.11,0.4-0.36,0.76-0.48,1.16c-0.12,0.4-0.19,0.81-0.32,1.21c-0.12,0.4-0.24,0.79-0.35,1.19
			c-0.12,0.4-0.12,0.84-0.25,1.22c-0.13,0.4-0.27,0.78-0.41,1.17c-0.14,0.39-0.36,0.75-0.51,1.14c-0.15,0.39-0.4,0.73-0.54,1.12
			c-0.15,0.39-0.17,0.82-0.32,1.21c-0.15,0.39-0.33,0.77-0.47,1.16c-0.14,0.39-0.35,0.76-0.49,1.15c-0.14,0.4-0.29,0.78-0.44,1.16
			c-0.15,0.39-0.36,0.74-0.53,1.13c-0.16,0.39-0.16,0.84-0.34,1.21c-0.18,0.38-0.26,0.8-0.43,1.18c-0.18,0.38-0.53,0.67-0.7,1.05
			c-0.18,0.38-0.42,0.72-0.61,1.09c-0.19,0.37-0.41,0.72-0.61,1.09c-0.2,0.37-0.18,0.85-0.41,1.21c-0.22,0.35-0.34,0.78-0.58,1.12
			c-0.23,0.34-0.59,0.62-0.83,0.96c-0.24,0.34-0.4,0.75-0.65,1.08c-0.25,0.34-0.81,0.43-1.06,0.76c-0.26,0.33-0.27,0.85-0.53,1.17
			c-0.26,0.33-0.64,0.56-0.91,0.87c-0.28,0.32-0.41,0.76-0.68,1.06c-0.28,0.31-0.66,0.53-0.94,0.83c-0.29,0.29-0.72,0.47-1.01,0.75
			c-0.3,0.29-0.51,0.67-0.8,0.96c-0.3,0.29-0.67,0.51-0.97,0.8c-0.3,0.29-0.58,0.6-0.88,0.89c-0.3,0.29-0.61,0.57-0.91,0.84
			c-0.31,0.28-0.66,0.49-0.99,0.75c-0.33,0.26-0.61,0.56-0.96,0.78c-0.35,0.23-0.73,0.41-1.09,0.6c-0.36,0.21-0.64,0.58-1.01,0.76
			c-0.38,0.19-0.74,0.41-1.12,0.57c-0.39,0.16-0.8,0.26-1.19,0.4c-0.4,0.15-0.86,0.05-1.26,0.17c-0.41,0.12-0.79,0.28-1.2,0.39
			c-0.41,0.12-0.79,0.28-1.2,0.38c-0.41,0.09-0.83,0.1-1.24,0.17c-0.42,0.07-0.8,0.34-1.22,0.36c-0.42,0.03-0.84-0.06-1.26-0.09
			c-0.41-0.03-0.82-0.14-1.23-0.18c-0.41-0.04-0.85,0.21-1.27,0.16c-0.41-0.04-0.82-0.18-1.23-0.23c-0.41-0.04-0.82-0.15-1.23-0.19
			s-0.82-0.22-1.24-0.26c-0.41-0.04-0.85,0.15-1.27,0.1c-0.41-0.03-0.8-0.4-1.22-0.44c-0.41-0.04-0.83-0.1-1.24-0.16
			s-0.87,0.21-1.29,0.14c-0.41-0.07-0.76-0.46-1.17-0.55c-0.41-0.09-0.84-0.04-1.24-0.19c-0.39-0.15-0.8-0.26-1.18-0.44
			c-0.37-0.18-0.63-0.6-1-0.8c-0.37-0.19-0.78-0.3-1.16-0.49c-0.37-0.19-0.8-0.26-1.19-0.43c-0.38-0.16-0.73-0.39-1.12-0.54
			c-0.38-0.16-0.72-0.43-1.1-0.59c-0.38-0.16-0.91-0.01-1.28-0.19c-0.37-0.18-0.74-0.39-1.11-0.6c-0.35-0.21-0.62-0.57-0.97-0.83
			c-0.33-0.24-0.51-0.66-0.82-0.95c-0.3-0.28-0.85-0.31-1.15-0.61c-0.28-0.29-0.45-0.72-0.72-1.03s-0.59-0.59-0.86-0.91
			c-0.28-0.31-0.44-0.72-0.72-1.03c-0.28-0.3-0.72-0.46-1.01-0.76c-0.28-0.29-0.63-0.54-0.92-0.84c-0.28-0.29-0.46-0.7-0.73-1.02
			c-0.27-0.31-0.53-0.63-0.8-0.96c-0.26-0.32-0.41-0.72-0.66-1.07c-0.23-0.34-0.36-0.75-0.59-1.1c-0.23-0.34-0.63-0.57-0.85-0.93
			c-0.22-0.34-0.32-0.78-0.53-1.13c-0.22-0.35-0.71-0.54-0.91-0.91c-0.21-0.35-0.17-0.85-0.38-1.22c-0.2-0.36-0.62-0.59-0.84-0.96
			c-0.22-0.34-0.47-0.68-0.7-1.03c-0.22-0.34-0.32-0.78-0.54-1.14c-0.22-0.35-0.53-0.66-0.74-1.03c-0.2-0.36-0.26-0.8-0.44-1.19
			c-0.17-0.37-0.46-0.72-0.59-1.12c-0.13-0.39-0.33-0.78-0.45-1.19c-0.11-0.4,0.16-0.91,0.05-1.32c-0.11-0.4-0.22-0.81-0.35-1.22
			c-0.12-0.4-0.53-0.7-0.69-1.09c-0.15-0.38-0.08-0.85-0.22-1.25c-0.14-0.39-0.41-0.73-0.54-1.13c-0.13-0.39-0.14-0.82-0.26-1.22
			c-0.12-0.4-0.16-0.82-0.29-1.22c-0.13-0.39-0.56-0.69-0.7-1.09c-0.13-0.39-0.14-0.83-0.27-1.22c-0.13-0.39-0.47-0.72-0.61-1.11
			c-0.13-0.39,0.13-0.91,0-1.31c-0.13-0.39-0.33-0.77-0.45-1.16c-0.12-0.4-0.28-0.78-0.41-1.18c-0.12-0.4-0.32-0.77-0.47-1.16
			c-0.14-0.39-0.38-0.74-0.53-1.14c-0.15-0.39-0.1-0.84-0.24-1.24c-0.14-0.39-0.3-0.78-0.43-1.17s-0.21-0.8-0.31-1.21
			c-0.1-0.4-0.24-0.79-0.35-1.2c-0.11-0.4-0.39-0.75-0.5-1.16c-0.12-0.4-0.01-0.86-0.12-1.26c-0.11-0.4-0.31-0.78-0.42-1.18
			c-0.11-0.4-0.15-0.82-0.24-1.22c-0.09-0.41-0.24-0.79-0.33-1.2c-0.09-0.41-0.17-0.81-0.26-1.22c-0.09-0.41-0.37-0.77-0.45-1.18
			c-0.09-0.41-0.09-0.83-0.17-1.24c-0.09-0.41-0.3-0.78-0.4-1.2c-0.09-0.41,0.1-0.88,0-1.28s-0.51-0.72-0.62-1.13
			c-0.11-0.4,0.08-0.88-0.03-1.28c-0.11-0.4-0.39-0.76-0.48-1.16c-0.09-0.41-0.24-0.8-0.32-1.22c-0.08-0.41-0.08-0.83-0.16-1.24
			c-0.08-0.41-0.17-0.81-0.26-1.22c-0.08-0.41-0.4-0.77-0.47-1.18c-0.08-0.41,0.23-0.9,0.16-1.3c-0.08-0.41-0.45-0.77-0.53-1.17
			c-0.08-0.41-0.01-0.84-0.07-1.26c-0.06-0.41-0.03-0.84-0.09-1.25c-0.06-0.41-0.2-0.81-0.26-1.22c-0.06-0.41-0.04-0.84-0.1-1.25
			c-0.06-0.41-0.42-0.78-0.49-1.19c-0.07-0.41-0.06-0.84-0.12-1.25c-0.05-0.41-0.03-0.84-0.08-1.25c-0.05-0.41-0.17-0.81-0.22-1.23
			c-0.05-0.41,0.24-0.87,0.19-1.28s-0.15-0.83-0.21-1.24c-0.06-0.41-0.11-0.82-0.17-1.23c-0.06-0.41-0.33-0.78-0.39-1.2
			s-0.26-0.8-0.31-1.22c-0.06-0.41-0.04-0.83-0.1-1.24s-0.05-0.84-0.11-1.26c-0.06-0.41,0.05-0.84,0-1.26
			c-0.04-0.41-0.04-0.83-0.08-1.24c-0.03-0.41-0.38-0.8-0.41-1.22s0.1-0.84,0.07-1.26c-0.04-0.41-0.09-0.83-0.15-1.24
			c-0.05-0.41,0.03-0.84-0.03-1.26c-0.06-0.41-0.14-0.82-0.21-1.23c-0.07-0.41-0.49-0.76-0.56-1.17c-0.07-0.41-0.09-0.83-0.16-1.25
			c-0.06-0.41,0.18-0.86,0.14-1.28c-0.05-0.41-0.37-0.79-0.41-1.22c-0.03-0.41,0.19-0.85,0.16-1.27c-0.03-0.41-0.27-0.81-0.3-1.22
			c-0.03-0.41-0.04-0.83-0.08-1.25c-0.03-0.41-0.19-0.82-0.24-1.23c-0.04-0.41,0.17-0.85,0.15-1.27c-0.03-0.41-0.32-0.81-0.35-1.22
			c-0.03-0.41,0.26-0.84,0.23-1.27c-0.03-0.41-0.28-0.82-0.31-1.23c-0.03-0.41-0.2-0.82-0.24-1.23c-0.04-0.41-0.1-0.82-0.16-1.23
			s0.03-0.84-0.03-1.26c-0.06-0.41-0.13-0.82-0.2-1.23c-0.06-0.41-0.23-0.81-0.29-1.22C45.2,51.32,45.38,50.88,45.34,50.46z"/>
	</g>
	<g>
		<g>
			<g>
				<path d="M145.56,81.35c-0.04-0.39,0.24-0.81,0.22-1.21c-0.03-0.39-0.22-0.78-0.25-1.17c-0.02-0.4,0.05-0.79,0.02-1.19
					c-0.03-0.4,0.03-0.8-0.03-1.2c-0.05-0.4-0.17-0.78-0.25-1.17c-0.09-0.39-0.32-0.74-0.45-1.11c-0.13-0.37-0.36-0.69-0.54-1.04
					c-0.19-0.36-0.21-0.84-0.45-1.17c-0.25-0.33-0.56-0.63-0.85-0.91c-0.3-0.28-0.63-0.57-0.96-0.79c-0.34-0.23-0.7-0.5-1.05-0.68
					c-0.38-0.18-0.9,0.01-1.28-0.1c-0.38-0.11-0.72-0.28-1.12-0.28c-0.39,0-0.76,0.09-1.15,0.18c-0.37,0.09-0.81,0.02-1.18,0.16
					c-0.36,0.14-0.63,0.49-0.98,0.68c-0.34,0.18-0.78,0.22-1.1,0.44c-0.53,0.34-0.84,0.71-1.12,0.79c-0.47,0.14-0.57-0.27-0.89-0.84
					c-0.16-0.3-0.34-0.71-0.61-1.2c-0.19-0.34-0.48-0.62-0.69-0.96c-0.21-0.33-0.59-0.53-0.82-0.86c-0.22-0.32-0.25-0.78-0.48-1.09
					c-0.23-0.31-0.53-0.59-0.77-0.88c-0.24-0.3-0.37-0.72-0.63-1c-0.26-0.29-0.71-0.41-0.97-0.69c-0.27-0.28-0.47-0.64-0.76-0.88
					c-0.29-0.24-0.57-0.53-0.9-0.75c-0.32-0.22-0.72-0.29-1.07-0.48c-0.33-0.19-0.69-0.34-1.03-0.51c-0.34-0.17-0.72-0.28-1.07-0.44
					c-0.34-0.16-0.7-0.32-1.05-0.48c-0.34-0.16-0.54-0.6-0.88-0.78c-0.34-0.17-0.79-0.1-1.15-0.22c-0.35-0.12-0.7-0.17-1.09-0.17
					c-0.43,0-0.81-0.01-1.19,0.07c-0.41,0.09-0.82,0.12-1.17,0.29c-0.36,0.18-0.55,0.59-0.85,0.85c-0.29,0.26-0.79,0.34-1.03,0.68
					c-0.22,0.32-0.42,0.7-0.59,1.08c-0.16,0.35-0.3,0.75-0.42,1.16c-0.09,0.32-0.26,0.69-0.65,0.78c-0.45,0.11-0.23-0.63-0.47-0.91
					c-0.21-0.25-0.47-0.51-0.72-0.72c-0.26-0.22-0.49-0.42-0.71-0.66c-0.27-0.3-0.59-0.55-0.87-0.84c-0.28-0.28-0.57-0.57-0.86-0.84
					c-0.3-0.26-0.58-0.57-0.91-0.8c-0.33-0.23-0.66-0.47-1.02-0.67c-0.37-0.21-0.78-0.34-1.15-0.41c-0.39-0.09-0.8,0.2-1.18,0.24
					c-0.38,0.04-0.84-0.15-1.21,0c-0.34,0.14-0.56,0.59-0.91,0.8c-0.39,0.23-0.78,0.45-1.16,0.69c-0.39,0.24-0.86,0.35-1.21,0.64
					c-0.34,0.29-0.73,0.58-1.01,0.94c-0.23,0.32-0.5,0.65-0.7,0.99c-0.2,0.34-0.25,0.78-0.42,1.14c-0.17,0.35-0.31,0.73-0.47,1.09
					s-0.18,0.8-0.36,1.15c-0.18,0.35-0.66,0.53-0.87,0.86c-0.22,0.33-0.37,0.69-0.61,1.01c-0.24,0.31-0.55,0.57-0.79,0.88
					c-0.24,0.31-0.34,0.73-0.58,1.05c-0.24,0.31-0.44,0.66-0.65,0.98c-0.22,0.33-0.65,0.54-0.83,0.9c-0.15,0.29,0.02,1.22-0.41,1.16
					c-0.41-0.05-0.33-0.84-0.38-1.17c-0.07-0.41-0.16-0.81-0.2-1.22c-0.03-0.42-0.25-0.82-0.32-1.24c-0.08-0.41-0.2-0.83-0.28-1.24
					s0.19-0.89,0.14-1.31c-0.04-0.41-0.42-0.78-0.47-1.19c-0.04-0.41-0.15-0.81-0.19-1.22c-0.04-0.41-0.02-0.82-0.06-1.23
					c-0.04-0.41,0.01-0.83-0.05-1.23c-0.06-0.41,0.03-0.84-0.04-1.24c-0.07-0.41-0.47-0.76-0.53-1.16
					c-0.07-0.41,0.27-0.88,0.21-1.28s-0.14-0.81-0.21-1.22c-0.07-0.41-0.18-0.81-0.27-1.22c-0.08-0.41-0.32-0.78-0.41-1.17
					c-0.09-0.4-0.1-0.82-0.2-1.22c-0.09-0.4-0.22-0.79-0.32-1.19c-0.1-0.4-0.17-0.81-0.28-1.21c-0.1-0.4-0.49-0.72-0.6-1.11
					c-0.11-0.4-0.12-0.82-0.24-1.22c-0.12-0.4-0.34-0.76-0.46-1.16c-0.12-0.4-0.11-0.83-0.23-1.22c-0.13-0.39-0.3-0.77-0.43-1.16
					c-0.13-0.39-0.26-0.78-0.39-1.17c-0.14-0.39-0.37-0.74-0.51-1.13c-0.13-0.35-0.22-0.72-0.36-1.06c-0.14-0.34-0.16-0.74-0.3-1.09
					c-0.15-0.34-0.34-0.67-0.48-1.02c-0.16-0.34-0.27-0.7-0.42-1.04c-0.16-0.34-0.1-0.78-0.26-1.11c-0.16-0.34-0.42-0.64-0.56-0.98
					c-0.14-0.35-0.35-0.67-0.48-1.03c-0.14-0.35-0.43-0.64-0.57-0.98c-0.15-0.34-0.14-0.76-0.3-1.09c-0.16-0.34-0.3-0.7-0.49-1.02
					c-0.2-0.33-0.48-0.58-0.73-0.87c-0.24-0.28-0.47-0.59-0.73-0.86c-0.27-0.26-0.69-0.37-0.97-0.63c-0.28-0.26-0.38-0.71-0.65-0.97
					c-0.27-0.27-0.74-0.34-0.99-0.64s-0.3-0.75-0.55-1.03c-0.26-0.28-0.7-0.4-0.97-0.66c-0.27-0.28-0.36-0.72-0.64-0.98
					c-0.28-0.26-0.5-0.59-0.79-0.84s-0.62-0.46-0.93-0.68c-0.31-0.22-0.73-0.27-1.07-0.46c-0.34-0.19-0.59-0.52-0.93-0.69
					c-0.34-0.18-0.76-0.19-1.11-0.34c-0.34-0.16-0.7-0.3-1.06-0.43c-0.35-0.13-0.66-0.44-1.03-0.54c-0.36-0.1-0.78-0.01-1.16-0.08
					c-0.37-0.07-0.72-0.4-1.11-0.43c-0.43-0.03-0.86,0.17-1.26,0.2c-0.43,0.03-0.89-0.09-1.28,0.03c-0.41,0.12-0.84,0.31-1.17,0.52
					c-0.35,0.22-0.66,0.56-0.93,0.88c-0.26,0.3-0.27,0.78-0.44,1.18c-0.16,0.35-0.44,0.7-0.51,1.13c-0.06,0.38-0.22,0.8-0.22,1.25
					c0.01,0.41,0.39,0.82,0.39,1.23s-0.17,0.82-0.18,1.23s0.13,0.82,0.12,1.23c0,0.41-0.28,0.82-0.27,1.23
					c0.01,0.41,0.28,0.81,0.29,1.22c0.03,0.41-0.29,0.85-0.25,1.26c0.04,0.41,0.12,0.83,0.2,1.23c0.09,0.44,0.45,0.82,0.54,1.26
					c0.09,0.44,0.13,0.88,0.22,1.32c0.09,0.44,0.33,0.84,0.42,1.28c0.09,0.44-0.18,0.95-0.09,1.38c0.09,0.44,0.31,0.84,0.39,1.28
					s0.29,0.85,0.36,1.29c0.07,0.44-0.14,0.92-0.07,1.36s0.38,0.84,0.44,1.28c0.07,0.44,0.11,0.89,0.18,1.33s0.08,0.89,0.16,1.33
					s0.32,0.84,0.41,1.28c0.09,0.43,0.29,0.84,0.4,1.28c0.11,0.43,0.03,0.91,0.14,1.34c0.11,0.43,0.3,0.84,0.41,1.28
					c0.09,0.44,0.27,0.86,0.34,1.3c0.08,0.44,0.14,0.89,0.2,1.33c0.06,0.44-0.14,0.91-0.09,1.36c0.05,0.44-0.05,0.91,0,1.34
					c0.05,0.44,0.15,0.89,0.21,1.33c0.06,0.44,0.12,0.89,0.2,1.33c0.08,0.44,0.4,0.84,0.52,1.27c0.12,0.43,0.34,0.83,0.47,1.26
					c0.14,0.42,0.33,0.84,0.47,1.26c0.14,0.42,0.08,0.91,0.2,1.34c0.12,0.43,0.13,0.88,0.21,1.32c0.07,0.38,0.09,0.77,0.14,1.16
					c0.04,0.39,0.16,0.76,0.18,1.15c0.03,0.39,0.18,0.77,0.21,1.16s-0.01,0.78,0.02,1.16c0.03,0.39-0.08,0.78-0.04,1.17
					c0.03,0.39,0.03,0.78,0.09,1.17c0.06,0.38,0.28,0.74,0.32,1.13s0.32,0.74,0.35,1.13c0.04,0.39-0.22,0.8-0.17,1.19
					s0.22,0.76,0.26,1.14c0.04,0.39-0.03,0.78,0.02,1.17c0.05,0.39,0.17,0.76,0.24,1.14c0.07,0.38,0.32,0.72,0.43,1.09
					c0.1,0.37,0,0.81,0.13,1.18c0.13,0.36,0.35,0.7,0.5,1.06c0.14,0.36,0.1,0.79,0.24,1.16s0.26,0.72,0.39,1.09
					c0.12,0.37,0.52,0.66,0.61,1.03c0.15,0.57-0.15,1-0.41,1.42c-0.25,0.4-0.59,0.74-1.03,1.08c-0.35,0.28-0.78,0.52-1.08,0.84
					c-0.3,0.33-0.58,0.71-0.84,1.06c-0.27,0.35-0.28,0.9-0.53,1.27c-0.25,0.37-0.78,0.54-1.03,0.91c-0.26,0.36-0.28,0.91-0.56,1.26
					c-0.28,0.35-0.58,0.68-0.84,1.03c-0.27,0.36-0.76,0.59-0.97,0.97c-0.22,0.39-0.22,0.89-0.36,1.32c-0.14,0.4-0.39,0.78-0.46,1.18
					c-0.07,0.41-0.17,0.84-0.21,1.25c-0.03,0.41,0.28,0.85,0.26,1.28c-0.03,0.41-0.12,0.84-0.17,1.25c-0.05,0.41-0.22,0.81-0.3,1.22
					c-0.09,0.41-0.37,0.78-0.46,1.19c-0.09,0.41-0.17,0.84-0.22,1.26c-0.04,0.41,0.16,0.85,0.18,1.28c0,0.34-0.03,0.75-0.03,1.19
					c0,0.37,0.05,0.78,0.06,1.18c0.01,0.39-0.2,0.8-0.16,1.2c0.03,0.44,0.4,0.84,0.43,1.28c0.03,0.44-0.09,0.89-0.06,1.33
					c0.03,0.44,0,0.88,0.03,1.32c0.04,0.44,0.05,0.88,0.09,1.31c0.04,0.44,0.25,0.85,0.3,1.29c0.05,0.44,0.23,0.84,0.31,1.28
					c0.08,0.43,0.14,0.86,0.22,1.29s0.22,0.85,0.3,1.28c0.09,0.43,0.14,0.87,0.22,1.3c0.09,0.43,0.04,0.89,0.12,1.32
					c0.08,0.43,0.21,0.85,0.26,1.28c0.05,0.43-0.16,0.89-0.12,1.33c0.04,0.43,0.35,0.84,0.41,1.28c0.04,0.43,0.24,0.84,0.3,1.28
					c0.07,0.43-0.08,0.9,0.05,1.31c0.12,0.41,0.21,0.85,0.36,1.26c0.16,0.41,0.23,0.84,0.39,1.25c0.16,0.41,0.6,0.71,0.74,1.12
					c0.14,0.42,0.37,0.81,0.53,1.22c0.16,0.42,0.25,0.84,0.44,1.24c0.2,0.41,0.12,0.97,0.37,1.33c0.25,0.37,0.8,0.48,1.13,0.78
					c0.32,0.29,0.5,0.81,0.91,1.03c0.34,0.18,0.78,0.22,1.15,0.37c0.36,0.15,0.77,0.22,1.14,0.35c0.37,0.14,0.74,0.28,1.1,0.42
					c0.41,0.16,0.83,0.3,1.23,0.47c0.41,0.17,0.77,0.43,1.16,0.61c0.4,0.18,0.88,0.21,1.27,0.41c0.39,0.2,0.72,0.53,1.09,0.75
					c0.37,0.22,0.72,0.49,1.08,0.75c0.35,0.26,0.72,0.53,1.08,0.78c0.36,0.26,0.71,0.53,1.06,0.8s0.6,0.66,0.94,0.95
					s0.73,0.5,1.04,0.83c0.3,0.33,0.73,0.55,1,0.91c0.24,0.34,0.44,0.73,0.63,1.1c0.19,0.37,0.08,0.88,0.24,1.27
					c0.16,0.39,0.5,0.7,0.66,1.08c0.16,0.39,0.14,0.86,0.33,1.23s0.73,0.54,0.95,0.91c0.22,0.35,0.23,0.84,0.45,1.2
					c0.22,0.35,0.57,0.64,0.77,1.01c0.19,0.37,0.25,0.8,0.39,1.2c0.16,0.44,0.28,0.88,0.4,1.33c0.12,0.45,0.35,0.87,0.45,1.32
					c0.09,0.45-0.01,0.95,0.09,1.41c0.09,0.46,0.44,0.85,0.55,1.29c0.11,0.45-0.01,0.96,0.12,1.41c0.13,0.44,0.41,0.84,0.55,1.28
					c0.13,0.44,0.09,0.93,0.21,1.38c0.12,0.45,0.45,0.84,0.54,1.29c0.08,0.39-0.25,1,0.3,0.91c0.49-0.09-0.13-0.51-0.18-0.87
					c-0.05-0.39,0.32-0.8,0.31-1.19s-0.42-0.78-0.41-1.17c0.01-0.39,0.28-0.78,0.28-1.16c0.01-0.39,0.08-0.78,0.06-1.17
					s-0.25-0.76-0.32-1.14c-0.07-0.38-0.16-0.75-0.27-1.13c-0.1-0.37-0.22-0.74-0.34-1.11c-0.12-0.37-0.33-0.71-0.46-1.07
					c-0.13-0.37-0.12-0.78-0.24-1.15c-0.12-0.37-0.41-0.69-0.52-1.07c-0.1-0.37,0.12-0.84-0.01-1.21c-0.13-0.36-0.42-0.66-0.57-1.02
					c-0.15-0.35-0.14-0.78-0.3-1.13c-0.16-0.34-0.65-0.55-0.8-0.9c-0.16-0.34,0.02-0.84-0.14-1.2c-0.18-0.42-0.59-0.74-0.75-1.16
					c-0.16-0.43-0.28-0.87-0.44-1.29c-0.16-0.43-0.24-0.89-0.41-1.3c-0.18-0.42-0.33-0.86-0.53-1.26c-0.22-0.41-0.61-0.68-0.89-1.04
					c-0.28-0.36-0.63-0.65-0.94-0.97c-0.31-0.33-0.4-0.9-0.74-1.2c-0.34-0.3-0.78-0.5-1.13-0.78c-0.36-0.28-0.68-0.61-1.05-0.88
					c-0.37-0.27-0.72-0.57-1.09-0.83c-0.37-0.26-0.95-0.21-1.33-0.46c-0.38-0.24-0.71-0.56-1.1-0.78c-0.39-0.22-0.69-0.63-1.09-0.83
					c-0.41-0.2-0.84-0.36-1.26-0.53c-0.41-0.16-0.91-0.14-1.34-0.27c-0.41-0.12-0.72-0.43-1.08-0.59c-0.38-0.17-0.77-0.28-1.1-0.49
					c-0.34-0.22-0.53-0.61-0.84-0.87c-0.31-0.26-0.72-0.41-0.99-0.7c-0.28-0.29-0.46-0.71-0.74-1.02c-0.28-0.3-0.73-0.46-0.98-0.79
					c-0.25-0.33-0.39-0.73-0.57-1.11c-0.17-0.36-0.27-0.75-0.36-1.17c-0.08-0.34-0.07-0.67-0.01-1.03c0.06-0.36-0.08-0.71-0.16-1.04
					c-0.09-0.41-0.25-0.79-0.35-1.2c-0.11-0.41,0.09-0.9-0.01-1.29c-0.11-0.41-0.52-0.73-0.61-1.15c-0.09-0.41,0.11-0.87,0.07-1.28
					c-0.05-0.41,0.01-0.83-0.01-1.25c-0.02-0.41-0.21-0.83-0.21-1.25c0-0.42,0.13-0.84,0.11-1.26c-0.01-0.42-0.16-0.83-0.22-1.25
					c-0.04-0.43,0.02-0.87-0.03-1.29c-0.04-0.43-0.12-0.85-0.16-1.28c-0.04-0.43-0.35-0.83-0.4-1.26c-0.04-0.43-0.04-0.86-0.08-1.29
					c-0.03-0.43-0.03-0.86-0.06-1.29c-0.03-0.43,0.17-0.87,0.16-1.3c-0.02-0.43-0.06-0.86-0.1-1.3c-0.04-0.43-0.03-0.87-0.07-1.3
					c-0.04-0.43-0.29-0.84-0.34-1.28s0.13-0.88,0.1-1.31c-0.03-0.43-0.03-0.85-0.02-1.28s-0.28-0.88-0.22-1.31
					c0.04-0.39,0.11-0.77,0.16-1.15c0.06-0.39,0.4-0.72,0.47-1.09c0.08-0.38-0.09-0.81,0-1.17c0.09-0.38,0.38-0.7,0.48-1.06
					c0.11-0.37,0.18-0.75,0.31-1.1c0.14-0.37,0.17-0.77,0.33-1.1c0.16-0.35,0.26-0.74,0.44-1.09c0.18-0.34,0.65-0.52,0.86-0.84
					c0.21-0.33,0.25-0.77,0.48-1.07c0.23-0.31,0.66-0.45,0.91-0.74c0.26-0.28,0.53-0.54,0.81-0.81c0.28-0.27,0.42-0.68,0.73-0.91
					c0.29-0.23,0.74-0.25,1.07-0.47c0.31-0.21,0.48-0.66,0.83-0.85c0.33-0.18,0.78-0.14,1.14-0.3c0.34-0.16,0.66-0.39,1.01-0.54
					c0.34-0.15,0.62-0.52,0.98-0.66c0.35-0.13,0.78-0.09,1.15-0.22c0.41-0.14,0.86-0.07,1.29-0.15c0.42-0.07,0.84-0.24,1.27-0.28
					c0.43-0.04,0.88,0.09,1.31,0.06s0.85-0.22,1.28-0.29c0.42-0.07,0.84-0.22,1.26-0.29c0.42-0.07,0.86-0.08,1.28-0.14
					c0.42-0.06,0.84-0.18,1.27-0.23s0.85-0.12,1.28-0.16c0.44-0.04,0.89-0.11,1.33-0.13c0.44-0.02,0.9,0.26,1.34,0.24
					c0.44-0.01,0.88-0.28,1.32-0.3c0.44-0.02,0.91,0.24,1.34,0.21c0.44-0.03,0.87-0.26,1.31-0.3c0.44-0.04,0.86-0.32,1.3-0.36
					c0.44-0.04,0.92,0.31,1.36,0.28c0.44-0.03,0.88-0.09,1.32-0.13c0.37-0.03,0.75-0.08,1.13-0.12c0.37-0.04,0.7-0.46,1.07-0.52
					c0.37-0.05,0.75-0.03,1.12-0.09c0.37-0.07,0.74-0.12,1.1-0.21c0.37-0.09,0.74-0.15,1.09-0.26c0.35-0.11,0.72-0.23,1.05-0.39
					c0.34-0.16,0.78-0.14,1.11-0.32c0.33-0.18,0.52-0.61,0.84-0.81c0.32-0.19,0.61-0.44,0.93-0.63c0.32-0.19,0.62-0.44,0.95-0.61
					c0.41-0.22,0.91,0.03,1.32,0.03c0.41-0.01,0.74,0.06,1.15,0.27c0.35,0.17,0.76,0.28,1.11,0.59c0.34,0.3,0.72,0.48,0.92,0.76
					c0.24,0.34,0.31,0.75,0.3,1.16c-0.01,0.33,0.08,0.78-0.1,1.22c-0.16,0.41-0.61,0.69-0.82,1.08c-0.2,0.39-0.28,0.84-0.51,1.22
					c-0.22,0.37-0.6,0.66-0.86,1.01c-0.25,0.36-0.35,0.84-0.63,1.18c-0.28,0.34-0.54,0.71-0.84,1.03c-0.26,0.28-0.76,0.33-1.03,0.6
					c-0.27,0.28-0.54,0.53-0.82,0.78c-0.28,0.27-0.46,0.62-0.74,0.87c-0.28,0.26-0.62,0.45-0.91,0.69
					c-0.29,0.24-0.58,0.49-0.88,0.72s-0.61,0.45-0.92,0.66c-0.37,0.26-0.77,0.47-1.16,0.72c-0.38,0.24-0.78,0.47-1.16,0.7
					c-0.39,0.23-0.71,0.59-1.1,0.81c-0.4,0.22-0.7,0.63-1.09,0.84c-0.41,0.22-1,0.06-1.4,0.28c-0.35,0.18-0.51,0.74-0.86,0.92
					s-0.72,0.32-1.08,0.51c-0.35,0.18-0.74,0.29-1.09,0.48c-0.35,0.18-0.75,0.28-1.09,0.47c-0.35,0.18-0.73,0.29-1.12,0.42
					c-0.38,0.12-0.72,0.41-1.1,0.52c-0.39,0.1-0.78,0.2-1.16,0.32c-0.38,0.13-0.89-0.01-1.24,0.17c-0.23,0.12-0.38,0.55-0.59,0.82
					c-0.2,0.26-0.3,0.54-0.28,0.84c0.03,0.34,0.21,0.54,0.49,0.72c0.28,0.17,0.63,0.19,0.9,0.28c0.42,0.14,0.84,0.28,1.25,0.45
					c0.41,0.17,0.65,0.69,1.03,0.89c0.4,0.2,0.94,0.1,1.32,0.33c0.38,0.22,0.76,0.46,1.12,0.69c0.37,0.24,0.65,0.61,1.01,0.86
					s0.78,0.43,1.14,0.68c0.36,0.25,0.8,0.4,1.16,0.66c0.36,0.26,0.53,0.76,0.88,1.03c0.34,0.28,0.72,0.52,1.03,0.82
					s0.55,0.68,0.84,1.02c0.25,0.3,0.72,0.42,0.94,0.74c0.22,0.32,0.22,0.77,0.4,1.1c0.18,0.34,0.27,0.72,0.42,1.07
					c0.16,0.35,0.53,0.61,0.67,0.97c0.14,0.36,0.15,0.77,0.28,1.13c0.13,0.36,0.14,0.77,0.27,1.13c0.16,0.43,0.6,0.77,0.72,1.2
					c0.11,0.44-0.03,0.93,0.04,1.38c0.07,0.44,0,0.89,0.03,1.34c0.03,0.44,0.39,0.89,0.36,1.35c-0.03,0.43-0.1,0.9-0.18,1.35
					c-0.08,0.48,0.16,0.98,0.37,1.42c0.17,0.35,0.47,0.69,0.38,1.07c-0.09,0.36-0.24,0.72-0.3,1.08c-0.07,0.39-0.23,0.76-0.29,1.15
					c-0.07,0.39-0.36,0.73-0.42,1.12c-0.07,0.39,0.08,0.81,0.02,1.2c-0.06,0.39-0.1,0.78-0.15,1.16c-0.04,0.39-0.27,0.76-0.29,1.16
					c-0.03,0.39-0.1,0.78-0.12,1.18c-0.01,0.48,0.32,1.06,0.94,1.19c0.66,0.14,0.76-0.44,0.94-0.94c0.16-0.46,0.57-0.84,0.66-1.31
					c0.1-0.47-0.14-1-0.08-1.47c0.07-0.47,0.45-0.91,0.51-1.38c0.05-0.44,0.03-0.88,0.09-1.32c0.05-0.44-0.2-0.91-0.14-1.35
					c0.06-0.44,0.41-0.83,0.48-1.26c0.08-0.43-0.03-0.91,0.06-1.34c0.09-0.4,0.41-0.72,0.5-1.11c0.09-0.4-0.07-0.83-0.01-1.22
					c0.07-0.4,0.04-0.79,0.08-1.18c0.04-0.4,0.4-0.78,0.41-1.17c0-0.4-0.33-0.78-0.38-1.16c-0.05-0.4-0.14-0.78-0.22-1.17
					c-0.08-0.4,0.03-0.83-0.09-1.22c-0.11-0.39-0.31-0.74-0.45-1.12c-0.14-0.38-0.34-0.72-0.51-1.09c-0.17-0.36-0.13-0.84-0.33-1.19
					s-0.73-0.47-0.97-0.79c-0.23-0.32-0.34-0.72-0.6-1.03c-0.25-0.3-0.47-0.65-0.74-0.94c-0.27-0.28-0.48-0.65-0.77-0.93
					c-0.28-0.28-0.66-0.47-0.96-0.74c-0.31-0.29-0.64-0.58-0.98-0.82c-0.35-0.24-0.64-0.6-1.01-0.82c-0.37-0.21-0.83-0.27-1.21-0.47
					c-0.38-0.2-0.68-0.53-1.05-0.74c-0.37-0.21-0.73-0.42-1.09-0.65c-0.36-0.22-0.83-0.28-1.19-0.51c-0.36-0.22-0.71-0.48-1.08-0.69
					c-0.37-0.21-0.75-0.4-1.14-0.57c-0.41-0.19-1.28-0.28-1.29-0.79c-0.02-0.59,0.82-0.85,1.22-1c0.41-0.16,0.74-0.53,1.15-0.69
					c0.41-0.16,0.94-0.04,1.34-0.22c0.41-0.17,0.78-0.42,1.18-0.6c0.4-0.18,0.66-0.66,1.05-0.85c0.4-0.2,0.96-0.06,1.34-0.27
					c0.39-0.21,0.72-0.53,1.1-0.74c0.38-0.22,0.67-0.58,1.05-0.81c0.4-0.25,0.86-0.2,1.15-0.33c0.53-0.24,0.68-0.28,0.91-0.09
					c0.21,0.17,0.24,0.4,0.31,0.96c0.03,0.32,0.32,0.69,0.33,1.15c0.01,0.43,0.04,0.8,0.13,1.13c0.1,0.41,0.25,0.74,0.47,1.03
					c0.24,0.3,0.56,0.41,0.93,0.57c0.33,0.13,0.64,0.52,1.06,0.53c0.35,0.02,0.74-0.16,1.16-0.22c0.43-0.06,0.87-0.05,1.28-0.14
					c0.42-0.09,0.76-0.47,1.17-0.59c0.41-0.12,0.88-0.03,1.28-0.18c0.4-0.15,0.77-0.38,1.16-0.56c0.39-0.17,0.82-0.26,1.21-0.47
					c0.41-0.22,0.78-0.41,1.04-0.22c0.22,0.16,0.31,0.59,0.57,0.93c0.24,0.32,0.44,0.7,0.73,0.91c0.31,0.22,0.69,0.41,1.05,0.54
					c0.35,0.13,0.78,0.04,1.16,0.1c0.37,0.06,0.74,0.13,1.13,0.15c0.37,0.02,0.76,0,1.15-0.01c0.41-0.01,0.83,0.14,1.22,0.11
					c0.41-0.03,0.84-0.03,1.23-0.09c0.4-0.07,0.74-0.4,1.13-0.53c0.38-0.12,0.8-0.16,1.17-0.34c0.53-0.27,0.97-0.44,1.33-0.32
					c0.38,0.13,0.51,0.53,0.64,1.14c0.09,0.4,0.22,0.78,0.34,1.12c0.14,0.38,0.46,0.66,0.64,0.98c0.2,0.34,0.34,0.71,0.59,1
					c0.26,0.29,0.61,0.47,0.91,0.72c0.3,0.23,0.53,0.59,0.88,0.78c0.33,0.18,0.77,0.15,1.14,0.29c0.35,0.14,0.74,0.14,1.12,0.24
					c0.38,0.1,0.72,0.34,1.09,0.38c0.39,0.04,0.78,0.31,1.16,0.3c0.39,0,0.79-0.1,1.18-0.15c0.39-0.04,0.75-0.26,1.14-0.34
					c0.53-0.11,0.84-0.1,1.01,0.07c0.15,0.17,0.22,0.51,0.16,1.03c-0.03,0.31-0.19,0.65-0.13,0.97c0.05,0.32,0.22,0.61,0.18,0.92
					c-0.06,0.39-0.22,0.76-0.3,1.14c-0.08,0.39-0.22,0.75-0.3,1.14c-0.09,0.38-0.18,0.76-0.28,1.14s-0.03,0.8-0.13,1.18
					c-0.1,0.38-0.07,0.79-0.17,1.17c-0.1,0.38-0.45,0.69-0.55,1.07s-0.23,0.74-0.35,1.11c-0.12,0.37-0.1,0.79-0.24,1.16
					c-0.14,0.36-0.22,0.76-0.36,1.12c-0.15,0.36-0.35,0.7-0.5,1.06c-0.16,0.36-0.29,0.72-0.44,1.09c-0.15,0.36-0.22,0.75-0.36,1.11
					c-0.14,0.36-0.43,0.67-0.56,1.05c-0.13,0.37-0.34,0.71-0.47,1.09c-0.12,0.37-0.08,0.8-0.2,1.17c-0.12,0.37-0.07,0.81-0.21,1.17
					c-0.13,0.37-0.42,0.68-0.58,1.04c-0.15,0.36-0.43,0.66-0.6,1.01c-0.18,0.36-0.14,0.84-0.33,1.2c-0.19,0.36-0.4,0.72-0.59,1.07
					c-0.2,0.35-0.59,0.6-0.79,0.96c-0.2,0.35-0.34,0.74-0.54,1.09c-0.2,0.35-0.38,0.72-0.59,1.07c-0.21,0.34-0.47,0.66-0.67,1.01
					c-0.21,0.34-0.29,0.76-0.48,1.12c-0.19,0.35-0.53,0.64-0.69,1.02c-0.16,0.39-0.31,0.78-0.47,1.17c-0.16,0.39-0.2,0.83-0.34,1.22
					c-0.16,0.4-0.3,0.78-0.44,1.18c-0.14,0.4-0.12,0.84-0.24,1.24c-0.12,0.41-0.4,0.76-0.49,1.17c-0.09,0.41-0.35,0.8-0.41,1.22
					c-0.05,0.41,0.29,0.87,0.27,1.29s-0.14,0.84-0.15,1.26c-0.02,0.42,0.07,0.84,0.06,1.27c-0.02,0.42-0.13,0.84-0.16,1.27
					c-0.03,0.38-0.25,0.74-0.28,1.11c-0.03,0.38-0.18,0.75-0.2,1.12c-0.03,0.38,0.03,0.76,0.02,1.14c-0.01,0.38,0.18,0.76,0.19,1.13
					c0.01,0.38,0.08,0.74,0.11,1.12c0.03,0.38,0.08,0.74,0.14,1.11c0.06,0.37-0.01,0.77,0.08,1.14c0.08,0.37,0.34,0.69,0.44,1.05
					c0.09,0.36-0.09,0.8,0.01,1.16c0.09,0.36,0.3,0.7,0.4,1.07c0.05,0.19,0.34-0.28,0.84-0.97c0.22-0.32,0.66-0.58,0.95-0.98
					c0.25-0.34,0.53-0.74,0.81-1.12c0.02-0.39-0.06-0.82-0.03-1.21s0.14-0.77,0.16-1.16c0.03-0.39-0.11-0.78-0.09-1.17
					c0.02-0.39,0.04-0.78,0.04-1.16c0-0.39,0.28-0.79,0.24-1.18c-0.03-0.42-0.19-0.84-0.23-1.25c-0.04-0.41-0.31-0.81-0.36-1.22
					c-0.05-0.41,0.21-0.87,0.16-1.28c-0.04-0.42-0.22-0.82-0.24-1.24c-0.03-0.42-0.12-0.84-0.12-1.26s-0.13-0.85-0.09-1.28
					c0.04-0.41,0.47-0.74,0.55-1.14c0.09-0.4-0.16-0.89-0.03-1.27c0.13-0.39,0.5-0.68,0.65-1.06s0.43-0.7,0.59-1.07
					c0.16-0.37,0.07-0.84,0.25-1.2c0.18-0.35,0.52-0.62,0.72-0.97c0.2-0.34,0.5-0.63,0.71-0.97c0.21-0.34,0.33-0.73,0.53-1.08
					c0.22-0.37,0.33-0.8,0.55-1.16c0.22-0.36,0.46-0.72,0.68-1.09s0.51-0.69,0.73-1.05c0.22-0.36,0.57-0.66,0.77-1.04
					c0.21-0.38,0.28-0.82,0.48-1.2c0.21-0.37,0.51-0.7,0.71-1.08c0.2-0.38,0.41-0.76,0.6-1.14c0.19-0.39,0.16-0.87,0.33-1.27
					c0.15-0.36,0.29-0.72,0.42-1.08c0.12-0.37,0.16-0.76,0.27-1.13s0.29-0.72,0.39-1.09c0.09-0.38,0.07-0.78,0.16-1.16
					c0.09-0.38,0.48-0.68,0.57-1.06c0.09-0.38,0.06-0.78,0.16-1.16c0.1-0.37,0.07-0.78,0.16-1.15c0.09-0.38,0.14-0.76,0.21-1.13
					c0.08-0.38,0.27-0.73,0.33-1.11c0.06-0.38,0.15-0.76,0.21-1.14c0.06-0.38,0.07-0.77,0.12-1.15s0-0.78,0.04-1.16
					c0.04-0.38,0.29-0.74,0.32-1.12c0.03-0.38-0.06-0.78-0.04-1.16c0.02-0.38-0.02-0.77-0.01-1.15c0.01-0.38,0.27-0.77,0.27-1.15
					c0-0.38-0.21-0.77-0.22-1.16c-0.01-0.38-0.04-0.77-0.05-1.15c-0.02-0.47,0.13-0.99,0.28-1.48c0.15-0.48,0.36-0.96,0.72-1.3
					c0.32-0.31,0.77-0.51,1.05-0.84c0.29-0.34,0.54-0.72,0.8-1.07c0.26-0.36,0.42-0.79,0.63-1.17c0.22-0.38,0.2-0.86,0.36-1.28
					c0.16-0.41,0.51-0.74,0.6-1.18c0.09-0.38,0.1-0.78,0.2-1.16c0.09-0.38,0.41-0.7,0.51-1.07c0.1-0.38-0.12-0.84-0.03-1.22
					c0.09-0.38,0.24-0.73,0.33-1.11c0.09-0.38,0.17-0.75,0.23-1.14c0.06-0.39,0.15-0.76,0.16-1.15c0.03-0.39-0.01-0.78-0.01-1.16
					c0-0.39,0.26-0.78,0.26-1.17c-0.01-0.39-0.03-0.78-0.02-1.16c0-0.39,0.03-0.77,0.06-1.16c0.03-0.39-0.26-0.82-0.19-1.21
					c0.06-0.39,0.17-0.77,0.25-1.16c0.08-0.38,0.26-0.74,0.34-1.13c0.07-0.39,0.04-0.78,0.09-1.16c0.04-0.39,0.3-0.77,0.29-1.16
					c-0.01-0.39-0.23-0.77-0.28-1.16s-0.13-0.76-0.2-1.15c-0.07-0.38,0.1-0.81,0.03-1.2c-0.08-0.38-0.39-0.72-0.46-1.1
					C145.7,82.12,145.6,81.74,145.56,81.35z M115.95,100.07c-0.29,0.27-0.8,0.28-1.12,0.51c-0.32,0.23-0.54,0.59-0.89,0.8
					c-0.34,0.2-0.73,0.3-1.09,0.48c-0.35,0.17-0.75,0.25-1.11,0.41s-0.71,0.34-1.09,0.48c-0.37,0.14-0.7,0.39-1.08,0.52
					c-0.38,0.12-0.72,0.34-1.1,0.46c-0.75,0.24-1.14,0.1-1.44-0.05c-0.3-0.16-0.42-0.46-0.66-1.22c-0.15-0.47-0.34-0.92-0.51-1.37
					c-0.18-0.46-0.27-0.87-0.31-1.36c-0.05-0.62,0.6-0.89,1.01-1.27c0.33-0.3,0.72-0.52,1.03-0.84c0.3-0.32,0.57-0.68,0.85-1.02
					c0.29-0.34,0.72-0.56,0.99-0.91c0.28-0.35,0.38-0.83,0.65-1.18c0.27-0.35,0.64-0.64,0.84-1.03c0.2-0.39,0.2-0.87,0.36-1.28
					c0.16-0.41,0.56-0.73,0.72-1.15c0.15-0.41,0.32-0.81,0.48-1.22c0.16-0.37,0.22-0.78,0.39-1.16c0.16-0.37,0.13-0.83,0.28-1.21
					s0.51-0.69,0.6-1.09c0.09-0.4,0.09-0.82,0.1-1.23c0.01-0.4,0.13-0.85,0.02-1.26c-0.13-0.51-0.59-0.83-0.88-1.13
					c-0.32-0.33-0.66-0.66-1.12-0.81c-0.41-0.13-0.89-0.28-1.39-0.3c-0.4-0.02-0.78,0.14-1.15,0.18c-0.38,0.04-0.74,0.16-1.11,0.25
					c-0.36,0.09-0.69,0.28-1.05,0.42c-0.35,0.14-0.75,0.23-1.14,0.29c-0.38,0.06-0.81-0.19-1.19-0.13
					c-0.38,0.06-0.71,0.39-1.06,0.52c-0.59,0.21-0.96,0.39-1.18,0.34c-0.24-0.04-0.41-0.41-0.62-1.07
					c-0.16-0.49-0.21-1.01-0.34-1.51c-0.09-0.3-0.23-0.2-0.63-0.15c-0.38,0.05-0.97-0.03-0.97,0.28c0,0.55,0.78,1.07,0.84,1.61
					c0.08,0.66,0,0.94-0.32,1.16c-0.28,0.21-0.7,0.2-1.28,0.28c-0.4,0.05-0.78,0.18-1.17,0.23c-0.4,0.05-0.79,0.08-1.19,0.13
					c-0.4,0.05-0.79,0.09-1.19,0.14c-0.4,0.04-0.78,0.16-1.18,0.2c-0.4,0.04-0.79,0.07-1.19,0.1c-0.4,0.03-0.79-0.01-1.2,0.02
					c-0.4,0.03-0.79,0.02-1.19,0.03c-0.42,0.02-0.84,0.05-1.26,0.07c-0.42,0.02-0.83,0.34-1.24,0.35c-0.42,0.02-0.85-0.28-1.27-0.25
					c-0.42,0.03-0.82,0.36-1.23,0.39c-0.41,0.03-0.84,0.06-1.25,0.1c-0.41,0.04-0.85-0.09-1.27-0.03c-0.41,0.06-0.84,0.05-1.26,0.12
					c-0.41,0.07-0.84,0.09-1.25,0.18c-0.41,0.08-0.79,0.31-1.2,0.41c-0.41,0.09-0.81,0.22-1.22,0.34c-0.41,0.1-0.76,0.4-1.16,0.52
					c-0.4,0.12-0.9-0.05-1.29,0.09c-0.33,0.11-0.62,0.35-0.92,0.53c-0.3,0.17-0.64,0.28-0.94,0.46s-0.52,0.51-0.84,0.63
					c-0.39,0.15-0.83,0.1-1.13-0.11c-0.28-0.21-0.24-0.63-0.27-1.04c-0.03-0.47-0.46-0.91-0.48-1.37c-0.03-0.47,0.28-0.95,0.25-1.41
					s-0.14-0.92-0.17-1.39c-0.03-0.47-0.23-0.91-0.29-1.37c-0.06-0.47-0.16-0.91-0.22-1.38c-0.06-0.47,0.22-0.97,0.16-1.43
					c-0.06-0.46-0.46-0.88-0.53-1.34c-0.07-0.46-0.21-0.91-0.28-1.36c-0.08-0.46-0.08-0.93-0.16-1.39c-0.08-0.46-0.04-0.94-0.12-1.4
					c-0.08-0.46,0-0.94-0.08-1.41c-0.08-0.46-0.48-0.86-0.57-1.32c-0.08-0.46,0.22-0.99,0.14-1.45c-0.09-0.46-0.2-0.91-0.29-1.37
					c-0.09-0.46-0.22-0.91-0.32-1.36c-0.09-0.46-0.33-0.89-0.41-1.34c-0.07-0.41-0.03-0.84-0.08-1.27
					c-0.04-0.42-0.11-0.84-0.15-1.26c-0.03-0.42-0.03-0.84-0.07-1.26c-0.03-0.42-0.36-0.81-0.41-1.23
					c-0.04-0.42,0.01-0.84-0.06-1.26c-0.07-0.41-0.26-0.79-0.38-1.2s-0.11-0.84-0.25-1.25c-0.14-0.4-0.33-0.78-0.47-1.18
					c-0.14-0.41-0.27-0.81-0.38-1.22c-0.12-0.41-0.32-0.82-0.39-1.23c-0.07-0.41-0.09-0.84-0.15-1.26
					c-0.06-0.41,0.03-0.85-0.03-1.27c-0.05-0.41-0.15-0.83-0.21-1.25c-0.05-0.41-0.07-0.84-0.13-1.26
					c-0.06-0.41,0.09-0.87,0.03-1.28c-0.07-0.41-0.26-0.81-0.32-1.22c-0.05-0.41-0.19-0.83-0.23-1.24
					c-0.05-0.41-0.26-0.82-0.31-1.23c-0.05-0.42,0.07-0.85,0.02-1.28c-0.05-0.41-0.07-0.84-0.14-1.26
					c-0.07-0.41-0.22-0.81-0.31-1.22c-0.08-0.41-0.11-0.84-0.2-1.25c-0.09-0.41-0.38-0.78-0.47-1.19c-0.09-0.41,0.08-0.88,0-1.29
					c-0.09-0.41-0.44-0.78-0.51-1.19c-0.07-0.39,0.14-0.82,0.09-1.21s-0.34-0.76-0.38-1.15c-0.03-0.39,0.19-0.8,0.17-1.2
					c-0.02-0.39,0.07-0.78,0.06-1.18c-0.01-0.39-0.03-0.78-0.03-1.18c0.01-0.39-0.17-0.78-0.16-1.18c0.02-0.53,0.22-0.97,0.29-1.35
					c0.11-0.53,0.14-1.02,0.41-1.32c0.28-0.31,0.72-0.54,1.25-0.66c0.38-0.08,0.85,0.09,1.4,0.09c0.42,0,0.83-0.15,1.21-0.09
					c0.41,0.06,0.72,0.41,1.1,0.53c0.39,0.11,0.82,0.05,1.19,0.21c0.36,0.16,0.63,0.51,0.98,0.7c0.36,0.2,0.72,0.38,1.08,0.59
					c0.35,0.2,0.73,0.35,1.08,0.58c0.34,0.22,0.82,0.26,1.14,0.53c0.31,0.25,0.49,0.66,0.78,0.97c0.3,0.33,0.48,0.74,0.74,1.09
					c0.27,0.35,0.84,0.5,1.08,0.86c0.24,0.37,0.34,0.84,0.58,1.22c0.23,0.38,0.59,0.68,0.82,1.05c0.24,0.38,0.28,0.9,0.57,1.25
					c0.28,0.35,0.77,0.53,1.05,0.89c0.28,0.35,0.28,0.91,0.53,1.28c0.26,0.37,0.48,0.72,0.67,1.12c0.19,0.41,0.6,0.72,0.75,1.15
					c0.14,0.42,0.21,0.88,0.33,1.31c0.12,0.43,0.37,0.83,0.5,1.26c0.13,0.43-0.09,0.97,0.07,1.4c0.14,0.36,0.39,0.67,0.51,1.03
					c0.11,0.36,0.35,0.7,0.46,1.06c0.1,0.37-0.07,0.81,0.03,1.18c0.09,0.37,0.43,0.68,0.53,1.05c0.1,0.37,0.18,0.74,0.29,1.11
					c0.11,0.37,0.19,0.75,0.34,1.11c0.16,0.35,0.46,0.64,0.63,0.99c0.17,0.34,0.42,0.66,0.59,1.01c0.16,0.35,0.15,0.79,0.28,1.15
					c0.14,0.36,0.35,0.71,0.45,1.09c0.09,0.38,0.24,0.75,0.3,1.14c0.06,0.38,0.1,0.78,0.14,1.16c0.03,0.38-0.17,0.79-0.14,1.17
					c0.03,0.39-0.08,0.78-0.03,1.17c0.04,0.38,0.15,0.78,0.22,1.15c0.07,0.38,0.16,0.77,0.26,1.14c0.09,0.37,0.42,0.68,0.53,1.05
					c0.11,0.37,0.3,0.72,0.41,1.09c0.1,0.37,0.24,0.74,0.34,1.11c0.09,0.38-0.04,0.8,0.02,1.18c0.05,0.38-0.01,0.77,0.01,1.16
					s-0.01,0.77-0.02,1.16c0,0.39,0.06,0.78,0.06,1.16c-0.01,0.39,0.12,0.78,0.13,1.16c0.01,0.39-0.03,0.78,0.02,1.16
					c0.04,0.41-0.03,0.84,0.05,1.26c0.08,0.41,0.11,0.83,0.2,1.23c0.09,0.41,0.34,0.78,0.44,1.17c0.09,0.41,0.41,0.77,0.47,1.17
					c0.08,0.41-0.15,0.86-0.1,1.28c0.03,0.24-0.39,0.54-0.34,0.78c0.06,0.32,0.14,0.7,0.38,0.95c0.24,0.24,0.6,0.4,0.92,0.46
					c0.33,0.06,0.59-0.16,0.87-0.33c0.28-0.16,0.68-0.25,0.83-0.51c0.2-0.35,0.3-0.77,0.47-1.13c0.17-0.36,0.51-0.66,0.67-1.03
					c0.16-0.37,0.34-0.73,0.51-1.09s0.1-0.86,0.31-1.21c0.23-0.41,0.65-0.69,0.9-1.09c0.25-0.4,0.47-0.79,0.74-1.18
					c0.26-0.39,0.62-0.7,0.89-1.08c0.27-0.38,0.52-0.78,0.78-1.16c0.22-0.3,0.17-0.78,0.37-1.11c0.2-0.32,0.67-0.47,0.87-0.79
					c0.2-0.32,0.12-0.82,0.33-1.13c0.21-0.32,0.46-0.61,0.69-0.91c0.23-0.29,0.69-0.38,0.96-0.64c0.08-0.07,0.58,0.3,0.65,0.23
					c0.34-0.32,0.76-0.47,1.06-0.72c0.38-0.28,0.73-0.44,1.09-0.6c0.42-0.19,0.74-0.61,1.15-0.61c0.41-0.01,0.84,0.16,1.27,0.34
					c0.35,0.16,0.67,0.45,1.05,0.72c0.31,0.23,0.5,0.65,0.84,0.97c0.28,0.26,0.54,0.53,0.81,0.79c0.28,0.27,0.7,0.38,0.96,0.66
					c0.26,0.28,0.5,0.58,0.74,0.86c0.24,0.29,0.53,0.55,0.75,0.86c0.22,0.3,0.26,0.74,0.47,1.06c0.21,0.32,0.7,0.47,0.91,0.78
					c0.22,0.32,0.3,0.72,0.52,1.04c0.22,0.32,0.37,0.68,0.58,1c0.21,0.33,0.37,0.66,0.56,1c0.19,0.34,0.49,0.6,0.65,0.97
					c0.16,0.39,0.42,0.75,0.54,1.15c0.12,0.4,0.22,0.82,0.32,1.22c0.09,0.41,0.22,0.82,0.31,1.22c0.09,0.41,0.13,0.83,0.22,1.24
					c0.09,0.41,0.07,0.84,0.17,1.25c0.11,0.41,0.31,0.78,0.44,1.18c0.13,0.4,0.03,0.88,0.16,1.28c0.14,0.4,0.53,0.71,0.66,1.1
					c0.13,0.4,0.39,0.77,0.49,1.17c0.1,0.41-0.04,0.87,0.02,1.28c0.06,0.41,0.04,0.84,0.09,1.25c0.03,0.41-0.03,0.84-0.01,1.26
					c0.02,0.42,0.34,0.83,0.35,1.24c0.02,0.42,0.12,0.84,0.13,1.25c0.02,0.42-0.04,0.84-0.02,1.26c-0.01,0.43-0.36,0.85-0.39,1.28
					c-0.03,0.43,0.28,0.9,0.22,1.31c-0.06,0.43-0.45,0.79-0.55,1.21c-0.09,0.42-0.09,0.86-0.23,1.26c-0.15,0.41-0.26,0.83-0.47,1.2
					c-0.21,0.37-0.45,0.73-0.72,1.07C116.49,99.37,116.28,99.77,115.95,100.07z M125.49,103.35c-0.34,0.23-0.83,0.16-1.16,0.32
					c-0.36,0.17-0.65,0.47-1.01,0.57c-0.38,0.1-0.77,0.08-1.16,0.11s-0.75-0.05-1.15-0.08c-0.38-0.03-0.76-0.02-1.15-0.09
					c-0.37-0.07-0.78-0.03-1.16-0.13c-0.37-0.1-0.77-0.13-1.15-0.26c-0.53-0.18-0.69-0.44-0.77-0.52c-0.1-0.09,0.09-0.03,0.6-0.45
					c0.37-0.3,0.72-0.66,0.98-1.02c0.28-0.37,0.58-0.77,0.78-1.18c0.21-0.41,0.06-0.99,0.23-1.41c0.17-0.43,0.47-0.81,0.64-1.23
					c0.17-0.42,0.31-0.86,0.5-1.28c0.18-0.42,0.53-0.78,0.69-1.21s0.09-0.93,0.21-1.38c0.1-0.44,0.34-0.87,0.37-1.34
					c0.03-0.45-0.16-0.9-0.16-1.34c-0.01-0.45,0.24-0.91,0.22-1.34c-0.03-0.45-0.06-0.9-0.11-1.34s-0.23-0.87-0.29-1.31
					c-0.07-0.44-0.36-0.84-0.44-1.28c-0.08-0.44,0.05-0.92-0.08-1.34c-0.13-0.42-0.34-0.83-0.48-1.24c-0.16-0.41-0.16-0.89-0.32-1.3
					c-0.16-0.41-0.56-0.73-0.72-1.15s-0.17-0.87-0.3-1.29c-0.13-0.42-0.16-0.87-0.27-1.3c-0.1-0.43-0.34-0.83-0.44-1.26
					c-0.09-0.43-0.23-0.85-0.34-1.28c-0.11-0.43-0.29-0.83-0.43-1.25c-0.13-0.42-0.28-0.83-0.46-1.23c-0.17-0.41-0.1-0.93-0.31-1.32
					c-0.21-0.39-0.66-0.65-0.89-1.03c-0.22-0.38-0.49-0.73-0.72-1.1c-0.24-0.37-0.45-0.76-0.69-1.13c-0.24-0.37-0.4-0.79-0.63-1.17
					c-0.2-0.33-0.55-0.65-0.61-1.03c-0.06-0.37,0.27-0.78,0.32-1.16c0.05-0.38,0.14-0.73,0.28-1.09c0.15-0.36,0.31-0.68,0.53-1
					c0.22-0.32,0.52-0.53,0.81-0.77c0.3-0.25,0.56-0.48,0.92-0.6c0.47-0.16,0.84-0.05,1.3,0.09c0.43,0.14,0.88,0.35,1.33,0.47
					c0.4,0.1,0.79,0.13,1.16,0.24c0.39,0.11,0.75,0.25,1.12,0.39c0.37,0.15,0.69,0.36,1.03,0.55c0.34,0.19,0.64,0.41,0.96,0.66
					c0.32,0.25,0.63,0.48,0.93,0.75c0.3,0.27,0.79,0.33,1.08,0.62c0.28,0.28,0.32,0.79,0.59,1.1c0.26,0.3,0.75,0.42,0.99,0.75
					c0.24,0.32,0.47,0.64,0.71,0.95c0.24,0.31,0.34,0.74,0.57,1.05c0.24,0.32,0.41,0.68,0.63,1c0.22,0.33,0.39,0.67,0.59,1.01
					c0.2,0.34,0.52,0.6,0.68,0.97c0.17,0.36,0.34,0.71,0.46,1.09c0.12,0.38,0.4,0.72,0.48,1.1c0.09,0.39-0.16,0.84-0.08,1.22
					c0.07,0.39,0.22,0.77,0.29,1.15c0.07,0.39,0.07,0.8,0.16,1.18c0.09,0.39,0.39,0.72,0.5,1.1c0.12,0.38,0.28,0.74,0.41,1.12
					c0.12,0.38-0.01,0.84,0.09,1.22c0.11,0.39,0.59,0.68,0.66,1.07c0.07,0.4-0.2,0.82-0.2,1.22c0,0.42,0.07,0.84,0.03,1.25
					c-0.03,0.42,0.06,0.85,0,1.27c-0.06,0.41-0.1,0.84-0.18,1.24c-0.09,0.41-0.51,0.75-0.6,1.15c-0.09,0.41,0.13,0.89,0.03,1.29
					c-0.09,0.41-0.12,0.83-0.21,1.23c-0.09,0.41-0.24,0.8-0.34,1.21c-0.09,0.41-0.29,0.78-0.39,1.19c-0.1,0.41-0.35,0.76-0.47,1.16
					c-0.12,0.4,0.08,0.9-0.06,1.28c-0.14,0.39-0.66,0.63-0.83,1.02c-0.16,0.38-0.32,0.74-0.52,1.11c-0.19,0.36-0.34,0.72-0.56,1.06
					c-0.22,0.34-0.31,0.76-0.55,1.09c-0.24,0.32-0.57,0.58-0.84,0.87c-0.27,0.3-0.53,0.59-0.84,0.86
					C126.03,102.72,125.82,103.12,125.49,103.35z M143.75,87.28c0,0.47-0.34,0.9-0.4,1.34c-0.05,0.46,0.05,0.93-0.03,1.38
					c-0.08,0.46-0.26,0.89-0.34,1.34c-0.08,0.46-0.23,0.91-0.27,1.36c-0.03,0.46-0.02,0.91-0.05,1.35
					c-0.03,0.46,0.06,0.91,0.01,1.36c-0.04,0.45-0.01,0.91-0.07,1.36c-0.06,0.45-0.38,0.85-0.47,1.29
					c-0.09,0.45-0.13,0.92-0.18,1.38c-0.05,0.46-0.1,0.91-0.15,1.37s-0.16,0.9-0.23,1.34c-0.08,0.45,0.16,0.98,0.02,1.42
					c-0.14,0.41-0.48,0.74-0.73,1.09c-0.24,0.34-0.49,0.72-0.77,1.04c-0.28,0.34-0.71,0.55-0.94,0.91c-0.23,0.35-0.32,0.8-0.58,1.09
					c-0.28,0.32-0.7,0.46-1.02,0.68c-0.34,0.23-0.61,0.58-1,0.71c-0.37,0.12-0.8-0.07-1.22-0.05c-0.38,0.02-0.74-0.03-1.17-0.09
					c-0.44-0.07-0.87-0.04-1.28-0.16c-0.43-0.11-0.91-0.05-1.31-0.22c-0.41-0.17-0.68-0.59-1.04-0.82s-0.73-0.45-1.05-0.75
					c-0.31-0.29-0.45-0.72-0.7-1.08c-0.24-0.34-0.66-0.59-0.85-1c-0.23-0.53,0.49-0.94,0.83-1.33c0.26-0.29,0.56-0.57,0.78-0.88
					c0.22-0.32,0.31-0.73,0.5-1.06c0.2-0.34,0.34-0.69,0.53-1.03c0.18-0.34,0.28-0.72,0.46-1.06c0.17-0.34,0.34-0.7,0.53-1.03
					c0.18-0.34,0.62-0.54,0.79-0.88c0.17-0.34,0.11-0.8,0.27-1.15c0.16-0.34,0.29-0.71,0.43-1.06c0.15-0.35,0.32-0.69,0.45-1.05
					c0.12-0.36,0.34-0.69,0.44-1.06s0-0.82,0.13-1.19c0.12-0.37,0.56-0.64,0.68-1.01c0.12-0.37,0.23-0.75,0.34-1.12
					c0.11-0.37,0.21-0.76,0.28-1.15c0.08-0.38,0.22-0.78,0.24-1.16c0.03-0.39-0.04-0.79-0.04-1.18c-0.01-0.39,0-0.78-0.03-1.17
					s-0.05-0.78-0.09-1.16c-0.04-0.39-0.16-0.77-0.2-1.16c-0.04-0.39-0.07-0.78-0.1-1.16c-0.04-0.42-0.03-0.86-0.09-1.28
					s-0.11-0.85-0.2-1.28s-0.19-0.84-0.29-1.25c-0.1-0.41-0.5-0.75-0.61-1.16c-0.11-0.41,0.06-0.91-0.07-1.32
					c-0.13-0.41-0.55-0.72-0.69-1.12c-0.19-0.54-0.28-1.02-0.22-1.37c0.06-0.39,0.47-0.59,1.01-0.87c0.38-0.19,0.76-0.24,1.14-0.31
					c0.41-0.08,0.77-0.04,1.16-0.02c0.41,0.03,0.8-0.04,1.19,0.05c0.4,0.1,0.78,0.21,1.16,0.34c0.37,0.14,0.83,0.13,1.22,0.32
					c0.37,0.17,0.57,0.65,0.91,0.89c0.34,0.23,0.67,0.42,0.94,0.75c0.25,0.3,0.37,0.66,0.53,1.07c0.15,0.38,0.43,0.7,0.52,1.09
					c0.09,0.39,0.18,0.79,0.22,1.19c0.04,0.4-0.21,0.82-0.19,1.22c0.02,0.41,0.42,0.79,0.43,1.19c0.01,0.41-0.3,0.82-0.28,1.22
					c0.03,0.41,0.14,0.8,0.2,1.2c0.05,0.41,0.26,0.79,0.31,1.19c0.05,0.41,0.15,0.82,0.2,1.21c0.05,0.43-0.25,0.87-0.22,1.25
					C143.42,86.55,143.76,86.94,143.75,87.28z"/>
			</g>
			<g>
				<path d="M43.03,31.1c0.04,0.42,0.09,0.81,0.1,1.23c0.02,0.42,0.16,0.84,0.16,1.28c0,0.42,0.18,0.85,0.18,1.28
					s0.02,0.84,0.03,1.28c0.01,0.42-0.13,0.85-0.1,1.28s0.02,0.85,0.08,1.28c0.06,0.46-0.05,0.94,0.03,1.39
					c0.07,0.46,0.31,0.88,0.39,1.34c0.09,0.45,0.02,0.94,0.12,1.39c0.09,0.45,0.2,0.91,0.31,1.34c0.11,0.45,0.31,0.87,0.44,1.31
					c0.13,0.44,0.2,0.91,0.34,1.34c0.14,0.44,0.38,0.84,0.53,1.28s0.18,0.91,0.34,1.34c0.16,0.43,0.66,0.72,0.88,1.12
					c0.22,0.41,0.47,0.78,0.71,1.17s0.46,0.8,0.69,1.2s0.48,0.79,0.68,1.21c0.2,0.41,0.06,0.97,0.25,1.4
					c0.18,0.41,0.67,0.7,0.86,1.11c0.19,0.41,0.41,0.81,0.61,1.22c0.2,0.41,0.24,0.9,0.47,1.29c0.21,0.35,0.6,0.6,0.78,0.97
					c0.18,0.36,0.32,0.75,0.49,1.12c0.17,0.36,0.34,0.73,0.53,1.09c0.19,0.36,0.19,0.82,0.41,1.16c0.33,0.52,1.07,1.01,0.43,1.5
					c-0.31,0.24-0.63,0.21-0.91,0.07c-0.26-0.13-0.35-0.5-0.57-0.74c-0.28-0.29-0.72-0.42-0.98-0.73c-0.26-0.31-0.44-0.67-0.68-0.99
					c-0.24-0.32-0.33-0.74-0.56-1.07c-0.22-0.33-0.55-0.59-0.77-0.92c-0.22-0.34-0.53-0.61-0.73-0.96
					c-0.21-0.34-0.25-0.78-0.46-1.12c-0.21-0.35-0.51-0.65-0.72-1c-0.21-0.35-0.57-0.61-0.78-0.96c-0.21-0.35-0.31-0.76-0.51-1.12
					c-0.19-0.36-0.36-0.73-0.53-1.09c-0.17-0.37-0.2-0.79-0.34-1.17s-0.36-0.73-0.49-1.11c-0.13-0.39-0.16-0.8-0.28-1.19
					c-0.11-0.39-0.29-0.76-0.4-1.16c-0.1-0.4-0.25-0.78-0.35-1.17c-0.09-0.4-0.21-0.78-0.29-1.18c-0.09-0.4-0.1-0.8-0.18-1.21
					c-0.08-0.4-0.41-0.76-0.47-1.16s-0.01-0.82-0.05-1.22c-0.05-0.41,0.04-0.82,0-1.22c-0.04-0.41,0.05-0.82,0.01-1.22
					c-0.04-0.41-0.16-0.8-0.19-1.21s0.04-0.81,0.03-1.22c-0.02-0.41-0.38-0.8-0.39-1.21s0.35-0.81,0.36-1.22
					c0.01-0.41-0.03-0.82-0.02-1.22c0.01-0.41-0.3-0.83-0.28-1.23c0.03-0.41,0.23-0.8,0.28-1.21c0.04-0.41,0.01-0.82,0.09-1.22
					c0.03-0.19,0.47-0.16,0.52-0.34C43.2,31.28,42.96,31.09,43.03,31.1z"/>
			</g>
			<g>
				<path d="M94.78,39.47c0.08,0.34,0.18,0.67,0.25,1.01c0.07,0.34,0.09,0.7,0.14,1.04c0.04,0.34,0.12,0.71,0.12,1.05
					c0,0.3-0.2,0.66-0.39,0.96c-0.18,0.28-0.45,0.39-0.83,0.39c-0.41,0-0.47-0.16-0.53-0.47c-0.07-0.29-0.34-0.61-0.36-0.9
					c-0.02-0.43,0.02-0.87-0.02-1.3c-0.04-0.43-0.04-0.87-0.09-1.3c-0.06-0.43-0.08-0.87-0.15-1.29c-0.07-0.43-0.34-0.82-0.41-1.25
					c-0.08-0.43,0.11-0.91,0.02-1.34c-0.09-0.42-0.4-0.79-0.53-1.2c-0.13-0.41-0.01-0.91-0.16-1.32c-0.16-0.41-0.4-0.78-0.57-1.17
					c-0.17-0.4-0.29-0.82-0.47-1.22c-0.17-0.4-0.58-0.69-0.74-1.09c-0.18-0.42-0.26-0.87-0.45-1.28c-0.19-0.41-0.23-0.9-0.44-1.29
					c-0.21-0.41-0.42-0.8-0.65-1.2c-0.22-0.39-0.66-0.66-0.91-1.03c-0.24-0.38-0.41-0.8-0.67-1.17s-0.57-0.72-0.83-1.09
					c-0.26-0.38-0.43-0.8-0.69-1.18c-0.26-0.37-0.48-0.78-0.75-1.14s-0.51-0.76-0.79-1.11c-0.28-0.35-0.62-0.67-0.93-1.01
					c-0.16-0.17-0.58-0.29-0.83-0.53c-0.28-0.26-0.29-0.46-0.05-0.72c0.25-0.28,0.47-0.34,0.82-0.18c0.34,0.16,0.58,0.53,0.78,0.68
					c0.36,0.28,0.81,0.43,1.14,0.73c0.34,0.31,0.72,0.57,1.03,0.9c0.31,0.34,0.5,0.77,0.78,1.11c0.29,0.34,0.45,0.8,0.73,1.15
					c0.28,0.35,0.57,0.71,0.85,1.05c0.28,0.34,0.74,0.55,1.03,0.91c0.28,0.35,0.66,0.62,0.93,0.98c0.27,0.36,0.55,0.72,0.8,1.09
					s0.29,0.88,0.52,1.27c0.22,0.39,0.39,0.8,0.58,1.21c0.19,0.41,0.5,0.76,0.67,1.17c0.17,0.41,0.46,0.78,0.62,1.22
					c0.16,0.42,0.03,0.94,0.17,1.37c0.14,0.42,0.48,0.79,0.6,1.23c0.12,0.43,0.31,0.85,0.41,1.29c0.09,0.41,0.04,0.84,0.09,1.25
					c0.06,0.41-0.02,0.83,0.01,1.24c0.03,0.41,0.09,0.82,0.09,1.23C94.72,38.65,94.8,39.06,94.78,39.47z"/>
			</g>
			<g>
				<path d="M102.82,38.79c-0.01,0.43,0.06,0.7-0.45,0.8c-0.56,0.12-0.48-0.16-0.58-0.62c-0.07-0.37-0.33-0.71-0.41-1.08
					c-0.07-0.37-0.06-0.76-0.13-1.13s-0.03-0.76-0.09-1.14c-0.07-0.43-0.19-0.86-0.28-1.29c-0.09-0.43,0.01-0.91-0.09-1.33
					c-0.09-0.43-0.31-0.83-0.42-1.26c-0.1-0.43-0.45-0.79-0.55-1.22c-0.11-0.42-0.19-0.85-0.29-1.28c-0.1-0.42-0.16-0.85-0.29-1.28
					c-0.13-0.41-0.22-0.84-0.36-1.26c-0.15-0.41-0.36-0.8-0.52-1.21c-0.16-0.41-0.26-0.84-0.41-1.25c-0.16-0.41-0.29-0.83-0.43-1.24
					c-0.04-0.13-0.02-0.29-0.05-0.43c-0.11-0.39,0.04-0.74,0.5-0.91c0.45-0.17,0.72,0.03,0.92,0.37c0.16,0.27,0.78,0.4,0.88,0.69
					c0.15,0.42-0.12,0.97-0.02,1.41s0.33,0.84,0.42,1.28c0.09,0.44,0.19,0.88,0.28,1.31c0.09,0.44,0.39,0.83,0.51,1.25
					c0.12,0.43,0.16,0.88,0.31,1.3c0.15,0.42,0.07,0.92,0.22,1.34c0.15,0.42,0.64,0.73,0.77,1.16c0.13,0.43,0.02,0.92,0.1,1.36
					s0.07,0.88,0.09,1.33c0.02,0.45-0.02,0.89-0.03,1.34s0.17,0.91,0.17,1.34c0,0.45,0.19,0.88,0.24,1.32
					C102.88,38.59,102.81,38.69,102.82,38.79z"/>
			</g>
			<g>
				<path d="M32.72,44.19c0.03-0.15-0.26-0.33-0.18-0.59c0.09-0.28,0.02-0.53,0.35-0.49c0.28,0.03,0.68,0.12,0.75,0.35
					c0.06,0.23-0.18,0.54-0.18,0.78c0,0.43,0.09,0.85,0.09,1.28c0.01,0.43,0.08,0.84,0.1,1.28c0.03,0.42-0.16,0.86-0.13,1.29
					c0.03,0.42,0.03,0.85,0.09,1.28c0.05,0.42,0.36,0.81,0.43,1.22c0.07,0.42,0.18,0.83,0.27,1.24c0.09,0.41,0.19,0.83,0.29,1.23
					c0.1,0.41-0.05,0.9,0.07,1.3c0.12,0.41,0.48,0.74,0.61,1.15s-0.07,0.91,0.07,1.32c0.14,0.41,0.4,0.77,0.53,1.17
					c0.14,0.41,0.5,0.72,0.64,1.13c0.09,0.27,0.06,0.71,0.16,1.05c0.1,0.36,0.19,0.68-0.23,0.86c-0.46,0.19-0.59-0.1-0.72-0.47
					c-0.12-0.34-0.12-0.78-0.23-1.05c-0.14-0.36-0.49-0.64-0.63-0.99c-0.14-0.36-0.01-0.82-0.15-1.18
					c-0.14-0.36-0.42-0.66-0.55-1.02c-0.13-0.36-0.41-0.67-0.53-1.03c-0.11-0.36-0.27-0.72-0.37-1.09
					c-0.09-0.37-0.03-0.78-0.11-1.16s-0.31-0.72-0.38-1.1s-0.16-0.76-0.22-1.14s0.09-0.79,0.04-1.17c-0.04-0.38-0.23-0.75-0.27-1.13
					s0.26-0.78,0.24-1.17c-0.02-0.38-0.01-0.76-0.01-1.15c0-0.32-0.16-0.66-0.09-1C32.57,44.87,32.75,44.54,32.72,44.19z"/>
			</g>
		</g>
	</g>
</g>
</svg>
