<?xml version="1.0" encoding="utf-8"?>
<!-- Generator: Adobe Illustrator 24.2.2, SVG Export Plug-In . SVG Version: 6.00 Build 0)  -->
<svg version="1.1" id="Layer_1" xmlns="http://www.w3.org/2000/svg" xmlns:xlink="http://www.w3.org/1999/xlink" x="0px" y="0px"
	 viewBox="0 0 554 240" style="enable-background:new 0 0 554 240;" xml:space="preserve">
<style type="text/css">
	.st0{fill:#23D3FF;}
</style>
<g>
	<path class="st0" d="M0,38.63l16.55-1.04c0.36,2.69,1.09,4.74,2.19,6.14c1.79,2.28,4.35,3.42,7.68,3.42c2.48,0,4.4-0.58,5.74-1.75
		c1.34-1.16,2.02-2.52,2.02-4.05c0-1.46-0.64-2.77-1.92-3.92c-1.28-1.15-4.25-2.24-8.91-3.26c-7.63-1.71-13.07-3.99-16.32-6.84
		c-3.28-2.84-4.92-6.46-4.92-10.87c0-2.89,0.84-5.63,2.52-8.2c1.68-2.57,4.2-4.6,7.57-6.07C15.56,0.74,20.18,0,26.04,0
		c7.19,0,12.68,1.34,16.46,4.01c3.78,2.68,6.02,6.93,6.74,12.77l-16.4,0.96c-0.44-2.53-1.35-4.38-2.75-5.53
		c-1.4-1.15-3.32-1.73-5.78-1.73c-2.02,0-3.55,0.43-4.57,1.29c-1.02,0.86-1.54,1.9-1.54,3.13c0,0.9,0.42,1.7,1.27,2.42
		c0.82,0.74,2.77,1.43,5.84,2.07c7.6,1.64,13.05,3.3,16.34,4.97c3.29,1.68,5.68,3.76,7.18,6.24c1.5,2.48,2.25,5.26,2.25,8.33
		c0,3.61-1,6.94-3,9.99c-2,3.05-4.79,5.36-8.37,6.93c-3.58,1.57-8.1,2.36-13.56,2.36c-9.58,0-16.21-1.84-19.89-5.53
		S0.49,44.32,0,38.63z"/>
	<path class="st0" d="M57.64,29.15c0-9.19,2.56-16.35,7.68-21.47C70.45,2.56,77.58,0,86.72,0c9.37,0,16.59,2.52,21.66,7.55
		s7.6,12.08,7.6,21.14c0,6.58-1.11,11.98-3.32,16.19c-2.21,4.21-5.42,7.49-9.6,9.83c-4.19,2.34-9.4,3.51-15.65,3.51
		c-6.35,0-11.6-1.01-15.76-3.03c-4.16-2.02-7.53-5.22-10.12-9.6C58.94,41.21,57.64,35.73,57.64,29.15z M75.04,29.23
		c0,5.68,1.06,9.77,3.17,12.25c2.11,2.48,4.99,3.73,8.62,3.73c3.74,0,6.63-1.22,8.68-3.65c2.05-2.43,3.07-6.8,3.07-13.1
		c0-5.3-1.07-9.17-3.21-11.62c-2.14-2.44-5.04-3.67-8.7-3.67c-3.51,0-6.32,1.24-8.45,3.73C76.1,19.38,75.04,23.49,75.04,29.23z"/>
	<path class="st0" d="M123.01,41.75h16.71v12.87c0,4.74-0.99,8.47-2.96,11.21c-1.97,2.74-5.34,5.16-10.1,7.26l-3.65-6.84
		c2.97-1.38,5.01-2.76,6.13-4.13c1.11-1.37,1.73-2.99,1.86-4.86h-7.99V41.75z"/>
	<path class="st0" d="M170.75,0.96h19.32l11.37,19.01L212.8,0.96H232l-21.89,32.72v23.58h-17.44V33.68L170.75,0.96z"/>
	<path class="st0" d="M230.7,29.15c0-9.19,2.56-16.35,7.68-21.47C243.5,2.56,250.63,0,259.77,0c9.37,0,16.59,2.52,21.66,7.55
		s7.6,12.08,7.6,21.14c0,6.58-1.11,11.98-3.32,16.19c-2.21,4.21-5.42,7.49-9.6,9.83s-9.4,3.51-15.65,3.51
		c-6.35,0-11.6-1.01-15.76-3.03c-4.16-2.02-7.53-5.22-10.12-9.6C231.99,41.21,230.7,35.73,230.7,29.15z M248.1,29.23
		c0,5.68,1.06,9.77,3.17,12.25c2.11,2.48,4.99,3.73,8.62,3.73c3.74,0,6.63-1.22,8.68-3.65c2.05-2.43,3.07-6.8,3.07-13.1
		c0-5.3-1.07-9.17-3.21-11.62c-2.14-2.44-5.04-3.67-8.7-3.67c-3.51,0-6.32,1.24-8.45,3.73C249.16,19.38,248.1,23.49,248.1,29.23z"/>
	<path class="st0" d="M333.47,0.96h17.36v33.57c0,3.33-0.52,6.47-1.56,9.43c-1.04,2.96-2.66,5.54-4.88,7.76
		c-2.21,2.21-4.54,3.77-6.97,4.67c-3.38,1.25-7.44,1.88-12.17,1.88c-2.74,0-5.73-0.19-8.97-0.58c-3.24-0.38-5.95-1.15-8.12-2.29
		c-2.18-1.14-4.17-2.76-5.97-4.86c-1.81-2.1-3.04-4.26-3.71-6.49c-1.08-3.58-1.61-6.76-1.61-9.52V0.96h17.36v34.37
		c0,3.07,0.85,5.47,2.55,7.2c1.7,1.73,4.06,2.59,7.09,2.59c3,0,5.34-0.85,7.05-2.55c1.7-1.7,2.55-4.12,2.55-7.24V0.96z"/>
	<path class="st0" d="M0,127.77l16.55-1.04c0.36,2.69,1.09,4.74,2.19,6.14c1.79,2.28,4.35,3.42,7.68,3.42c2.48,0,4.4-0.58,5.74-1.75
		c1.34-1.16,2.02-2.52,2.02-4.05c0-1.46-0.64-2.77-1.92-3.92c-1.28-1.15-4.25-2.24-8.91-3.26c-7.63-1.72-13.07-3.99-16.32-6.84
		c-3.28-2.84-4.92-6.46-4.92-10.87c0-2.89,0.84-5.63,2.52-8.2c1.68-2.57,4.2-4.6,7.57-6.07c3.37-1.47,7.98-2.21,13.84-2.21
		c7.19,0,12.68,1.34,16.46,4.01c3.78,2.68,6.02,6.93,6.74,12.77l-16.4,0.96c-0.44-2.53-1.35-4.38-2.75-5.53
		c-1.4-1.15-3.32-1.73-5.78-1.73c-2.02,0-3.55,0.43-4.57,1.29c-1.02,0.86-1.54,1.9-1.54,3.13c0,0.9,0.42,1.7,1.27,2.42
		c0.82,0.74,2.77,1.43,5.84,2.07c7.6,1.64,13.05,3.3,16.34,4.97c3.29,1.68,5.68,3.76,7.18,6.24c1.5,2.48,2.25,5.26,2.25,8.33
		c0,3.61-1,6.94-3,9.99s-4.79,5.36-8.37,6.93c-3.58,1.57-8.1,2.36-13.56,2.36c-9.58,0-16.21-1.84-19.89-5.53S0.49,133.46,0,127.77z"
		/>
	<path class="st0" d="M94.47,137.11H74.66l-2.73,9.29H54.15l21.16-56.3h18.97l21.16,56.3h-18.2L94.47,137.11z M90.83,124.93
		l-6.22-20.24l-6.18,20.24H90.83z"/>
	<path class="st0" d="M112.7,90.1h16.51l5.95,31.45l8.68-31.45h16.48l8.72,31.45l5.95-31.45h16.44l-12.4,56.3h-17.05l-9.87-35.45
		l-9.83,35.45h-17.05L112.7,90.1z"/>
	<path class="st0" d="M220.34,127.77l16.55-1.04c0.36,2.69,1.09,4.74,2.19,6.14c1.79,2.28,4.35,3.42,7.68,3.42
		c2.48,0,4.4-0.58,5.74-1.75c1.34-1.16,2.02-2.52,2.02-4.05c0-1.46-0.64-2.77-1.92-3.92c-1.28-1.15-4.25-2.24-8.91-3.26
		c-7.63-1.72-13.07-3.99-16.32-6.84c-3.28-2.84-4.92-6.46-4.92-10.87c0-2.89,0.84-5.63,2.52-8.2c1.68-2.57,4.2-4.6,7.57-6.07
		c3.37-1.47,7.98-2.21,13.84-2.21c7.19,0,12.68,1.34,16.46,4.01c3.78,2.68,6.02,6.93,6.74,12.77l-16.4,0.96
		c-0.44-2.53-1.35-4.38-2.75-5.53c-1.4-1.15-3.32-1.73-5.78-1.73c-2.02,0-3.55,0.43-4.57,1.29c-1.02,0.86-1.54,1.9-1.54,3.13
		c0,0.9,0.42,1.7,1.27,2.42c0.82,0.74,2.77,1.43,5.84,2.07c7.6,1.64,13.05,3.3,16.34,4.97c3.29,1.68,5.68,3.76,7.18,6.24
		c1.5,2.48,2.25,5.26,2.25,8.33c0,3.61-1,6.94-3,9.99c-2,3.05-4.79,5.36-8.37,6.93c-3.58,1.57-8.1,2.36-13.56,2.36
		c-9.58,0-16.21-1.84-19.89-5.53S220.83,133.46,220.34,127.77z"/>
	<path class="st0" d="M277.99,118.29c0-9.19,2.56-16.35,7.68-21.47c5.12-5.12,12.25-7.68,21.39-7.68c9.37,0,16.59,2.52,21.66,7.55
		c5.07,5.03,7.6,12.08,7.6,21.14c0,6.58-1.11,11.98-3.32,16.19c-2.21,4.21-5.42,7.49-9.6,9.83c-4.19,2.34-9.4,3.51-15.65,3.51
		c-6.35,0-11.6-1.01-15.76-3.03c-4.16-2.02-7.53-5.22-10.12-9.6C279.28,130.35,277.99,124.87,277.99,118.29z M295.39,118.37
		c0,5.68,1.06,9.77,3.17,12.25c2.11,2.48,4.99,3.73,8.62,3.73c3.74,0,6.63-1.22,8.68-3.65c2.05-2.43,3.07-6.8,3.07-13.1
		c0-5.3-1.07-9.17-3.21-11.62c-2.14-2.44-5.04-3.67-8.7-3.67c-3.51,0-6.32,1.24-8.45,3.73
		C296.45,108.52,295.39,112.63,295.39,118.37z"/>
	<path class="st0" d="M343.93,90.1h22.89l8.83,34.26l8.79-34.26h22.81v56.3h-14.21v-42.94l-11.02,42.94h-12.87l-10.98-42.94v42.94
		h-14.25V90.1z"/>
	<path class="st0" d="M418.32,90.1h46.62v12.02h-29.19v8.95h27.08v11.48h-27.08v11.1h30.03v12.75h-47.47V90.1z"/>
	<path class="st0" d="M3.11,179.24h43.01v12.1H20.58v9.83H42.4v11.37H20.58v23H3.11V179.24z"/>
	<path class="st0" d="M81.17,226.25H61.35l-2.73,9.29H40.84l21.16-56.3h18.97l21.16,56.3h-18.2L81.17,226.25z M77.52,214.07
		l-6.22-20.24l-6.18,20.24H77.52z"/>
	<path class="st0" d="M109.28,179.24h17.4v42.44h27.15v13.86h-44.55V179.24z"/>
	<path class="st0" d="M160.28,216.91l16.55-1.04c0.36,2.69,1.09,4.74,2.19,6.14c1.79,2.28,4.35,3.42,7.68,3.42
		c2.48,0,4.4-0.58,5.74-1.75c1.34-1.16,2.02-2.52,2.02-4.05c0-1.46-0.64-2.77-1.92-3.92c-1.28-1.15-4.25-2.24-8.91-3.26
		c-7.63-1.72-13.07-3.99-16.32-6.84c-3.28-2.84-4.92-6.46-4.92-10.87c0-2.89,0.84-5.63,2.52-8.2c1.68-2.57,4.2-4.59,7.57-6.07
		c3.37-1.47,7.98-2.21,13.84-2.21c7.19,0,12.68,1.34,16.46,4.01c3.78,2.68,6.02,6.93,6.74,12.77l-16.4,0.96
		c-0.44-2.53-1.35-4.38-2.75-5.53c-1.4-1.15-3.32-1.73-5.78-1.73c-2.02,0-3.55,0.43-4.57,1.29c-1.02,0.86-1.54,1.9-1.54,3.13
		c0,0.9,0.42,1.7,1.27,2.42c0.82,0.74,2.77,1.43,5.84,2.07c7.6,1.64,13.05,3.3,16.34,4.97c3.29,1.68,5.68,3.76,7.18,6.24
		c1.5,2.48,2.25,5.26,2.25,8.33c0,3.61-1,6.94-3,9.99s-4.79,5.36-8.37,6.93c-3.58,1.57-8.1,2.36-13.56,2.36
		c-9.58,0-16.21-1.84-19.89-5.53S160.76,222.6,160.28,216.91z"/>
	<path class="st0" d="M218.5,179.24h46.62v12.02h-29.19v8.95h27.08v11.48h-27.08v11.1h30.03v12.75H218.5V179.24z"/>
	<path class="st0" d="M302.26,179.24h17.44v56.3h-17.44V179.24z"/>
	<path class="st0" d="M330.72,179.24h16.25l21.2,31.15v-31.15h16.4v56.3h-16.4l-21.08-30.92v30.92h-16.36V179.24z"/>
	<path class="st0" d="M396.2,179.24h43.01v12.1h-25.54v9.83h21.81v11.37h-21.81v23H396.2V179.24z"/>
	<path class="st0" d="M446.39,207.43c0-9.19,2.56-16.35,7.68-21.47c5.12-5.12,12.25-7.68,21.39-7.68c9.37,0,16.59,2.52,21.66,7.55
		s7.6,12.08,7.6,21.14c0,6.58-1.11,11.98-3.32,16.19c-2.21,4.21-5.42,7.49-9.6,9.83s-9.4,3.51-15.65,3.51
		c-6.35,0-11.6-1.01-15.77-3.03s-7.53-5.22-10.12-9.6C447.69,219.49,446.39,214.01,446.39,207.43z M463.79,207.5
		c0,5.68,1.06,9.77,3.17,12.25c2.11,2.48,4.99,3.73,8.62,3.73c3.74,0,6.63-1.22,8.68-3.65c2.05-2.43,3.07-6.8,3.07-13.1
		c0-5.3-1.07-9.17-3.21-11.62c-2.14-2.44-5.04-3.67-8.7-3.67c-3.51,0-6.32,1.24-8.45,3.73C464.85,197.66,463.79,201.77,463.79,207.5
		z"/>
	<path class="st0" d="M538.49,217.87h-14.59v-1.46c0-2.48,0.28-4.5,0.84-6.05c0.56-1.55,1.4-2.96,2.52-4.24
		c1.11-1.28,3.62-3.53,7.51-6.76c2.07-1.69,3.11-3.24,3.11-4.65s-0.42-2.5-1.25-3.28c-0.83-0.78-2.09-1.17-3.78-1.17
		c-1.82,0-3.32,0.6-4.51,1.81c-1.19,1.2-1.95,3.3-2.28,6.3l-14.9-1.84c0.51-5.48,2.5-9.89,5.97-13.23
		c3.47-3.34,8.79-5.01,15.96-5.01c5.58,0,10.09,1.16,13.52,3.49c4.66,3.15,6.99,7.35,6.99,12.6c0,2.18-0.6,4.28-1.8,6.3
		c-1.2,2.02-3.66,4.49-7.37,7.41c-2.59,2.05-4.22,3.69-4.9,4.93C538.83,214.26,538.49,215.88,538.49,217.87z M523.39,221.75h15.63
		v13.79h-15.63V221.75z"/>
</g>
</svg>
