<?xml version="1.0" encoding="utf-8"?>
<!-- Generator: Adobe Illustrator 24.2.2, SVG Export Plug-In . SVG Version: 6.00 Build 0)  -->
<svg version="1.1" id="Layer_1" xmlns="http://www.w3.org/2000/svg" xmlns:xlink="http://www.w3.org/1999/xlink" x="0px" y="0px"
	 viewBox="0 0 517 143" style="enable-background:new 0 0 517 143;" xml:space="preserve">
<style type="text/css">
	.st0{fill:#23D3FF;}
</style>
<g>
	<path class="st0" d="M0,37.74l16.15-1.02c0.35,2.62,1.06,4.62,2.14,5.99c1.75,2.22,4.25,3.33,7.5,3.33c2.42,0,4.29-0.57,5.6-1.71
		c1.31-1.14,1.97-2.45,1.96-3.95c0-1.42-0.63-2.7-1.88-3.82c-1.25-1.12-4.15-2.18-8.69-3.18c-7.44-1.67-12.75-3.89-15.93-6.66
		c-3.2-2.77-4.8-6.3-4.8-10.6c0-2.82,0.81-5.49,2.45-8c1.63-2.51,4.09-4.49,7.38-5.92c3.28-1.44,7.79-2.16,13.51-2.16
		c7.02,0,12.37,1.3,16.06,3.91c3.69,2.61,5.88,6.76,6.58,12.45l-16,0.95c-0.43-2.47-1.32-4.27-2.68-5.39
		c-1.36-1.12-3.24-1.68-5.64-1.68c-1.97,0-3.46,0.42-4.46,1.26c-1,0.84-1.5,1.86-1.5,3.05c0,0.87,0.41,1.66,1.24,2.36
		c0.8,0.72,2.7,1.4,5.7,2.02c7.42,1.59,12.73,3.21,15.95,4.84c3.21,1.63,5.55,3.66,7.01,6.08c1.46,2.42,2.19,5.13,2.2,8.13
		c0,3.52-0.97,6.77-2.92,9.74s-4.67,5.23-8.16,6.77c-3.5,1.54-7.9,2.31-13.22,2.31c-9.34,0.01-15.81-1.79-19.41-5.38
		S0.48,43.29,0,37.74z"/>
	<path class="st0" d="M54.7,28.45c-0.01-8.97,2.49-15.95,7.48-20.95c4.99-5,11.95-7.5,20.86-7.51c9.14-0.01,16.19,2.44,21.14,7.35
		c4.95,4.91,7.43,11.78,7.43,20.62c0,6.42-1.07,11.68-3.23,15.79c-2.16,4.11-5.28,7.31-9.36,9.6c-4.08,2.29-9.17,3.43-15.27,3.44
		c-6.2,0-11.32-0.98-15.38-2.95c-4.06-1.97-7.35-5.09-9.88-9.36C55.97,40.22,54.7,34.87,54.7,28.45z M71.67,28.52
		c0,5.55,1.04,9.53,3.1,11.95c2.06,2.42,4.87,3.63,8.41,3.63c3.65,0,6.47-1.19,8.47-3.56c2-2.37,2.99-6.63,2.99-12.78
		c0-5.17-1.05-8.95-3.14-11.33c-2.09-2.38-4.92-3.57-8.49-3.57c-3.42,0-6.17,1.22-8.24,3.64C72.7,18.91,71.67,22.92,71.67,28.52z"/>
	<path class="st0" d="M119.01,0.92l22.33-0.01l8.64,33.42l8.56-33.43l22.26-0.01l0.03,54.93l-13.86,0.01l-0.03-41.89l-10.73,41.89
		l-12.55,0.01l-10.74-41.88l0.03,41.89l-13.9,0.01L119.01,0.92z"/>
	<path class="st0" d="M191.59,0.87l45.49-0.03l0.01,11.73l-28.48,0.02l0.01,8.73l26.41-0.02l0.01,11.2l-26.41,0.02l0.01,10.83
		l29.3-0.02l0.01,12.44l-46.31,0.03L191.59,0.87z"/>
	<path class="st0" d="M272.71,0.82l41.96-0.03l0.01,11.8l-24.92,0.01l0.01,9.59l21.28-0.01l0.01,11.09l-21.28,0.01l0.01,22.44
		l-17.05,0.01L272.71,0.82z"/>
	<path class="st0" d="M322.95,0.79l17.01-0.01l0.03,54.93l-17.01,0.01L322.95,0.79z"/>
	<path class="st0" d="M349.18,0.78l15.85-0.01l20.7,30.37l-0.02-30.39l16-0.01l0.03,54.93l-16,0.01l-20.59-30.15l0.02,30.16
		l-15.96,0.01L349.18,0.78z"/>
	<path class="st0" d="M446.06,46.58l-19.33,0.01l-2.65,9.07l-17.35,0.01l20.61-54.94l18.51-0.01l20.68,54.91l-17.76,0.01
		L446.06,46.58z M442.49,34.7l-6.08-19.74l-6.02,19.75L442.49,34.7z"/>
	<path class="st0" d="M473.46,0.7l16.97-0.01l0.02,41.4l26.49-0.02l0.01,13.53l-43.46,0.03L473.46,0.7z"/>
	<path class="st0" d="M52.44,87.92l28.21-0.02c6.14,0,10.75,1.45,13.81,4.38c3.06,2.92,4.59,7.08,4.6,12.47
		c0,5.55-1.66,9.88-4.99,13c-3.33,3.12-8.42,4.69-15.27,4.69l-9.29,0.01l0.01,20.38l-17.05,0.01L52.44,87.92z M69.5,111.33l4.16,0
		c3.27,0,5.57-0.57,6.89-1.71c1.32-1.14,1.98-2.59,1.98-4.37c0-1.72-0.58-3.18-1.73-4.38c-1.15-1.2-3.31-1.8-6.48-1.79l-4.83,0
		L69.5,111.33z"/>
	<path class="st0" d="M104.27,115.39c-0.01-8.97,2.49-15.95,7.48-20.95c4.99-5,11.95-7.5,20.86-7.51
		c9.14-0.01,16.19,2.44,21.14,7.35c4.95,4.91,7.43,11.78,7.43,20.62c0,6.42-1.07,11.68-3.23,15.79c-2.16,4.11-5.28,7.31-9.36,9.6
		c-4.08,2.29-9.17,3.43-15.27,3.44c-6.2,0-11.32-0.98-15.38-2.95c-4.06-1.97-7.35-5.09-9.88-9.36
		C105.54,127.15,104.28,121.81,104.27,115.39z M121.24,115.45c0,5.55,1.04,9.53,3.1,11.95s4.87,3.63,8.41,3.63
		c3.65,0,6.47-1.19,8.47-3.56c2-2.37,2.99-6.63,2.99-12.78c0-5.17-1.05-8.95-3.14-11.33c-2.09-2.38-4.92-3.57-8.49-3.57
		c-3.42,0-6.17,1.22-8.24,3.64C122.27,105.85,121.24,109.86,121.24,115.45z"/>
	<path class="st0" d="M167.91,87.85l17.01-0.01l0.03,54.93l-17.01,0.01L167.91,87.85z"/>
	<path class="st0" d="M195.68,87.83l15.85-0.01l20.7,30.37l-0.02-30.39l16-0.01l0.03,54.93l-16,0.01l-20.59-30.15l0.02,30.16
		l-15.96,0.01L195.68,87.83z"/>
	<path class="st0" d="M255.63,87.8l51.59-0.03l0.01,13.56l-17.31,0.01l0.02,41.36l-16.97,0.01l-0.02-41.36l-17.31,0.01L255.63,87.8z
		"/>
	<path class="st0" d="M314.86,87.76l45.49-0.03l0.01,11.73l-28.48,0.02l0.01,8.73l26.41-0.02l0.01,11.2l-26.41,0.02l0.01,10.83
		l29.3-0.02l0.01,12.44l-46.31,0.03L314.86,87.76z"/>
	<path class="st0" d="M370.57,142.66l-0.03-54.93l28.29-0.02c5.25,0,9.25,0.44,12.03,1.34c2.77,0.9,5.01,2.56,6.71,5
		c1.7,2.44,2.55,5.4,2.55,8.9c0,3.05-0.65,5.68-1.94,7.89c-1.3,2.21-3.08,4.01-5.35,5.38c-1.45,0.88-3.43,1.6-5.96,2.18
		c2.02,0.67,3.5,1.35,4.42,2.02c0.62,0.45,1.53,1.41,2.72,2.88c1.19,1.47,1.98,2.61,2.38,3.41l8.21,15.92l-19.18,0.01l-9.08-16.78
		c-1.15-2.17-2.18-3.58-3.07-4.23c-1.22-0.85-2.61-1.27-4.16-1.27l-1.5,0l0.01,22.29L370.57,142.66z M387.6,109.97l7.16,0
		c0.77,0,2.27-0.25,4.5-0.75c1.12-0.23,2.04-0.8,2.75-1.73c0.71-0.92,1.07-1.99,1.07-3.19c0-1.77-0.56-3.13-1.69-4.08
		c-1.12-0.95-3.24-1.42-6.33-1.42l-7.46,0L387.6,109.97z"/>
	<path class="st0" d="M427.06,124.45l16.15-1.02c0.35,2.62,1.06,4.62,2.14,5.99c1.75,2.22,4.25,3.33,7.5,3.33
		c2.42,0,4.29-0.57,5.6-1.71c1.31-1.14,1.97-2.45,1.97-3.95c0-1.42-0.63-2.7-1.88-3.82c-1.25-1.12-4.15-2.18-8.69-3.18
		c-7.44-1.67-12.75-3.89-15.93-6.66c-3.2-2.77-4.8-6.3-4.8-10.6c0-2.82,0.81-5.49,2.45-8c1.63-2.51,4.09-4.49,7.38-5.92
		c3.28-1.44,7.79-2.16,13.51-2.16c7.02,0,12.37,1.3,16.06,3.91c3.69,2.61,5.88,6.76,6.58,12.45l-16,0.95
		c-0.43-2.47-1.32-4.27-2.68-5.39c-1.36-1.12-3.24-1.68-5.64-1.68c-1.97,0-3.46,0.42-4.46,1.26c-1,0.84-1.5,1.86-1.5,3.05
		c0,0.87,0.41,1.66,1.24,2.36c0.8,0.72,2.7,1.4,5.7,2.02c7.42,1.59,12.73,3.21,15.94,4.84c3.21,1.63,5.55,3.66,7.01,6.08
		c1.46,2.42,2.2,5.13,2.2,8.13c0,3.52-0.97,6.77-2.92,9.74c-1.95,2.97-4.67,5.23-8.16,6.77c-3.5,1.54-7.9,2.31-13.22,2.31
		c-9.34,0.01-15.81-1.79-19.41-5.38C429.58,134.56,427.54,129.99,427.06,124.45z"/>
</g>
</svg>
