<?xml version="1.0" encoding="utf-8"?>
<!-- Generator: Adobe Illustrator 24.2.2, SVG Export Plug-In . SVG Version: 6.00 Build 0)  -->
<svg version="1.1" id="Layer_1" xmlns="http://www.w3.org/2000/svg" xmlns:xlink="http://www.w3.org/1999/xlink" x="0px" y="0px"
	 viewBox="0 0 851.71 147.55" style="enable-background:new 0 0 851.71 147.55;" xml:space="preserve">
<style type="text/css">
	.st0{fill:#23D3FF;}
</style>
<g>
	<path class="st0" d="M0.38,38.83l16.55-1.04c0.36,2.69,1.09,4.74,2.19,6.14c1.79,2.28,4.35,3.42,7.68,3.42
		c2.48,0,4.4-0.58,5.74-1.75c1.34-1.16,2.02-2.52,2.02-4.05c0-1.46-0.64-2.77-1.92-3.92c-1.28-1.15-4.25-2.24-8.91-3.26
		c-7.63-1.71-13.07-3.99-16.32-6.84c-3.28-2.84-4.92-6.46-4.92-10.87c0-2.89,0.84-5.63,2.52-8.2c1.68-2.57,4.2-4.6,7.57-6.07
		c3.37-1.47,7.98-2.21,13.84-2.21c7.19,0,12.68,1.34,16.46,4.01c3.78,2.68,6.02,6.93,6.74,12.77l-16.4,0.96
		c-0.44-2.53-1.35-4.38-2.75-5.53c-1.4-1.15-3.32-1.73-5.78-1.73c-2.02,0-3.55,0.43-4.57,1.29c-1.02,0.86-1.54,1.9-1.54,3.13
		c0,0.9,0.42,1.7,1.27,2.42c0.82,0.74,2.77,1.43,5.84,2.07c7.6,1.64,13.05,3.3,16.34,4.97c3.29,1.68,5.68,3.76,7.18,6.24
		c1.5,2.48,2.25,5.26,2.25,8.33c0,3.61-1,6.94-3,9.99c-2,3.05-4.79,5.36-8.37,6.93c-3.58,1.57-8.1,2.36-13.56,2.36
		c-9.58,0-16.21-1.84-19.89-5.53S0.87,44.51,0.38,38.83z"/>
	<path class="st0" d="M58.03,29.34c0-9.19,2.56-16.35,7.68-21.47c5.12-5.12,12.25-7.68,21.39-7.68c9.37,0,16.59,2.52,21.66,7.55
		s7.6,12.08,7.6,21.14c0,6.58-1.11,11.98-3.32,16.19c-2.21,4.21-5.42,7.49-9.6,9.83c-4.19,2.34-9.4,3.51-15.65,3.51
		c-6.35,0-11.6-1.01-15.76-3.03c-4.16-2.02-7.53-5.22-10.12-9.6C59.32,41.4,58.03,35.92,58.03,29.34z M75.42,29.42
		c0,5.68,1.06,9.77,3.17,12.25c2.11,2.48,4.99,3.73,8.62,3.73c3.74,0,6.63-1.22,8.68-3.65c2.05-2.43,3.07-6.8,3.07-13.1
		c0-5.3-1.07-9.17-3.21-11.62c-2.14-2.44-5.04-3.67-8.7-3.67c-3.51,0-6.32,1.24-8.45,3.73C76.49,19.58,75.42,23.68,75.42,29.42z"/>
	<path class="st0" d="M123.39,41.94h16.71V54.8c0,4.74-0.99,8.47-2.96,11.21c-1.97,2.74-5.34,5.16-10.1,7.26l-3.65-6.84
		c2.97-1.38,5.01-2.76,6.13-4.13c1.11-1.37,1.73-2.99,1.86-4.86h-7.99V41.94z"/>
	<path class="st0" d="M171.13,1.15h19.32l11.37,19.01l11.37-19.01h19.2l-21.89,32.72v23.58h-17.44V33.87L171.13,1.15z"/>
	<path class="st0" d="M231.08,29.34c0-9.19,2.56-16.35,7.68-21.47c5.12-5.12,12.25-7.68,21.39-7.68c9.37,0,16.59,2.52,21.66,7.55
		s7.6,12.08,7.6,21.14c0,6.58-1.11,11.98-3.32,16.19c-2.21,4.21-5.42,7.49-9.6,9.83c-4.19,2.34-9.4,3.51-15.65,3.51
		c-6.35,0-11.6-1.01-15.76-3.03c-4.16-2.02-7.53-5.22-10.12-9.6C232.37,41.4,231.08,35.92,231.08,29.34z M248.48,29.42
		c0,5.68,1.06,9.77,3.17,12.25c2.11,2.48,4.99,3.73,8.62,3.73c3.74,0,6.63-1.22,8.68-3.65c2.05-2.43,3.07-6.8,3.07-13.1
		c0-5.3-1.07-9.17-3.21-11.62c-2.14-2.44-5.04-3.67-8.7-3.67c-3.51,0-6.32,1.24-8.45,3.73C249.54,19.58,248.48,23.68,248.48,29.42z"
		/>
	<path class="st0" d="M333.85,1.15h17.36v33.57c0,3.33-0.52,6.47-1.56,9.43c-1.04,2.96-2.66,5.54-4.88,7.76
		c-2.21,2.21-4.54,3.77-6.97,4.67c-3.38,1.25-7.44,1.88-12.17,1.88c-2.74,0-5.73-0.19-8.97-0.58c-3.24-0.38-5.95-1.15-8.12-2.29
		c-2.18-1.14-4.17-2.76-5.97-4.86c-1.8-2.1-3.04-4.26-3.71-6.49c-1.08-3.58-1.61-6.76-1.61-9.52V1.15h17.36v34.37
		c0,3.07,0.85,5.47,2.55,7.2c1.7,1.73,4.06,2.59,7.09,2.59c3,0,5.34-0.85,7.05-2.55c1.7-1.7,2.55-4.12,2.55-7.24V1.15z"/>
	<path class="st0" d="M385.93,38.83l16.55-1.04c0.36,2.69,1.09,4.74,2.19,6.14c1.79,2.28,4.35,3.42,7.68,3.42
		c2.48,0,4.4-0.58,5.74-1.75c1.34-1.16,2.02-2.52,2.02-4.05c0-1.46-0.64-2.77-1.92-3.92c-1.28-1.15-4.25-2.24-8.91-3.26
		c-7.63-1.71-13.07-3.99-16.32-6.84c-3.28-2.84-4.92-6.46-4.92-10.87c0-2.89,0.84-5.63,2.52-8.2c1.68-2.57,4.2-4.6,7.57-6.07
		c3.37-1.47,7.98-2.21,13.84-2.21c7.19,0,12.68,1.34,16.46,4.01c3.78,2.68,6.02,6.93,6.74,12.77l-16.4,0.96
		c-0.44-2.53-1.35-4.38-2.75-5.53c-1.4-1.15-3.32-1.73-5.78-1.73c-2.02,0-3.55,0.43-4.57,1.29c-1.02,0.86-1.54,1.9-1.54,3.13
		c0,0.9,0.42,1.7,1.27,2.42c0.82,0.74,2.77,1.43,5.84,2.07c7.6,1.64,13.05,3.3,16.34,4.97c3.29,1.68,5.68,3.76,7.18,6.24
		c1.5,2.48,2.25,5.26,2.25,8.33c0,3.61-1,6.94-3,9.99c-2,3.05-4.79,5.36-8.37,6.93c-3.58,1.57-8.1,2.36-13.56,2.36
		c-9.58,0-16.21-1.84-19.89-5.53C388.5,49.2,386.41,44.51,385.93,38.83z"/>
	<path class="st0" d="M480.4,48.16h-19.82l-2.73,9.29h-17.78l21.16-56.3h18.97l21.16,56.3h-18.2L480.4,48.16z M476.75,35.99
		l-6.22-20.24l-6.18,20.24H476.75z"/>
	<path class="st0" d="M498.62,1.15h16.51l5.95,31.45l8.68-31.45h16.48l8.72,31.45l5.95-31.45h16.44l-12.4,56.3H547.9l-9.87-35.45
		l-9.83,35.45h-17.05L498.62,1.15z"/>
	<path class="st0" d="M606.27,38.83l16.55-1.04c0.36,2.69,1.09,4.74,2.19,6.14c1.79,2.28,4.35,3.42,7.68,3.42
		c2.48,0,4.4-0.58,5.74-1.75c1.34-1.16,2.02-2.52,2.02-4.05c0-1.46-0.64-2.77-1.92-3.92c-1.28-1.15-4.25-2.24-8.91-3.26
		c-7.63-1.71-13.07-3.99-16.32-6.84c-3.28-2.84-4.92-6.46-4.92-10.87c0-2.89,0.84-5.63,2.52-8.2c1.68-2.57,4.2-4.6,7.57-6.07
		c3.37-1.47,7.98-2.21,13.84-2.21c7.19,0,12.68,1.34,16.46,4.01c3.78,2.68,6.02,6.93,6.74,12.77l-16.4,0.96
		c-0.44-2.53-1.35-4.38-2.75-5.53c-1.4-1.15-3.32-1.73-5.78-1.73c-2.02,0-3.55,0.43-4.57,1.29c-1.02,0.86-1.54,1.9-1.54,3.13
		c0,0.9,0.42,1.7,1.27,2.42c0.82,0.74,2.77,1.43,5.84,2.07c7.6,1.64,13.05,3.3,16.34,4.97c3.29,1.68,5.68,3.76,7.18,6.24
		c1.5,2.48,2.25,5.26,2.25,8.33c0,3.61-1,6.94-3,9.99c-2,3.05-4.79,5.36-8.37,6.93c-3.58,1.57-8.1,2.36-13.56,2.36
		c-9.58,0-16.21-1.84-19.89-5.53S606.76,44.51,606.27,38.83z"/>
	<path class="st0" d="M663.92,29.34c0-9.19,2.56-16.35,7.68-21.47c5.12-5.12,12.25-7.68,21.39-7.68c9.37,0,16.59,2.52,21.66,7.55
		c5.07,5.03,7.6,12.08,7.6,21.14c0,6.58-1.11,11.98-3.32,16.19c-2.22,4.21-5.42,7.49-9.6,9.83c-4.19,2.34-9.4,3.51-15.65,3.51
		c-6.35,0-11.6-1.01-15.76-3.03c-4.16-2.02-7.53-5.22-10.12-9.6S663.92,35.92,663.92,29.34z M681.31,29.42
		c0,5.68,1.06,9.77,3.17,12.25c2.11,2.48,4.99,3.73,8.62,3.73c3.74,0,6.63-1.22,8.68-3.65c2.05-2.43,3.07-6.8,3.07-13.1
		c0-5.3-1.07-9.17-3.21-11.62c-2.14-2.44-5.04-3.67-8.7-3.67c-3.51,0-6.32,1.24-8.45,3.73C682.38,19.58,681.31,23.68,681.31,29.42z"
		/>
	<path class="st0" d="M729.86,1.15h22.89l8.83,34.26l8.79-34.26h22.81v56.3h-14.21V14.52l-11.02,42.94h-12.87l-10.98-42.94v42.94
		h-14.25V1.15z"/>
	<path class="st0" d="M804.25,1.15h46.62v12.02h-29.19v8.95h27.08v11.48h-27.08v11.1h30.03v12.75h-47.47V1.15z"/>
	<path class="st0" d="M3.49,90.29H46.5v12.1H20.97v9.83h21.81v11.37H20.97v23H3.49V90.29z"/>
	<path class="st0" d="M81.55,137.3H61.73l-2.73,9.29H41.23l21.16-56.3h18.97l21.16,56.3h-18.2L81.55,137.3z M77.9,125.13
		l-6.22-20.24l-6.18,20.24H77.9z"/>
	<path class="st0" d="M109.66,90.29h17.4v42.44h27.15v13.86h-44.55V90.29z"/>
	<path class="st0" d="M160.66,127.97l16.55-1.04c0.36,2.69,1.09,4.74,2.19,6.14c1.79,2.28,4.35,3.42,7.68,3.42
		c2.48,0,4.4-0.58,5.74-1.75c1.34-1.16,2.02-2.52,2.02-4.05c0-1.46-0.64-2.77-1.92-3.92c-1.28-1.15-4.25-2.24-8.91-3.26
		c-7.63-1.71-13.07-3.99-16.32-6.84c-3.28-2.84-4.92-6.46-4.92-10.87c0-2.89,0.84-5.63,2.52-8.2c1.68-2.57,4.2-4.6,7.57-6.07
		c3.37-1.47,7.98-2.21,13.84-2.21c7.19,0,12.68,1.34,16.46,4.01c3.78,2.68,6.02,6.93,6.74,12.77l-16.4,0.96
		c-0.44-2.53-1.35-4.38-2.75-5.53c-1.4-1.15-3.32-1.73-5.78-1.73c-2.02,0-3.55,0.43-4.57,1.29c-1.02,0.86-1.54,1.9-1.54,3.13
		c0,0.9,0.42,1.7,1.27,2.42c0.82,0.74,2.77,1.43,5.84,2.07c7.6,1.64,13.05,3.3,16.34,4.97c3.29,1.68,5.68,3.76,7.18,6.24
		c1.5,2.48,2.25,5.26,2.25,8.33c0,3.61-1,6.94-3,9.99c-2,3.05-4.79,5.36-8.37,6.93c-3.58,1.57-8.1,2.36-13.56,2.36
		c-9.58,0-16.21-1.84-19.89-5.53S161.15,133.65,160.66,127.97z"/>
	<path class="st0" d="M218.88,90.29h46.62v12.02h-29.19v8.95h27.08v11.48h-27.08v11.1h30.03v12.75h-47.47V90.29z"/>
	<path class="st0" d="M302.64,90.29h17.44v56.3h-17.44V90.29z"/>
	<path class="st0" d="M331.1,90.29h16.25l21.2,31.15V90.29h16.4v56.3h-16.4l-21.08-30.92v30.92H331.1V90.29z"/>
	<path class="st0" d="M396.58,90.29h43.01v12.1h-25.54v9.83h21.81v11.37h-21.81v23h-17.47V90.29z"/>
	<path class="st0" d="M446.77,118.48c0-9.19,2.56-16.35,7.68-21.47c5.12-5.12,12.25-7.68,21.39-7.68c9.37,0,16.59,2.52,21.66,7.55
		c5.07,5.03,7.6,12.08,7.6,21.14c0,6.58-1.11,11.98-3.32,16.19c-2.21,4.21-5.42,7.49-9.6,9.83s-9.4,3.51-15.65,3.51
		c-6.35,0-11.6-1.01-15.76-3.03c-4.16-2.02-7.53-5.22-10.12-9.6C448.07,130.54,446.77,125.06,446.77,118.48z M464.17,118.56
		c0,5.68,1.06,9.77,3.17,12.25c2.11,2.48,4.99,3.73,8.62,3.73c3.74,0,6.63-1.22,8.68-3.65c2.05-2.43,3.07-6.8,3.07-13.1
		c0-5.3-1.07-9.17-3.21-11.62c-2.14-2.44-5.04-3.67-8.7-3.67c-3.51,0-6.32,1.24-8.45,3.73
		C465.23,108.71,464.17,112.82,464.17,118.56z"/>
	<path class="st0" d="M538.87,128.93h-14.59v-1.46c0-2.48,0.28-4.5,0.84-6.05c0.56-1.55,1.4-2.96,2.52-4.24
		c1.11-1.28,3.62-3.53,7.51-6.76c2.07-1.69,3.11-3.24,3.11-4.65c0-1.41-0.42-2.5-1.25-3.28c-0.83-0.78-2.09-1.17-3.78-1.17
		c-1.82,0-3.32,0.6-4.51,1.81c-1.19,1.2-1.95,3.3-2.29,6.3l-14.9-1.84c0.51-5.48,2.5-9.89,5.97-13.23
		c3.47-3.34,8.79-5.01,15.96-5.01c5.58,0,10.09,1.17,13.52,3.49c4.66,3.15,6.99,7.35,6.99,12.6c0,2.18-0.6,4.28-1.81,6.3
		c-1.2,2.02-3.66,4.49-7.37,7.41c-2.59,2.05-4.22,3.69-4.9,4.93C539.21,125.31,538.87,126.93,538.87,128.93z M523.78,132.81h15.63
		v13.79h-15.63V132.81z"/>
</g>
</svg>
