<?xml version="1.0" encoding="utf-8"?>
<!-- Generator: Adobe Illustrator 24.2.2, SVG Export Plug-In . SVG Version: 6.00 Build 0)  -->
<svg version="1.1" id="Layer_1" xmlns="http://www.w3.org/2000/svg" xmlns:xlink="http://www.w3.org/1999/xlink" x="0px" y="0px"
	 viewBox="0 0 593 81" style="enable-background:new 0 0 593 81;" xml:space="preserve">
<g>
	<path d="M66.36,62.35c2.77,1.92,4.57,3.12,5.42,3.61c1.27,0.72,2.98,1.55,5.13,2.49l-6.15,12.4c-3.09-1.5-6.15-3.28-9.18-5.35
		c-3.03-2.07-5.14-3.62-6.35-4.66c-4.88,2.12-11,3.17-18.36,3.17c-10.87,0-19.45-2.83-25.73-8.5C3.71,58.82,0,49.4,0,37.26
		C0,25.47,3.25,16.32,9.74,9.79C16.24,3.26,25.31,0,36.96,0c11.88,0,21.05,3.19,27.51,9.57c6.46,6.38,9.69,15.51,9.69,27.39
		C74.17,47.54,71.57,56.01,66.36,62.35z M49.41,51.03c1.76-3.16,2.64-7.88,2.64-14.16c0-7.23-1.34-12.39-4.03-15.48
		c-2.69-3.09-6.39-4.64-11.11-4.64c-4.39,0-7.96,1.58-10.69,4.74c-2.73,3.16-4.1,8.09-4.1,14.79c0,7.81,1.33,13.3,4,16.46
		c2.67,3.16,6.33,4.74,10.99,4.74c1.5,0,2.91-0.15,4.25-0.44c-1.86-1.79-4.79-3.48-8.79-5.08l3.47-7.96
		c1.95,0.36,3.47,0.8,4.57,1.32c1.09,0.52,3.21,1.89,6.37,4.1C47.72,49.94,48.54,50.47,49.41,51.03z"/>
	<path d="M139.4,72.8h-18.55v-8.4c-2.77,3.45-5.56,5.91-8.37,7.37s-6.27,2.2-10.38,2.2c-5.47,0-9.76-1.64-12.87-4.91
		s-4.66-8.31-4.66-15.11V20.95h19.97v28.52c0,3.26,0.6,5.57,1.81,6.93s2.9,2.05,5.08,2.05c2.38,0,4.32-0.91,5.83-2.73
		c1.51-1.82,2.27-5.09,2.27-9.81V20.95h19.87V72.8z"/>
	<path d="M209.03,51.81h-39.84c0.36,3.19,1.22,5.57,2.59,7.13c1.92,2.25,4.43,3.37,7.52,3.37c1.95,0,3.81-0.49,5.57-1.46
		c1.07-0.62,2.23-1.71,3.47-3.27l19.58,1.81c-3,5.21-6.61,8.94-10.84,11.21s-10.3,3.39-18.21,3.39c-6.87,0-12.27-0.97-16.21-2.91
		s-7.2-5.01-9.79-9.23c-2.59-4.22-3.88-9.17-3.88-14.87c0-8.11,2.6-14.66,7.79-19.68c5.19-5.01,12.36-7.52,21.51-7.52
		c7.42,0,13.28,1.12,17.58,3.37s7.57,5.5,9.81,9.77c2.25,4.26,3.37,9.81,3.37,16.65V51.81z M188.82,42.29
		c-0.39-3.84-1.42-6.59-3.1-8.25s-3.88-2.49-6.62-2.49c-3.16,0-5.68,1.25-7.57,3.76c-1.2,1.56-1.97,3.89-2.29,6.98H188.82z"/>
	<path d="M214.65,58.45l19.73-1.86c0.81,2.34,1.95,4.02,3.42,5.03c1.46,1.01,3.42,1.51,5.86,1.51c2.67,0,4.74-0.57,6.2-1.71
		c1.14-0.85,1.71-1.9,1.71-3.17c0-1.43-0.75-2.54-2.25-3.32c-1.07-0.55-3.92-1.24-8.54-2.05c-6.9-1.2-11.69-2.32-14.38-3.34
		s-4.95-2.76-6.79-5.2s-2.76-5.22-2.76-8.35c0-3.42,0.99-6.36,2.98-8.84c1.99-2.47,4.72-4.32,8.2-5.54s8.15-1.83,14.01-1.83
		c6.18,0,10.75,0.47,13.7,1.42c2.95,0.94,5.4,2.41,7.37,4.39c1.97,1.99,3.61,4.67,4.91,8.06l-18.85,1.86
		c-0.49-1.66-1.3-2.88-2.44-3.66c-1.56-1.04-3.45-1.56-5.66-1.56c-2.25,0-3.88,0.4-4.91,1.2c-1.03,0.8-1.54,1.77-1.54,2.91
		c0,1.27,0.65,2.23,1.95,2.88c1.3,0.65,4.13,1.24,8.5,1.76c6.61,0.75,11.52,1.79,14.75,3.12c3.22,1.33,5.69,3.24,7.4,5.71
		c1.71,2.47,2.56,5.19,2.56,8.15c0,3-0.9,5.91-2.71,8.74s-4.66,5.09-8.54,6.76s-9.19,2.51-15.89,2.51c-9.47,0-16.22-1.35-20.24-4.05
		C218.37,67.27,215.79,63.43,214.65,58.45z"/>
	<path d="M303.22,1.22v19.73h10.94v14.5h-10.94v18.41c0,2.21,0.21,3.68,0.63,4.39c0.65,1.11,1.79,1.66,3.42,1.66
		c1.46,0,3.52-0.42,6.15-1.27l1.46,13.72c-4.92,1.07-9.5,1.61-13.77,1.61c-4.95,0-8.59-0.63-10.94-1.9s-4.08-3.2-5.2-5.79
		s-1.68-6.78-1.68-12.57V35.45h-7.32v-14.5h7.32v-9.52L303.22,1.22z"/>
	<path d="M326.37,1.22h19.87v13.53h-19.87V1.22z M326.37,20.95h19.87V72.8h-19.87V20.95z"/>
	<path d="M354.49,47.02c0-7.91,2.67-14.43,8.01-19.56s12.55-7.69,21.63-7.69c10.38,0,18.23,3.01,23.54,9.03
		c4.26,4.85,6.4,10.82,6.4,17.92c0,7.98-2.64,14.51-7.93,19.6c-5.29,5.09-12.61,7.64-21.95,7.64c-8.33,0-15.07-2.12-20.21-6.35
		C357.65,62.39,354.49,55.52,354.49,47.02z M374.41,46.97c0,4.62,0.94,8.04,2.81,10.25c1.87,2.21,4.22,3.32,7.06,3.32
		c2.86,0,5.22-1.09,7.06-3.27c1.84-2.18,2.76-5.68,2.76-10.5c0-4.49-0.93-7.84-2.78-10.03s-4.15-3.3-6.88-3.3
		c-2.9,0-5.29,1.12-7.18,3.34C375.36,39.02,374.41,42.42,374.41,46.97z"/>
	<path d="M423.63,20.95h18.51v8.45c2.77-3.45,5.57-5.92,8.4-7.4c2.83-1.48,6.28-2.22,10.35-2.22c5.5,0,9.81,1.64,12.92,4.91
		s4.66,8.33,4.66,15.16V72.8H458.5V44.29c0-3.25-0.6-5.56-1.81-6.91c-1.2-1.35-2.9-2.03-5.08-2.03c-2.41,0-4.36,0.91-5.86,2.73
		c-1.5,1.82-2.25,5.09-2.25,9.81v24.9h-19.87V20.95z"/>
	<path d="M524.41,1.22h19.87v13.53h-19.87V1.22z M524.41,20.95h19.87V72.8h-19.87V20.95z"/>
	<path d="M580.96,1.22v19.73h10.94v14.5h-10.94v18.41c0,2.21,0.21,3.68,0.63,4.39c0.65,1.11,1.79,1.66,3.42,1.66
		c1.46,0,3.52-0.42,6.15-1.27l1.46,13.72c-4.92,1.07-9.5,1.61-13.77,1.61c-4.95,0-8.59-0.63-10.94-1.9s-4.08-3.2-5.2-5.79
		s-1.68-6.78-1.68-12.57V35.45h-7.32v-14.5h7.32v-9.52L580.96,1.22z"/>
</g>
</svg>
