<?xml version="1.0" encoding="utf-8"?>
<!-- Generator: Adobe Illustrator 24.2.2, SVG Export Plug-In . SVG Version: 6.00 Build 0)  -->
<svg version="1.1" id="Layer_1" xmlns="http://www.w3.org/2000/svg" xmlns:xlink="http://www.w3.org/1999/xlink" x="0px" y="0px"
	 viewBox="0 0 281 47" style="enable-background:new 0 0 281 47;" xml:space="preserve">
<g>
	<path d="M0,0h33.62v8.84H22.34v26.95H11.28V8.84H0V0z"/>
	<path d="M35.91,9.86h9.3v4.25c0.89-1.84,1.82-3.1,2.77-3.8c0.95-0.69,2.13-1.04,3.53-1.04c1.46,0,3.07,0.46,4.81,1.37l-3.08,7.08
		c-1.17-0.49-2.1-0.73-2.78-0.73c-1.3,0-2.31,0.54-3.03,1.61c-1.03,1.51-1.54,4.35-1.54,8.5v8.69h-9.99V9.86z"/>
	<path d="M58.03,9.86h10.5l5.35,17.26l4.96-17.26h9.79L78.34,37.57c-1.17,3.16-2.37,5.29-3.59,6.4c-1.73,1.56-4.35,2.34-7.89,2.34
		c-1.43,0-3.65-0.2-6.64-0.59l-0.78-6.93c1.43,0.46,3.03,0.68,4.79,0.68c1.17,0,2.12-0.27,2.84-0.81s1.34-1.5,1.84-2.88L58.03,9.86z
		"/>
	<path d="M106.37,28.61l9.86-0.93c0.41,1.17,0.98,2.01,1.71,2.51c0.73,0.5,1.71,0.76,2.93,0.76c1.33,0,2.37-0.28,3.1-0.85
		c0.57-0.42,0.85-0.95,0.85-1.59c0-0.72-0.38-1.27-1.12-1.66c-0.54-0.28-1.96-0.62-4.27-1.03c-3.45-0.6-5.85-1.16-7.19-1.67
		c-1.34-0.51-2.47-1.38-3.39-2.6s-1.38-2.61-1.38-4.17c0-1.71,0.5-3.18,1.49-4.42c0.99-1.24,2.36-2.16,4.1-2.77
		c1.74-0.61,4.08-0.92,7.01-0.92c3.09,0,5.38,0.24,6.85,0.71c1.47,0.47,2.7,1.21,3.69,2.2c0.98,0.99,1.8,2.34,2.45,4.03l-9.42,0.93
		c-0.24-0.83-0.65-1.44-1.22-1.83c-0.78-0.52-1.73-0.78-2.83-0.78c-1.12,0-1.94,0.2-2.45,0.6c-0.51,0.4-0.77,0.88-0.77,1.45
		c0,0.63,0.33,1.12,0.98,1.44c0.65,0.33,2.07,0.62,4.25,0.88c3.3,0.38,5.76,0.9,7.37,1.56c1.61,0.67,2.84,1.62,3.7,2.86
		c0.85,1.24,1.28,2.6,1.28,4.08c0,1.5-0.45,2.95-1.36,4.37s-2.33,2.54-4.27,3.38c-1.95,0.84-4.59,1.26-7.95,1.26
		c-4.74,0-8.11-0.67-10.12-2.03C108.23,33.02,106.94,31.1,106.37,28.61z"/>
	<path d="M147.73,18.26l-9.5-1c0.36-1.66,0.87-2.97,1.55-3.92c0.68-0.95,1.65-1.78,2.92-2.48c0.91-0.5,2.16-0.89,3.76-1.17
		c1.59-0.28,3.32-0.42,5.18-0.42c2.98,0,5.37,0.17,7.18,0.5c1.81,0.33,3.31,1.03,4.52,2.09c0.85,0.73,1.51,1.77,2,3.11
		c0.49,1.34,0.73,2.62,0.73,3.84v11.45c0,1.22,0.08,2.18,0.23,2.87c0.15,0.69,0.49,1.57,1.01,2.65h-9.33
		c-0.38-0.67-0.62-1.18-0.73-1.53c-0.11-0.35-0.23-0.9-0.34-1.65c-1.3,1.25-2.6,2.15-3.88,2.69c-1.76,0.72-3.8,1.07-6.13,1.07
		c-3.09,0-5.44-0.72-7.04-2.15c-1.6-1.43-2.4-3.2-2.4-5.3c0-1.97,0.58-3.59,1.73-4.86c1.16-1.27,3.29-2.21,6.4-2.83
		c3.73-0.75,6.14-1.27,7.25-1.57c1.11-0.3,2.28-0.7,3.52-1.18c0-1.22-0.25-2.08-0.76-2.56c-0.5-0.49-1.39-0.73-2.66-0.73
		c-1.63,0-2.85,0.26-3.66,0.78C148.63,16.37,148.12,17.14,147.73,18.26z M156.35,23.49c-1.37,0.49-2.79,0.92-4.27,1.29
		c-2.02,0.54-3.3,1.07-3.83,1.59c-0.55,0.54-0.83,1.15-0.83,1.83c0,0.78,0.27,1.42,0.82,1.92c0.54,0.5,1.35,0.74,2.41,0.74
		c1.11,0,2.14-0.27,3.09-0.81s1.63-1.19,2.03-1.97c0.4-0.77,0.6-1.78,0.6-3.01V23.49z"/>
	<path d="M169.14,9.86h10.5l5.35,17.26l4.96-17.26h9.79l-10.28,27.71c-1.17,3.16-2.37,5.29-3.59,6.4c-1.73,1.56-4.35,2.34-7.89,2.34
		c-1.43,0-3.65-0.2-6.64-0.59l-0.78-6.93c1.43,0.46,3.03,0.68,4.79,0.68c1.17,0,2.12-0.27,2.84-0.81s1.34-1.5,1.84-2.88L169.14,9.86
		z"/>
	<path d="M202.93,0h9.94v6.76h-9.94V0z M202.93,9.86h9.94v25.93h-9.94V9.86z"/>
	<path d="M219.21,9.86h9.25v4.22c1.38-1.72,2.78-2.96,4.2-3.7c1.42-0.74,3.14-1.11,5.18-1.11c2.75,0,4.9,0.82,6.46,2.45
		c1.55,1.64,2.33,4.16,2.33,7.58v16.48h-9.99V21.53c0-1.63-0.3-2.78-0.9-3.46c-0.6-0.67-1.45-1.01-2.54-1.01
		c-1.21,0-2.18,0.46-2.93,1.37c-0.75,0.91-1.12,2.55-1.12,4.91v12.45h-9.94V9.86z"/>
	<path d="M270.61,9.86h9.3v24.49l0.02,1.15c0,1.63-0.35,3.18-1.04,4.65c-0.69,1.47-1.61,2.67-2.76,3.58
		c-1.15,0.91-2.6,1.57-4.37,1.98c-1.77,0.41-3.79,0.61-6.07,0.61c-5.21,0-8.79-0.78-10.73-2.34s-2.92-3.65-2.92-6.27
		c0-0.33,0.02-0.77,0.05-1.32l9.64,1.1c0.24,0.89,0.62,1.51,1.12,1.86c0.73,0.5,1.65,0.76,2.76,0.76c1.43,0,2.5-0.38,3.21-1.15
		c0.71-0.77,1.06-2.1,1.06-4v-3.93c-0.98,1.16-1.95,1.99-2.93,2.51c-1.53,0.81-3.18,1.22-4.96,1.22c-3.47,0-6.27-1.51-8.4-4.54
		c-1.51-2.15-2.27-4.99-2.27-8.52c0-4.04,0.98-7.11,2.93-9.23c1.95-2.12,4.51-3.17,7.67-3.17c2.02,0,3.68,0.34,4.99,1.03
		s2.54,1.82,3.67,3.39V9.86z M261.25,22.44c0,1.87,0.4,3.26,1.2,4.16c0.8,0.9,1.85,1.35,3.15,1.35c1.24,0,2.27-0.47,3.11-1.4
		c0.84-0.94,1.26-2.35,1.26-4.24c0-1.89-0.44-3.33-1.32-4.33c-0.88-1-1.95-1.5-3.22-1.5s-2.28,0.46-3.04,1.38
		C261.63,18.78,261.25,20.3,261.25,22.44z"/>
</g>
</svg>
