<?xml version="1.0" encoding="UTF-8"?>
<!DOCTYPE svg PUBLIC "-//W3C//DTD SVG 1.1//EN" "http://www.w3.org/Graphics/SVG/1.1/DTD/svg11.dtd">
<!-- Creator: CorelDRAW 2020 (64-Bit) -->
<svg xmlns="http://www.w3.org/2000/svg" xml:space="preserve" width="1.29878in" height="1.36007in" version="1.1" style="shape-rendering:geometricPrecision; text-rendering:geometricPrecision; image-rendering:optimizeQuality; fill-rule:evenodd; clip-rule:evenodd"
viewBox="0 0 803.04 840.94"
 xmlns:xlink="http://www.w3.org/1999/xlink"
 xmlns:xodm="http://www.corel.com/coreldraw/odm/2003">
 <defs>
  <style type="text/css">
   <![CDATA[
    .fil0 {fill:#373435;fill-rule:nonzero}
   ]]>
  </style>
 </defs>
 <g id="Layer_x0020_1">
  <metadata id="CorelCorpID_0Corel-Layer"/>
  <g>
   <path class="fil0" d="M803.04 144.2l-34.93 0 0 0 -0.14 -5.64 -0.42 -5.56 -0.69 -5.47 -0.96 -5.38 -1.22 -5.28 -1.47 -5.18 -1.72 -5.07 -1.95 -4.95 -2.19 -4.84 -2.41 -4.71 -2.63 -4.57 -2.84 -4.44 -3.05 -4.29 -3.24 -4.13 -3.43 -3.97 -3.62 -3.8 -3.8 -3.62 -3.97 -3.44 -4.13 -3.24 -4.29 -3.05 -4.43 -2.84 -4.58 -2.63 -4.71 -2.41 -4.84 -2.19 -4.95 -1.95 -5.07 -1.72 -5.18 -1.47 -5.28 -1.22 -5.38 -0.96 -5.47 -0.69 -5.56 -0.42 -5.64 -0.14 0 -34.93 7.4 0.19 7.32 0.56 7.22 0.92 7.11 1.27 6.98 1.61 6.85 1.94 6.7 2.27 6.56 2.59 6.39 2.89 6.22 3.18 6.04 3.47 5.85 3.75 5.65 4.02 5.45 4.28 5.23 4.53 5 4.77 4.77 5 4.53 5.23 4.28 5.44 4.02 5.65 3.75 5.85 3.48 6.04 3.18 6.22 2.89 6.39 2.59 6.56 2.27 6.7 1.94 6.85 1.61 6.98 1.27 7.1 0.92 7.22 0.56 7.32 0.19 7.4 0 0zm-144.2 144.2l0 -34.93 0 0 5.64 -0.14 5.56 -0.42 5.47 -0.69 5.38 -0.96 5.28 -1.22 5.18 -1.47 5.07 -1.72 4.95 -1.95 4.84 -2.19 4.71 -2.41 4.58 -2.63 4.43 -2.84 4.28 -3.05 4.13 -3.25 3.97 -3.43 3.8 -3.62 3.62 -3.8 3.43 -3.97 3.24 -4.13 3.05 -4.29 2.84 -4.43 2.63 -4.58 2.41 -4.71 2.19 -4.84 1.95 -4.95 1.72 -5.07 1.47 -5.18 1.22 -5.28 0.96 -5.38 0.69 -5.47 0.42 -5.56 0.14 -5.64 34.93 0 -0.19 7.4 -0.56 7.32 -0.92 7.22 -1.27 7.11 -1.61 6.98 -1.94 6.85 -2.27 6.7 -2.59 6.56 -2.89 6.39 -3.18 6.22 -3.47 6.04 -3.75 5.85 -4.02 5.65 -4.28 5.45 -4.53 5.23 -4.77 5 -5 4.77 -5.23 4.53 -5.44 4.28 -5.65 4.02 -5.85 3.75 -6.04 3.47 -6.22 3.18 -6.39 2.89 -6.56 2.59 -6.7 2.27 -6.85 1.94 -6.98 1.61 -7.11 1.27 -7.22 0.92 -7.32 0.56 -7.4 0.19 0 0zm-144.2 -144.2l34.93 0 0 0 0.14 5.64 0.42 5.56 0.69 5.47 0.96 5.38 1.22 5.28 1.47 5.18 1.72 5.07 1.95 4.95 2.19 4.84 2.41 4.71 2.63 4.58 2.84 4.43 3.05 4.29 3.24 4.13 3.44 3.97 3.62 3.8 3.8 3.62 3.97 3.44 4.13 3.25 4.29 3.05 4.43 2.84 4.57 2.63 4.71 2.41 4.84 2.19 4.95 1.95 5.07 1.72 5.18 1.47 5.28 1.22 5.38 0.96 5.47 0.69 5.56 0.42 5.64 0.14 0 34.93 -7.4 -0.19 -7.32 -0.56 -7.22 -0.92 -7.1 -1.27 -6.98 -1.61 -6.85 -1.94 -6.7 -2.27 -6.56 -2.59 -6.39 -2.89 -6.22 -3.18 -6.04 -3.47 -5.85 -3.75 -5.65 -4.02 -5.44 -4.28 -5.23 -4.53 -5 -4.77 -4.77 -5 -4.53 -5.23 -4.28 -5.45 -4.02 -5.65 -3.75 -5.85 -3.47 -6.04 -3.18 -6.22 -2.89 -6.39 -2.59 -6.56 -2.27 -6.7 -1.94 -6.85 -1.61 -6.98 -1.27 -7.11 -0.92 -7.22 -0.56 -7.32 -0.19 -7.4 0 0zm144.2 -144.2l0 34.93 0 0 -5.64 0.14 -5.56 0.42 -5.47 0.69 -5.38 0.96 -5.28 1.22 -5.18 1.47 -5.07 1.72 -4.95 1.95 -4.84 2.19 -4.71 2.41 -4.57 2.63 -4.43 2.84 -4.29 3.05 -4.13 3.24 -3.97 3.44 -3.8 3.62 -3.62 3.8 -3.44 3.97 -3.24 4.13 -3.05 4.29 -2.84 4.43 -2.63 4.57 -2.41 4.71 -2.19 4.84 -1.95 4.95 -1.72 5.07 -1.47 5.18 -1.22 5.28 -0.96 5.38 -0.69 5.47 -0.42 5.56 -0.14 5.64 -34.93 0 0.19 -7.4 0.56 -7.32 0.92 -7.22 1.27 -7.1 1.61 -6.98 1.94 -6.85 2.27 -6.7 2.59 -6.56 2.89 -6.39 3.18 -6.22 3.47 -6.04 3.75 -5.85 4.02 -5.65 4.28 -5.45 4.53 -5.23 4.77 -5 5 -4.77 5.23 -4.53 5.45 -4.28 5.65 -4.02 5.85 -3.75 6.04 -3.47 6.22 -3.18 6.39 -2.89 6.56 -2.59 6.7 -2.27 6.85 -1.94 6.98 -1.61 7.1 -1.27 7.22 -0.92 7.32 -0.56 7.4 -0.19 0 0zm-370.45 420.51l-34.93 0 0 0 -0.14 -5.64 -0.42 -5.56 -0.69 -5.47 -0.96 -5.38 -1.22 -5.28 -1.47 -5.18 -1.72 -5.07 -1.95 -4.95 -2.19 -4.84 -2.41 -4.71 -2.63 -4.57 -2.84 -4.43 -3.05 -4.29 -3.24 -4.13 -3.44 -3.97 -3.62 -3.8 -3.8 -3.62 -3.97 -3.44 -4.13 -3.24 -4.29 -3.05 -4.43 -2.84 -4.57 -2.63 -4.71 -2.41 -4.84 -2.19 -4.95 -1.95 -5.07 -1.72 -5.18 -1.47 -5.28 -1.22 -5.38 -0.96 -5.47 -0.69 -5.56 -0.42 -5.64 -0.14 0 -34.93 7.4 0.19 7.32 0.56 7.22 0.92 7.1 1.27 6.98 1.61 6.85 1.94 6.7 2.27 6.56 2.59 6.39 2.89 6.22 3.18 6.04 3.47 5.85 3.75 5.65 4.02 5.45 4.28 5.23 4.53 5 4.77 4.77 5 4.53 5.23 4.28 5.45 4.02 5.65 3.75 5.85 3.47 6.04 3.18 6.22 2.89 6.39 2.59 6.56 2.27 6.7 1.94 6.85 1.61 6.98 1.27 7.1 0.92 7.22 0.56 7.32 0.19 7.4 0 0zm-144.2 144.2l0 -34.93 0 0 5.64 -0.14 5.56 -0.42 5.47 -0.69 5.38 -0.96 5.28 -1.22 5.18 -1.47 5.07 -1.72 4.95 -1.95 4.84 -2.19 4.71 -2.41 4.57 -2.63 4.43 -2.84 4.29 -3.05 4.13 -3.25 3.97 -3.44 3.8 -3.62 3.62 -3.8 3.44 -3.97 3.24 -4.13 3.05 -4.29 2.84 -4.43 2.63 -4.58 2.41 -4.71 2.19 -4.84 1.95 -4.95 1.72 -5.07 1.47 -5.18 1.22 -5.28 0.96 -5.38 0.69 -5.47 0.42 -5.56 0.14 -5.64 34.93 0 -0.19 7.4 -0.56 7.32 -0.92 7.22 -1.27 7.11 -1.61 6.98 -1.94 6.85 -2.27 6.7 -2.59 6.56 -2.89 6.39 -3.18 6.22 -3.47 6.04 -3.75 5.85 -4.02 5.65 -4.28 5.45 -4.53 5.23 -4.77 5 -5 4.77 -5.23 4.53 -5.44 4.28 -5.65 4.02 -5.85 3.75 -6.04 3.47 -6.22 3.18 -6.39 2.89 -6.56 2.59 -6.7 2.27 -6.85 1.94 -6.98 1.61 -7.1 1.27 -7.22 0.92 -7.32 0.56 -7.4 0.19 0 0zm-144.2 -144.2l34.93 0 0 0 0.14 5.64 0.42 5.56 0.69 5.47 0.96 5.38 1.22 5.28 1.47 5.18 1.72 5.07 1.95 4.95 2.19 4.84 2.41 4.71 2.63 4.58 2.84 4.43 3.05 4.29 3.24 4.13 3.43 3.97 3.62 3.8 3.8 3.62 3.97 3.43 4.13 3.25 4.28 3.05 4.43 2.84 4.58 2.63 4.71 2.41 4.84 2.19 4.95 1.95 5.07 1.72 5.18 1.47 5.28 1.22 5.38 0.96 5.47 0.69 5.56 0.42 5.64 0.14 0 34.93 -7.4 -0.19 -7.32 -0.56 -7.22 -0.92 -7.11 -1.27 -6.98 -1.61 -6.85 -1.94 -6.7 -2.27 -6.56 -2.59 -6.39 -2.89 -6.22 -3.18 -6.04 -3.47 -5.85 -3.75 -5.65 -4.02 -5.44 -4.28 -5.23 -4.53 -5 -4.77 -4.77 -5 -4.53 -5.23 -4.28 -5.45 -4.02 -5.65 -3.75 -5.85 -3.47 -6.04 -3.18 -6.22 -2.89 -6.39 -2.59 -6.56 -2.27 -6.7 -1.94 -6.85 -1.61 -6.98 -1.27 -7.11 -0.92 -7.22 -0.56 -7.32 -0.19 -7.4 0 0zm144.2 -144.2l0 34.93 0 0 -5.64 0.14 -5.56 0.42 -5.47 0.69 -5.38 0.96 -5.28 1.22 -5.18 1.47 -5.07 1.72 -4.95 1.95 -4.84 2.19 -4.71 2.41 -4.58 2.63 -4.43 2.84 -4.29 3.05 -4.13 3.24 -3.97 3.44 -3.8 3.62 -3.62 3.8 -3.43 3.97 -3.24 4.13 -3.05 4.29 -2.84 4.44 -2.63 4.57 -2.41 4.71 -2.19 4.84 -1.95 4.95 -1.72 5.07 -1.47 5.18 -1.22 5.28 -0.96 5.38 -0.69 5.47 -0.42 5.56 -0.14 5.64 -34.93 0 0.19 -7.4 0.56 -7.32 0.92 -7.22 1.27 -7.1 1.61 -6.98 1.94 -6.85 2.27 -6.7 2.59 -6.56 2.89 -6.39 3.18 -6.22 3.48 -6.04 3.75 -5.85 4.02 -5.65 4.28 -5.44 4.53 -5.23 4.77 -5 5 -4.77 5.23 -4.53 5.45 -4.28 5.65 -4.02 5.85 -3.75 6.04 -3.47 6.22 -3.18 6.39 -2.89 6.56 -2.59 6.7 -2.27 6.85 -1.94 6.98 -1.61 7.11 -1.27 7.22 -0.92 7.32 -0.56 7.4 -0.19 0 0zm445.33 548.1l16.23 -30.93 0 0 5.06 2.5 5.11 2.21 5.17 1.93 5.2 1.65 5.24 1.37 5.27 1.11 5.29 0.83 5.3 0.57 5.3 0.31 5.29 0.05 5.27 -0.2 5.25 -0.46 5.21 -0.71 5.16 -0.95 5.11 -1.2 5.05 -1.44 4.97 -1.68 4.89 -1.92 4.79 -2.15 4.69 -2.38 4.57 -2.61 4.46 -2.83 4.32 -3.05 4.18 -3.26 4.04 -3.48 3.88 -3.69 3.71 -3.9 3.53 -4.11 3.35 -4.32 3.15 -4.52 2.96 -4.72 2.75 -4.93 30.93 16.23 -3.61 6.47 -3.89 6.22 -4.17 5.96 -4.43 5.7 -4.67 5.43 -4.91 5.17 -5.13 4.88 -5.33 4.6 -5.53 4.32 -5.71 4.03 -5.88 3.73 -6.04 3.44 -6.19 3.14 -6.32 2.83 -6.44 2.53 -6.56 2.22 -6.64 1.9 -6.74 1.58 -6.81 1.26 -6.87 0.93 -6.92 0.6 -6.96 0.27 -6.99 -0.07 -7 -0.41 -7.01 -0.76 -6.99 -1.11 -6.97 -1.46 -6.93 -1.82 -6.88 -2.18 -6.81 -2.54 -6.74 -2.91 -6.64 -3.27 0 0zm-60.69 -194.69l30.93 16.23 0 0 -2.5 5.06 -2.21 5.11 -1.93 5.17 -1.65 5.2 -1.37 5.24 -1.11 5.27 -0.83 5.29 -0.57 5.3 -0.31 5.3 -0.05 5.29 0.2 5.28 0.46 5.25 0.71 5.21 0.96 5.17 1.2 5.11 1.44 5.05 1.68 4.98 1.92 4.89 2.15 4.79 2.38 4.69 2.6 4.57 2.83 4.45 3.05 4.32 3.27 4.18 3.48 4.03 3.69 3.88 3.9 3.71 4.11 3.53 4.32 3.35 4.52 3.15 4.72 2.96 4.93 2.75 -16.23 30.93 -6.47 -3.61 -6.22 -3.89 -5.96 -4.17 -5.7 -4.43 -5.43 -4.67 -5.16 -4.91 -4.89 -5.13 -4.6 -5.33 -4.32 -5.53 -4.03 -5.71 -3.74 -5.88 -3.44 -6.04 -3.14 -6.18 -2.84 -6.32 -2.52 -6.44 -2.21 -6.55 -1.9 -6.65 -1.58 -6.74 -1.26 -6.81 -0.93 -6.88 -0.6 -6.92 -0.27 -6.96 0.07 -6.99 0.41 -7 0.76 -7.01 1.11 -6.99 1.46 -6.97 1.82 -6.93 2.18 -6.88 2.54 -6.81 2.91 -6.74 3.27 -6.64 0 0zm194.68 -60.69l-16.23 30.93 -0 0 -5.06 -2.5 -5.11 -2.21 -5.17 -1.93 -5.2 -1.65 -5.24 -1.37 -5.27 -1.11 -5.28 -0.83 -5.3 -0.57 -5.3 -0.31 -5.29 -0.05 -5.27 0.2 -5.25 0.46 -5.21 0.71 -5.16 0.95 -5.11 1.2 -5.05 1.44 -4.97 1.68 -4.89 1.92 -4.79 2.15 -4.69 2.38 -4.57 2.61 -4.46 2.83 -4.33 3.05 -4.18 3.26 -4.04 3.49 -3.88 3.69 -3.71 3.9 -3.53 4.11 -3.35 4.32 -3.15 4.52 -2.96 4.72 -2.75 4.93 -30.93 -16.23 3.61 -6.47 3.89 -6.22 4.17 -5.96 4.43 -5.7 4.67 -5.43 4.91 -5.17 5.13 -4.88 5.33 -4.6 5.53 -4.32 5.71 -4.03 5.88 -3.73 6.04 -3.44 6.19 -3.14 6.32 -2.83 6.44 -2.53 6.55 -2.22 6.65 -1.9 6.74 -1.58 6.81 -1.26 6.87 -0.93 6.92 -0.6 6.96 -0.27 6.99 0.07 7 0.41 7.01 0.76 6.99 1.11 6.96 1.46 6.93 1.82 6.88 2.18 6.81 2.54 6.74 2.91 6.64 3.27 -0 0zm60.69 194.69l-30.93 -16.23 0 0 2.5 -5.06 2.21 -5.11 1.93 -5.17 1.65 -5.2 1.37 -5.24 1.11 -5.27 0.83 -5.29 0.57 -5.3 0.31 -5.3 0.05 -5.29 -0.2 -5.27 -0.46 -5.25 -0.71 -5.21 -0.95 -5.16 -1.2 -5.11 -1.44 -5.05 -1.68 -4.97 -1.92 -4.89 -2.15 -4.79 -2.38 -4.69 -2.61 -4.58 -2.83 -4.45 -3.05 -4.32 -3.27 -4.18 -3.48 -4.03 -3.69 -3.88 -3.9 -3.71 -4.11 -3.53 -4.32 -3.35 -4.52 -3.15 -4.72 -2.96 -4.93 -2.75 16.23 -30.93 6.47 3.61 6.22 3.89 5.96 4.17 5.7 4.43 5.43 4.67 5.16 4.91 4.89 5.13 4.6 5.33 4.32 5.53 4.03 5.71 3.74 5.88 3.43 6.04 3.14 6.19 2.83 6.32 2.53 6.44 2.22 6.56 1.9 6.64 1.58 6.74 1.26 6.81 0.93 6.87 0.6 6.92 0.27 6.96 -0.07 6.99 -0.41 7 -0.76 7.01 -1.11 6.99 -1.46 6.97 -1.82 6.93 -2.18 6.88 -2.54 6.81 -2.91 6.74 -3.27 6.64 0 0zm-233.57 -551.22l-305.28 138.84 -14.46 -31.8 305.28 -138.84 14.46 31.8zm-16.67 447.43l-302.88 -138.73 14.55 -31.76 302.88 138.73 -14.55 31.76z"/>
  </g>
 </g>
</svg>
